<svg width="34" height="35" viewBox="0 0 34 35" fill="none" xmlns="http://www.w3.org/2000/svg">
<path d="M16.9964 34.1646C13.0741 34.1628 9.27302 32.8051 6.23719 30.3216C3.20135 27.838 1.11747 24.3813 0.338626 20.5371C-0.44022 16.6929 0.133869 12.6977 1.96362 9.22832C3.79337 5.75898 6.76626 3.02887 10.3786 1.5006C14.5329 -0.254427 19.2143 -0.287269 23.3928 1.4093C27.5714 3.10587 30.9048 6.39287 32.6599 10.5472C34.4149 14.7016 34.4477 19.3829 32.7512 23.5615C31.0546 27.74 27.7676 31.0735 23.6132 32.8285C21.52 33.7145 19.2694 34.1689 16.9964 34.1646ZM12.0111 15.335C11.9564 15.335 11.9023 15.3458 11.8519 15.3668C11.8014 15.3877 11.7556 15.4184 11.717 15.4571C11.6784 15.4958 11.6478 15.5417 11.627 15.5922C11.6062 15.6427 11.5955 15.6968 11.5956 15.7515V19.115C11.5956 19.2253 11.6394 19.331 11.7173 19.4091C11.7951 19.4872 11.9008 19.5311 12.0111 19.5314H14.6764V28.0158C14.6766 28.1261 14.7206 28.2317 14.7987 28.3096C14.8767 28.3875 14.9825 28.4312 15.0928 28.4312H18.5723C18.627 28.4314 18.6811 28.4207 18.7316 28.3999C18.7821 28.3791 18.8281 28.3485 18.8667 28.3099C18.9054 28.2713 18.9361 28.2255 18.9571 28.175C18.978 28.1245 18.9888 28.0704 18.9888 28.0158V19.5314H22.1046C22.215 19.5312 22.3209 19.4872 22.3991 19.4092C22.4773 19.3312 22.5215 19.2254 22.522 19.115V15.7485C22.5212 15.6381 22.477 15.5324 22.3989 15.4542C22.3208 15.3761 22.215 15.3319 22.1046 15.3311H18.9839V13.3651C18.9839 12.4201 19.2092 11.9393 20.4399 11.9393H22.2314C22.3416 11.9383 22.4469 11.8939 22.5247 11.8158C22.6024 11.7377 22.6463 11.6321 22.6468 11.5219V8.40124C22.6463 8.29122 22.6024 8.18585 22.5246 8.10805C22.4468 8.03025 22.3414 7.98631 22.2314 7.9858H19.5797C18.915 7.94813 18.25 8.05347 17.6294 8.29472C17.0089 8.53596 16.4473 8.90749 15.9825 9.38424C15.5178 9.861 15.1607 10.4319 14.9354 11.0584C14.7101 11.6849 14.6217 12.3524 14.6764 13.016V15.335H12.0111Z" fill="#5489CA"/>
</svg>
