<svg width="100" height="30" viewBox="0 0 100 30" fill="none" xmlns="http://www.w3.org/2000/svg">
<g clip-path="url(#clip0_56_2782)">
<path d="M96.4422 29.6296H3.50296C1.57185 29.6296 0 28.0533 0 26.1237V3.50074C0 1.57037 1.57185 0 3.50296 0H96.4422C98.3726 0 100 1.57037 100 3.50074V26.1237C100 28.0533 98.3726 29.6296 96.4422 29.6296Z" fill="#A6A6A6"/>
<path d="M99.2829 26.1244C99.2829 27.6919 98.0133 28.9615 96.4429 28.9615H3.50288C1.93325 28.9615 0.65918 27.6919 0.65918 26.1244V3.5C0.65918 1.93333 1.93325 0.659256 3.50288 0.659256H96.4421C98.0133 0.659256 99.2821 1.93333 99.2821 3.5L99.2829 26.1244Z" fill="#5489CA"/>
<path d="M22.3171 14.6548C22.2957 12.2674 24.272 11.1059 24.3623 11.0518C23.2431 9.41999 21.5082 9.19703 20.8986 9.17925C19.4416 9.02592 18.0282 10.0511 17.286 10.0511C16.529 10.0511 15.386 9.19407 14.1542 9.21925C12.569 9.2437 11.086 10.1615 10.2727 11.5867C8.59418 14.4926 9.84603 18.763 11.4542 21.1118C12.2586 22.2622 13.1986 23.5467 14.429 23.5015C15.6327 23.4518 16.0823 22.7341 17.5349 22.7341C18.9742 22.7341 19.3964 23.5015 20.6512 23.4726C21.9431 23.4518 22.7564 22.317 23.5327 21.1563C24.4623 19.8378 24.8357 18.5393 24.8505 18.4726C24.8201 18.4622 22.3416 17.5163 22.3171 14.6548Z" fill="white"/>
<path d="M19.947 7.63387C20.5944 6.82424 21.0374 5.72276 20.9144 4.60498C19.9774 4.64646 18.8055 5.25313 18.1307 6.04498C17.5337 6.74276 17.0004 7.88646 17.1381 8.96202C18.1907 9.04054 19.2715 8.43091 19.947 7.63387Z" fill="white"/>
<path d="M39.7373 23.3363H38.055L37.1336 20.4407H33.9306L33.0528 23.3363H31.415L34.5884 13.4785H36.5484L39.7373 23.3363ZM36.8558 19.2259L36.0224 16.6518C35.9343 16.3889 35.7691 15.7696 35.5254 14.7948H35.4958C35.3987 15.2141 35.2424 15.8333 35.0276 16.6518L34.2091 19.2259H36.8558Z" fill="white"/>
<path d="M47.8979 19.6948C47.8979 20.9037 47.5713 21.8593 46.9179 22.5607C46.3327 23.1852 45.6061 23.497 44.7387 23.497C43.8024 23.497 43.1298 23.1607 42.7201 22.4881H42.6905V26.2326H41.1113V18.5681C41.1113 17.8081 41.0913 17.0281 41.0527 16.2281H42.4416L42.5298 17.3548H42.5594C43.0861 16.5059 43.8853 16.0822 44.9579 16.0822C45.7964 16.0822 46.4964 16.4133 47.0564 17.0763C47.6179 17.74 47.8979 18.6126 47.8979 19.6948ZM46.289 19.7526C46.289 19.0607 46.1335 18.4904 45.8209 18.0415C45.4794 17.5733 45.0209 17.3393 44.4461 17.3393C44.0564 17.3393 43.7024 17.4696 43.3861 17.7267C43.069 17.9859 42.8616 18.3244 42.7646 18.7437C42.7157 18.9393 42.6913 19.0993 42.6913 19.2252V20.4104C42.6913 20.9274 42.8498 21.3637 43.1668 21.72C43.4838 22.0763 43.8957 22.2541 44.4024 22.2541C44.9972 22.2541 45.4601 22.0244 45.7913 21.5667C46.1231 21.1081 46.289 20.5037 46.289 19.7526Z" fill="white"/>
<path d="M56.073 19.6946C56.073 20.9035 55.7463 21.8591 55.0922 22.5606C54.5078 23.185 53.7811 23.4968 52.9137 23.4968C51.9774 23.4968 51.3048 23.1605 50.8959 22.488H50.8663V26.2324H49.287V18.568C49.287 17.808 49.267 17.028 49.2285 16.228H50.6174L50.7056 17.3546H50.7352C51.2611 16.5057 52.0604 16.082 53.1337 16.082C53.9715 16.082 54.6715 16.4131 55.233 17.0761C55.7922 17.7398 56.073 18.6124 56.073 19.6946ZM54.4641 19.7524C54.4641 19.0605 54.3078 18.4902 53.9952 18.0413C53.6537 17.5731 53.1967 17.3391 52.6211 17.3391C52.2307 17.3391 51.8774 17.4694 51.5604 17.7265C51.2433 17.9857 51.0367 18.3243 50.9396 18.7435C50.8915 18.9391 50.8663 19.0991 50.8663 19.225V20.4102C50.8663 20.9272 51.0248 21.3635 51.3404 21.7198C51.6574 22.0754 52.0693 22.2539 52.5774 22.2539C53.1722 22.2539 53.6352 22.0243 53.9663 21.5665C54.2981 21.108 54.4641 20.5035 54.4641 19.7524Z" fill="white"/>
<path d="M65.2142 20.5719C65.2142 21.4104 64.9231 22.0926 64.3386 22.6193C63.6964 23.1948 62.8023 23.4822 61.6535 23.4822C60.5927 23.4822 59.7423 23.2778 59.0986 22.8681L59.4646 21.5519C60.1579 21.9711 60.9186 22.1815 61.7475 22.1815C62.3423 22.1815 62.8053 22.0467 63.1379 21.7785C63.469 21.5104 63.6342 21.1504 63.6342 20.7015C63.6342 20.3015 63.4979 19.9644 63.2246 19.6911C62.9527 19.4178 62.4986 19.1637 61.8646 18.9289C60.1386 18.2852 59.2764 17.3422 59.2764 16.1022C59.2764 15.2919 59.5786 14.6274 60.1838 14.1104C60.7868 13.5926 61.5912 13.3341 62.5972 13.3341C63.4942 13.3341 64.2394 13.4904 64.8342 13.8022L64.4394 15.0896C63.8838 14.7874 63.2557 14.6363 62.5527 14.6363C61.9972 14.6363 61.5631 14.7733 61.252 15.0459C60.989 15.2896 60.8572 15.5867 60.8572 15.9385C60.8572 16.3282 61.0075 16.6504 61.3097 16.9037C61.5727 17.1378 62.0505 17.3911 62.7438 17.6644C63.592 18.0059 64.2149 18.4052 64.6157 18.863C65.0149 19.3193 65.2142 19.8904 65.2142 20.5719Z" fill="white"/>
<path d="M70.4353 17.4133H68.6946V20.8644C68.6946 21.7422 69.0013 22.1807 69.6161 22.1807C69.8983 22.1807 70.1324 22.1563 70.3176 22.1074L70.3613 23.3067C70.0501 23.423 69.6405 23.4815 69.1331 23.4815C68.5094 23.4815 68.022 23.2911 67.6701 22.9111C67.3198 22.5304 67.1435 21.8918 67.1435 20.9948V17.4118H66.1064V16.2267H67.1435V14.9252L68.6946 14.457V16.2267H70.4353V17.4133Z" fill="white"/>
<path d="M78.2894 19.7237C78.2894 20.8163 77.9768 21.7134 77.3531 22.4149C76.699 23.1371 75.8309 23.4971 74.7486 23.4971C73.7057 23.4971 72.8753 23.1512 72.256 22.4593C71.6368 21.7675 71.3271 20.8941 71.3271 19.8415C71.3271 18.74 71.6457 17.8378 72.2849 17.1363C72.9227 16.4341 73.7834 16.083 74.8657 16.083C75.9086 16.083 76.7479 16.4289 77.3812 17.1215C77.9871 17.7934 78.2894 18.6608 78.2894 19.7237ZM76.6508 19.7749C76.6508 19.1193 76.5109 18.5571 76.2271 18.0882C75.896 17.5208 75.4227 17.2378 74.8094 17.2378C74.1746 17.2378 73.6923 17.5215 73.3612 18.0882C73.0775 18.5578 72.9375 19.1289 72.9375 19.8045C72.9375 20.46 73.0775 21.0223 73.3612 21.4904C73.7027 22.0578 74.1797 22.3408 74.7953 22.3408C75.3983 22.3408 75.8716 22.0519 76.2131 21.4756C76.5042 20.9978 76.6508 20.4297 76.6508 19.7749Z" fill="white"/>
<path d="M83.4231 17.617C83.2668 17.5881 83.1001 17.5733 82.9253 17.5733C82.3697 17.5733 81.9401 17.783 81.6379 18.203C81.3749 18.5733 81.2431 19.0415 81.2431 19.6067V23.3363H79.6646L79.6794 18.4667C79.6794 17.6474 79.6594 16.9015 79.6201 16.2289H80.9957L81.0534 17.5889H81.0972C81.2638 17.1215 81.5268 16.7452 81.8868 16.463C82.2386 16.2089 82.6186 16.0822 83.0283 16.0822C83.1742 16.0822 83.306 16.0926 83.4231 16.1111V17.617Z" fill="white"/>
<path d="M90.486 19.4459C90.486 19.7289 90.4675 19.9674 90.4282 20.1622H85.6904C85.7089 20.8644 85.9378 21.4015 86.3778 21.7719C86.7771 22.103 87.2934 22.2689 87.9275 22.2689C88.6289 22.2689 89.2689 22.157 89.8445 21.9326L90.0919 23.0289C89.4193 23.3222 88.6252 23.4682 87.7089 23.4682C86.6067 23.4682 85.7415 23.1437 85.1119 22.4956C84.4838 21.8474 84.1689 20.977 84.1689 19.8852C84.1689 18.8133 84.4615 17.9207 85.0475 17.2089C85.6608 16.4489 86.4897 16.0689 87.5326 16.0689C88.5571 16.0689 89.3326 16.4489 89.8593 17.2089C90.2764 17.8126 90.486 18.5593 90.486 19.4459ZM88.9801 19.0363C88.9904 18.5682 88.8875 18.1637 88.6734 17.8222C88.4001 17.383 87.9801 17.1637 87.4149 17.1637C86.8986 17.1637 86.4786 17.3778 86.1578 17.8074C85.8949 18.1489 85.7386 18.5585 85.6904 19.0356L88.9801 19.0363Z" fill="white"/>
<path d="M36.3333 7.41407C36.3333 8.28592 36.0718 8.94222 35.5496 9.38296C35.0659 9.78962 34.3785 9.99333 33.4881 9.99333C33.0466 9.99333 32.6688 9.97407 32.3525 9.93555V5.17185C32.7651 5.10518 33.2096 5.07111 33.6896 5.07111C34.5377 5.07111 35.177 5.25555 35.6081 5.62444C36.0911 6.04148 36.3333 6.63777 36.3333 7.41407ZM35.5148 7.43555C35.5148 6.87037 35.3651 6.43703 35.0659 6.13481C34.7666 5.83333 34.3296 5.68222 33.754 5.68222C33.5096 5.68222 33.3014 5.69851 33.1288 5.73259V9.35407C33.2244 9.36888 33.3992 9.37555 33.6533 9.37555C34.2474 9.37555 34.7059 9.21036 35.0288 8.87999C35.3518 8.54962 35.5148 8.06814 35.5148 7.43555Z" fill="white"/>
<path d="M40.6729 8.17535C40.6729 8.71239 40.5196 9.15239 40.2129 9.49758C39.8914 9.85239 39.4655 10.0294 38.9337 10.0294C38.4211 10.0294 38.0129 9.8598 37.7085 9.51906C37.4048 9.17906 37.2529 8.75017 37.2529 8.23313C37.2529 7.69239 37.4092 7.24869 37.7233 6.90424C38.0374 6.5598 38.4596 6.38721 38.9914 6.38721C39.504 6.38721 39.9159 6.55684 40.2277 6.89684C40.524 7.22721 40.6729 7.65387 40.6729 8.17535ZM39.8677 8.20054C39.8677 7.87832 39.7981 7.60202 39.6596 7.37165C39.4966 7.09313 39.2648 6.95387 38.9633 6.95387C38.6514 6.95387 38.4144 7.09313 38.2514 7.37165C38.1122 7.60202 38.0433 7.88276 38.0433 8.21461C38.0433 8.53684 38.1129 8.81313 38.2514 9.0435C38.4196 9.32202 38.6537 9.46128 38.9559 9.46128C39.2522 9.46128 39.4848 9.3198 39.6522 9.0361C39.7959 8.80128 39.8677 8.52276 39.8677 8.20054Z" fill="white"/>
<path d="M46.4929 6.4585L45.4003 9.95035H44.6891L44.2366 8.43405C44.1217 8.05553 44.0284 7.67924 43.9558 7.3059H43.9417C43.8743 7.68961 43.781 8.06516 43.661 8.43405L43.1803 9.95035H42.461L41.4336 6.4585H42.2314L42.6262 8.1185C42.7217 8.51109 42.8003 8.88516 42.8632 9.23924H42.8773C42.9351 8.94738 43.0306 8.57553 43.1654 8.1259L43.661 6.45924H44.2936L44.7684 8.09035C44.8832 8.48813 44.9766 8.87109 45.0484 9.23998H45.0699C45.1225 8.88072 45.2017 8.49776 45.3069 8.09035L45.7306 6.45924H46.4929V6.4585Z" fill="white"/>
<path d="M50.5168 9.95044H49.7405V7.95044C49.7405 7.33414 49.5064 7.02599 49.0368 7.02599C48.8064 7.02599 48.6205 7.11044 48.4761 7.28007C48.3331 7.4497 48.2605 7.6497 48.2605 7.87859V9.9497H47.4842V7.45637C47.4842 7.1497 47.4746 6.81711 47.4561 6.45711H48.1383L48.1746 7.00303H48.1961C48.2864 6.8334 48.4212 6.6934 48.5983 6.58155C48.8086 6.45118 49.0442 6.38525 49.302 6.38525C49.6279 6.38525 49.899 6.49044 50.1146 6.70155C50.3827 6.96007 50.5168 7.34599 50.5168 7.85859V9.95044Z" fill="white"/>
<path d="M52.6574 9.95052H51.8818V4.85645H52.6574V9.95052Z" fill="white"/>
<path d="M57.2286 8.17535C57.2286 8.71239 57.0753 9.15239 56.7686 9.49758C56.4471 9.85239 56.0204 10.0294 55.4893 10.0294C54.976 10.0294 54.5679 9.8598 54.2641 9.51906C53.9604 9.17906 53.8086 8.75017 53.8086 8.23313C53.8086 7.69239 53.9649 7.24869 54.279 6.90424C54.593 6.5598 55.0153 6.38721 55.5464 6.38721C56.0597 6.38721 56.4708 6.55684 56.7834 6.89684C57.0797 7.22721 57.2286 7.65387 57.2286 8.17535ZM56.4227 8.20054C56.4227 7.87832 56.353 7.60202 56.2145 7.37165C56.0523 7.09313 55.8197 6.95387 55.519 6.95387C55.2064 6.95387 54.9693 7.09313 54.8071 7.37165C54.6679 7.60202 54.599 7.88276 54.599 8.21461C54.599 8.53684 54.6686 8.81313 54.8071 9.0435C54.9753 9.32202 55.2093 9.46128 55.5116 9.46128C55.8079 9.46128 56.0397 9.3198 56.2071 9.0361C56.3516 8.80128 56.4227 8.52276 56.4227 8.20054Z" fill="white"/>
<path d="M60.9848 9.95017H60.2878L60.23 9.54795H60.2085C59.97 9.86869 59.63 10.0294 59.1885 10.0294C58.8589 10.0294 58.5922 9.9235 58.3915 9.71313C58.2093 9.52202 58.1182 9.28424 58.1182 9.00202C58.1182 8.57536 58.2959 8.25017 58.6537 8.02498C59.0108 7.7998 59.513 7.68943 60.1596 7.69461V7.62943C60.1596 7.16943 59.9182 6.9398 59.4345 6.9398C59.09 6.9398 58.7863 7.02647 58.5241 7.19832L58.3663 6.68869C58.6908 6.48795 59.0915 6.38721 59.5641 6.38721C60.4767 6.38721 60.9345 6.86869 60.9345 7.83165V9.11758C60.9345 9.46647 60.9515 9.74424 60.9848 9.95017ZM60.1789 8.75017V8.21165C59.3226 8.19684 58.8945 8.43165 58.8945 8.91536C58.8945 9.09758 58.9433 9.23387 59.0433 9.32498C59.1433 9.4161 59.2708 9.46128 59.4226 9.46128C59.593 9.46128 59.7522 9.40721 59.8974 9.2998C60.0433 9.19165 60.133 9.05461 60.1663 8.88647C60.1745 8.84869 60.1789 8.80276 60.1789 8.75017Z" fill="white"/>
<path d="M65.3958 9.95052H64.7069L64.6706 9.38978H64.6492C64.4292 9.81644 64.0543 10.0298 63.5277 10.0298C63.1069 10.0298 62.7566 9.86459 62.4788 9.53422C62.201 9.20385 62.0625 8.77496 62.0625 8.2483C62.0625 7.68311 62.2129 7.22533 62.5151 6.8757C62.8077 6.54978 63.1662 6.38682 63.5929 6.38682C64.0618 6.38682 64.3899 6.54459 64.5766 6.86089H64.5914V4.85645H65.3684V9.00978C65.3684 9.34978 65.3773 9.66311 65.3958 9.95052ZM64.5914 8.47793V7.8957C64.5914 7.79496 64.584 7.71348 64.5699 7.65126C64.5262 7.46459 64.4321 7.30756 64.2892 7.18089C64.1447 7.05422 63.9706 6.99052 63.7699 6.99052C63.4803 6.99052 63.2536 7.10533 63.0869 7.3357C62.9218 7.56607 62.8381 7.86015 62.8381 8.21941C62.8381 8.56459 62.9173 8.84459 63.0766 9.06015C63.2447 9.28978 63.4714 9.40459 63.7551 9.40459C64.0099 9.40459 64.2136 9.30904 64.3684 9.11719C64.5181 8.94015 64.5914 8.72682 64.5914 8.47793Z" fill="white"/>
<path d="M72.0352 8.17535C72.0352 8.71239 71.8819 9.15239 71.5752 9.49758C71.2538 9.85239 70.8286 10.0294 70.296 10.0294C69.7841 10.0294 69.376 9.8598 69.0708 9.51906C68.7671 9.17906 68.6152 8.75017 68.6152 8.23313C68.6152 7.69239 68.7715 7.24869 69.0856 6.90424C69.3997 6.5598 69.8219 6.38721 70.3545 6.38721C70.8663 6.38721 71.2789 6.55684 71.5901 6.89684C71.8864 7.22721 72.0352 7.65387 72.0352 8.17535ZM71.2308 8.20054C71.2308 7.87832 71.1612 7.60202 71.0226 7.37165C70.8589 7.09313 70.6278 6.95387 70.3256 6.95387C70.0145 6.95387 69.7775 7.09313 69.6138 7.37165C69.4745 7.60202 69.4056 7.88276 69.4056 8.21461C69.4056 8.53684 69.4752 8.81313 69.6138 9.0435C69.7819 9.32202 70.016 9.46128 70.3182 9.46128C70.6145 9.46128 70.8478 9.3198 71.0152 9.0361C71.1582 8.80128 71.2308 8.52276 71.2308 8.20054Z" fill="white"/>
<path d="M76.2094 9.95038H75.4339V7.95038C75.4339 7.33408 75.1998 7.02593 74.7294 7.02593C74.499 7.02593 74.3131 7.11038 74.1694 7.28001C74.0257 7.44964 73.9539 7.64964 73.9539 7.87853V9.94964H73.1768V7.4563C73.1768 7.14964 73.1679 6.81704 73.1494 6.45704H73.8309L73.8672 7.00297H73.8887C73.9798 6.83334 74.1146 6.69334 74.2909 6.58149C74.502 6.45112 74.7368 6.38519 74.9953 6.38519C75.3205 6.38519 75.5916 6.49038 75.8072 6.70149C76.0761 6.96001 76.2094 7.34593 76.2094 7.85853V9.95038Z" fill="white"/>
<path d="M81.4343 7.03999H80.5795V8.73629C80.5795 9.1674 80.7313 9.38296 81.0321 9.38296C81.1713 9.38296 81.2869 9.3711 81.378 9.34666L81.398 9.93555C81.2447 9.99333 81.0432 10.0222 80.795 10.0222C80.4884 10.0222 80.2498 9.92888 80.0772 9.74222C79.9039 9.55555 79.818 9.24147 79.818 8.80073V7.03999H79.3076V6.45851H79.818V5.81851L80.5787 5.58888V6.45777H81.4335L81.4343 7.03999Z" fill="white"/>
<path d="M85.5433 9.95052H84.7663V7.96533C84.7663 7.33941 84.5322 7.02607 84.0633 7.02607C83.7033 7.02607 83.4574 7.20756 83.3226 7.57052C83.2996 7.64682 83.2863 7.74015 83.2863 7.84978V9.94978H82.5107V4.85645H83.2863V6.96089H83.3011C83.5456 6.57793 83.8959 6.38682 84.35 6.38682C84.6715 6.38682 84.9374 6.492 85.1485 6.70311C85.4115 6.96607 85.5433 7.35719 85.5433 7.87422V9.95052Z" fill="white"/>
<path d="M89.7832 8.03926C89.7832 8.17851 89.7728 8.29555 89.7543 8.39111H87.4261C87.4365 8.73629 87.5476 8.99926 87.7632 9.18148C87.9602 9.34444 88.2143 9.42592 88.5254 9.42592C88.8698 9.42592 89.1839 9.37111 89.4669 9.26074L89.5883 9.8C89.2572 9.9437 88.8676 10.0156 88.4165 10.0156C87.8757 10.0156 87.4498 9.85629 87.1417 9.53777C86.832 9.21926 86.6787 8.79185 86.6787 8.25555C86.6787 7.72889 86.8217 7.29037 87.1098 6.94074C87.4106 6.5674 87.8172 6.38074 88.3306 6.38074C88.8328 6.38074 89.2143 6.5674 89.472 6.94074C89.6802 7.23703 89.7832 7.6037 89.7832 8.03926ZM89.0424 7.83851C89.0483 7.60814 88.9972 7.40963 88.892 7.24222C88.7572 7.02666 88.552 6.91851 88.2743 6.91851C88.0209 6.91851 87.8143 7.0237 87.6565 7.23481C87.5276 7.40296 87.4513 7.6037 87.4261 7.83851H89.0424Z" fill="white"/>
</g>
<defs>
<clipPath id="clip0_56_2782">
<rect width="100" height="29.6296" fill="white"/>
</clipPath>
</defs>
</svg>
