<svg width="34" height="35" viewBox="0 0 34 35" fill="none" xmlns="http://www.w3.org/2000/svg">
<path d="M17.0209 34.1646C13.0992 34.1617 9.29903 32.8035 6.26401 30.3198C3.22899 27.8362 1.14569 24.3799 0.366965 20.5363C-0.411761 16.6927 0.161951 12.6981 1.99093 9.22902C3.81992 5.75994 6.79174 3.02966 10.4031 1.5006C14.5499 -0.213674 19.2063 -0.219385 23.3574 1.48471C27.5084 3.18881 30.8177 6.46458 32.5639 10.5981C34.3101 14.7316 34.3518 19.3878 32.6798 23.5519C31.0078 27.716 27.7577 31.0504 23.6377 32.8285C21.5445 33.7144 19.2939 34.1688 17.0209 34.1646ZM12.0102 6.33281C11.7087 6.33303 11.4076 6.35454 11.1091 6.39717C9.8121 6.59946 8.6308 7.26063 7.78013 8.26039C6.92945 9.26015 6.46594 10.5321 6.47391 11.8447V17.2748C6.47391 17.6713 6.47391 18.0679 6.47391 18.4645V20.845V21.5189C6.4578 22.15 6.47538 22.7816 6.52657 23.4108C6.67436 24.7367 7.3042 25.962 8.29635 26.8538C9.2885 27.7456 10.5738 28.2418 11.9078 28.2479H22.9132C24.366 28.2464 25.7589 27.6685 26.7862 26.6412C27.8135 25.6139 28.3914 24.221 28.3929 22.7682V11.7892C28.386 10.3454 27.8104 8.96252 26.7909 7.94025C25.7714 6.91798 24.39 6.33869 22.9463 6.32793C19.5604 6.32793 16.0223 6.32793 12.136 6.33281H12.0102ZM17.4295 26.6905C15.6156 26.6905 13.7763 26.6905 11.9683 26.6905H11.9342C11.4237 26.6916 10.9182 26.5914 10.4468 26.3957C9.9754 26.2 9.54752 25.9127 9.18794 25.5505C8.82435 25.1857 8.53659 24.7526 8.34126 24.276C8.14592 23.7995 8.04689 23.289 8.04986 22.774V11.8145C8.04625 11.3001 8.14443 10.79 8.33874 10.3137C8.53306 9.83734 8.81967 9.40415 9.18209 9.03904C9.54164 8.67642 9.96963 8.38883 10.4412 8.19296C10.9128 7.99709 11.4186 7.89684 11.9293 7.89803H22.9385C23.4489 7.89756 23.9544 7.99814 24.4257 8.19397C24.897 8.3898 25.3249 8.67701 25.6847 9.03904C26.0472 9.40377 26.3343 9.83636 26.5296 10.3121C26.7249 10.7878 26.8245 11.2973 26.8228 11.8116V17.3128C26.8228 19.1228 26.8244 20.9318 26.8277 22.7399C26.8356 23.2557 26.7408 23.7679 26.5489 24.2468C26.357 24.7256 26.0718 25.1615 25.7099 25.5292C25.348 25.8968 24.9166 26.1888 24.4409 26.3881C23.9651 26.5875 23.4544 26.6903 22.9385 26.6905H22.8927C21.0856 26.6905 19.2434 26.6905 17.4295 26.6905ZM17.449 11.8106H17.4432C16.0022 11.8245 14.6247 12.4054 13.6089 13.4276C12.5932 14.4498 12.021 15.831 12.0162 17.2721C12.0115 18.7131 12.5746 20.098 13.5836 21.1269C14.5926 22.1558 15.9662 22.7458 17.4071 22.7691H17.4285C18.8819 22.7718 20.2767 22.1971 21.3063 21.1714C22.3359 20.1457 22.9158 18.7529 22.9185 17.2996C22.9212 15.8463 22.3465 14.4514 21.3208 13.4219C20.295 12.3923 18.9023 11.8123 17.449 11.8096V11.8106ZM23.6963 9.46326C23.2907 9.46545 22.9025 9.6284 22.6168 9.91637C22.3312 10.2043 22.1714 10.5938 22.1725 10.9994C22.1736 11.4051 22.3355 11.7937 22.6227 12.0801C22.9099 12.3665 23.2989 12.5274 23.7045 12.5274C24.1102 12.5274 24.4992 12.3665 24.7864 12.0801C25.0736 11.7937 25.2355 11.4051 25.2366 10.9994C25.2377 10.5938 25.0779 10.2043 24.7923 9.91637C24.5066 9.6284 24.1184 9.46545 23.7128 9.46326H23.6963ZM17.4354 21.202C16.5302 21.201 15.6533 20.8862 14.9542 20.3112C14.255 19.7363 13.7769 18.9366 13.6012 18.0486C13.4256 17.1607 13.5632 16.2392 13.9908 15.4414C14.4184 14.6435 15.1093 14.0186 15.946 13.673C16.7827 13.3275 17.7133 13.2828 18.5792 13.5465C19.4451 13.8102 20.1929 14.366 20.695 15.1192C21.1971 15.8724 21.4225 16.7763 21.3328 17.6771C21.243 18.5778 20.8438 19.4196 20.203 20.059C19.4681 20.7913 18.4728 21.2023 17.4354 21.202Z" fill="#5489CA"/>
</svg>
