<svg width="32" height="33" viewBox="0 0 32 33" fill="none" xmlns="http://www.w3.org/2000/svg">
<path fill-rule="evenodd" clip-rule="evenodd" d="M16.0775 0.224054C12.9188 0.216378 9.8289 1.14551 7.19834 2.89396C4.56779 4.6424 2.51478 7.13163 1.29894 10.0469C0.083093 12.9621 -0.24098 16.1724 0.367699 19.2718C0.976379 22.3713 2.49047 25.2206 4.71851 27.4595C6.94655 29.6984 9.78847 31.2263 12.8849 31.8501C15.9813 32.4738 19.1932 32.1654 22.1143 30.9637C25.0354 29.7621 27.5346 27.7212 29.2958 25.0992C31.057 22.4772 32.0012 19.3918 32.0089 16.2332C32.014 14.1359 31.606 12.0582 30.8081 10.1187C30.0102 8.17911 28.8382 6.41569 27.3588 4.9291C25.8794 3.44252 24.1217 2.26187 22.1861 1.45458C20.2504 0.647283 18.1747 0.22915 16.0775 0.224054ZM12.0946 23.9463H8.03403V9.93834H12.0946V23.9463ZM10.1517 9.07377C9.91447 9.0725 9.67976 9.0245 9.46103 8.93252C9.2423 8.84054 9.04383 8.70638 8.87694 8.53769C8.71006 8.36901 8.57804 8.1691 8.48842 7.94939C8.3988 7.72969 8.35333 7.49448 8.35461 7.2572C8.34941 6.76676 8.53861 6.29422 8.88084 5.94288C9.22307 5.59155 9.69049 5.39002 10.1809 5.38234C10.6846 5.38203 11.1687 5.57736 11.5312 5.92714C11.8937 6.27692 12.1061 6.7538 12.1237 7.2572C12.1263 7.50376 12.08 7.74839 11.9874 7.97692C11.8948 8.20546 11.7578 8.41337 11.5844 8.58863C11.4109 8.76389 11.2044 8.90301 10.9769 8.99796C10.7493 9.0929 10.5052 9.14178 10.2586 9.14177H10.1809L10.1517 9.07377ZM26.0346 23.9852H22.0517V15.2909C22.0517 14.3195 21.7312 13.5715 20.5363 13.5715C19.9907 13.5339 19.4485 13.6839 18.9998 13.9967C18.551 14.3094 18.2226 14.766 18.0689 15.2909V24.0338H14.086V9.93834H18.0689V11.2983C19.2233 10.4429 20.6152 9.96758 22.0517 9.93834C23.3243 9.93834 26.0346 10.7252 26.0346 15.4269V23.9852Z" fill="#5489CA"/>
</svg>
