<svg width="34" height="35" viewBox="0 0 34 35" fill="none" xmlns="http://www.w3.org/2000/svg">
<path d="M16.5139 34.1646C14.3019 34.1681 12.1131 33.7132 10.0858 32.8286C8.11469 31.969 6.33137 30.7312 4.83682 29.1852C3.32205 27.627 2.12048 25.7925 1.29734 23.7814C-0.432446 19.5401 -0.432446 14.79 1.29734 10.5487C2.12037 8.53721 3.32194 6.70241 4.83682 5.14395C6.33137 3.59791 8.11469 2.36008 10.0858 1.50057C12.1143 0.619414 14.3023 0.164719 16.5139 0.164719C18.7255 0.164719 20.9135 0.619414 22.942 1.50057C24.9131 2.36008 26.6964 3.59791 28.1909 5.14395C29.7057 6.70212 30.9073 8.53658 31.7304 10.5478C33.4602 14.789 33.4602 19.5391 31.7304 23.7804C30.9073 25.7916 29.7057 27.626 28.1909 29.1842C26.6964 30.7302 24.9131 31.9681 22.942 32.8276C20.9147 33.7126 18.7259 34.1678 16.5139 34.1646ZM5.27203 25.3683C6.04758 25.8833 6.88172 26.3042 7.75682 26.622C10.0793 27.4812 12.5919 27.6916 15.025 27.2307C18.1938 26.6953 21.0373 24.9668 22.9714 22.4003C24.9402 19.8886 25.9712 16.7688 25.8865 13.5785C25.8817 13.5166 25.8927 13.4545 25.9186 13.3981C25.9445 13.3416 25.9844 13.2927 26.0345 13.256C26.4006 12.9696 26.7504 12.663 27.0823 12.3376C27.3636 12.0435 27.6263 11.7289 27.8812 11.4221C27.991 11.2898 28.1047 11.1535 28.2184 11.0202L28.1723 10.9722L27.9086 11.0702C27.7312 11.1378 27.5479 11.2065 27.3558 11.2662C27.0755 11.3545 26.7834 11.4348 26.4883 11.5034C26.3011 11.5466 26.108 11.5799 25.9208 11.6113L25.6581 11.6573C26.5535 11.0371 27.2167 10.1362 27.543 9.09707C26.7279 9.56436 25.8512 9.91477 24.9386 10.138C24.8363 10.1737 24.7257 10.1781 24.6209 10.1505C24.5161 10.1229 24.422 10.0646 24.3505 9.98317C23.4789 9.16198 22.3241 8.7087 21.1267 8.71774C20.2926 8.71124 19.4734 8.93804 18.7615 9.37251C17.9982 9.80497 17.374 10.4459 16.9619 11.2203C16.5498 11.9947 16.3668 12.8705 16.4345 13.7452C16.4423 13.9206 16.4639 14.0941 16.4864 14.2784C16.4972 14.3627 16.508 14.4489 16.5168 14.5372C14.6411 14.422 12.8077 13.9306 11.1257 13.0923C9.46242 12.2307 7.98756 11.0461 6.78741 9.60775C6.26475 10.4746 6.04897 11.492 6.17478 12.4964C6.24764 13.1766 6.46842 13.8326 6.82163 14.4185C7.17484 15.0044 7.65194 15.5059 8.21947 15.8879C7.48724 15.8606 6.77031 15.6704 6.12087 15.3311C6.09758 16.2961 6.38181 17.2436 6.93247 18.0364C7.61684 19.0362 8.65278 19.7414 9.83385 20.0115C9.45098 20.1183 9.05508 20.1711 8.65762 20.1684C8.36252 20.1664 8.06785 20.1454 7.77544 20.1056C8.07218 21.0389 8.65517 21.8551 9.44177 22.4385C10.2339 23.0295 11.1904 23.3594 12.1785 23.3824C10.4769 24.7099 8.37701 25.4242 6.21889 25.4095C5.90817 25.4085 5.58667 25.3948 5.27203 25.3683Z" fill="#5489CA"/>
</svg>
