<svg width="36" height="35" viewBox="0 0 36 35" fill="none" xmlns="http://www.w3.org/2000/svg">
<path d="M5.96571 29.1032C4.36943 27.5285 3.10043 25.6536 2.23179 23.5864C1.36315 21.5192 0.912025 19.3006 0.904395 17.0583C0.896766 14.8161 1.33278 12.5945 2.18734 10.5214C3.04189 8.44837 4.2981 6.56485 5.88363 4.97933C7.46915 3.3938 9.35266 2.13759 11.4257 1.28304C13.4988 0.428485 15.7204 -0.007531 17.9626 9.84188e-05C20.2049 0.00772783 22.4235 0.458852 24.4907 1.32749C26.5579 2.19614 28.4328 3.46513 30.0075 5.06141C31.6038 6.63611 32.8727 8.51103 33.7414 10.5782C34.61 12.6454 35.0612 14.864 35.0688 17.1063C35.0764 19.3485 34.6404 21.5701 33.7858 23.6432C32.9313 25.7162 31.6751 27.5997 30.0896 29.1853C28.504 30.7708 26.6205 32.027 24.5475 32.8815C22.4744 33.7361 20.2528 34.1721 18.0105 34.1645C15.7683 34.1569 13.5497 33.7057 11.4825 32.8371C9.41533 31.9685 7.54041 30.6995 5.96571 29.1032ZM7.7153 12.7083V21.704C7.7153 22.4799 8.02355 23.2241 8.57223 23.7728C9.12091 24.3215 9.86508 24.6297 10.641 24.6297H25.9251C26.701 24.6297 27.4452 24.3215 27.9939 23.7728C28.5426 23.2241 28.8508 22.4799 28.8508 21.704V12.7083C28.8508 11.9324 28.5426 11.1882 27.9939 10.6395C27.4452 10.0908 26.701 9.78258 25.9251 9.78258H10.641C9.86508 9.78258 9.12091 10.0908 8.57223 10.6395C8.02355 11.1882 7.7153 11.9324 7.7153 12.7083ZM15.5095 14.2687L21.0869 17.1642L15.4822 20.1524C15.489 18.1765 15.4987 16.2368 15.5075 14.2648L15.5095 14.2687Z" fill="#5489CA"/>
</svg>
