<?xml version="1.0" standalone="no"?>
<!DOCTYPE svg PUBLIC "-//W3C//DTD SVG 1.1//EN" "http://www.w3.org/Graphics/SVG/1.1/DTD/svg11.dtd" >
<svg>
<metadata>
Created by FontForge 20090622 at Sun Apr  2 20:18:32 2017
 By deploy user
Copyright 2011 - 2016 The Montserrat Project Authors (julieta.ulanovsky@gmail.com)
</metadata>
<defs>
<font id="Montserratarm-Light" horiz-adv-x="0" >
  <font-face 
    font-family="Montserrat arm Light"
    font-weight="300"
    font-stretch="normal"
    units-per-em="1000"
    panose-1="0 0 4 0 0 0 0 0 0 0"
    ascent="800"
    descent="-200"
    x-height="524"
    cap-height="699"
    bbox="-518 -365 1692 1105"
    underline-thickness="50"
    underline-position="-50"
    unicode-range="U+000D-U+FB02"
  />
<missing-glyph horiz-adv-x="587" 
d="M40 0v700h507v-700h-507zM120 70h347v560h-347v-560z" />
    <glyph glyph-name="fi" unicode="fi" horiz-adv-x="587" 
d="M112 576q0 80 48.5 127.5t116.5 45.5q43 0 88 -24l-17 -54q-36 19 -70 19q-42 0 -70.5 -29t-28.5 -77v-74h154v-53h-154v-457h-67v457h-67v53h67v66zM456 627q-20 0 -33.5 14t-13.5 34t13.5 33.5t33.5 13.5t33 -13.5t13 -33.5t-13.5 -34t-32.5 -14zM423 0v524h67v-524
h-67z" />
    <glyph glyph-name="fl" unicode="fl" horiz-adv-x="605" 
d="M112 576q0 80 48.5 127.5t116.5 45.5q43 0 88 -24l-17 -54q-36 19 -70 19q-42 0 -70.5 -29t-28.5 -77v-74h154v-53h-154v-457h-67v457h-67v53h67v66zM435 742h67v-742h-67v742z" />
    <glyph glyph-name="f_f" unicode="ff" horiz-adv-x="658" 
d="M112 576q0 80 48.5 127.5t116.5 45.5q43 0 88 -24l-17 -54q-36 19 -70 19q-42 0 -70.5 -29t-28.5 -77v-74h154v-53h-154v-457h-67v457h-67v53h67v66zM611 690q-42 0 -70.5 -29t-28.5 -77v-74h154v-53h-154v-457h-67v457h-67v53h67v66q0 80 48.5 127.5t116.5 45.5
q43 0 88 -24l-17 -54q-36 19 -70 19z" />
    <glyph glyph-name="f_f_i" unicode="ffi" horiz-adv-x="920" 
d="M112 576q0 80 48.5 127.5t116.5 45.5q43 0 88 -24l-17 -54q-36 19 -70 19q-42 0 -70.5 -29t-28.5 -77v-74h154v-53h-154v-457h-67v457h-67v53h67v66zM445 576q0 80 48.5 127.5t116.5 45.5q43 0 88 -24l-17 -54q-36 19 -70 19q-42 0 -70.5 -29t-28.5 -77v-74h154v-53h-154
v-457h-67v457h-67v53h67v66zM789 627q-20 0 -33.5 14t-13.5 34t13.5 33.5t33.5 13.5t33 -13.5t13 -33.5t-13.5 -34t-32.5 -14zM756 0v524h67v-524h-67z" />
    <glyph glyph-name="f_f_l" unicode="ffl" horiz-adv-x="938" 
d="M112 576q0 80 48.5 127.5t116.5 45.5q43 0 88 -24l-17 -54q-36 19 -70 19q-42 0 -70.5 -29t-28.5 -77v-74h154v-53h-154v-457h-67v457h-67v53h67v66zM445 576q0 80 48.5 127.5t116.5 45.5q43 0 88 -24l-17 -54q-36 19 -70 19q-42 0 -70.5 -29t-28.5 -77v-74h154v-53h-154
v-457h-67v457h-67v53h67v66zM768 742h67v-742h-67v742z" />
    <glyph glyph-name="uni0535054E.liga" unicode="&#x535;&#x54e;" horiz-adv-x="1565" 
d="M1411 62h181v-63h-250v270q-69 -114 -203 -114t-208 79.5t-74 217.5v39h-688v-207q0 -108 58.5 -168t162.5 -60t162 60t58 168v68h69v-68q0 -136 -76.5 -213t-212.5 -77t-213 77t-77 213v473h69v-203h752v-3h5v-99q0 -110 54.5 -172.5t158.5 -62.5q93 0 144.5 60
t58.5 163v317h69v-695z" />
    <glyph glyph-name="uni05350552.liga" unicode="&#x535;&#x552;" horiz-adv-x="1570" 
d="M1411 62h181v-63h-250v270q-69 -114 -203 -114t-208 79.5t-74 217.5v39h-688v-207q0 -108 58.5 -168t162.5 -60t162 60t58 168v68h69v-68q0 -136 -76.5 -213t-212.5 -77t-213 77t-77 213v473h69v-203h757v-102q0 -110 54.5 -172.5t158.5 -62.5q93 0 144.5 60t58.5 163
v317h69v-695z" />
    <glyph glyph-name="uni05390540.liga" unicode="&#x539;&#x540;" horiz-adv-x="1593" 
d="M1373 410q159 -43 155 -205v-205h-69v209v1q0 83 -60.5 124t-152.5 41h-413v-167q1 -95 -67 -153.5t-173 -58.5q-106 0 -182 60t-76 163q0 97 64 157.5t180 60.5h185v34q-2 108 -82.5 168t-215.5 60q-137 0 -216 -58.5t-81 -169.5v-471h-69v471q0 138 95 214t271 76
q173 0 270 -80t97 -210v-34h409q26 0 54.5 5t62.5 17t56 39.5t22 65.5q0 58 -49.5 94.5t-155.5 36.5h-3h-236v62h230h7q144 -1 210 -50t66 -147q0 -49 -34.5 -91.5t-98.5 -58.5zM764 214v161h-181q-85 0 -131.5 -41.5t-46.5 -113.5q0 -71 52 -116.5t137 -45.5q77 0 123 43.5
t47 112.5z" />
    <glyph glyph-name="uni05390545.liga" unicode="&#x539;&#x545;" horiz-adv-x="1727" 
d="M1488 409q77 -25 119.5 -74.5t41.5 -119.5q-1 -107 -89 -162.5t-233 -56.5q-140 -1 -240 65t-98 185h68q1 -64 43 -108t100.5 -62.5t127.5 -17.5q65 0 119 14t93.5 52t39.5 96q0 72 -61.5 113.5t-150.5 41.5h-535v-167q1 -95 -67 -153.5t-173 -58.5q-106 0 -182 60
t-76 163q0 97 64 157.5t180 60.5h185v34q-2 108 -82.5 168t-215.5 60q-137 0 -216 -58.5t-81 -169.5v-471h-69v471q0 138 95 214t271 76q173 0 270 -80t97 -210v-34h529q26 0 52.5 5t56 17t48 37.5t18.5 62.5q0 57 -59 98.5t-163 41.5q-189 0 -205 -132h-68q5 97 81.5 146
t189.5 48q122 -1 207.5 -55.5t85.5 -153.5q0 -46 -27 -86t-91 -57zM764 214v161h-181q-85 0 -131.5 -41.5t-46.5 -113.5q0 -71 52 -116.5t137 -45.5q77 0 123 43.5t47 112.5z" />
    <glyph glyph-name="uni0544053E.liga" unicode="&#x544;&#x53e;" horiz-adv-x="1727" 
d="M1692 644v-63h-208q63 -45 98.5 -113t35.5 -147q-1 -138 -94.5 -231.5t-237.5 -93.5t-237.5 94t-93.5 231q0 79 35.5 147t98.5 113h-89q-58 0 -91 29t-38 85h-192v-411q0 -136 -76.5 -213t-212.5 -77t-213 77t-77 213v473h69v-473q0 -108 58.5 -168t162.5 -60t162 60
t58 168v473h329v-39q0 -74 75 -74h678zM1553 321q0 108 -78 184t-188 76t-189 -76t-79 -184q0 -111 76 -187t192 -76t191 76t75 187z" />
    <glyph glyph-name="uni05440546.liga" unicode="&#x544;&#x546;" horiz-adv-x="1660" 
d="M1511 444h69v-160q0 -137 -76 -213.5t-212 -76.5t-213 77t-77 213v353q-17 2 -69 28.5t-91 35.5q-48 17 -105 6t-58 -43v-380q0 -136 -76.5 -213t-212.5 -77t-213 77t-77 213v473h69v-473q0 -108 58.5 -168t162.5 -60t162 60t58 168v447q11 21 73.5 33.5t122.5 6.5
q62 -6 142 -43.5t123 -36.5v-407q0 -108 58.5 -168t162.5 -60q103 0 161 60t58 168v160z" />
    <glyph glyph-name="uni05440576.liga" unicode="&#x544;&#x576;" horiz-adv-x="1507" 
d="M1340 524h67v-524h-67v125q-52 -127 -203 -127q-93 0 -145 54t-52 150v467q-31 0 -72.5 15.5t-74 22.5t-114.5 -7v-416q0 -136 -76.5 -213t-212.5 -77t-213 77t-77 213v473h69v-473q0 -108 58.5 -168t162.5 -60t162 60t58 168v473q85 19 149 16t97.5 -15t73.5 -23t77 -7
v-510q0 -75 40.5 -117t111.5 -40q85 2 133 58t48 148v257z" />
    <glyph glyph-name="uni05740567.liga" unicode="&#x574;&#x567;" horiz-adv-x="1241" 
d="M1196 471h-375v-418h159q61 0 92 -32t31 -90h-67q-2 69 -83 69h-199v693q-117 -33 -207 -1q-120 44 -161 3q-29 -28 0 -75q17 -27 48 -48q72 -47 96.5 -92t24.5 -139v-339h-67v125q-52 -128 -203 -128q-93 0 -145 54.5t-52 150.5v322h67v-306q0 -75 40.5 -117t111.5 -41
q85 2 133 58.5t48 148.5v73q0 24 -3 45t-7 36.5t-13.5 32t-15.5 25.5t-21.5 24t-23 21.5l-28 23.5l-29.5 24q-57 52 -40 111q14 54 79 74q72 22 171 -14q14 -5 29.5 -8.5t32 -4.5t30.5 -1.5t33 1.5t30.5 3.5t31.5 5.5l27.5 5.5l27 5.5t22.5 5v-234h375v-52z" />
    <glyph glyph-name="uni0574056F.liga" unicode="&#x574;&#x56f;" horiz-adv-x="1309" 
d="M1141 524h68v-735h-68v336q-52 -125 -202 -127q-93 0 -145.5 54.5t-52.5 149.5v490q-110 -30 -194 0q-120 44 -160 3q-29 -29 1 -76q16 -26 46 -47q72 -48 96.5 -93t24.5 -138v-339h-67v125q-52 -128 -203 -128q-93 0 -145 54.5t-52 150.5v322h67v-306q0 -75 40.5 -117
t111.5 -41q85 2 133 58.5t48 148.5v73q0 24 -3 45t-7 36.5t-13.5 32t-15.5 25.5t-21.5 24t-23 21.5l-28 23.5l-29.5 24q-57 52 -40 111q14 54 79 74q72 22 171 -14q21 -8 45.5 -11t43 -3.5t47 3.5t40.5 6t42 9t34 8v-539q0 -74 40.5 -115.5t111.5 -41.5q84 1 132 57.5
t48 148.5v257z" />
    <glyph glyph-name="uni0578055B0582.liga" unicode="&#x578;&#x55b;&#x582;" horiz-adv-x="949" 
d="M456 633l104 187h84l-130 -187h-58zM375 526q94 0 147 -54t53 -150v-322h-67v306q0 74 -41.5 116t-114.5 42q-80 -1 -128.5 -50t-55.5 -132v-282h-68v524h68v-122q54 122 207 124zM745 52h154v-52h-222v524h68v-472z" />
    <glyph glyph-name="uni0578055C0582.liga" unicode="&#x578;&#x55c;&#x582;" horiz-adv-x="949" 
d="M681 885q6 -31 6 -55.5t-4 -40.5t-14.5 -27.5t-21 -17t-27.5 -9.5t-29.5 -5l-32 -2.5t-30.5 -2.5q-33 -5 -44 -34.5t11 -72.5l-62 -9q-23 56 -9.5 98t60.5 62q14 6 32 9.5t32.5 5t30 3.5t25.5 7t17 14t6.5 26t-8.5 42zM375 526q94 0 147 -54t53 -150v-322h-67v306
q0 74 -41.5 116t-114.5 42q-80 -1 -128.5 -50t-55.5 -132v-282h-68v524h68v-122q54 122 207 124zM745 52h154v-52h-222v524h68v-472z" />
    <glyph glyph-name="uni0578055E0582.liga" unicode="&#x578;&#x55e;&#x582;" horiz-adv-x="949" 
d="M600 685q52 0 69 39q15 36 -14 62q-23 21 -65 21q-115 0 -111 -219h-60q-2 144 41.5 209t129.5 65q100 0 134 -64q27 -51 -4 -104q-41 -60 -120 -62v53zM375 526q94 0 147 -54t53 -150v-322h-67v306q0 74 -41.5 116t-114.5 42q-80 -1 -128.5 -50t-55.5 -132v-282h-68v524
h68v-122q54 122 207 124zM745 52h154v-52h-222v524h68v-472z" />
    <glyph glyph-name="uniFB13.liga" unicode="&#x574;&#x576;" horiz-adv-x="1309" 
d="M1141 526h68v-524h-68v124q-52 -127 -202 -127q-93 0 -145.5 54.5t-52.5 150.5v470q-42 -5 -100 0.5t-94 17.5q-121 44 -162 3q-28 -28 1 -75q17 -27 48 -48q72 -47 96.5 -92t24.5 -139v-339h-67v125q-52 -128 -203 -128q-93 0 -145 54.5t-52 150.5v322h67v-306
q0 -75 40.5 -117t111.5 -41q85 2 133 58.5t48 148.5v73q0 24 -3 45t-7 36.5t-13.5 32t-15.5 25.5t-21.5 24t-23 21.5l-28 23.5l-29.5 24q-57 52 -41 112q15 54 79 74q72 23 172 -15q46 -17 128.5 -19t123.5 8v-514q0 -75 40.5 -117t111.5 -41q84 2 132 58.5t48 148.5v257z
" />
    <glyph glyph-name="uniFB14.liga" unicode="&#x574;&#x565;" horiz-adv-x="1292" 
d="M1247 471h-438v-253q0 -74 40.5 -115.5t111.5 -41.5q84 1 132 57.5t48 148.5v83h68v-350h-68v125q-52 -125 -202 -127q-93 0 -145.5 54.5t-52.5 149.5v490q-110 -30 -194 0q-120 44 -161 3q-29 -28 0 -75q17 -27 48 -48q72 -47 96.5 -92t24.5 -139v-339h-67v125
q-52 -128 -203 -128q-93 0 -145 54.5t-52 150.5v322h67v-306q0 -75 40.5 -117t111.5 -41q85 2 133 58.5t48 148.5v73q0 24 -3 45t-7 36.5t-13.5 32t-15.5 25.5t-21.5 24t-23 21.5l-28 23.5l-29.5 24q-57 52 -40 111q14 54 79 74q72 22 171 -14q21 -8 45.5 -11t42.5 -3.5
t47.5 3.5t40 6t42 9.5t33.5 7.5h1v-233h438v-53z" />
    <glyph glyph-name="uniFB15.liga" unicode="&#x574;&#x56b;" horiz-adv-x="1316" 
d="M1028 526q94 0 147.5 -54.5t53.5 -149.5v-322h-68v306q0 74 -41 116t-114 42q-81 -1 -129.5 -50t-55.5 -132v-493h-67v904q-120 -32 -207 -1q-120 44 -161 3q-29 -28 0 -75q17 -27 48 -48q72 -47 96.5 -92t24.5 -139v-339h-67v125q-52 -128 -203 -128q-93 0 -145 54.5
t-52 150.5v322h67v-306q0 -75 40.5 -117t111.5 -41q85 2 133 58.5t48 148.5v73q0 24 -3 45t-7 36.5t-13.5 32t-15.5 25.5t-21.5 24t-23 21.5l-28 23.5l-29.5 24q-57 52 -40 111q14 54 79 74q72 22 171 -14q14 -5 29.5 -8.5t32 -4.5t30.5 -1.5t33 1.5t30.5 3.5t31.5 5.5
l27.5 5.5l27 5.5t22.5 5v-355q54 122 207 124z" />
    <glyph glyph-name="uniFB17.liga" unicode="&#x574;&#x56d;" horiz-adv-x="1588" 
d="M1421 524h67v-524h-67v120q-48 -120 -182 -122q-82 0 -129 54.5t-47 149.5v270h-242v-683h-67v904q-120 -32 -207 -1q-120 44 -160 3q-29 -29 1 -76q16 -26 46 -47q72 -48 96.5 -93t24.5 -138v-339h-67v125q-52 -128 -203 -128q-93 0 -145 54.5t-52 150.5v322h67v-306
q0 -75 40.5 -117t111.5 -41q85 2 133 58.5t48 148.5v73q0 24 -3 45t-7 36.5t-13.5 32t-15.5 25.5t-21.5 24t-23 21.5l-28 23.5l-29.5 24q-57 52 -40 111q14 54 79 74q72 22 171 -14q14 -5 29.5 -8.5t32 -4.5t30.5 -1.5t33 1.5t30.5 3.5t31.5 5.5l27.5 5.5l27 5.5t22.5 5
v-233h309v-306q0 -75 33 -116.5t97 -41.5q68 2 110.5 47.5t50.5 122.5v294z" />
    <glyph glyph-name=".notdef" horiz-adv-x="587" 
d="M40 0v700h507v-700h-507zM120 70h347v560h-347v-560z" />
    <glyph glyph-name=".null" 
 />
    <glyph glyph-name="nonmarkingreturn" horiz-adv-x="333" 
 />
    <glyph glyph-name="CR" unicode="&#xd;" horiz-adv-x="300" 
 />
    <glyph glyph-name="space" unicode=" " horiz-adv-x="300" 
 />
    <glyph glyph-name="exclam" unicode="!" horiz-adv-x="201" 
d="M76 687h65v-168l-10 -314h-46l-9 314v168zM108 83q19 0 32 -13t13 -32t-13 -32.5t-32 -13.5t-31.5 13t-12.5 33q0 19 12.5 32t31.5 13z" />
    <glyph glyph-name="quotedbl" unicode="&#x22;" horiz-adv-x="299" 
d="M60 699h54v-217h-54v217zM185 699h54v-217h-54v217z" />
    <glyph glyph-name="numbersign" unicode="#" horiz-adv-x="716" 
d="M674 452h-147l-26 -209h144l-4 -52h-147l-23 -191h-52l23 191h-209l-23 -191h-52l23 191h-144l4 52h147l26 209h-144l3 52h147l24 195h52l-24 -195h209l24 195h52l-24 -195h144zM449 243l26 209h-209l-26 -209h209z" />
    <glyph glyph-name="dollar" unicode="$" horiz-adv-x="608" 
d="M149 535q0 -40 22 -67.5t57 -43.5t77.5 -28.5t85 -28t78 -36.5t57 -58.5t21.5 -89.5q0 -78 -58.5 -128.5t-156.5 -58.5l-1 -126h-53v125q-142 8 -244 106l32 57q47 -46 109 -72t122 -26q80 0 127 32.5t47 87.5q0 41 -21.5 69t-57 44t-78 28.5t-85 27.5t-77.5 35.5
t-57 57.5t-22 88q0 73 55.5 120t149.5 55v113h53l1 -113q110 -5 196 -61l-30 -59q-88 56 -190 56q-72 0 -115.5 -28.5t-43.5 -77.5z" />
    <glyph glyph-name="percent" unicode="%" horiz-adv-x="944" 
d="M223 703q84 0 130.5 -54.5t46.5 -153.5t-46.5 -153.5t-130.5 -54.5q-83 0 -129.5 54.5t-46.5 153.5t46.5 153.5t129.5 54.5zM700 700h58l-526 -700h-59zM223 661q-61 0 -94 -43.5t-33 -122.5q0 -80 33 -123t94 -43q62 0 95 43t33 123t-33.5 123t-94.5 43zM720 413
q84 0 130.5 -54.5t46.5 -153.5t-46.5 -153.5t-130.5 -54.5q-83 0 -129.5 54.5t-46.5 153.5t46.5 153.5t129.5 54.5zM720 371q-61 0 -94 -43.5t-33 -122.5q0 -80 33 -123t94 -43q62 0 95 43t33 123t-33.5 123t-94.5 43z" />
    <glyph glyph-name="ampersand" unicode="&#x26;" horiz-adv-x="645" 
d="M637 26l-36 -35l-119 117q-100 -111 -219 -111q-86 0 -145.5 54.5t-59.5 135.5q0 69 42.5 114t119.5 86q-74 95 -74 168q0 64 47 105.5t121 41.5q70 0 114 -38.5t44 -99.5q0 -34 -13.5 -62t-43.5 -52t-53 -38.5t-66 -37.5q52 -63 179 -188q41 61 74 140l47 -34
q-37 -84 -82 -144zM202 555q0 -59 64 -144q37 19 58 31.5t45.5 32t35.5 41.5t11 49q0 41 -28 66.5t-74 25.5q-50 0 -81 -29t-31 -73zM265 50q94 0 179 96q-137 135 -194 203q-64 -36 -99 -71.5t-35 -86.5q0 -61 43 -101t106 -40z" />
    <glyph glyph-name="quotesingle" unicode="'" horiz-adv-x="174" 
d="M60 699h54v-217h-54v217z" />
    <glyph glyph-name="parenleft" unicode="(" horiz-adv-x="294" 
d="M266 742q-115 -176 -115 -433t115 -433h-62q-117 172 -117 433t117 433h62z" />
    <glyph glyph-name="parenright" unicode=")" horiz-adv-x="294" 
d="M28 742h62q117 -172 117 -433t-117 -433h-62q115 176 115 433t-115 433z" />
    <glyph glyph-name="asterisk" unicode="*" horiz-adv-x="323" 
d="M142 722h39v-110l95 55l19 -35l-96 -54l96 -55l-19 -36l-96 56l1 -110h-39l1 111l-96 -56l-19 35l95 55l-95 54l19 36l95 -56v110z" />
    <glyph glyph-name="plus" unicode="+" horiz-adv-x="489" 
d="M452 347v-49h-184v-183h-47v183h-183v49h183v182h47v-182h184z" />
    <glyph glyph-name="comma" unicode="," horiz-adv-x="192" 
d="M98 82q18 0 30.5 -12.5t12.5 -32.5q0 -14 -11 -38l-50 -114h-40l39 113q-25 11 -25 39q0 19 12.5 32t31.5 13z" />
    <glyph glyph-name="hyphen" unicode="-" horiz-adv-x="363" 
d="M65 327h232v-49h-232v49z" />
    <glyph glyph-name="period" unicode="." horiz-adv-x="194" 
d="M97 83q19 0 32 -13t13 -32t-13 -32.5t-32 -13.5t-31.5 13t-12.5 33q0 19 12.5 32t31.5 13z" />
    <glyph glyph-name="slash" unicode="/" horiz-adv-x="313" 
d="M303 821h60l-312 -945h-60z" />
    <glyph glyph-name="zero" unicode="0" horiz-adv-x="715" 
d="M371 703q139 0 213 -91.5t74 -261.5t-74 -262t-213 -92q-138 0 -212.5 92t-74.5 262t74.5 261.5t212.5 91.5zM371 648q-106 0 -161 -75.5t-55 -222.5t55 -222.5t161 -75.5t161.5 75.5t55.5 222.5t-55.5 222.5t-161.5 75.5z" />
    <glyph glyph-name="one" unicode="1" horiz-adv-x="362" 
d="M6 700h238v-700h-69v638h-169v62z" />
    <glyph glyph-name="two" unicode="2" horiz-adv-x="570" 
d="M126 62h409v-62h-496v57l276 288q104 107 104 180q0 55 -41 86t-114 31q-50 0 -103 -22.5t-96 -62.5l-31 51q108 95 238 95q100 0 159.5 -46t59.5 -123q0 -93 -129 -227z" />
    <glyph glyph-name="three" unicode="3" horiz-adv-x="580" 
d="M284 400q111 -4 176.5 -53t65.5 -133q0 -98 -72.5 -158t-195.5 -60q-133 0 -238 68l31 54q89 -63 203 -63q95 0 150 42.5t55 112.5t-54.5 106.5t-152.5 36.5h-90v45l238 240h-347v62h437v-46l-250 -252z" />
    <glyph glyph-name="four" unicode="4" horiz-adv-x="584" 
d="M554 252v-62h-112v-190h-65v190h-354v56l265 454h68l-259 -448h280v196h65v-196h112z" />
    <glyph glyph-name="five" unicode="5" horiz-adv-x="612" 
d="M320 431q114 0 183 -57t69 -147q0 -105 -70 -168t-187 -63q-60 0 -126.5 20.5t-119.5 54.5l29 54q100 -68 211 -68q87 0 138.5 45t51.5 120q0 68 -51 107.5t-142 39.5q-96 0 -186 -23v354h424v-62h-359v-219q69 12 135 12z" />
    <glyph glyph-name="six" unicode="6" horiz-adv-x="640" 
d="M528 602q-76 43 -165 43q-117 0 -176 -92t-48 -251q23 69 79.5 106.5t138.5 37.5q104 0 164.5 -59t60.5 -161q0 -106 -64.5 -168t-173.5 -62q-129 0 -201.5 88.5t-72.5 249.5q0 168 77.5 268.5t210.5 100.5q103 0 198 -49zM346 390q-86 0 -137.5 -50t-51.5 -119
q0 -61 47 -113t135 -52q80 0 129 46.5t49 125.5q0 75 -46.5 118.5t-124.5 43.5z" />
    <glyph glyph-name="seven" unicode="7" horiz-adv-x="563" 
d="M22 700h513v-57l-318 -643h-74l317 638h-374l-1 -105h-63v167z" />
    <glyph glyph-name="eight" unicode="8" horiz-adv-x="641" 
d="M321 703q104 0 163 -46t59 -128q0 -111 -116 -154q71 -21 110.5 -67t39.5 -112q0 -93 -68.5 -146.5t-186.5 -53.5q-119 0 -187.5 53t-68.5 145q0 67 40.5 113.5t112.5 67.5q-120 45 -120 156q0 80 60 126t162 46zM322 651q-77 0 -120 -33.5t-43 -92.5t43.5 -93t119.5 -34
t118.5 34t42.5 93t-42.5 92.5t-118.5 33.5zM321 343q-89 0 -139.5 -37.5t-50.5 -103.5q0 -71 50.5 -110.5t140.5 -39.5q89 0 139.5 39.5t50.5 109.5q0 66 -51 104t-140 38z" />
    <glyph glyph-name="nine" unicode="9" horiz-adv-x="637" 
d="M124 98q75 -43 163 -43q116 0 174.5 92t47.5 252q-23 -69 -79 -107t-137 -38q-103 0 -163 59t-60 161q0 106 64 167.5t172 61.5q128 0 200 -88t72 -248q0 -169 -77.5 -270t-208.5 -101q-100 0 -196 49zM311 643q-79 0 -127.5 -45.5t-48.5 -124.5q0 -75 45.5 -119
t123.5 -44q85 0 136 50t51 119q0 61 -46.5 112.5t-133.5 51.5z" />
    <glyph glyph-name="colon" unicode=":" horiz-adv-x="194" 
d="M97 380q19 0 32 -13t13 -32t-13 -32.5t-32 -13.5t-31.5 13t-12.5 33q0 19 12.5 32t31.5 13zM97 83q19 0 32 -13t13 -32t-13 -32.5t-32 -13.5t-31.5 13t-12.5 33q0 19 12.5 32t31.5 13z" />
    <glyph glyph-name="semicolon" unicode=";" horiz-adv-x="193" 
d="M97 289q-19 0 -31.5 13t-12.5 33q0 19 12.5 32t31.5 13t32 -13t13 -32t-13 -32.5t-32 -13.5zM98 82q18 0 30.5 -12.5t12.5 -32.5q0 -14 -11 -38l-50 -114h-40l39 113q-25 11 -25 39q0 19 12.5 32t31.5 13z" />
    <glyph glyph-name="less" unicode="&#x3c;" horiz-adv-x="489" 
d="M452 544v-54l-366 -163l366 -163v-54l-414 185v63z" />
    <glyph glyph-name="equal" unicode="=" horiz-adv-x="489" 
d="M38 449h414v-49h-414v49zM38 244h414v-49h-414v49z" />
    <glyph glyph-name="greater" unicode="&#x3e;" horiz-adv-x="489" 
d="M37 112v54l366 163l-366 163v54l414 -185v-63z" />
    <glyph glyph-name="question" unicode="?" horiz-adv-x="419" 
d="M24 517q4 81 55 125.5t135 44.5t135.5 -41t51.5 -118q0 -45 -18.5 -80.5t-44.5 -58l-52.5 -45t-45 -55t-18.5 -73.5h-54q0 47 17.5 82t42 57.5l49.5 43.5t42.5 51.5t17.5 69.5q0 54 -34.5 81.5t-93.5 27.5t-93 -29t-37 -85zM194 83q19 0 32 -13t13 -32t-13 -32.5
t-32 -13.5t-31.5 13t-12.5 33q0 19 12.5 32t31.5 13z" />
    <glyph glyph-name="at" unicode="@" horiz-adv-x="990" 
d="M723 123q0 -34 17.5 -53.5t43.5 -19.5q48 0 79.5 59.5t31.5 154.5q0 172 -110 284t-285 112q-173 0 -289 -113t-116 -282q0 -164 111.5 -271t280.5 -107q45 0 97 14t89 38l25 -46q-41 -26 -100.5 -42t-110.5 -16q-192 0 -318.5 122t-126.5 308q0 191 131 318.5t327 127.5
q194 0 321 -126t127 -319q0 -119 -47 -190.5t-124 -71.5q-43 0 -71.5 25.5t-32.5 70.5l-1 42q-30 -58 -83 -89.5t-120 -31.5q-102 0 -172 70t-70 177t66.5 178t170.5 71q69 0 122 -33.5t73 -79.5v107h64v-388zM474 456q-78 0 -128 -53t-50 -133q0 -81 50.5 -135t128.5 -54
q80 0 130.5 53.5t50.5 135.5q0 80 -51 133t-131 53z" />
    <glyph glyph-name="A" unicode="A" horiz-adv-x="712" 
d="M632 0l-83 186h-388l-82 -186h-74l315 699h72l315 -699h-75zM188 248h334l-168 378z" />
    <glyph glyph-name="B" unicode="B" horiz-adv-x="719" 
d="M403 700q105 0 164.5 -46.5t59.5 -128.5q0 -62 -34.5 -104t-96.5 -55q77 -10 120 -57t43 -119q0 -90 -67 -140t-186 -50h-296v700h293zM400 391q74 0 115 32.5t41 92.5q0 58 -41 90t-115 31h-221v-246h221zM400 62q90 0 139.5 35.5t49.5 99.5q0 63 -50 98t-139 35h-221
v-268h221z" />
    <glyph glyph-name="C" unicode="C" horiz-adv-x="701" 
d="M618 557q-89 87 -211 87q-123 0 -209 -85.5t-86 -207.5t86 -207.5t209 -85.5q120 0 211 85l42 -45q-52 -48 -119 -76t-137 -28q-151 0 -256.5 104t-105.5 253q0 148 106 251t258 103q70 0 136.5 -26.5t116.5 -73.5z" />
    <glyph glyph-name="D" unicode="D" horiz-adv-x="793" 
d="M391 699q152 0 256 -101t104 -249q0 -147 -104.5 -248t-257.5 -101h-279v699h281zM393 62q120 0 204 83t84 204q0 122 -84.5 205t-206.5 83h-211v-575h214z" />
    <glyph glyph-name="E" unicode="E" horiz-adv-x="650" 
d="M110 699h468v-62h-399v-250h357v-62h-357v-263h412v-62h-481v699z" />
    <glyph glyph-name="F" unicode="F" horiz-adv-x="560" 
d="M110 699h438v-62h-369v-269h329v-62h-329v-306h-69v699z" />
    <glyph glyph-name="G" unicode="G" horiz-adv-x="755" 
d="M601 119v223h61v-256q-51 -43 -118.5 -67.5t-137.5 -24.5q-151 0 -257.5 104t-106.5 253q0 148 107 251t260 103q147 0 255 -95l-40 -49q-89 83 -215 83q-124 0 -210.5 -85.5t-86.5 -207.5q0 -123 87 -209t211 -86q102 0 191 63z" />
    <glyph glyph-name="H" unicode="H" horiz-adv-x="795" 
d="M110 699h69v-320h437v320h69v-699h-69v317h-437v-317h-69v699z" />
    <glyph glyph-name="I" unicode="I" horiz-adv-x="289" 
d="M110 699h69v-699h-69v699z" />
    <glyph glyph-name="J" unicode="J" horiz-adv-x="479" 
d="M386 206q0 -100 -51.5 -154.5t-143.5 -54.5q-115 0 -190 99l35 52q66 -84 154 -84q61 0 93.5 37t32.5 107v429h-252v63h322v-494z" />
    <glyph glyph-name="K" unicode="K" horiz-adv-x="694" 
d="M671 0h-85l-265 340l-142 -154v-186h-69v700h69v-426l388 426h84l-281 -306z" />
    <glyph glyph-name="L" unicode="L" horiz-adv-x="513" 
d="M110 699h69v-637h308v-62h-377v699z" />
    <glyph glyph-name="M" unicode="M" horiz-adv-x="937" 
d="M110 700h86l274 -525l271 525h86v-700h-64l-1 604l-274 -529h-38l-275 529v-604h-65v700z" />
    <glyph glyph-name="N" unicode="N" horiz-adv-x="796" 
d="M617 699h68v-699h-73l-433 592v-592h-69v699h73l434 -592v592z" />
    <glyph glyph-name="O" unicode="O" horiz-adv-x="814" 
d="M407 705q152 0 258.5 -103t106.5 -251q0 -149 -106.5 -253t-258.5 -104t-258.5 104t-106.5 253q0 148 106.5 251t258.5 103zM408 643q-122 0 -209 -85.5t-87 -206.5q0 -122 87 -208.5t209 -86.5q121 0 207.5 86.5t86.5 208.5q0 121 -86.5 206.5t-207.5 85.5z" />
    <glyph glyph-name="P" unicode="P" horiz-adv-x="668" 
d="M368 699q130 0 201 -60.5t71 -171.5q0 -115 -71 -178t-201 -63h-189v-226h-69v699h258zM365 288q100 0 154.5 45.5t54.5 131.5q0 84 -54 128t-155 44h-186v-349h186z" />
    <glyph glyph-name="Q" unicode="Q" horiz-adv-x="827" 
d="M782 -14l31 -48q-83 -77 -175 -77q-114 0 -218 133h-13q-152 0 -258.5 104t-106.5 253q0 148 106.5 251t258.5 103t258.5 -103t106.5 -251q0 -125 -78.5 -221.5t-199.5 -125.5q81 -83 151 -83q63 0 137 65zM112 351q0 -122 87 -208.5t209 -86.5q121 0 207.5 86.5
t86.5 208.5q0 121 -86.5 206.5t-207.5 85.5q-122 0 -209 -85.5t-87 -206.5z" />
    <glyph glyph-name="R" unicode="R" horiz-adv-x="723" 
d="M651 0h-80l-151 228q-32 -2 -49 -2h-192v-226h-69v699h261q131 0 202.5 -60.5t71.5 -171.5q0 -87 -42 -145t-120 -81zM179 288h192q100 0 154 45.5t54 131.5q0 84 -54 128t-154 44h-192v-349z" />
    <glyph glyph-name="S" unicode="S" horiz-adv-x="608" 
d="M498 585q-88 56 -190 56q-72 0 -115.5 -28.5t-43.5 -77.5q0 -40 22 -67.5t57 -43.5t77.5 -28.5t85 -28t78 -36.5t57 -58.5t21.5 -89.5q0 -85 -69.5 -136.5t-181.5 -51.5q-73 0 -142.5 29t-119.5 77l32 57q47 -46 109 -72t122 -26q80 0 127 32.5t47 87.5q0 41 -21.5 69
t-57 44t-78 28.5t-85 27.5t-77.5 35.5t-57 57.5t-22 88q0 80 65.5 128t173.5 48q120 0 216 -62z" />
    <glyph glyph-name="T" unicode="T" horiz-adv-x="553" 
d="M11 700h531v-63h-231v-637h-69v637h-231v63z" />
    <glyph glyph-name="U" unicode="U" horiz-adv-x="767" 
d="M163 284q0 -108 58.5 -168t162.5 -60t162 60t58 168v416h69v-416q0 -136 -76.5 -213t-212.5 -77t-213 77t-77 213v416h69v-416z" />
    <glyph glyph-name="V" unicode="V" horiz-adv-x="658" 
d="M7 699h74l249 -623l248 623h73l-287 -699h-72z" />
    <glyph glyph-name="W" unicode="W" horiz-adv-x="1025" 
d="M946 700h73l-237 -700h-72l-197 613l-199 -613h-71l-236 700h75l199 -627l198 627h70l199 -627z" />
    <glyph glyph-name="X" unicode="X" horiz-adv-x="658" 
d="M42 699h81l201 -282l201 282h81l-239 -336l259 -363h-83l-219 306l-219 -306h-81l258 361z" />
    <glyph glyph-name="Y" unicode="Y" horiz-adv-x="622" 
d="M616 699l-269 -450v-249h-69v249l-273 450h72l236 -376l231 376h72z" />
    <glyph glyph-name="Z" unicode="Z" horiz-adv-x="658" 
d="M58 699h551v-53l-474 -584h478v-62h-568v54l475 583h-462v62z" />
    <glyph glyph-name="bracketleft" unicode="[" horiz-adv-x="307" 
d="M95 742h188v-55h-126v-756h126v-55h-188v866z" />
    <glyph glyph-name="backslash" unicode="\" horiz-adv-x="313" 
d="M10 821l312 -945h-60l-312 945h60z" />
    <glyph glyph-name="bracketright" unicode="]" horiz-adv-x="307" 
d="M212 742v-866h-188v55h126v756h-126v55h188z" />
    <glyph glyph-name="asciicircum" unicode="^" horiz-adv-x="508" 
d="M471 129h-54l-163 351l-163 -351h-54l185 398h63z" />
    <glyph glyph-name="underscore" unicode="_" horiz-adv-x="552" 
d="M0 -160h551v-44h-551v44z" />
    <glyph glyph-name="grave" unicode="`" horiz-adv-x="337" 
d="M145 747l117 -123l-60 -7l-126 100z" />
    <glyph glyph-name="a" unicode="a" horiz-adv-x="574" 
d="M493 0h-66l-1 88q-62 -91 -196 -91q-80 0 -129 44.5t-49 113.5q0 68 52.5 107t144.5 39h176v40q0 62 -37 96t-108 34q-84 0 -169 -63l-30 46q53 37 101 54.5t110 17.5q95 0 147 -47.5t53 -131.5zM242 53q70 0 118.5 32.5t65.5 91.5v72h-169q-141 0 -141 -92
q0 -47 34.5 -75.5t91.5 -28.5z" />
    <glyph glyph-name="b" unicode="b" horiz-adv-x="675" 
d="M379 526q111 0 181.5 -74t70.5 -191q0 -116 -70 -189.5t-181 -73.5q-72 0 -126 32.5t-84 90.5v-121h-67v742h67v-339q29 58 83.5 90.5t125.5 32.5zM367 56q86 0 141 58t55 149q0 89 -55.5 147.5t-140.5 58.5q-86 0 -141.5 -58.5t-55.5 -147.5q0 -91 55.5 -149t141.5 -58z
" />
    <glyph glyph-name="c" unicode="c" horiz-adv-x="561" 
d="M463 405q-64 62 -157 62q-86 0 -141 -57.5t-55 -147.5q0 -91 55 -148.5t141 -57.5q104 0 165 70l38 -40q-72 -88 -206 -88q-114 0 -187 74t-73 190t73 190t187 74q124 0 198 -76z" />
    <glyph glyph-name="d" unicode="d" horiz-adv-x="678" 
d="M508 742h67v-742h-67v120q-30 -59 -84 -91.5t-126 -32.5q-112 0 -183 75t-71 192q0 116 71 190.5t182 74.5q72 0 126.5 -33t84.5 -92v339zM310 54q86 0 142 58t56 149t-56 150t-142 59q-87 0 -142.5 -59t-56.5 -150q1 -91 56.5 -149t142.5 -58z" />
    <glyph glyph-name="e" unicode="e" horiz-adv-x="589" 
d="M302 526q122 0 186 -77.5t59 -208.5h-437q7 -84 62 -135.5t136 -51.5q103 0 167 69l38 -38q-80 -86 -209 -86q-115 0 -188 74t-73 190t73 190t186 74zM110 292h377q-5 82 -54.5 130.5t-129.5 48.5q-79 0 -132 -49t-61 -130z" />
    <glyph glyph-name="f" unicode="f" horiz-adv-x="325" 
d="M278 690q-42 0 -70.5 -29t-28.5 -77v-74h154v-53h-154v-457h-67v457h-67v53h67v66q0 80 48.5 127.5t116.5 45.5q43 0 88 -24l-17 -54q-36 19 -70 19z" />
    <glyph glyph-name="g" unicode="g" horiz-adv-x="635" 
d="M484 524h67v-469q0 -115 -71 -183t-190 -68q-116 0 -215 80l32 48q80 -71 180 -71q90 0 143.5 52.5t53.5 140.5v85q-28 -55 -80 -86t-120 -31q-106 0 -173 71t-67 182q0 110 66.5 180.5t171.5 70.5q69 1 121 -30t81 -87v115zM296 76q82 0 135 55.5t53 141.5
q0 87 -53 142.5t-135 55.5t-135 -56t-54 -142q1 -86 53.5 -141.5t135.5 -55.5z" />
    <glyph glyph-name="h" unicode="h" horiz-adv-x="660" 
d="M378 526q94 0 147.5 -54.5t53.5 -149.5v-322h-68v306q0 74 -41 116t-114 42q-87 -1 -136.5 -57.5t-49.5 -149.5v-257h-67v742h67v-342q53 124 208 126z" />
    <glyph glyph-name="i" unicode="i" horiz-adv-x="262" 
d="M131 722q20 0 33 -13.5t13 -33.5t-13.5 -34t-32.5 -14q-20 0 -33.5 14t-13.5 34t13.5 33.5t33.5 13.5zM98 524h67v-524h-67v524z" />
    <glyph glyph-name="j" unicode="j" horiz-adv-x="247" 
d="M128 722q20 0 33 -13.5t13 -33.5t-13.5 -34t-32.5 -14q-20 0 -33.5 14t-13.5 34t13.5 33.5t33.5 13.5zM-41 -128q27 -10 52 -11q41 -1 62.5 29.5t21.5 89.5v544h67v-552q0 -82 -36 -125.5t-103 -42.5q-43 1 -80 17z" />
    <glyph glyph-name="k" unicode="k" horiz-adv-x="567" 
d="M474 0l-186 273l-118 -121v-152h-67v742h67v-504l282 286h80l-197 -203l220 -321h-81z" />
    <glyph glyph-name="l" unicode="l" horiz-adv-x="273" 
d="M103 742h67v-742h-67v742z" />
    <glyph glyph-name="m" unicode="m" horiz-adv-x="1045" 
d="M767 526q93 0 145 -54t52 -150v-322h-68v306q0 75 -40.5 116.5t-111.5 41.5q-84 -2 -131.5 -58t-47.5 -148v-258h-68v306q0 75 -40.5 116.5t-111.5 41.5q-84 -2 -132 -58t-48 -148v-258h-67v524h67v-123q52 123 203 125q75 0 124.5 -37t65.5 -104q49 139 209 141z" />
    <glyph glyph-name="n" unicode="n" horiz-adv-x="654" 
d="M372 526q94 0 147.5 -54.5t53.5 -149.5v-322h-68v306q0 74 -41 116t-114 42q-81 -1 -129.5 -50t-55.5 -132v-282h-67v524h67v-122q54 122 207 124z" />
    <glyph glyph-name="o" unicode="o" horiz-adv-x="616" 
d="M308 526q116 0 190 -73.5t74 -189.5q0 -117 -74 -191t-190 -74t-190 74t-74 191q0 116 74 189.5t190 73.5zM308 468q-86 0 -141.5 -57.5t-55.5 -148.5q0 -92 55 -149.5t142 -57.5t142 57.5t55 149.5q0 91 -55.5 148.5t-141.5 57.5z" />
    <glyph glyph-name="p" unicode="p" horiz-adv-x="675" 
d="M379 526q111 0 181.5 -74t70.5 -191q0 -116 -70 -189.5t-181 -73.5q-72 0 -126 32.5t-84 90.5v-315h-67v718h67v-121q29 58 83.5 90.5t125.5 32.5zM367 56q86 0 141 58t55 149q0 89 -55.5 147.5t-140.5 58.5q-86 0 -141.5 -58.5t-55.5 -147.5q0 -91 55.5 -149t141.5 -58z
" />
    <glyph glyph-name="q" unicode="q" horiz-adv-x="678" 
d="M508 524h67v-718h-67v314q-30 -59 -84 -91.5t-126 -32.5q-112 0 -183 75t-71 192q0 116 71 190.5t182 74.5q72 0 126.5 -33t84.5 -92v121zM310 54q86 0 142 58t56 149t-56 150t-142 59q-87 0 -142.5 -59t-56.5 -150q1 -91 56.5 -149t142.5 -58z" />
    <glyph glyph-name="r" unicode="r" horiz-adv-x="366" 
d="M165 402q52 122 191 124v-63q-83 1 -133.5 -48.5t-57.5 -134.5v-280h-67v524h67v-122z" />
    <glyph glyph-name="s" unicode="s" horiz-adv-x="449" 
d="M369 431q-64 40 -140 40q-50 0 -80.5 -19.5t-30.5 -58.5q0 -29 22 -49t55 -30t71.5 -23t71.5 -27.5t54.5 -45.5t21.5 -75q0 -71 -54.5 -108t-134.5 -37q-123 0 -199 73l27 48q72 -67 175 -67q52 0 85.5 21.5t34.5 62.5q1 31 -20.5 52.5t-54.5 32l-71.5 23.5t-71.5 27
t-55 44t-22 73q0 69 51.5 104t128.5 35q90 0 162 -45z" />
    <glyph glyph-name="t" unicode="t" horiz-adv-x="385" 
d="M342 87l20 -51q-54 -37 -116 -39q-60 0 -95 37t-35 111v312h-75l-1 52h76v135h67v-135l170 1v-53h-170v-301q0 -50 18.5 -74t55.5 -23q40 0 85 28z" />
    <glyph glyph-name="u" unicode="u" horiz-adv-x="645" 
d="M480 524h68v-524h-68v125q-52 -125 -202 -127q-93 0 -145.5 54.5t-52.5 149.5v322h68v-306q0 -74 40.5 -115.5t111.5 -41.5q84 1 132 57.5t48 148.5v257z" />
    <glyph glyph-name="v" unicode="v" horiz-adv-x="491" 
d="M5 524h72l174 -457l172 457h70l-208 -524h-71z" />
    <glyph glyph-name="w" unicode="w" horiz-adv-x="856" 
d="M5 524h72l161 -457l159 457h71l160 -457l160 457h70l-196 -524h-70l-160 443l-160 -443h-70z" />
    <glyph glyph-name="x" unicode="x" horiz-adv-x="522" 
d="M37 524h78l146 -208l147 208h75l-178 -254l191 -270h-79l-157 224l-161 -224h-76l193 270z" />
    <glyph glyph-name="y" unicode="y" horiz-adv-x="494" 
d="M254 -75q-49 -122 -154 -122q-62 0 -108 36l30 52q34 -24 75 -24q66 0 101 82l22 54l-217 521h71l180 -450l173 450h69z" />
    <glyph glyph-name="z" unicode="z" horiz-adv-x="524" 
d="M63 524l409 -1v-50l-338 -417l345 -1v-56l-426 1v51l338 417l-328 1v55z" />
    <glyph glyph-name="braceleft" unicode="{" horiz-adv-x="331" 
d="M196 403q0 -28 -9 -46t-19 -26t-36 -23q26 -16 36 -23t19 -25.5t9 -46.5v-208q0 -40 23.5 -58t77.5 -18v-55h-24q-73 0 -106 27t-33 88v228q0 63 -49 63h-25v56h25q49 0 49 63v229q0 61 33 88t106 27h24v-55q-54 0 -77.5 -18.5t-23.5 -58.5v-208z" />
    <glyph glyph-name="bar" unicode="|" horiz-adv-x="245" 
d="M95 817h54v-940h-54v940z" />
    <glyph glyph-name="braceright" unicode="}" horiz-adv-x="331" 
d="M246 336h25v-56h-25q-49 0 -49 -63v-228q0 -61 -33 -88t-106 -27h-24v55q54 0 77.5 18t23.5 58v208q0 28 9 46.5t19 25.5t36 23q-26 15 -36 23t-19 26t-9 46v208q0 40 -23.5 58.5t-77.5 18.5v55h24q73 0 106 -27t33 -88v-229q0 -63 49 -63z" />
    <glyph glyph-name="asciitilde" unicode="~" horiz-adv-x="489" 
d="M415 369q0 -110 -83 -110q-36 0 -89 32t-74 32q-45 0 -45 -55h-49q0 109 83 109q32 0 87 -32t76 -32q45 0 45 56h49z" />
    <glyph glyph-name="uni00A0" unicode="&#xa0;" horiz-adv-x="300" 
 />
    <glyph glyph-name="exclamdown" unicode="&#xa1;" horiz-adv-x="201" 
d="M108 440q-19 0 -32 13t-13 32t13 32.5t32 13.5t31.5 -13t12.5 -33q0 -19 -12.5 -32t-31.5 -13zM140 -164h-65v168l10 314h46l9 -314v-168z" />
    <glyph glyph-name="cent" unicode="&#xa2;" horiz-adv-x="600" 
d="M509 86q-64 -78 -177 -87v-139h-54v139q-104 8 -169.5 81t-65.5 182t65.5 182t169.5 81v144h54v-144q105 -9 169 -75l-38 -45q-64 62 -157 62q-86 0 -141 -57.5t-55 -147.5q0 -91 55 -148.5t141 -57.5q104 0 165 70z" />
    <glyph glyph-name="sterling" unicode="&#xa3;" horiz-adv-x="540" 
d="M202 326v-269h298v-57h-455v57h88v269h-88v41h88v126q0 101 50 155t143 54q111 0 186 -94l-31 -52q-63 84 -149 84q-63 0 -96.5 -38t-33.5 -110v-125h184v-41h-184z" />
    <glyph glyph-name="currency" unicode="&#xa4;" horiz-adv-x="719" 
d="M635 318q0 -97 -65 -170l105 -106l-40 -41l-107 107q-74 -56 -169 -56t-168 57l-108 -108l-40 41l105 106q-63 74 -63 170q0 95 62 170l-104 105l40 41l106 -106q76 58 170 58q95 0 171 -58l105 106l40 -41l-103 -104q63 -76 63 -171zM141 318q0 -86 64 -147.5t154 -61.5
q91 0 156 61.5t65 147.5q0 87 -65 149t-156 62q-90 0 -154 -62t-64 -149z" />
    <glyph glyph-name="yen" unicode="&#xa5;" horiz-adv-x="621" 
d="M616 700l-246 -412h187v-41h-210v-74h210v-41h-210v-132h-69v132h-210v41h210v74h-210v41h186l-249 412h72l235 -377l232 377h72z" />
    <glyph glyph-name="brokenbar" unicode="&#xa6;" horiz-adv-x="245" 
d="M95 817h54v-349h-54v349zM95 227h54v-350h-54v350z" />
    <glyph glyph-name="section" unicode="&#xa7;" horiz-adv-x="465" 
d="M383 605q-66 40 -140 40q-55 0 -88 -21.5t-33 -59.5q0 -37 32 -60.5t77 -36.5t90.5 -28t77.5 -47t32 -82q0 -49 -34.5 -85t-80.5 -46q53 -20 78 -49t25 -72q0 -63 -53 -102t-137 -39q-120 0 -203 75l24 43q79 -68 177 -68q56 0 93.5 25t37.5 65q0 31 -22.5 52.5t-57 32.5
t-74 25t-74 28.5t-57 44t-22.5 71.5q0 50 35.5 82.5t98.5 41.5q-66 23 -94.5 52.5t-28.5 73.5q0 60 50 96.5t131 36.5q90 0 164 -46zM234 397q-57 0 -90.5 -21.5t-33.5 -57.5q0 -42 43.5 -72.5t101.5 -30.5q51 0 83 25t32 64q0 42 -37 67.5t-99 25.5z" />
    <glyph glyph-name="dieresis" unicode="&#xa8;" horiz-adv-x="329" 
d="M94 718q18 0 30.5 -12.5t12.5 -31.5q0 -18 -12.5 -31t-30.5 -13t-30.5 13t-12.5 31q0 19 12.5 31.5t30.5 12.5zM258 718q18 0 30.5 -12.5t12.5 -31.5q0 -18 -12.5 -31t-30.5 -13t-30.5 13t-12.5 31q0 19 12.5 31.5t30.5 12.5z" />
    <glyph glyph-name="copyright" unicode="&#xa9;" horiz-adv-x="761" 
d="M381 689q142 0 240 -99.5t98 -239.5t-99 -240.5t-241 -100.5q-141 0 -239 99.5t-98 239.5t98.5 240.5t240.5 100.5zM381 650q-126 0 -213 -88.5t-87 -213.5t86 -212.5t212 -87.5q127 0 214.5 88.5t87.5 213.5t-86.5 212.5t-213.5 87.5zM491 447q-45 43 -105 43t-102 -41
t-42 -99q0 -59 42 -100.5t102 -41.5q61 0 105 41l24 -25q-55 -53 -131 -53t-129 52t-53 126t53.5 125.5t130.5 51.5q73 0 129 -51z" />
    <glyph glyph-name="ordfeminine" unicode="&#xaa;" horiz-adv-x="379" 
d="M319 458h-50v57q-38 -59 -122 -59q-48 0 -76.5 25.5t-28.5 66.5q0 40 32 62t89 22h106v24q-2 72 -87 72q-51 0 -108 -35l-15 35q69 40 134 40q60 0 93 -28.5t32 -78.5zM163 492q77 0 106 64v48h-97q-82 0 -82 -53q0 -26 20 -42.5t53 -16.5z" />
    <glyph glyph-name="guillemotleft" unicode="&#xab;" horiz-adv-x="419" 
d="M153 418h60l-107 -165l107 -163h-60l-112 163zM300 418h60l-107 -165l107 -163h-60l-112 163z" />
    <glyph glyph-name="logicalnot" unicode="&#xac;" horiz-adv-x="548" 
d="M463 381v-228h-52v180h-373v48h425z" />
    <glyph glyph-name="uni00AD" unicode="&#xad;" horiz-adv-x="363" 
d="M65 327h232v-49h-232v49z" />
    <glyph glyph-name="registered" unicode="&#xae;" horiz-adv-x="761" 
d="M381 689q142 0 240 -99.5t98 -239.5t-99 -240.5t-241 -100.5q-141 0 -239 99.5t-98 239.5t98.5 240.5t240.5 100.5zM379 48q127 0 214.5 88.5t87.5 213.5t-86.5 212.5t-213.5 87.5q-126 0 -213 -88.5t-87 -213.5t86 -212.5t212 -87.5zM527 417q0 -91 -82 -116l87 -123
h-46l-77 116q-7 -1 -23 -1h-95v-115h-38v358h133q68 0 104.5 -31t36.5 -88zM291 327h95q50 0 77 23t27 66q0 42 -27 64t-77 22h-95v-175z" />
    <glyph glyph-name="macron" unicode="&#xaf;" horiz-adv-x="350" 
d="M38 697h276v-46h-276v46z" />
    <glyph glyph-name="degree" unicode="&#xb0;" horiz-adv-x="323" 
d="M192 803q47 0 81 -33.5t34 -78.5q0 -46 -34 -78.5t-81 -32.5q-46 0 -80 33t-34 78t34 78.5t80 33.5zM192 768q-32 0 -55.5 -23t-23.5 -54t23.5 -53.5t55.5 -22.5q33 0 57 22.5t24 53.5t-24 54t-57 23z" />
    <glyph glyph-name="plusminus" unicode="&#xb1;" horiz-adv-x="489" 
d="M268 404h184v-48h-184v-181h-47v181h-183v48h183v180h47v-180zM38 38v49h414v-49h-414z" />
    <glyph glyph-name="uni00B2" unicode="&#xb2;" horiz-adv-x="341" 
d="M180 565q58 60 58 100q0 30 -22 47.5t-60 17.5q-62 0 -117 -52l-23 38q68 58 147 58q58 0 93.5 -28t35.5 -75q0 -58 -77 -133l-129 -136h230v-42h-295v38z" />
    <glyph glyph-name="uni00B3" unicode="&#xb3;" horiz-adv-x="340" 
d="M176 595q58 -3 92.5 -32.5t34.5 -79.5q0 -57 -41 -92.5t-109 -35.5q-76 0 -136 41l23 41q47 -41 110 -41q47 0 74.5 24t27.5 63q0 38 -27 58t-76 20h-54v30l127 137h-186v40h247v-32l-130 -140z" />
    <glyph glyph-name="acute" unicode="&#xb4;" horiz-adv-x="350" 
d="M203 747l69 -30l-126 -100l-60 7z" />
    <glyph glyph-name="uni00B5" unicode="&#xb5;" horiz-adv-x="668" 
d="M503 524h68v-524h-68v125q-52 -125 -202 -127q-79 0 -130 40v-232h-68v718h68v-306q0 -74 40.5 -115.5t111.5 -41.5q84 1 132 57.5t48 148.5v257z" />
    <glyph glyph-name="paragraph" unicode="&#xb6;" horiz-adv-x="586" 
d="M212 389q-24 -2 -34 -2q-49 0 -85.5 17t-54.5 45t-26.5 56t-8.5 56q0 77 52.5 129t158.5 52h262v-852h-54v807h-156v-807h-54v499z" />
    <glyph glyph-name="periodcentered" unicode="&#xb7;" horiz-adv-x="198" 
d="M100 324q20 0 33 -13.5t13 -33.5t-13.5 -34t-32.5 -14q-20 0 -33.5 14t-13.5 34t13.5 33.5t33.5 13.5z" />
    <glyph glyph-name="cedilla" unicode="&#xb8;" horiz-adv-x="274" 
d="M138 7l47 -7l-17 -53q40 -4 60.5 -26t20.5 -51q0 -38 -28.5 -62t-74.5 -24t-85 22l16 43q30 -16 62 -16q26 0 40.5 13t14.5 30q0 16 -14.5 27.5t-39.5 11.5h-30z" />
    <glyph glyph-name="uni00B9" unicode="&#xb9;" horiz-adv-x="223" 
d="M8 770h138v-410h-52v367h-86v43z" />
    <glyph glyph-name="ordmasculine" unicode="&#xba;" horiz-adv-x="402" 
d="M201 768q71 0 117 -43.5t46 -112.5t-45.5 -112t-117.5 -43q-73 0 -118.5 43t-45.5 112t45.5 112.5t118.5 43.5zM201 726q-50 0 -81.5 -31.5t-31.5 -82.5t31.5 -83t81.5 -32q49 0 80 32t31 83t-31 82.5t-80 31.5z" />
    <glyph glyph-name="guillemotright" unicode="&#xbb;" horiz-adv-x="425" 
d="M119 90h-60l107 165l-107 163h60l112 -163zM266 90h-60l107 165l-107 163h60l112 -163z" />
    <glyph glyph-name="onequarter" unicode="&#xbc;" horiz-adv-x="700" 
d="M8 700h138v-410h-52v367h-86v43zM538 700h58l-526 -700h-59zM523 410h51l-149 -263h151v114h50v-114h63v-39h-63v-108h-50v108h-203v39z" />
    <glyph glyph-name="onehalf" unicode="&#xbd;" horiz-adv-x="721" 
d="M7 700h138v-410h-52v367h-86v43zM538 700h58l-526 -700h-59zM559 205q58 60 58 100q0 30 -22 47.5t-60 17.5q-62 0 -117 -52l-23 38q68 58 147 58q58 0 93.5 -28t35.5 -75q0 -58 -77 -133l-129 -136h230v-42h-295v38z" />
    <glyph glyph-name="threequarters" unicode="&#xbe;" horiz-adv-x="786" 
d="M625 700h58l-526 -700h-59zM176 526q58 -3 92.5 -32.5t34.5 -79.5q0 -57 -41 -92.5t-109 -35.5q-76 0 -136 41l23 41q47 -41 110 -41q47 0 74.5 24t27.5 63q0 38 -27 58t-76 20h-54v30l127 137h-186v40h247v-32l-130 -140zM610 410h51l-149 -263h151v114h50v-114h63v-39
h-63v-108h-50v108h-203v39z" />
    <glyph glyph-name="questiondown" unicode="&#xbf;" horiz-adv-x="419" 
d="M225 440q-19 0 -32 13t-13 32t13 32.5t32 13.5t31.5 -13t12.5 -33q0 -19 -12.5 -32t-31.5 -13zM395 6q-4 -81 -55 -125.5t-135 -44.5t-135.5 41t-51.5 118q0 45 18.5 80.5t45 58l52.5 45t44.5 55t18.5 73.5h54q0 -47 -17.5 -82t-42.5 -57.5l-49.5 -43.5t-42 -51.5
t-17.5 -69.5q0 -54 34.5 -81.5t93.5 -27.5t93 29t37 85z" />
    <glyph glyph-name="Agrave" unicode="&#xc0;" horiz-adv-x="712" 
d="M403 773l-60 -7l-126 100l69 30zM632 0l-83 186h-388l-82 -186h-74l315 699h72l315 -699h-75zM188 248h334l-168 378z" />
    <glyph glyph-name="Aacute" unicode="&#xc1;" horiz-adv-x="712" 
d="M499 866l-126 -100l-60 7l117 123zM632 0l-83 186h-388l-82 -186h-74l315 699h72l315 -699h-75zM188 248h334l-168 378z" />
    <glyph glyph-name="Acircumflex" unicode="&#xc2;" horiz-adv-x="712" 
d="M357 844l-71 -76h-69l103 125h74l102 -125h-69zM632 0l-83 186h-388l-82 -186h-74l315 699h72l315 -699h-75zM188 248h334l-168 378z" />
    <glyph glyph-name="Atilde" unicode="&#xc3;" horiz-adv-x="712" 
d="M296 824q-38 0 -38 -53h-49q0 47 19.5 77t58.5 30q30 0 71 -29t58 -29q38 0 38 54h49q0 -47 -19.5 -77t-58.5 -30q-30 0 -71 28.5t-58 28.5zM632 0l-83 186h-388l-82 -186h-74l315 699h72l315 -699h-75zM188 248h334l-168 378z" />
    <glyph glyph-name="Adieresis" unicode="&#xc4;" horiz-adv-x="712" 
d="M274 766q-19 0 -31.5 13t-12.5 31q0 19 12.5 31.5t31.5 12.5q18 0 30.5 -12.5t12.5 -31.5q0 -18 -12.5 -31t-30.5 -13zM439 766q-19 0 -31.5 13t-12.5 31q0 19 12.5 31.5t31.5 12.5q18 0 30.5 -12.5t12.5 -31.5q0 -18 -12.5 -31t-30.5 -13zM632 0l-83 186h-388l-82 -186
h-74l315 699h72l315 -699h-75zM188 248h334l-168 378z" />
    <glyph glyph-name="Aring" unicode="&#xc5;" horiz-adv-x="712" 
d="M356 755q-41 0 -70.5 29t-29.5 69t29.5 69.5t70.5 29.5t70.5 -29.5t29.5 -69.5t-29.5 -69t-70.5 -29zM356 913q-26 0 -44 -17.5t-18 -42.5q0 -24 18.5 -41.5t43.5 -17.5t43.5 17.5t18.5 41.5q0 25 -18.5 42.5t-43.5 17.5zM632 0l-83 186h-388l-82 -186h-74l315 699h72
l315 -699h-75zM188 248h334l-168 378z" />
    <glyph glyph-name="AE" unicode="&#xc6;" horiz-adv-x="1019" 
d="M548 62h413v-62h-481v199h-285l-116 -199h-74l414 699h61v1h468v-63h-400v-250h357v-62h-357v-263zM227 254h253v388h-27z" />
    <glyph glyph-name="Ccedilla" unicode="&#xc7;" horiz-adv-x="701" 
d="M407 -53q40 -4 60.5 -26t20.5 -51q0 -38 -28.5 -62t-74.5 -24t-85 22l16 43q30 -16 62 -16q26 0 40.5 13t14.5 30q0 16 -14.5 27.5t-39.5 11.5h-30l24 80q-140 11 -235.5 113.5t-95.5 242.5q0 148 106 251t258 103q70 0 136.5 -26.5t116.5 -73.5l-41 -48q-89 87 -211 87
q-123 0 -209 -85.5t-86 -207.5t86 -207.5t209 -85.5q120 0 211 85l42 -45q-105 -97 -238 -103z" />
    <glyph glyph-name="Egrave" unicode="&#xc8;" horiz-adv-x="650" 
d="M281 897l117 -123l-60 -7l-126 100zM110 699h468v-62h-399v-250h357v-62h-357v-263h412v-62h-481v699z" />
    <glyph glyph-name="Eacute" unicode="&#xc9;" horiz-adv-x="650" 
d="M425 897l69 -30l-126 -100l-60 7zM110 699h468v-62h-399v-250h357v-62h-357v-263h412v-62h-481v699z" />
    <glyph glyph-name="Ecircumflex" unicode="&#xca;" horiz-adv-x="650" 
d="M352 845l-71 -76h-69l103 125h74l102 -125h-69zM179 62h412v-62h-481v699h468v-62h-399v-250h357v-62h-357v-263z" />
    <glyph glyph-name="Edieresis" unicode="&#xcb;" horiz-adv-x="650" 
d="M269 855q18 0 30.5 -12.5t12.5 -31.5q0 -18 -12.5 -31t-30.5 -13q-19 0 -31.5 13t-12.5 31q0 19 12.5 31.5t31.5 12.5zM434 855q18 0 30.5 -12.5t12.5 -31.5q0 -18 -12.5 -31t-30.5 -13q-19 0 -31.5 13t-12.5 31q0 19 12.5 31.5t31.5 12.5zM110 699h468v-62h-399v-250
h357v-62h-357v-263h412v-62h-481v699z" />
    <glyph glyph-name="Igrave" unicode="&#xcc;" horiz-adv-x="289" 
d="M74 896l117 -123l-60 -7l-126 100zM110 699h69v-699h-69v699z" />
    <glyph glyph-name="Iacute" unicode="&#xcd;" horiz-adv-x="289" 
d="M218 896l69 -30l-126 -100l-60 7zM110 699h69v-699h-69v699z" />
    <glyph glyph-name="Icircumflex" unicode="&#xce;" horiz-adv-x="289" 
d="M182 893l102 -125h-69l-70 76l-71 -76h-69l103 125h74zM110 0v699h69v-699h-69z" />
    <glyph glyph-name="Idieresis" unicode="&#xcf;" horiz-adv-x="289" 
d="M62 854q18 0 30.5 -12.5t12.5 -31.5q0 -18 -12.5 -31t-30.5 -13q-19 0 -31.5 13t-12.5 31q0 19 12.5 31.5t31.5 12.5zM227 854q18 0 30.5 -12.5t12.5 -31.5q0 -18 -12.5 -31t-30.5 -13q-19 0 -31.5 13t-12.5 31q0 19 12.5 31.5t31.5 12.5zM110 699h69v-699h-69v699z" />
    <glyph glyph-name="Eth" unicode="&#xd0;" horiz-adv-x="793" 
d="M391 700q153 0 256.5 -101t103.5 -249t-104 -249t-257 -101h-280v328h-71v44h71v328h281zM393 62q121 0 205 83t84 204q0 122 -85 205t-207 83h-211v-265h241v-44h-241v-266h214z" />
    <glyph glyph-name="Ntilde" unicode="&#xd1;" horiz-adv-x="796" 
d="M351 825q-38 0 -38 -53h-49q0 47 19.5 77t58.5 30q30 0 71 -29t58 -29q38 0 38 54h49q0 -47 -19.5 -77t-58.5 -30q-30 0 -71 28.5t-58 28.5zM617 699h68v-699h-73l-433 592v-592h-69v699h73l434 -592v592z" />
    <glyph glyph-name="Ograve" unicode="&#xd2;" horiz-adv-x="814" 
d="M337 897l117 -123l-60 -7l-126 100zM407 705q152 0 258.5 -103t106.5 -251q0 -149 -106.5 -253t-258.5 -104t-258.5 104t-106.5 253q0 148 106.5 251t258.5 103zM408 643q-122 0 -209 -85.5t-87 -206.5q0 -122 87 -208.5t209 -86.5q121 0 207.5 86.5t86.5 208.5
q0 121 -86.5 206.5t-207.5 85.5z" />
    <glyph glyph-name="Oacute" unicode="&#xd3;" horiz-adv-x="814" 
d="M481 897l69 -30l-126 -100l-60 7zM407 705q152 0 258.5 -103t106.5 -251q0 -149 -106.5 -253t-258.5 -104t-258.5 104t-106.5 253q0 148 106.5 251t258.5 103zM408 643q-122 0 -209 -85.5t-87 -206.5q0 -122 87 -208.5t209 -86.5q121 0 207.5 86.5t86.5 208.5
q0 121 -86.5 206.5t-207.5 85.5z" />
    <glyph glyph-name="Ocircumflex" unicode="&#xd4;" horiz-adv-x="814" 
d="M408 845l-71 -76h-69l103 125h74l102 -125h-69zM407 705q152 0 258.5 -103t106.5 -251q0 -149 -106.5 -253t-258.5 -104t-258.5 104t-106.5 253q0 148 106.5 251t258.5 103zM408 56q121 0 207.5 86.5t86.5 208.5q0 121 -86.5 206.5t-207.5 85.5q-122 0 -209 -85.5
t-87 -206.5q0 -122 87 -208.5t209 -86.5z" />
    <glyph glyph-name="Otilde" unicode="&#xd5;" horiz-adv-x="814" 
d="M554 875q0 -47 -19.5 -77t-58.5 -30q-30 0 -71 28.5t-58 28.5q-38 0 -38 -53h-49q0 47 19.5 77t58.5 30q30 0 71 -29t58 -29q38 0 38 54h49zM407 705q152 0 258.5 -103t106.5 -251q0 -149 -106.5 -253t-258.5 -104t-258.5 104t-106.5 253q0 148 106.5 251t258.5 103z
M408 643q-122 0 -209 -85.5t-87 -206.5q0 -122 87 -208.5t209 -86.5q121 0 207.5 86.5t86.5 208.5q0 121 -86.5 206.5t-207.5 85.5z" />
    <glyph glyph-name="Odieresis" unicode="&#xd6;" horiz-adv-x="814" 
d="M325 855q18 0 30.5 -12.5t12.5 -31.5q0 -18 -12.5 -31t-30.5 -13q-19 0 -31.5 13t-12.5 31q0 19 12.5 31.5t31.5 12.5zM490 855q18 0 30.5 -12.5t12.5 -31.5q0 -18 -12.5 -31t-30.5 -13q-19 0 -31.5 13t-12.5 31q0 19 12.5 31.5t31.5 12.5zM407 705q152 0 258.5 -103
t106.5 -251q0 -149 -106.5 -253t-258.5 -104t-258.5 104t-106.5 253q0 148 106.5 251t258.5 103zM408 643q-122 0 -209 -85.5t-87 -206.5q0 -122 87 -208.5t209 -86.5q121 0 207.5 86.5t86.5 208.5q0 121 -86.5 206.5t-207.5 85.5z" />
    <glyph glyph-name="multiply" unicode="&#xd7;" horiz-adv-x="489" 
d="M407 451l-129 -129l129 -129l-33 -34l-129 130l-130 -130l-33 34l129 129l-129 129l33 35l130 -130l129 130z" />
    <glyph glyph-name="Oslash" unicode="&#xd8;" horiz-adv-x="814" 
d="M632 627q66 -49 103 -121t37 -156q0 -147 -106.5 -250t-258.5 -103q-100 0 -184 48l-70 -100h-60l89 126q-66 50 -103 122.5t-37 156.5q0 147 106.5 249t258.5 102q100 0 183 -47l71 101h61zM112 350q0 -66 29 -125t79 -99l333 475q-68 38 -145 38q-122 0 -209 -84.5
t-87 -204.5zM408 59q121 0 207.5 85.5t86.5 205.5q0 67 -29 125t-79 98l-334 -475q69 -39 148 -39z" />
    <glyph glyph-name="Ugrave" unicode="&#xd9;" horiz-adv-x="767" 
d="M314 897l117 -123l-60 -7l-126 100zM163 284q0 -108 58.5 -168t162.5 -60t162 60t58 168v416h69v-416q0 -136 -76.5 -213t-212.5 -77t-213 77t-77 213v416h69v-416z" />
    <glyph glyph-name="Uacute" unicode="&#xda;" horiz-adv-x="767" 
d="M458 897l69 -30l-126 -100l-60 7zM163 284q0 -108 58.5 -168t162.5 -60t162 60t58 168v416h69v-416q0 -136 -76.5 -213t-212.5 -77t-213 77t-77 213v416h69v-416z" />
    <glyph glyph-name="Ucircumflex" unicode="&#xdb;" horiz-adv-x="767" 
d="M385 845l-71 -76h-69l103 125h74l102 -125h-69zM604 700h69v-416q0 -136 -76.5 -213t-212.5 -77t-213 77t-77 213v416h69v-416q0 -108 58.5 -168t162.5 -60t162 60t58 168v416z" />
    <glyph glyph-name="Udieresis" unicode="&#xdc;" horiz-adv-x="767" 
d="M302 855q18 0 30.5 -12.5t12.5 -31.5q0 -18 -12.5 -31t-30.5 -13q-19 0 -31.5 13t-12.5 31q0 19 12.5 31.5t31.5 12.5zM467 855q18 0 30.5 -12.5t12.5 -31.5q0 -18 -12.5 -31t-30.5 -13q-19 0 -31.5 13t-12.5 31q0 19 12.5 31.5t31.5 12.5zM163 284q0 -108 58.5 -168
t162.5 -60t162 60t58 168v416h69v-416q0 -136 -76.5 -213t-212.5 -77t-213 77t-77 213v416h69v-416z" />
    <glyph glyph-name="Yacute" unicode="&#xdd;" horiz-adv-x="622" 
d="M454 866l-126 -100l-60 7l117 123zM616 699l-269 -450v-249h-69v249l-273 450h72l236 -376l231 376h72z" />
    <glyph glyph-name="Thorn" unicode="&#xde;" horiz-adv-x="670" 
d="M346 594q146 0 221.5 -57.5t75.5 -169.5q0 -115 -76 -175t-221 -60h-167v-132h-69v699h69v-105h167zM344 190q228 0 228 175q0 171 -228 171h-165v-346h165z" />
    <glyph glyph-name="germandbls" unicode="&#xdf;" horiz-adv-x="647" 
d="M94 491q0 116 64.5 185t173.5 69q98 0 157.5 -51.5t59.5 -136.5q0 -64 -36 -112.5t-96 -65.5q77 -12 123.5 -58t46.5 -117q0 -91 -68.5 -147.5t-181.5 -56.5h-53v53h57q81 0 130.5 41.5t49.5 107.5q0 67 -53.5 105.5t-143.5 38.5h-9v53q77 0 123 41t46 109q0 64 -42 102
t-111 38q-78 0 -124 -52.5t-46 -141.5v-495h-67v491z" />
    <glyph glyph-name="agrave" unicode="&#xe0;" horiz-adv-x="574" 
d="M331 624l-60 -7l-126 100l69 30zM493 0h-66l-1 88q-62 -91 -196 -91q-80 0 -129 44.5t-49 113.5q0 68 52.5 107t144.5 39h176v40q0 62 -37 96t-108 34q-84 0 -169 -63l-30 46q53 37 101 54.5t110 17.5q95 0 147 -47.5t53 -131.5zM242 53q70 0 118.5 32.5t65.5 91.5v72
h-169q-141 0 -141 -92q0 -47 34.5 -75.5t91.5 -28.5z" />
    <glyph glyph-name="aacute" unicode="&#xe1;" horiz-adv-x="574" 
d="M426 717l-126 -100l-60 7l117 123zM493 0h-66l-1 88q-62 -91 -196 -91q-80 0 -129 44.5t-49 113.5q0 68 52.5 107t144.5 39h176v40q0 62 -37 96t-108 34q-84 0 -169 -63l-30 46q53 37 101 54.5t110 17.5q95 0 147 -47.5t53 -131.5zM242 53q70 0 118.5 32.5t65.5 91.5v72
h-169q-141 0 -141 -92q0 -47 34.5 -75.5t91.5 -28.5z" />
    <glyph glyph-name="acircumflex" unicode="&#xe2;" horiz-adv-x="574" 
d="M283 695l-71 -76h-69l103 125h74l102 -125h-69zM493 0h-66l-1 88q-62 -91 -196 -91q-80 0 -129 44.5t-49 113.5q0 68 52.5 107t144.5 39h176v40q0 62 -37 96t-108 34q-84 0 -169 -63l-30 46q53 37 101 54.5t110 17.5q95 0 147 -47.5t53 -131.5zM242 53q70 0 118.5 32.5
t65.5 91.5v72h-169q-141 0 -141 -92q0 -47 34.5 -75.5t91.5 -28.5z" />
    <glyph glyph-name="atilde" unicode="&#xe3;" horiz-adv-x="574" 
d="M223 673q-38 0 -38 -53h-49q0 47 19.5 77t58.5 30q30 0 71 -29t58 -29q38 0 38 54h49q0 -47 -19.5 -77t-58.5 -30q-30 0 -71 28.5t-58 28.5zM493 0h-66l-1 88q-62 -91 -196 -91q-80 0 -129 44.5t-49 113.5q0 68 52.5 107t144.5 39h176v40q0 62 -37 96t-108 34
q-84 0 -169 -63l-30 46q53 37 101 54.5t110 17.5q95 0 147 -47.5t53 -131.5zM242 53q70 0 118.5 32.5t65.5 91.5v72h-169q-141 0 -141 -92q0 -47 34.5 -75.5t91.5 -28.5z" />
    <glyph glyph-name="adieresis" unicode="&#xe4;" horiz-adv-x="574" 
d="M201 630q-18 0 -30.5 13t-12.5 31q0 19 12.5 31.5t30.5 12.5t30.5 -12.5t12.5 -31.5q0 -18 -12.5 -31t-30.5 -13zM365 630q-18 0 -30.5 13t-12.5 31q0 19 12.5 31.5t30.5 12.5t30.5 -12.5t12.5 -31.5q0 -18 -12.5 -31t-30.5 -13zM493 0h-66l-1 88q-62 -91 -196 -91
q-80 0 -129 44.5t-49 113.5q0 68 52.5 107t144.5 39h176v40q0 62 -37 96t-108 34q-84 0 -169 -63l-30 46q53 37 101 54.5t110 17.5q95 0 147 -47.5t53 -131.5zM242 53q70 0 118.5 32.5t65.5 91.5v72h-169q-141 0 -141 -92q0 -47 34.5 -75.5t91.5 -28.5z" />
    <glyph glyph-name="aring" unicode="&#xe5;" horiz-adv-x="574" 
d="M283 580q-41 0 -70.5 29t-29.5 69t29.5 69.5t70.5 29.5t70.5 -29.5t29.5 -69.5t-29.5 -69t-70.5 -29zM283 738q-26 0 -44 -17.5t-18 -42.5q0 -24 18.5 -41.5t43.5 -17.5t43.5 17.5t18.5 41.5q0 25 -18.5 42.5t-43.5 17.5zM493 0h-66l-1 88q-62 -91 -196 -91
q-80 0 -129 44.5t-49 113.5q0 68 52.5 107t144.5 39h176v40q0 62 -37 96t-108 34q-84 0 -169 -63l-30 46q53 37 101 54.5t110 17.5q95 0 147 -47.5t53 -131.5zM242 53q70 0 118.5 32.5t65.5 91.5v72h-169q-141 0 -141 -92q0 -47 34.5 -75.5t91.5 -28.5z" />
    <glyph glyph-name="ae" unicode="&#xe6;" horiz-adv-x="982" 
d="M496 229q0 -70 60 -123t139 -53q102 0 166 69l38 -38q-80 -86 -209 -86q-79 0 -140.5 38.5t-91.5 104.5q-65 -144 -228 -144q-79 0 -128.5 43t-49.5 112q0 67 52 104t146 37h177v48q-1 63 -39 96.5t-108 33.5q-84 0 -179 -63l-20 48q109 70 211 70q74 0 122 -30.5
t64 -86.5q31 55 86.5 86t124.5 31q114 0 184 -76.5t68 -199.5h-445v-21zM873 290q-4 84 -54.5 134.5t-129.5 50.5t-132.5 -51t-60.5 -134h377zM261 253q-69 0 -107 -25t-38 -71q0 -49 35 -79.5t92 -30.5q68 0 112.5 31t72.5 98v77h-167z" />
    <glyph glyph-name="ccedilla" unicode="&#xe7;" horiz-adv-x="561" 
d="M509 86q-66 -82 -191 -88l-16 -51q40 -4 60.5 -26t20.5 -51q0 -38 -28.5 -62t-74.5 -24t-85 22l16 43q30 -16 62 -16q26 0 40.5 13t14.5 30q0 16 -14.5 27.5t-39.5 11.5h-30l26 85q-101 11 -164 83t-63 179q0 116 73 190t187 74q124 0 198 -76l-38 -45q-64 62 -157 62
q-86 0 -141 -57.5t-55 -147.5q0 -91 55 -148.5t141 -57.5q104 0 165 70z" />
    <glyph glyph-name="egrave" unicode="&#xe8;" horiz-adv-x="589" 
d="M345 624l-60 -7l-126 100l69 30zM302 526q122 0 186 -77.5t59 -208.5h-437q7 -84 62 -135.5t136 -51.5q103 0 167 69l38 -38q-80 -86 -209 -86q-115 0 -188 74t-73 190t73 190t186 74zM110 292h377q-5 82 -54.5 130.5t-129.5 48.5q-79 0 -132 -49t-61 -130z" />
    <glyph glyph-name="eacute" unicode="&#xe9;" horiz-adv-x="589" 
d="M440 717l-126 -100l-60 7l117 123zM302 526q122 0 186 -77.5t59 -208.5h-437q7 -84 62 -135.5t136 -51.5q103 0 167 69l38 -38q-80 -86 -209 -86q-115 0 -188 74t-73 190t73 190t186 74zM110 292h377q-5 82 -54.5 130.5t-129.5 48.5q-79 0 -132 -49t-61 -130z" />
    <glyph glyph-name="ecircumflex" unicode="&#xea;" horiz-adv-x="589" 
d="M297 695l-71 -76h-69l103 125h74l102 -125h-69zM302 526q122 0 186 -77.5t59 -208.5h-437q7 -84 62 -135.5t136 -51.5q103 0 167 69l38 -38q-80 -86 -209 -86q-115 0 -188 74t-73 190t73 190t186 74zM110 292h377q-5 82 -54.5 130.5t-129.5 48.5q-79 0 -132 -49t-61 -130
z" />
    <glyph glyph-name="edieresis" unicode="&#xeb;" horiz-adv-x="589" 
d="M215 630q-18 0 -30.5 13t-12.5 31q0 19 12.5 31.5t30.5 12.5t30.5 -12.5t12.5 -31.5q0 -18 -12.5 -31t-30.5 -13zM379 630q-18 0 -30.5 13t-12.5 31q0 19 12.5 31.5t30.5 12.5t30.5 -12.5t12.5 -31.5q0 -18 -12.5 -31t-30.5 -13zM302 526q122 0 186 -77.5t59 -208.5h-437
q7 -84 62 -135.5t136 -51.5q103 0 167 69l38 -38q-80 -86 -209 -86q-115 0 -188 74t-73 190t73 190t186 74zM110 292h377q-5 82 -54.5 130.5t-129.5 48.5q-79 0 -132 -49t-61 -130z" />
    <glyph glyph-name="igrave" unicode="&#xec;" horiz-adv-x="262" 
d="M62 747l117 -123l-60 -7l-126 100zM98 524h67v-524h-67v524z" />
    <glyph glyph-name="iacute" unicode="&#xed;" horiz-adv-x="262" 
d="M205 747l69 -30l-126 -100l-60 7zM98 524h67v-524h-67v524z" />
    <glyph glyph-name="icircumflex" unicode="&#xee;" horiz-adv-x="262" 
d="M168 744l102 -125h-69l-70 76l-71 -76h-69l103 125h74zM98 0v524h67v-524h-67z" />
    <glyph glyph-name="idieresis" unicode="&#xef;" horiz-adv-x="262" 
d="M64 718q19 0 31 -12.5t12 -31.5q0 -18 -12.5 -31t-30.5 -13t-30.5 13t-12.5 31q0 19 12.5 31.5t30.5 12.5zM198 718q18 0 30.5 -12.5t12.5 -31.5q0 -18 -12.5 -31t-30.5 -13t-30.5 13t-12.5 31q0 19 12.5 31.5t30.5 12.5zM98 524h67v-524h-67v524z" />
    <glyph glyph-name="eth" unicode="&#xf0;" horiz-adv-x="578" 
d="M368 611q80 -81 124 -175.5t44 -190.5q0 -113 -69.5 -180.5t-184.5 -67.5q-106 0 -170 61.5t-64 164.5q0 99 62 158.5t165 59.5q64 0 116 -28.5t76 -75.5q-28 132 -152 249l-174 -80l-18 40l156 72q-64 54 -139 91l44 36q84 -44 149 -102l136 63l19 -40zM288 57
q81 0 129 45t48 119q0 77 -48 123t-129 46q-80 0 -127.5 -44.5t-47.5 -118.5q0 -77 47.5 -123.5t127.5 -46.5z" />
    <glyph glyph-name="ntilde" unicode="&#xf1;" horiz-adv-x="654" 
d="M284 673q-38 0 -38 -53h-49q0 47 19.5 77t58.5 30q30 0 71 -29t58 -29q38 0 38 54h49q0 -47 -19.5 -77t-58.5 -30q-30 0 -71 28.5t-58 28.5zM372 526q94 0 147.5 -54.5t53.5 -149.5v-322h-68v306q0 74 -41 116t-114 42q-81 -1 -129.5 -50t-55.5 -132v-282h-67v524h67
v-122q54 122 207 124z" />
    <glyph glyph-name="ograve" unicode="&#xf2;" horiz-adv-x="616" 
d="M239 747l117 -123l-60 -7l-126 100zM308 526q116 0 190 -73.5t74 -189.5q0 -117 -74 -191t-190 -74t-190 74t-74 191q0 116 74 189.5t190 73.5zM308 468q-86 0 -141.5 -57.5t-55.5 -148.5q0 -92 55 -149.5t142 -57.5t142 57.5t55 149.5q0 91 -55.5 148.5t-141.5 57.5z
" />
    <glyph glyph-name="oacute" unicode="&#xf3;" horiz-adv-x="616" 
d="M382 747l69 -30l-126 -100l-60 7zM308 526q116 0 190 -73.5t74 -189.5q0 -117 -74 -191t-190 -74t-190 74t-74 191q0 116 74 189.5t190 73.5zM308 468q-86 0 -141.5 -57.5t-55.5 -148.5q0 -92 55 -149.5t142 -57.5t142 57.5t55 149.5q0 91 -55.5 148.5t-141.5 57.5z" />
    <glyph glyph-name="ocircumflex" unicode="&#xf4;" horiz-adv-x="616" 
d="M308 695l-71 -76h-69l103 125h74l102 -125h-69zM308 526q116 0 190 -73.5t74 -189.5q0 -117 -74 -191t-190 -74t-190 74t-74 191q0 116 74 189.5t190 73.5zM308 55q87 0 142 57.5t55 149.5q0 91 -55.5 148.5t-141.5 57.5t-141.5 -57.5t-55.5 -148.5q0 -92 55 -149.5
t142 -57.5z" />
    <glyph glyph-name="otilde" unicode="&#xf5;" horiz-adv-x="616" 
d="M455 723q0 -47 -19.5 -77t-58.5 -30q-30 0 -71 28.5t-58 28.5q-38 0 -38 -53h-49q0 47 19.5 77t58.5 30q30 0 71 -29t58 -29q38 0 38 54h49zM308 526q116 0 190 -73.5t74 -189.5q0 -117 -74 -191t-190 -74t-190 74t-74 191q0 116 74 189.5t190 73.5zM308 468
q-86 0 -141.5 -57.5t-55.5 -148.5q0 -92 55 -149.5t142 -57.5t142 57.5t55 149.5q0 91 -55.5 148.5t-141.5 57.5z" />
    <glyph glyph-name="odieresis" unicode="&#xf6;" horiz-adv-x="616" 
d="M226 718q18 0 30.5 -12.5t12.5 -31.5q0 -18 -12.5 -31t-30.5 -13t-30.5 13t-12.5 31q0 19 12.5 31.5t30.5 12.5zM390 718q18 0 30.5 -12.5t12.5 -31.5q0 -18 -12.5 -31t-30.5 -13t-30.5 13t-12.5 31q0 19 12.5 31.5t30.5 12.5zM308 526q116 0 190 -73.5t74 -189.5
q0 -117 -74 -191t-190 -74t-190 74t-74 191q0 116 74 189.5t190 73.5zM308 468q-86 0 -141.5 -57.5t-55.5 -148.5q0 -92 55 -149.5t142 -57.5t142 57.5t55 149.5q0 91 -55.5 148.5t-141.5 57.5z" />
    <glyph glyph-name="divide" unicode="&#xf7;" horiz-adv-x="489" 
d="M246 546q19 0 31.5 -13t12.5 -32t-12.5 -32t-31.5 -13t-32 13t-13 32t13 32t32 13zM38 347h414v-50h-414v50zM246 193q19 0 31.5 -13t12.5 -32t-12.5 -32t-31.5 -13t-32 13t-13 32t13 32t32 13z" />
    <glyph glyph-name="oslash" unicode="&#xf8;" horiz-adv-x="616" 
d="M477 471q95 -76 95 -208q0 -117 -74 -191t-190 -74q-75 0 -133 32l-91 -133h-51l107 156q-96 75 -96 210q0 116 74 189.5t190 73.5q75 0 133 -32l91 133h52zM108 262q0 -100 64 -161l237 346q-45 25 -101 25q-88 0 -144 -58.5t-56 -151.5zM308 50q88 0 144 59t56 153
q0 101 -65 160l-237 -346q46 -26 102 -26z" />
    <glyph glyph-name="ugrave" unicode="&#xf9;" horiz-adv-x="645" 
d="M371 624l-60 -7l-126 100l69 30zM480 524h68v-524h-68v125q-52 -125 -202 -127q-93 0 -145.5 54.5t-52.5 149.5v322h68v-306q0 -74 40.5 -115.5t111.5 -41.5q84 1 132 57.5t48 148.5v257z" />
    <glyph glyph-name="uacute" unicode="&#xfa;" horiz-adv-x="645" 
d="M466 717l-126 -100l-60 7l117 123zM480 524h68v-524h-68v125q-52 -125 -202 -127q-93 0 -145.5 54.5t-52.5 149.5v322h68v-306q0 -74 40.5 -115.5t111.5 -41.5q84 1 132 57.5t48 148.5v257z" />
    <glyph glyph-name="ucircumflex" unicode="&#xfb;" horiz-adv-x="645" 
d="M323 695l-71 -76h-69l103 125h74l102 -125h-69zM480 524h68v-524h-68v125q-52 -125 -202 -127q-93 0 -145.5 54.5t-52.5 149.5v322h68v-306q0 -74 40.5 -115.5t111.5 -41.5q84 1 132 57.5t48 148.5v257z" />
    <glyph glyph-name="udieresis" unicode="&#xfc;" horiz-adv-x="645" 
d="M241 630q-18 0 -30.5 13t-12.5 31q0 19 12.5 31.5t30.5 12.5t30.5 -12.5t12.5 -31.5q0 -18 -12.5 -31t-30.5 -13zM405 630q-18 0 -30.5 13t-12.5 31q0 19 12.5 31.5t30.5 12.5t30.5 -12.5t12.5 -31.5q0 -18 -12.5 -31t-30.5 -13zM480 524h68v-524h-68v125
q-52 -125 -202 -127q-93 0 -145.5 54.5t-52.5 149.5v322h68v-306q0 -74 40.5 -115.5t111.5 -41.5q84 1 132 57.5t48 148.5v257z" />
    <glyph glyph-name="yacute" unicode="&#xfd;" horiz-adv-x="494" 
d="M325 747l69 -30l-126 -100l-60 7zM254 -75q-49 -122 -154 -122q-62 0 -108 36l30 52q34 -24 75 -24q66 0 101 82l22 54l-217 521h71l180 -450l173 450h69z" />
    <glyph glyph-name="thorn" unicode="&#xfe;" horiz-adv-x="675" 
d="M170 404q29 58 83.5 90t125.5 32q111 0 181.5 -74t70.5 -191q0 -116 -70 -189.5t-181 -73.5q-72 0 -126.5 32.5t-83.5 90.5v-315h-67v936h67v-338zM367 469q-86 0 -141.5 -58.5t-55.5 -147.5q0 -91 55.5 -149t141.5 -58t141 58t55 149q0 89 -55.5 147.5t-140.5 58.5z" />
    <glyph glyph-name="ydieresis" unicode="&#xff;" horiz-adv-x="494" 
d="M169 718q18 0 30.5 -12.5t12.5 -31.5q0 -18 -12.5 -31t-30.5 -13t-30.5 13t-12.5 31q0 19 12.5 31.5t30.5 12.5zM333 718q18 0 30.5 -12.5t12.5 -31.5q0 -18 -12.5 -31t-30.5 -13t-30.5 13t-12.5 31q0 19 12.5 31.5t30.5 12.5zM254 -75q-49 -122 -154 -122q-62 0 -108 36
l30 52q34 -24 75 -24q66 0 101 82l22 54l-217 521h71l180 -450l173 450h69z" />
    <glyph glyph-name="Amacron" unicode="&#x100;" horiz-adv-x="712" 
d="M512 820v-46h-312v46h312zM632 0l-83 186h-388l-82 -186h-74l315 699h72l315 -699h-75zM188 248h334l-168 378z" />
    <glyph glyph-name="amacron" unicode="&#x101;" horiz-adv-x="574" 
d="M420 697v-46h-276v46h276zM493 0h-66l-1 88q-62 -91 -196 -91q-80 0 -129 44.5t-49 113.5q0 68 52.5 107t144.5 39h176v40q0 62 -37 96t-108 34q-84 0 -169 -63l-30 46q53 37 101 54.5t110 17.5q95 0 147 -47.5t53 -131.5zM242 53q70 0 118.5 32.5t65.5 91.5v72h-169
q-141 0 -141 -92q0 -47 34.5 -75.5t91.5 -28.5z" />
    <glyph glyph-name="Abreve" unicode="&#x102;" horiz-adv-x="712" 
d="M356 766q-51 0 -86 34.5t-37 88.5h49q2 -32 22.5 -53.5t51.5 -21.5t51.5 21.5t22.5 53.5h49q-1 -54 -36 -88.5t-87 -34.5zM632 0l-83 186h-388l-82 -186h-74l315 699h72l315 -699h-75zM188 248h334l-168 378z" />
    <glyph glyph-name="abreve" unicode="&#x103;" horiz-adv-x="574" 
d="M283 614q-51 0 -86 34.5t-37 88.5h49q2 -32 22.5 -53.5t51.5 -21.5t51.5 21.5t22.5 53.5h49q-1 -54 -36 -88.5t-87 -34.5zM493 0h-66l-1 88q-62 -91 -196 -91q-80 0 -129 44.5t-49 113.5q0 68 52.5 107t144.5 39h176v40q0 62 -37 96t-108 34q-84 0 -169 -63l-30 46
q53 37 101 54.5t110 17.5q95 0 147 -47.5t53 -131.5zM242 53q70 0 118.5 32.5t65.5 91.5v72h-169q-141 0 -141 -92q0 -47 34.5 -75.5t91.5 -28.5z" />
    <glyph glyph-name="Aogonek" unicode="&#x104;" horiz-adv-x="712" 
d="M642 -163q23 0 46 14l18 -45q-36 -21 -77 -21t-65 21.5t-24 60.5q0 71 91 136l-82 183h-388l-82 -186h-74l315 699h72l315 -699q-55 -39 -79.5 -66.5t-24.5 -55.5q0 -41 39 -41zM188 248h334l-168 378z" />
    <glyph glyph-name="aogonek" unicode="&#x105;" horiz-adv-x="574" 
d="M428 -163q23 0 46 14l18 -45q-36 -21 -77 -21t-65 21.5t-24 60.5q0 74 101 143l-1 78q-62 -91 -196 -91q-80 0 -129 44.5t-49 113.5q0 68 52.5 107t144.5 39h176v40q0 62 -37 96t-108 34q-84 0 -169 -63l-30 46q53 37 101 54.5t110 17.5q95 0 147 -47.5t53 -131.5l1 -347
q-55 -39 -79.5 -66.5t-24.5 -55.5q0 -41 39 -41zM242 53q70 0 118.5 32.5t65.5 91.5v72h-169q-141 0 -141 -92q0 -47 34.5 -75.5t91.5 -28.5z" />
    <glyph glyph-name="Cacute" unicode="&#x106;" horiz-adv-x="701" 
d="M489 897l69 -30l-126 -100l-60 7zM618 557q-89 87 -211 87q-123 0 -209 -85.5t-86 -207.5t86 -207.5t209 -85.5q120 0 211 85l42 -45q-52 -48 -119 -76t-137 -28q-151 0 -256.5 104t-105.5 253q0 148 106 251t258 103q70 0 136.5 -26.5t116.5 -73.5z" />
    <glyph glyph-name="cacute" unicode="&#x107;" horiz-adv-x="561" 
d="M366 747l69 -30l-126 -100l-60 7zM463 405q-64 62 -157 62q-86 0 -141 -57.5t-55 -147.5q0 -91 55 -148.5t141 -57.5q104 0 165 70l38 -40q-72 -88 -206 -88q-114 0 -187 74t-73 190t73 190t187 74q124 0 198 -76z" />
    <glyph glyph-name="Ccircumflex" unicode="&#x108;" horiz-adv-x="701" 
d="M416 845l-71 -76h-69l103 125h74l102 -125h-69zM618 143l42 -45q-52 -48 -119 -76t-137 -28q-151 0 -256.5 104t-105.5 253q0 148 106 251t258 103q70 0 136.5 -26.5t116.5 -73.5l-41 -48q-89 87 -211 87q-123 0 -209 -85.5t-86 -207.5t86 -207.5t209 -85.5q120 0 211 85
z" />
    <glyph glyph-name="ccircumflex" unicode="&#x109;" horiz-adv-x="561" 
d="M292 695l-71 -76h-69l103 125h74l102 -125h-69zM471 126l38 -40q-72 -88 -206 -88q-114 0 -187 74t-73 190t73 190t187 74q124 0 198 -76l-38 -45q-64 62 -157 62q-86 0 -141 -57.5t-55 -147.5q0 -91 55 -148.5t141 -57.5q104 0 165 70z" />
    <glyph glyph-name="Cdotaccent" unicode="&#x10a;" horiz-adv-x="701" 
d="M415 862q20 0 33.5 -13.5t13.5 -33.5t-13.5 -34t-33.5 -14q-19 0 -32.5 14t-13.5 34t13 33.5t33 13.5zM618 557q-89 87 -211 87q-123 0 -209 -85.5t-86 -207.5t86 -207.5t209 -85.5q120 0 211 85l42 -45q-52 -48 -119 -76t-137 -28q-151 0 -256.5 104t-105.5 253
q0 148 106 251t258 103q70 0 136.5 -26.5t116.5 -73.5z" />
    <glyph glyph-name="cdotaccent" unicode="&#x10b;" horiz-adv-x="561" 
d="M292 722q20 0 33 -13.5t13 -33.5t-13.5 -34t-32.5 -14q-20 0 -33.5 14t-13.5 34t13.5 33.5t33.5 13.5zM463 405q-64 62 -157 62q-86 0 -141 -57.5t-55 -147.5q0 -91 55 -148.5t141 -57.5q104 0 165 70l38 -40q-72 -88 -206 -88q-114 0 -187 74t-73 190t73 190t187 74
q124 0 198 -76z" />
    <glyph glyph-name="Ccaron" unicode="&#x10c;" horiz-adv-x="701" 
d="M436 769h-74l-102 125h69l70 -76l71 76h69zM618 143l42 -45q-52 -48 -119 -76t-137 -28q-151 0 -256.5 104t-105.5 253q0 148 106 251t258 103q70 0 136.5 -26.5t116.5 -73.5l-41 -48q-89 87 -211 87q-123 0 -209 -85.5t-86 -207.5t86 -207.5t209 -85.5q120 0 211 85z
" />
    <glyph glyph-name="ccaron" unicode="&#x10d;" horiz-adv-x="561" 
d="M328 619h-74l-102 125h69l70 -76l71 76h69zM471 126l38 -40q-72 -88 -206 -88q-114 0 -187 74t-73 190t73 190t187 74q124 0 198 -76l-38 -45q-64 62 -157 62q-86 0 -141 -57.5t-55 -147.5q0 -91 55 -148.5t141 -57.5q104 0 165 70z" />
    <glyph glyph-name="Dcaron" unicode="&#x10e;" horiz-adv-x="793" 
d="M397 768h-74l-102 125h69l70 -76l71 76h69zM391 699q152 0 256 -101t104 -249q0 -147 -104.5 -248t-257.5 -101h-279v699h281zM393 62q120 0 204 83t84 204q0 122 -84.5 205t-206.5 83h-211v-575h214z" />
    <glyph glyph-name="dcaron" unicode="&#x10f;" horiz-adv-x="716" 
d="M508 403v339h67v-742h-67v120q-30 -59 -84 -91.5t-126 -32.5q-112 0 -183 75t-71 192q0 116 71 190.5t182 74.5q72 0 126.5 -33t84.5 -92zM663 742h64l-16 -190h-48v190zM310 54q86 0 142 58t56 149t-56 150t-142 59q-87 0 -142.5 -59t-56.5 -150q1 -91 56.5 -149
t142.5 -58z" />
    <glyph glyph-name="Dcroat" unicode="&#x110;" horiz-adv-x="793" 
d="M391 700q153 0 256.5 -101t103.5 -249t-104 -249t-257 -101h-280v328h-71v44h71v328h281zM393 62q121 0 205 83t84 204q0 122 -85 205t-207 83h-211v-265h241v-44h-241v-266h214z" />
    <glyph glyph-name="dcroat" unicode="&#x111;" horiz-adv-x="677" 
d="M650 648v-44h-75v-604h-67v123q-30 -59 -86 -93t-126 -34q-110 0 -181 73.5t-71 187.5q0 115 70.5 187.5t180.5 72.5q70 0 126 -33.5t87 -92.5v213h-227v44h227v94h67v-94h75zM310 54q86 0 142 57t56 145t-56 145.5t-142 57.5q-87 0 -143 -57t-56 -146q0 -88 56 -145
t143 -57z" />
    <glyph glyph-name="Emacron" unicode="&#x112;" horiz-adv-x="650" 
d="M195 821h312v-46h-312v46zM110 699h468v-62h-399v-250h357v-62h-357v-263h412v-62h-481v699z" />
    <glyph glyph-name="emacron" unicode="&#x113;" horiz-adv-x="589" 
d="M434 697v-46h-276v46h276zM302 526q122 0 186 -77.5t59 -208.5h-437q7 -84 62 -135.5t136 -51.5q103 0 167 69l38 -38q-80 -86 -209 -86q-115 0 -188 74t-73 190t73 190t186 74zM110 292h377q-5 82 -54.5 130.5t-129.5 48.5q-79 0 -132 -49t-61 -130z" />
    <glyph glyph-name="Ebreve" unicode="&#x114;" horiz-adv-x="650" 
d="M277 890q2 -32 22.5 -53.5t51.5 -21.5t51.5 21.5t22.5 53.5h49q-1 -54 -36 -88.5t-87 -34.5q-51 0 -86 34.5t-37 88.5h49zM110 699h468v-62h-399v-250h357v-62h-357v-263h412v-62h-481v699z" />
    <glyph glyph-name="ebreve" unicode="&#x115;" horiz-adv-x="589" 
d="M297 614q-51 0 -86 34.5t-37 88.5h49q2 -32 22.5 -53.5t51.5 -21.5t51.5 21.5t22.5 53.5h49q-1 -54 -36 -88.5t-87 -34.5zM302 526q122 0 186 -77.5t59 -208.5h-437q7 -84 62 -135.5t136 -51.5q103 0 167 69l38 -38q-80 -86 -209 -86q-115 0 -188 74t-73 190t73 190
t186 74zM110 292h377q-5 82 -54.5 130.5t-129.5 48.5q-79 0 -132 -49t-61 -130z" />
    <glyph glyph-name="Edotaccent" unicode="&#x116;" horiz-adv-x="650" 
d="M351 862q20 0 33.5 -13.5t13.5 -33.5t-13.5 -34t-33.5 -14q-19 0 -32.5 14t-13.5 34t13 33.5t33 13.5zM110 699h468v-62h-399v-250h357v-62h-357v-263h412v-62h-481v699z" />
    <glyph glyph-name="edotaccent" unicode="&#x117;" horiz-adv-x="589" 
d="M297 627q-20 0 -33.5 14t-13.5 34t13.5 33.5t33.5 13.5t33 -13.5t13 -33.5t-13.5 -34t-32.5 -14zM302 526q122 0 186 -77.5t59 -208.5h-437q7 -84 62 -135.5t136 -51.5q103 0 167 69l38 -38q-80 -86 -209 -86q-115 0 -188 74t-73 190t73 190t186 74zM110 292h377
q-5 82 -54.5 130.5t-129.5 48.5q-79 0 -132 -49t-61 -130z" />
    <glyph glyph-name="Eogonek" unicode="&#x118;" horiz-adv-x="650" 
d="M527 -163q23 0 46 14l18 -45q-36 -21 -77 -21t-65 21.5t-24 60.5q0 69 87 133h-402v699h468v-62h-399v-250h357v-62h-357v-263h412v-61l1 -1q-55 -39 -79.5 -66.5t-24.5 -55.5q0 -41 39 -41z" />
    <glyph glyph-name="eogonek" unicode="&#x119;" horiz-adv-x="589" 
d="M302 526q122 0 186 -77.5t59 -208.5h-437q7 -84 62 -135.5t136 -51.5q103 0 167 69l38 -38q-19 -21 -42 -36q-50 -42 -80.5 -88t-30.5 -80q0 -43 39 -43q24 0 46 14l18 -45q-38 -21 -77 -21q-41 0 -65 24t-24 65q0 59 65 129q-32 -5 -58 -5q-115 0 -188 74t-73 190
t73 190t186 74zM110 292h377q-5 82 -54.5 130.5t-129.5 48.5q-79 0 -132 -49t-61 -130z" />
    <glyph glyph-name="Ecaron" unicode="&#x11a;" horiz-adv-x="650" 
d="M372 769h-74l-102 125h69l70 -76l71 76h69zM179 62h412v-62h-481v699h468v-62h-399v-250h357v-62h-357v-263z" />
    <glyph glyph-name="ecaron" unicode="&#x11b;" horiz-adv-x="589" 
d="M333 619h-74l-102 125h69l70 -76l71 76h69zM302 526q122 0 186 -77.5t59 -208.5h-437q7 -84 62 -135.5t136 -51.5q103 0 167 69l38 -38q-80 -86 -209 -86q-115 0 -188 74t-73 190t73 190t186 74zM110 292h377q-5 82 -54.5 130.5t-129.5 48.5q-79 0 -132 -49t-61 -130z
" />
    <glyph glyph-name="Gcircumflex" unicode="&#x11c;" horiz-adv-x="755" 
d="M385 845l-71 -76h-69l103 125h74l102 -125h-69zM601 119v223h61v-256q-51 -43 -118.5 -67.5t-137.5 -24.5q-151 0 -257.5 104t-106.5 253q0 148 107 251t260 103q147 0 255 -95l-40 -49q-89 83 -215 83q-124 0 -210.5 -85.5t-86.5 -207.5q0 -123 87 -209t211 -86
q102 0 191 63z" />
    <glyph glyph-name="gcircumflex" unicode="&#x11d;" horiz-adv-x="635" 
d="M302 695l-71 -76h-69l103 125h74l102 -125h-69zM484 524h67v-469q0 -115 -71 -183t-190 -68q-116 0 -215 80l32 48q80 -71 180 -71q90 0 143.5 52.5t53.5 140.5v85q-28 -55 -80 -86t-120 -31q-106 0 -173 71t-67 182q0 110 66.5 180.5t171.5 70.5q69 1 121 -30t81 -87
v115zM296 76q82 0 135 55.5t53 141.5q0 87 -53 142.5t-135 55.5t-135 -56t-54 -142q1 -86 53.5 -141.5t135.5 -55.5z" />
    <glyph glyph-name="Gbreve" unicode="&#x11e;" horiz-adv-x="755" 
d="M384 767q-51 0 -86 34.5t-37 88.5h49q2 -32 22.5 -53.5t51.5 -21.5t51.5 21.5t22.5 53.5h49q-1 -54 -36 -88.5t-87 -34.5zM601 119v223h61v-256q-51 -43 -118.5 -67.5t-137.5 -24.5q-151 0 -257.5 104t-106.5 253q0 148 107 251t260 103q147 0 255 -95l-40 -49
q-89 83 -215 83q-124 0 -210.5 -85.5t-86.5 -207.5q0 -123 87 -209t211 -86q102 0 191 63z" />
    <glyph glyph-name="gbreve" unicode="&#x11f;" horiz-adv-x="635" 
d="M302 614q-51 0 -86 34.5t-37 88.5h49q2 -32 22.5 -53.5t51.5 -21.5t51.5 21.5t22.5 53.5h49q-1 -54 -36 -88.5t-87 -34.5zM484 524h67v-469q0 -115 -71 -183t-190 -68q-116 0 -215 80l32 48q80 -71 180 -71q90 0 143.5 52.5t53.5 140.5v85q-28 -55 -80 -86t-120 -31
q-106 0 -173 71t-67 182q0 110 66.5 180.5t171.5 70.5q69 1 121 -30t81 -87v115zM296 76q82 0 135 55.5t53 141.5q0 87 -53 142.5t-135 55.5t-135 -56t-54 -142q1 -86 53.5 -141.5t135.5 -55.5z" />
    <glyph glyph-name="Gdotaccent" unicode="&#x120;" horiz-adv-x="755" 
d="M384 767q-19 0 -32.5 14t-13.5 34t13 33.5t33 13.5t33.5 -13.5t13.5 -33.5t-13.5 -34t-33.5 -14zM601 119v223h61v-256q-51 -43 -118.5 -67.5t-137.5 -24.5q-151 0 -257.5 104t-106.5 253q0 148 107 251t260 103q147 0 255 -95l-40 -49q-89 83 -215 83
q-124 0 -210.5 -85.5t-86.5 -207.5q0 -123 87 -209t211 -86q102 0 191 63z" />
    <glyph glyph-name="gdotaccent" unicode="&#x121;" horiz-adv-x="635" 
d="M302 627q-20 0 -33.5 14t-13.5 34t13.5 33.5t33.5 13.5t33 -13.5t13 -33.5t-13.5 -34t-32.5 -14zM484 524h67v-469q0 -115 -71 -183t-190 -68q-116 0 -215 80l32 48q80 -71 180 -71q90 0 143.5 52.5t53.5 140.5v85q-28 -55 -80 -86t-120 -31q-106 0 -173 71t-67 182
q0 110 66.5 180.5t171.5 70.5q69 1 121 -30t81 -87v115zM296 76q82 0 135 55.5t53 141.5q0 87 -53 142.5t-135 55.5t-135 -56t-54 -142q1 -86 53.5 -141.5t135.5 -55.5z" />
    <glyph glyph-name="Gcommaaccent" unicode="&#x122;" horiz-adv-x="755" 
d="M601 119v223h61v-256q-51 -43 -118.5 -67.5t-137.5 -24.5q-151 0 -257.5 104t-106.5 253q0 148 107 251t260 103q147 0 255 -95l-40 -49q-89 83 -215 83q-124 0 -210.5 -85.5t-86.5 -207.5q0 -123 87 -209t211 -86q102 0 191 63zM316 -217l37 156h64l-51 -156h-50z" />
    <glyph glyph-name="gcommaaccent" unicode="&#x123;" horiz-adv-x="635" 
d="M367 770l-37 -156h-64l51 156h50zM484 524h67v-469q0 -115 -71 -183t-190 -68q-116 0 -215 80l32 48q80 -71 180 -71q90 0 143.5 52.5t53.5 140.5v85q-28 -55 -80 -86t-120 -31q-106 0 -173 71t-67 182q0 110 66.5 180.5t171.5 70.5q69 1 121 -30t81 -87v115zM296 76
q82 0 135 55.5t53 141.5q0 87 -53 142.5t-135 55.5t-135 -56t-54 -142q1 -86 53.5 -141.5t135.5 -55.5z" />
    <glyph glyph-name="Hcircumflex" unicode="&#x124;" horiz-adv-x="795" 
d="M401 844l-71 -76h-69l103 125h74l102 -125h-69zM616 699h69v-699h-69v317h-437v-317h-69v699h69v-320h437v320z" />
    <glyph glyph-name="hcircumflex" unicode="&#x125;" horiz-adv-x="660" 
d="M206 837l-70 76l-71 -76h-69l103 125h74l102 -125h-69zM378 526q94 0 147.5 -54.5t53.5 -149.5v-322h-68v306q0 74 -41 116t-114 42q-87 -1 -136.5 -57.5t-49.5 -149.5v-257h-67v742h67v-342q53 124 208 126z" />
    <glyph glyph-name="Hbar" unicode="&#x126;" horiz-adv-x="795" 
d="M765 569v-44h-80v-525h-69v317h-437v-317h-69v525h-78v44h78v131h69v-131h437v131h69v-131h80zM616 379v146h-437v-146h437z" />
    <glyph glyph-name="hbar" unicode="&#x127;" horiz-adv-x="660" 
d="M378 516q94 0 147.5 -54.5t53.5 -149.5v-312h-68v296q0 74 -41 116t-114 42q-87 0 -136.5 -56.5t-49.5 -150.5v-247h-67v604h-75v44h75v94h67v-94h227v-44h-227v-214q53 126 208 126z" />
    <glyph glyph-name="Itilde" unicode="&#x128;" horiz-adv-x="289" 
d="M291 874q0 -47 -19.5 -77t-58.5 -30q-30 0 -71 28.5t-58 28.5q-38 0 -38 -53h-49q0 47 19.5 77t58.5 30q30 0 71 -29t58 -29q38 0 38 54h49zM110 699h69v-699h-69v699z" />
    <glyph glyph-name="itilde" unicode="&#x129;" horiz-adv-x="262" 
d="M259 722q0 -48 -17 -77.5t-51 -29.5q-26 0 -60 28t-47 28q-31 0 -31 -52h-48q0 48 17 77.5t51 29.5q25 0 59 -27t47 -27q32 0 32 50h48zM98 524h67v-524h-67v524z" />
    <glyph glyph-name="Imacron" unicode="&#x12a;" horiz-adv-x="289" 
d="M5 819h276v-46h-276v46zM110 699h69v-699h-69v699z" />
    <glyph glyph-name="imacron" unicode="&#x12b;" horiz-adv-x="262" 
d="M12 697h236v-46h-236v46zM98 524h67v-524h-67v524z" />
    <glyph glyph-name="Ibreve" unicode="&#x12c;" horiz-adv-x="289" 
d="M70 889q2 -32 22.5 -53.5t51.5 -21.5t51.5 21.5t22.5 53.5h49q-1 -54 -36 -88.5t-87 -34.5q-51 0 -86 34.5t-37 88.5h49zM110 699h69v-699h-69v699z" />
    <glyph glyph-name="ibreve" unicode="&#x12d;" horiz-adv-x="262" 
d="M57 737q2 -32 22.5 -53.5t51.5 -21.5t51.5 21.5t22.5 53.5h49q-1 -54 -36 -88.5t-87 -34.5q-51 0 -86 34.5t-37 88.5h49zM98 524h67v-524h-67v524z" />
    <glyph glyph-name="Iogonek" unicode="&#x12e;" horiz-adv-x="289" 
d="M179 0q-55 -39 -79.5 -66.5t-24.5 -55.5q0 -41 39 -41q23 0 46 14l18 -45q-36 -21 -77 -21t-65 21.5t-24 60.5q0 73 98 141v691h69v-699z" />
    <glyph glyph-name="iogonek" unicode="&#x12f;" horiz-adv-x="262" 
d="M131 627q-20 0 -33.5 14t-13.5 34t13.5 33.5t33.5 13.5t33 -13.5t13 -33.5t-13.5 -34t-32.5 -14zM98 9v515h67v-524q-55 -39 -79.5 -66.5t-24.5 -55.5q0 -41 39 -41q23 0 46 14l18 -45q-36 -21 -77 -21t-65 21.5t-24 60.5q0 75 100 142z" />
    <glyph glyph-name="Idotaccent" unicode="&#x130;" horiz-adv-x="289" 
d="M144 861q20 0 33.5 -13.5t13.5 -33.5t-13.5 -34t-33.5 -14q-19 0 -32.5 14t-13.5 34t13 33.5t33 13.5zM110 699h69v-699h-69v699z" />
    <glyph glyph-name="dotlessi" unicode="&#x131;" horiz-adv-x="262" 
d="M98 524h67v-524h-67v524z" />
    <glyph glyph-name="IJ" unicode="&#x132;" horiz-adv-x="785" 
d="M675 206q0 -100 -51.5 -154.5t-143.5 -54.5q-115 0 -190 99l35 52q66 -84 154 -84q61 0 93.5 37t32.5 107v429h-252v63h322v-494zM110 699h69v-699h-69v699z" />
    <glyph glyph-name="ij" unicode="&#x133;" horiz-adv-x="521" 
d="M131 722q20 0 33 -13.5t13 -33.5t-13.5 -34t-32.5 -14q-20 0 -33.5 14t-13.5 34t13.5 33.5t33.5 13.5zM391 722q20 0 33 -13.5t13 -33.5t-13.5 -34t-32.5 -14q-20 0 -33.5 14t-13.5 34t13.5 33.5t33.5 13.5zM98 524h67v-524h-67v524zM221 -128q27 -10 52 -11
q41 -1 62.5 29.5t21.5 89.5v544h67v-552q0 -82 -36 -125.5t-103 -42.5q-43 1 -80 17z" />
    <glyph glyph-name="Jcircumflex" unicode="&#x134;" horiz-adv-x="479" 
d="M222 845l-71 -76h-69l103 125h74l102 -125h-69zM64 700h322v-494q0 -100 -51.5 -154.5t-143.5 -54.5q-115 0 -190 99l35 52q66 -84 154 -84q61 0 93.5 37t32.5 107v429h-252v63z" />
    <glyph glyph-name="jcircumflex" unicode="&#x135;" horiz-adv-x="247" 
d="M165 744l102 -125h-69l-70 76l-71 -76h-69l103 125h74zM95 -20v544h67v-552q0 -82 -36 -125.5t-103 -42.5q-43 1 -80 17l16 51q27 -10 52 -11q41 -1 62.5 29.5t21.5 89.5z" />
    <glyph glyph-name="Kcommaaccent" unicode="&#x136;" horiz-adv-x="694" 
d="M370 394l301 -394h-85l-265 340l-142 -154v-186h-69v700h69v-426l388 426h84zM276 -217l37 156h64l-51 -156h-50z" />
    <glyph glyph-name="kcommaaccent" unicode="&#x137;" horiz-adv-x="567" 
d="M335 321l220 -321h-81l-186 273l-118 -121v-152h-67v742h67v-504l282 286h80zM246 -217l37 156h64l-51 -156h-50z" />
    <glyph glyph-name="kgreenlandic" unicode="&#x138;" horiz-adv-x="563" 
d="M471 0l-186 274l-120 -123v-151h-67v524h67v-287l283 287h80l-197 -203l220 -321h-80z" />
    <glyph glyph-name="Lacute" unicode="&#x139;" horiz-adv-x="513" 
d="M225 896l69 -30l-126 -100l-60 7zM110 699h69v-637h308v-62h-377v699z" />
    <glyph glyph-name="lacute" unicode="&#x13a;" horiz-adv-x="273" 
d="M211 965l69 -30l-126 -100l-60 7zM103 742h67v-742h-67v742z" />
    <glyph glyph-name="Lcommaaccent" unicode="&#x13b;" horiz-adv-x="513" 
d="M110 699h69v-637h308v-62h-377v699zM268 -61h64l-51 -156h-50z" />
    <glyph glyph-name="lcommaaccent" unicode="&#x13c;" horiz-adv-x="273" 
d="M103 742h67v-742h-67v742zM106 -61h64l-51 -156h-50z" />
    <glyph glyph-name="Lcaron" unicode="&#x13d;" horiz-adv-x="513" 
d="M423 700h64l-16 -190h-48v190zM110 699h69v-637h308v-62h-377v699z" />
    <glyph glyph-name="lcaron" unicode="&#x13e;" horiz-adv-x="273" 
d="M103 742h67v-742h-67v742zM258 742h64l-16 -190h-48v190z" />
    <glyph glyph-name="Ldot" unicode="&#x13f;" horiz-adv-x="513" 
d="M110 699h69v-637h308v-62h-377v699zM399 442q20 0 33 -13.5t13 -33.5t-13.5 -34t-32.5 -14q-20 0 -33.5 14t-13.5 34t13.5 33.5t33.5 13.5z" />
    <glyph glyph-name="ldot" unicode="&#x140;" horiz-adv-x="353" 
d="M103 742h67v-742h-67v742zM303 445q20 0 33 -13.5t13 -33.5t-13.5 -34t-32.5 -14q-20 0 -33.5 14t-13.5 34t13.5 33.5t33.5 13.5z" />
    <glyph glyph-name="Lslash" unicode="&#x141;" horiz-adv-x="535" 
d="M201 62h308v-62h-377v338l-105 -57v46l105 57v316h69v-279l124 67v-46l-124 -67v-313z" />
    <glyph glyph-name="lslash" unicode="&#x142;" horiz-adv-x="361" 
d="M339 486v-51l-115 -62v-373h-67v337l-116 -63v51l116 63v354h67v-318z" />
    <glyph glyph-name="Nacute" unicode="&#x143;" horiz-adv-x="796" 
d="M554 867l-126 -100l-60 7l117 123zM617 699h68v-699h-73l-433 592v-592h-69v699h73l434 -592v592z" />
    <glyph glyph-name="nacute" unicode="&#x144;" horiz-adv-x="654" 
d="M487 717l-126 -100l-60 7l117 123zM372 526q94 0 147.5 -54.5t53.5 -149.5v-322h-68v306q0 74 -41 116t-114 42q-81 -1 -129.5 -50t-55.5 -132v-282h-67v524h67v-122q54 122 207 124z" />
    <glyph glyph-name="Ncommaaccent" unicode="&#x145;" horiz-adv-x="796" 
d="M617 699h68v-699h-73l-433 592v-592h-69v699h73l434 -592v592zM328 -217l37 156h64l-51 -156h-50z" />
    <glyph glyph-name="ncommaaccent" unicode="&#x146;" horiz-adv-x="654" 
d="M372 526q94 0 147.5 -54.5t53.5 -149.5v-322h-68v306q0 74 -41 116t-114 42q-81 -1 -129.5 -50t-55.5 -132v-282h-67v524h67v-122q54 122 207 124zM263 -217l37 156h64l-51 -156h-50z" />
    <glyph glyph-name="Ncaron" unicode="&#x147;" horiz-adv-x="796" 
d="M432 769h-74l-102 125h69l70 -76l71 76h69zM617 699h68v-699h-73l-433 592v-592h-69v699h73l434 -592v592z" />
    <glyph glyph-name="ncaron" unicode="&#x148;" horiz-adv-x="654" 
d="M380 619h-74l-102 125h69l70 -76l71 76h69zM372 526q94 0 147.5 -54.5t53.5 -149.5v-322h-68v306q0 74 -41 116t-114 42q-81 -1 -129.5 -50t-55.5 -132v-282h-67v524h67v-122q54 122 207 124z" />
    <glyph glyph-name="napostrophe" unicode="&#x149;" horiz-adv-x="733" 
d="M33 440l2 260h54l-11 -260h-45zM451 526q94 0 147.5 -54.5t53.5 -149.5v-322h-68v306q0 74 -41 116t-114 42q-81 -1 -129.5 -50t-55.5 -132v-282h-67v524h67v-122q54 122 207 124z" />
    <glyph glyph-name="Eng" unicode="&#x14a;" horiz-adv-x="796" 
d="M617 699h68v-699q0 -93 -52 -146.5t-143 -53.5q-112 0 -185 89l35 52q65 -74 149 -74q58 0 91 34t36 99h-4l-433 592v-592h-69v699h73l434 -592v592z" />
    <glyph glyph-name="eng" unicode="&#x14b;" horiz-adv-x="654" 
d="M372 526q94 0 147.5 -54.5t53.5 -149.5v-345q0 -85 -40.5 -129.5t-104.5 -43.5q-59 0 -106 36l25 52q36 -28 79 -28q38 -1 58.5 25.5t20.5 80.5v336q0 74 -41 116t-114 42q-81 -1 -129.5 -50t-55.5 -132v-282h-67v524h67v-122q54 122 207 124z" />
    <glyph glyph-name="Omacron" unicode="&#x14c;" horiz-adv-x="814" 
d="M251 821h312v-46h-312v46zM407 705q152 0 258.5 -103t106.5 -251q0 -149 -106.5 -253t-258.5 -104t-258.5 104t-106.5 253q0 148 106.5 251t258.5 103zM408 643q-122 0 -209 -85.5t-87 -206.5q0 -122 87 -208.5t209 -86.5q121 0 207.5 86.5t86.5 208.5q0 121 -86.5 206.5
t-207.5 85.5z" />
    <glyph glyph-name="omacron" unicode="&#x14d;" horiz-adv-x="616" 
d="M169 697h276v-46h-276v46zM308 526q116 0 190 -73.5t74 -189.5q0 -117 -74 -191t-190 -74t-190 74t-74 191q0 116 74 189.5t190 73.5zM308 468q-86 0 -141.5 -57.5t-55.5 -148.5q0 -92 55 -149.5t142 -57.5t142 57.5t55 149.5q0 91 -55.5 148.5t-141.5 57.5z" />
    <glyph glyph-name="Obreve" unicode="&#x14e;" horiz-adv-x="814" 
d="M333 890q2 -32 22.5 -53.5t51.5 -21.5t51.5 21.5t22.5 53.5h49q-1 -54 -36 -88.5t-87 -34.5q-51 0 -86 34.5t-37 88.5h49zM407 705q152 0 258.5 -103t106.5 -251q0 -149 -106.5 -253t-258.5 -104t-258.5 104t-106.5 253q0 148 106.5 251t258.5 103zM408 643
q-122 0 -209 -85.5t-87 -206.5q0 -122 87 -208.5t209 -86.5q121 0 207.5 86.5t86.5 208.5q0 121 -86.5 206.5t-207.5 85.5z" />
    <glyph glyph-name="obreve" unicode="&#x14f;" horiz-adv-x="616" 
d="M234 737q2 -32 22.5 -53.5t51.5 -21.5t51.5 21.5t22.5 53.5h49q-1 -54 -36 -88.5t-87 -34.5q-51 0 -86 34.5t-37 88.5h49zM308 526q116 0 190 -73.5t74 -189.5q0 -117 -74 -191t-190 -74t-190 74t-74 191q0 116 74 189.5t190 73.5zM308 468q-86 0 -141.5 -57.5
t-55.5 -148.5q0 -92 55 -149.5t142 -57.5t142 57.5t55 149.5q0 91 -55.5 148.5t-141.5 57.5z" />
    <glyph glyph-name="Ohungarumlaut" unicode="&#x150;" horiz-adv-x="814" 
d="M380 901l58 -28l-93 -106l-53 7zM522 901l58 -28l-93 -106l-53 7zM407 705q152 0 258.5 -103t106.5 -251q0 -149 -106.5 -253t-258.5 -104t-258.5 104t-106.5 253q0 148 106.5 251t258.5 103zM408 643q-122 0 -209 -85.5t-87 -206.5q0 -122 87 -208.5t209 -86.5
q121 0 207.5 86.5t86.5 208.5q0 121 -86.5 206.5t-207.5 85.5z" />
    <glyph glyph-name="ohungarumlaut" unicode="&#x151;" horiz-adv-x="616" 
d="M281 751l58 -28l-93 -106l-53 7zM423 751l58 -28l-93 -106l-53 7zM308 526q116 0 190 -73.5t74 -189.5q0 -117 -74 -191t-190 -74t-190 74t-74 191q0 116 74 189.5t190 73.5zM308 468q-86 0 -141.5 -57.5t-55.5 -148.5q0 -92 55 -149.5t142 -57.5t142 57.5t55 149.5
q0 91 -55.5 148.5t-141.5 57.5z" />
    <glyph glyph-name="OE" unicode="&#x152;" horiz-adv-x="1093" 
d="M622 62h413v-62h-628q-152 0 -258.5 102t-106.5 248t106.5 248t258.5 102h615v-63h-400v-250h357v-62h-357v-263zM407 61l146 -1v578h-146q-123 0 -209 -84t-86 -205t86 -204.5t209 -83.5z" />
    <glyph glyph-name="oe" unicode="&#x153;" horiz-adv-x="1058" 
d="M764 526q116 0 185.5 -76.5t67.5 -199.5h-448q5 -89 60.5 -143t140.5 -54q103 0 167 69l38 -38q-80 -86 -210 -86q-79 0 -139 38.5t-89 106.5q-29 -67 -89.5 -106t-139.5 -39q-116 0 -190.5 74t-74.5 191q0 116 74.5 189.5t190.5 73.5q80 0 140 -38.5t90 -105.5
q29 67 88.5 105.5t137.5 38.5zM570 291h380q-5 82 -55.5 133t-130.5 51t-133 -51t-61 -133zM308 55q86 0 141 57.5t55 149.5q0 91 -55 148.5t-141 57.5q-87 0 -142 -57.5t-55 -148.5q0 -92 55 -149.5t142 -57.5z" />
    <glyph glyph-name="Racute" unicode="&#x154;" horiz-adv-x="723" 
d="M486 867l-126 -100l-60 7l117 123zM651 0h-80l-151 228q-32 -2 -49 -2h-192v-226h-69v699h261q131 0 202.5 -60.5t71.5 -171.5q0 -87 -42 -145t-120 -81zM179 288h192q100 0 154 45.5t54 131.5q0 84 -54 128t-154 44h-192v-349z" />
    <glyph glyph-name="racute" unicode="&#x155;" horiz-adv-x="366" 
d="M371 717l-126 -100l-60 7l117 123zM165 402q52 122 191 124v-63q-83 1 -133.5 -48.5t-57.5 -134.5v-280h-67v524h67v-122z" />
    <glyph glyph-name="Rcommaaccent" unicode="&#x156;" horiz-adv-x="723" 
d="M651 0h-80l-151 228q-32 -2 -49 -2h-192v-226h-69v699h261q131 0 202.5 -60.5t71.5 -171.5q0 -87 -42 -145t-120 -81zM179 288h192q100 0 154 45.5t54 131.5q0 84 -54 128t-154 44h-192v-349zM293 -217l37 156h64l-51 -156h-50z" />
    <glyph glyph-name="rcommaaccent" unicode="&#x157;" horiz-adv-x="366" 
d="M165 402q52 122 191 124v-63q-83 1 -133.5 -48.5t-57.5 -134.5v-280h-67v524h67v-122zM62 -217l37 156h64l-51 -156h-50z" />
    <glyph glyph-name="Rcaron" unicode="&#x158;" horiz-adv-x="723" 
d="M364 769h-74l-102 125h69l70 -76l71 76h69zM651 0h-80l-151 228q-32 -2 -49 -2h-192v-226h-69v699h261q131 0 202.5 -60.5t71.5 -171.5q0 -87 -42 -145t-120 -81zM179 288h192q100 0 154 45.5t54 131.5q0 84 -54 128t-154 44h-192v-349z" />
    <glyph glyph-name="rcaron" unicode="&#x159;" horiz-adv-x="366" 
d="M264 619h-74l-102 125h69l70 -76l71 76h69zM165 402q52 122 191 124v-63q-83 1 -133.5 -48.5t-57.5 -134.5v-280h-67v524h67v-122z" />
    <glyph glyph-name="Sacute" unicode="&#x15a;" horiz-adv-x="608" 
d="M377 897l69 -30l-126 -100l-60 7zM498 585q-88 56 -190 56q-72 0 -115.5 -28.5t-43.5 -77.5q0 -40 22 -67.5t57 -43.5t77.5 -28.5t85 -28t78 -36.5t57 -58.5t21.5 -89.5q0 -85 -69.5 -136.5t-181.5 -51.5q-73 0 -142.5 29t-119.5 77l32 57q47 -46 109 -72t122 -26
q80 0 127 32.5t47 87.5q0 41 -21.5 69t-57 44t-78 28.5t-85 27.5t-77.5 35.5t-57 57.5t-22 88q0 80 65.5 128t173.5 48q120 0 216 -62z" />
    <glyph glyph-name="sacute" unicode="&#x15b;" horiz-adv-x="449" 
d="M301 747l69 -30l-126 -100l-60 7zM369 431q-64 40 -140 40q-50 0 -80.5 -19.5t-30.5 -58.5q0 -29 22 -49t55 -30t71.5 -23t71.5 -27.5t54.5 -45.5t21.5 -75q0 -71 -54.5 -108t-134.5 -37q-123 0 -199 73l27 48q72 -67 175 -67q52 0 85.5 21.5t34.5 62.5q1 31 -20.5 52.5
t-54.5 32l-71.5 23.5t-71.5 27t-55 44t-22 73q0 69 51.5 104t128.5 35q90 0 162 -45z" />
    <glyph glyph-name="Scircumflex" unicode="&#x15c;" horiz-adv-x="608" 
d="M304 845l-71 -76h-69l103 125h74l102 -125h-69zM149 535q0 -40 22 -67.5t57 -43.5t77.5 -28.5t85 -28t78 -36.5t57 -58.5t21.5 -89.5q0 -85 -69.5 -136.5t-181.5 -51.5q-73 0 -142.5 29t-119.5 77l32 57q47 -46 109 -72t122 -26q80 0 127 32.5t47 87.5q0 41 -21.5 69
t-57 44t-78 28.5t-85 27.5t-77.5 35.5t-57 57.5t-22 88q0 80 65.5 128t173.5 48q120 0 216 -62l-30 -59q-88 56 -190 56q-72 0 -115.5 -28.5t-43.5 -77.5z" />
    <glyph glyph-name="scircumflex" unicode="&#x15d;" horiz-adv-x="449" 
d="M227 695l-71 -76h-69l103 125h74l102 -125h-69zM118 393q0 -29 22 -49t55 -30t71.5 -23t71.5 -27.5t54.5 -45.5t21.5 -75q0 -71 -54.5 -108t-134.5 -37q-123 0 -199 73l27 48q72 -67 175 -67q52 0 85.5 21.5t34.5 62.5q1 31 -20.5 52.5t-54.5 32l-71.5 23.5t-71.5 27
t-55 44t-22 73q0 69 51.5 104t128.5 35q90 0 162 -45l-26 -51q-64 40 -140 40q-50 0 -80.5 -19.5t-30.5 -58.5z" />
    <glyph glyph-name="Scedilla" unicode="&#x15e;" horiz-adv-x="608" 
d="M149 535q0 -40 22 -67.5t57 -43.5t77.5 -28.5t85 -28t78 -36.5t57 -58.5t21.5 -89.5q0 -76 -56 -125.5t-151 -60.5l-16 -50q40 -4 60.5 -26t20.5 -51q0 -38 -28.5 -62t-74.5 -24t-85 22l16 43q30 -16 62 -16q26 0 40.5 13t14.5 30q0 16 -14.5 27.5t-39.5 11.5h-30l24 80
q-72 1 -139.5 30t-116.5 76l32 57q47 -46 109 -72t122 -26q80 0 127 32.5t47 87.5q0 41 -21.5 69t-57 44t-78 28.5t-85 27.5t-77.5 35.5t-57 57.5t-22 88q0 80 65.5 128t173.5 48q120 0 216 -62l-30 -59q-88 56 -190 56q-72 0 -115.5 -28.5t-43.5 -77.5z" />
    <glyph glyph-name="scedilla" unicode="&#x15f;" horiz-adv-x="449" 
d="M118 393q0 -29 22 -49t55 -30t71.5 -23t71.5 -27.5t54.5 -45.5t21.5 -75q0 -65 -45.5 -101.5t-116.5 -42.5l-17 -52q40 -4 60.5 -26t20.5 -51q0 -38 -28.5 -62t-74.5 -24t-85 22l16 43q30 -16 62 -16q26 0 40.5 13t14.5 30q0 16 -14.5 27.5t-39.5 11.5h-30l25 84
q-107 6 -176 72l27 48q72 -67 175 -67q52 0 85.5 21.5t34.5 62.5q1 31 -20.5 52.5t-54.5 32l-71.5 23.5t-71.5 27t-55 44t-22 73q0 69 51.5 104t128.5 35q90 0 162 -45l-26 -51q-64 40 -140 40q-50 0 -80.5 -19.5t-30.5 -58.5z" />
    <glyph glyph-name="Scaron" unicode="&#x160;" horiz-adv-x="608" 
d="M324 769h-74l-102 125h69l70 -76l71 76h69zM149 535q0 -40 22 -67.5t57 -43.5t77.5 -28.5t85 -28t78 -36.5t57 -58.5t21.5 -89.5q0 -85 -69.5 -136.5t-181.5 -51.5q-73 0 -142.5 29t-119.5 77l32 57q47 -46 109 -72t122 -26q80 0 127 32.5t47 87.5q0 41 -21.5 69t-57 44
t-78 28.5t-85 27.5t-77.5 35.5t-57 57.5t-22 88q0 80 65.5 128t173.5 48q120 0 216 -62l-30 -59q-88 56 -190 56q-72 0 -115.5 -28.5t-43.5 -77.5z" />
    <glyph glyph-name="scaron" unicode="&#x161;" horiz-adv-x="449" 
d="M263 619h-74l-102 125h69l70 -76l71 76h69zM118 393q0 -29 22 -49t55 -30t71.5 -23t71.5 -27.5t54.5 -45.5t21.5 -75q0 -71 -54.5 -108t-134.5 -37q-123 0 -199 73l27 48q72 -67 175 -67q52 0 85.5 21.5t34.5 62.5q1 31 -20.5 52.5t-54.5 32l-71.5 23.5t-71.5 27t-55 44
t-22 73q0 69 51.5 104t128.5 35q90 0 162 -45l-26 -51q-64 40 -140 40q-50 0 -80.5 -19.5t-30.5 -58.5z" />
    <glyph glyph-name="uni0162" unicode="&#x162;" horiz-adv-x="553" 
d="M311 0h-1l-17 -53q40 -4 60.5 -26t20.5 -51q0 -38 -28.5 -62t-74.5 -24t-85 22l16 43q30 -16 62 -16q26 0 40.5 13t14.5 30q0 16 -14.5 27.5t-39.5 11.5h-30l26 85h-19v637h-231v63h531v-63h-231v-637z" />
    <glyph glyph-name="uni0163" unicode="&#x163;" horiz-adv-x="385" 
d="M258 -53q40 -4 60.5 -26t20.5 -51q0 -38 -28.5 -62t-74.5 -24t-85 22l16 43q30 -16 62 -16q26 0 40.5 13t14.5 30q0 16 -14.5 27.5t-39.5 11.5h-30l25 83q-51 6 -80 43t-29 104v312h-75l-1 52h76v135h67v-135l170 1v-53h-170v-301q0 -50 18.5 -74t55.5 -23q40 0 85 28
l20 -51q-40 -28 -87 -36z" />
    <glyph glyph-name="Tcaron" unicode="&#x164;" horiz-adv-x="553" 
d="M301 769h-74l-102 125h69l70 -76l71 76h69zM11 700h531v-63h-231v-637h-69v637h-231v63z" />
    <glyph glyph-name="tcaron" unicode="&#x165;" horiz-adv-x="385" 
d="M326 742l-17 -162h-47v162h64zM342 87l20 -51q-54 -37 -116 -39q-60 0 -95 37t-35 111v312h-75l-1 52h76v135h67v-135l170 1v-53h-170v-301q0 -50 18.5 -74t55.5 -23q40 0 85 28z" />
    <glyph glyph-name="Tbar" unicode="&#x166;" horiz-adv-x="553" 
d="M542 637h-231v-275h158v-44h-158v-318h-69v318h-159v44h159v275h-231v63h531v-63z" />
    <glyph glyph-name="tbar" unicode="&#x167;" horiz-adv-x="385" 
d="M342 87l20 -51q-54 -37 -116 -39q-60 0 -95 37t-35 111v127h-76v53h76v132h-75v53h75v134h67v-134h170v-53h-170v-132h169v-53h-169v-116q0 -50 18.5 -74t55.5 -23q40 0 85 28z" />
    <glyph glyph-name="Utilde" unicode="&#x168;" horiz-adv-x="767" 
d="M531 875q0 -47 -19.5 -77t-58.5 -30q-30 0 -71 28.5t-58 28.5q-38 0 -38 -53h-49q0 47 19.5 77t58.5 30q30 0 71 -29t58 -29q38 0 38 54h49zM163 284q0 -108 58.5 -168t162.5 -60t162 60t58 168v416h69v-416q0 -136 -76.5 -213t-212.5 -77t-213 77t-77 213v416h69v-416z
" />
    <glyph glyph-name="utilde" unicode="&#x169;" horiz-adv-x="645" 
d="M263 673q-38 0 -38 -53h-49q0 47 19.5 77t58.5 30q30 0 71 -29t58 -29q38 0 38 54h49q0 -47 -19.5 -77t-58.5 -30q-30 0 -71 28.5t-58 28.5zM480 524h68v-524h-68v125q-52 -125 -202 -127q-93 0 -145.5 54.5t-52.5 149.5v322h68v-306q0 -74 40.5 -115.5t111.5 -41.5
q84 1 132 57.5t48 148.5v257z" />
    <glyph glyph-name="Umacron" unicode="&#x16a;" horiz-adv-x="767" 
d="M228 821h312v-46h-312v46zM163 284q0 -108 58.5 -168t162.5 -60t162 60t58 168v416h69v-416q0 -136 -76.5 -213t-212.5 -77t-213 77t-77 213v416h69v-416z" />
    <glyph glyph-name="umacron" unicode="&#x16b;" horiz-adv-x="645" 
d="M460 697v-46h-276v46h276zM480 524h68v-524h-68v125q-52 -125 -202 -127q-93 0 -145.5 54.5t-52.5 149.5v322h68v-306q0 -74 40.5 -115.5t111.5 -41.5q84 1 132 57.5t48 148.5v257z" />
    <glyph glyph-name="Ubreve" unicode="&#x16c;" horiz-adv-x="767" 
d="M310 890q2 -32 22.5 -53.5t51.5 -21.5t51.5 21.5t22.5 53.5h49q-1 -54 -36 -88.5t-87 -34.5q-51 0 -86 34.5t-37 88.5h49zM163 284q0 -108 58.5 -168t162.5 -60t162 60t58 168v416h69v-416q0 -136 -76.5 -213t-212.5 -77t-213 77t-77 213v416h69v-416z" />
    <glyph glyph-name="ubreve" unicode="&#x16d;" horiz-adv-x="645" 
d="M323 614q-51 0 -86 34.5t-37 88.5h49q2 -32 22.5 -53.5t51.5 -21.5t51.5 21.5t22.5 53.5h49q-1 -54 -36 -88.5t-87 -34.5zM480 524h68v-524h-68v125q-52 -125 -202 -127q-93 0 -145.5 54.5t-52.5 149.5v322h68v-306q0 -74 40.5 -115.5t111.5 -41.5q84 1 132 57.5
t48 148.5v257z" />
    <glyph glyph-name="Uring" unicode="&#x16e;" horiz-adv-x="767" 
d="M384 953q41 0 70.5 -29.5t29.5 -69.5t-29.5 -69t-70.5 -29t-70.5 29t-29.5 69t29.5 69.5t70.5 29.5zM384 914q-26 0 -44 -17.5t-18 -42.5q0 -24 18.5 -41.5t43.5 -17.5t43.5 17.5t18.5 41.5q0 25 -18.5 42.5t-43.5 17.5zM163 284q0 -108 58.5 -168t162.5 -60t162 60
t58 168v416h69v-416q0 -136 -76.5 -213t-212.5 -77t-213 77t-77 213v416h69v-416z" />
    <glyph glyph-name="uring" unicode="&#x16f;" horiz-adv-x="645" 
d="M323 580q-41 0 -70.5 29t-29.5 69t29.5 69.5t70.5 29.5t70.5 -29.5t29.5 -69.5t-29.5 -69t-70.5 -29zM323 738q-26 0 -44 -17.5t-18 -42.5q0 -24 18.5 -41.5t43.5 -17.5t43.5 17.5t18.5 41.5q0 25 -18.5 42.5t-43.5 17.5zM480 524h68v-524h-68v125q-52 -125 -202 -127
q-93 0 -145.5 54.5t-52.5 149.5v322h68v-306q0 -74 40.5 -115.5t111.5 -41.5q84 1 132 57.5t48 148.5v257z" />
    <glyph glyph-name="Uhungarumlaut" unicode="&#x170;" horiz-adv-x="767" 
d="M357 901l58 -28l-93 -106l-53 7zM499 901l58 -28l-93 -106l-53 7zM163 284q0 -108 58.5 -168t162.5 -60t162 60t58 168v416h69v-416q0 -136 -76.5 -213t-212.5 -77t-213 77t-77 213v416h69v-416z" />
    <glyph glyph-name="uhungarumlaut" unicode="&#x171;" horiz-adv-x="645" 
d="M354 723l-93 -106l-53 7l88 127zM403 617l-53 7l88 127l58 -28zM480 524h68v-524h-68v125q-52 -125 -202 -127q-93 0 -145.5 54.5t-52.5 149.5v322h68v-306q0 -74 40.5 -115.5t111.5 -41.5q84 1 132 57.5t48 148.5v257z" />
    <glyph glyph-name="Uogonek" unicode="&#x172;" horiz-adv-x="767" 
d="M604 700h69v-416q0 -167 -111 -242q-48 -41 -76.5 -85t-28.5 -77q0 -43 39 -43q24 0 46 14l18 -45q-38 -21 -77 -21q-41 0 -65 24t-24 65q0 59 62 126q-33 -6 -72 -6q-136 0 -213 77t-77 213v416h69v-416q0 -108 58.5 -168t162.5 -60t162 60t58 168v416z" />
    <glyph glyph-name="uogonek" unicode="&#x173;" horiz-adv-x="645" 
d="M548 0q-55 -39 -79.5 -66.5t-24.5 -55.5q0 -41 39 -41q23 0 46 14l18 -45q-36 -21 -77 -21t-65 21.5t-24 60.5q0 75 99 141v117q-52 -125 -202 -127q-93 0 -145.5 54.5t-52.5 149.5v322h68v-306q0 -74 40.5 -115.5t111.5 -41.5q84 1 132 57.5t48 148.5v257h68v-524z" />
    <glyph glyph-name="Wcircumflex" unicode="&#x174;" horiz-adv-x="1025" 
d="M514 845l-71 -76h-69l103 125h74l102 -125h-69zM946 700h73l-237 -700h-72l-197 613l-199 -613h-71l-236 700h75l199 -627l198 627h70l199 -627z" />
    <glyph glyph-name="wcircumflex" unicode="&#x175;" horiz-adv-x="856" 
d="M430 695l-71 -76h-69l103 125h74l102 -125h-69zM788 524h70l-196 -524h-70l-160 443l-160 -443h-70l-197 524h72l161 -457l159 457h71l160 -457z" />
    <glyph glyph-name="Ycircumflex" unicode="&#x176;" horiz-adv-x="622" 
d="M312 844l-71 -76h-69l103 125h74l102 -125h-69zM616 699l-269 -450v-249h-69v249l-273 450h72l236 -376l231 376h72z" />
    <glyph glyph-name="ycircumflex" unicode="&#x177;" horiz-adv-x="494" 
d="M251 695l-71 -76h-69l103 125h74l102 -125h-69zM427 524h69l-242 -599q-49 -122 -154 -122q-62 0 -108 36l30 52q34 -24 75 -24q66 0 101 82l22 54l-217 521h71l180 -450z" />
    <glyph glyph-name="Ydieresis" unicode="&#x178;" horiz-adv-x="622" 
d="M229 766q-19 0 -31.5 13t-12.5 31q0 19 12.5 31.5t31.5 12.5q18 0 30.5 -12.5t12.5 -31.5q0 -18 -12.5 -31t-30.5 -13zM394 766q-19 0 -31.5 13t-12.5 31q0 19 12.5 31.5t31.5 12.5q18 0 30.5 -12.5t12.5 -31.5q0 -18 -12.5 -31t-30.5 -13zM616 699l-269 -450v-249h-69
v249l-273 450h72l236 -376l231 376h72z" />
    <glyph glyph-name="Zacute" unicode="&#x179;" horiz-adv-x="658" 
d="M408 897l69 -30l-126 -100l-60 7zM58 699h551v-53l-474 -584h478v-62h-568v54l475 583h-462v62z" />
    <glyph glyph-name="zacute" unicode="&#x17a;" horiz-adv-x="524" 
d="M338 747l69 -30l-126 -100l-60 7zM63 524l409 -1v-50l-338 -417l345 -1v-56l-426 1v51l338 417l-328 1v55z" />
    <glyph glyph-name="Zdotaccent" unicode="&#x17b;" horiz-adv-x="658" 
d="M334 862q20 0 33.5 -13.5t13.5 -33.5t-13.5 -34t-33.5 -14q-19 0 -32.5 14t-13.5 34t13 33.5t33 13.5zM58 699h551v-53l-474 -584h478v-62h-568v54l475 583h-462v62z" />
    <glyph glyph-name="zdotaccent" unicode="&#x17c;" horiz-adv-x="524" 
d="M264 722q20 0 33 -13.5t13 -33.5t-13.5 -34t-32.5 -14q-20 0 -33.5 14t-13.5 34t13.5 33.5t33.5 13.5zM63 524l409 -1v-50l-338 -417l345 -1v-56l-426 1v51l338 417l-328 1v55z" />
    <glyph glyph-name="Zcaron" unicode="&#x17d;" horiz-adv-x="658" 
d="M355 769h-74l-102 125h69l70 -76l71 76h69zM135 62h478v-62h-568v54l475 583h-462v62h551v-53z" />
    <glyph glyph-name="zcaron" unicode="&#x17e;" horiz-adv-x="524" 
d="M300 619h-74l-102 125h69l70 -76l71 76h69zM134 56l345 -1v-56l-426 1v51l338 417l-328 1v55l409 -1v-50z" />
    <glyph glyph-name="uni018F" unicode="&#x18f;" horiz-adv-x="785" 
d="M391 -6q-152 0 -253.5 106.5t-101.5 265.5h639q-5 116 -87.5 196.5t-195.5 80.5q-68 0 -128 -28.5t-101 -79.5l-49 47q110 123 277 123q147 0 249.5 -103t102.5 -251q0 -149 -102.5 -253t-249.5 -104zM392 56q107 0 186 70.5t93 176.5h-560q14 -106 93 -176.5t188 -70.5z
" />
    <glyph glyph-name="florin" unicode="&#x192;" horiz-adv-x="341" 
d="M309 695q-42 1 -71.5 -29.5t-36.5 -81.5l-15 -121h155l-6 -49h-155l-54 -450q-10 -76 -48.5 -119t-103.5 -42q-57 2 -98 38l23 49q30 -28 70 -30q40 -1 62 28.5t29 83.5l53 442h-66l6 49h66l16 129q10 74 55 117.5t112 42.5q65 -2 113 -38l-27 -49q-37 28 -79 30z" />
    <glyph glyph-name="Ohorn" unicode="&#x1a0;" horiz-adv-x="840" 
d="M644 621q60 -50 94 -120t34 -150q0 -149 -106.5 -253t-258.5 -104t-258.5 104t-106.5 253q0 148 106.5 251t258.5 103q86 0 159 -35v1q22 -8 45 -8q51 0 67 49.5t-17 93.5l57 21q39 -67 15.5 -129.5t-89.5 -76.5zM408 56q121 0 207.5 86.5t86.5 208.5q0 121 -86.5 206.5
t-207.5 85.5q-122 0 -209 -85.5t-87 -206.5q0 -122 87 -208.5t209 -86.5z" />
    <glyph glyph-name="ohorn" unicode="&#x1a1;" horiz-adv-x="643" 
d="M592 651q41 -70 13.5 -134.5t-98.5 -73.5q65 -73 65 -180q0 -117 -74 -191t-190 -74t-190 74t-74 191q0 116 74 189.5t190 73.5q73 0 132 -31q22 -8 45 -8q51 0 67 49.5t-17 93.5zM308 55q87 0 142 57.5t55 149.5q0 91 -55.5 148.5t-141.5 57.5t-141.5 -57.5
t-55.5 -148.5q0 -92 55 -149.5t142 -57.5z" />
    <glyph glyph-name="Uhorn" unicode="&#x1af;" horiz-adv-x="786" 
d="M749 826q29 -64 8 -111.5t-84 -57.5v-373q0 -136 -76.5 -213t-212.5 -77t-213 77t-77 213v416h69v-416q0 -108 58.5 -168t162.5 -60t162 60t58 168v416h56q39 5 48 36.5t-12 69.5z" />
    <glyph glyph-name="uhorn" unicode="&#x1b0;" horiz-adv-x="647" 
d="M614 651q27 -61 9 -107.5t-75 -59.5v-484h-68v125q-52 -125 -202 -127q-93 0 -145.5 54.5t-52.5 149.5v322h68v-306q0 -74 40.5 -115.5t111.5 -41.5q84 1 132 57.5t48 148.5v257h29q49 0 62 32.5t-10 74.5z" />
    <glyph glyph-name="uni01C4" unicode="&#x1c4;" horiz-adv-x="1451" 
d="M1149 769h-74l-102 125h69l70 -76l71 76h69zM391 699q152 0 256 -101t104 -249q0 -147 -104.5 -248t-257.5 -101h-279v699h281zM928 62h478v-62h-568v54l475 583h-462v62h551v-53zM393 62q120 0 204 83t84 204q0 122 -84.5 205t-206.5 83h-211v-575h214z" />
    <glyph glyph-name="uni01C5" unicode="&#x1c5;" horiz-adv-x="1317" 
d="M1094 619h-74l-102 125h69l70 -76l71 76h69zM391 699q152 0 256 -101t104 -249q0 -147 -104.5 -248t-257.5 -101h-279v699h281zM393 62q120 0 204 83t84 204q0 122 -84.5 205t-206.5 83h-211v-575h214zM927 56l345 -1v-56l-426 1v51l338 417l-328 1v55l409 -1v-50z" />
    <glyph glyph-name="uni01C6" unicode="&#x1c6;" horiz-adv-x="1201" 
d="M979 619h-74l-102 125h69l70 -76l71 76h69zM508 403v339h67v-742h-67v120q-30 -59 -84 -91.5t-126 -32.5q-112 0 -183 75t-71 192q0 116 71 190.5t182 74.5q72 0 126.5 -33t84.5 -92zM812 56l345 -1v-56l-426 1v51l338 417l-328 1v55l409 -1v-50zM310 54q86 0 142 58
t56 149t-56 150t-142 59q-87 0 -142.5 -59t-56.5 -150q1 -91 56.5 -149t142.5 -58z" />
    <glyph glyph-name="uni01C7" unicode="&#x1c7;" horiz-adv-x="992" 
d="M899 206q0 -100 -51.5 -154.5t-143.5 -54.5q-115 0 -190 99l35 52q66 -84 154 -84q61 0 93.5 37t32.5 107v429h-252v63h322v-494zM110 699h69v-637h308v-62h-377v699z" />
    <glyph glyph-name="uni01C8" unicode="&#x1c8;" horiz-adv-x="760" 
d="M642 722q20 0 33 -13.5t13 -33.5t-13.5 -34t-32.5 -14q-20 0 -33.5 14t-13.5 34t13.5 33.5t33.5 13.5zM110 699h69v-637h308v-62h-377v699zM472 -128q27 -10 52 -11q41 -1 62.5 29.5t21.5 89.5v544h67v-552q0 -82 -36 -125.5t-103 -42.5q-43 1 -80 17z" />
    <glyph glyph-name="uni01C9" unicode="&#x1c9;" horiz-adv-x="520" 
d="M103 742h67v-742h-67v742zM401 722q20 0 33 -13.5t13 -33.5t-13.5 -34t-32.5 -14q-20 0 -33.5 14t-13.5 34t13.5 33.5t33.5 13.5zM232 -128q27 -10 52 -11q41 -1 62.5 29.5t21.5 89.5v544h67v-552q0 -82 -36 -125.5t-103 -42.5q-43 1 -80 17z" />
    <glyph glyph-name="uni01CA" unicode="&#x1ca;" horiz-adv-x="1275" 
d="M860 700h322v-494q0 -100 -51.5 -154.5t-143.5 -54.5q-115 0 -190 99l35 52q66 -84 154 -84q61 0 93.5 37t32.5 107v429h-252v63zM617 107v592h68v-699h-73l-433 592v-592h-69v699h73z" />
    <glyph glyph-name="uni01CB" unicode="&#x1cb;" horiz-adv-x="1043" 
d="M925 627q-20 0 -33.5 14t-13.5 34t13.5 33.5t33.5 13.5t33 -13.5t13 -33.5t-13.5 -34t-32.5 -14zM617 107v592h68v-699h-73l-433 592v-592h-69v699h73zM891 -20v544h67v-552q0 -82 -36 -125.5t-103 -42.5q-43 1 -80 17l16 51q27 -10 52 -11q41 -1 62.5 29.5t21.5 89.5z
" />
    <glyph glyph-name="uni01CC" unicode="&#x1cc;" horiz-adv-x="901" 
d="M782 627q-20 0 -33.5 14t-13.5 34t13.5 33.5t33.5 13.5t33 -13.5t13 -33.5t-13.5 -34t-32.5 -14zM372 526q94 0 147.5 -54.5t53.5 -149.5v-322h-68v306q0 74 -41 116t-114 42q-81 -1 -129.5 -50t-55.5 -132v-282h-67v524h67v-122q54 122 207 124zM749 -20v544h67v-552
q0 -82 -36 -125.5t-103 -42.5q-43 1 -80 17l16 51q27 -10 52 -11q41 -1 62.5 29.5t21.5 89.5z" />
    <glyph glyph-name="Gcaron" unicode="&#x1e6;" horiz-adv-x="755" 
d="M405 769h-74l-102 125h69l70 -76l71 76h69zM601 119v223h61v-256q-51 -43 -118.5 -67.5t-137.5 -24.5q-151 0 -257.5 104t-106.5 253q0 148 107 251t260 103q147 0 255 -95l-40 -49q-89 83 -215 83q-124 0 -210.5 -85.5t-86.5 -207.5q0 -123 87 -209t211 -86
q102 0 191 63z" />
    <glyph glyph-name="gcaron" unicode="&#x1e7;" horiz-adv-x="635" 
d="M338 619h-74l-102 125h69l70 -76l71 76h69zM484 524h67v-469q0 -115 -71 -183t-190 -68q-116 0 -215 80l32 48q80 -71 180 -71q90 0 143.5 52.5t53.5 140.5v85q-28 -55 -80 -86t-120 -31q-106 0 -173 71t-67 182q0 110 66.5 180.5t171.5 70.5q69 1 121 -30t81 -87v115z
M296 76q82 0 135 55.5t53 141.5q0 87 -53 142.5t-135 55.5t-135 -56t-54 -142q1 -86 53.5 -141.5t135.5 -55.5z" />
    <glyph glyph-name="uni01EA" unicode="&#x1ea;" horiz-adv-x="814" 
d="M587 40q-46 -41 -74 -84t-28 -76q0 -43 39 -43q24 0 46 14l18 -45q-38 -21 -77 -21q-41 0 -65 24t-24 65q0 61 64 128q-40 -8 -79 -8q-152 0 -258.5 104t-106.5 253q0 148 106.5 251t258.5 103t258.5 -103t106.5 -251q0 -99 -50 -182t-135 -129zM112 351
q0 -122 87 -208.5t209 -86.5q121 0 207.5 86.5t86.5 208.5q0 121 -86.5 206.5t-207.5 85.5q-122 0 -209 -85.5t-87 -206.5z" />
    <glyph glyph-name="uni01EB" unicode="&#x1eb;" horiz-adv-x="616" 
d="M469 47q-50 -41 -80.5 -87t-30.5 -80q0 -43 39 -43q24 0 46 14l18 -45q-38 -21 -77 -21q-41 0 -65 24t-24 65q0 61 64 128q-21 -4 -51 -4q-116 0 -190 74t-74 191q0 116 74 189.5t190 73.5t190 -73.5t74 -189.5q0 -140 -103 -216zM111 262q0 -92 55 -149.5t142 -57.5
t142 57.5t55 149.5q0 91 -55.5 148.5t-141.5 57.5t-141.5 -57.5t-55.5 -148.5z" />
    <glyph glyph-name="Aringacute" unicode="&#x1fa;" horiz-adv-x="712" 
d="M488 1066l-141 -78l-55 17l139 99zM356 755q-41 0 -70.5 29t-29.5 69t29.5 69.5t70.5 29.5t70.5 -29.5t29.5 -69.5t-29.5 -69t-70.5 -29zM356 913q-26 0 -44 -17.5t-18 -42.5q0 -24 18.5 -41.5t43.5 -17.5t43.5 17.5t18.5 41.5q0 25 -18.5 42.5t-43.5 17.5zM632 0
l-83 186h-388l-82 -186h-74l315 699h72l315 -699h-75zM188 248h334l-168 378z" />
    <glyph glyph-name="aringacute" unicode="&#x1fb;" horiz-adv-x="574" 
d="M415 891l-141 -78l-55 17l139 99zM283 580q-41 0 -70.5 29t-29.5 69t29.5 69.5t70.5 29.5t70.5 -29.5t29.5 -69.5t-29.5 -69t-70.5 -29zM283 738q-26 0 -44 -17.5t-18 -42.5q0 -24 18.5 -41.5t43.5 -17.5t43.5 17.5t18.5 41.5q0 25 -18.5 42.5t-43.5 17.5zM493 0h-66
l-1 88q-62 -91 -196 -91q-80 0 -129 44.5t-49 113.5q0 68 52.5 107t144.5 39h176v40q0 62 -37 96t-108 34q-84 0 -169 -63l-30 46q53 37 101 54.5t110 17.5q95 0 147 -47.5t53 -131.5zM242 53q70 0 118.5 32.5t65.5 91.5v72h-169q-141 0 -141 -92q0 -47 34.5 -75.5
t91.5 -28.5z" />
    <glyph glyph-name="AEacute" unicode="&#x1fc;" horiz-adv-x="1019" 
d="M755 866l-126 -100l-60 7l117 123zM548 62h413v-62h-481v199h-285l-116 -199h-74l414 699h61v1h468v-63h-400v-250h357v-62h-357v-263zM227 254h253v388h-27z" />
    <glyph glyph-name="aeacute" unicode="&#x1fd;" horiz-adv-x="982" 
d="M565 747l69 -30l-126 -100l-60 7zM496 229q0 -70 60 -123t139 -53q102 0 166 69l38 -38q-80 -86 -209 -86q-79 0 -140.5 38.5t-91.5 104.5q-65 -144 -228 -144q-79 0 -128.5 43t-49.5 112q0 67 52 104t146 37h177v48q-1 63 -39 96.5t-108 33.5q-84 0 -179 -63l-20 48
q109 70 211 70q74 0 122 -30.5t64 -86.5q31 55 86.5 86t124.5 31q114 0 184 -76.5t68 -199.5h-445v-21zM873 290q-4 84 -54.5 134.5t-129.5 50.5t-132.5 -51t-60.5 -134h377zM261 253q-69 0 -107 -25t-38 -71q0 -49 35 -79.5t92 -30.5q68 0 112.5 31t72.5 98v77h-167z" />
    <glyph glyph-name="Oslashacute" unicode="&#x1fe;" horiz-adv-x="814" 
d="M551 867l-126 -100l-60 7l117 123zM632 627q66 -49 103 -121t37 -156q0 -147 -106.5 -250t-258.5 -103q-100 0 -184 48l-70 -100h-60l89 126q-66 50 -103 122.5t-37 156.5q0 147 106.5 249t258.5 102q100 0 183 -47l71 101h61zM112 350q0 -66 29 -125t79 -99l333 475
q-68 38 -145 38q-122 0 -209 -84.5t-87 -204.5zM408 59q121 0 207.5 85.5t86.5 205.5q0 67 -29 125t-79 98l-334 -475q69 -39 148 -39z" />
    <glyph glyph-name="oslashacute" unicode="&#x1ff;" horiz-adv-x="616" 
d="M451 717l-126 -100l-60 7l117 123zM477 471q95 -76 95 -208q0 -117 -74 -191t-190 -74q-75 0 -133 32l-91 -133h-51l107 156q-96 75 -96 210q0 116 74 189.5t190 73.5q75 0 133 -32l91 133h52zM108 262q0 -100 64 -161l237 346q-45 25 -101 25q-88 0 -144 -58.5
t-56 -151.5zM308 50q88 0 144 59t56 153q0 101 -65 160l-237 -346q46 -26 102 -26z" />
    <glyph glyph-name="uni0200" unicode="&#x200;" horiz-adv-x="712" 
d="M324 773l-54 -7l-93 106l58 28zM466 773l-54 -7l-93 106l58 28zM632 0l-83 186h-388l-82 -186h-74l315 699h72l315 -699h-75zM188 248h334l-168 378z" />
    <glyph glyph-name="uni0201" unicode="&#x201;" horiz-adv-x="574" 
d="M251 624l-54 -7l-93 106l58 28zM393 624l-54 -7l-93 106l58 28zM493 0h-66l-1 88q-62 -91 -196 -91q-80 0 -129 44.5t-49 113.5q0 68 52.5 107t144.5 39h176v40q0 62 -37 96t-108 34q-84 0 -169 -63l-30 46q53 37 101 54.5t110 17.5q95 0 147 -47.5t53 -131.5zM242 53
q70 0 118.5 32.5t65.5 91.5v72h-169q-141 0 -141 -92q0 -47 34.5 -75.5t91.5 -28.5z" />
    <glyph glyph-name="uni0202" unicode="&#x202;" horiz-adv-x="712" 
d="M356 845q-31 0 -51.5 -21.5t-22.5 -54.5h-49q2 54 37 88.5t86 34.5q52 0 87 -34.5t36 -88.5h-49q-2 33 -22.5 54.5t-51.5 21.5zM632 0l-83 186h-388l-82 -186h-74l315 699h72l315 -699h-75zM188 248h334l-168 378z" />
    <glyph glyph-name="uni0203" unicode="&#x203;" horiz-adv-x="574" 
d="M283 690q-31 0 -51.5 -21.5t-22.5 -54.5h-49q2 54 37 88.5t86 34.5q52 0 87 -34.5t36 -88.5h-49q-2 33 -22.5 54.5t-51.5 21.5zM493 0h-66l-1 88q-62 -91 -196 -91q-80 0 -129 44.5t-49 113.5q0 68 52.5 107t144.5 39h176v40q0 62 -37 96t-108 34q-84 0 -169 -63l-30 46
q53 37 101 54.5t110 17.5q95 0 147 -47.5t53 -131.5zM242 53q70 0 118.5 32.5t65.5 91.5v72h-169q-141 0 -141 -92q0 -47 34.5 -75.5t91.5 -28.5z" />
    <glyph glyph-name="uni0204" unicode="&#x204;" horiz-adv-x="650" 
d="M230 901l89 -127l-54 -7l-93 106zM372 901l89 -127l-54 -7l-93 106zM110 699h468v-62h-399v-250h357v-62h-357v-263h412v-62h-481v699z" />
    <glyph glyph-name="uni0205" unicode="&#x205;" horiz-adv-x="589" 
d="M265 624l-54 -7l-93 106l58 28zM407 624l-54 -7l-93 106l58 28zM302 526q122 0 186 -77.5t59 -208.5h-437q7 -84 62 -135.5t136 -51.5q103 0 167 69l38 -38q-80 -86 -209 -86q-115 0 -188 74t-73 190t73 190t186 74zM110 292h377q-5 82 -54.5 130.5t-129.5 48.5
q-79 0 -132 -49t-61 -130z" />
    <glyph glyph-name="uni0206" unicode="&#x206;" horiz-adv-x="650" 
d="M277 770h-49q2 54 37 88.5t86 34.5q52 0 87 -34.5t36 -88.5h-49q-2 33 -22.5 54.5t-51.5 21.5t-51.5 -21.5t-22.5 -54.5zM110 699h468v-62h-399v-250h357v-62h-357v-263h412v-62h-481v699z" />
    <glyph glyph-name="uni0207" unicode="&#x207;" horiz-adv-x="589" 
d="M297 690q-31 0 -51.5 -21.5t-22.5 -54.5h-49q2 54 37 88.5t86 34.5q52 0 87 -34.5t36 -88.5h-49q-2 33 -22.5 54.5t-51.5 21.5zM302 526q122 0 186 -77.5t59 -208.5h-437q7 -84 62 -135.5t136 -51.5q103 0 167 69l38 -38q-80 -86 -209 -86q-115 0 -188 74t-73 190t73 190
t186 74zM110 292h377q-5 82 -54.5 130.5t-129.5 48.5q-79 0 -132 -49t-61 -130z" />
    <glyph glyph-name="uni0208" unicode="&#x208;" horiz-adv-x="289" 
d="M23 900l89 -127l-54 -7l-93 106zM165 900l89 -127l-54 -7l-93 106zM110 699h69v-699h-69v699z" />
    <glyph glyph-name="uni0209" unicode="&#x209;" horiz-adv-x="262" 
d="M10 751l89 -127l-54 -7l-93 106zM152 751l89 -127l-54 -7l-93 106zM98 524h67v-524h-67v524z" />
    <glyph glyph-name="uni020A" unicode="&#x20a;" horiz-adv-x="289" 
d="M70 769h-49q2 54 37 88.5t86 34.5q52 0 87 -34.5t36 -88.5h-49q-2 33 -22.5 54.5t-51.5 21.5t-51.5 -21.5t-22.5 -54.5zM110 699h69v-699h-69v699z" />
    <glyph glyph-name="uni020B" unicode="&#x20b;" horiz-adv-x="262" 
d="M71 614h-49q1 55 32 90t77 35t77 -35t32 -90h-49q-2 33 -18.5 54.5t-41.5 21.5t-41.5 -21.5t-18.5 -54.5zM98 524h67v-524h-67v524z" />
    <glyph glyph-name="uni020C" unicode="&#x20c;" horiz-adv-x="814" 
d="M286 901l89 -127l-54 -7l-93 106zM428 901l89 -127l-54 -7l-93 106zM407 705q152 0 258.5 -103t106.5 -251q0 -149 -106.5 -253t-258.5 -104t-258.5 104t-106.5 253q0 148 106.5 251t258.5 103zM408 643q-122 0 -209 -85.5t-87 -206.5q0 -122 87 -208.5t209 -86.5
q121 0 207.5 86.5t86.5 208.5q0 121 -86.5 206.5t-207.5 85.5z" />
    <glyph glyph-name="uni020D" unicode="&#x20d;" horiz-adv-x="616" 
d="M187 751l89 -127l-54 -7l-93 106zM329 751l89 -127l-54 -7l-93 106zM308 526q116 0 190 -73.5t74 -189.5q0 -117 -74 -191t-190 -74t-190 74t-74 191q0 116 74 189.5t190 73.5zM308 468q-86 0 -141.5 -57.5t-55.5 -148.5q0 -92 55 -149.5t142 -57.5t142 57.5t55 149.5
q0 91 -55.5 148.5t-141.5 57.5z" />
    <glyph glyph-name="uni020E" unicode="&#x20e;" horiz-adv-x="814" 
d="M333 770h-49q2 54 37 88.5t86 34.5q52 0 87 -34.5t36 -88.5h-49q-2 33 -22.5 54.5t-51.5 21.5t-51.5 -21.5t-22.5 -54.5zM407 705q152 0 258.5 -103t106.5 -251q0 -149 -106.5 -253t-258.5 -104t-258.5 104t-106.5 253q0 148 106.5 251t258.5 103zM408 643
q-122 0 -209 -85.5t-87 -206.5q0 -122 87 -208.5t209 -86.5q121 0 207.5 86.5t86.5 208.5q0 121 -86.5 206.5t-207.5 85.5z" />
    <glyph glyph-name="uni020F" unicode="&#x20f;" horiz-adv-x="616" 
d="M234 614h-49q2 54 37 88.5t86 34.5q52 0 87 -34.5t36 -88.5h-49q-2 33 -22.5 54.5t-51.5 21.5t-51.5 -21.5t-22.5 -54.5zM308 526q116 0 190 -73.5t74 -189.5q0 -117 -74 -191t-190 -74t-190 74t-74 191q0 116 74 189.5t190 73.5zM308 468q-86 0 -141.5 -57.5
t-55.5 -148.5q0 -92 55 -149.5t142 -57.5t142 57.5t55 149.5q0 91 -55.5 148.5t-141.5 57.5z" />
    <glyph glyph-name="uni0210" unicode="&#x210;" horiz-adv-x="723" 
d="M311 774l-54 -7l-93 106l58 28zM453 774l-54 -7l-93 106l58 28zM651 0h-80l-151 228q-32 -2 -49 -2h-192v-226h-69v699h261q131 0 202.5 -60.5t71.5 -171.5q0 -87 -42 -145t-120 -81zM179 288h192q100 0 154 45.5t54 131.5q0 84 -54 128t-154 44h-192v-349z" />
    <glyph glyph-name="uni0211" unicode="&#x211;" horiz-adv-x="366" 
d="M196 624l-54 -7l-93 106l58 28zM338 624l-54 -7l-93 106l58 28zM165 402q52 122 191 124v-63q-83 1 -133.5 -48.5t-57.5 -134.5v-280h-67v524h67v-122z" />
    <glyph glyph-name="uni0212" unicode="&#x212;" horiz-adv-x="723" 
d="M343 846q-31 0 -51.5 -21.5t-22.5 -54.5h-49q2 54 37 88.5t86 34.5q52 0 87 -34.5t36 -88.5h-49q-2 33 -22.5 54.5t-51.5 21.5zM651 0h-80l-151 228q-32 -2 -49 -2h-192v-226h-69v699h261q131 0 202.5 -60.5t71.5 -171.5q0 -87 -42 -145t-120 -81zM179 288h192
q100 0 154 45.5t54 131.5q0 84 -54 128t-154 44h-192v-349z" />
    <glyph glyph-name="uni0213" unicode="&#x213;" horiz-adv-x="366" 
d="M228 690q-31 0 -51.5 -21.5t-22.5 -54.5h-49q2 54 37 88.5t86 34.5q52 0 87 -34.5t36 -88.5h-49q-2 33 -22.5 54.5t-51.5 21.5zM165 402q52 122 191 124v-63q-83 1 -133.5 -48.5t-57.5 -134.5v-280h-67v524h67v-122z" />
    <glyph glyph-name="uni0214" unicode="&#x214;" horiz-adv-x="767" 
d="M263 901l89 -127l-54 -7l-93 106zM405 901l89 -127l-54 -7l-93 106zM163 284q0 -108 58.5 -168t162.5 -60t162 60t58 168v416h69v-416q0 -136 -76.5 -213t-212.5 -77t-213 77t-77 213v416h69v-416z" />
    <glyph glyph-name="uni0215" unicode="&#x215;" horiz-adv-x="645" 
d="M291 624l-54 -7l-93 106l58 28zM433 624l-54 -7l-93 106l58 28zM480 524h68v-524h-68v125q-52 -125 -202 -127q-93 0 -145.5 54.5t-52.5 149.5v322h68v-306q0 -74 40.5 -115.5t111.5 -41.5q84 1 132 57.5t48 148.5v257z" />
    <glyph glyph-name="uni0216" unicode="&#x216;" horiz-adv-x="767" 
d="M310 770h-49q2 54 37 88.5t86 34.5q52 0 87 -34.5t36 -88.5h-49q-2 33 -22.5 54.5t-51.5 21.5t-51.5 -21.5t-22.5 -54.5zM163 284q0 -108 58.5 -168t162.5 -60t162 60t58 168v416h69v-416q0 -136 -76.5 -213t-212.5 -77t-213 77t-77 213v416h69v-416z" />
    <glyph glyph-name="uni0217" unicode="&#x217;" horiz-adv-x="645" 
d="M323 690q-31 0 -51.5 -21.5t-22.5 -54.5h-49q2 54 37 88.5t86 34.5q52 0 87 -34.5t36 -88.5h-49q-2 33 -22.5 54.5t-51.5 21.5zM480 524h68v-524h-68v125q-52 -125 -202 -127q-93 0 -145.5 54.5t-52.5 149.5v322h68v-306q0 -74 40.5 -115.5t111.5 -41.5q84 1 132 57.5
t48 148.5v257z" />
    <glyph glyph-name="Scommaaccent" unicode="&#x218;" horiz-adv-x="608" 
d="M498 585q-88 56 -190 56q-72 0 -115.5 -28.5t-43.5 -77.5q0 -40 22 -67.5t57 -43.5t77.5 -28.5t85 -28t78 -36.5t57 -58.5t21.5 -89.5q0 -85 -69.5 -136.5t-181.5 -51.5q-73 0 -142.5 29t-119.5 77l32 57q47 -46 109 -72t122 -26q80 0 127 32.5t47 87.5q0 41 -21.5 69
t-57 44t-78 28.5t-85 27.5t-77.5 35.5t-57 57.5t-22 88q0 80 65.5 128t173.5 48q120 0 216 -62zM276 -61h64l-51 -156h-50z" />
    <glyph glyph-name="scommaaccent" unicode="&#x219;" horiz-adv-x="449" 
d="M369 431q-64 40 -140 40q-50 0 -80.5 -19.5t-30.5 -58.5q0 -29 22 -49t55 -30t71.5 -23t71.5 -27.5t54.5 -45.5t21.5 -75q0 -71 -54.5 -108t-134.5 -37q-123 0 -199 73l27 48q72 -67 175 -67q52 0 85.5 21.5t34.5 62.5q1 31 -20.5 52.5t-54.5 32l-71.5 23.5t-71.5 27
t-55 44t-22 73q0 69 51.5 104t128.5 35q90 0 162 -45zM191 -61h64l-51 -156h-50z" />
    <glyph glyph-name="uni021A" unicode="&#x21a;" horiz-adv-x="553" 
d="M11 700h531v-63h-231v-637h-69v637h-231v63zM245 -61h64l-51 -156h-50z" />
    <glyph glyph-name="uni021B" unicode="&#x21b;" horiz-adv-x="385" 
d="M362 36q-54 -37 -116 -39q-60 0 -95 37t-35 111v312h-75l-1 52h76v135h67v-135l170 1v-53h-170v-301q0 -50 18.5 -74t55.5 -23q40 0 85 28zM177 -217l37 156h64l-51 -156h-50z" />
    <glyph glyph-name="uni022A" unicode="&#x22a;" horiz-adv-x="814" 
d="M290 940h236v-46h-236v46zM332 853q18 0 30 -12t12 -30t-12 -31t-30 -13t-30 13t-12 31t12 30t30 12zM483 853q17 0 29.5 -12t12.5 -30t-12.5 -31t-29.5 -13q-18 0 -30.5 13t-12.5 31t12.5 30t30.5 12zM407 705q152 0 258.5 -103t106.5 -251q0 -149 -106.5 -253
t-258.5 -104t-258.5 104t-106.5 253q0 148 106.5 251t258.5 103zM408 643q-122 0 -209 -85.5t-87 -206.5q0 -122 87 -208.5t209 -86.5q121 0 207.5 86.5t86.5 208.5q0 121 -86.5 206.5t-207.5 85.5z" />
    <glyph glyph-name="uni022B" unicode="&#x22b;" horiz-adv-x="616" 
d="M191 784h236v-46h-236v46zM233 697q18 0 30 -12t12 -30t-12 -31t-30 -13t-30 13t-12 31t12 30t30 12zM384 697q17 0 29.5 -12t12.5 -30t-12.5 -31t-29.5 -13q-18 0 -30.5 13t-12.5 31t12.5 30t30.5 12zM308 526q116 0 190 -73.5t74 -189.5q0 -117 -74 -191t-190 -74
t-190 74t-74 191q0 116 74 189.5t190 73.5zM308 468q-86 0 -141.5 -57.5t-55.5 -148.5q0 -92 55 -149.5t142 -57.5t142 57.5t55 149.5q0 91 -55.5 148.5t-141.5 57.5z" />
    <glyph glyph-name="uni022C" unicode="&#x22c;" horiz-adv-x="814" 
d="M291 948h236v-46h-236v46zM553 860q0 -41 -19.5 -66.5t-57.5 -25.5q-31 0 -72.5 25t-59.5 25q-40 0 -40 -47h-42q0 42 19.5 67.5t57.5 25.5q31 0 72.5 -25t59.5 -25q40 0 40 46h42zM407 705q152 0 258.5 -103t106.5 -251q0 -149 -106.5 -253t-258.5 -104t-258.5 104
t-106.5 253q0 148 106.5 251t258.5 103zM408 643q-122 0 -209 -85.5t-87 -206.5q0 -122 87 -208.5t209 -86.5q121 0 207.5 86.5t86.5 208.5q0 121 -86.5 206.5t-207.5 85.5z" />
    <glyph glyph-name="uni022D" unicode="&#x22d;" horiz-adv-x="616" 
d="M192 790h236v-46h-236v46zM454 702q0 -41 -19.5 -66.5t-57.5 -25.5q-31 0 -72.5 25t-59.5 25q-40 0 -40 -47h-42q0 42 19.5 67.5t57.5 25.5q31 0 72.5 -25t59.5 -25q40 0 40 46h42zM308 526q116 0 190 -73.5t74 -189.5q0 -117 -74 -191t-190 -74t-190 74t-74 191
q0 116 74 189.5t190 73.5zM308 468q-86 0 -141.5 -57.5t-55.5 -148.5q0 -92 55 -149.5t142 -57.5t142 57.5t55 149.5q0 91 -55.5 148.5t-141.5 57.5z" />
    <glyph glyph-name="uni0230" unicode="&#x230;" horiz-adv-x="814" 
d="M362 942h236v-46h-236v46zM479 860q19 0 32 -13.5t13 -32.5t-13 -32t-32 -13q-18 0 -31 13t-13 32t13 32.5t31 13.5zM407 705q152 0 258.5 -103t106.5 -251q0 -149 -106.5 -253t-258.5 -104t-258.5 104t-106.5 253q0 148 106.5 251t258.5 103zM408 643q-122 0 -209 -85.5
t-87 -206.5q0 -122 87 -208.5t209 -86.5q121 0 207.5 86.5t86.5 208.5q0 121 -86.5 206.5t-207.5 85.5z" />
    <glyph glyph-name="uni0231" unicode="&#x231;" horiz-adv-x="616" 
d="M190 784h236v-46h-236v46zM307 702q19 0 32 -13.5t13 -32.5t-13 -32t-32 -13q-18 0 -31 13t-13 32t13 32.5t31 13.5zM308 526q116 0 190 -73.5t74 -189.5q0 -117 -74 -191t-190 -74t-190 74t-74 191q0 116 74 189.5t190 73.5zM308 468q-86 0 -141.5 -57.5t-55.5 -148.5
q0 -92 55 -149.5t142 -57.5t142 57.5t55 149.5q0 91 -55.5 148.5t-141.5 57.5z" />
    <glyph glyph-name="uni0232" unicode="&#x232;" horiz-adv-x="622" 
d="M467 820v-46h-312v46h312zM616 699l-269 -450v-249h-69v249l-273 450h72l236 -376l231 376h72z" />
    <glyph glyph-name="uni0233" unicode="&#x233;" horiz-adv-x="494" 
d="M112 697h276v-46h-276v46zM254 -75q-49 -122 -154 -122q-62 0 -108 36l30 52q34 -24 75 -24q66 0 101 82l22 54l-217 521h71l180 -450l173 450h69z" />
    <glyph glyph-name="uni0237" unicode="&#x237;" horiz-adv-x="247" 
d="M-41 -128q27 -10 52 -11q41 -1 62.5 29.5t21.5 89.5v544h67v-552q0 -82 -36 -125.5t-103 -42.5q-43 1 -80 17z" />
    <glyph glyph-name="uni0259" unicode="&#x259;" horiz-adv-x="589" 
d="M285 526q115 0 188 -74t73 -190t-73 -190t-186 -74q-122 0 -186 77.5t-59 208.5h437q-7 84 -62 135.5t-136 51.5q-103 0 -167 -69l-38 38q80 86 209 86zM286 53q79 0 132 49t61 130h-377q5 -82 54.5 -130.5t129.5 -48.5z" />
    <glyph glyph-name="uni02BB" unicode="&#x2bb;" horiz-adv-x="166" 
d="M116 512l-66 15l19 173h47v-188z" />
    <glyph glyph-name="uni02BC" unicode="&#x2bc;" horiz-adv-x="121" 
d="M35 700h54l-11 -260h-45z" />
    <glyph glyph-name="uni02BE" unicode="&#x2be;" horiz-adv-x="256" 
d="M67 564v35q33 0 57 23t24 54t-24 54t-57 23v36q47 0 81.5 -34t34.5 -79q0 -46 -34.5 -79t-81.5 -33z" />
    <glyph glyph-name="uni02BF" unicode="&#x2bf;" horiz-adv-x="255" 
d="M188 564v35q-33 0 -56.5 22.5t-23.5 54.5t23.5 54.5t56.5 22.5v36q-47 0 -81 -34t-34 -79q0 -46 34 -79t81 -33z" />
    <glyph glyph-name="circumflex" unicode="&#x2c6;" horiz-adv-x="309" 
d="M294 619h-69l-70 76l-71 -76h-69l103 125h74z" />
    <glyph glyph-name="caron" unicode="&#x2c7;" horiz-adv-x="309" 
d="M210 744h69l-103 -125h-74l-102 125h69l70 -76z" />
    <glyph glyph-name="uni02C8" unicode="&#x2c8;" horiz-adv-x="82" 
d="M15 522v178h52v-178h-52z" />
    <glyph glyph-name="uni02C9" unicode="&#x2c9;" horiz-adv-x="350" 
d="M38 697h276v-46h-276v46z" />
    <glyph glyph-name="uni02CA" unicode="&#x2ca;" horiz-adv-x="350" 
d="M209 747l69 -30l-126 -100l-60 7z" />
    <glyph glyph-name="uni02CB" unicode="&#x2cb;" horiz-adv-x="350" 
d="M119 747l117 -123l-60 -7l-126 100z" />
    <glyph glyph-name="uni02CC" unicode="&#x2cc;" horiz-adv-x="81" 
d="M15 -208v177h51v-177h-51z" />
    <glyph glyph-name="breve" unicode="&#x2d8;" horiz-adv-x="300" 
d="M76 737q2 -32 22.5 -53.5t51.5 -21.5t51.5 21.5t22.5 53.5h49q-1 -54 -36 -88.5t-87 -34.5q-51 0 -86 34.5t-37 88.5h49z" />
    <glyph glyph-name="dotaccent" unicode="&#x2d9;" horiz-adv-x="221" 
d="M111 722q20 0 33 -13.5t13 -33.5t-13.5 -34t-32.5 -14q-20 0 -33.5 14t-13.5 34t13.5 33.5t33.5 13.5z" />
    <glyph glyph-name="ring" unicode="&#x2da;" horiz-adv-x="431" 
d="M176 777q41 0 70.5 -29.5t29.5 -69.5t-29.5 -69t-70.5 -29t-70.5 29t-29.5 69t29.5 69.5t70.5 29.5zM176 738q-26 0 -44 -17.5t-18 -42.5q0 -24 18.5 -41.5t43.5 -17.5t43.5 17.5t18.5 41.5q0 25 -18.5 42.5t-43.5 17.5z" />
    <glyph glyph-name="ogonek" unicode="&#x2db;" horiz-adv-x="256" 
d="M158 26l40 -26q-55 -39 -79.5 -66.5t-24.5 -55.5q0 -41 39 -41q23 0 46 14l18 -45q-36 -21 -77 -21t-65 21.5t-24 60.5q0 83 127 159z" />
    <glyph glyph-name="tilde" unicode="&#x2dc;" horiz-adv-x="348" 
d="M321 723q0 -47 -19.5 -77t-58.5 -30q-30 0 -71 28.5t-58 28.5q-38 0 -38 -53h-49q0 47 19.5 77t58.5 30q30 0 71 -29t58 -29q38 0 38 54h49z" />
    <glyph glyph-name="hungarumlaut" unicode="&#x2dd;" horiz-adv-x="452" 
d="M174 751l58 -28l-93 -106l-53 7zM316 751l58 -28l-93 -106l-53 7z" />
    <glyph glyph-name="gravecomb" unicode="&#x300;" 
d="M-174 747l117 -123l-60 -7l-126 100z" />
    <glyph glyph-name="acutecomb" unicode="&#x301;" 
d="M-89 747l69 -30l-126 -100l-60 7z" />
    <glyph glyph-name="uni0302" unicode="&#x302;" 
d="M-15 619h-69l-70 76l-71 -76h-69l103 125h74z" />
    <glyph glyph-name="tildecomb" unicode="&#x303;" 
d="M-27 723q0 -47 -19.5 -77t-58.5 -30q-30 0 -71 28.5t-58 28.5q-38 0 -38 -53h-49q0 47 19.5 77t58.5 30q30 0 71 -29t58 -29q38 0 38 54h49z" />
    <glyph glyph-name="uni0304" unicode="&#x304;" 
d="M-276 697h276v-46h-276v46z" />
    <glyph glyph-name="uni0306" unicode="&#x306;" 
d="M-224 737q2 -32 22.5 -53.5t51.5 -21.5t51.5 21.5t22.5 53.5h49q-1 -54 -36 -88.5t-87 -34.5q-51 0 -86 34.5t-37 88.5h49z" />
    <glyph glyph-name="uni0307" unicode="&#x307;" 
d="M-96 722q20 0 33 -13.5t13 -33.5t-13.5 -34t-32.5 -14q-20 0 -33.5 14t-13.5 34t13.5 33.5t33.5 13.5z" />
    <glyph glyph-name="uni0308" unicode="&#x308;" 
d="M-256 718q18 0 30.5 -12.5t12.5 -31.5q0 -18 -12.5 -31t-30.5 -13t-30.5 13t-12.5 31q0 19 12.5 31.5t30.5 12.5zM-92 718q18 0 30.5 -12.5t12.5 -31.5q0 -18 -12.5 -31t-30.5 -13t-30.5 13t-12.5 31q0 19 12.5 31.5t30.5 12.5z" />
    <glyph glyph-name="hookabovecomb" unicode="&#x309;" 
d="M-121 768q39 0 63 -20.5t24 -55.5q0 -57 -65 -110l-41 18q48 39 48 82q0 16 -11.5 27t-29.5 11q-21 0 -44 -15l-24 38q37 25 80 25z" />
    <glyph glyph-name="uni030A" unicode="&#x30a;" 
d="M-176 777q41 0 70.5 -29.5t29.5 -69.5t-29.5 -69t-70.5 -29t-70.5 29t-29.5 69t29.5 69.5t70.5 29.5zM-176 738q-26 0 -44 -17.5t-18 -42.5q0 -24 18.5 -41.5t43.5 -17.5t43.5 17.5t18.5 41.5q0 25 -18.5 42.5t-43.5 17.5z" />
    <glyph glyph-name="uni030B" unicode="&#x30b;" 
d="M-248 751l58 -28l-93 -106l-53 7zM-106 751l58 -28l-93 -106l-53 7z" />
    <glyph glyph-name="uni030C" unicode="&#x30c;" 
d="M-99 744h69l-103 -125h-74l-102 125h69l70 -76z" />
    <glyph glyph-name="uni030F" unicode="&#x30f;" 
d="M-285 751l89 -127l-54 -7l-93 106zM-143 751l89 -127l-54 -7l-93 106z" />
    <glyph glyph-name="uni0311" unicode="&#x311;" 
d="M-224 614h-49q2 54 37 88.5t86 34.5q52 0 87 -34.5t36 -88.5h-49q-2 33 -22.5 54.5t-51.5 21.5t-51.5 -21.5t-22.5 -54.5z" />
    <glyph glyph-name="uni0312" unicode="&#x312;" 
d="M-77 614h-64l51 156h50z" />
    <glyph glyph-name="uni031B" unicode="&#x31b;" 
d="M-44 651q33 -71 3 -121t-108 -50v44q49 0 62 32.5t-10 74.5z" />
    <glyph glyph-name="dotbelowcomb" unicode="&#x323;" 
d="M-96 -76q20 0 33 -13.5t13 -33.5t-13.5 -34t-32.5 -14q-20 0 -33.5 14t-13.5 34t13.5 33.5t33.5 13.5z" />
    <glyph glyph-name="uni0324" unicode="&#x324;" 
d="M-245 -74q18 0 30.5 -12.5t12.5 -31.5q0 -18 -12.5 -31t-30.5 -13t-30.5 13t-12.5 31q0 19 12.5 31.5t30.5 12.5zM-81 -74q18 0 30.5 -12.5t12.5 -31.5q0 -18 -12.5 -31t-30.5 -13t-30.5 13t-12.5 31q0 19 12.5 31.5t30.5 12.5z" />
    <glyph glyph-name="uni0326" unicode="&#x326;" 
d="M-118 -61h64l-51 -156h-50z" />
    <glyph glyph-name="uni0327" unicode="&#x327;" 
d="M-151 7l47 -7l-17 -53q40 -4 60.5 -26t20.5 -51q0 -38 -28.5 -62t-74.5 -24t-85 22l16 43q30 -16 62 -16q26 0 40.5 13t14.5 30q0 16 -14.5 27.5t-39.5 11.5h-30z" />
    <glyph glyph-name="uni0328" unicode="&#x328;" 
d="M-72 26l40 -26q-55 -39 -79.5 -66.5t-24.5 -55.5q0 -41 39 -41q23 0 46 14l18 -45q-36 -21 -77 -21t-65 21.5t-24 60.5q0 83 127 159z" />
    <glyph glyph-name="uni032E" unicode="&#x32e;" 
d="M-224 -50q2 -32 22.5 -53.5t51.5 -21.5t51.5 21.5t22.5 53.5h49q-1 -54 -36 -88.5t-87 -34.5q-51 0 -86 34.5t-37 88.5h49z" />
    <glyph glyph-name="uni0331" unicode="&#x331;" 
d="M-306 -86h276v-46h-276v46z" />
    <glyph glyph-name="uni0335" unicode="&#x335;" 
d="M-317 463h312v-44h-312v44z" />
    <glyph glyph-name="uni0336" unicode="&#x336;" 
d="M-495 463h386v-44h-386v44z" />
    <glyph glyph-name="uni0337" unicode="&#x337;" 
d="M-37 559l-156 -473h-59l156 473h59z" />
    <glyph glyph-name="uni0338" unicode="&#x338;" 
d="M-280 0l244 742h60l-245 -742h-59z" />
    <glyph glyph-name="uni0394" unicode="&#x394;" horiz-adv-x="712" 
d="M392 699l315 -699h-702l315 699h72zM103 55h505l-254 571z" />
    <glyph glyph-name="uni03A9" unicode="&#x3a9;" horiz-adv-x="904" 
d="M575 62q80 44 127 124.5t47 167.5q0 121 -82.5 204t-214.5 83q-131 0 -213.5 -82.5t-82.5 -203.5q0 -88 47 -168.5t127 -124.5v-62h-319v59h238q-69 49 -112.5 133.5t-43.5 169.5q0 146 102.5 243t256.5 97q155 0 257.5 -97t102.5 -243q0 -85 -44 -170t-112 -133h237v-59
h-318v62z" />
    <glyph glyph-name="uni03BC" unicode="&#x3bc;" horiz-adv-x="668" 
d="M503 524h68v-524h-68v125q-52 -125 -202 -127q-79 0 -130 40v-232h-68v718h68v-306q0 -74 40.5 -115.5t111.5 -41.5q84 1 132 57.5t48 148.5v257z" />
    <glyph glyph-name="pi" unicode="&#x3c0;" horiz-adv-x="722" 
d="M714 524l-1 -53h-164v-471h-58v471h-195l-54 -471h-58l54 471h-68q-52 0 -86 -30t-33 -75q0 -42 29 -84l-48 -21q-35 51 -37 114q-1 63 47.5 106t120.5 43h551z" />
    <glyph glyph-name="uni0531" unicode="&#x531;" horiz-adv-x="818" 
d="M811 55l-39 -48l-133 112q-72 -125 -249 -125q-136 0 -213 77t-77 213v473h69v-473q0 -108 58.5 -168t162.5 -60t162 60t58 168v473h69v-473q0 -56 -14 -106z" />
    <glyph glyph-name="uni0532" unicode="&#x532;" horiz-adv-x="787" 
d="M707 245v-63h-538v-182h-69v480q0 136 77 213t213 77t212.5 -77t76.5 -213v-64h-69v64q0 108 -58 168t-162 60t-162.5 -60t-58.5 -168v-235h538z" />
    <glyph glyph-name="uni0533" unicode="&#x533;" horiz-adv-x="771" 
d="M786 267v-62h-148v-205h-69v205h-219q-145 0 -225 77t-82 203q-1 124 85.5 200.5t223.5 75.5q129 0 207.5 -67.5t78.5 -176.5v-250h148zM569 267v249q0 79 -55.5 131t-160.5 53q-111 1 -177.5 -59t-65.5 -156q3 -104 65.5 -161t177.5 -57h216z" />
    <glyph glyph-name="uni0534" unicode="&#x534;" horiz-adv-x="845" 
d="M860 297v-62h-181v-235h-69v471q0 108 -58.5 168t-162.5 60t-162 -60t-58 -168v-120h-69v120q0 136 76.5 213t212.5 77q137 0 213.5 -76.5t76.5 -213.5v-174h181z" />
    <glyph glyph-name="uni0535" unicode="&#x535;" horiz-adv-x="787" 
d="M707 491h-538v-207q0 -108 58.5 -168t162.5 -60t162 60t58 168v68h69v-68q0 -136 -76.5 -213t-212.5 -77t-213 77t-77 213v473h69v-203h538v-63z" />
    <glyph glyph-name="uni0536" unicode="&#x536;" horiz-adv-x="717" 
d="M534 170q164 0 164 -159v-11h-69v17q0 43 -27.5 70.5t-70.5 27.5h-398v-115h-69v283h69v-112h31q71 1 147 23t143.5 60.5t111.5 99.5t46 131q3 95 -66 154t-172 61q-110 2 -175.5 -51t-65.5 -157v-15h-69v15q0 132 83 201.5t225 67.5q135 -1 223.5 -77.5t86.5 -197.5
q-1 -53 -22.5 -100.5t-53 -81.5t-73.5 -62t-81.5 -44.5t-79.5 -27.5h162z" />
    <glyph glyph-name="uni0537" unicode="&#x537;" horiz-adv-x="663" 
d="M641 491h-472v-429h305q106 0 106 -97v-31h-69v22q0 20 -14 32t-37 12h-360v757h69v-203h472v-63z" />
    <glyph glyph-name="uni0538" unicode="&#x538;" horiz-adv-x="786" 
d="M169 62h537v-62h-606v471q0 137 77 213.5t213 76.5t212.5 -77t76.5 -213v-125h-69v125q0 108 -58 168t-162 60t-162.5 -60t-58.5 -168v-409z" />
    <glyph glyph-name="uni0539" unicode="&#x539;" horiz-adv-x="948" 
d="M951 375h-118v-167q1 -95 -67 -153.5t-173 -58.5q-106 0 -182 60t-76 163q0 97 64 157.5t180 60.5h185v34q-2 108 -82.5 168t-215.5 60q-137 0 -216 -58.5t-81 -169.5v-471h-69v471q0 138 95 214t271 76q173 0 270 -80t97 -210v-34h118v-62zM764 214v161h-181
q-85 0 -131.5 -41.5t-46.5 -113.5q0 -71 52 -116.5t137 -45.5q77 0 123 43.5t47 112.5z" />
    <glyph glyph-name="uni053A" unicode="&#x53a;" horiz-adv-x="765" 
d="M780 550v-62h-157v-251q0 -111 -68.5 -176.5t-209.5 -64.5q-58 0 -110.5 16t-96 48.5t-69.5 87.5t-26 127q0 124 77.5 199.5t212.5 75.5h221v207h69v-207h157zM554 488h-218q-45 0 -83.5 -11t-70 -35t-50 -66.5t-19.5 -100.5q0 -59 18.5 -102t52.5 -67.5t74.5 -36
t88.5 -11.5q111 0 159 51.5t48 129.5v249z" />
    <glyph glyph-name="uni053B" unicode="&#x53b;" horiz-adv-x="764" 
d="M387 617q138 0 215 -79.5t77 -216.5v-95h-69v95q0 109 -59 171.5t-164 62.5q-101 0 -159.5 -69t-58.5 -179v-307h-69v757h69v-262q77 122 218 122z" />
    <glyph glyph-name="uni053C" unicode="&#x53c;" horiz-adv-x="640" 
d="M538 62q40 0 66 -26.5t26 -66.5v-35h-69v25q0 17 -12 29t-29 12h-420v757h69v-695h369z" />
    <glyph glyph-name="uni053D" unicode="&#x53d;" horiz-adv-x="901" 
d="M748 554h68v-177q0 -271 -220 -271q-222 0 -222 271v115h-205v-492h-69v757h69v-203h274v-177q0 -209 153 -209q81 0 116.5 50t35.5 159v177z" />
    <glyph glyph-name="uni053E" unicode="&#x53e;" horiz-adv-x="892" 
d="M857 644v-63h-208q63 -45 98.5 -113t35.5 -147q-1 -138 -94.5 -231.5t-237.5 -93.5t-237.5 94t-93.5 231q0 79 35.5 147t98.5 113h-89q-63 0 -96.5 33.5t-33.5 97.5v45h69v-39q0 -74 75 -74h678zM718 321q0 108 -78 184t-188 76t-189 -76t-79 -184q0 -111 76 -187
t192 -76t191 76t75 187z" />
    <glyph glyph-name="uni053F" unicode="&#x53f;" horiz-adv-x="734" 
d="M565 575h69v-576h-69v272q-71 -116 -205 -116q-137 0 -208.5 79t-71.5 218v305h69v-305q0 -110 53.5 -172.5t157.5 -62.5q93 0 145.5 60t59.5 163v135z" />
    <glyph glyph-name="uni0540" unicode="&#x540;" horiz-adv-x="695" 
d="M475 410q159 -43 155 -205v-205h-69v209v1q0 83 -60.5 124t-152.5 41h-228v62h224q26 0 54.5 5t62.5 17t56 39.5t22 65.5q0 58 -49.5 94.5t-155.5 36.5h-3h-236v62h230h7q144 -1 210 -50t66 -147q0 -49 -34.5 -91.5t-98.5 -58.5z" />
    <glyph glyph-name="uni0541" unicode="&#x541;" horiz-adv-x="754" 
d="M702 459q0 -88 -35 -171.5t-96 -149.5l129 -111l-39 -48l-136 115q-122 -101 -263 -101q-93 0 -151.5 41.5t-59.5 110.5v1q1 66 57 105.5t154 38.5q115 -1 254 -107q116 123 116 277q0 102 -76.5 170.5t-184.5 68.5q-111 0 -178 -55t-67 -152v-13h-70v13q0 123 85.5 196
t229.5 73q141 0 236 -86.5t95 -215.5zM262 56q102 0 206 83q-61 45 -108.5 67t-97.5 23q-62 1 -101 -21t-40 -63q1 -44 42.5 -66.5t98.5 -22.5z" />
    <glyph glyph-name="uni0542" unicode="&#x542;" horiz-adv-x="838" 
d="M679 62h181v-62h-250v471q0 108 -58.5 168t-162.5 60t-162 -60t-58 -168v-125h-69v125q0 136 76.5 213t212.5 77q137 0 213.5 -76.5t76.5 -213.5v-409z" />
    <glyph glyph-name="uni0543" unicode="&#x543;" horiz-adv-x="803" 
d="M438 529q138 0 226.5 -72.5t88.5 -202.5v-254h-598v1h-7q0 207 10 355q3 55 16 111h-124v62h142q83 230 327 233h202v-62h-198q-187 -1 -258 -171h173zM217 62h468v191q0 100 -73 157t-183 57h-184q-13 -48 -18 -111q-10 -109 -10 -294z" />
    <glyph glyph-name="uni0544" unicode="&#x544;" horiz-adv-x="825" 
d="M860 757v-62h-181v-411q0 -136 -76.5 -213t-212.5 -77t-213 77t-77 213v473h69v-473q0 -108 58.5 -168t162.5 -60t162 60t58 168v473h250z" />
    <glyph glyph-name="uni0545" unicode="&#x545;" horiz-adv-x="829" 
d="M83 375h387q89 0 150.5 -41.5t61.5 -113.5q0 -58 -39.5 -96t-93.5 -52t-119 -14q-69 -1 -127.5 17.5t-100.5 62.5t-43 108h-68q-2 -119 98 -185t240 -65q145 1 233 56.5t89 162.5q1 70 -41.5 119.5t-119.5 74.5q64 17 91 57t27 86q0 99 -85.5 153.5t-207.5 55.5
q-113 1 -189.5 -48t-81.5 -146h68q16 132 205 132q104 0 163 -41.5t59 -98.5q0 -37 -18.5 -62.5t-48 -37.5t-56 -17t-52.5 -5h-381v-62z" />
    <glyph glyph-name="uni0546" unicode="&#x546;" horiz-adv-x="815" 
d="M666 444h69v-160q0 -137 -76 -213.5t-212 -76.5q-137 0 -213.5 77t-76.5 213v411h-182v62h251v-473q0 -108 58.5 -168t162.5 -60q103 0 161 60t58 168v160z" />
    <glyph glyph-name="uni0547" unicode="&#x547;" horiz-adv-x="726" 
d="M607 278h69v-12q0 -133 -82 -201t-223 -68q-138 0 -229.5 80.5t-91.5 214.5q0 125 70 205t197 113l-181 94v69l536 -278v-69l-294 152q-129 -32 -193.5 -106t-64.5 -180q0 -105 73 -169t178 -64q111 0 173.5 50.5t62.5 156.5v12z" />
    <glyph glyph-name="uni0548" unicode="&#x548;" horiz-adv-x="779" 
d="M169 471v-471h-69v471q0 137 77 213.5t213 76.5t212.5 -77t76.5 -213v-471h-69v471q0 108 -58 168t-162 60t-162.5 -60t-58.5 -168z" />
    <glyph glyph-name="uni0549" unicode="&#x549;" horiz-adv-x="725" 
d="M675 464q0 -255 -280 -351l144 -84v-69l-489 286v68l280 -163q276 90 276 313q0 100 -70.5 167.5t-174.5 67.5q-111 0 -175.5 -52t-64.5 -155v-12h-69v12q0 127 84.5 198t224.5 71q133 0 223.5 -84t90.5 -213z" />
    <glyph glyph-name="uni054A" unicode="&#x54a;" horiz-adv-x="890" 
d="M439 761q165 0 258 -77t93 -213v-471h-69v471q-5 103 -70 161t-177 66v-458h-69v458q-113 -8 -179 -66t-67 -161v-120h-69v120q0 136 92.5 213t256.5 77z" />
    <glyph glyph-name="uni054B" unicode="&#x54b;" horiz-adv-x="727" 
d="M508 182q77 0 123 -46.5t46 -124.5v-11h-68v18q0 44 -29 73t-73 29h-388v-120h-69v284h69v-102h97h1q36 15 60 38.5t29.5 48t-15 47t-67.5 33.5q-48 13 -80 32t-47 44t-21 47t-6 50v7q0 95 73.5 163.5t217.5 68.5q143 0 224.5 -86t77.5 -204q-7 -186 -287 -289h132z
M277 391q49 -15 72 -43t22.5 -58.5t-18.5 -62.5q230 96 240 244q7 89 -57 159t-175 70q-112 0 -166.5 -51t-54.5 -120v-7q1 -48 30 -77.5t107 -53.5z" />
    <glyph glyph-name="uni054C" unicode="&#x54c;" horiz-adv-x="845" 
d="M860 297v-62h-181v-235h-69v471q0 108 -58 168t-162 60t-162.5 -60t-58.5 -168v-471h-69v471q0 137 77 213.5t213 76.5t212.5 -77t76.5 -213v-174h181z" />
    <glyph glyph-name="uni054D" unicode="&#x54d;" horiz-adv-x="779" 
d="M169 284q0 -108 58.5 -168t162.5 -60t162 60t58 168v473h69v-473q0 -136 -76.5 -213t-212.5 -77t-213 77t-77 213v473h69v-473z" />
    <glyph glyph-name="uni054E" unicode="&#x54e;" horiz-adv-x="793" 
d="M634 62h182v-63h-251v270q-69 -114 -203 -114t-208 79.5t-74 217.5v137h69v-137q0 -110 54.5 -172.5t158.5 -62.5q93 0 144.5 60t58.5 163v317h69v-695z" />
    <glyph glyph-name="uni054F" unicode="&#x54f;" horiz-adv-x="761" 
d="M47 262q-3 -69 23.5 -123t73.5 -86t105 -49t125 -17q91 0 160.5 19t116 66.5t47.5 120.5q1 64 -28 107.5t-76.5 66t-106 37t-116.5 25.5t-106.5 26t-78.5 44.5t-30 74.5q1 61 59 93.5t165 31.5q105 -1 159 -42t54 -97h69q0 69 -44 115.5t-104 65t-132 20.5
q-137 4 -215.5 -47.5t-79.5 -137.5q-1 -61 28.5 -102.5t77.5 -62.5t106 -34.5t116.5 -24.5t106.5 -26.5t78 -47t30 -79.5q-1 -75 -66.5 -113t-188.5 -37q-125 1 -193.5 60t-65.5 153h-69z" />
    <glyph glyph-name="uni0550" unicode="&#x550;" horiz-adv-x="774" 
d="M169 471v-471h-69v471q0 137 77 213.5t213 76.5t212.5 -77t76.5 -213v-125h-69v125q0 108 -58 168t-162 60t-162.5 -60t-58.5 -168z" />
    <glyph glyph-name="uni0551" unicode="&#x551;" horiz-adv-x="802" 
d="M552 437q100 -15 151 -78t49 -133q-3 -113 -98.5 -169t-246.5 -57q-147 -1 -252.5 65.5t-101.5 184.5h70q0 -63 45 -107.5t107.5 -63t132.5 -17.5q50 0 94.5 8t87 26t67.5 53t25 83q0 75 -65.5 119t-156.5 44h-410v62l186 -1q-95 37 -97 127q0 86 76 132.5t191 45.5
t189.5 -50.5t74.5 -134.5q0 -53 -29.5 -90.5t-88.5 -48.5zM406 464q92 0 143 28t51 86q0 53 -54 87t-139 34q-88 0 -143 -32t-55 -89q0 -53 51 -83.5t146 -30.5z" />
    <glyph glyph-name="uni0552" unicode="&#x552;" horiz-adv-x="289" 
d="M304 523v-62h-203v-461h-68v757h68v-234h203z" />
    <glyph glyph-name="uni0553" unicode="&#x553;" horiz-adv-x="931" 
d="M881 380q0 -122 -98.5 -197t-282.5 -82v-101h-68v101q-185 7 -283.5 82t-98.5 197q0 123 97.5 196.5t284.5 79.5v101h68v-101q185 -7 283 -81t98 -195zM500 163q153 5 232 62t79 155t-78.5 153.5t-232.5 60.5v-431zM120 380q0 -98 79 -154.5t233 -62.5v431
q-156 -5 -234 -60.5t-78 -153.5z" />
    <glyph glyph-name="uni0554" unicode="&#x554;" horiz-adv-x="776" 
d="M735 175v-62h-551v-113h-69v113h-73v62h73v335q2 112 81.5 181.5t212.5 69.5q130 0 211 -67.5t81 -171.5t-78.5 -171.5t-202.5 -67.5q-154 0 -236 99v-207h551zM408 700q-101 -1 -162.5 -51.5t-61.5 -126.5q0 -75 63.5 -126t160.5 -51q100 0 160.5 50.5t60.5 126.5
t-60.5 127.5t-160.5 50.5z" />
    <glyph glyph-name="uni0555" unicode="&#x555;" horiz-adv-x="900" 
d="M450 773q168 0 285.5 -112.5t117.5 -275.5t-117.5 -277t-285.5 -114q-167 0 -284.5 114t-117.5 277t117 275.5t285 112.5zM451 711q-137 0 -234 -95t-97 -231t97.5 -232t233.5 -96t232.5 96t96.5 232t-96.5 231t-232.5 95z" />
    <glyph glyph-name="uni0556" unicode="&#x556;" horiz-adv-x="795" 
d="M765 233q1 -119 -103 -179t-262 -58q-162 2 -267 69.5t-103 187.5h69q-2 -81 71.5 -134t201.5 -60v354q-243 14 -243 173q0 167 243 171h69v-285q322 -15 324 -239zM198 589q0 -60 41 -85t133 -30v221q-174 -3 -174 -106zM441 58q73 3 127.5 19.5t91.5 56t37 99.5
q0 86 -63 128t-193 50v-353z" />
    <glyph glyph-name="uni0559" unicode="&#x559;" horiz-adv-x="145" 
d="M16 776l39 -113h-40l-50 113q-12 28 -12 39q0 19 12.5 31.5t30.5 12.5q19 0 32 -12.5t13 -31.5q0 -28 -25 -39z" />
    <glyph glyph-name="uni055A" unicode="&#x55a;" horiz-adv-x="145" 
d="M11 859q18 0 31 -12.5t13 -31.5q0 -11 -12 -39l-51 -113h-39l39 113q-25 11 -25 39q0 19 12.5 31.5t31.5 12.5z" />
    <glyph glyph-name="uni055B" unicode="&#x55b;" horiz-adv-x="59" 
d="M-56 820h84l-130 -187h-58z" />
    <glyph glyph-name="uni055C" unicode="&#x55c;" horiz-adv-x="176" 
d="M28 876l62 9q6 -31 6 -55.5t-4 -40.5t-14.5 -27.5t-21 -17t-27.5 -9.5t-29.5 -5l-32 -2.5t-30.5 -2.5q-33 -5 -44 -34.5t11 -72.5l-62 -9q-23 56 -9.5 98t60.5 62q14 6 32 9.5t32.5 5t30 3.5t25.5 7t17 14t6.5 26t-8.5 42z" />
    <glyph glyph-name="uni055D" unicode="&#x55d;" horiz-adv-x="138" 
d="M-22 820l105 -187h-64l-129 187h88z" />
    <glyph glyph-name="uni055E" unicode="&#x55e;" horiz-adv-x="162" 
d="M-19 632v53q52 0 69 39q15 36 -14 62q-23 21 -65 21q-115 0 -111 -219h-60q-2 144 41.5 209t129.5 65q100 0 134 -64q27 -51 -4 -104q-41 -60 -120 -62z" />
    <glyph glyph-name="uni055F" unicode="&#x55f;" horiz-adv-x="379" 
d="M228 535q-103 0 -146.5 39.5t-43.5 88.5q0 57 44.5 92t124.5 35h13v-47h-9q-47 0 -78.5 -20t-31.5 -59t36 -58.5t97 -19.5h130v-51h-136z" />
    <glyph glyph-name="uni0561" unicode="&#x561;" horiz-adv-x="972" 
d="M805 524h67v-524h-67v120q-48 -120 -182 -122q-68 0 -112 37.5t-58 105.5q-43 -141 -188 -143q-84 0 -130.5 54t-46.5 150v322h67v-306q0 -75 33.5 -116.5t96.5 -41.5q76 2 119 58.5t43 148.5v257h67v-306q0 -75 33 -116.5t97 -41.5q68 2 110.5 47.5t50.5 122.5v294z" />
    <glyph glyph-name="uni0562" unicode="&#x562;" horiz-adv-x="651" 
d="M606 52v-52h-438v-211h-68v735h68v-122q54 122 207 124q94 0 147 -54t53 -150v-142h-67v126q0 74 -41.5 116t-114.5 42q-80 -1 -128.5 -50t-55.5 -132v-230h438z" />
    <glyph glyph-name="uni0563" unicode="&#x563;" horiz-adv-x="719" 
d="M736 52v-52h-154v-211h-68v330q-30 -58 -84.5 -90.5t-125.5 -32.5q-112 0 -183 75t-71 192q0 116 71 190.5t182 74.5q72 0 126.5 -32.5t84.5 -90.5v119h68v-472h154zM316 54q87 0 142.5 58t55.5 149t-55.5 150t-142.5 59q-86 0 -142 -59t-56 -150t55.5 -149t142.5 -58z
" />
    <glyph glyph-name="uni0564" unicode="&#x564;" horiz-adv-x="712" 
d="M730 52v-52h-155v-211h-67v517q0 74 -41.5 116t-114.5 42q-80 -1 -128.5 -50t-55.5 -132v-282h-68v524h68v-122q54 122 207 124q94 0 147 -54t53 -150v-270h155z" />
    <glyph glyph-name="uni0565" unicode="&#x565;" horiz-adv-x="639" 
d="M594 471h-439v-253q0 -74 40.5 -115.5t111.5 -41.5q85 1 133 57t48 149v83h67v-350h-67v126q-52 -126 -203 -128q-93 0 -145 54t-52 150v555h67v-233h439v-53z" />
    <glyph glyph-name="uni0566" unicode="&#x566;" horiz-adv-x="701" 
d="M582 -159h154v-52h-222v330q-30 -58 -84.5 -90.5t-125.5 -32.5q-112 0 -183 75t-71 192q0 116 71 190.5t182 74.5q72 0 126.5 -32.5t84.5 -90.5v119h68v-683zM316 54q87 0 142.5 58t55.5 149t-55.5 150t-142.5 59q-86 0 -142 -59t-56 -150t55.5 -149t142.5 -58z" />
    <glyph glyph-name="uni0567" unicode="&#x567;" horiz-adv-x="588" 
d="M543 471h-375v-415h148q133 0 133 -121h-58q-1 65 -85 65h-206v757h68v-233h375v-53z" />
    <glyph glyph-name="uni0568" unicode="&#x568;" horiz-adv-x="652" 
d="M168 -163h439v-53h-506l-1 740h68v-122q54 122 207 124q94 0 147 -54t53 -150v-322h-67v306q0 74 -41.5 116t-114.5 42q-80 -1 -128.5 -50t-55.5 -132v-445z" />
    <glyph glyph-name="uni0569" unicode="&#x569;" horiz-adv-x="762" 
d="M794 332v-52h-107v-110q0 -86 -52 -129t-129 -43q-88 0 -139 47.5t-51 122.5q0 79 51 121.5t140 42.5h110q-9 66 -66 99.5t-146 33.5q-100 0 -168.5 -60.5t-68.5 -147.5v-468h-68v735h68v-124q36 62 103 95t151 33q116 0 188.5 -50t76.5 -146h107zM619 169v111h-125
q-45 0 -81.5 -26.5t-36.5 -87.5q0 -48 34 -81t93 -33q55 0 85.5 29.5t30.5 87.5z" />
    <glyph glyph-name="uni056A" unicode="&#x56a;" horiz-adv-x="672" 
d="M702 465h-149v-230q1 -114 -62.5 -176t-174.5 -62t-184.5 69t-73.5 191q0 114 67.5 190.5t187.5 76.5h173v233h67v-233h149v-59zM486 241v224h-164q-94 0 -145.5 -60.5t-51.5 -150.5q0 -79 47.5 -139.5t142.5 -60.5q89 -1 130 50.5t41 136.5z" />
    <glyph glyph-name="uni056B" unicode="&#x56b;" horiz-adv-x="663" 
d="M375 526q94 0 147 -54t53 -150v-322h-67v306q0 74 -41.5 116t-114.5 42q-80 -1 -128.5 -50t-55.5 -132v-493h-68v968h68v-355q54 122 207 124z" />
    <glyph glyph-name="uni056C" unicode="&#x56c;" horiz-adv-x="287" 
d="M168 -159h154v-52h-222v735h68v-683z" />
    <glyph glyph-name="uni056D" unicode="&#x56d;" horiz-adv-x="934" 
d="M767 524h67v-524h-67v118q-49 -118 -181 -120q-83 0 -130 54.5t-47 149.5v270h-241v-683h-68v968h68v-233h308v-306q0 -75 33.5 -116.5t97.5 -41.5q67 2 109.5 48t50.5 122v294z" />
    <glyph glyph-name="uni056E" unicode="&#x56e;" horiz-adv-x="634" 
d="M624 524v-52h-151q58 -52 89.5 -106.5t30.5 -126.5q0 -107 -74 -174.5t-195 -66.5q-115 0 -192 73t-77 189q0 109 73.5 185.5t189.5 78.5q-89 77 -119 149q-12 30 -9 52t12 35l10 13h66q-2 -2 -4 -4.5t-7 -12t-8 -19t-2 -24t7 -27.5q14 -30 40 -61t47.5 -50l60.5 -51h212
zM525 242q1 70 -36 121.5t-107 108.5h-53q-89 0 -147 -64t-59 -148q0 -81 54.5 -142.5t148.5 -62.5q94 0 146.5 56.5t52.5 130.5z" />
    <glyph glyph-name="uni056F" unicode="&#x56f;" horiz-adv-x="655" 
d="M488 524h67v-735h-67v337q-52 -126 -203 -128q-93 0 -145 54t-52 150v555h67v-539q0 -74 40.5 -115.5t111.5 -41.5q85 1 133 57t48 149v257z" />
    <glyph glyph-name="uni0570" unicode="&#x570;" horiz-adv-x="664" 
d="M376 526q94 0 147 -54t53 -150v-322h-67v306q0 74 -41.5 116t-114.5 42q-86 -1 -135.5 -57.5t-49.5 -149.5v-257h-68v757h68v-357q53 124 208 126z" />
    <glyph glyph-name="uni0571" unicode="&#x571;" horiz-adv-x="626" 
d="M362 511q107 -44 160 -116t53 -203v-192h-67v97q-59 -99 -195 -99q-103 0 -173.5 64t-69.5 177q1 83 46 145.5t126 115.5q68 48 166 110h-139q-119 0 -119 106v41h73v-40q0 -27 12.5 -41t45.5 -14h187q26 -1 35.5 -12t4 -25.5t-21.5 -26.5q-42 -27 -124 -87zM318 56
q72 0 124 41.5t66 114.5q-4 104 -48.5 163t-146.5 99q-3 -2 -32 -23q-71 -49 -106.5 -99t-36.5 -111q-2 -83 46.5 -134t133.5 -51z" />
    <glyph glyph-name="uni0572" unicode="&#x572;" horiz-adv-x="695" 
d="M575 -159h155v-52h-222v517q0 74 -41.5 116t-114.5 42q-80 -1 -128.5 -50t-55.5 -132v-282h-68v524h68v-122q54 122 207 124q94 0 147 -54t53 -150v-481z" />
    <glyph glyph-name="uni0573" unicode="&#x573;" horiz-adv-x="650" 
d="M612 0h-67l-4 113q-72 -117 -230 -116q-56 1 -100.5 18.5t-71 45.5t-42.5 64t-16 74t8 75l52 184h-115v59h131l24 85q24 85 77 122t148 37h137v-59h-128q-68 0 -109.5 -28t-59.5 -91l-19 -66h106q144 0 206 -65.5t66 -207.5zM329 56q52 0 93 17t64 44.5t35.5 54
t16.5 51.5l-1 19q-3 110 -49.5 163t-168.5 53h-109l-54 -185q-13 -34 -7 -72t23 -70t58.5 -53.5t98.5 -21.5z" />
    <glyph glyph-name="uni0574" unicode="&#x574;" horiz-adv-x="654" 
d="M708 757v-52h-154v-705h-68v121q-52 -121 -201 -123q-93 0 -145 54t-52 150v322h67v-306q0 -74 40.5 -116t111.5 -41q76 1 123 47t56 124v525h222z" />
    <glyph glyph-name="uni0575" unicode="&#x575;" horiz-adv-x="270" 
d="M59 -165v-50q60 11 94.5 39.5t43 63t5 82t-15 89.5t-22.5 93t-12 84v289h-67v-278q0 -38 8.5 -86t19 -86t17 -79t5 -70.5t-20 -54t-55.5 -36.5z" />
    <glyph glyph-name="uni0576" unicode="&#x576;" horiz-adv-x="658" 
d="M490 524h68v-524h-68v125q-52 -125 -202 -127q-93 0 -145.5 54.5t-52.5 149.5v503h-155v52h223v-539q0 -74 40.5 -115.5t111.5 -41.5q84 1 132 57.5t48 148.5v257z" />
    <glyph glyph-name="uni0577" unicode="&#x577;" horiz-adv-x="569" 
d="M519 -155l-258 -1q-67 0 -98 24t-29 70q1 19 10.5 36.5t21 29t35.5 26t38.5 21.5t47 21l45.5 20q77 34 108 59q81 65 79 175q-2 87 -62.5 145t-163.5 57q-101 0 -157.5 -52.5t-62.5 -132.5h67q7 55 45 91.5t109 35.5q74 -1 115 -41t43 -105q1 -31 -8.5 -56.5t-21 -41.5
t-36 -32t-37 -22.5t-40.5 -18.5q-7 -3 -11 -5l-49 -21.5t-55 -25.5t-45.5 -27t-43.5 -35t-25 -41t-13 -54q-1 -84 48 -118.5t143 -33.5l261 1v52z" />
    <glyph glyph-name="uni0578" unicode="&#x578;" horiz-adv-x="663" 
d="M375 526q94 0 147 -54t53 -150v-322h-67v306q0 74 -41.5 116t-114.5 42q-80 -1 -128.5 -50t-55.5 -132v-282h-68v524h68v-122q54 122 207 124z" />
    <glyph glyph-name="uni0579" unicode="&#x579;" horiz-adv-x="445" 
d="M478 -159h-260q-58 0 -87 13t-30 48q0 8 2.5 17.5t8 19.5t11 18t15 19l15.5 18t17.5 18l16.5 15.5l16.5 15t13.5 12.5l123 107q24 22 26.5 46.5t-10 43t-35.5 34.5l-95 64q-42 27 -10 63l72 91l-47 36l-95 -116q-19 -19 -17 -47t31 -46l101 -72q56 -35 15 -72l-116 -99
l-33.5 -31t-30.5 -32t-32.5 -41t-18.5 -38.5t-10 -44.5q0 -57 41.5 -84.5t139.5 -27.5h262v52z" />
    <glyph glyph-name="uni057A" unicode="&#x57a;" horiz-adv-x="972" 
d="M805 524h67v-735h-67v331q-48 -120 -182 -122q-68 0 -112 37.5t-58 105.5q-43 -141 -188 -143q-84 0 -130.5 54t-46.5 150v322h67v-306q0 -75 33.5 -116.5t96.5 -41.5q76 2 119 58.5t43 148.5v257h67v-306q0 -75 33 -116.5t97 -41.5q68 2 110.5 47.5t50.5 122.5v294z" />
    <glyph glyph-name="uni057B" unicode="&#x57b;" horiz-adv-x="589" 
d="M133 -92q0 -36 34.5 -52t83.5 -15h279v-52h-283q-92 0 -137 26t-45 93q0 46 28 78t81 59q52 58 26 94q-8 11 -31.5 26l-43.5 28.5t-36 47.5t-16 82q-1 86 59.5 145t169.5 58q110 -1 170.5 -64t61.5 -151q0 -56 -15 -99t-46.5 -73t-62.5 -49t-78 -40l-36.5 -15.5
l-35 -14.5t-30.5 -13.5t-28 -14t-23 -13.5t-20 -15.5t-14 -16t-9.5 -18.5t-2.5 -21zM266 162q15 -28 -12 -81q2 1 18.5 8l25.5 11q32 14 50 23t44 27t40 37.5t24.5 50.5t9.5 68q-1 65 -42 113t-120 49q-76 0 -120 -43.5t-44 -100.5q0 -43 16.5 -70.5t36.5 -36.5t42.5 -23
t30.5 -32z" />
    <glyph glyph-name="uni057C" unicode="&#x57c;" horiz-adv-x="652" 
d="M428 52h169v-52h-237v52h1q6 7 31.5 33t35 36.5t29 36t27.5 44.5t16 47t8 57q0 74 -41.5 116t-114.5 42q-80 -1 -128.5 -50t-55.5 -132v-282h-68v524h68v-122q54 122 207 124q94 0 147 -54t53 -150q0 -84 -41 -148t-106 -122z" />
    <glyph glyph-name="uni057D" unicode="&#x57d;" horiz-adv-x="655" 
d="M488 524h67v-524h-67v126q-52 -126 -203 -128q-93 0 -145 54t-52 150v322h67v-306q0 -74 40.5 -115.5t111.5 -41.5q85 1 133 57t48 149v257z" />
    <glyph glyph-name="uni057E" unicode="&#x57e;" horiz-adv-x="675" 
d="M555 -159h155v-52h-222v337q-52 -126 -203 -128q-93 0 -145 54t-52 150v322h67v-306q0 -74 40.5 -115.5t111.5 -41.5q85 1 133 57t48 149v490h67v-916z" />
    <glyph glyph-name="uni057F" unicode="&#x57f;" horiz-adv-x="954" 
d="M690 526q83 0 130 -54.5t47 -149.5v-322h-67v306q0 76 -33.5 117t-97.5 41q-62 -1 -103.5 -41t-53.5 -108v-315h-67v119q-48 -119 -180 -121q-84 0 -130.5 54t-46.5 150v322h67v-306q0 -75 33.5 -116.5t96.5 -41.5q67 2 109.5 47.5t50.5 122.5v294h67v-110
q51 110 178 112z" />
    <glyph glyph-name="uni0580" unicode="&#x580;" horiz-adv-x="663" 
d="M375 526q94 0 147 -54t53 -150v-322h-67v306q0 74 -41.5 116t-114.5 42q-80 -1 -128.5 -50t-55.5 -132v-493h-68v735h68v-122q54 122 207 124z" />
    <glyph glyph-name="uni0581" unicode="&#x581;" horiz-adv-x="650" 
d="M490 524h67v-488q0 -115 -71 -183t-190 -68q-118 0 -214 79l31 48q82 -71 181 -71q89 0 142.5 52.5t53.5 140.5v104q-28 -55 -79.5 -85.5t-119.5 -30.5q-106 0 -173.5 71t-67.5 182q0 110 67 180.5t172 70.5q68 1 120 -29.5t81 -86.5v114zM302 76q82 0 135 55.5t53 141.5
q0 87 -52.5 142.5t-135.5 55.5q-82 0 -135 -56t-53 -142t53 -141.5t135 -55.5z" />
    <glyph glyph-name="uni0582" unicode="&#x582;" horiz-adv-x="302" 
d="M98 52h154v-52h-222v524h68v-472z" />
    <glyph glyph-name="uni0583" unicode="&#x583;" horiz-adv-x="954" 
d="M690 526q83 0 130 -54.5t47 -149.5v-322h-67v306q0 76 -33.5 117t-97.5 41q-62 -1 -103.5 -41t-53.5 -108v-526h-67v330q-48 -119 -180 -121q-84 0 -130.5 54t-46.5 150v322h67v-306q0 -75 33.5 -116.5t96.5 -41.5q67 2 109.5 47.5t50.5 122.5v535h67v-351
q51 110 178 112z" />
    <glyph glyph-name="uni0584" unicode="&#x584;" horiz-adv-x="734" 
d="M679 -69v-52h-484v-90h-67v90h-83v52h83v593h67v-121q29 58 83.5 90.5t125.5 32.5q111 0 181.5 -74t70.5 -191q0 -116 -70 -189.5t-181 -73.5q-72 0 -126 32.5t-84 90.5v-190h484zM392 469q-86 0 -141.5 -58.5t-55.5 -147.5q0 -91 55.5 -149t141.5 -58t141 58t55 149
q0 89 -55.5 147.5t-140.5 58.5z" />
    <glyph glyph-name="uni0585" unicode="&#x585;" horiz-adv-x="629" 
d="M315 526q116 0 190 -73.5t74 -189.5q0 -117 -74 -191t-190 -74t-190.5 74t-74.5 191q0 116 74.5 189.5t190.5 73.5zM315 468q-86 0 -141.5 -57.5t-55.5 -148.5q0 -92 55 -149.5t142 -57.5q86 0 141 57.5t55 149.5q0 91 -55 148.5t-141 57.5z" />
    <glyph glyph-name="uni0586" unicode="&#x586;" horiz-adv-x="752" 
d="M729 233q1 -111 -85.5 -171t-225.5 -66v-207h-68v208q-149 8 -239.5 74.5t-87.5 181.5h67q-1 -83 67.5 -137t192.5 -61v360q-104 7 -163 44.5t-59 126.5q0 48 19.5 82.5t53.5 52.5t70.5 26.5t78.5 9.5h68v-287q89 -5 151.5 -26t96 -54t48.5 -71t15 -86zM195 589
q0 -59 37 -84.5t118 -31.5v226q-155 -3 -155 -110zM418 55q108 4 176 47t68 131q0 85 -60 127t-184 51v-356z" />
    <glyph glyph-name="uni05650582" unicode="&#x587;" horiz-adv-x="760" 
d="M555 52h155v-52h-222v126q-52 -126 -203 -128q-93 0 -145 54t-52 150v555h67v-539q0 -74 40.5 -115.5t111.5 -41.5q85 1 133 57t48 149v257h67v-472z" />
    <glyph glyph-name="uni0589" unicode="&#x589;" horiz-adv-x="304" 
d="M152 528q19 0 32 -13t13 -32t-13 -32.5t-32 -13.5t-31.5 13t-12.5 33q0 19 12.5 32t31.5 13zM152 83q19 0 32 -13t13 -32t-13 -32.5t-32 -13.5t-31.5 13t-12.5 33q0 19 12.5 32t31.5 13z" />
    <glyph glyph-name="uni058A" unicode="&#x58a;" horiz-adv-x="418" 
d="M377 251l11 -45q-85 -61 -176 -62q-106 -1 -182 66l20 42q76 -56 161 -56q78 -1 166 55z" />
    <glyph glyph-name="uni058F" unicode="&#x58f;" horiz-adv-x="836" 
d="M851 290h-172v-127h172v-63h-172v-100h-69v100h-175v63h175v127h-175v63h175v118q0 108 -58.5 168t-162.5 60t-162 -60t-58 -168v-120h-69v120q0 136 76.5 213t212.5 77q137 0 213.5 -76.5t76.5 -213.5v-118h172v-63z" />
    <glyph glyph-name="uni1E08" unicode="&#x1e08;" horiz-adv-x="701" 
d="M521 867l-126 -100l-60 7l117 123zM407 -53q40 -4 60.5 -26t20.5 -51q0 -38 -28.5 -62t-74.5 -24t-85 22l16 43q30 -16 62 -16q26 0 40.5 13t14.5 30q0 16 -14.5 27.5t-39.5 11.5h-30l24 80q-140 11 -235.5 113.5t-95.5 242.5q0 148 106 251t258 103q70 0 136.5 -26.5
t116.5 -73.5l-41 -48q-89 87 -211 87q-123 0 -209 -85.5t-86 -207.5t86 -207.5t209 -85.5q120 0 211 85l42 -45q-105 -97 -238 -103z" />
    <glyph glyph-name="uni1E09" unicode="&#x1e09;" horiz-adv-x="561" 
d="M426 742l-126 -100l-60 7l117 123zM509 86q-66 -82 -191 -88l-16 -51q40 -4 60.5 -26t20.5 -51q0 -38 -28.5 -62t-74.5 -24t-85 22l16 43q30 -16 62 -16q26 0 40.5 13t14.5 30q0 16 -14.5 27.5t-39.5 11.5h-30l26 85q-101 11 -164 83t-63 179q0 116 73 190t187 74
q124 0 198 -76l-38 -45q-64 62 -157 62q-86 0 -141 -57.5t-55 -147.5q0 -91 55 -148.5t141 -57.5q104 0 165 70z" />
    <glyph glyph-name="uni1E0C" unicode="&#x1e0c;" horiz-adv-x="793" 
d="M391 699q152 0 256 -101t104 -249q0 -147 -104.5 -248t-257.5 -101h-279v699h281zM393 62q120 0 204 83t84 204q0 122 -84.5 205t-206.5 83h-211v-575h214zM386 -76q20 0 33 -13.5t13 -33.5t-13.5 -34t-32.5 -14q-20 0 -33.5 14t-13.5 34t13.5 33.5t33.5 13.5z" />
    <glyph glyph-name="uni1E0D" unicode="&#x1e0d;" horiz-adv-x="678" 
d="M508 742h67v-742h-67v120q-30 -59 -84 -91.5t-126 -32.5q-112 0 -183 75t-71 192q0 116 71 190.5t182 74.5q72 0 126.5 -33t84.5 -92v339zM310 54q86 0 142 58t56 149t-56 150t-142 59q-87 0 -142.5 -59t-56.5 -150q1 -91 56.5 -149t142.5 -58zM344 -76q20 0 33 -13.5
t13 -33.5t-13.5 -34t-32.5 -14q-20 0 -33.5 14t-13.5 34t13.5 33.5t33.5 13.5z" />
    <glyph glyph-name="uni1E0E" unicode="&#x1e0e;" horiz-adv-x="793" 
d="M391 699q152 0 256 -101t104 -249q0 -147 -104.5 -248t-257.5 -101h-279v699h281zM393 62q120 0 204 83t84 204q0 122 -84.5 205t-206.5 83h-211v-575h214zM247 -86h276v-46h-276v46z" />
    <glyph glyph-name="uni1E0F" unicode="&#x1e0f;" horiz-adv-x="678" 
d="M508 742h67v-742h-67v120q-30 -59 -84 -91.5t-126 -32.5q-112 0 -183 75t-71 192q0 116 71 190.5t182 74.5q72 0 126.5 -33t84.5 -92v339zM310 54q86 0 142 58t56 149t-56 150t-142 59q-87 0 -142.5 -59t-56.5 -150q1 -91 56.5 -149t142.5 -58zM205 -132v46h276v-46h-276
z" />
    <glyph glyph-name="uni1E14" unicode="&#x1e14;" horiz-adv-x="650" 
d="M283 985l138 -99l-54 -17l-142 78zM242 817h236v-46h-236v46zM110 699h468v-62h-399v-250h357v-62h-357v-263h412v-62h-481v699z" />
    <glyph glyph-name="uni1E15" unicode="&#x1e15;" horiz-adv-x="589" 
d="M360 728l-54 -17l-142 78l58 38zM181 613v46h236v-46h-236zM302 526q122 0 186 -77.5t59 -208.5h-437q7 -84 62 -135.5t136 -51.5q103 0 167 69l38 -38q-80 -86 -209 -86q-115 0 -188 74t-73 190t73 190t186 74zM110 292h377q-5 82 -54.5 130.5t-129.5 48.5
q-79 0 -132 -49t-61 -130z" />
    <glyph glyph-name="uni1E16" unicode="&#x1e16;" horiz-adv-x="650" 
d="M419 985l57 -38l-141 -78l-55 17zM227 817h236v-46h-236v46zM110 699h468v-62h-399v-250h357v-62h-357v-263h412v-62h-481v699z" />
    <glyph glyph-name="uni1E17" unicode="&#x1e17;" horiz-adv-x="589" 
d="M434 789l-141 -78l-55 17l139 99zM421 659v-46h-236v46h236zM302 526q122 0 186 -77.5t59 -208.5h-437q7 -84 62 -135.5t136 -51.5q103 0 167 69l38 -38q-80 -86 -209 -86q-115 0 -188 74t-73 190t73 190t186 74zM110 292h377q-5 82 -54.5 130.5t-129.5 48.5
q-79 0 -132 -49t-61 -130z" />
    <glyph glyph-name="uni1E1C" unicode="&#x1e1c;" horiz-adv-x="650" 
d="M339 767q-51 0 -86 34.5t-37 88.5h49q2 -32 22.5 -53.5t51.5 -21.5t51.5 21.5t22.5 53.5h49q-1 -54 -36 -88.5t-87 -34.5zM591 0h-206l-17 -53q40 -4 60.5 -26t20.5 -51q0 -38 -28.5 -62t-74.5 -24t-85 22l16 43q30 -16 62 -16q26 0 40.5 13t14.5 30q0 16 -14.5 27.5
t-39.5 11.5h-30l26 85h-226v699h468v-62h-399v-250h357v-62h-357v-263h412v-62z" />
    <glyph glyph-name="uni1E1D" unicode="&#x1e1d;" horiz-adv-x="589" 
d="M292 639q-51 0 -86 34.5t-37 88.5h49q2 -32 22.5 -53.5t51.5 -21.5t51.5 21.5t22.5 53.5h49q-1 -54 -36 -88.5t-87 -34.5zM302 526q122 0 186 -77.5t59 -208.5h-437q7 -84 62 -135.5t136 -51.5q103 0 167 69l38 -38q-71 -77 -185 -85l-17 -52q40 -4 60.5 -26t20.5 -51
q0 -38 -28.5 -62t-74.5 -24t-85 22l16 43q30 -16 62 -16q26 0 40.5 13t14.5 30q0 16 -14.5 27.5t-39.5 11.5h-30l26 84q-105 8 -170.5 81t-65.5 182q0 116 73 190t186 74zM110 292h377q-5 82 -54.5 130.5t-129.5 48.5q-79 0 -132 -49t-61 -130z" />
    <glyph glyph-name="uni1E20" unicode="&#x1e20;" horiz-adv-x="755" 
d="M540 821v-46h-312v46h312zM601 119v223h61v-256q-51 -43 -118.5 -67.5t-137.5 -24.5q-151 0 -257.5 104t-106.5 253q0 148 107 251t260 103q147 0 255 -95l-40 -49q-89 83 -215 83q-124 0 -210.5 -85.5t-86.5 -207.5q0 -123 87 -209t211 -86q102 0 191 63z" />
    <glyph glyph-name="uni1E21" unicode="&#x1e21;" horiz-adv-x="635" 
d="M439 697v-46h-276v46h276zM484 524h67v-469q0 -115 -71 -183t-190 -68q-116 0 -215 80l32 48q80 -71 180 -71q90 0 143.5 52.5t53.5 140.5v85q-28 -55 -80 -86t-120 -31q-106 0 -173 71t-67 182q0 110 66.5 180.5t171.5 70.5q69 1 121 -30t81 -87v115zM296 76
q82 0 135 55.5t53 141.5q0 87 -53 142.5t-135 55.5t-135 -56t-54 -142q1 -86 53.5 -141.5t135.5 -55.5z" />
    <glyph glyph-name="uni1E24" unicode="&#x1e24;" horiz-adv-x="795" 
d="M110 699h69v-320h437v320h69v-699h-69v317h-437v-317h-69v699zM398 -76q20 0 33 -13.5t13 -33.5t-13.5 -34t-32.5 -14q-20 0 -33.5 14t-13.5 34t13.5 33.5t33.5 13.5z" />
    <glyph glyph-name="uni1E25" unicode="&#x1e25;" horiz-adv-x="660" 
d="M378 526q94 0 147.5 -54.5t53.5 -149.5v-322h-68v306q0 74 -41 116t-114 42q-87 -1 -136.5 -57.5t-49.5 -149.5v-257h-67v742h67v-342q53 124 208 126zM341 -76q20 0 33 -13.5t13 -33.5t-13.5 -34t-32.5 -14q-20 0 -33.5 14t-13.5 34t13.5 33.5t33.5 13.5z" />
    <glyph glyph-name="uni1E2A" unicode="&#x1e2a;" horiz-adv-x="795" 
d="M110 699h69v-320h437v320h69v-699h-69v317h-437v-317h-69v699zM324 -50q2 -32 22.5 -53.5t51.5 -21.5t51.5 21.5t22.5 53.5h49q-1 -54 -36 -88.5t-87 -34.5q-51 0 -86 34.5t-37 88.5h49z" />
    <glyph glyph-name="uni1E2B" unicode="&#x1e2b;" horiz-adv-x="660" 
d="M378 526q94 0 147.5 -54.5t53.5 -149.5v-322h-68v306q0 74 -41 116t-114 42q-87 -1 -136.5 -57.5t-49.5 -149.5v-257h-67v742h67v-342q53 124 208 126zM341 -125q31 0 51.5 21.5t22.5 53.5h49q-1 -54 -36 -88.5t-87 -34.5q-51 0 -86 34.5t-37 88.5h49q2 -32 22.5 -53.5
t51.5 -21.5z" />
    <glyph glyph-name="uni1E2E" unicode="&#x1e2e;" horiz-adv-x="289" 
d="M212 989l57 -38l-141 -78l-55 17zM62 852q18 0 30 -12t12 -30t-12 -31t-30 -13t-30 13t-12 31t12 30t30 12zM213 852q17 0 29.5 -12t12.5 -30t-12.5 -31t-29.5 -13q-18 0 -30.5 13t-12.5 31t12.5 30t30.5 12zM110 699h69v-699h-69v699z" />
    <glyph glyph-name="uni1E2F" unicode="&#x1e2f;" horiz-adv-x="262" 
d="M199 834l57 -38l-141 -78l-55 17zM49 697q18 0 30 -12t12 -30t-12 -31t-30 -13t-30 13t-12 31t12 30t30 12zM200 697q17 0 29.5 -12t12.5 -30t-12.5 -31t-29.5 -13q-18 0 -30.5 13t-12.5 31t12.5 30t30.5 12zM98 524h67v-524h-67v524z" />
    <glyph glyph-name="uni1E36" unicode="&#x1e36;" horiz-adv-x="513" 
d="M110 699h69v-637h308v-62h-377v699zM299 -76q20 0 33 -13.5t13 -33.5t-13.5 -34t-32.5 -14q-20 0 -33.5 14t-13.5 34t13.5 33.5t33.5 13.5z" />
    <glyph glyph-name="uni1E37" unicode="&#x1e37;" horiz-adv-x="273" 
d="M103 742h67v-742h-67v742zM137 -76q20 0 33 -13.5t13 -33.5t-13.5 -34t-32.5 -14q-20 0 -33.5 14t-13.5 34t13.5 33.5t33.5 13.5z" />
    <glyph glyph-name="uni1E3A" unicode="&#x1e3a;" horiz-adv-x="513" 
d="M110 699h69v-637h308v-62h-377v699zM160 -86h276v-46h-276v46z" />
    <glyph glyph-name="uni1E3B" unicode="&#x1e3b;" horiz-adv-x="273" 
d="M103 742h67v-742h-67v742zM-2 -86h276v-46h-276v46z" />
    <glyph glyph-name="uni1E42" unicode="&#x1e42;" horiz-adv-x="937" 
d="M110 700h86l274 -525l271 525h86v-700h-64l-1 604l-274 -529h-38l-275 529v-604h-65v700zM469 -76q20 0 33 -13.5t13 -33.5t-13.5 -34t-32.5 -14q-20 0 -33.5 14t-13.5 34t13.5 33.5t33.5 13.5z" />
    <glyph glyph-name="uni1E43" unicode="&#x1e43;" horiz-adv-x="1045" 
d="M767 526q93 0 145 -54t52 -150v-322h-68v306q0 75 -40.5 116.5t-111.5 41.5q-84 -2 -131.5 -58t-47.5 -148v-258h-68v306q0 75 -40.5 116.5t-111.5 41.5q-84 -2 -132 -58t-48 -148v-258h-67v524h67v-123q52 123 203 125q75 0 124.5 -37t65.5 -104q49 139 209 141z
M531 -76q20 0 33 -13.5t13 -33.5t-13.5 -34t-32.5 -14q-20 0 -33.5 14t-13.5 34t13.5 33.5t33.5 13.5z" />
    <glyph glyph-name="uni1E44" unicode="&#x1e44;" horiz-adv-x="796" 
d="M411 767q-19 0 -32.5 14t-13.5 34t13 33.5t33 13.5t33.5 -13.5t13.5 -33.5t-13.5 -34t-33.5 -14zM617 699h68v-699h-73l-433 592v-592h-69v699h73l434 -592v592z" />
    <glyph glyph-name="uni1E45" unicode="&#x1e45;" horiz-adv-x="654" 
d="M344 627q-20 0 -33.5 14t-13.5 34t13.5 33.5t33.5 13.5t33 -13.5t13 -33.5t-13.5 -34t-32.5 -14zM372 526q94 0 147.5 -54.5t53.5 -149.5v-322h-68v306q0 74 -41 116t-114 42q-81 -1 -129.5 -50t-55.5 -132v-282h-67v524h67v-122q54 122 207 124z" />
    <glyph glyph-name="uni1E46" unicode="&#x1e46;" horiz-adv-x="796" 
d="M617 699h68v-699h-73l-433 592v-592h-69v699h73l434 -592v592zM396 -76q20 0 33 -13.5t13 -33.5t-13.5 -34t-32.5 -14q-20 0 -33.5 14t-13.5 34t13.5 33.5t33.5 13.5z" />
    <glyph glyph-name="uni1E47" unicode="&#x1e47;" horiz-adv-x="654" 
d="M372 526q94 0 147.5 -54.5t53.5 -149.5v-322h-68v306q0 74 -41 116t-114 42q-81 -1 -129.5 -50t-55.5 -132v-282h-67v524h67v-122q54 122 207 124zM331 -76q20 0 33 -13.5t13 -33.5t-13.5 -34t-32.5 -14q-20 0 -33.5 14t-13.5 34t13.5 33.5t33.5 13.5z" />
    <glyph glyph-name="uni1E48" unicode="&#x1e48;" horiz-adv-x="796" 
d="M617 699h68v-699h-73l-433 592v-592h-69v699h73l434 -592v592zM257 -132v46h276v-46h-276z" />
    <glyph glyph-name="uni1E49" unicode="&#x1e49;" horiz-adv-x="654" 
d="M372 526q94 0 147.5 -54.5t53.5 -149.5v-322h-68v306q0 74 -41 116t-114 42q-81 -1 -129.5 -50t-55.5 -132v-282h-67v524h67v-122q54 122 207 124zM192 -132v46h276v-46h-276z" />
    <glyph glyph-name="uni1E4C" unicode="&#x1e4c;" horiz-adv-x="814" 
d="M483 1016l57 -38l-141 -78l-55 17zM553 860q0 -41 -19.5 -66.5t-57.5 -25.5q-31 0 -72.5 25t-59.5 25q-40 0 -40 -47h-42q0 42 19.5 67.5t57.5 25.5q31 0 72.5 -25t59.5 -25q40 0 40 46h42zM407 705q152 0 258.5 -103t106.5 -251q0 -149 -106.5 -253t-258.5 -104
t-258.5 104t-106.5 253q0 148 106.5 251t258.5 103zM408 643q-122 0 -209 -85.5t-87 -206.5q0 -122 87 -208.5t209 -86.5q121 0 207.5 86.5t86.5 208.5q0 121 -86.5 206.5t-207.5 85.5z" />
    <glyph glyph-name="uni1E4D" unicode="&#x1e4d;" horiz-adv-x="616" 
d="M384 858l57 -38l-141 -78l-55 17zM454 702q0 -41 -19.5 -66.5t-57.5 -25.5q-31 0 -72.5 25t-59.5 25q-40 0 -40 -47h-42q0 42 19.5 67.5t57.5 25.5q31 0 72.5 -25t59.5 -25q40 0 40 46h42zM308 526q116 0 190 -73.5t74 -189.5q0 -117 -74 -191t-190 -74t-190 74t-74 191
q0 116 74 189.5t190 73.5zM308 468q-86 0 -141.5 -57.5t-55.5 -148.5q0 -92 55 -149.5t142 -57.5t142 57.5t55 149.5q0 91 -55.5 148.5t-141.5 57.5z" />
    <glyph glyph-name="uni1E4E" unicode="&#x1e4e;" horiz-adv-x="814" 
d="M325 986q18 0 30 -12t12 -30t-12 -31t-30 -13t-30 13t-12 31t12 30t30 12zM476 986q17 0 29.5 -12t12.5 -30t-12.5 -31t-29.5 -13q-18 0 -30.5 13t-12.5 31t12.5 30t30.5 12zM545 860q0 -41 -19.5 -66.5t-57.5 -25.5q-31 0 -72.5 25t-59.5 25q-40 0 -40 -47h-42
q0 42 19.5 67.5t57.5 25.5q31 0 72.5 -25t59.5 -25q40 0 40 46h42zM407 705q152 0 258.5 -103t106.5 -251q0 -149 -106.5 -253t-258.5 -104t-258.5 104t-106.5 253q0 148 106.5 251t258.5 103zM408 643q-122 0 -209 -85.5t-87 -206.5q0 -122 87 -208.5t209 -86.5
q121 0 207.5 86.5t86.5 208.5q0 121 -86.5 206.5t-207.5 85.5z" />
    <glyph glyph-name="uni1E4F" unicode="&#x1e4f;" horiz-adv-x="616" 
d="M226 828q18 0 30 -12t12 -30t-12 -31t-30 -13t-30 13t-12 31t12 30t30 12zM377 828q17 0 29.5 -12t12.5 -30t-12.5 -31t-29.5 -13q-18 0 -30.5 13t-12.5 31t12.5 30t30.5 12zM446 702q0 -41 -19.5 -66.5t-57.5 -25.5q-31 0 -72.5 25t-59.5 25q-40 0 -40 -47h-42
q0 42 19.5 67.5t57.5 25.5q31 0 72.5 -25t59.5 -25q40 0 40 46h42zM308 526q116 0 190 -73.5t74 -189.5q0 -117 -74 -191t-190 -74t-190 74t-74 191q0 116 74 189.5t190 73.5zM308 468q-86 0 -141.5 -57.5t-55.5 -148.5q0 -92 55 -149.5t142 -57.5t142 57.5t55 149.5
q0 91 -55.5 148.5t-141.5 57.5z" />
    <glyph glyph-name="uni1E50" unicode="&#x1e50;" horiz-adv-x="814" 
d="M339 985l138 -99l-54 -17l-142 78zM298 817h236v-46h-236v46zM407 705q152 0 258.5 -103t106.5 -251q0 -149 -106.5 -253t-258.5 -104t-258.5 104t-106.5 253q0 148 106.5 251t258.5 103zM408 643q-122 0 -209 -85.5t-87 -206.5q0 -122 87 -208.5t209 -86.5
q121 0 207.5 86.5t86.5 208.5q0 121 -86.5 206.5t-207.5 85.5z" />
    <glyph glyph-name="uni1E51" unicode="&#x1e51;" horiz-adv-x="616" 
d="M233 827l138 -99l-54 -17l-142 78zM192 659h236v-46h-236v46zM308 526q116 0 190 -73.5t74 -189.5q0 -117 -74 -191t-190 -74t-190 74t-74 191q0 116 74 189.5t190 73.5zM308 468q-86 0 -141.5 -57.5t-55.5 -148.5q0 -92 55 -149.5t142 -57.5t142 57.5t55 149.5
q0 91 -55.5 148.5t-141.5 57.5z" />
    <glyph glyph-name="uni1E52" unicode="&#x1e52;" horiz-adv-x="814" 
d="M475 985l57 -38l-141 -78l-55 17zM283 817h236v-46h-236v46zM407 705q152 0 258.5 -103t106.5 -251q0 -149 -106.5 -253t-258.5 -104t-258.5 104t-106.5 253q0 148 106.5 251t258.5 103zM408 643q-122 0 -209 -85.5t-87 -206.5q0 -122 87 -208.5t209 -86.5
q121 0 207.5 86.5t86.5 208.5q0 121 -86.5 206.5t-207.5 85.5z" />
    <glyph glyph-name="uni1E53" unicode="&#x1e53;" horiz-adv-x="616" 
d="M388 827l57 -38l-141 -78l-55 17zM196 659h236v-46h-236v46zM308 526q116 0 190 -73.5t74 -189.5q0 -117 -74 -191t-190 -74t-190 74t-74 191q0 116 74 189.5t190 73.5zM308 468q-86 0 -141.5 -57.5t-55.5 -148.5q0 -92 55 -149.5t142 -57.5t142 57.5t55 149.5
q0 91 -55.5 148.5t-141.5 57.5z" />
    <glyph glyph-name="uni1E5A" unicode="&#x1e5a;" horiz-adv-x="723" 
d="M651 0h-80l-151 228q-32 -2 -49 -2h-192v-226h-69v699h261q131 0 202.5 -60.5t71.5 -171.5q0 -87 -42 -145t-120 -81zM179 288h192q100 0 154 45.5t54 131.5q0 84 -54 128t-154 44h-192v-349zM361 -76q20 0 33 -13.5t13 -33.5t-13.5 -34t-32.5 -14q-20 0 -33.5 14
t-13.5 34t13.5 33.5t33.5 13.5z" />
    <glyph glyph-name="uni1E5B" unicode="&#x1e5b;" horiz-adv-x="366" 
d="M165 402q52 122 191 124v-63q-83 1 -133.5 -48.5t-57.5 -134.5v-280h-67v524h67v-122zM130 -76q20 0 33 -13.5t13 -33.5t-13.5 -34t-32.5 -14q-20 0 -33.5 14t-13.5 34t13.5 33.5t33.5 13.5z" />
    <glyph glyph-name="uni1E5E" unicode="&#x1e5e;" horiz-adv-x="723" 
d="M483 241l168 -241h-80l-151 228q-32 -2 -49 -2h-192v-226h-69v699h261q131 0 202.5 -60.5t71.5 -171.5q0 -87 -42 -145t-120 -81zM179 288h192q100 0 154 45.5t54 131.5q0 84 -54 128t-154 44h-192v-349zM222 -132v46h276v-46h-276z" />
    <glyph glyph-name="uni1E5F" unicode="&#x1e5f;" horiz-adv-x="366" 
d="M165 402q52 122 191 124v-63q-83 1 -133.5 -48.5t-57.5 -134.5v-280h-67v524h67v-122zM35 -132v46h276v-46h-276z" />
    <glyph glyph-name="uni1E60" unicode="&#x1e60;" horiz-adv-x="608" 
d="M303 862q20 0 33.5 -13.5t13.5 -33.5t-13.5 -34t-33.5 -14q-19 0 -32.5 14t-13.5 34t13 33.5t33 13.5zM498 585q-88 56 -190 56q-72 0 -115.5 -28.5t-43.5 -77.5q0 -40 22 -67.5t57 -43.5t77.5 -28.5t85 -28t78 -36.5t57 -58.5t21.5 -89.5q0 -85 -69.5 -136.5
t-181.5 -51.5q-73 0 -142.5 29t-119.5 77l32 57q47 -46 109 -72t122 -26q80 0 127 32.5t47 87.5q0 41 -21.5 69t-57 44t-78 28.5t-85 27.5t-77.5 35.5t-57 57.5t-22 88q0 80 65.5 128t173.5 48q120 0 216 -62z" />
    <glyph glyph-name="uni1E61" unicode="&#x1e61;" horiz-adv-x="449" 
d="M227 722q20 0 33 -13.5t13 -33.5t-13.5 -34t-32.5 -14q-20 0 -33.5 14t-13.5 34t13.5 33.5t33.5 13.5zM369 431q-64 40 -140 40q-50 0 -80.5 -19.5t-30.5 -58.5q0 -29 22 -49t55 -30t71.5 -23t71.5 -27.5t54.5 -45.5t21.5 -75q0 -71 -54.5 -108t-134.5 -37
q-123 0 -199 73l27 48q72 -67 175 -67q52 0 85.5 21.5t34.5 62.5q1 31 -20.5 52.5t-54.5 32l-71.5 23.5t-71.5 27t-55 44t-22 73q0 69 51.5 104t128.5 35q90 0 162 -45z" />
    <glyph glyph-name="uni1E62" unicode="&#x1e62;" horiz-adv-x="608" 
d="M498 585q-88 56 -190 56q-72 0 -115.5 -28.5t-43.5 -77.5q0 -40 22 -67.5t57 -43.5t77.5 -28.5t85 -28t78 -36.5t57 -58.5t21.5 -89.5q0 -85 -69.5 -136.5t-181.5 -51.5q-73 0 -142.5 29t-119.5 77l32 57q47 -46 109 -72t122 -26q80 0 127 32.5t47 87.5q0 41 -21.5 69
t-57 44t-78 28.5t-85 27.5t-77.5 35.5t-57 57.5t-22 88q0 80 65.5 128t173.5 48q120 0 216 -62zM307 -76q20 0 33 -13.5t13 -33.5t-13.5 -34t-32.5 -14q-20 0 -33.5 14t-13.5 34t13.5 33.5t33.5 13.5z" />
    <glyph glyph-name="uni1E63" unicode="&#x1e63;" horiz-adv-x="449" 
d="M369 431q-64 40 -140 40q-50 0 -80.5 -19.5t-30.5 -58.5q0 -29 22 -49t55 -30t71.5 -23t71.5 -27.5t54.5 -45.5t21.5 -75q0 -71 -54.5 -108t-134.5 -37q-123 0 -199 73l27 48q72 -67 175 -67q52 0 85.5 21.5t34.5 62.5q1 31 -20.5 52.5t-54.5 32l-71.5 23.5t-71.5 27
t-55 44t-22 73q0 69 51.5 104t128.5 35q90 0 162 -45zM222 -76q20 0 33 -13.5t13 -33.5t-13.5 -34t-32.5 -14q-20 0 -33.5 14t-13.5 34t13.5 33.5t33.5 13.5z" />
    <glyph glyph-name="uni1E64" unicode="&#x1e64;" horiz-adv-x="608" 
d="M297 988q19 0 32 -13.5t13 -32.5t-13 -32t-32 -13q-18 0 -31 13t-13 32t13 32.5t31 13.5zM344 877l57 -38l-141 -78l-55 17zM498 585q-88 56 -190 56q-72 0 -115.5 -28.5t-43.5 -77.5q0 -40 22 -67.5t57 -43.5t77.5 -28.5t85 -28t78 -36.5t57 -58.5t21.5 -89.5
q0 -85 -69.5 -136.5t-181.5 -51.5q-73 0 -142.5 29t-119.5 77l32 57q47 -46 109 -72t122 -26q80 0 127 32.5t47 87.5q0 41 -21.5 69t-57 44t-78 28.5t-85 27.5t-77.5 35.5t-57 57.5t-22 88q0 80 65.5 128t173.5 48q120 0 216 -62z" />
    <glyph glyph-name="uni1E65" unicode="&#x1e65;" horiz-adv-x="449" 
d="M221 838q19 0 32 -13.5t13 -32.5t-13 -32t-32 -13q-18 0 -31 13t-13 32t13 32.5t31 13.5zM268 727l57 -38l-141 -78l-55 17zM369 431q-64 40 -140 40q-50 0 -80.5 -19.5t-30.5 -58.5q0 -29 22 -49t55 -30t71.5 -23t71.5 -27.5t54.5 -45.5t21.5 -75q0 -71 -54.5 -108
t-134.5 -37q-123 0 -199 73l27 48q72 -67 175 -67q52 0 85.5 21.5t34.5 62.5q1 31 -20.5 52.5t-54.5 32l-71.5 23.5t-71.5 27t-55 44t-22 73q0 69 51.5 104t128.5 35q90 0 162 -45z" />
    <glyph glyph-name="uni1E66" unicode="&#x1e66;" horiz-adv-x="608" 
d="M313 887q-18 0 -31 13t-13 32t13 32.5t31 13.5q19 0 32 -13.5t13 -32.5t-13 -32t-32 -13zM361 769h-95l-107 90h74l80 -60l81 60h74zM149 535q0 -40 22 -67.5t57 -43.5t77.5 -28.5t85 -28t78 -36.5t57 -58.5t21.5 -89.5q0 -85 -69.5 -136.5t-181.5 -51.5q-73 0 -142.5 29
t-119.5 77l32 57q47 -46 109 -72t122 -26q80 0 127 32.5t47 87.5q0 41 -21.5 69t-57 44t-78 28.5t-85 27.5t-77.5 35.5t-57 57.5t-22 88q0 80 65.5 128t173.5 48q120 0 216 -62l-30 -59q-88 56 -190 56q-72 0 -115.5 -28.5t-43.5 -77.5z" />
    <glyph glyph-name="uni1E67" unicode="&#x1e67;" horiz-adv-x="449" 
d="M237 730q-18 0 -31 13t-13 32t13 32.5t31 13.5q19 0 32 -13.5t13 -32.5t-13 -32t-32 -13zM285 612h-95l-107 90h74l80 -60l81 60h74zM118 393q0 -29 22 -49t55 -30t71.5 -23t71.5 -27.5t54.5 -45.5t21.5 -75q0 -71 -54.5 -108t-134.5 -37q-123 0 -199 73l27 48
q72 -67 175 -67q52 0 85.5 21.5t34.5 62.5q1 31 -20.5 52.5t-54.5 32l-71.5 23.5t-71.5 27t-55 44t-22 73q0 69 51.5 104t128.5 35q90 0 162 -45l-26 -51q-64 40 -140 40q-50 0 -80.5 -19.5t-30.5 -58.5z" />
    <glyph glyph-name="uni1E68" unicode="&#x1e68;" horiz-adv-x="608" 
d="M307 862q20 0 33.5 -13.5t13.5 -33.5t-13.5 -34t-33.5 -14q-19 0 -32.5 14t-13.5 34t13 33.5t33 13.5zM498 585q-88 56 -190 56q-72 0 -115.5 -28.5t-43.5 -77.5q0 -40 22 -67.5t57 -43.5t77.5 -28.5t85 -28t78 -36.5t57 -58.5t21.5 -89.5q0 -85 -69.5 -136.5
t-181.5 -51.5q-73 0 -142.5 29t-119.5 77l32 57q47 -46 109 -72t122 -26q80 0 127 32.5t47 87.5q0 41 -21.5 69t-57 44t-78 28.5t-85 27.5t-77.5 35.5t-57 57.5t-22 88q0 80 65.5 128t173.5 48q120 0 216 -62zM307 -76q20 0 33 -13.5t13 -33.5t-13.5 -34t-32.5 -14
q-20 0 -33.5 14t-13.5 34t13.5 33.5t33.5 13.5z" />
    <glyph glyph-name="uni1E69" unicode="&#x1e69;" horiz-adv-x="449" 
d="M222 722q20 0 33 -13.5t13 -33.5t-13.5 -34t-32.5 -14q-20 0 -33.5 14t-13.5 34t13.5 33.5t33.5 13.5zM369 431q-64 40 -140 40q-50 0 -80.5 -19.5t-30.5 -58.5q0 -29 22 -49t55 -30t71.5 -23t71.5 -27.5t54.5 -45.5t21.5 -75q0 -71 -54.5 -108t-134.5 -37
q-123 0 -199 73l27 48q72 -67 175 -67q52 0 85.5 21.5t34.5 62.5q1 31 -20.5 52.5t-54.5 32l-71.5 23.5t-71.5 27t-55 44t-22 73q0 69 51.5 104t128.5 35q90 0 162 -45zM222 -76q20 0 33 -13.5t13 -33.5t-13.5 -34t-32.5 -14q-20 0 -33.5 14t-13.5 34t13.5 33.5t33.5 13.5z
" />
    <glyph glyph-name="uni1E6C" unicode="&#x1e6c;" horiz-adv-x="553" 
d="M11 700h531v-63h-231v-637h-69v637h-231v63zM276 -76q20 0 33 -13.5t13 -33.5t-13.5 -34t-32.5 -14q-20 0 -33.5 14t-13.5 34t13.5 33.5t33.5 13.5z" />
    <glyph glyph-name="uni1E6D" unicode="&#x1e6d;" horiz-adv-x="385" 
d="M362 36q-54 -37 -116 -39q-60 0 -95 37t-35 111v312h-75l-1 52h76v135h67v-135l170 1v-53h-170v-301q0 -50 18.5 -74t55.5 -23q40 0 85 28zM245 -76q20 0 33 -13.5t13 -33.5t-13.5 -34t-32.5 -14q-20 0 -33.5 14t-13.5 34t13.5 33.5t33.5 13.5z" />
    <glyph glyph-name="uni1E6E" unicode="&#x1e6e;" horiz-adv-x="553" 
d="M11 700h531v-63h-231v-637h-69v637h-231v63zM137 -86h276v-46h-276v46z" />
    <glyph glyph-name="uni1E6F" unicode="&#x1e6f;" horiz-adv-x="385" 
d="M116 145v312h-75l-1 52h76v135h67v-135l170 1v-53h-170v-301q0 -50 18.5 -74t55.5 -23q40 0 85 28l20 -51q-54 -37 -116 -39q-60 0 -95 37t-35 111zM106 -86h276v-46h-276v46z" />
    <glyph glyph-name="uni1E78" unicode="&#x1e78;" horiz-adv-x="767" 
d="M460 1016l57 -38l-141 -78l-55 17zM530 860q0 -41 -19.5 -66.5t-57.5 -25.5q-31 0 -72.5 25t-59.5 25q-40 0 -40 -47h-42q0 42 19.5 67.5t57.5 25.5q31 0 72.5 -25t59.5 -25q40 0 40 46h42zM163 284q0 -108 58.5 -168t162.5 -60t162 60t58 168v416h69v-416
q0 -136 -76.5 -213t-212.5 -77t-213 77t-77 213v416h69v-416z" />
    <glyph glyph-name="uni1E79" unicode="&#x1e79;" horiz-adv-x="645" 
d="M456 820l-141 -78l-55 17l139 99zM260 660q-40 0 -40 -47h-42q0 42 19.5 67.5t57.5 25.5q31 0 72.5 -25t59.5 -25q40 0 40 46h42q0 -41 -19.5 -66.5t-57.5 -25.5q-31 0 -72.5 25t-59.5 25zM480 524h68v-524h-68v125q-52 -125 -202 -127q-93 0 -145.5 54.5t-52.5 149.5
v322h68v-306q0 -74 40.5 -115.5t111.5 -41.5q84 1 132 57.5t48 148.5v257z" />
    <glyph glyph-name="uni1E7A" unicode="&#x1e7a;" horiz-adv-x="767" 
d="M298 955q18 0 30 -12t12 -30t-12 -31t-30 -13t-30 13t-12 31t12 30t30 12zM449 955q17 0 29.5 -12t12.5 -30t-12.5 -31t-29.5 -13q-18 0 -30.5 13t-12.5 31t12.5 30t30.5 12zM256 817h236v-46h-236v46zM163 284q0 -108 58.5 -168t162.5 -60t162 60t58 168v416h69v-416
q0 -136 -76.5 -213t-212.5 -77t-213 77t-77 213v416h69v-416z" />
    <glyph glyph-name="uni1E7B" unicode="&#x1e7b;" horiz-adv-x="645" 
d="M236 711q-18 0 -30 13t-12 31t12 30t30 12t30 -12t12 -30t-12 -31t-30 -13zM387 711q-18 0 -30.5 13t-12.5 31t12.5 30t30.5 12q17 0 29.5 -12t12.5 -30t-12.5 -31t-29.5 -13zM430 659v-46h-236v46h236zM480 524h68v-524h-68v125q-52 -125 -202 -127q-93 0 -145.5 54.5
t-52.5 149.5v322h68v-306q0 -74 40.5 -115.5t111.5 -41.5q84 1 132 57.5t48 148.5v257z" />
    <glyph glyph-name="Wgrave" unicode="&#x1e80;" horiz-adv-x="1025" 
d="M560 774l-60 -7l-126 100l69 30zM946 700h73l-237 -700h-72l-197 613l-199 -613h-71l-236 700h75l199 -627l198 627h70l199 -627z" />
    <glyph glyph-name="wgrave" unicode="&#x1e81;" horiz-adv-x="856" 
d="M361 747l117 -123l-60 -7l-126 100zM5 524h72l161 -457l159 457h71l160 -457l160 457h70l-196 -524h-70l-160 443l-160 -443h-70z" />
    <glyph glyph-name="Wacute" unicode="&#x1e82;" horiz-adv-x="1025" 
d="M656 867l-126 -100l-60 7l117 123zM946 700h73l-237 -700h-72l-197 613l-199 -613h-71l-236 700h75l199 -627l198 627h70l199 -627z" />
    <glyph glyph-name="wacute" unicode="&#x1e83;" horiz-adv-x="856" 
d="M504 747l69 -30l-126 -100l-60 7zM5 524h72l161 -457l159 457h71l160 -457l160 457h70l-196 -524h-70l-160 443l-160 -443h-70z" />
    <glyph glyph-name="Wdieresis" unicode="&#x1e84;" horiz-adv-x="1025" 
d="M431 767q-19 0 -31.5 13t-12.5 31q0 19 12.5 31.5t31.5 12.5q18 0 30.5 -12.5t12.5 -31.5q0 -18 -12.5 -31t-30.5 -13zM596 767q-19 0 -31.5 13t-12.5 31q0 19 12.5 31.5t31.5 12.5q18 0 30.5 -12.5t12.5 -31.5q0 -18 -12.5 -31t-30.5 -13zM946 700h73l-237 -700h-72
l-197 613l-199 -613h-71l-236 700h75l199 -627l198 627h70l199 -627z" />
    <glyph glyph-name="wdieresis" unicode="&#x1e85;" horiz-adv-x="856" 
d="M348 718q18 0 30.5 -12.5t12.5 -31.5q0 -18 -12.5 -31t-30.5 -13t-30.5 13t-12.5 31q0 19 12.5 31.5t30.5 12.5zM512 718q18 0 30.5 -12.5t12.5 -31.5q0 -18 -12.5 -31t-30.5 -13t-30.5 13t-12.5 31q0 19 12.5 31.5t30.5 12.5zM5 524h72l161 -457l159 457h71l160 -457
l160 457h70l-196 -524h-70l-160 443l-160 -443h-70z" />
    <glyph glyph-name="uni1E8E" unicode="&#x1e8e;" horiz-adv-x="622" 
d="M311 766q-19 0 -32.5 14t-13.5 34t13 33.5t33 13.5t33.5 -13.5t13.5 -33.5t-13.5 -34t-33.5 -14zM616 699l-269 -450v-249h-69v249l-273 450h72l236 -376l231 376h72z" />
    <glyph glyph-name="uni1E8F" unicode="&#x1e8f;" horiz-adv-x="494" 
d="M251 722q20 0 33 -13.5t13 -33.5t-13.5 -34t-32.5 -14q-20 0 -33.5 14t-13.5 34t13.5 33.5t33.5 13.5zM254 -75q-49 -122 -154 -122q-62 0 -108 36l30 52q34 -24 75 -24q66 0 101 82l22 54l-217 521h71l180 -450l173 450h69z" />
    <glyph glyph-name="uni1E92" unicode="&#x1e92;" horiz-adv-x="658" 
d="M58 699h551v-53l-474 -584h478v-62h-568v54l475 583h-462v62zM329 -76q20 0 33 -13.5t13 -33.5t-13.5 -34t-32.5 -14q-20 0 -33.5 14t-13.5 34t13.5 33.5t33.5 13.5z" />
    <glyph glyph-name="uni1E93" unicode="&#x1e93;" horiz-adv-x="524" 
d="M63 524l409 -1v-50l-338 -417l345 -1v-56l-426 1v51l338 417l-328 1v55zM267 -76q20 0 33 -13.5t13 -33.5t-13.5 -34t-32.5 -14q-20 0 -33.5 14t-13.5 34t13.5 33.5t33.5 13.5z" />
    <glyph glyph-name="uni1E97" unicode="&#x1e97;" horiz-adv-x="385" 
d="M111 794q0 -18 -12.5 -31t-30.5 -13t-30.5 13t-12.5 31q0 19 12.5 31.5t30.5 12.5t30.5 -12.5t12.5 -31.5zM232 750q-18 0 -30.5 13t-12.5 31q0 19 12.5 31.5t30.5 12.5t30.5 -12.5t12.5 -31.5q0 -18 -12.5 -31t-30.5 -13zM342 87l20 -51q-54 -37 -116 -39q-60 0 -95 37
t-35 111v312h-75l-1 52h76v135h67v-135l170 1v-53h-170v-301q0 -50 18.5 -74t55.5 -23q40 0 85 28z" />
    <glyph glyph-name="uni1E9E" unicode="&#x1e9e;" horiz-adv-x="674" 
d="M434 395q93 -11 143.5 -63t50.5 -131q0 -93 -64.5 -147t-175.5 -54h-83v62h83q78 0 124 37.5t46 101.5q0 63 -45.5 99t-128.5 36h-25v62l167 201q-67 41 -160 41q-96 0 -151.5 -52t-55.5 -147v-441h-69v441q0 124 73.5 192.5t201.5 68.5q126 0 219 -69v-59z" />
    <glyph glyph-name="uni1EA0" unicode="&#x1ea0;" horiz-adv-x="712" 
d="M707 0h-75l-83 186h-388l-82 -186h-74l315 699h72zM188 248h334l-168 378zM354 -76q20 0 33 -13.5t13 -33.5t-13.5 -34t-32.5 -14q-20 0 -33.5 14t-13.5 34t13.5 33.5t33.5 13.5z" />
    <glyph glyph-name="uni1EA1" unicode="&#x1ea1;" horiz-adv-x="574" 
d="M493 0h-66l-1 88q-62 -91 -196 -91q-80 0 -129 44.5t-49 113.5q0 68 52.5 107t144.5 39h176v40q0 62 -37 96t-108 34q-84 0 -169 -63l-30 46q53 37 101 54.5t110 17.5q95 0 147 -47.5t53 -131.5zM242 53q70 0 118.5 32.5t65.5 91.5v72h-169q-141 0 -141 -92
q0 -47 34.5 -75.5t91.5 -28.5zM285 -76q20 0 33 -13.5t13 -33.5t-13.5 -34t-32.5 -14q-20 0 -33.5 14t-13.5 34t13.5 33.5t33.5 13.5z" />
    <glyph glyph-name="uni1EA2" unicode="&#x1ea2;" horiz-adv-x="712" 
d="M336 888q-22 0 -44 -15l-24 38q38 25 80 25q39 0 63 -20.5t24 -55.5q0 -57 -65 -110l-41 18q48 39 48 82q0 16 -11.5 27t-29.5 11zM632 0l-83 186h-388l-82 -186h-74l315 699h72l315 -699h-75zM188 248h334l-168 378z" />
    <glyph glyph-name="uni1EA3" unicode="&#x1ea3;" horiz-adv-x="574" 
d="M263 720q-21 0 -44 -15l-24 38q37 25 80 25q39 0 63 -20.5t24 -55.5q0 -57 -65 -110l-41 18q48 39 48 82q0 16 -11.5 27t-29.5 11zM493 0h-66l-1 88q-62 -91 -196 -91q-80 0 -129 44.5t-49 113.5q0 68 52.5 107t144.5 39h176v40q0 62 -37 96t-108 34q-84 0 -169 -63
l-30 46q53 37 101 54.5t110 17.5q95 0 147 -47.5t53 -131.5zM242 53q70 0 118.5 32.5t65.5 91.5v72h-169q-141 0 -141 -92q0 -47 34.5 -75.5t91.5 -28.5z" />
    <glyph glyph-name="uni1EA4" unicode="&#x1ea4;" horiz-adv-x="712" 
d="M492 962l-141 -78l-55 17l139 99zM361 822l-81 -60h-74l107 90h95l107 -90h-74zM632 0l-83 186h-388l-82 -186h-74l315 699h72l315 -699h-75zM188 248h334l-168 378z" />
    <glyph glyph-name="uni1EA5" unicode="&#x1ea5;" horiz-adv-x="574" 
d="M414 813l-141 -78l-55 17l139 99zM283 673l-81 -60h-74l107 90h95l107 -90h-74zM493 0h-66l-1 88q-62 -91 -196 -91q-80 0 -129 44.5t-49 113.5q0 68 52.5 107t144.5 39h176v40q0 62 -37 96t-108 34q-84 0 -169 -63l-30 46q53 37 101 54.5t110 17.5q95 0 147 -47.5
t53 -131.5zM242 53q70 0 118.5 32.5t65.5 91.5v72h-169q-141 0 -141 -92q0 -47 34.5 -75.5t91.5 -28.5z" />
    <glyph glyph-name="uni1EA6" unicode="&#x1ea6;" horiz-adv-x="712" 
d="M418 901l-54 -17l-142 78l58 38zM357 822l-81 -60h-74l107 90h95l107 -90h-74zM632 0l-83 186h-388l-82 -186h-74l315 699h72l315 -699h-75zM188 248h334l-168 378z" />
    <glyph glyph-name="uni1EA7" unicode="&#x1ea7;" horiz-adv-x="574" 
d="M345 752l-54 -17l-142 78l58 38zM284 673l-81 -60h-74l107 90h95l107 -90h-74zM493 0h-66l-1 88q-62 -91 -196 -91q-80 0 -129 44.5t-49 113.5q0 68 52.5 107t144.5 39h176v40q0 62 -37 96t-108 34q-84 0 -169 -63l-30 46q53 37 101 54.5t110 17.5q95 0 147 -47.5
t53 -131.5zM242 53q70 0 118.5 32.5t65.5 91.5v72h-169q-141 0 -141 -92q0 -47 34.5 -75.5t91.5 -28.5z" />
    <glyph glyph-name="uni1EA8" unicode="&#x1ea8;" horiz-adv-x="712" 
d="M346 989q-20 0 -38 -11l-22 33q38 23 73 23t55.5 -17.5t20.5 -45.5q0 -46 -62 -88l-38 16q45 31 45 61q0 13 -9 21t-25 8zM366 822l-81 -60h-74l107 90h95l107 -90h-74zM632 0l-83 186h-388l-82 -186h-74l315 699h72l315 -699h-75zM188 248h334l-168 378z" />
    <glyph glyph-name="uni1EA9" unicode="&#x1ea9;" horiz-adv-x="574" 
d="M264 840q-20 0 -38 -11l-22 33q38 23 73 23t55.5 -17.5t20.5 -45.5q0 -46 -62 -88l-38 16q45 31 45 61q0 13 -9 21t-25 8zM284 673l-81 -60h-74l107 90h95l107 -90h-74zM493 0h-66l-1 88q-62 -91 -196 -91q-80 0 -129 44.5t-49 113.5q0 68 52.5 107t144.5 39h176v40
q0 62 -37 96t-108 34q-84 0 -169 -63l-30 46q53 37 101 54.5t110 17.5q95 0 147 -47.5t53 -131.5zM242 53q70 0 118.5 32.5t65.5 91.5v72h-169q-141 0 -141 -92q0 -47 34.5 -75.5t91.5 -28.5z" />
    <glyph glyph-name="uni1EAA" unicode="&#x1eaa;" horiz-adv-x="712" 
d="M298 942q-40 0 -40 -47h-42q0 42 19.5 67.5t57.5 25.5q31 0 72.5 -25t59.5 -25q40 0 40 46h42q0 -41 -19.5 -66.5t-57.5 -25.5q-31 0 -72.5 25t-59.5 25zM362 822l-81 -60h-74l107 90h95l107 -90h-74zM632 0l-83 186h-388l-82 -186h-74l315 699h72l315 -699h-75zM188 248
h334l-168 378z" />
    <glyph glyph-name="uni1EAB" unicode="&#x1eab;" horiz-adv-x="574" 
d="M220 793q-40 0 -40 -47h-42q0 42 19.5 67.5t57.5 25.5q31 0 72.5 -25t59.5 -25q40 0 40 46h42q0 -41 -19.5 -66.5t-57.5 -25.5q-31 0 -72.5 25t-59.5 25zM284 673l-81 -60h-74l107 90h95l107 -90h-74zM493 0h-66l-1 88q-62 -91 -196 -91q-80 0 -129 44.5t-49 113.5
q0 68 52.5 107t144.5 39h176v40q0 62 -37 96t-108 34q-84 0 -169 -63l-30 46q53 37 101 54.5t110 17.5q95 0 147 -47.5t53 -131.5zM242 53q70 0 118.5 32.5t65.5 91.5v72h-169q-141 0 -141 -92q0 -47 34.5 -75.5t91.5 -28.5z" />
    <glyph glyph-name="uni1EAC" unicode="&#x1eac;" horiz-adv-x="712" 
d="M355 845l-71 -76h-69l103 125h74l102 -125h-69zM707 0h-75l-83 186h-388l-82 -186h-74l315 699h72zM188 248h334l-168 378zM354 -76q20 0 33 -13.5t13 -33.5t-13.5 -34t-32.5 -14q-20 0 -33.5 14t-13.5 34t13.5 33.5t33.5 13.5z" />
    <glyph glyph-name="uni1EAD" unicode="&#x1ead;" horiz-adv-x="574" 
d="M285 695l-71 -76h-69l103 125h74l102 -125h-69zM493 0h-66l-1 88q-62 -91 -196 -91q-80 0 -129 44.5t-49 113.5q0 68 52.5 107t144.5 39h176v40q0 62 -37 96t-108 34q-84 0 -169 -63l-30 46q53 37 101 54.5t110 17.5q95 0 147 -47.5t53 -131.5zM242 53q70 0 118.5 32.5
t65.5 91.5v72h-169q-141 0 -141 -92q0 -47 34.5 -75.5t91.5 -28.5zM285 -76q20 0 33 -13.5t13 -33.5t-13.5 -34t-32.5 -14q-20 0 -33.5 14t-13.5 34t13.5 33.5t33.5 13.5z" />
    <glyph glyph-name="uni1EAE" unicode="&#x1eae;" horiz-adv-x="712" 
d="M485 954l-141 -78l-55 17l139 99zM353 754q-52 0 -87 29t-37 75h51q2 -26 22 -42t51 -16t52 16.5t22 41.5h50q-1 -46 -36.5 -75t-87.5 -29zM632 0l-83 186h-388l-82 -186h-74l315 699h72l315 -699h-75zM188 248h334l-168 378z" />
    <glyph glyph-name="uni1EAF" unicode="&#x1eaf;" horiz-adv-x="574" 
d="M415 813l-141 -78l-55 17l139 99zM283 613q-52 0 -87 29t-37 75h51q2 -26 22 -42t51 -16t52 16.5t22 41.5h50q-1 -46 -36.5 -75t-87.5 -29zM493 0h-66l-1 88q-62 -91 -196 -91q-80 0 -129 44.5t-49 113.5q0 68 52.5 107t144.5 39h176v40q0 62 -37 96t-108 34
q-84 0 -169 -63l-30 46q53 37 101 54.5t110 17.5q95 0 147 -47.5t53 -131.5zM242 53q70 0 118.5 32.5t65.5 91.5v72h-169q-141 0 -141 -92q0 -47 34.5 -75.5t91.5 -28.5z" />
    <glyph glyph-name="uni1EB0" unicode="&#x1eb0;" horiz-adv-x="712" 
d="M420 893l-54 -17l-142 78l58 38zM358 800q31 0 52 16.5t22 41.5h50q-1 -46 -36.5 -75t-87.5 -29t-87 29t-37 75h51q2 -26 22 -42t51 -16zM632 0l-83 186h-388l-82 -186h-74l315 699h72l315 -699h-75zM188 248h334l-168 378z" />
    <glyph glyph-name="uni1EB1" unicode="&#x1eb1;" horiz-adv-x="574" 
d="M345 752l-54 -17l-142 78l58 38zM283 659q31 0 52 16.5t22 41.5h50q-1 -46 -36.5 -75t-87.5 -29t-87 29t-37 75h51q2 -26 22 -42t51 -16zM493 0h-66l-1 88q-62 -91 -196 -91q-80 0 -129 44.5t-49 113.5q0 68 52.5 107t144.5 39h176v40q0 62 -37 96t-108 34
q-84 0 -169 -63l-30 46q53 37 101 54.5t110 17.5q95 0 147 -47.5t53 -131.5zM242 53q70 0 118.5 32.5t65.5 91.5v72h-169q-141 0 -141 -92q0 -47 34.5 -75.5t91.5 -28.5z" />
    <glyph glyph-name="uni1EB2" unicode="&#x1eb2;" horiz-adv-x="712" 
d="M337 982q-20 0 -38 -11l-22 33q38 23 73 23t55.5 -17.5t20.5 -45.5q0 -46 -62 -88l-38 16q45 31 45 61q0 13 -9 21t-25 8zM356 755q-52 0 -87 29t-37 75h51q2 -26 22 -42t51 -16t52 16.5t22 41.5h50q-1 -46 -36.5 -75t-87.5 -29zM632 0l-83 186h-388l-82 -186h-74
l315 699h72l315 -699h-75zM188 248h334l-168 378z" />
    <glyph glyph-name="uni1EB3" unicode="&#x1eb3;" horiz-adv-x="574" 
d="M264 840q-20 0 -38 -11l-22 33q38 23 73 23t55.5 -17.5t20.5 -45.5q0 -46 -62 -88l-38 16q45 31 45 61q0 13 -9 21t-25 8zM283 613q-52 0 -87 29t-37 75h51q2 -26 22 -42t51 -16t52 16.5t22 41.5h50q-1 -46 -36.5 -75t-87.5 -29zM493 0h-66l-1 88q-62 -91 -196 -91
q-80 0 -129 44.5t-49 113.5q0 68 52.5 107t144.5 39h176v40q0 62 -37 96t-108 34q-84 0 -169 -63l-30 46q53 37 101 54.5t110 17.5q95 0 147 -47.5t53 -131.5zM242 53q70 0 118.5 32.5t65.5 91.5v72h-169q-141 0 -141 -92q0 -47 34.5 -75.5t91.5 -28.5z" />
    <glyph glyph-name="uni1EB4" unicode="&#x1eb4;" horiz-adv-x="712" 
d="M295 957q-40 0 -40 -47h-42q0 42 19.5 67.5t57.5 25.5q31 0 72.5 -25t59.5 -25q40 0 40 46h42q0 -41 -19.5 -66.5t-57.5 -25.5q-31 0 -72.5 25t-59.5 25zM356 801q31 0 52 16.5t22 41.5h50q-1 -46 -36.5 -75t-87.5 -29t-87 29t-37 75h51q2 -26 22 -42t51 -16zM632 0
l-83 186h-388l-82 -186h-74l315 699h72l315 -699h-75zM188 248h334l-168 378z" />
    <glyph glyph-name="uni1EB5" unicode="&#x1eb5;" horiz-adv-x="574" 
d="M220 815q-40 0 -40 -47h-42q0 42 19.5 67.5t57.5 25.5q31 0 72.5 -25t59.5 -25q40 0 40 46h42q0 -41 -19.5 -66.5t-57.5 -25.5q-31 0 -72.5 25t-59.5 25zM281 659q31 0 52 16.5t22 41.5h50q-1 -46 -36.5 -75t-87.5 -29t-87 29t-37 75h51q2 -26 22 -42t51 -16zM493 0h-66
l-1 88q-62 -91 -196 -91q-80 0 -129 44.5t-49 113.5q0 68 52.5 107t144.5 39h176v40q0 62 -37 96t-108 34q-84 0 -169 -63l-30 46q53 37 101 54.5t110 17.5q95 0 147 -47.5t53 -131.5zM242 53q70 0 118.5 32.5t65.5 91.5v72h-169q-141 0 -141 -92q0 -47 34.5 -75.5
t91.5 -28.5z" />
    <glyph glyph-name="uni1EB6" unicode="&#x1eb6;" horiz-adv-x="712" 
d="M354 767q-51 0 -86 34.5t-37 88.5h49q2 -32 22.5 -53.5t51.5 -21.5t51.5 21.5t22.5 53.5h49q-1 -54 -36 -88.5t-87 -34.5zM707 0h-75l-83 186h-388l-82 -186h-74l315 699h72zM188 248h334l-168 378zM354 -76q20 0 33 -13.5t13 -33.5t-13.5 -34t-32.5 -14q-20 0 -33.5 14
t-13.5 34t13.5 33.5t33.5 13.5z" />
    <glyph glyph-name="uni1EB7" unicode="&#x1eb7;" horiz-adv-x="574" 
d="M285 614q-51 0 -86 34.5t-37 88.5h49q2 -32 22.5 -53.5t51.5 -21.5t51.5 21.5t22.5 53.5h49q-1 -54 -36 -88.5t-87 -34.5zM493 0h-66l-1 88q-62 -91 -196 -91q-80 0 -129 44.5t-49 113.5q0 68 52.5 107t144.5 39h176v40q0 62 -37 96t-108 34q-84 0 -169 -63l-30 46
q53 37 101 54.5t110 17.5q95 0 147 -47.5t53 -131.5zM242 53q70 0 118.5 32.5t65.5 91.5v72h-169q-141 0 -141 -92q0 -47 34.5 -75.5t91.5 -28.5zM285 -76q20 0 33 -13.5t13 -33.5t-13.5 -34t-32.5 -14q-20 0 -33.5 14t-13.5 34t13.5 33.5t33.5 13.5z" />
    <glyph glyph-name="uni1EB8" unicode="&#x1eb8;" horiz-adv-x="650" 
d="M110 699h468v-62h-399v-250h357v-62h-357v-263h412v-62h-481v699zM351 -76q20 0 33 -13.5t13 -33.5t-13.5 -34t-32.5 -14q-20 0 -33.5 14t-13.5 34t13.5 33.5t33.5 13.5z" />
    <glyph glyph-name="uni1EB9" unicode="&#x1eb9;" horiz-adv-x="589" 
d="M302 526q122 0 186 -77.5t59 -208.5h-437q7 -84 62 -135.5t136 -51.5q103 0 167 69l38 -38q-80 -86 -209 -86q-115 0 -188 74t-73 190t73 190t186 74zM110 292h377q-5 82 -54.5 130.5t-129.5 48.5q-79 0 -132 -49t-61 -130zM298 -76q20 0 33 -13.5t13 -33.5t-13.5 -34
t-32.5 -14q-20 0 -33.5 14t-13.5 34t13.5 33.5t33.5 13.5z" />
    <glyph glyph-name="uni1EBA" unicode="&#x1eba;" horiz-adv-x="650" 
d="M343 937q39 0 63 -20.5t24 -55.5q0 -57 -65 -110l-41 18q48 39 48 82q0 16 -11.5 27t-29.5 11q-21 0 -44 -15l-24 38q38 25 80 25zM110 699h468v-62h-399v-250h357v-62h-357v-263h412v-62h-481v699z" />
    <glyph glyph-name="uni1EBB" unicode="&#x1ebb;" horiz-adv-x="589" 
d="M277 720q-21 0 -44 -15l-24 38q38 25 80 25q39 0 63 -20.5t24 -55.5q0 -57 -65 -110l-41 18q48 39 48 82q0 16 -11.5 27t-29.5 11zM302 526q122 0 186 -77.5t59 -208.5h-437q7 -84 62 -135.5t136 -51.5q103 0 167 69l38 -38q-80 -86 -209 -86q-115 0 -188 74t-73 190
t73 190t186 74zM110 292h377q-5 82 -54.5 130.5t-129.5 48.5q-79 0 -132 -49t-61 -130z" />
    <glyph glyph-name="uni1EBC" unicode="&#x1ebc;" horiz-adv-x="650" 
d="M498 875q0 -47 -19.5 -77t-58.5 -30q-30 0 -71 28.5t-58 28.5q-38 0 -38 -53h-49q0 47 19.5 77t58.5 30q30 0 71 -29t58 -29q38 0 38 54h49zM110 699h468v-62h-399v-250h357v-62h-357v-263h412v-62h-481v699z" />
    <glyph glyph-name="uni1EBD" unicode="&#x1ebd;" horiz-adv-x="589" 
d="M237 673q-38 0 -38 -53h-49q0 47 19.5 77t58.5 30q30 0 71 -29t58 -29q38 0 38 54h49q0 -47 -19.5 -77t-58.5 -30q-30 0 -71 28.5t-58 28.5zM302 526q122 0 186 -77.5t59 -208.5h-437q7 -84 62 -135.5t136 -51.5q103 0 167 69l38 -38q-80 -86 -209 -86q-115 0 -188 74
t-73 190t73 190t186 74zM110 292h377q-5 82 -54.5 130.5t-129.5 48.5q-79 0 -132 -49t-61 -130z" />
    <glyph glyph-name="uni1EBE" unicode="&#x1ebe;" horiz-adv-x="650" 
d="M487 963l-141 -78l-55 17l139 99zM356 823l-81 -60h-74l107 90h95l107 -90h-74zM179 62h412v-62h-481v699h468v-62h-399v-250h357v-62h-357v-263z" />
    <glyph glyph-name="uni1EBF" unicode="&#x1ebf;" horiz-adv-x="589" 
d="M428 813l-141 -78l-55 17l139 99zM297 673l-81 -60h-74l107 90h95l107 -90h-74zM302 526q122 0 186 -77.5t59 -208.5h-437q7 -84 62 -135.5t136 -51.5q103 0 167 69l38 -38q-80 -86 -209 -86q-115 0 -188 74t-73 190t73 190t186 74zM110 292h377q-5 82 -54.5 130.5
t-129.5 48.5q-79 0 -132 -49t-61 -130z" />
    <glyph glyph-name="uni1EC0" unicode="&#x1ec0;" horiz-adv-x="650" 
d="M413 902l-54 -17l-142 78l58 38zM352 823l-81 -60h-74l107 90h95l107 -90h-74zM179 62h412v-62h-481v699h468v-62h-399v-250h357v-62h-357v-263z" />
    <glyph glyph-name="uni1EC1" unicode="&#x1ec1;" horiz-adv-x="589" 
d="M359 752l-54 -17l-142 78l58 38zM298 673l-81 -60h-74l107 90h95l107 -90h-74zM302 526q122 0 186 -77.5t59 -208.5h-437q7 -84 62 -135.5t136 -51.5q103 0 167 69l38 -38q-80 -86 -209 -86q-115 0 -188 74t-73 190t73 190t186 74zM110 292h377q-5 82 -54.5 130.5
t-129.5 48.5q-79 0 -132 -49t-61 -130z" />
    <glyph glyph-name="uni1EC2" unicode="&#x1ec2;" horiz-adv-x="650" 
d="M341 990q-20 0 -38 -11l-22 33q38 23 73 23t55.5 -17.5t20.5 -45.5q0 -46 -62 -88l-38 16q45 31 45 61q0 13 -9 21t-25 8zM361 823l-81 -60h-74l107 90h95l107 -90h-74zM179 62h412v-62h-481v699h468v-62h-399v-250h357v-62h-357v-263z" />
    <glyph glyph-name="uni1EC3" unicode="&#x1ec3;" horiz-adv-x="589" 
d="M278 840q-20 0 -38 -11l-22 33q38 23 73 23t55.5 -17.5t20.5 -45.5q0 -46 -62 -88l-38 16q45 31 45 61q0 13 -9 21t-25 8zM298 673l-81 -60h-74l107 90h95l107 -90h-74zM302 526q122 0 186 -77.5t59 -208.5h-437q7 -84 62 -135.5t136 -51.5q103 0 167 69l38 -38
q-80 -86 -209 -86q-115 0 -188 74t-73 190t73 190t186 74zM110 292h377q-5 82 -54.5 130.5t-129.5 48.5q-79 0 -132 -49t-61 -130z" />
    <glyph glyph-name="uni1EC4" unicode="&#x1ec4;" horiz-adv-x="650" 
d="M293 943q-40 0 -40 -47h-42q0 42 19.5 67.5t57.5 25.5q31 0 72.5 -25t59.5 -25q40 0 40 46h42q0 -41 -19.5 -66.5t-57.5 -25.5q-31 0 -72.5 25t-59.5 25zM357 823l-81 -60h-74l107 90h95l107 -90h-74zM179 62h412v-62h-481v699h468v-62h-399v-250h357v-62h-357v-263z" />
    <glyph glyph-name="uni1EC5" unicode="&#x1ec5;" horiz-adv-x="589" 
d="M234 793q-40 0 -40 -47h-42q0 42 19.5 67.5t57.5 25.5q31 0 72.5 -25t59.5 -25q40 0 40 46h42q0 -41 -19.5 -66.5t-57.5 -25.5q-31 0 -72.5 25t-59.5 25zM298 673l-81 -60h-74l107 90h95l107 -90h-74zM302 526q122 0 186 -77.5t59 -208.5h-437q7 -84 62 -135.5t136 -51.5
q103 0 167 69l38 -38q-80 -86 -209 -86q-115 0 -188 74t-73 190t73 190t186 74zM110 292h377q-5 82 -54.5 130.5t-129.5 48.5q-79 0 -132 -49t-61 -130z" />
    <glyph glyph-name="uni1EC6" unicode="&#x1ec6;" horiz-adv-x="650" 
d="M352 845l-71 -76h-69l103 125h74l102 -125h-69zM179 62h412v-62h-481v699h468v-62h-399v-250h357v-62h-357v-263zM351 -76q20 0 33 -13.5t13 -33.5t-13.5 -34t-32.5 -14q-20 0 -33.5 14t-13.5 34t13.5 33.5t33.5 13.5z" />
    <glyph glyph-name="uni1EC7" unicode="&#x1ec7;" horiz-adv-x="589" 
d="M298 695l-71 -76h-69l103 125h74l102 -125h-69zM302 526q122 0 186 -77.5t59 -208.5h-437q7 -84 62 -135.5t136 -51.5q103 0 167 69l38 -38q-80 -86 -209 -86q-115 0 -188 74t-73 190t73 190t186 74zM110 292h377q-5 82 -54.5 130.5t-129.5 48.5q-79 0 -132 -49t-61 -130
zM298 -76q20 0 33 -13.5t13 -33.5t-13.5 -34t-32.5 -14q-20 0 -33.5 14t-13.5 34t13.5 33.5t33.5 13.5z" />
    <glyph glyph-name="uni1EC8" unicode="&#x1ec8;" horiz-adv-x="289" 
d="M136 936q39 0 63 -20.5t24 -55.5q0 -57 -65 -110l-41 18q48 39 48 82q0 16 -11.5 27t-29.5 11q-22 0 -44 -15l-24 38q37 25 80 25zM110 699h69v-699h-69v699z" />
    <glyph glyph-name="uni1EC9" unicode="&#x1ec9;" horiz-adv-x="262" 
d="M123 768q39 0 63 -20.5t24 -55.5q0 -57 -65 -110l-41 18q48 39 48 82q0 16 -11.5 27t-29.5 11q-21 0 -44 -15l-24 38q38 25 80 25zM98 524h67v-524h-67v524z" />
    <glyph glyph-name="uni1ECA" unicode="&#x1eca;" horiz-adv-x="289" 
d="M110 699h69v-699h-69v699zM145 -76q20 0 33 -13.5t13 -33.5t-13.5 -34t-32.5 -14q-20 0 -33.5 14t-13.5 34t13.5 33.5t33.5 13.5z" />
    <glyph glyph-name="uni1ECB" unicode="&#x1ecb;" horiz-adv-x="262" 
d="M131 722q20 0 33 -13.5t13 -33.5t-13.5 -34t-32.5 -14q-20 0 -33.5 14t-13.5 34t13.5 33.5t33.5 13.5zM98 524h67v-524h-67v524zM131 -76q20 0 33 -13.5t13 -33.5t-13.5 -34t-32.5 -14q-20 0 -33.5 14t-13.5 34t13.5 33.5t33.5 13.5z" />
    <glyph glyph-name="uni1ECC" unicode="&#x1ecc;" horiz-adv-x="814" 
d="M407 705q152 0 258.5 -103t106.5 -251q0 -149 -106.5 -253t-258.5 -104t-258.5 104t-106.5 253q0 148 106.5 251t258.5 103zM408 643q-122 0 -209 -85.5t-87 -206.5q0 -122 87 -208.5t209 -86.5q121 0 207.5 86.5t86.5 208.5q0 121 -86.5 206.5t-207.5 85.5zM407 -76
q20 0 33 -13.5t13 -33.5t-13.5 -34t-32.5 -14q-20 0 -33.5 14t-13.5 34t13.5 33.5t33.5 13.5z" />
    <glyph glyph-name="uni1ECD" unicode="&#x1ecd;" horiz-adv-x="616" 
d="M308 526q116 0 190 -73.5t74 -189.5q0 -117 -74 -191t-190 -74t-190 74t-74 191q0 116 74 189.5t190 73.5zM308 468q-86 0 -141.5 -57.5t-55.5 -148.5q0 -92 55 -149.5t142 -57.5t142 57.5t55 149.5q0 91 -55.5 148.5t-141.5 57.5zM308 -76q20 0 33 -13.5t13 -33.5
t-13.5 -34t-32.5 -14q-20 0 -33.5 14t-13.5 34t13.5 33.5t33.5 13.5z" />
    <glyph glyph-name="uni1ECE" unicode="&#x1ece;" horiz-adv-x="814" 
d="M399 937q39 0 63 -20.5t24 -55.5q0 -57 -65 -110l-41 18q48 39 48 82q0 16 -11.5 27t-29.5 11q-21 0 -44 -15l-24 38q38 25 80 25zM407 705q152 0 258.5 -103t106.5 -251q0 -149 -106.5 -253t-258.5 -104t-258.5 104t-106.5 253q0 148 106.5 251t258.5 103zM408 643
q-122 0 -209 -85.5t-87 -206.5q0 -122 87 -208.5t209 -86.5q121 0 207.5 86.5t86.5 208.5q0 121 -86.5 206.5t-207.5 85.5z" />
    <glyph glyph-name="uni1ECF" unicode="&#x1ecf;" horiz-adv-x="616" 
d="M300 768q39 0 63 -20.5t24 -55.5q0 -57 -65 -110l-41 18q48 39 48 82q0 16 -11.5 27t-29.5 11q-22 0 -44 -15l-24 38q38 25 80 25zM308 526q116 0 190 -73.5t74 -189.5q0 -117 -74 -191t-190 -74t-190 74t-74 191q0 116 74 189.5t190 73.5zM308 468q-86 0 -141.5 -57.5
t-55.5 -148.5q0 -92 55 -149.5t142 -57.5t142 57.5t55 149.5q0 91 -55.5 148.5t-141.5 57.5z" />
    <glyph glyph-name="uni1ED0" unicode="&#x1ed0;" horiz-adv-x="814" 
d="M543 963l-141 -78l-55 17l139 99zM412 823l-81 -60h-74l107 90h95l107 -90h-74zM407 705q152 0 258.5 -103t106.5 -251q0 -149 -106.5 -253t-258.5 -104t-258.5 104t-106.5 253q0 148 106.5 251t258.5 103zM408 56q121 0 207.5 86.5t86.5 208.5q0 121 -86.5 206.5
t-207.5 85.5q-122 0 -209 -85.5t-87 -206.5q0 -122 87 -208.5t209 -86.5z" />
    <glyph glyph-name="uni1ED1" unicode="&#x1ed1;" horiz-adv-x="616" 
d="M439 813l-141 -78l-55 17l139 99zM308 673l-81 -60h-74l107 90h95l107 -90h-74zM308 526q116 0 190 -73.5t74 -189.5q0 -117 -74 -191t-190 -74t-190 74t-74 191q0 116 74 189.5t190 73.5zM308 55q87 0 142 57.5t55 149.5q0 91 -55.5 148.5t-141.5 57.5t-141.5 -57.5
t-55.5 -148.5q0 -92 55 -149.5t142 -57.5z" />
    <glyph glyph-name="uni1ED2" unicode="&#x1ed2;" horiz-adv-x="814" 
d="M469 902l-54 -17l-142 78l58 38zM408 823l-81 -60h-74l107 90h95l107 -90h-74zM407 705q152 0 258.5 -103t106.5 -251q0 -149 -106.5 -253t-258.5 -104t-258.5 104t-106.5 253q0 148 106.5 251t258.5 103zM408 56q121 0 207.5 86.5t86.5 208.5q0 121 -86.5 206.5
t-207.5 85.5q-122 0 -209 -85.5t-87 -206.5q0 -122 87 -208.5t209 -86.5z" />
    <glyph glyph-name="uni1ED3" unicode="&#x1ed3;" horiz-adv-x="616" 
d="M370 752l-54 -17l-142 78l58 38zM309 673l-81 -60h-74l107 90h95l107 -90h-74zM308 526q116 0 190 -73.5t74 -189.5q0 -117 -74 -191t-190 -74t-190 74t-74 191q0 116 74 189.5t190 73.5zM308 55q87 0 142 57.5t55 149.5q0 91 -55.5 148.5t-141.5 57.5t-141.5 -57.5
t-55.5 -148.5q0 -92 55 -149.5t142 -57.5z" />
    <glyph glyph-name="uni1ED4" unicode="&#x1ed4;" horiz-adv-x="814" 
d="M397 990q-20 0 -38 -11l-22 33q38 23 73 23t55.5 -17.5t20.5 -45.5q0 -46 -62 -88l-38 16q45 31 45 61q0 13 -9 21t-25 8zM417 823l-81 -60h-74l107 90h95l107 -90h-74zM407 705q152 0 258.5 -103t106.5 -251q0 -149 -106.5 -253t-258.5 -104t-258.5 104t-106.5 253
q0 148 106.5 251t258.5 103zM408 56q121 0 207.5 86.5t86.5 208.5q0 121 -86.5 206.5t-207.5 85.5q-122 0 -209 -85.5t-87 -206.5q0 -122 87 -208.5t209 -86.5z" />
    <glyph glyph-name="uni1ED5" unicode="&#x1ed5;" horiz-adv-x="616" 
d="M289 840q-20 0 -38 -11l-22 33q38 23 73 23t55.5 -17.5t20.5 -45.5q0 -46 -62 -88l-38 16q45 31 45 61q0 13 -9 21t-25 8zM309 673l-81 -60h-74l107 90h95l107 -90h-74zM308 526q116 0 190 -73.5t74 -189.5q0 -117 -74 -191t-190 -74t-190 74t-74 191q0 116 74 189.5
t190 73.5zM308 55q87 0 142 57.5t55 149.5q0 91 -55.5 148.5t-141.5 57.5t-141.5 -57.5t-55.5 -148.5q0 -92 55 -149.5t142 -57.5z" />
    <glyph glyph-name="uni1ED6" unicode="&#x1ed6;" horiz-adv-x="814" 
d="M349 943q-40 0 -40 -47h-42q0 42 19.5 67.5t57.5 25.5q31 0 72.5 -25t59.5 -25q40 0 40 46h42q0 -41 -19.5 -66.5t-57.5 -25.5q-31 0 -72.5 25t-59.5 25zM413 823l-81 -60h-74l107 90h95l107 -90h-74zM407 705q152 0 258.5 -103t106.5 -251q0 -149 -106.5 -253
t-258.5 -104t-258.5 104t-106.5 253q0 148 106.5 251t258.5 103zM408 56q121 0 207.5 86.5t86.5 208.5q0 121 -86.5 206.5t-207.5 85.5q-122 0 -209 -85.5t-87 -206.5q0 -122 87 -208.5t209 -86.5z" />
    <glyph glyph-name="uni1ED7" unicode="&#x1ed7;" horiz-adv-x="616" 
d="M245 793q-40 0 -40 -47h-42q0 42 19.5 67.5t57.5 25.5q31 0 72.5 -25t59.5 -25q40 0 40 46h42q0 -41 -19.5 -66.5t-57.5 -25.5q-31 0 -72.5 25t-59.5 25zM309 673l-81 -60h-74l107 90h95l107 -90h-74zM308 526q116 0 190 -73.5t74 -189.5q0 -117 -74 -191t-190 -74
t-190 74t-74 191q0 116 74 189.5t190 73.5zM308 55q87 0 142 57.5t55 149.5q0 91 -55.5 148.5t-141.5 57.5t-141.5 -57.5t-55.5 -148.5q0 -92 55 -149.5t142 -57.5z" />
    <glyph glyph-name="uni1ED8" unicode="&#x1ed8;" horiz-adv-x="814" 
d="M408 845l-71 -76h-69l103 125h74l102 -125h-69zM407 705q152 0 258.5 -103t106.5 -251q0 -149 -106.5 -253t-258.5 -104t-258.5 104t-106.5 253q0 148 106.5 251t258.5 103zM408 56q121 0 207.5 86.5t86.5 208.5q0 121 -86.5 206.5t-207.5 85.5q-122 0 -209 -85.5
t-87 -206.5q0 -122 87 -208.5t209 -86.5zM407 -76q20 0 33 -13.5t13 -33.5t-13.5 -34t-32.5 -14q-20 0 -33.5 14t-13.5 34t13.5 33.5t33.5 13.5z" />
    <glyph glyph-name="uni1ED9" unicode="&#x1ed9;" horiz-adv-x="616" 
d="M308 695l-71 -76h-69l103 125h74l102 -125h-69zM308 526q116 0 190 -73.5t74 -189.5q0 -117 -74 -191t-190 -74t-190 74t-74 191q0 116 74 189.5t190 73.5zM308 55q87 0 142 57.5t55 149.5q0 91 -55.5 148.5t-141.5 57.5t-141.5 -57.5t-55.5 -148.5q0 -92 55 -149.5
t142 -57.5zM308 -76q20 0 33 -13.5t13 -33.5t-13.5 -34t-32.5 -14q-20 0 -33.5 14t-13.5 34t13.5 33.5t33.5 13.5z" />
    <glyph glyph-name="uni1EDA" unicode="&#x1eda;" horiz-adv-x="840" 
d="M550 867l-126 -100l-60 7l117 123zM644 621q60 -50 94 -120t34 -150q0 -149 -106.5 -253t-258.5 -104t-258.5 104t-106.5 253q0 148 106.5 251t258.5 103q86 0 159 -35v1q22 -8 45 -8q51 0 67 49.5t-17 93.5l57 21q39 -67 15.5 -129.5t-89.5 -76.5zM408 56
q121 0 207.5 86.5t86.5 208.5q0 121 -86.5 206.5t-207.5 85.5q-122 0 -209 -85.5t-87 -206.5q0 -122 87 -208.5t209 -86.5z" />
    <glyph glyph-name="uni1EDB" unicode="&#x1edb;" horiz-adv-x="643" 
d="M451 717l-126 -100l-60 7l117 123zM592 651q41 -70 13.5 -134.5t-98.5 -73.5q65 -73 65 -180q0 -117 -74 -191t-190 -74t-190 74t-74 191q0 116 74 189.5t190 73.5q73 0 132 -31q22 -8 45 -8q51 0 67 49.5t-17 93.5zM308 55q87 0 142 57.5t55 149.5q0 91 -55.5 148.5
t-141.5 57.5t-141.5 -57.5t-55.5 -148.5q0 -92 55 -149.5t142 -57.5z" />
    <glyph glyph-name="uni1EDC" unicode="&#x1edc;" horiz-adv-x="840" 
d="M454 774l-60 -7l-126 100l69 30zM644 621q60 -50 94 -120t34 -150q0 -149 -106.5 -253t-258.5 -104t-258.5 104t-106.5 253q0 148 106.5 251t258.5 103q86 0 159 -35v1q22 -8 45 -8q51 0 67 49.5t-17 93.5l57 21q39 -67 15.5 -129.5t-89.5 -76.5zM408 56
q121 0 207.5 86.5t86.5 208.5q0 121 -86.5 206.5t-207.5 85.5q-122 0 -209 -85.5t-87 -206.5q0 -122 87 -208.5t209 -86.5z" />
    <glyph glyph-name="uni1EDD" unicode="&#x1edd;" horiz-adv-x="643" 
d="M356 624l-60 -7l-126 100l69 30zM592 651q41 -70 13.5 -134.5t-98.5 -73.5q65 -73 65 -180q0 -117 -74 -191t-190 -74t-190 74t-74 191q0 116 74 189.5t190 73.5q73 0 132 -31q22 -8 45 -8q51 0 67 49.5t-17 93.5zM308 55q87 0 142 57.5t55 149.5q0 91 -55.5 148.5
t-141.5 57.5t-141.5 -57.5t-55.5 -148.5q0 -92 55 -149.5t142 -57.5z" />
    <glyph glyph-name="uni1EDE" unicode="&#x1ede;" horiz-adv-x="840" 
d="M387 889q-21 0 -44 -15l-24 38q38 25 80 25q39 0 63 -20.5t24 -55.5q0 -57 -65 -110l-41 18q48 39 48 82q0 16 -11.5 27t-29.5 11zM644 621q60 -50 94 -120t34 -150q0 -149 -106.5 -253t-258.5 -104t-258.5 104t-106.5 253q0 148 106.5 251t258.5 103q86 0 159 -35v1
q22 -8 45 -8q51 0 67 49.5t-17 93.5l57 21q39 -67 15.5 -129.5t-89.5 -76.5zM408 56q121 0 207.5 86.5t86.5 208.5q0 121 -86.5 206.5t-207.5 85.5q-122 0 -209 -85.5t-87 -206.5q0 -122 87 -208.5t209 -86.5z" />
    <glyph glyph-name="uni1EDF" unicode="&#x1edf;" horiz-adv-x="643" 
d="M288 720q-22 0 -44 -15l-24 38q38 25 80 25q39 0 63 -20.5t24 -55.5q0 -57 -65 -110l-41 18q48 39 48 82q0 16 -11.5 27t-29.5 11zM592 651q41 -70 13.5 -134.5t-98.5 -73.5q65 -73 65 -180q0 -117 -74 -191t-190 -74t-190 74t-74 191q0 116 74 189.5t190 73.5
q73 0 132 -31q22 -8 45 -8q51 0 67 49.5t-17 93.5zM308 55q87 0 142 57.5t55 149.5q0 91 -55.5 148.5t-141.5 57.5t-141.5 -57.5t-55.5 -148.5q0 -92 55 -149.5t142 -57.5z" />
    <glyph glyph-name="uni1EE0" unicode="&#x1ee0;" horiz-adv-x="840" 
d="M347 825q-38 0 -38 -53h-49q0 47 19.5 77t58.5 30q30 0 71 -29t58 -29q38 0 38 54h49q0 -47 -19.5 -77t-58.5 -30q-30 0 -71 28.5t-58 28.5zM644 621q60 -50 94 -120t34 -150q0 -149 -106.5 -253t-258.5 -104t-258.5 104t-106.5 253q0 148 106.5 251t258.5 103
q86 0 159 -35v1q22 -8 45 -8q51 0 67 49.5t-17 93.5l57 21q39 -67 15.5 -129.5t-89.5 -76.5zM408 56q121 0 207.5 86.5t86.5 208.5q0 121 -86.5 206.5t-207.5 85.5q-122 0 -209 -85.5t-87 -206.5q0 -122 87 -208.5t209 -86.5z" />
    <glyph glyph-name="uni1EE1" unicode="&#x1ee1;" horiz-adv-x="643" 
d="M248 673q-38 0 -38 -53h-49q0 47 19.5 77t58.5 30q30 0 71 -29t58 -29q38 0 38 54h49q0 -47 -19.5 -77t-58.5 -30q-30 0 -71 28.5t-58 28.5zM592 651q41 -70 13.5 -134.5t-98.5 -73.5q65 -73 65 -180q0 -117 -74 -191t-190 -74t-190 74t-74 191q0 116 74 189.5t190 73.5
q73 0 132 -31q22 -8 45 -8q51 0 67 49.5t-17 93.5zM308 55q87 0 142 57.5t55 149.5q0 91 -55.5 148.5t-141.5 57.5t-141.5 -57.5t-55.5 -148.5q0 -92 55 -149.5t142 -57.5z" />
    <glyph glyph-name="uni1EE2" unicode="&#x1ee2;" horiz-adv-x="840" 
d="M644 621q60 -50 94 -120t34 -150q0 -149 -106.5 -253t-258.5 -104t-258.5 104t-106.5 253q0 148 106.5 251t258.5 103q86 0 159 -35v1q22 -8 45 -8q51 0 67 49.5t-17 93.5l57 21q39 -67 15.5 -129.5t-89.5 -76.5zM408 56q121 0 207.5 86.5t86.5 208.5q0 121 -86.5 206.5
t-207.5 85.5q-122 0 -209 -85.5t-87 -206.5q0 -122 87 -208.5t209 -86.5zM407 -76q20 0 33 -13.5t13 -33.5t-13.5 -34t-32.5 -14q-20 0 -33.5 14t-13.5 34t13.5 33.5t33.5 13.5z" />
    <glyph glyph-name="uni1EE3" unicode="&#x1ee3;" horiz-adv-x="644" 
d="M592 651q41 -70 13.5 -134.5t-98.5 -73.5q65 -73 65 -180q0 -117 -74 -191t-190 -74t-190 74t-74 191q0 116 74 189.5t190 73.5q73 0 132 -31q22 -8 45 -8q51 0 67 49.5t-17 93.5zM308 55q87 0 142 57.5t55 149.5q0 91 -55.5 148.5t-141.5 57.5t-141.5 -57.5
t-55.5 -148.5q0 -92 55 -149.5t142 -57.5zM308 -76q20 0 33 -13.5t13 -33.5t-13.5 -34t-32.5 -14q-20 0 -33.5 14t-13.5 34t13.5 33.5t33.5 13.5z" />
    <glyph glyph-name="uni1EE4" unicode="&#x1ee4;" horiz-adv-x="767" 
d="M163 284q0 -108 58.5 -168t162.5 -60t162 60t58 168v416h69v-416q0 -136 -76.5 -213t-212.5 -77t-213 77t-77 213v416h69v-416zM384 -76q20 0 33 -13.5t13 -33.5t-13.5 -34t-32.5 -14q-20 0 -33.5 14t-13.5 34t13.5 33.5t33.5 13.5z" />
    <glyph glyph-name="uni1EE5" unicode="&#x1ee5;" horiz-adv-x="645" 
d="M480 524h68v-524h-68v125q-52 -125 -202 -127q-93 0 -145.5 54.5t-52.5 149.5v322h68v-306q0 -74 40.5 -115.5t111.5 -41.5q84 1 132 57.5t48 148.5v257zM323 -76q20 0 33 -13.5t13 -33.5t-13.5 -34t-32.5 -14q-20 0 -33.5 14t-13.5 34t13.5 33.5t33.5 13.5z" />
    <glyph glyph-name="uni1EE6" unicode="&#x1ee6;" horiz-adv-x="767" 
d="M376 937q39 0 63 -20.5t24 -55.5q0 -57 -65 -110l-41 18q48 39 48 82q0 16 -11.5 27t-29.5 11q-22 0 -44 -15l-24 38q38 25 80 25zM163 284q0 -108 58.5 -168t162.5 -60t162 60t58 168v416h69v-416q0 -136 -76.5 -213t-212.5 -77t-213 77t-77 213v416h69v-416z" />
    </font>
</defs>
</svg>
