<svg width="1920" height="1379" viewBox="0 0 1920 1379" fill="none" xmlns="http://www.w3.org/2000/svg">
<g clip-path="url(#clip0_7_72)">
<rect width="1920" height="1379" fill="url(#paint0_linear_7_72)"/>
<path opacity="0.36" d="M-17.4359 758.434C-30.188 745.68 -30.188 725.001 -17.4359 712.261L243.256 451.566C256.009 438.811 276.684 438.811 289.436 451.566C302.188 464.32 302.188 484.999 289.436 497.739L28.7286 758.434C15.9766 771.189 -4.69883 771.189 -17.4509 758.434H-17.4359Z" fill="url(#paint1_radial_7_72)"/>
<path d="M127.139 489.858C125.277 487.996 122.258 487.996 120.396 489.858C118.534 491.72 118.534 494.739 120.396 496.601C122.258 498.463 125.277 498.463 127.139 496.601C129.001 494.739 129.001 491.72 127.139 489.858Z" fill="white" fill-opacity="0.5"/>
<path d="M157.009 459.988C155.147 458.126 152.129 458.126 150.267 459.988C148.405 461.85 148.405 464.868 150.267 466.73C152.129 468.592 155.147 468.592 157.009 466.73C158.871 464.868 158.871 461.85 157.009 459.988Z" fill="white" fill-opacity="0.5"/>
<path d="M186.86 430.118C184.998 428.256 181.979 428.256 180.117 430.118C178.255 431.98 178.255 434.998 180.117 436.86C181.979 438.722 184.998 438.722 186.86 436.86C188.722 434.998 188.722 431.98 186.86 430.118Z" fill="white" fill-opacity="0.5"/>
<path d="M216.73 400.267C214.868 398.405 211.85 398.405 209.988 400.267C208.126 402.129 208.126 405.147 209.988 407.009C211.85 408.871 214.868 408.871 216.73 407.009C218.592 405.147 218.592 402.129 216.73 400.267Z" fill="white" fill-opacity="0.5"/>
<path d="M239.859 377.139C241.721 379.001 244.739 379.001 246.601 377.139C248.463 375.277 248.463 372.258 246.601 370.396C244.739 368.534 241.721 368.534 239.859 370.396C237.997 372.258 237.997 375.277 239.859 377.139Z" fill="white" fill-opacity="0.5"/>
<path style="mix-blend-mode:overlay" d="M1061.14 -205.016C1063.96 -202.194 1063.96 -197.607 1061.14 -194.765L729.17 137.2C726.348 140.022 721.762 140.022 718.92 137.2C716.097 134.378 716.097 129.791 718.92 126.949L1050.88 -205.016C1053.71 -207.838 1058.29 -207.838 1061.14 -205.016Z" fill="url(#paint2_linear_7_72)"/>
<path opacity="0.36" d="M1027.35 -95.844C1035.62 -87.5728 1035.62 -74.1467 1027.35 -65.8755L857.982 103.39C849.711 111.661 836.285 111.661 828.014 103.39C819.743 95.1188 819.743 81.6929 828.014 73.4217L997.377 -95.844C1005.65 -104.115 1019.07 -104.115 1027.35 -95.844Z" fill="url(#paint3_radial_7_72)"/>
<path d="M1920 96H0V905H1920V96Z" fill="url(#paint4_linear_7_72)"/>
<g opacity="0.6">
<path d="M1504.5 473.538L1266.89 409.713" stroke="#1E6AC6" stroke-opacity="0.6" stroke-width="8.4" stroke-linecap="round"/>
<path d="M1203.52 392.693L1195.6 390.565" stroke="#179F0C" stroke-opacity="0.6" stroke-width="8.4" stroke-linecap="round"/>
<path d="M1104.71 697.335L1065.11 686.698" stroke="#179F0C" stroke-opacity="0.6" stroke-width="8.4" stroke-linecap="round"/>
<path d="M1019.59 445.189L995.825 438.807" stroke="#179F0C" stroke-opacity="0.6" stroke-width="8.4" stroke-linecap="round"/>
<path d="M1082.71 589.525L1071.4 586.486" stroke="#179F0C" stroke-opacity="0.6" stroke-width="8.4" stroke-linecap="round"/>
<path d="M1328.48 528.159L1106.71 468.59" stroke="#1E6AC6" stroke-opacity="0.6" stroke-width="8.4" stroke-linecap="round"/>
<path d="M1280.72 642.712L1146.08 606.545" stroke="#1E6AC6" stroke-opacity="0.6" stroke-width="8.4" stroke-linecap="round"/>
<path d="M1310.64 752.648L1175.99 716.481" stroke="#1E6AC6" stroke-opacity="0.6" stroke-width="8.4" stroke-linecap="round"/>
<path d="M1334.5 727.628C1343.35 742.769 1338.36 762.413 1323.35 771.504C1308.35 780.597 1289.01 775.694 1280.16 760.553C1279 758.577 1277.87 756.575 1276.78 754.575C1249.97 705.331 1244.75 650.197 1258.2 600.107C1271.66 550.016 1303.8 504.916 1351.68 475.735C1353.62 474.551 1355.6 473.384 1357.6 472.257C1408.48 443.488 1466.36 437.818 1518.8 451.904C1571.25 465.992 1618.49 499.9 1648.11 550.29C1649.27 552.265 1650.4 554.268 1651.49 556.268C1678.31 605.511 1683.52 660.646 1670.07 710.736C1656.61 760.826 1624.47 805.927 1576.59 835.107C1574.65 836.298 1572.67 837.459 1570.67 838.585C1555.43 847.255 1536.24 841.809 1527.81 826.423C1519.38 811.038 1524.9 791.536 1540.15 782.867C1541.64 782.021 1543.11 781.155 1544.55 780.28C1577.56 760.161 1599.74 728.991 1609.04 694.344C1618.35 659.69 1614.77 621.604 1596.29 587.661C1595.49 586.175 1594.64 584.687 1593.78 583.214C1578.68 557.534 1556.89 537.904 1531.81 525.235L1494.64 663.614C1490.04 680.737 1472.65 690.946 1455.8 686.42C1438.95 681.895 1429.02 664.347 1433.62 647.224L1470.79 508.845C1442.73 507.239 1414.04 513.31 1388.11 527.971C1386.62 528.818 1385.15 529.684 1383.7 530.559C1350.7 550.677 1328.52 581.847 1319.22 616.495C1309.91 651.149 1313.48 689.233 1331.97 723.178C1332.77 724.663 1333.62 726.145 1334.48 727.625L1334.5 727.628Z" fill="#1E6AC6" fill-opacity="0.9"/>
</g>
<path opacity="0.94" d="M1880.69 285.376C2040.68 285.376 2170.38 155.683 2170.38 -4.31199C2170.38 -164.307 2040.68 -294 1880.69 -294C1720.69 -294 1591 -164.307 1591 -4.31199C1591 155.683 1720.69 285.376 1880.69 285.376ZM1880.69 -179.242C1977.3 -179.242 2055.62 -100.92 2055.62 -4.31199C2055.62 92.2964 1977.3 170.618 1880.69 170.618C1784.08 170.618 1705.76 92.2964 1705.76 -4.31199C1705.76 -100.92 1784.08 -179.242 1880.69 -179.242Z" fill="url(#paint5_radial_7_72)"/>
<path opacity="0.94" d="M45.9999 -363C-239.539 -363 -471 -131.539 -471 154C-471 439.539 -239.539 671 45.9999 671C331.539 671 563 439.539 563 154C563 -131.539 331.539 -363 45.9999 -363ZM45.9999 466.194C-126.415 466.194 -266.194 326.415 -266.194 154C-266.194 -18.415 -126.415 -158.194 45.9999 -158.194C218.415 -158.194 358.194 -18.415 358.194 154C358.194 326.415 218.415 466.194 45.9999 466.194Z" fill="url(#paint6_radial_7_72)"/>
<path d="M320.569 207.546L261.691 148.668C210.731 197.001 130.273 196.217 80.3125 146.257C30.3521 96.2964 29.5877 15.8383 77.9017 -35.1217L19.0233 -94C-61.8071 -10.5432 -61.0035 122.639 21.4537 205.116C103.911 287.573 237.093 288.376 320.569 207.546Z" fill="url(#paint7_radial_7_72)" fill-opacity="0.2"/>
<g clip-path="url(#clip1_7_72)" filter="url(#filter0_d_7_72)">
<rect width="1920" height="477" transform="translate(0 905)" fill="#001447"/>
<path opacity="0.36" d="M1970.71 1148.38C1987.1 1164.89 1987.1 1191.66 1970.71 1208.15L1635.65 1545.62C1619.26 1562.13 1592.68 1562.13 1576.29 1545.62C1559.9 1529.11 1559.9 1502.34 1576.29 1485.85L1911.35 1148.38C1927.74 1131.87 1954.32 1131.87 1970.69 1148.38H1970.71Z" fill="url(#paint8_radial_7_72)"/>
<path d="M1159.62 1325.21L1046.21 1438.62C1046.39 1438.8 1046.55 1438.99 1046.72 1439.17C1046.9 1439.34 1047.1 1439.5 1047.27 1439.68L1160.68 1326.27C1160.5 1326.1 1160.34 1325.9 1160.17 1325.72C1159.99 1325.55 1159.8 1325.39 1159.62 1325.21Z" fill="#FF9149"/>
<path d="M1071.42 1455.97C1071.91 1456.18 1072.4 1456.4 1072.91 1456.61L1177.63 1351.89C1177.44 1351.4 1177.2 1350.91 1176.99 1350.4L1071.42 1455.97Z" fill="#FF9149"/>
<path d="M1051.74 1443.72C1052.13 1444.05 1052.51 1444.38 1052.9 1444.7L1165.72 1331.88C1165.4 1331.49 1165.07 1331.11 1164.74 1330.72L1051.74 1443.72Z" fill="#FF9149"/>
<path d="M1057.76 1448.34C1058.17 1448.64 1058.58 1448.93 1059.01 1449.22L1170.22 1338.01C1169.95 1337.58 1169.64 1337.17 1169.34 1336.76L1057.74 1448.36L1057.76 1448.34Z" fill="#FF9149"/>
<path d="M1079.14 1458.87C1079.67 1459.04 1080.22 1459.22 1080.75 1459.38L1180.38 1359.75C1180.22 1359.2 1180.04 1358.67 1179.87 1358.14L1079.14 1458.87Z" fill="#FF9149"/>
<path d="M1064.3 1452.44C1064.76 1452.69 1065.21 1452.95 1065.68 1453.2L1174.22 1344.66C1173.97 1344.21 1173.71 1343.76 1173.46 1343.29L1064.3 1452.44Z" fill="#FF9149"/>
<path d="M1099.53 1302.32C1098.76 1302.36 1098 1302.42 1097.23 1302.48L1023.52 1376.19C1023.46 1376.96 1023.4 1377.72 1023.36 1378.49L1099.55 1302.3L1099.53 1302.32Z" fill="#FF9149"/>
<path d="M1183.51 1377.9C1183.47 1377.23 1183.41 1376.57 1183.37 1375.92L1096.94 1462.36C1097.61 1462.41 1098.25 1462.45 1098.92 1462.49L1183.51 1377.9Z" fill="#FF9149"/>
<path d="M1025.48 1363.59C1025.26 1364.49 1025.07 1365.41 1024.89 1366.32L1087.33 1303.87C1086.43 1304.05 1085.51 1304.24 1084.61 1304.46L1025.48 1363.59Z" fill="#FF9149"/>
<path d="M1087.59 1461.06C1088.18 1461.18 1088.79 1461.28 1089.39 1461.39L1182.39 1368.39C1182.3 1367.79 1182.18 1367.2 1182.06 1366.59L1087.59 1461.06Z" fill="#FF9149"/>
<path d="M1031.55 1346.89C1030.91 1348.19 1030.3 1349.52 1029.73 1350.83L1071.85 1308.71C1070.52 1309.28 1069.2 1309.89 1067.91 1310.53L1031.55 1346.89Z" fill="#FF9149"/>
<path d="M1023.38 1386.97C1023.42 1387.64 1023.48 1388.31 1023.52 1388.95L1109.95 1302.52C1109.29 1302.46 1108.62 1302.42 1107.97 1302.38L1023.38 1386.97Z" fill="#FF9149"/>
<path d="M1024.5 1396.5C1024.6 1397.11 1024.71 1397.69 1024.83 1398.3L1119.3 1303.83C1118.71 1303.71 1118.11 1303.61 1117.5 1303.5L1024.5 1396.5Z" fill="#FF9149"/>
<path d="M1119.56 1461C1120.46 1460.83 1121.38 1460.63 1122.28 1460.41L1181.41 1401.28C1181.63 1400.38 1181.83 1399.48 1182 1398.56L1119.56 1461Z" fill="#FF9149"/>
<path d="M1041.18 1432.99C1041.49 1433.39 1041.82 1433.76 1042.16 1434.15L1155.15 1321.16C1154.76 1320.82 1154.39 1320.49 1153.99 1320.18L1041.18 1432.99Z" fill="#FF9149"/>
<path d="M1107.39 1462.53C1108.15 1462.49 1108.91 1462.43 1109.68 1462.37L1183.39 1388.66C1183.45 1387.89 1183.51 1387.13 1183.55 1386.37L1107.37 1462.55L1107.39 1462.53Z" fill="#FF9149"/>
<path d="M1175.34 1417.98C1175.99 1416.69 1176.59 1415.35 1177.16 1414.04L1135.04 1456.16C1136.37 1455.59 1137.69 1454.99 1138.98 1454.34L1175.34 1417.98Z" fill="#FF9149"/>
<path d="M1036.67 1426.88C1036.94 1427.31 1037.26 1427.72 1037.55 1428.13L1149.15 1316.53C1148.74 1316.24 1148.33 1315.94 1147.9 1315.65L1036.69 1426.86L1036.67 1426.88Z" fill="#FF9149"/>
<path d="M1032.69 1420.22C1032.93 1420.67 1033.2 1421.12 1033.45 1421.59L1142.61 1312.43C1142.16 1312.18 1141.71 1311.93 1141.23 1311.67L1032.69 1420.22Z" fill="#FF9149"/>
<path d="M1026.52 1405.12C1026.67 1405.67 1026.85 1406.2 1027.03 1406.73L1127.75 1306.01C1127.22 1305.83 1126.67 1305.65 1126.14 1305.5L1026.52 1405.12Z" fill="#FF9149"/>
<path d="M1029.28 1412.98C1029.48 1413.47 1029.71 1413.96 1029.93 1414.47L1135.49 1308.91C1135 1308.69 1134.51 1308.48 1134 1308.26L1029.28 1412.98Z" fill="#FF9149"/>
<path d="M1371.02 1033.02C1416.49 987.545 1416.49 913.815 1371.02 868.34C1325.54 822.865 1251.82 822.865 1206.34 868.34C1160.86 913.815 1160.86 987.545 1206.34 1033.02C1251.82 1078.49 1325.54 1078.49 1371.02 1033.02Z" fill="url(#paint9_radial_7_72)" fill-opacity="0.3"/>
<path opacity="0.94" d="M301.567 584.491C153.78 499.165 -35.184 549.798 -120.509 697.586C-205.835 845.374 -155.202 1034.34 -7.41427 1119.66C140.374 1204.99 329.337 1154.36 414.662 1006.57C499.988 858.78 449.355 669.816 301.567 584.491ZM53.7862 1013.66C-35.4513 962.139 -66.0283 848.024 -14.507 758.786C37.0144 669.549 151.129 638.972 240.367 690.493C329.604 742.014 360.181 856.129 308.66 945.367C257.139 1034.6 143.024 1065.18 53.7862 1013.66Z" fill="url(#paint10_radial_7_72)"/>
<path d="M40.1389 1159.01C38.2769 1157.15 35.2585 1157.15 33.3965 1159.01C31.5345 1160.87 31.5345 1163.89 33.3965 1165.75C35.2585 1167.62 38.2769 1167.62 40.1389 1165.75C42.0009 1163.89 42.0009 1160.87 40.1389 1159.01Z" fill="white"/>
<path d="M70.009 1129.14C68.147 1127.28 65.1286 1127.28 63.2666 1129.14C61.4046 1131 61.4046 1134.02 63.2666 1135.88C65.1286 1137.75 68.147 1137.75 70.009 1135.88C71.871 1134.02 71.871 1131 70.009 1129.14Z" fill="white"/>
<path d="M99.8596 1099.27C97.9976 1097.41 94.9792 1097.41 93.1172 1099.27C91.2552 1101.13 91.2552 1104.15 93.1172 1106.01C94.9792 1107.87 97.9976 1107.87 99.8596 1106.01C101.722 1104.15 101.722 1101.13 99.8596 1099.27Z" fill="white"/>
<path d="M129.731 1069.42C127.869 1067.56 124.85 1067.56 122.988 1069.42C121.126 1071.28 121.126 1074.3 122.988 1076.16C124.85 1078.02 127.869 1078.02 129.731 1076.16C131.593 1074.3 131.593 1071.28 129.731 1069.42Z" fill="white"/>
<path d="M152.859 1046.29C154.721 1048.15 157.739 1048.15 159.601 1046.29C161.463 1044.43 161.463 1041.41 159.601 1039.55C157.739 1037.69 154.721 1037.69 152.859 1039.55C150.997 1041.41 150.997 1044.43 152.859 1046.29Z" fill="white"/>
</g>
<path d="M1917.78 1231.57C1920.6 1234.39 1920.6 1238.98 1917.78 1241.82L1585.82 1573.78C1582.99 1576.61 1578.41 1576.61 1575.57 1573.78C1572.74 1570.96 1572.74 1566.37 1575.57 1563.53L1907.53 1231.57C1910.35 1228.74 1914.94 1228.74 1917.78 1231.57Z" fill="url(#paint11_linear_7_72)" style="mix-blend-mode:overlay"/>
</g>
<defs>
<filter id="filter0_d_7_72" x="-30" y="879" width="1980" height="537" filterUnits="userSpaceOnUse" color-interpolation-filters="sRGB">
<feFlood flood-opacity="0" result="BackgroundImageFix"/>
<feColorMatrix in="SourceAlpha" type="matrix" values="0 0 0 0 0 0 0 0 0 0 0 0 0 0 0 0 0 0 127 0" result="hardAlpha"/>
<feOffset dy="4"/>
<feGaussianBlur stdDeviation="15"/>
<feComposite in2="hardAlpha" operator="out"/>
<feColorMatrix type="matrix" values="0 0 0 0 0.0862745 0 0 0 0 0.498039 0 0 0 0 0.988235 0 0 0 1 0"/>
<feBlend mode="normal" in2="BackgroundImageFix" result="effect1_dropShadow_7_72"/>
<feBlend mode="normal" in="SourceGraphic" in2="effect1_dropShadow_7_72" result="shape"/>
</filter>
<linearGradient id="paint0_linear_7_72" x1="960" y1="0" x2="960" y2="1379" gradientUnits="userSpaceOnUse">
<stop offset="0.729167" stop-color="#01164E"/>
<stop offset="1" stop-color="#092E9C"/>
</linearGradient>
<radialGradient id="paint1_radial_7_72" cx="0" cy="0" r="1" gradientUnits="userSpaceOnUse" gradientTransform="translate(346.116 409.559) rotate(45.0153) scale(981.917 981.917)">
<stop stop-color="#5BC7CE"/>
<stop offset="0.11" stop-color="#4198C0"/>
<stop offset="0.23" stop-color="#296BB3"/>
<stop offset="0.34" stop-color="#184AAA"/>
<stop offset="0.43" stop-color="#0D37A5"/>
<stop offset="0.49" stop-color="#0A30A3"/>
<stop offset="1" stop-color="#00152A"/>
</radialGradient>
<linearGradient id="paint2_linear_7_72" x1="948.22" y1="-104.742" x2="748.261" y2="138.69" gradientUnits="userSpaceOnUse">
<stop offset="0.17" stop-color="#0A30A3"/>
<stop offset="1" stop-color="white"/>
</linearGradient>
<radialGradient id="paint3_radial_7_72" cx="0" cy="0" r="1" gradientUnits="userSpaceOnUse" gradientTransform="translate(785.444 139.835) rotate(-134.97) scale(637.568 637.568)">
<stop stop-color="#5BC7CE"/>
<stop offset="0.11" stop-color="#4198C0"/>
<stop offset="0.23" stop-color="#296BB3"/>
<stop offset="0.34" stop-color="#184AAA"/>
<stop offset="0.43" stop-color="#0D37A5"/>
<stop offset="0.49" stop-color="#0A30A3"/>
<stop offset="1" stop-color="#00152A"/>
</radialGradient>
<linearGradient id="paint4_linear_7_72" x1="0" y1="96" x2="1919.28" y2="906.698" gradientUnits="userSpaceOnUse">
<stop stop-color="#0A30A3"/>
<stop offset="0.585704" stop-color="#001447"/>
</linearGradient>
<radialGradient id="paint5_radial_7_72" cx="0" cy="0" r="1" gradientUnits="userSpaceOnUse" gradientTransform="translate(1782.1 220.461) scale(758.657 758.657)">
<stop stop-color="#0A30A3"/>
<stop offset="1" stop-color="#00152A"/>
</radialGradient>
<radialGradient id="paint6_radial_7_72" cx="0" cy="0" r="1" gradientUnits="userSpaceOnUse" gradientTransform="translate(115.924 -276.705) scale(1072.69)">
<stop stop-color="#0A30A3"/>
<stop offset="1" stop-color="#00152A"/>
</radialGradient>
<radialGradient id="paint7_radial_7_72" cx="0" cy="0" r="1" gradientUnits="userSpaceOnUse" gradientTransform="translate(2.17745 -82.2781) rotate(-45) scale(1433.13)">
<stop stop-color="#5BC7CE"/>
<stop offset="0.11" stop-color="#4198C0"/>
<stop offset="0.23" stop-color="#296BB3"/>
<stop offset="0.34" stop-color="#184AAA"/>
<stop offset="0.43" stop-color="#0D37A5"/>
<stop offset="0.49" stop-color="#0A30A3"/>
<stop offset="1" stop-color="#00152A"/>
</radialGradient>
<radialGradient id="paint8_radial_7_72" cx="0" cy="0" r="1" gradientUnits="userSpaceOnUse" gradientTransform="translate(1488.07 1603.33) rotate(-134.78) scale(1266.56 1266.53)">
<stop stop-color="#5BC7CE"/>
<stop offset="0.11" stop-color="#4198C0"/>
<stop offset="0.23" stop-color="#296BB3"/>
<stop offset="0.34" stop-color="#184AAA"/>
<stop offset="0.43" stop-color="#0D37A5"/>
<stop offset="0.49" stop-color="#0A30A3"/>
<stop offset="1" stop-color="#00152A"/>
</radialGradient>
<radialGradient id="paint9_radial_7_72" cx="0" cy="0" r="1" gradientUnits="userSpaceOnUse" gradientTransform="translate(1021.33 1144.71) rotate(-180) scale(801.052)">
<stop stop-color="#5BC7CE"/>
<stop offset="0.11" stop-color="#4198C0"/>
<stop offset="0.23" stop-color="#296BB3"/>
<stop offset="0.34" stop-color="#184AAA"/>
<stop offset="0.43" stop-color="#0D37A5"/>
<stop offset="0.49" stop-color="#0A30A3"/>
<stop offset="1" stop-color="#00152A"/>
</radialGradient>
<radialGradient id="paint10_radial_7_72" cx="0" cy="0" r="1" gradientUnits="userSpaceOnUse" gradientTransform="translate(311.972 650.05) rotate(30) scale(641.084)">
<stop stop-color="#0A30A3"/>
<stop offset="1" stop-color="#00152A"/>
</radialGradient>
<linearGradient id="paint11_linear_7_72" x1="1595.95" y1="1575.45" x2="1813.95" y2="1362.95" gradientUnits="userSpaceOnUse">
<stop stop-color="#0A30A3" stop-opacity="0.31"/>
<stop offset="1" stop-color="white" stop-opacity="0"/>
</linearGradient>
<clipPath id="clip0_7_72">
<rect width="1920" height="1379" fill="white"/>
</clipPath>
<clipPath id="clip1_7_72">
<rect width="1920" height="477" fill="white" transform="translate(0 905)"/>
</clipPath>
</defs>
</svg>
