<svg width="1920" height="2692" viewBox="0 0 1920 2692" fill="none" xmlns="http://www.w3.org/2000/svg">
<g clip-path="url(#clip0_5_120)">
<rect width="1920" height="2692" fill="url(#paint0_linear_5_120)"/>
<path opacity="0.36" d="M-17.4359 758.434C-30.188 745.68 -30.188 725.001 -17.4359 712.261L243.256 451.566C256.009 438.811 276.684 438.811 289.436 451.566C302.188 464.32 302.188 484.999 289.436 497.739L28.7286 758.434C15.9766 771.189 -4.69883 771.189 -17.4509 758.434H-17.4359Z" fill="url(#paint1_radial_5_120)"/>
<path d="M127.139 489.859C125.277 487.997 122.259 487.997 120.396 489.859C118.534 491.721 118.534 494.739 120.396 496.601C122.259 498.463 125.277 498.463 127.139 496.601C129.001 494.739 129.001 491.721 127.139 489.859Z" fill="white" fill-opacity="0.5"/>
<path d="M157.009 459.988C155.147 458.126 152.129 458.126 150.267 459.988C148.405 461.85 148.405 464.868 150.267 466.73C152.129 468.592 155.147 468.592 157.009 466.73C158.871 464.868 158.871 461.85 157.009 459.988Z" fill="white" fill-opacity="0.5"/>
<path d="M186.86 430.118C184.998 428.256 181.979 428.256 180.117 430.118C178.255 431.98 178.255 434.998 180.117 436.86C181.979 438.722 184.998 438.722 186.86 436.86C188.722 434.998 188.722 431.98 186.86 430.118Z" fill="white" fill-opacity="0.5"/>
<path d="M216.73 400.267C214.868 398.405 211.85 398.405 209.988 400.267C208.126 402.129 208.126 405.147 209.988 407.009C211.85 408.871 214.868 408.871 216.73 407.009C218.592 405.147 218.592 402.129 216.73 400.267Z" fill="white" fill-opacity="0.5"/>
<path d="M239.858 377.139C241.72 379.001 244.739 379.001 246.601 377.139C248.463 375.277 248.463 372.259 246.601 370.396C244.739 368.534 241.72 368.534 239.858 370.396C237.996 372.259 237.996 375.277 239.858 377.139Z" fill="white" fill-opacity="0.5"/>
<path style="mix-blend-mode:overlay" d="M1061.14 -205.016C1063.96 -202.194 1063.96 -197.607 1061.14 -194.765L729.17 137.2C726.348 140.022 721.762 140.022 718.92 137.2C716.097 134.378 716.097 129.791 718.92 126.949L1050.88 -205.016C1053.71 -207.838 1058.29 -207.838 1061.14 -205.016Z" fill="url(#paint2_linear_5_120)"/>
<path opacity="0.36" d="M1027.35 -95.844C1035.62 -87.5728 1035.62 -74.1467 1027.35 -65.8755L857.982 103.39C849.711 111.661 836.285 111.661 828.014 103.39C819.743 95.1188 819.743 81.6929 828.014 73.4217L997.378 -95.844C1005.65 -104.115 1019.07 -104.115 1027.35 -95.844Z" fill="url(#paint3_radial_5_120)"/>
<path d="M1920 96H0V2315H1920V96Z" fill="url(#paint4_linear_5_120)"/>
<g opacity="0.6">
<path d="M1699.5 473.538L1461.89 409.713" stroke="#1E6AC6" stroke-opacity="0.6" stroke-width="8.4" stroke-linecap="round"/>
<path d="M1398.52 392.693L1390.6 390.565" stroke="#179F0C" stroke-opacity="0.6" stroke-width="8.4" stroke-linecap="round"/>
<path d="M1299.71 697.335L1260.11 686.698" stroke="#179F0C" stroke-opacity="0.6" stroke-width="8.4" stroke-linecap="round"/>
<path d="M1214.59 445.189L1190.82 438.807" stroke="#179F0C" stroke-opacity="0.6" stroke-width="8.4" stroke-linecap="round"/>
<path d="M1277.72 589.525L1266.4 586.486" stroke="#179F0C" stroke-opacity="0.6" stroke-width="8.4" stroke-linecap="round"/>
<path d="M1523.48 528.159L1301.71 468.59" stroke="#1E6AC6" stroke-opacity="0.6" stroke-width="8.4" stroke-linecap="round"/>
<path d="M1475.72 642.712L1341.08 606.545" stroke="#1E6AC6" stroke-opacity="0.6" stroke-width="8.4" stroke-linecap="round"/>
<path d="M1505.64 752.648L1370.99 716.481" stroke="#1E6AC6" stroke-opacity="0.6" stroke-width="8.4" stroke-linecap="round"/>
<path d="M1529.5 727.628C1538.35 742.769 1533.36 762.413 1518.35 771.504C1503.35 780.597 1484.01 775.694 1475.16 760.553C1474 758.577 1472.87 756.575 1471.78 754.575C1444.97 705.331 1439.75 650.197 1453.21 600.107C1466.66 550.016 1498.8 504.916 1546.68 475.735C1548.63 474.551 1550.6 473.384 1552.6 472.257C1603.48 443.488 1661.36 437.818 1713.8 451.904C1766.25 465.992 1813.49 499.9 1843.11 550.29C1844.27 552.265 1845.4 554.268 1846.49 556.268C1873.31 605.511 1878.52 660.646 1865.07 710.736C1851.61 760.826 1819.47 805.927 1771.6 835.107C1769.65 836.298 1767.67 837.459 1765.67 838.585C1750.43 847.255 1731.24 841.809 1722.81 826.423C1714.38 811.038 1719.9 791.537 1735.15 782.867C1736.64 782.02 1738.11 781.155 1739.55 780.28C1772.56 760.161 1794.74 728.991 1804.04 694.344C1813.35 659.69 1809.77 621.604 1791.29 587.661C1790.49 586.175 1789.64 584.687 1788.78 583.214C1773.68 557.534 1751.89 537.904 1726.81 525.235L1689.64 663.614C1685.04 680.737 1667.65 690.946 1650.8 686.42C1633.95 681.895 1624.02 664.347 1628.62 647.224L1665.79 508.845C1637.73 507.239 1609.04 513.31 1583.11 527.971C1581.62 528.818 1580.15 529.684 1578.71 530.559C1545.7 550.677 1523.52 581.847 1514.22 616.495C1504.91 651.149 1508.48 689.233 1526.97 723.178C1527.77 724.663 1528.62 726.145 1529.48 727.625L1529.5 727.628Z" fill="#1E6AC6" fill-opacity="0.9"/>
</g>
<path opacity="0.94" d="M1880.69 285.376C2040.68 285.376 2170.38 155.683 2170.38 -4.31198C2170.38 -164.307 2040.68 -294 1880.69 -294C1720.69 -294 1591 -164.307 1591 -4.31198C1591 155.683 1720.69 285.376 1880.69 285.376ZM1880.69 -179.242C1977.3 -179.242 2055.62 -100.92 2055.62 -4.31198C2055.62 92.2964 1977.3 170.618 1880.69 170.618C1784.08 170.618 1705.76 92.2964 1705.76 -4.31198C1705.76 -100.92 1784.08 -179.242 1880.69 -179.242Z" fill="url(#paint5_radial_5_120)"/>
<path opacity="0.94" d="M45.9999 -363C-239.539 -363 -471 -131.539 -471 154C-471 439.539 -239.539 671 45.9999 671C331.539 671 563 439.539 563 154C563 -131.539 331.539 -363 45.9999 -363ZM45.9999 466.194C-126.415 466.194 -266.194 326.415 -266.194 154C-266.194 -18.415 -126.415 -158.194 45.9999 -158.194C218.415 -158.194 358.194 -18.415 358.194 154C358.194 326.415 218.415 466.194 45.9999 466.194Z" fill="url(#paint6_radial_5_120)"/>
<path d="M320.569 207.546L261.691 148.668C210.731 197.001 130.273 196.217 80.3125 146.257C30.3521 96.2964 29.5877 15.8383 77.9017 -35.1217L19.0233 -94C-61.8071 -10.5432 -61.0035 122.639 21.4537 205.116C103.911 287.573 237.093 288.376 320.569 207.546Z" fill="url(#paint7_radial_5_120)" fill-opacity="0.2"/>
<g clip-path="url(#clip1_5_120)" filter="url(#filter0_d_5_120)">
<rect width="1920" height="477" transform="translate(0 2211)" fill="#001447"/>
<path opacity="0.36" d="M1970.71 2454.38C1987.1 2470.89 1987.1 2497.66 1970.71 2514.15L1635.65 2851.62C1619.26 2868.13 1592.68 2868.13 1576.29 2851.62C1559.9 2835.11 1559.9 2808.34 1576.29 2791.85L1911.35 2454.38C1927.74 2437.87 1954.32 2437.87 1970.69 2454.38H1970.71Z" fill="url(#paint8_radial_5_120)"/>
<path d="M1159.62 2631.21L1046.21 2744.62C1046.39 2744.8 1046.55 2744.99 1046.72 2745.17C1046.9 2745.34 1047.1 2745.5 1047.27 2745.68L1160.68 2632.27C1160.5 2632.1 1160.34 2631.9 1160.17 2631.72C1159.99 2631.55 1159.8 2631.39 1159.62 2631.21Z" fill="#FF9149"/>
<path d="M1071.42 2761.97C1071.91 2762.18 1072.4 2762.4 1072.91 2762.61L1177.63 2657.89C1177.44 2657.4 1177.2 2656.91 1176.99 2656.4L1071.42 2761.97Z" fill="#FF9149"/>
<path d="M1051.74 2749.72C1052.13 2750.05 1052.51 2750.38 1052.9 2750.7L1165.72 2637.88C1165.4 2637.49 1165.07 2637.11 1164.74 2636.72L1051.74 2749.72Z" fill="#FF9149"/>
<path d="M1057.76 2754.34C1058.17 2754.64 1058.58 2754.93 1059.01 2755.22L1170.22 2644.01C1169.95 2643.58 1169.64 2643.17 1169.34 2642.76L1057.74 2754.36L1057.76 2754.34Z" fill="#FF9149"/>
<path d="M1079.14 2764.87C1079.67 2765.04 1080.22 2765.22 1080.75 2765.38L1180.38 2665.75C1180.22 2665.2 1180.04 2664.67 1179.87 2664.14L1079.14 2764.87Z" fill="#FF9149"/>
<path d="M1064.3 2758.44C1064.76 2758.69 1065.21 2758.95 1065.68 2759.2L1174.22 2650.66C1173.97 2650.21 1173.71 2649.76 1173.46 2649.29L1064.3 2758.44Z" fill="#FF9149"/>
<path d="M1099.53 2608.32C1098.76 2608.36 1098 2608.42 1097.23 2608.48L1023.52 2682.19C1023.46 2682.96 1023.4 2683.72 1023.36 2684.49L1099.55 2608.3L1099.53 2608.32Z" fill="#FF9149"/>
<path d="M1183.51 2683.9C1183.47 2683.23 1183.41 2682.57 1183.37 2681.92L1096.94 2768.36C1097.61 2768.41 1098.25 2768.45 1098.92 2768.49L1183.51 2683.9Z" fill="#FF9149"/>
<path d="M1025.48 2669.59C1025.26 2670.49 1025.07 2671.41 1024.89 2672.32L1087.33 2609.87C1086.43 2610.05 1085.51 2610.24 1084.61 2610.46L1025.48 2669.59Z" fill="#FF9149"/>
<path d="M1087.59 2767.06C1088.18 2767.18 1088.79 2767.28 1089.39 2767.39L1182.39 2674.39C1182.3 2673.79 1182.18 2673.2 1182.06 2672.59L1087.59 2767.06Z" fill="#FF9149"/>
<path d="M1031.55 2652.89C1030.91 2654.19 1030.3 2655.52 1029.73 2656.83L1071.85 2614.71C1070.52 2615.28 1069.2 2615.89 1067.91 2616.53L1031.55 2652.89Z" fill="#FF9149"/>
<path d="M1023.38 2692.97C1023.42 2693.64 1023.48 2694.31 1023.52 2694.95L1109.95 2608.52C1109.29 2608.46 1108.62 2608.42 1107.97 2608.38L1023.38 2692.97Z" fill="#FF9149"/>
<path d="M1024.5 2702.5C1024.6 2703.11 1024.71 2703.69 1024.83 2704.3L1119.3 2609.83C1118.71 2609.71 1118.11 2609.61 1117.5 2609.5L1024.5 2702.5Z" fill="#FF9149"/>
<path d="M1119.56 2767C1120.46 2766.83 1121.38 2766.63 1122.28 2766.41L1181.41 2707.28C1181.63 2706.38 1181.83 2705.48 1182 2704.56L1119.56 2767Z" fill="#FF9149"/>
<path d="M1041.18 2738.99C1041.49 2739.39 1041.82 2739.76 1042.16 2740.15L1155.15 2627.16C1154.76 2626.82 1154.39 2626.49 1153.99 2626.18L1041.18 2738.99Z" fill="#FF9149"/>
<path d="M1107.39 2768.53C1108.15 2768.49 1108.91 2768.43 1109.68 2768.37L1183.39 2694.66C1183.45 2693.89 1183.51 2693.13 1183.55 2692.37L1107.37 2768.55L1107.39 2768.53Z" fill="#FF9149"/>
<path d="M1175.34 2723.98C1175.99 2722.69 1176.59 2721.35 1177.16 2720.04L1135.04 2762.16C1136.37 2761.59 1137.69 2760.99 1138.98 2760.34L1175.34 2723.98Z" fill="#FF9149"/>
<path d="M1036.67 2732.88C1036.94 2733.31 1037.26 2733.72 1037.55 2734.13L1149.15 2622.53C1148.74 2622.24 1148.33 2621.94 1147.9 2621.65L1036.69 2732.86L1036.67 2732.88Z" fill="#FF9149"/>
<path d="M1032.69 2726.22C1032.93 2726.67 1033.2 2727.12 1033.45 2727.59L1142.61 2618.43C1142.16 2618.18 1141.71 2617.93 1141.23 2617.67L1032.69 2726.22Z" fill="#FF9149"/>
<path d="M1026.52 2711.12C1026.67 2711.67 1026.85 2712.2 1027.03 2712.73L1127.75 2612.01C1127.22 2611.83 1126.67 2611.65 1126.14 2611.5L1026.52 2711.12Z" fill="#FF9149"/>
<path d="M1029.28 2718.98C1029.48 2719.47 1029.71 2719.96 1029.93 2720.47L1135.49 2614.91C1135 2614.69 1134.51 2614.48 1134 2614.26L1029.28 2718.98Z" fill="#FF9149"/>
<path d="M1371.02 2339.02C1416.49 2293.54 1416.49 2219.81 1371.02 2174.34C1325.54 2128.86 1251.82 2128.86 1206.34 2174.34C1160.86 2219.81 1160.86 2293.54 1206.34 2339.02C1251.82 2384.49 1325.54 2384.49 1371.02 2339.02Z" fill="url(#paint9_radial_5_120)" fill-opacity="0.3"/>
<path opacity="0.94" d="M301.567 1890.49C153.78 1805.17 -35.184 1855.8 -120.509 2003.59C-205.835 2151.37 -155.202 2340.34 -7.41427 2425.66C140.374 2510.99 329.337 2460.36 414.662 2312.57C499.988 2164.78 449.355 1975.82 301.567 1890.49ZM53.7862 2319.66C-35.4513 2268.14 -66.0283 2154.02 -14.507 2064.79C37.0144 1975.55 151.129 1944.97 240.367 1996.49C329.604 2048.01 360.181 2162.13 308.66 2251.37C257.139 2340.6 143.024 2371.18 53.7862 2319.66Z" fill="url(#paint10_radial_5_120)"/>
<path d="M40.1389 2465.01C38.2769 2463.15 35.2585 2463.15 33.3965 2465.01C31.5345 2466.87 31.5345 2469.89 33.3965 2471.75C35.2585 2473.62 38.2769 2473.62 40.1389 2471.75C42.0009 2469.89 42.0009 2466.87 40.1389 2465.01Z" fill="white"/>
<path d="M70.009 2435.14C68.147 2433.28 65.1286 2433.28 63.2666 2435.14C61.4046 2437 61.4046 2440.02 63.2666 2441.88C65.1286 2443.75 68.147 2443.75 70.009 2441.88C71.871 2440.02 71.871 2437 70.009 2435.14Z" fill="white"/>
<path d="M99.8596 2405.27C97.9976 2403.41 94.9792 2403.41 93.1172 2405.27C91.2552 2407.13 91.2552 2410.15 93.1172 2412.01C94.9792 2413.87 97.9976 2413.87 99.8596 2412.01C101.722 2410.15 101.722 2407.13 99.8596 2405.27Z" fill="white"/>
<path d="M129.731 2375.42C127.869 2373.56 124.85 2373.56 122.988 2375.42C121.126 2377.28 121.126 2380.3 122.988 2382.16C124.85 2384.02 127.869 2384.02 129.731 2382.16C131.593 2380.3 131.593 2377.28 129.731 2375.42Z" fill="white"/>
<path d="M152.859 2352.29C154.721 2354.15 157.739 2354.15 159.601 2352.29C161.463 2350.43 161.463 2347.41 159.601 2345.55C157.739 2343.69 154.721 2343.69 152.859 2345.55C150.997 2347.41 150.997 2350.43 152.859 2352.29Z" fill="white"/>
</g>
<path d="M1917.78 1231.57C1920.6 1234.39 1920.6 1238.98 1917.78 1241.82L1585.82 1573.78C1582.99 1576.61 1578.41 1576.61 1575.57 1573.78C1572.74 1570.96 1572.74 1566.37 1575.57 1563.53L1907.53 1231.57C1910.35 1228.74 1914.94 1228.74 1917.78 1231.57Z" fill="url(#paint11_linear_5_120)" style="mix-blend-mode:overlay"/>
</g>
<defs>
<filter id="filter0_d_5_120" x="-30" y="2185" width="1980" height="537" filterUnits="userSpaceOnUse" color-interpolation-filters="sRGB">
<feFlood flood-opacity="0" result="BackgroundImageFix"/>
<feColorMatrix in="SourceAlpha" type="matrix" values="0 0 0 0 0 0 0 0 0 0 0 0 0 0 0 0 0 0 127 0" result="hardAlpha"/>
<feOffset dy="4"/>
<feGaussianBlur stdDeviation="15"/>
<feComposite in2="hardAlpha" operator="out"/>
<feColorMatrix type="matrix" values="0 0 0 0 0.0862745 0 0 0 0 0.498039 0 0 0 0 0.988235 0 0 0 1 0"/>
<feBlend mode="normal" in2="BackgroundImageFix" result="effect1_dropShadow_5_120"/>
<feBlend mode="normal" in="SourceGraphic" in2="effect1_dropShadow_5_120" result="shape"/>
</filter>
<linearGradient id="paint0_linear_5_120" x1="960" y1="0" x2="960" y2="2692" gradientUnits="userSpaceOnUse">
<stop offset="0.729167" stop-color="#01164E"/>
<stop offset="1" stop-color="#092E9C"/>
</linearGradient>
<radialGradient id="paint1_radial_5_120" cx="0" cy="0" r="1" gradientUnits="userSpaceOnUse" gradientTransform="translate(346.116 409.559) rotate(45.0153) scale(981.917 981.917)">
<stop stop-color="#5BC7CE"/>
<stop offset="0.11" stop-color="#4198C0"/>
<stop offset="0.23" stop-color="#296BB3"/>
<stop offset="0.34" stop-color="#184AAA"/>
<stop offset="0.43" stop-color="#0D37A5"/>
<stop offset="0.49" stop-color="#0A30A3"/>
<stop offset="1" stop-color="#00152A"/>
</radialGradient>
<linearGradient id="paint2_linear_5_120" x1="948.22" y1="-104.742" x2="748.261" y2="138.69" gradientUnits="userSpaceOnUse">
<stop offset="0.17" stop-color="#0A30A3"/>
<stop offset="1" stop-color="white"/>
</linearGradient>
<radialGradient id="paint3_radial_5_120" cx="0" cy="0" r="1" gradientUnits="userSpaceOnUse" gradientTransform="translate(785.444 139.835) rotate(-134.97) scale(637.568 637.568)">
<stop stop-color="#5BC7CE"/>
<stop offset="0.11" stop-color="#4198C0"/>
<stop offset="0.23" stop-color="#296BB3"/>
<stop offset="0.34" stop-color="#184AAA"/>
<stop offset="0.43" stop-color="#0D37A5"/>
<stop offset="0.49" stop-color="#0A30A3"/>
<stop offset="1" stop-color="#00152A"/>
</radialGradient>
<linearGradient id="paint4_linear_5_120" x1="0" y1="96" x2="2209.32" y2="436.229" gradientUnits="userSpaceOnUse">
<stop stop-color="#0A30A3"/>
<stop offset="0.585704" stop-color="#001447"/>
</linearGradient>
<radialGradient id="paint5_radial_5_120" cx="0" cy="0" r="1" gradientUnits="userSpaceOnUse" gradientTransform="translate(1782.1 220.461) scale(758.657 758.657)">
<stop stop-color="#0A30A3"/>
<stop offset="1" stop-color="#00152A"/>
</radialGradient>
<radialGradient id="paint6_radial_5_120" cx="0" cy="0" r="1" gradientUnits="userSpaceOnUse" gradientTransform="translate(115.924 -276.705) scale(1072.69)">
<stop stop-color="#0A30A3"/>
<stop offset="1" stop-color="#00152A"/>
</radialGradient>
<radialGradient id="paint7_radial_5_120" cx="0" cy="0" r="1" gradientUnits="userSpaceOnUse" gradientTransform="translate(2.17745 -82.2781) rotate(-45) scale(1433.13)">
<stop stop-color="#5BC7CE"/>
<stop offset="0.11" stop-color="#4198C0"/>
<stop offset="0.23" stop-color="#296BB3"/>
<stop offset="0.34" stop-color="#184AAA"/>
<stop offset="0.43" stop-color="#0D37A5"/>
<stop offset="0.49" stop-color="#0A30A3"/>
<stop offset="1" stop-color="#00152A"/>
</radialGradient>
<radialGradient id="paint8_radial_5_120" cx="0" cy="0" r="1" gradientUnits="userSpaceOnUse" gradientTransform="translate(1488.07 2909.33) rotate(-134.78) scale(1266.56 1266.53)">
<stop stop-color="#5BC7CE"/>
<stop offset="0.11" stop-color="#4198C0"/>
<stop offset="0.23" stop-color="#296BB3"/>
<stop offset="0.34" stop-color="#184AAA"/>
<stop offset="0.43" stop-color="#0D37A5"/>
<stop offset="0.49" stop-color="#0A30A3"/>
<stop offset="1" stop-color="#00152A"/>
</radialGradient>
<radialGradient id="paint9_radial_5_120" cx="0" cy="0" r="1" gradientUnits="userSpaceOnUse" gradientTransform="translate(1021.33 2450.71) rotate(-180) scale(801.052)">
<stop stop-color="#5BC7CE"/>
<stop offset="0.11" stop-color="#4198C0"/>
<stop offset="0.23" stop-color="#296BB3"/>
<stop offset="0.34" stop-color="#184AAA"/>
<stop offset="0.43" stop-color="#0D37A5"/>
<stop offset="0.49" stop-color="#0A30A3"/>
<stop offset="1" stop-color="#00152A"/>
</radialGradient>
<radialGradient id="paint10_radial_5_120" cx="0" cy="0" r="1" gradientUnits="userSpaceOnUse" gradientTransform="translate(311.972 1956.05) rotate(30) scale(641.084)">
<stop stop-color="#0A30A3"/>
<stop offset="1" stop-color="#00152A"/>
</radialGradient>
<linearGradient id="paint11_linear_5_120" x1="1595.95" y1="1575.45" x2="1813.95" y2="1362.95" gradientUnits="userSpaceOnUse">
<stop stop-color="#0A30A3" stop-opacity="0.31"/>
<stop offset="1" stop-color="white" stop-opacity="0"/>
</linearGradient>
<clipPath id="clip0_5_120">
<rect width="1920" height="2692" fill="white"/>
</clipPath>
<clipPath id="clip1_5_120">
<rect width="1920" height="477" fill="white" transform="translate(0 2211)"/>
</clipPath>
</defs>
</svg>
