<svg width="1920" height="4973" viewBox="0 0 1920 4973" fill="none" xmlns="http://www.w3.org/2000/svg">
<g clip-path="url(#clip0_100_197)">
<rect width="1920" height="4973" fill="url(#paint0_linear_100_197)"/>
<g clip-path="url(#clip1_100_197)" filter="url(#filter0_d_100_197)">
<rect width="1920" height="477" transform="translate(0 4493)" fill="#001447"/>
<path opacity="0.36" d="M1970.71 4736.38C1987.1 4752.89 1987.1 4779.66 1970.71 4796.15L1635.65 5133.62C1619.26 5150.13 1592.68 5150.13 1576.29 5133.62C1559.9 5117.11 1559.9 5090.34 1576.29 5073.85L1911.35 4736.38C1927.74 4719.87 1954.32 4719.87 1970.69 4736.38H1970.71Z" fill="url(#paint1_radial_100_197)"/>
<path d="M1159.62 4913.21L1046.21 5026.62C1046.39 5026.8 1046.55 5026.99 1046.72 5027.17C1046.9 5027.35 1047.1 5027.5 1047.27 5027.68L1160.68 4914.27C1160.5 4914.1 1160.34 4913.9 1160.17 4913.72C1159.99 4913.55 1159.8 4913.39 1159.62 4913.21Z" fill="#FF9149"/>
<path d="M1071.42 5043.97C1071.91 5044.18 1072.4 5044.4 1072.91 5044.61L1177.63 4939.89C1177.44 4939.4 1177.2 4938.91 1176.99 4938.4L1071.42 5043.97Z" fill="#FF9149"/>
<path d="M1051.74 5031.72C1052.13 5032.05 1052.51 5032.38 1052.9 5032.7L1165.72 4919.88C1165.4 4919.49 1165.07 4919.11 1164.74 4918.72L1051.74 5031.72Z" fill="#FF9149"/>
<path d="M1057.76 5036.34C1058.17 5036.64 1058.58 5036.93 1059.01 5037.22L1170.22 4926.01C1169.95 4925.58 1169.64 4925.17 1169.34 4924.76L1057.74 5036.36L1057.76 5036.34Z" fill="#FF9149"/>
<path d="M1079.14 5046.87C1079.67 5047.04 1080.22 5047.22 1080.75 5047.38L1180.38 4947.75C1180.22 4947.2 1180.04 4946.67 1179.87 4946.14L1079.14 5046.87Z" fill="#FF9149"/>
<path d="M1064.3 5040.44C1064.76 5040.69 1065.21 5040.95 1065.68 5041.2L1174.22 4932.66C1173.97 4932.21 1173.71 4931.76 1173.46 4931.29L1064.3 5040.44Z" fill="#FF9149"/>
<path d="M1099.53 4890.32C1098.76 4890.36 1098 4890.42 1097.23 4890.48L1023.52 4964.19C1023.46 4964.96 1023.4 4965.72 1023.36 4966.49L1099.55 4890.3L1099.53 4890.32Z" fill="#FF9149"/>
<path d="M1183.51 4965.9C1183.47 4965.23 1183.41 4964.57 1183.37 4963.92L1096.94 5050.36C1097.61 5050.41 1098.25 5050.45 1098.92 5050.49L1183.51 4965.9Z" fill="#FF9149"/>
<path d="M1025.48 4951.59C1025.26 4952.49 1025.07 4953.41 1024.89 4954.32L1087.33 4891.87C1086.43 4892.05 1085.51 4892.24 1084.61 4892.46L1025.48 4951.59Z" fill="#FF9149"/>
<path d="M1087.59 5049.06C1088.18 5049.18 1088.79 5049.28 1089.39 5049.4L1182.39 4956.39C1182.3 4955.79 1182.18 4955.2 1182.06 4954.59L1087.59 5049.06Z" fill="#FF9149"/>
<path d="M1031.55 4934.89C1030.91 4936.19 1030.3 4937.52 1029.73 4938.83L1071.85 4896.71C1070.52 4897.28 1069.2 4897.89 1067.91 4898.53L1031.55 4934.89Z" fill="#FF9149"/>
<path d="M1023.38 4974.97C1023.42 4975.64 1023.48 4976.31 1023.52 4976.95L1109.95 4890.52C1109.29 4890.46 1108.62 4890.42 1107.97 4890.38L1023.38 4974.97Z" fill="#FF9149"/>
<path d="M1024.5 4984.5C1024.6 4985.11 1024.71 4985.7 1024.83 4986.3L1119.3 4891.83C1118.71 4891.71 1118.11 4891.62 1117.5 4891.5L1024.5 4984.5Z" fill="#FF9149"/>
<path d="M1119.56 5049C1120.46 5048.83 1121.38 5048.63 1122.28 5048.42L1181.41 4989.28C1181.63 4988.38 1181.83 4987.48 1182 4986.56L1119.56 5049Z" fill="#FF9149"/>
<path d="M1041.18 5020.99C1041.49 5021.39 1041.82 5021.76 1042.16 5022.15L1155.15 4909.16C1154.76 4908.82 1154.39 4908.49 1153.99 4908.18L1041.18 5020.99Z" fill="#FF9149"/>
<path d="M1107.39 5050.53C1108.15 5050.49 1108.91 5050.43 1109.68 5050.38L1183.39 4976.66C1183.45 4975.9 1183.51 4975.13 1183.55 4974.37L1107.37 5050.55L1107.39 5050.53Z" fill="#FF9149"/>
<path d="M1175.34 5005.98C1175.99 5004.69 1176.59 5003.35 1177.16 5002.04L1135.04 5044.16C1136.37 5043.59 1137.69 5042.99 1138.98 5042.34L1175.34 5005.98Z" fill="#FF9149"/>
<path d="M1036.67 5014.88C1036.94 5015.31 1037.26 5015.72 1037.55 5016.13L1149.15 4904.53C1148.74 4904.24 1148.33 4903.94 1147.9 4903.65L1036.69 5014.86L1036.67 5014.88Z" fill="#FF9149"/>
<path d="M1032.69 5008.22C1032.93 5008.67 1033.2 5009.12 1033.45 5009.59L1142.61 4900.44C1142.16 4900.18 1141.71 4899.93 1141.23 4899.67L1032.69 5008.22Z" fill="#FF9149"/>
<path d="M1026.52 4993.12C1026.67 4993.67 1026.85 4994.2 1027.03 4994.73L1127.75 4894.01C1127.22 4893.83 1126.67 4893.65 1126.14 4893.5L1026.52 4993.12Z" fill="#FF9149"/>
<path d="M1029.28 5000.98C1029.48 5001.47 1029.71 5001.96 1029.93 5002.47L1135.49 4896.91C1135 4896.69 1134.51 4896.48 1134 4896.26L1029.28 5000.98Z" fill="#FF9149"/>
<path d="M1371.02 4621.02C1416.49 4575.54 1416.49 4501.81 1371.02 4456.34C1325.54 4410.86 1251.82 4410.86 1206.34 4456.34C1160.86 4501.81 1160.86 4575.54 1206.34 4621.02C1251.82 4666.49 1325.54 4666.49 1371.02 4621.02Z" fill="url(#paint2_radial_100_197)" fill-opacity="0.3"/>
<path opacity="0.94" d="M301.567 4172.49C153.78 4087.17 -35.184 4137.8 -120.509 4285.59C-205.835 4433.37 -155.202 4622.34 -7.41427 4707.66C140.374 4792.99 329.337 4742.36 414.662 4594.57C499.988 4446.78 449.355 4257.82 301.567 4172.49ZM53.7862 4601.66C-35.4513 4550.14 -66.0283 4436.02 -14.507 4346.79C37.0144 4257.55 151.129 4226.97 240.367 4278.49C329.604 4330.01 360.181 4444.13 308.66 4533.37C257.139 4622.6 143.024 4653.18 53.7862 4601.66Z" fill="url(#paint3_radial_100_197)"/>
<path d="M40.1389 4747.01C38.2769 4745.15 35.2585 4745.15 33.3965 4747.01C31.5345 4748.87 31.5345 4751.89 33.3965 4753.75C35.2585 4755.62 38.2769 4755.62 40.1389 4753.75C42.0009 4751.89 42.0009 4748.87 40.1389 4747.01Z" fill="white"/>
<path d="M70.009 4717.14C68.147 4715.28 65.1286 4715.28 63.2666 4717.14C61.4046 4719 61.4046 4722.02 63.2666 4723.88C65.1286 4725.75 68.147 4725.75 70.009 4723.88C71.871 4722.02 71.871 4719 70.009 4717.14Z" fill="white"/>
<path d="M99.8596 4687.27C97.9976 4685.41 94.9792 4685.41 93.1172 4687.27C91.2552 4689.13 91.2552 4692.15 93.1172 4694.01C94.9792 4695.87 97.9976 4695.87 99.8596 4694.01C101.722 4692.15 101.722 4689.13 99.8596 4687.27Z" fill="white"/>
<path d="M129.731 4657.42C127.869 4655.56 124.85 4655.56 122.988 4657.42C121.126 4659.28 121.126 4662.3 122.988 4664.16C124.85 4666.02 127.869 4666.02 129.731 4664.16C131.593 4662.3 131.593 4659.28 129.731 4657.42Z" fill="white"/>
<path d="M152.858 4634.29C154.72 4636.15 157.739 4636.15 159.601 4634.29C161.463 4632.43 161.463 4629.41 159.601 4627.55C157.739 4625.69 154.72 4625.69 152.858 4627.55C150.996 4629.41 150.996 4632.43 152.858 4634.29Z" fill="white"/>
</g>
<path opacity="0.36" d="M-17.4359 758.434C-30.188 745.68 -30.188 725.001 -17.4359 712.261L243.256 451.566C256.009 438.811 276.684 438.811 289.436 451.566C302.188 464.32 302.188 484.999 289.436 497.739L28.7286 758.434C15.9766 771.189 -4.69883 771.189 -17.4509 758.434H-17.4359Z" fill="url(#paint4_radial_100_197)"/>
<path d="M127.139 489.858C125.277 487.996 122.258 487.996 120.396 489.858C118.534 491.72 118.534 494.739 120.396 496.601C122.258 498.463 125.277 498.463 127.139 496.601C129.001 494.739 129.001 491.72 127.139 489.858Z" fill="white" fill-opacity="0.5"/>
<path d="M157.009 459.988C155.147 458.126 152.129 458.126 150.267 459.988C148.405 461.85 148.405 464.869 150.267 466.731C152.129 468.593 155.147 468.593 157.009 466.731C158.871 464.869 158.871 461.85 157.009 459.988Z" fill="white" fill-opacity="0.5"/>
<path d="M186.86 430.117C184.998 428.255 181.979 428.255 180.117 430.117C178.255 431.979 178.255 434.998 180.117 436.86C181.979 438.722 184.998 438.722 186.86 436.86C188.722 434.998 188.722 431.979 186.86 430.117Z" fill="white" fill-opacity="0.5"/>
<path d="M216.731 400.267C214.869 398.405 211.85 398.405 209.988 400.267C208.126 402.129 208.126 405.147 209.988 407.009C211.85 408.871 214.869 408.871 216.731 407.009C218.593 405.147 218.593 402.129 216.731 400.267Z" fill="white" fill-opacity="0.5"/>
<path d="M239.858 377.139C241.72 379.001 244.739 379.001 246.601 377.139C248.463 375.277 248.463 372.258 246.601 370.396C244.739 368.534 241.72 368.534 239.858 370.396C237.996 372.258 237.996 375.277 239.858 377.139Z" fill="white" fill-opacity="0.5"/>
<path style="mix-blend-mode:overlay" d="M1061.14 -205.016C1063.96 -202.194 1063.96 -197.607 1061.14 -194.765L729.17 137.2C726.348 140.022 721.762 140.022 718.92 137.2C716.097 134.378 716.097 129.791 718.92 126.949L1050.88 -205.016C1053.71 -207.838 1058.29 -207.838 1061.14 -205.016Z" fill="url(#paint5_linear_100_197)"/>
<path opacity="0.36" d="M1027.35 -95.8435C1035.62 -87.5723 1035.62 -74.1463 1027.35 -65.8751L857.982 103.391C849.711 111.662 836.285 111.662 828.014 103.391C819.743 95.1193 819.743 81.6934 828.014 73.4222L997.377 -95.8435C1005.65 -104.115 1019.07 -104.115 1027.35 -95.8435Z" fill="url(#paint6_radial_100_197)"/>
<rect y="900" width="1920" height="1614" fill="#011855"/>
<path d="M886.951 1425.5C886.951 1464.43 855.298 1496 816.253 1496C777.209 1496 745.557 1464.43 745.557 1425.5C745.557 1386.57 777.212 1355 816.253 1355C855.296 1355 886.951 1386.57 886.951 1425.5ZM1155.5 1456.31C1158.16 1452.52 1163.4 1451.59 1167.2 1454.24C1171 1456.89 1171.93 1462.11 1169.27 1465.91C1168.01 1467.72 1166.76 1469.35 1165.54 1470.8C1152.21 1486.67 1132.52 1496 1111.47 1496C1072.28 1496 1040.86 1464.27 1040.88 1425.28C1040.88 1386.55 1072.67 1355 1111.47 1355C1140.34 1355 1165.84 1372.42 1176.67 1398.55C1180.18 1407 1182.03 1416.15 1182.03 1425.5C1182.03 1430.2 1178.17 1433.91 1173.53 1433.91H1058.4C1062.49 1459.85 1084.92 1479.18 1111.47 1479.18C1127.5 1479.18 1142.51 1472.08 1152.63 1460.02C1153.74 1458.7 1154.7 1457.47 1155.5 1456.31V1456.31ZM1058.4 1417.09H1164.56C1163.9 1412.91 1162.74 1408.82 1161.12 1404.93C1152.89 1385.07 1133.36 1371.82 1111.47 1371.82C1084.92 1371.82 1062.49 1391.15 1058.4 1417.09H1058.4ZM959.109 1372.03C954.469 1372.43 950.383 1369 949.983 1364.37C949.583 1359.74 953.02 1355.67 957.66 1355.27C998.657 1351.69 1034.51 1383.93 1034.51 1425.5C1034.51 1443.54 1027.61 1461.58 1013.8 1475.35C1010.51 1478.63 1005.17 1478.63 1001.87 1475.35L920.25 1393.95C913.407 1403.33 909.984 1414.41 909.984 1425.5C909.984 1457.18 937.222 1481.7 968.513 1478.97C973.154 1478.57 977.24 1482 977.641 1486.63C978.041 1491.25 974.604 1495.33 969.963 1495.73C928.916 1499.31 893.115 1467.03 893.115 1425.5C893.115 1407.46 900.018 1389.42 913.822 1375.65C917.116 1372.37 922.456 1372.37 925.749 1375.65L1007.37 1457.04C1014.22 1447.67 1017.64 1436.58 1017.64 1425.5C1017.64 1393.8 990.363 1369.3 959.11 1372.03L959.109 1372.03ZM1203.94 1398.66C1201.61 1402.67 1196.47 1404.04 1192.44 1401.72C1188.42 1399.39 1187.05 1394.26 1189.38 1390.25C1192.48 1384.9 1196.25 1380.01 1200.63 1375.65C1214.45 1361.88 1232.54 1355 1250.62 1355C1268.71 1355 1286.8 1361.88 1300.61 1375.65C1304.99 1380.01 1308.77 1384.9 1311.86 1390.25C1314.19 1394.26 1312.82 1399.39 1308.8 1401.72C1304.78 1404.04 1299.63 1402.67 1297.3 1398.66C1294.96 1394.61 1292.07 1390.85 1288.75 1387.54C1280.38 1379.2 1269.93 1374.18 1259.06 1372.48V1487.59C1259.06 1492.23 1255.28 1496 1250.62 1496C1245.96 1496 1242.19 1492.23 1242.19 1487.59V1372.48C1231.31 1374.18 1220.86 1379.2 1212.5 1387.54C1209.18 1390.85 1206.29 1394.61 1203.94 1398.66H1203.94ZM630.635 1475.33C627.481 1478.48 621.793 1478.7 618.697 1475.29C604.9 1461.53 598.002 1443.51 598.002 1425.5C598.002 1386.59 629.683 1355.01 668.699 1355.01C707.716 1355.01 739.395 1386.59 739.395 1425.5C739.395 1445.45 732.053 1460.88 718.673 1475.32C715.38 1478.6 710.055 1478.62 706.762 1475.33C703.457 1472.04 703.492 1466.73 706.79 1463.45C717.282 1452.97 722.527 1439.24 722.527 1425.5C722.527 1399 703.178 1376.58 677.134 1372.49V1425.5C677.134 1430.14 673.358 1433.91 668.7 1433.91C664.042 1433.91 660.266 1430.14 660.266 1425.5V1372.49C634.221 1376.58 614.873 1399 614.873 1425.5C614.873 1439.24 620.118 1452.97 630.609 1463.45C633.831 1466.9 634.053 1471.93 630.637 1475.33H630.635ZM816.254 1371.82C786.524 1371.82 762.427 1395.85 762.427 1425.5C762.427 1455.15 786.523 1479.18 816.254 1479.18C845.985 1479.18 870.082 1455.15 870.082 1425.5C870.082 1395.85 845.983 1371.82 816.254 1371.82Z" fill="#C2D3FF"/>
<circle cx="669" cy="1425.5" r="70.75" stroke="#E0E0E0" stroke-opacity="0.6" stroke-width="0.5"/>
<circle cx="816" cy="1425.5" r="70.75" stroke="#E0E0E0" stroke-opacity="0.6" stroke-width="0.5"/>
<circle cx="964" cy="1425.5" r="70.75" stroke="#E0E0E0" stroke-opacity="0.6" stroke-width="0.5"/>
<circle cx="1112" cy="1425.5" r="70.75" stroke="#E0E0E0" stroke-opacity="0.6" stroke-width="0.5"/>
<path d="M1182.75 1406.84C1185.93 1395.23 1192.01 1384.62 1200.43 1376.02C1208.85 1367.41 1219.33 1361.1 1230.87 1357.67C1242.41 1354.25 1254.63 1353.83 1266.38 1356.44C1278.13 1359.06 1289.02 1364.63 1298.01 1372.63C1307.01 1380.63 1313.82 1390.79 1317.79 1402.15C1321.76 1413.52 1322.77 1425.71 1320.71 1437.57C1318.66 1449.43 1313.61 1460.57 1306.05 1469.94C1298.49 1479.3 1288.67 1486.59 1277.51 1491.1" stroke="#E0E0E0" stroke-opacity="0.6" stroke-width="0.5"/>
<circle cx="668.5" cy="1425.5" r="54.25" stroke="#E0E0E0" stroke-opacity="0.6" stroke-width="0.5"/>
<circle cx="815.5" cy="1425.5" r="54.25" stroke="#E0E0E0" stroke-opacity="0.6" stroke-width="0.5"/>
<circle cx="963.5" cy="1425.5" r="54.25" stroke="#E0E0E0" stroke-opacity="0.6" stroke-width="0.5"/>
<circle cx="1111.5" cy="1425.5" r="54.25" stroke="#E0E0E0" stroke-opacity="0.6" stroke-width="0.5"/>
<circle cx="1250.5" cy="1425.5" r="54.25" stroke="#E0E0E0" stroke-opacity="0.6" stroke-width="0.5"/>
<line x1="871.177" y1="1321.82" x2="1053.18" y2="1503.82" stroke="#E0E0E0" stroke-opacity="0.6" stroke-width="0.5"/>
<line x1="1039" y1="1416.75" x2="1186" y2="1416.75" stroke="#E0E0E0" stroke-opacity="0.6" stroke-width="0.5"/>
<line x1="677.25" y1="1322" x2="677.25" y2="1469" stroke="#E0E0E0" stroke-opacity="0.6" stroke-width="0.5"/>
<line x1="1259.25" y1="1369" x2="1259.25" y2="1516" stroke="#E0E0E0" stroke-opacity="0.6" stroke-width="0.5"/>
<line x1="858.177" y1="1332.82" x2="1040.18" y2="1514.82" stroke="#E0E0E0" stroke-opacity="0.6" stroke-width="0.5"/>
<line x1="1038" y1="1433.75" x2="1185" y2="1433.75" stroke="#E0E0E0" stroke-opacity="0.6" stroke-width="0.5"/>
<line x1="660.25" y1="1322" x2="660.25" y2="1469" stroke="#E0E0E0" stroke-opacity="0.6" stroke-width="0.5"/>
<line x1="1242.25" y1="1368" x2="1242.25" y2="1515" stroke="#E0E0E0" stroke-opacity="0.6" stroke-width="0.5"/>
<line x1="506" y1="1353.5" x2="1414" y2="1353.5" stroke="#E0E0E0" stroke-opacity="0.6"/>
<line x1="506" y1="1495.5" x2="1414" y2="1495.5" stroke="#E0E0E0" stroke-opacity="0.6"/>
<line x1="506" y1="1478.5" x2="1414" y2="1478.5" stroke="#E0E0E0" stroke-opacity="0.6"/>
<line x1="506" y1="1432.5" x2="1414" y2="1432.5" stroke="#E0E0E0" stroke-opacity="0.6"/>
<line x1="506" y1="1402.5" x2="1414" y2="1402.5" stroke="#E0E0E0" stroke-opacity="0.6"/>
<path d="M652.7 1529.5H660.638L672.325 1562.91L684.013 1529.5H691.95L675.513 1575H669.138L652.7 1529.5ZM648.419 1529.5H656.325L657.763 1562.06V1575H648.419V1529.5ZM688.325 1529.5H696.263V1575H686.888V1562.06L688.325 1529.5ZM844.256 1551.19V1553.34C844.256 1556.8 843.788 1559.91 842.85 1562.66C841.913 1565.41 840.59 1567.75 838.881 1569.69C837.173 1571.6 835.131 1573.07 832.756 1574.09C830.402 1575.11 827.788 1575.62 824.913 1575.62C822.058 1575.62 819.444 1575.11 817.069 1574.09C814.715 1573.07 812.673 1571.6 810.944 1569.69C809.215 1567.75 807.871 1565.41 806.913 1562.66C805.975 1559.91 805.506 1556.8 805.506 1553.34V1551.19C805.506 1547.71 805.975 1544.6 806.913 1541.88C807.85 1539.12 809.173 1536.78 810.881 1534.84C812.61 1532.91 814.652 1531.43 817.006 1530.41C819.381 1529.39 821.996 1528.88 824.85 1528.88C827.725 1528.88 830.34 1529.39 832.694 1530.41C835.069 1531.43 837.11 1532.91 838.819 1534.84C840.548 1536.78 841.881 1539.12 842.819 1541.88C843.777 1544.6 844.256 1547.71 844.256 1551.19ZM834.788 1553.34V1551.12C834.788 1548.71 834.569 1546.58 834.131 1544.75C833.694 1542.92 833.048 1541.38 832.194 1540.12C831.34 1538.88 830.298 1537.94 829.069 1537.31C827.84 1536.67 826.433 1536.34 824.85 1536.34C823.267 1536.34 821.86 1536.67 820.631 1537.31C819.423 1537.94 818.392 1538.88 817.538 1540.12C816.704 1541.38 816.069 1542.92 815.631 1544.75C815.194 1546.58 814.975 1548.71 814.975 1551.12V1553.34C814.975 1555.74 815.194 1557.86 815.631 1559.72C816.069 1561.55 816.715 1563.1 817.569 1564.38C818.423 1565.62 819.465 1566.57 820.694 1567.22C821.923 1567.86 823.329 1568.19 824.913 1568.19C826.496 1568.19 827.902 1567.86 829.131 1567.22C830.36 1566.57 831.392 1565.62 832.225 1564.38C833.058 1563.1 833.694 1561.55 834.131 1559.72C834.569 1557.86 834.788 1555.74 834.788 1553.34ZM990.438 1529.5V1575H981.062L962.781 1544.5V1575H953.406V1529.5H962.781L981.094 1560.03V1529.5H990.438ZM1131.53 1567.69V1575H1107.31V1567.69H1131.53ZM1110.37 1529.5V1575H1100.99V1529.5H1110.37ZM1128.37 1548.03V1555.16H1107.31V1548.03H1128.37ZM1131.49 1529.5V1536.84H1107.31V1529.5H1131.49ZM1260.36 1529.5V1575H1251.02V1529.5H1260.36ZM1274.36 1529.5V1536.84H1237.24V1529.5H1274.36Z" fill="#F2F2F2"/>
<path opacity="0.94" d="M187.187 1346.46C350.323 1173.13 348.983 906.905 184.194 751.807C19.4042 596.708 -246.415 611.486 -409.551 784.815C-572.686 958.144 -571.346 1224.37 -406.557 1379.47C-241.767 1534.57 24.0516 1519.79 187.187 1346.46ZM-291.354 896.061C-192.849 791.401 -32.3208 782.477 67.1826 876.129C166.686 969.781 167.496 1130.55 68.9905 1235.21C-29.5145 1339.87 -190.042 1348.8 -289.546 1255.15C-389.049 1161.49 -389.859 1000.72 -291.354 896.061Z" fill="url(#paint7_radial_100_197)"/>
<path style="mix-blend-mode:overlay" d="M1812.72 1206.17C1816.34 1209.8 1816.34 1215.68 1812.72 1219.3L1387.3 1644.72C1383.67 1648.35 1377.79 1648.35 1374.17 1644.72C1370.54 1641.09 1370.54 1635.21 1374.17 1631.59L1799.59 1206.17C1803.21 1202.54 1809.09 1202.54 1812.72 1206.17Z" fill="url(#paint8_linear_100_197)"/>
<path d="M1917.78 1231.57C1920.6 1234.39 1920.6 1238.98 1917.78 1241.82L1585.82 1573.78C1582.99 1576.61 1578.41 1576.61 1575.57 1573.78C1572.74 1570.96 1572.74 1566.37 1575.57 1563.53L1907.53 1231.57C1910.35 1228.74 1914.94 1228.74 1917.78 1231.57Z" fill="url(#paint9_linear_100_197)" style="mix-blend-mode:overlay"/>
<path d="M1920 96H0V900H1920V96Z" fill="url(#paint10_linear_100_197)"/>
<path opacity="0.94" d="M1880.69 285.376C2040.68 285.376 2170.38 155.683 2170.38 -4.31199C2170.38 -164.307 2040.68 -294 1880.69 -294C1720.69 -294 1591 -164.307 1591 -4.31199C1591 155.683 1720.69 285.376 1880.69 285.376ZM1880.69 -179.242C1977.3 -179.242 2055.62 -100.92 2055.62 -4.31199C2055.62 92.2964 1977.3 170.618 1880.69 170.618C1784.08 170.618 1705.76 92.2964 1705.76 -4.31199C1705.76 -100.92 1784.08 -179.242 1880.69 -179.242Z" fill="url(#paint11_radial_100_197)"/>
<path opacity="0.94" d="M45.9999 -363C-239.539 -363 -471 -131.539 -471 154C-471 439.539 -239.539 671 45.9999 671C331.539 671 563 439.539 563 154C563 -131.539 331.539 -363 45.9999 -363ZM45.9999 466.194C-126.415 466.194 -266.194 326.415 -266.194 154C-266.194 -18.415 -126.415 -158.194 45.9999 -158.194C218.415 -158.194 358.194 -18.415 358.194 154C358.194 326.415 218.415 466.194 45.9999 466.194Z" fill="url(#paint12_radial_100_197)"/>
<path d="M320.569 207.546L261.691 148.668C210.731 197.001 130.273 196.217 80.3125 146.257C30.3521 96.2964 29.5877 15.8383 77.9017 -35.1217L19.0233 -94C-61.8071 -10.5432 -61.0035 122.639 21.4537 205.116C103.911 287.573 237.093 288.376 320.569 207.546Z" fill="url(#paint13_radial_100_197)" fill-opacity="0.2"/>
<path d="M342.73 144.423L338.23 140.673C338.077 140.547 337.88 140.486 337.683 140.504C337.485 140.523 337.303 140.618 337.175 140.771C337.048 140.923 336.987 141.12 337.004 141.318C337.022 141.516 337.117 141.698 337.269 141.826L341.078 145L337.269 148.174C337.117 148.301 337.021 148.484 337.003 148.682C336.985 148.88 337.047 149.077 337.174 149.23C337.301 149.383 337.484 149.479 337.682 149.497C337.88 149.515 338.077 149.454 338.23 149.326L342.73 145.576C342.815 145.506 342.883 145.418 342.929 145.318C342.976 145.218 343 145.11 343 145C343 144.89 342.976 144.781 342.929 144.682C342.883 144.582 342.815 144.494 342.73 144.423Z" fill="white" fill-opacity="0.5"/>
<g opacity="0.6">
<path d="M1457.69 520.814L1212.23 503.961" stroke="#1E6AC6" stroke-opacity="0.6" stroke-width="8.4" stroke-linecap="round"/>
<path d="M1146.78 499.466L1138.6 498.904" stroke="#179F0C" stroke-opacity="0.6" stroke-width="8.4" stroke-linecap="round"/>
<path d="M1108.5 817.438L1067.59 814.63" stroke="#179F0C" stroke-opacity="0.6" stroke-width="8.4" stroke-linecap="round"/>
<path d="M976.399 586.414L951.854 584.729" stroke="#179F0C" stroke-opacity="0.6" stroke-width="8.4" stroke-linecap="round"/>
<path d="M1066.15 715.885L1054.46 715.082" stroke="#179F0C" stroke-opacity="0.6" stroke-width="8.4" stroke-linecap="round"/>
<path d="M1295.49 608.322L1066.4 592.593" stroke="#1E6AC6" stroke-opacity="0.6" stroke-width="8.4" stroke-linecap="round"/>
<path d="M1270.7 729.93L1131.61 720.38" stroke="#1E6AC6" stroke-opacity="0.6" stroke-width="8.4" stroke-linecap="round"/>
<path d="M1321.23 832.044L1182.14 822.494" stroke="#1E6AC6" stroke-opacity="0.6" stroke-width="8.4" stroke-linecap="round"/>
<path d="M1339.82 802.895C1351.42 816.048 1350.31 836.285 1337.34 848.097C1324.37 859.908 1304.45 858.823 1292.85 845.67C1291.33 843.956 1289.83 842.208 1288.38 840.456C1252.58 797.3 1236.84 744.204 1240.39 692.46C1243.95 640.716 1266.79 590.269 1308.15 552.411C1309.84 550.874 1311.55 549.347 1313.3 547.857C1357.68 509.825 1413.39 493.11 1467.56 496.83C1521.74 500.55 1574.63 524.721 1613.4 568.462C1614.92 570.176 1616.41 571.924 1617.87 573.676C1653.67 616.832 1669.41 669.928 1665.85 721.672C1662.3 773.416 1639.45 823.863 1598.09 861.721C1596.41 863.265 1594.69 864.785 1592.95 866.275C1579.66 877.719 1559.78 876.072 1548.55 862.598C1537.32 849.125 1538.97 828.925 1552.26 817.481C1553.56 816.363 1554.84 815.23 1556.09 814.094C1584.6 787.993 1600.36 753.135 1602.81 717.344C1605.27 681.546 1594.42 644.862 1569.75 615.116C1568.67 613.813 1567.56 612.515 1566.42 611.237C1546.67 588.945 1521.5 573.88 1494.45 566.282L1484.63 709.23C1483.42 726.918 1468.32 740.285 1450.92 739.09C1433.51 737.895 1420.39 722.59 1421.6 704.902L1431.41 561.954C1403.57 565.783 1376.59 577.268 1353.97 596.65C1352.67 597.768 1351.39 598.901 1350.14 600.037C1321.63 626.139 1305.88 660.996 1303.42 696.787C1300.96 732.586 1311.8 769.269 1336.48 799.016C1337.56 800.318 1338.67 801.609 1339.81 802.894L1339.82 802.895Z" fill="#1E6AC6" fill-opacity="0.9"/>
</g>
<path d="M93.1389 1663.86C91.2769 1662 88.2585 1662 86.3965 1663.86C84.5345 1665.72 84.5345 1668.74 86.3965 1670.6C88.2585 1672.46 91.2769 1672.46 93.1389 1670.6C95.0009 1668.74 95.0009 1665.72 93.1389 1663.86Z" fill="white" fill-opacity="0.5"/>
<path d="M123.009 1633.99C121.147 1632.13 118.129 1632.13 116.267 1633.99C114.405 1635.85 114.405 1638.87 116.267 1640.73C118.129 1642.59 121.147 1642.59 123.009 1640.73C124.871 1638.87 124.871 1635.85 123.009 1633.99Z" fill="white" fill-opacity="0.5"/>
<path d="M152.86 1604.12C150.998 1602.26 147.979 1602.26 146.117 1604.12C144.255 1605.98 144.255 1609 146.117 1610.86C147.979 1612.72 150.998 1612.72 152.86 1610.86C154.722 1609 154.722 1605.98 152.86 1604.12Z" fill="white" fill-opacity="0.5"/>
<path d="M182.731 1574.27C180.869 1572.4 177.85 1572.4 175.988 1574.27C174.126 1576.13 174.126 1579.15 175.988 1581.01C177.85 1582.87 180.869 1582.87 182.731 1581.01C184.593 1579.15 184.593 1576.13 182.731 1574.27Z" fill="white" fill-opacity="0.5"/>
<path d="M205.858 1551.14C207.72 1553 210.739 1553 212.601 1551.14C214.463 1549.28 214.463 1546.26 212.601 1544.4C210.739 1542.53 207.72 1542.53 205.858 1544.4C203.996 1546.26 203.996 1549.28 205.858 1551.14Z" fill="white" fill-opacity="0.5"/>
<line x1="710" y1="1845.5" x2="1194.42" y2="1845.5" stroke="#91C3FF"/>
<line x1="710" y1="1984.5" x2="1194.42" y2="1984.5" stroke="#91C3FF"/>
<line x1="710" y1="1975.5" x2="1194.42" y2="1975.5" stroke="#91C3FF"/>
<line x1="712.337" y1="1835.5" x2="1196.76" y2="1835.5" stroke="#91C3FF"/>
<line x1="725.576" y1="1941.5" x2="1210" y2="1941.5" stroke="#91C3FF"/>
<line x1="710" y1="1859.5" x2="1194.42" y2="1859.5" stroke="#91C3FF"/>
<line x1="710" y1="1950.5" x2="1194.42" y2="1950.5" stroke="#91C3FF"/>
<line x1="710" y1="1856.5" x2="1194.42" y2="1856.5" stroke="#91C3FF"/>
<path d="M1004.06 1869.3H1034.88C1037.49 1869.3 1039.61 1871.42 1039.61 1874.03V1890.98L1073.58 1857.05L1039.61 1823.13V1840.08C1039.61 1842.69 1037.49 1844.81 1034.88 1844.81C1034.74 1844.81 1034.6 1844.8 1034.46 1844.79L942.823 1844.79C925.053 1845.1 909.006 1852.51 897.405 1864.31C885.84 1876.06 878.706 1892.19 878.706 1910C878.706 1916.07 879.522 1921.92 881.049 1927.43C882.636 1933.16 884.988 1938.57 887.987 1943.56C889.325 1945.79 888.595 1948.68 886.36 1950.02C885.601 1950.47 884.765 1950.69 883.939 1950.69V1950.7H853.126C850.514 1950.7 848.396 1948.58 848.396 1945.98V1929.03L814.424 1962.95L848.396 1996.87V1979.92C848.396 1977.31 850.514 1975.2 853.126 1975.2C853.268 1975.2 853.406 1975.2 853.544 1975.22L945.257 1975.21C963.009 1974.88 979.038 1967.46 990.624 1955.67C1002.17 1943.92 1009.3 1927.8 1009.3 1910C1009.3 1903.93 1008.48 1898.09 1006.95 1892.57C1005.37 1886.85 1003.02 1881.43 1000.02 1876.45C998.679 1874.22 999.408 1871.33 1001.64 1869.99C1002.4 1869.54 1003.24 1869.32 1004.06 1869.32V1869.31V1869.3ZM1030.14 1878.75H1011.9C1013.57 1882.38 1014.96 1886.15 1016.05 1890.06C1017.81 1896.44 1018.76 1903.13 1018.76 1910C1018.76 1930.35 1010.59 1948.8 997.351 1962.28C984.101 1975.76 965.749 1984.24 945.403 1984.62L857.857 1984.63V2008.28C857.857 2009.49 857.395 2010.69 856.471 2011.62C854.624 2013.46 851.628 2013.46 849.78 2011.62L804.386 1966.29C802.538 1964.44 802.538 1961.45 804.386 1959.61L849.76 1914.3C850.617 1913.43 851.809 1912.89 853.125 1912.89C855.737 1912.89 857.856 1915.01 857.856 1917.62V1941.25H876.103C874.428 1937.62 873.035 1933.85 871.953 1929.94C870.185 1923.56 869.242 1916.87 869.242 1910C869.242 1889.64 877.419 1871.17 890.676 1857.7C903.943 1844.21 922.312 1835.73 942.673 1835.38L1030.14 1835.37V1811.72C1030.14 1810.51 1030.6 1809.31 1031.53 1808.38C1033.38 1806.54 1036.37 1806.54 1038.22 1808.38L1083.61 1853.71C1085.46 1855.56 1085.46 1858.55 1083.61 1860.39L1038.24 1905.7C1037.38 1906.57 1036.19 1907.11 1034.88 1907.11C1032.26 1907.11 1030.14 1904.99 1030.14 1902.38V1878.75V1878.75Z" fill="#C2D3FF"/>
<path d="M918.535 1933.04C921.518 1935.95 921.585 1940.73 918.682 1943.72C915.782 1946.7 911.011 1946.77 908.027 1943.86C907.636 1943.48 907.251 1943.1 906.874 1942.71C897.625 1933.14 893 1920.9 893 1908.68C893 1896.45 897.625 1884.22 906.874 1874.65C907.251 1874.26 907.636 1873.87 908.027 1873.49C917.994 1863.83 931.013 1859 944 1859C956.989 1859 970.006 1863.83 979.973 1873.49C980.364 1873.87 980.749 1874.26 981.126 1874.65C990.375 1884.22 995 1896.45 995 1908.68C995 1920.9 990.375 1933.14 981.126 1942.71C980.749 1943.1 980.364 1943.48 979.973 1943.86C976.989 1946.77 972.22 1946.7 969.318 1943.72C966.417 1940.73 966.482 1935.95 969.465 1933.04C969.757 1932.76 970.044 1932.47 970.323 1932.19C976.699 1925.59 979.887 1917.13 979.887 1908.68C979.887 1900.22 976.698 1891.77 970.323 1885.17C970.044 1884.88 969.757 1884.59 969.465 1884.31C964.385 1879.39 958.135 1876.25 951.554 1874.9V1908.68C951.554 1912.86 948.171 1916.24 943.998 1916.24C939.826 1916.24 936.443 1912.86 936.443 1908.68V1874.9C929.862 1876.25 923.611 1879.39 918.532 1884.31C918.24 1884.59 917.953 1884.88 917.674 1885.17C911.297 1891.77 908.11 1900.22 908.11 1908.68C908.11 1917.14 911.297 1925.59 917.674 1932.19C917.953 1932.48 918.24 1932.76 918.532 1933.04H918.535Z" fill="#C2D3FF"/>
<line x1="1001.25" y1="1770.75" x2="1109.25" y2="1878.75" stroke="#F6F6F6" stroke-width="0.7"/>
<line x1="993.247" y1="1777.75" x2="1105.25" y2="1889.75" stroke="#F6F6F6" stroke-width="0.7"/>
<line x1="1103.25" y1="1831.81" x2="1024.25" y2="1910.81" stroke="#F6F6F6" stroke-width="0.7"/>
<line x1="1111.25" y1="1837.25" x2="1031.25" y2="1917.25" stroke="#F6F6F6" stroke-width="0.7"/>
<path d="M916.128 1951.41C907.491 1945.47 900.945 1937.09 897.376 1927.41C893.806 1917.74 893.384 1907.23 896.167 1897.31C898.95 1887.4 904.804 1878.55 912.938 1871.97C921.073 1865.39 931.094 1861.4 941.645 1860.53C952.197 1859.66 962.767 1861.96 971.925 1867.13C981.083 1872.29 988.385 1880.05 992.844 1889.37C997.303 1898.7 998.704 1909.12 996.859 1919.24C995.014 1929.36 990.011 1938.69 982.526 1945.96" stroke="#F6F6F6" stroke-width="0.7"/>
<circle cx="885.5" cy="1947.5" r="5.15" stroke="#F6F6F6" stroke-width="0.7" stroke-linecap="round" stroke-dasharray="10 10"/>
<path d="M981.65 1910.5C981.65 1929.35 965.703 1944.65 946 1944.65C926.297 1944.65 910.35 1929.35 910.35 1910.5C910.35 1891.65 926.297 1876.35 946 1876.35C965.703 1876.35 981.65 1891.65 981.65 1910.5Z" stroke="#F6F6F6" stroke-width="0.7"/>
<path d="M1021.65 1911.5C1021.65 1952.45 987.787 1985.65 946 1985.65C904.213 1985.65 870.35 1952.45 870.35 1911.5C870.35 1870.55 904.213 1837.35 946 1837.35C987.787 1837.35 1021.65 1870.55 1021.65 1911.5Z" stroke="#F6F6F6" stroke-width="0.7"/>
<line x1="850.35" y1="1888" x2="850.35" y2="2029" stroke="#F6F6F6" stroke-width="0.7"/>
<line x1="1031.35" y1="1789" x2="1031.35" y2="1930" stroke="#F6F6F6" stroke-width="0.7"/>
<line x1="953.35" y1="1784" x2="953.35" y2="1972" stroke="#F6F6F6" stroke-width="0.7"/>
<line x1="860.35" y1="1888" x2="860.35" y2="2029" stroke="#F6F6F6" stroke-width="0.7"/>
<line x1="1041.35" y1="1789" x2="1041.35" y2="1930" stroke="#F6F6F6" stroke-width="0.7"/>
<line x1="938.35" y1="1784" x2="938.35" y2="1972" stroke="#F6F6F6" stroke-width="0.7"/>
<circle cx="633" cy="2168" r="69" stroke="white" stroke-width="10"/>
<path d="M1025.4 2152.35C1027.8 2149.95 1027.8 2146.05 1025.4 2143.65L986.289 2104.54C983.889 2102.14 979.998 2102.14 977.598 2104.54C975.198 2106.94 975.198 2110.83 977.598 2113.23L1012.36 2148L977.598 2182.77C975.198 2185.17 975.198 2189.06 977.598 2191.46C979.998 2193.86 983.889 2193.86 986.289 2191.46L1025.4 2152.35ZM926 2154.15L1021.06 2154.15L1021.06 2141.85L926 2141.85L926 2154.15Z" fill="white"/>
<path d="M921.599 2211.35C919.199 2208.95 919.199 2205.05 921.599 2202.65L960.711 2163.54C963.111 2161.14 967.002 2161.14 969.402 2163.54C971.802 2165.94 971.802 2169.83 969.402 2172.23L934.636 2207L969.402 2241.77C971.802 2244.17 971.802 2248.06 969.402 2250.46C967.002 2252.86 963.111 2252.86 960.711 2250.46L921.599 2211.35ZM1021 2213.15L925.944 2213.15L925.944 2200.85L1021 2200.85L1021 2213.15Z" fill="white"/>
<path d="M1254.56 2129.36H1273.16L1300.55 2207.66L1327.94 2129.36H1346.55L1308.02 2236H1293.08L1254.56 2129.36ZM1244.52 2129.36H1263.05L1266.42 2205.68V2236H1244.52V2129.36ZM1338.05 2129.36H1356.66V2236H1334.68V2205.68L1338.05 2129.36Z" fill="white"/>
<rect y="3703" width="1920" height="790" fill="#011855"/>
<path opacity="0.36" d="M1994.25 3963.85C2015.25 3984.97 2015.25 4019.23 1994.25 4040.33L1564.82 4472.15C1543.82 4493.28 1509.76 4493.28 1488.75 4472.15C1467.75 4451.03 1467.75 4416.77 1488.75 4395.67L1918.18 3963.85C1939.18 3942.72 1973.24 3942.72 1994.22 3963.85H1994.25Z" fill="url(#paint14_radial_100_197)"/>
<path opacity="0.94" d="M1734.41 4099.34C1946.73 4206.94 2201.76 4130.54 2304.06 3928.68C2406.36 3726.83 2317.18 3475.98 2104.86 3368.38C1892.54 3260.78 1637.51 3337.18 1535.22 3539.04C1432.92 3740.89 1522.1 3991.74 1734.41 4099.34ZM2031.49 3513.16C2159.69 3578.13 2213.54 3729.62 2151.77 3851.5C2090 3973.39 1935.99 4019.53 1807.79 3954.56C1679.59 3889.59 1625.73 3738.1 1687.5 3616.21C1749.27 3494.33 1903.28 3448.19 2031.49 3513.16Z" fill="url(#paint15_radial_100_197)"/>
<path d="M1920 2514H0V3703H1920V2514Z" fill="url(#paint16_linear_100_197)"/>
<g opacity="0.6">
<path d="M1466.69 3145.81L1221.23 3128.96" stroke="#1E6AC6" stroke-opacity="0.6" stroke-width="8.4" stroke-linecap="round"/>
<path d="M1155.78 3124.47L1147.6 3123.9" stroke="#179F0C" stroke-opacity="0.6" stroke-width="8.4" stroke-linecap="round"/>
<path d="M1117.5 3442.44L1076.59 3439.63" stroke="#179F0C" stroke-opacity="0.6" stroke-width="8.4" stroke-linecap="round"/>
<path d="M985.399 3211.41L960.854 3209.73" stroke="#179F0C" stroke-opacity="0.6" stroke-width="8.4" stroke-linecap="round"/>
<path d="M1075.15 3340.88L1063.46 3340.08" stroke="#179F0C" stroke-opacity="0.6" stroke-width="8.4" stroke-linecap="round"/>
<path d="M1304.49 3233.32L1075.4 3217.59" stroke="#1E6AC6" stroke-opacity="0.6" stroke-width="8.4" stroke-linecap="round"/>
<path d="M1279.7 3354.93L1140.61 3345.38" stroke="#1E6AC6" stroke-opacity="0.6" stroke-width="8.4" stroke-linecap="round"/>
<path d="M1330.23 3457.04L1191.14 3447.49" stroke="#1E6AC6" stroke-opacity="0.6" stroke-width="8.4" stroke-linecap="round"/>
<path d="M1348.82 3427.9C1360.42 3441.05 1359.31 3461.29 1346.34 3473.1C1333.37 3484.91 1313.45 3483.82 1301.85 3470.67C1300.33 3468.96 1298.83 3467.21 1297.38 3465.46C1261.58 3422.3 1245.84 3369.2 1249.39 3317.46C1252.95 3265.72 1275.79 3215.27 1317.15 3177.41C1318.84 3175.87 1320.55 3174.35 1322.3 3172.86C1366.68 3134.82 1422.39 3118.11 1476.56 3121.83C1530.74 3125.55 1583.63 3149.72 1622.4 3193.46C1623.92 3195.18 1625.41 3196.92 1626.87 3198.68C1662.67 3241.83 1678.41 3294.93 1674.85 3346.67C1671.3 3398.42 1648.45 3448.86 1607.09 3486.72C1605.41 3488.27 1603.69 3489.79 1601.95 3491.28C1588.66 3502.72 1568.78 3501.07 1557.55 3487.6C1546.32 3474.13 1547.97 3453.93 1561.26 3442.48C1562.56 3441.36 1563.84 3440.23 1565.09 3439.09C1593.6 3412.99 1609.36 3378.14 1611.81 3342.34C1614.27 3306.55 1603.42 3269.86 1578.75 3240.12C1577.67 3238.81 1576.56 3237.52 1575.42 3236.24C1555.67 3213.95 1530.5 3198.88 1503.45 3191.28L1493.63 3334.23C1492.42 3351.92 1477.32 3365.29 1459.92 3364.09C1442.51 3362.9 1429.39 3347.59 1430.6 3329.9L1440.41 3186.95C1412.57 3190.78 1385.59 3202.27 1362.97 3221.65C1361.67 3222.77 1360.39 3223.9 1359.14 3225.04C1330.63 3251.14 1314.88 3286 1312.42 3321.79C1309.96 3357.59 1320.8 3394.27 1345.48 3424.02C1346.56 3425.32 1347.67 3426.61 1348.81 3427.89L1348.82 3427.9Z" fill="#1E6AC6" fill-opacity="0.9"/>
</g>
<path style="mix-blend-mode:overlay" d="M1458.29 2697.7C1456.57 2695.99 1456.57 2693.21 1458.29 2691.49L1659.49 2490.29C1661.21 2488.57 1663.99 2488.57 1665.7 2490.29C1667.42 2492 1667.42 2494.78 1665.7 2496.5L1464.5 2697.7C1462.78 2699.42 1460 2699.42 1458.29 2697.7Z" fill="url(#paint17_linear_100_197)"/>
<path d="M1609.65 2640.76C1610.67 2641.78 1610.67 2643.43 1609.65 2644.44L1490.44 2763.65C1489.43 2764.67 1487.78 2764.67 1486.76 2763.65C1485.75 2762.64 1485.75 2760.99 1486.76 2759.97L1605.97 2640.76C1606.99 2639.75 1608.64 2639.75 1609.65 2640.76Z" fill="url(#paint18_linear_100_197)" style="mix-blend-mode:overlay"/>
<path d="M539.654 4310.76C540.67 4311.78 540.67 4313.43 539.654 4314.44L420.442 4433.65C419.426 4434.67 417.778 4434.67 416.762 4433.65C415.746 4432.64 415.746 4430.99 416.762 4429.97L535.974 4310.76C536.99 4309.75 538.638 4309.75 539.654 4310.76Z" fill="url(#paint19_linear_100_197)" style="mix-blend-mode:overlay"/>
<path d="M213.139 3861.86C211.277 3860 208.258 3860 206.396 3861.86C204.534 3863.72 204.534 3866.74 206.396 3868.6C208.258 3870.46 211.277 3870.46 213.139 3868.6C215.001 3866.74 215.001 3863.72 213.139 3861.86Z" fill="#05C0C7"/>
<path d="M243.009 3831.99C241.147 3830.13 238.129 3830.13 236.267 3831.99C234.405 3833.85 234.405 3836.87 236.267 3838.73C238.129 3840.59 241.147 3840.59 243.009 3838.73C244.871 3836.87 244.871 3833.85 243.009 3831.99Z" fill="#05C0C7"/>
<path d="M272.86 3802.12C270.998 3800.26 267.979 3800.26 266.117 3802.12C264.255 3803.98 264.255 3807 266.117 3808.86C267.979 3810.72 270.998 3810.72 272.86 3808.86C274.722 3807 274.722 3803.98 272.86 3802.12Z" fill="#05C0C7"/>
<path d="M302.731 3772.27C300.869 3770.41 297.85 3770.41 295.988 3772.27C294.126 3774.13 294.126 3777.15 295.988 3779.01C297.85 3780.87 300.869 3780.87 302.731 3779.01C304.593 3777.15 304.593 3774.13 302.731 3772.27Z" fill="#05C0C7"/>
<path d="M325.858 3749.14C327.72 3751 330.739 3751 332.601 3749.14C334.463 3747.28 334.463 3744.26 332.601 3742.4C330.739 3740.53 327.72 3740.53 325.858 3742.4C323.996 3744.26 323.996 3747.28 325.858 3749.14Z" fill="#05C0C7"/>
<path d="M1359.21 4434.33C1364.3 4434.33 1368.42 4430.21 1368.42 4425.12C1368.42 4420.03 1364.3 4415.91 1359.21 4415.91C1354.12 4415.91 1350 4420.03 1350 4425.12C1350 4430.21 1354.12 4434.33 1359.21 4434.33Z" stroke="white" stroke-width="3.92" stroke-miterlimit="10"/>
<path d="M1729.2 4057.12C1732.02 4059.94 1732.02 4064.53 1729.2 4067.37L1397.24 4399.33C1394.41 4402.16 1389.83 4402.16 1386.99 4399.33C1384.16 4396.51 1384.16 4391.92 1386.99 4389.08L1718.95 4057.12C1721.77 4054.29 1726.36 4054.29 1729.2 4057.12Z" fill="url(#paint20_linear_100_197)" style="mix-blend-mode:overlay"/>
<path d="M1652.63 4309.35C1650.77 4307.49 1647.75 4307.49 1645.88 4309.35C1644.02 4311.21 1644.02 4314.23 1645.88 4316.09C1647.75 4317.95 1650.77 4317.95 1652.63 4316.09C1654.49 4314.23 1654.49 4311.21 1652.63 4309.35Z" fill="#3B6DE9"/>
<path d="M1682.5 4279.48C1680.64 4277.61 1677.62 4277.61 1675.75 4279.48C1673.89 4281.34 1673.89 4284.36 1675.75 4286.22C1677.62 4288.08 1680.64 4288.08 1682.5 4286.22C1684.36 4284.36 1684.36 4281.34 1682.5 4279.48Z" fill="#3B6DE9"/>
<path d="M1712.35 4249.61C1710.49 4247.74 1707.47 4247.74 1705.61 4249.61C1703.74 4251.47 1703.74 4254.49 1705.61 4256.35C1707.47 4258.21 1710.49 4258.21 1712.35 4256.35C1714.21 4254.49 1714.21 4251.47 1712.35 4249.61Z" fill="#3B6DE9"/>
<path d="M1742.22 4219.76C1740.36 4217.89 1737.34 4217.89 1735.48 4219.76C1733.61 4221.62 1733.61 4224.64 1735.48 4226.5C1737.34 4228.36 1740.36 4228.36 1742.22 4226.5C1744.08 4224.64 1744.08 4221.62 1742.22 4219.76Z" fill="#3B6DE9"/>
<path d="M1765.35 4196.63C1767.21 4198.49 1770.23 4198.49 1772.09 4196.63C1773.95 4194.77 1773.95 4191.75 1772.09 4189.88C1770.23 4188.02 1767.21 4188.02 1765.35 4189.88C1763.48 4191.75 1763.48 4194.77 1765.35 4196.63Z" fill="#3B6DE9"/>
</g>
<rect x="0.5" y="0.5" width="1919" height="4972" stroke="black"/>
<defs>
<filter id="filter0_d_100_197" x="-30" y="4467" width="1980" height="537" filterUnits="userSpaceOnUse" color-interpolation-filters="sRGB">
<feFlood flood-opacity="0" result="BackgroundImageFix"/>
<feColorMatrix in="SourceAlpha" type="matrix" values="0 0 0 0 0 0 0 0 0 0 0 0 0 0 0 0 0 0 127 0" result="hardAlpha"/>
<feOffset dy="4"/>
<feGaussianBlur stdDeviation="15"/>
<feComposite in2="hardAlpha" operator="out"/>
<feColorMatrix type="matrix" values="0 0 0 0 0.0862745 0 0 0 0 0.498039 0 0 0 0 0.988235 0 0 0 1 0"/>
<feBlend mode="normal" in2="BackgroundImageFix" result="effect1_dropShadow_100_197"/>
<feBlend mode="normal" in="SourceGraphic" in2="effect1_dropShadow_100_197" result="shape"/>
</filter>
<linearGradient id="paint0_linear_100_197" x1="960" y1="0" x2="960" y2="4973" gradientUnits="userSpaceOnUse">
<stop offset="0.729167" stop-color="#01164E"/>
<stop offset="1" stop-color="#092E9C"/>
</linearGradient>
<radialGradient id="paint1_radial_100_197" cx="0" cy="0" r="1" gradientUnits="userSpaceOnUse" gradientTransform="translate(1488.07 5191.33) rotate(-134.78) scale(1266.56 1266.53)">
<stop stop-color="#5BC7CE"/>
<stop offset="0.11" stop-color="#4198C0"/>
<stop offset="0.23" stop-color="#296BB3"/>
<stop offset="0.34" stop-color="#184AAA"/>
<stop offset="0.43" stop-color="#0D37A5"/>
<stop offset="0.49" stop-color="#0A30A3"/>
<stop offset="1" stop-color="#00152A"/>
</radialGradient>
<radialGradient id="paint2_radial_100_197" cx="0" cy="0" r="1" gradientUnits="userSpaceOnUse" gradientTransform="translate(1021.33 4732.71) rotate(-180) scale(801.052)">
<stop stop-color="#5BC7CE"/>
<stop offset="0.11" stop-color="#4198C0"/>
<stop offset="0.23" stop-color="#296BB3"/>
<stop offset="0.34" stop-color="#184AAA"/>
<stop offset="0.43" stop-color="#0D37A5"/>
<stop offset="0.49" stop-color="#0A30A3"/>
<stop offset="1" stop-color="#00152A"/>
</radialGradient>
<radialGradient id="paint3_radial_100_197" cx="0" cy="0" r="1" gradientUnits="userSpaceOnUse" gradientTransform="translate(311.972 4238.05) rotate(30) scale(641.084)">
<stop stop-color="#0A30A3"/>
<stop offset="1" stop-color="#00152A"/>
</radialGradient>
<radialGradient id="paint4_radial_100_197" cx="0" cy="0" r="1" gradientUnits="userSpaceOnUse" gradientTransform="translate(346.116 409.559) rotate(45.0153) scale(981.917 981.917)">
<stop stop-color="#5BC7CE"/>
<stop offset="0.11" stop-color="#4198C0"/>
<stop offset="0.23" stop-color="#296BB3"/>
<stop offset="0.34" stop-color="#184AAA"/>
<stop offset="0.43" stop-color="#0D37A5"/>
<stop offset="0.49" stop-color="#0A30A3"/>
<stop offset="1" stop-color="#00152A"/>
</radialGradient>
<linearGradient id="paint5_linear_100_197" x1="948.22" y1="-104.742" x2="748.261" y2="138.69" gradientUnits="userSpaceOnUse">
<stop offset="0.17" stop-color="#0A30A3"/>
<stop offset="1" stop-color="white"/>
</linearGradient>
<radialGradient id="paint6_radial_100_197" cx="0" cy="0" r="1" gradientUnits="userSpaceOnUse" gradientTransform="translate(785.444 139.836) rotate(-134.97) scale(637.568 637.568)">
<stop stop-color="#5BC7CE"/>
<stop offset="0.11" stop-color="#4198C0"/>
<stop offset="0.23" stop-color="#296BB3"/>
<stop offset="0.34" stop-color="#184AAA"/>
<stop offset="0.43" stop-color="#0D37A5"/>
<stop offset="0.49" stop-color="#0A30A3"/>
<stop offset="1" stop-color="#00152A"/>
</radialGradient>
<radialGradient id="paint7_radial_100_197" cx="0" cy="0" r="1" gradientUnits="userSpaceOnUse" gradientTransform="translate(97.4356 1342.03) rotate(133.265) scale(894.193 850.137)">
<stop stop-color="#0A30A3"/>
<stop offset="1" stop-color="#00152A"/>
</radialGradient>
<linearGradient id="paint8_linear_100_197" x1="1668.01" y1="1334.69" x2="1411.76" y2="1646.64" gradientUnits="userSpaceOnUse">
<stop offset="0.17" stop-color="#0A30A3"/>
<stop offset="1" stop-color="white"/>
</linearGradient>
<linearGradient id="paint9_linear_100_197" x1="1595.95" y1="1575.45" x2="1813.95" y2="1362.95" gradientUnits="userSpaceOnUse">
<stop stop-color="#0A30A3" stop-opacity="0.31"/>
<stop offset="1" stop-color="white" stop-opacity="0"/>
</linearGradient>
<linearGradient id="paint10_linear_100_197" x1="0" y1="96" x2="1915.66" y2="910.202" gradientUnits="userSpaceOnUse">
<stop stop-color="#0A30A3"/>
<stop offset="0.585704" stop-color="#001447"/>
</linearGradient>
<radialGradient id="paint11_radial_100_197" cx="0" cy="0" r="1" gradientUnits="userSpaceOnUse" gradientTransform="translate(1782.1 220.461) scale(758.657 758.657)">
<stop stop-color="#0A30A3"/>
<stop offset="1" stop-color="#00152A"/>
</radialGradient>
<radialGradient id="paint12_radial_100_197" cx="0" cy="0" r="1" gradientUnits="userSpaceOnUse" gradientTransform="translate(115.924 -276.705) scale(1072.69)">
<stop stop-color="#0A30A3"/>
<stop offset="1" stop-color="#00152A"/>
</radialGradient>
<radialGradient id="paint13_radial_100_197" cx="0" cy="0" r="1" gradientUnits="userSpaceOnUse" gradientTransform="translate(2.17745 -82.2781) rotate(-45) scale(1433.13)">
<stop stop-color="#5BC7CE"/>
<stop offset="0.11" stop-color="#4198C0"/>
<stop offset="0.23" stop-color="#296BB3"/>
<stop offset="0.34" stop-color="#184AAA"/>
<stop offset="0.43" stop-color="#0D37A5"/>
<stop offset="0.49" stop-color="#0A30A3"/>
<stop offset="1" stop-color="#00152A"/>
</radialGradient>
<radialGradient id="paint14_radial_100_197" cx="0" cy="0" r="1" gradientUnits="userSpaceOnUse" gradientTransform="translate(1375.68 4546.01) rotate(-134.825) scale(1621.98 1621.95)">
<stop stop-color="#5BC7CE"/>
<stop offset="0.11" stop-color="#4198C0"/>
<stop offset="0.23" stop-color="#296BB3"/>
<stop offset="0.34" stop-color="#184AAA"/>
<stop offset="0.43" stop-color="#0D37A5"/>
<stop offset="0.49" stop-color="#0A30A3"/>
<stop offset="1" stop-color="#00152A"/>
</radialGradient>
<radialGradient id="paint15_radial_100_197" cx="0" cy="0" r="1" gradientUnits="userSpaceOnUse" gradientTransform="translate(1713.34 4011.99) rotate(-153.124) scale(894.193 850.137)">
<stop stop-color="#0A30A3"/>
<stop offset="1" stop-color="#00152A"/>
</radialGradient>
<linearGradient id="paint16_linear_100_197" x1="0" y1="2514" x2="2089.16" y2="3114.42" gradientUnits="userSpaceOnUse">
<stop stop-color="#0A30A3"/>
<stop offset="0.585704" stop-color="#001447"/>
</linearGradient>
<linearGradient id="paint17_linear_100_197" x1="1526.73" y1="2636.93" x2="1661.32" y2="2498.46" gradientUnits="userSpaceOnUse">
<stop offset="0.17" stop-color="#0A30A3"/>
<stop offset="1" stop-color="white"/>
</linearGradient>
<linearGradient id="paint18_linear_100_197" x1="1569.1" y1="2676.77" x2="1489.36" y2="2758.81" gradientUnits="userSpaceOnUse">
<stop offset="0.17" stop-color="#0A30A3"/>
<stop offset="1" stop-color="white"/>
</linearGradient>
<linearGradient id="paint19_linear_100_197" x1="499.104" y1="4346.77" x2="419.36" y2="4428.81" gradientUnits="userSpaceOnUse">
<stop offset="0.17" stop-color="#0A30A3"/>
<stop offset="1" stop-color="white"/>
</linearGradient>
<linearGradient id="paint20_linear_100_197" x1="1407.37" y1="4401" x2="1625.37" y2="4188.5" gradientUnits="userSpaceOnUse">
<stop stop-color="#0A30A3" stop-opacity="0.31"/>
<stop offset="1" stop-color="white" stop-opacity="0"/>
</linearGradient>
<clipPath id="clip0_100_197">
<rect width="1920" height="4973" fill="white"/>
</clipPath>
<clipPath id="clip1_100_197">
<rect width="1920" height="477" fill="white" transform="translate(0 4493)"/>
</clipPath>
</defs>
</svg>
