<svg width="1920" height="1347" viewBox="0 0 1920 1347" fill="none" xmlns="http://www.w3.org/2000/svg">
<g clip-path="url(#clip0_124_660)">
<rect width="1920" height="1347" fill="url(#paint0_linear_124_660)"/>
<path opacity="0.36" d="M-17.4359 758.434C-30.188 745.68 -30.188 725.001 -17.4359 712.261L243.256 451.566C256.009 438.811 276.684 438.811 289.436 451.566C302.188 464.32 302.188 484.999 289.436 497.739L28.7286 758.434C15.9766 771.189 -4.69883 771.189 -17.4509 758.434H-17.4359Z" fill="url(#paint1_radial_124_660)"/>
<path d="M127.139 489.859C125.277 487.997 122.258 487.997 120.396 489.859C118.534 491.721 118.534 494.74 120.396 496.602C122.258 498.464 125.277 498.464 127.139 496.602C129.001 494.74 129.001 491.721 127.139 489.859Z" fill="white" fill-opacity="0.5"/>
<path d="M157.009 459.988C155.147 458.126 152.129 458.126 150.267 459.988C148.405 461.85 148.405 464.869 150.267 466.731C152.129 468.593 155.147 468.593 157.009 466.731C158.871 464.869 158.871 461.85 157.009 459.988Z" fill="white" fill-opacity="0.5"/>
<path d="M186.86 430.117C184.998 428.255 181.979 428.255 180.117 430.117C178.255 431.979 178.255 434.998 180.117 436.86C181.979 438.722 184.998 438.722 186.86 436.86C188.722 434.998 188.722 431.979 186.86 430.117Z" fill="white" fill-opacity="0.5"/>
<path d="M216.731 400.268C214.869 398.406 211.85 398.406 209.988 400.268C208.126 402.13 208.126 405.148 209.988 407.01C211.85 408.872 214.869 408.872 216.731 407.01C218.593 405.148 218.593 402.13 216.731 400.268Z" fill="white" fill-opacity="0.5"/>
<path d="M239.858 377.139C241.72 379.001 244.739 379.001 246.601 377.139C248.463 375.277 248.463 372.258 246.601 370.396C244.739 368.534 241.72 368.534 239.858 370.396C237.996 372.258 237.996 375.277 239.858 377.139Z" fill="white" fill-opacity="0.5"/>
<path style="mix-blend-mode:overlay" d="M1061.14 -205.016C1063.96 -202.194 1063.96 -197.607 1061.14 -194.765L729.17 137.2C726.348 140.022 721.762 140.022 718.92 137.2C716.097 134.378 716.097 129.791 718.92 126.949L1050.88 -205.016C1053.71 -207.838 1058.29 -207.838 1061.14 -205.016Z" fill="url(#paint2_linear_124_660)"/>
<path opacity="0.36" d="M1027.35 -95.8435C1035.62 -87.5723 1035.62 -74.1463 1027.35 -65.8751L857.982 103.391C849.711 111.662 836.285 111.662 828.014 103.391C819.743 95.1193 819.743 81.6934 828.014 73.4222L997.377 -95.8435C1005.65 -104.115 1019.07 -104.115 1027.35 -95.8435Z" fill="url(#paint3_radial_124_660)"/>
<path d="M1920 96H0V867H1920V96Z" fill="url(#paint4_linear_124_660)"/>
<g opacity="0.6">
<path d="M1507.5 434.518L1269.89 370.693" stroke="#1E6AC6" stroke-opacity="0.6" stroke-width="8.4" stroke-linecap="round"/>
<path d="M1206.52 353.674L1198.6 351.546" stroke="#179F0C" stroke-opacity="0.6" stroke-width="8.4" stroke-linecap="round"/>
<path d="M1107.71 658.316L1068.11 647.679" stroke="#179F0C" stroke-opacity="0.6" stroke-width="8.4" stroke-linecap="round"/>
<path d="M1022.59 406.17L998.825 399.787" stroke="#179F0C" stroke-opacity="0.6" stroke-width="8.4" stroke-linecap="round"/>
<path d="M1085.72 550.506L1074.4 547.467" stroke="#179F0C" stroke-opacity="0.6" stroke-width="8.4" stroke-linecap="round"/>
<path d="M1331.48 489.139L1109.71 429.569" stroke="#1E6AC6" stroke-opacity="0.6" stroke-width="8.4" stroke-linecap="round"/>
<path d="M1283.72 603.691L1149.08 567.524" stroke="#1E6AC6" stroke-opacity="0.6" stroke-width="8.4" stroke-linecap="round"/>
<path d="M1313.64 713.629L1178.99 677.462" stroke="#1E6AC6" stroke-opacity="0.6" stroke-width="8.4" stroke-linecap="round"/>
<path d="M1337.5 688.609C1346.35 703.75 1341.36 723.394 1326.35 732.485C1311.35 741.578 1292.01 736.675 1283.16 721.534C1282 719.558 1280.87 717.556 1279.78 715.556C1252.97 666.312 1247.75 611.178 1261.21 561.088C1274.66 510.997 1306.8 465.897 1354.68 436.716C1356.63 435.532 1358.6 434.365 1360.6 433.238C1411.48 404.469 1469.36 398.799 1521.8 412.885C1574.25 426.973 1621.49 460.881 1651.11 511.27C1652.27 513.246 1653.4 515.248 1654.49 517.249C1681.31 566.492 1686.52 621.626 1673.07 671.717C1659.61 721.807 1627.47 766.908 1579.6 796.088C1577.65 797.279 1575.67 798.44 1573.67 799.566C1558.43 808.235 1539.24 802.79 1530.81 787.404C1522.38 772.019 1527.9 752.517 1543.15 743.848C1544.64 743.001 1546.11 742.136 1547.55 741.261C1580.56 721.142 1602.74 689.972 1612.04 655.325C1621.35 620.671 1617.77 582.585 1599.29 548.642C1598.49 547.156 1597.64 545.668 1596.78 544.195C1581.68 518.515 1559.89 498.885 1534.81 486.216L1497.64 624.595C1493.04 641.718 1475.65 651.927 1458.8 647.401C1441.95 642.876 1432.02 625.328 1436.62 608.205L1473.79 469.826C1445.73 468.22 1417.04 474.291 1391.11 488.952C1389.62 489.799 1388.15 490.665 1386.71 491.54C1353.7 511.658 1331.52 542.828 1322.22 577.476C1312.91 612.13 1316.48 650.214 1334.97 684.159C1335.77 685.644 1336.62 687.126 1337.48 688.606L1337.5 688.609Z" fill="#1E6AC6" fill-opacity="0.9"/>
</g>
<path opacity="0.94" d="M1880.69 285.376C2040.68 285.376 2170.38 155.683 2170.38 -4.31199C2170.38 -164.307 2040.68 -294 1880.69 -294C1720.69 -294 1591 -164.307 1591 -4.31199C1591 155.683 1720.69 285.376 1880.69 285.376ZM1880.69 -179.242C1977.3 -179.242 2055.62 -100.92 2055.62 -4.31199C2055.62 92.2964 1977.3 170.618 1880.69 170.618C1784.08 170.618 1705.76 92.2964 1705.76 -4.31199C1705.76 -100.92 1784.08 -179.242 1880.69 -179.242Z" fill="url(#paint5_radial_124_660)"/>
<path opacity="0.94" d="M45.9999 -363C-239.539 -363 -471 -131.539 -471 154C-471 439.539 -239.539 671 45.9999 671C331.539 671 563 439.539 563 154C563 -131.539 331.539 -363 45.9999 -363ZM45.9999 466.194C-126.415 466.194 -266.194 326.415 -266.194 154C-266.194 -18.415 -126.415 -158.194 45.9999 -158.194C218.415 -158.194 358.194 -18.415 358.194 154C358.194 326.415 218.415 466.194 45.9999 466.194Z" fill="url(#paint6_radial_124_660)"/>
<path d="M320.569 207.546L261.691 148.668C210.731 197.001 130.273 196.217 80.3125 146.257C30.3521 96.2964 29.5877 15.8383 77.9017 -35.1217L19.0233 -94C-61.8071 -10.5432 -61.0035 122.639 21.4537 205.116C103.911 287.573 237.093 288.376 320.569 207.546Z" fill="url(#paint7_radial_124_660)" fill-opacity="0.2"/>
<g clip-path="url(#clip1_124_660)" filter="url(#filter0_d_124_660)">
<rect width="1920" height="477" transform="translate(0 867)" fill="#001447"/>
<path opacity="0.36" d="M1970.71 1110.38C1987.1 1126.89 1987.1 1153.66 1970.71 1170.15L1635.65 1507.62C1619.26 1524.13 1592.68 1524.13 1576.29 1507.62C1559.9 1491.11 1559.9 1464.34 1576.29 1447.85L1911.35 1110.38C1927.74 1093.87 1954.32 1093.87 1970.69 1110.38H1970.71Z" fill="url(#paint8_radial_124_660)"/>
<path d="M1159.62 1287.21L1046.21 1400.62C1046.39 1400.8 1046.55 1400.99 1046.72 1401.17C1046.9 1401.35 1047.1 1401.5 1047.27 1401.68L1160.68 1288.27C1160.5 1288.1 1160.34 1287.9 1160.17 1287.72C1159.99 1287.55 1159.8 1287.39 1159.62 1287.21Z" fill="#FF9149"/>
<path d="M1071.42 1417.97C1071.91 1418.18 1072.4 1418.4 1072.91 1418.61L1177.63 1313.89C1177.44 1313.4 1177.2 1312.91 1176.99 1312.4L1071.42 1417.97Z" fill="#FF9149"/>
<path d="M1051.74 1405.72C1052.13 1406.05 1052.51 1406.38 1052.9 1406.7L1165.72 1293.88C1165.4 1293.49 1165.07 1293.11 1164.74 1292.72L1051.74 1405.72Z" fill="#FF9149"/>
<path d="M1057.76 1410.34C1058.17 1410.64 1058.58 1410.93 1059.01 1411.22L1170.22 1300.01C1169.95 1299.58 1169.64 1299.17 1169.34 1298.76L1057.74 1410.36L1057.76 1410.34Z" fill="#FF9149"/>
<path d="M1079.14 1420.87C1079.67 1421.04 1080.22 1421.22 1080.75 1421.38L1180.38 1321.75C1180.22 1321.2 1180.04 1320.67 1179.87 1320.14L1079.14 1420.87Z" fill="#FF9149"/>
<path d="M1064.3 1414.44C1064.76 1414.69 1065.21 1414.95 1065.68 1415.2L1174.22 1306.66C1173.97 1306.21 1173.71 1305.76 1173.46 1305.29L1064.3 1414.44Z" fill="#FF9149"/>
<path d="M1099.53 1264.32C1098.76 1264.36 1098 1264.42 1097.23 1264.48L1023.52 1338.19C1023.46 1338.96 1023.4 1339.72 1023.36 1340.49L1099.55 1264.3L1099.53 1264.32Z" fill="#FF9149"/>
<path d="M1183.51 1339.9C1183.47 1339.23 1183.41 1338.57 1183.37 1337.92L1096.94 1424.36C1097.61 1424.41 1098.25 1424.45 1098.92 1424.49L1183.51 1339.9Z" fill="#FF9149"/>
<path d="M1025.48 1325.59C1025.26 1326.49 1025.07 1327.41 1024.89 1328.32L1087.33 1265.87C1086.43 1266.05 1085.51 1266.24 1084.61 1266.46L1025.48 1325.59Z" fill="#FF9149"/>
<path d="M1087.59 1423.06C1088.18 1423.18 1088.79 1423.28 1089.39 1423.4L1182.39 1330.39C1182.3 1329.79 1182.18 1329.2 1182.06 1328.59L1087.59 1423.06Z" fill="#FF9149"/>
<path d="M1031.55 1308.89C1030.91 1310.19 1030.3 1311.52 1029.73 1312.83L1071.85 1270.71C1070.52 1271.28 1069.2 1271.89 1067.91 1272.53L1031.55 1308.89Z" fill="#FF9149"/>
<path d="M1023.38 1348.97C1023.42 1349.64 1023.48 1350.31 1023.52 1350.95L1109.95 1264.52C1109.29 1264.46 1108.62 1264.42 1107.97 1264.38L1023.38 1348.97Z" fill="#FF9149"/>
<path d="M1024.5 1358.5C1024.6 1359.11 1024.71 1359.7 1024.83 1360.3L1119.3 1265.83C1118.71 1265.71 1118.11 1265.62 1117.5 1265.5L1024.5 1358.5Z" fill="#FF9149"/>
<path d="M1119.56 1423C1120.46 1422.83 1121.38 1422.63 1122.28 1422.42L1181.41 1363.28C1181.63 1362.38 1181.83 1361.48 1182 1360.56L1119.56 1423Z" fill="#FF9149"/>
<path d="M1041.18 1394.99C1041.49 1395.39 1041.82 1395.76 1042.16 1396.15L1155.15 1283.16C1154.76 1282.82 1154.39 1282.49 1153.99 1282.18L1041.18 1394.99Z" fill="#FF9149"/>
<path d="M1107.39 1424.53C1108.15 1424.49 1108.91 1424.43 1109.68 1424.38L1183.39 1350.66C1183.45 1349.9 1183.51 1349.13 1183.55 1348.37L1107.37 1424.55L1107.39 1424.53Z" fill="#FF9149"/>
<path d="M1175.34 1379.98C1175.99 1378.69 1176.59 1377.35 1177.16 1376.04L1135.04 1418.16C1136.37 1417.59 1137.69 1416.99 1138.98 1416.34L1175.34 1379.98Z" fill="#FF9149"/>
<path d="M1036.67 1388.88C1036.94 1389.31 1037.26 1389.72 1037.55 1390.13L1149.15 1278.53C1148.74 1278.24 1148.33 1277.94 1147.9 1277.65L1036.69 1388.86L1036.67 1388.88Z" fill="#FF9149"/>
<path d="M1032.69 1382.22C1032.93 1382.67 1033.2 1383.12 1033.45 1383.59L1142.61 1274.44C1142.16 1274.18 1141.71 1273.93 1141.23 1273.67L1032.69 1382.22Z" fill="#FF9149"/>
<path d="M1026.52 1367.12C1026.67 1367.67 1026.85 1368.2 1027.03 1368.73L1127.75 1268.01C1127.22 1267.83 1126.67 1267.65 1126.14 1267.5L1026.52 1367.12Z" fill="#FF9149"/>
<path d="M1029.28 1374.98C1029.48 1375.47 1029.71 1375.96 1029.93 1376.47L1135.49 1270.91C1135 1270.69 1134.51 1270.48 1134 1270.26L1029.28 1374.98Z" fill="#FF9149"/>
<path d="M1371.02 995.02C1416.49 949.545 1416.49 875.815 1371.02 830.34C1325.54 784.865 1251.82 784.865 1206.34 830.34C1160.86 875.815 1160.86 949.545 1206.34 995.02C1251.82 1040.49 1325.54 1040.49 1371.02 995.02Z" fill="url(#paint9_radial_124_660)" fill-opacity="0.3"/>
<path opacity="0.94" d="M301.567 546.491C153.78 461.165 -35.184 511.798 -120.509 659.586C-205.835 807.374 -155.202 996.337 -7.41427 1081.66C140.374 1166.99 329.337 1116.36 414.662 968.567C499.988 820.78 449.355 631.816 301.567 546.491ZM53.7862 975.66C-35.4513 924.139 -66.0283 810.024 -14.507 720.786C37.0144 631.549 151.129 600.972 240.367 652.493C329.604 704.014 360.181 818.129 308.66 907.367C257.139 996.604 143.024 1027.18 53.7862 975.66Z" fill="url(#paint10_radial_124_660)"/>
<path d="M40.1389 1121.01C38.2769 1119.15 35.2585 1119.15 33.3965 1121.01C31.5345 1122.87 31.5345 1125.89 33.3965 1127.75C35.2585 1129.62 38.2769 1129.62 40.1389 1127.75C42.0009 1125.89 42.0009 1122.87 40.1389 1121.01Z" fill="white"/>
<path d="M70.009 1091.14C68.147 1089.28 65.1286 1089.28 63.2666 1091.14C61.4046 1093 61.4046 1096.02 63.2666 1097.88C65.1286 1099.75 68.147 1099.75 70.009 1097.88C71.871 1096.02 71.871 1093 70.009 1091.14Z" fill="white"/>
<path d="M99.8596 1061.27C97.9976 1059.41 94.9792 1059.41 93.1172 1061.27C91.2552 1063.13 91.2552 1066.15 93.1172 1068.01C94.9792 1069.87 97.9976 1069.87 99.8596 1068.01C101.722 1066.15 101.722 1063.13 99.8596 1061.27Z" fill="white"/>
<path d="M129.731 1031.42C127.869 1029.56 124.85 1029.56 122.988 1031.42C121.126 1033.28 121.126 1036.3 122.988 1038.16C124.85 1040.02 127.869 1040.02 129.731 1038.16C131.593 1036.3 131.593 1033.28 129.731 1031.42Z" fill="white"/>
<path d="M152.858 1008.29C154.72 1010.15 157.739 1010.15 159.601 1008.29C161.463 1006.43 161.463 1003.41 159.601 1001.55C157.739 999.687 154.72 999.687 152.858 1001.55C150.996 1003.41 150.996 1006.43 152.858 1008.29Z" fill="white"/>
</g>
<path d="M1917.78 1231.57C1920.6 1234.39 1920.6 1238.97 1917.78 1241.82L1585.82 1573.78C1582.99 1576.6 1578.41 1576.6 1575.57 1573.78C1572.74 1570.96 1572.74 1566.37 1575.57 1563.53L1907.53 1231.57C1910.35 1228.74 1914.94 1228.74 1917.78 1231.57Z" fill="url(#paint11_linear_124_660)" style="mix-blend-mode:overlay"/>
</g>
<defs>
<filter id="filter0_d_124_660" x="-30" y="841" width="1980" height="537" filterUnits="userSpaceOnUse" color-interpolation-filters="sRGB">
<feFlood flood-opacity="0" result="BackgroundImageFix"/>
<feColorMatrix in="SourceAlpha" type="matrix" values="0 0 0 0 0 0 0 0 0 0 0 0 0 0 0 0 0 0 127 0" result="hardAlpha"/>
<feOffset dy="4"/>
<feGaussianBlur stdDeviation="15"/>
<feComposite in2="hardAlpha" operator="out"/>
<feColorMatrix type="matrix" values="0 0 0 0 0.0862745 0 0 0 0 0.498039 0 0 0 0 0.988235 0 0 0 1 0"/>
<feBlend mode="normal" in2="BackgroundImageFix" result="effect1_dropShadow_124_660"/>
<feBlend mode="normal" in="SourceGraphic" in2="effect1_dropShadow_124_660" result="shape"/>
</filter>
<linearGradient id="paint0_linear_124_660" x1="960" y1="0" x2="960" y2="1347" gradientUnits="userSpaceOnUse">
<stop offset="0.729167" stop-color="#01164E"/>
<stop offset="1" stop-color="#092E9C"/>
</linearGradient>
<radialGradient id="paint1_radial_124_660" cx="0" cy="0" r="1" gradientUnits="userSpaceOnUse" gradientTransform="translate(346.116 409.559) rotate(45.0153) scale(981.917 981.917)">
<stop stop-color="#5BC7CE"/>
<stop offset="0.11" stop-color="#4198C0"/>
<stop offset="0.23" stop-color="#296BB3"/>
<stop offset="0.34" stop-color="#184AAA"/>
<stop offset="0.43" stop-color="#0D37A5"/>
<stop offset="0.49" stop-color="#0A30A3"/>
<stop offset="1" stop-color="#00152A"/>
</radialGradient>
<linearGradient id="paint2_linear_124_660" x1="948.22" y1="-104.742" x2="748.261" y2="138.69" gradientUnits="userSpaceOnUse">
<stop offset="0.17" stop-color="#0A30A3"/>
<stop offset="1" stop-color="white"/>
</linearGradient>
<radialGradient id="paint3_radial_124_660" cx="0" cy="0" r="1" gradientUnits="userSpaceOnUse" gradientTransform="translate(785.444 139.836) rotate(-134.97) scale(637.568 637.568)">
<stop stop-color="#5BC7CE"/>
<stop offset="0.11" stop-color="#4198C0"/>
<stop offset="0.23" stop-color="#296BB3"/>
<stop offset="0.34" stop-color="#184AAA"/>
<stop offset="0.43" stop-color="#0D37A5"/>
<stop offset="0.49" stop-color="#0A30A3"/>
<stop offset="1" stop-color="#00152A"/>
</radialGradient>
<linearGradient id="paint4_linear_124_660" x1="0" y1="96" x2="1890.37" y2="933.842" gradientUnits="userSpaceOnUse">
<stop stop-color="#0A30A3"/>
<stop offset="0.585704" stop-color="#001447"/>
</linearGradient>
<radialGradient id="paint5_radial_124_660" cx="0" cy="0" r="1" gradientUnits="userSpaceOnUse" gradientTransform="translate(1782.1 220.461) scale(758.657 758.657)">
<stop stop-color="#0A30A3"/>
<stop offset="1" stop-color="#00152A"/>
</radialGradient>
<radialGradient id="paint6_radial_124_660" cx="0" cy="0" r="1" gradientUnits="userSpaceOnUse" gradientTransform="translate(115.924 -276.705) scale(1072.69)">
<stop stop-color="#0A30A3"/>
<stop offset="1" stop-color="#00152A"/>
</radialGradient>
<radialGradient id="paint7_radial_124_660" cx="0" cy="0" r="1" gradientUnits="userSpaceOnUse" gradientTransform="translate(2.17745 -82.2781) rotate(-45) scale(1433.13)">
<stop stop-color="#5BC7CE"/>
<stop offset="0.11" stop-color="#4198C0"/>
<stop offset="0.23" stop-color="#296BB3"/>
<stop offset="0.34" stop-color="#184AAA"/>
<stop offset="0.43" stop-color="#0D37A5"/>
<stop offset="0.49" stop-color="#0A30A3"/>
<stop offset="1" stop-color="#00152A"/>
</radialGradient>
<radialGradient id="paint8_radial_124_660" cx="0" cy="0" r="1" gradientUnits="userSpaceOnUse" gradientTransform="translate(1488.07 1565.33) rotate(-134.78) scale(1266.56 1266.53)">
<stop stop-color="#5BC7CE"/>
<stop offset="0.11" stop-color="#4198C0"/>
<stop offset="0.23" stop-color="#296BB3"/>
<stop offset="0.34" stop-color="#184AAA"/>
<stop offset="0.43" stop-color="#0D37A5"/>
<stop offset="0.49" stop-color="#0A30A3"/>
<stop offset="1" stop-color="#00152A"/>
</radialGradient>
<radialGradient id="paint9_radial_124_660" cx="0" cy="0" r="1" gradientUnits="userSpaceOnUse" gradientTransform="translate(1021.33 1106.71) rotate(-180) scale(801.052)">
<stop stop-color="#5BC7CE"/>
<stop offset="0.11" stop-color="#4198C0"/>
<stop offset="0.23" stop-color="#296BB3"/>
<stop offset="0.34" stop-color="#184AAA"/>
<stop offset="0.43" stop-color="#0D37A5"/>
<stop offset="0.49" stop-color="#0A30A3"/>
<stop offset="1" stop-color="#00152A"/>
</radialGradient>
<radialGradient id="paint10_radial_124_660" cx="0" cy="0" r="1" gradientUnits="userSpaceOnUse" gradientTransform="translate(311.972 612.05) rotate(30) scale(641.084)">
<stop stop-color="#0A30A3"/>
<stop offset="1" stop-color="#00152A"/>
</radialGradient>
<linearGradient id="paint11_linear_124_660" x1="1595.95" y1="1575.45" x2="1813.95" y2="1362.95" gradientUnits="userSpaceOnUse">
<stop stop-color="#0A30A3" stop-opacity="0.31"/>
<stop offset="1" stop-color="white" stop-opacity="0"/>
</linearGradient>
<clipPath id="clip0_124_660">
<rect width="1920" height="1347" fill="white"/>
</clipPath>
<clipPath id="clip1_124_660">
<rect width="1920" height="477" fill="white" transform="translate(0 867)"/>
</clipPath>
</defs>
</svg>
