<svg width="1920" height="1739" viewBox="0 0 1920 1739" fill="none" xmlns="http://www.w3.org/2000/svg">
<g clip-path="url(#clip0_115_474)">
<rect width="1920" height="1739" fill="url(#paint0_linear_115_474)"/>
<path opacity="0.36" d="M-17.4359 758.434C-30.188 745.68 -30.188 725.001 -17.4359 712.261L243.256 451.566C256.009 438.811 276.684 438.811 289.436 451.566C302.188 464.32 302.188 484.999 289.436 497.739L28.7286 758.434C15.9766 771.189 -4.69883 771.189 -17.4509 758.434H-17.4359Z" fill="url(#paint1_radial_115_474)"/>
<path d="M127.139 489.859C125.277 487.997 122.258 487.997 120.396 489.859C118.534 491.721 118.534 494.74 120.396 496.602C122.258 498.464 125.277 498.464 127.139 496.602C129.001 494.74 129.001 491.721 127.139 489.859Z" fill="white" fill-opacity="0.5"/>
<path d="M157.009 459.988C155.147 458.126 152.129 458.126 150.267 459.988C148.405 461.85 148.405 464.869 150.267 466.731C152.129 468.593 155.147 468.593 157.009 466.731C158.871 464.869 158.871 461.85 157.009 459.988Z" fill="white" fill-opacity="0.5"/>
<path d="M186.86 430.117C184.998 428.255 181.979 428.255 180.117 430.117C178.255 431.979 178.255 434.998 180.117 436.86C181.979 438.722 184.998 438.722 186.86 436.86C188.722 434.998 188.722 431.979 186.86 430.117Z" fill="white" fill-opacity="0.5"/>
<path d="M216.731 400.268C214.869 398.406 211.85 398.406 209.988 400.268C208.126 402.13 208.126 405.148 209.988 407.01C211.85 408.872 214.869 408.872 216.731 407.01C218.593 405.148 218.593 402.13 216.731 400.268Z" fill="white" fill-opacity="0.5"/>
<path d="M239.858 377.139C241.72 379.001 244.739 379.001 246.601 377.139C248.463 375.277 248.463 372.258 246.601 370.396C244.739 368.534 241.72 368.534 239.858 370.396C237.996 372.258 237.996 375.277 239.858 377.139Z" fill="white" fill-opacity="0.5"/>
<path style="mix-blend-mode:overlay" d="M1061.14 -205.016C1063.96 -202.194 1063.96 -197.607 1061.14 -194.765L729.17 137.2C726.348 140.022 721.762 140.022 718.92 137.2C716.097 134.378 716.097 129.791 718.92 126.949L1050.88 -205.016C1053.71 -207.838 1058.29 -207.838 1061.14 -205.016Z" fill="url(#paint2_linear_115_474)"/>
<path opacity="0.36" d="M1027.35 -95.8435C1035.62 -87.5723 1035.62 -74.1463 1027.35 -65.8751L857.982 103.391C849.711 111.662 836.285 111.662 828.014 103.391C819.743 95.1193 819.743 81.6934 828.014 73.4222L997.377 -95.8435C1005.65 -104.115 1019.07 -104.115 1027.35 -95.8435Z" fill="url(#paint3_radial_115_474)"/>
<path d="M1920 96H0V1298H1920V96Z" fill="url(#paint4_linear_115_474)"/>
<g opacity="0.6">
<path d="M1517.5 434.518L1279.89 370.693" stroke="#1E6AC6" stroke-opacity="0.6" stroke-width="8.4" stroke-linecap="round"/>
<path d="M1216.52 353.674L1208.6 351.546" stroke="#179F0C" stroke-opacity="0.6" stroke-width="8.4" stroke-linecap="round"/>
<path d="M1117.71 658.316L1078.11 647.679" stroke="#179F0C" stroke-opacity="0.6" stroke-width="8.4" stroke-linecap="round"/>
<path d="M1032.58 406.17L1008.82 399.787" stroke="#179F0C" stroke-opacity="0.6" stroke-width="8.4" stroke-linecap="round"/>
<path d="M1095.71 550.506L1084.4 547.467" stroke="#179F0C" stroke-opacity="0.6" stroke-width="8.4" stroke-linecap="round"/>
<path d="M1341.48 489.139L1119.71 429.569" stroke="#1E6AC6" stroke-opacity="0.6" stroke-width="8.4" stroke-linecap="round"/>
<path d="M1293.72 603.693L1159.08 567.526" stroke="#1E6AC6" stroke-opacity="0.6" stroke-width="8.4" stroke-linecap="round"/>
<path d="M1323.64 713.629L1188.99 677.462" stroke="#1E6AC6" stroke-opacity="0.6" stroke-width="8.4" stroke-linecap="round"/>
<path d="M1347.5 688.609C1356.35 703.75 1351.36 723.394 1336.35 732.485C1321.35 741.578 1302.01 736.675 1293.16 721.534C1292 719.558 1290.87 717.556 1289.78 715.556C1262.97 666.312 1257.75 611.178 1271.2 561.088C1284.66 510.997 1316.8 465.897 1364.68 436.716C1366.62 435.532 1368.6 434.365 1370.6 433.238C1421.48 404.469 1479.36 398.799 1531.8 412.885C1584.25 426.973 1631.49 460.881 1661.11 511.27C1662.27 513.246 1663.4 515.248 1664.49 517.249C1691.31 566.492 1696.52 621.626 1683.07 671.717C1669.61 721.807 1637.47 766.908 1589.6 796.088C1587.65 797.279 1585.67 798.44 1583.67 799.566C1568.43 808.235 1549.24 802.79 1540.81 787.404C1532.38 772.019 1537.9 752.517 1553.15 743.848C1554.64 743.001 1556.11 742.136 1557.55 741.261C1590.56 721.142 1612.74 689.972 1622.04 655.325C1631.35 620.671 1627.77 582.585 1609.29 548.642C1608.49 547.156 1607.64 545.668 1606.78 544.195C1591.68 518.515 1569.89 498.885 1544.81 486.216L1507.64 624.595C1503.04 641.718 1485.65 651.927 1468.8 647.401C1451.95 642.876 1442.02 625.328 1446.62 608.205L1483.79 469.826C1455.73 468.22 1427.04 474.291 1401.11 488.952C1399.62 489.799 1398.15 490.665 1396.71 491.54C1363.7 511.658 1341.52 542.828 1332.22 577.476C1322.91 612.13 1326.48 650.214 1344.97 684.159C1345.77 685.644 1346.62 687.126 1347.48 688.606L1347.5 688.609Z" fill="#1E6AC6" fill-opacity="0.9"/>
</g>
<path opacity="0.94" d="M1880.69 285.376C2040.68 285.376 2170.38 155.683 2170.38 -4.31199C2170.38 -164.307 2040.68 -294 1880.69 -294C1720.69 -294 1591 -164.307 1591 -4.31199C1591 155.683 1720.69 285.376 1880.69 285.376ZM1880.69 -179.242C1977.3 -179.242 2055.62 -100.92 2055.62 -4.31199C2055.62 92.2964 1977.3 170.618 1880.69 170.618C1784.08 170.618 1705.76 92.2964 1705.76 -4.31199C1705.76 -100.92 1784.08 -179.242 1880.69 -179.242Z" fill="url(#paint5_radial_115_474)"/>
<path opacity="0.94" d="M45.9999 -363C-239.539 -363 -471 -131.539 -471 154C-471 439.539 -239.539 671 45.9999 671C331.539 671 563 439.539 563 154C563 -131.539 331.539 -363 45.9999 -363ZM45.9999 466.194C-126.415 466.194 -266.194 326.415 -266.194 154C-266.194 -18.415 -126.415 -158.194 45.9999 -158.194C218.415 -158.194 358.194 -18.415 358.194 154C358.194 326.415 218.415 466.194 45.9999 466.194Z" fill="url(#paint6_radial_115_474)"/>
<path d="M320.569 207.546L261.691 148.668C210.731 197.001 130.273 196.217 80.3125 146.257C30.3521 96.2964 29.5877 15.8383 77.9017 -35.1217L19.0233 -94C-61.8071 -10.5432 -61.0035 122.639 21.4537 205.116C103.911 287.573 237.093 288.376 320.569 207.546Z" fill="url(#paint7_radial_115_474)" fill-opacity="0.2"/>
<g clip-path="url(#clip1_115_474)" filter="url(#filter0_d_115_474)">
<rect width="1920" height="477" transform="translate(0 1259)" fill="#001447"/>
<path opacity="0.36" d="M1970.71 1502.38C1987.1 1518.89 1987.1 1545.66 1970.71 1562.15L1635.65 1899.62C1619.26 1916.13 1592.68 1916.13 1576.29 1899.62C1559.9 1883.11 1559.9 1856.34 1576.29 1839.85L1911.35 1502.38C1927.74 1485.87 1954.32 1485.87 1970.69 1502.38H1970.71Z" fill="url(#paint8_radial_115_474)"/>
<path d="M1159.62 1679.21L1046.21 1792.62C1046.39 1792.8 1046.55 1792.99 1046.72 1793.17C1046.9 1793.35 1047.1 1793.5 1047.27 1793.68L1160.68 1680.27C1160.5 1680.1 1160.34 1679.9 1160.17 1679.72C1159.99 1679.55 1159.8 1679.39 1159.62 1679.21Z" fill="#FF9149"/>
<path d="M1071.42 1809.97C1071.91 1810.18 1072.4 1810.4 1072.91 1810.61L1177.63 1705.89C1177.44 1705.4 1177.2 1704.91 1176.99 1704.4L1071.42 1809.97Z" fill="#FF9149"/>
<path d="M1051.74 1797.72C1052.13 1798.05 1052.51 1798.38 1052.9 1798.7L1165.72 1685.88C1165.4 1685.49 1165.07 1685.11 1164.74 1684.72L1051.74 1797.72Z" fill="#FF9149"/>
<path d="M1057.76 1802.34C1058.17 1802.64 1058.58 1802.93 1059.01 1803.22L1170.22 1692.01C1169.95 1691.58 1169.64 1691.17 1169.34 1690.76L1057.74 1802.36L1057.76 1802.34Z" fill="#FF9149"/>
<path d="M1079.14 1812.87C1079.67 1813.04 1080.22 1813.22 1080.75 1813.38L1180.38 1713.75C1180.22 1713.2 1180.04 1712.67 1179.87 1712.14L1079.14 1812.87Z" fill="#FF9149"/>
<path d="M1064.3 1806.44C1064.76 1806.69 1065.21 1806.95 1065.68 1807.2L1174.22 1698.66C1173.97 1698.21 1173.71 1697.76 1173.46 1697.29L1064.3 1806.44Z" fill="#FF9149"/>
<path d="M1099.53 1656.32C1098.76 1656.36 1098 1656.42 1097.23 1656.48L1023.52 1730.19C1023.46 1730.96 1023.4 1731.72 1023.36 1732.49L1099.55 1656.3L1099.53 1656.32Z" fill="#FF9149"/>
<path d="M1183.51 1731.9C1183.47 1731.23 1183.41 1730.57 1183.37 1729.92L1096.94 1816.36C1097.61 1816.41 1098.25 1816.45 1098.92 1816.49L1183.51 1731.9Z" fill="#FF9149"/>
<path d="M1025.48 1717.59C1025.26 1718.49 1025.07 1719.41 1024.89 1720.32L1087.33 1657.87C1086.43 1658.05 1085.51 1658.24 1084.61 1658.46L1025.48 1717.59Z" fill="#FF9149"/>
<path d="M1087.59 1815.06C1088.18 1815.18 1088.79 1815.28 1089.39 1815.4L1182.39 1722.39C1182.3 1721.79 1182.18 1721.2 1182.06 1720.59L1087.59 1815.06Z" fill="#FF9149"/>
<path d="M1031.55 1700.89C1030.91 1702.19 1030.3 1703.52 1029.73 1704.83L1071.85 1662.71C1070.52 1663.28 1069.2 1663.89 1067.91 1664.53L1031.55 1700.89Z" fill="#FF9149"/>
<path d="M1023.38 1740.97C1023.42 1741.64 1023.48 1742.31 1023.52 1742.95L1109.95 1656.52C1109.29 1656.46 1108.62 1656.42 1107.97 1656.38L1023.38 1740.97Z" fill="#FF9149"/>
<path d="M1024.5 1750.5C1024.6 1751.11 1024.71 1751.7 1024.83 1752.3L1119.3 1657.83C1118.71 1657.71 1118.11 1657.62 1117.5 1657.5L1024.5 1750.5Z" fill="#FF9149"/>
<path d="M1119.56 1815C1120.46 1814.83 1121.38 1814.63 1122.28 1814.42L1181.41 1755.28C1181.63 1754.38 1181.83 1753.48 1182 1752.56L1119.56 1815Z" fill="#FF9149"/>
<path d="M1041.18 1786.99C1041.49 1787.39 1041.82 1787.76 1042.16 1788.15L1155.15 1675.16C1154.76 1674.82 1154.39 1674.49 1153.99 1674.18L1041.18 1786.99Z" fill="#FF9149"/>
<path d="M1107.39 1816.53C1108.15 1816.49 1108.91 1816.43 1109.68 1816.38L1183.39 1742.66C1183.45 1741.9 1183.51 1741.13 1183.55 1740.37L1107.37 1816.55L1107.39 1816.53Z" fill="#FF9149"/>
<path d="M1175.34 1771.98C1175.99 1770.69 1176.59 1769.35 1177.16 1768.04L1135.04 1810.16C1136.37 1809.59 1137.69 1808.99 1138.98 1808.34L1175.34 1771.98Z" fill="#FF9149"/>
<path d="M1036.67 1780.88C1036.94 1781.31 1037.26 1781.72 1037.55 1782.13L1149.15 1670.53C1148.74 1670.24 1148.33 1669.94 1147.9 1669.65L1036.69 1780.86L1036.67 1780.88Z" fill="#FF9149"/>
<path d="M1032.69 1774.22C1032.93 1774.67 1033.2 1775.12 1033.45 1775.59L1142.61 1666.44C1142.16 1666.18 1141.71 1665.93 1141.23 1665.67L1032.69 1774.22Z" fill="#FF9149"/>
<path d="M1026.52 1759.12C1026.67 1759.67 1026.85 1760.2 1027.03 1760.73L1127.75 1660.01C1127.22 1659.83 1126.67 1659.65 1126.14 1659.5L1026.52 1759.12Z" fill="#FF9149"/>
<path d="M1029.28 1766.98C1029.48 1767.47 1029.71 1767.96 1029.93 1768.47L1135.49 1662.91C1135 1662.69 1134.51 1662.48 1134 1662.26L1029.28 1766.98Z" fill="#FF9149"/>
<path d="M1371.02 1387.02C1416.49 1341.54 1416.49 1267.81 1371.02 1222.34C1325.54 1176.86 1251.82 1176.86 1206.34 1222.34C1160.86 1267.81 1160.86 1341.54 1206.34 1387.02C1251.82 1432.49 1325.54 1432.49 1371.02 1387.02Z" fill="url(#paint9_radial_115_474)" fill-opacity="0.3"/>
<path opacity="0.94" d="M301.567 938.491C153.78 853.165 -35.184 903.798 -120.509 1051.59C-205.835 1199.37 -155.202 1388.34 -7.41427 1473.66C140.374 1558.99 329.337 1508.36 414.662 1360.57C499.988 1212.78 449.355 1023.82 301.567 938.491ZM53.7862 1367.66C-35.4513 1316.14 -66.0283 1202.02 -14.507 1112.79C37.0144 1023.55 151.129 992.972 240.367 1044.49C329.604 1096.01 360.181 1210.13 308.66 1299.37C257.139 1388.6 143.024 1419.18 53.7862 1367.66Z" fill="url(#paint10_radial_115_474)"/>
<path d="M40.1389 1513.01C38.2769 1511.15 35.2585 1511.15 33.3965 1513.01C31.5345 1514.87 31.5345 1517.89 33.3965 1519.75C35.2585 1521.62 38.2769 1521.62 40.1389 1519.75C42.0009 1517.89 42.0009 1514.87 40.1389 1513.01Z" fill="white"/>
<path d="M70.009 1483.14C68.147 1481.28 65.1286 1481.28 63.2666 1483.14C61.4046 1485 61.4046 1488.02 63.2666 1489.88C65.1286 1491.75 68.147 1491.75 70.009 1489.88C71.871 1488.02 71.871 1485 70.009 1483.14Z" fill="white"/>
<path d="M99.8596 1453.27C97.9976 1451.41 94.9792 1451.41 93.1172 1453.27C91.2552 1455.13 91.2552 1458.15 93.1172 1460.01C94.9792 1461.87 97.9976 1461.87 99.8596 1460.01C101.722 1458.15 101.722 1455.13 99.8596 1453.27Z" fill="white"/>
<path d="M129.731 1423.42C127.869 1421.56 124.85 1421.56 122.988 1423.42C121.126 1425.28 121.126 1428.3 122.988 1430.16C124.85 1432.02 127.869 1432.02 129.731 1430.16C131.593 1428.3 131.593 1425.28 129.731 1423.42Z" fill="white"/>
<path d="M152.858 1400.29C154.72 1402.15 157.739 1402.15 159.601 1400.29C161.463 1398.43 161.463 1395.41 159.601 1393.55C157.739 1391.69 154.72 1391.69 152.858 1393.55C150.996 1395.41 150.996 1398.43 152.858 1400.29Z" fill="white"/>
</g>
<path d="M1917.78 1231.57C1920.6 1234.39 1920.6 1238.97 1917.78 1241.82L1585.82 1573.78C1582.99 1576.6 1578.41 1576.6 1575.57 1573.78C1572.74 1570.96 1572.74 1566.37 1575.57 1563.53L1907.53 1231.57C1910.35 1228.74 1914.94 1228.74 1917.78 1231.57Z" fill="url(#paint11_linear_115_474)" style="mix-blend-mode:overlay"/>
</g>
<defs>
<filter id="filter0_d_115_474" x="-30" y="1233" width="1980" height="537" filterUnits="userSpaceOnUse" color-interpolation-filters="sRGB">
<feFlood flood-opacity="0" result="BackgroundImageFix"/>
<feColorMatrix in="SourceAlpha" type="matrix" values="0 0 0 0 0 0 0 0 0 0 0 0 0 0 0 0 0 0 127 0" result="hardAlpha"/>
<feOffset dy="4"/>
<feGaussianBlur stdDeviation="15"/>
<feComposite in2="hardAlpha" operator="out"/>
<feColorMatrix type="matrix" values="0 0 0 0 0.0862745 0 0 0 0 0.498039 0 0 0 0 0.988235 0 0 0 1 0"/>
<feBlend mode="normal" in2="BackgroundImageFix" result="effect1_dropShadow_115_474"/>
<feBlend mode="normal" in="SourceGraphic" in2="effect1_dropShadow_115_474" result="shape"/>
</filter>
<linearGradient id="paint0_linear_115_474" x1="960" y1="0" x2="960" y2="1739" gradientUnits="userSpaceOnUse">
<stop offset="0.729167" stop-color="#01164E"/>
<stop offset="1" stop-color="#092E9C"/>
</linearGradient>
<radialGradient id="paint1_radial_115_474" cx="0" cy="0" r="1" gradientUnits="userSpaceOnUse" gradientTransform="translate(346.116 409.559) rotate(45.0153) scale(981.917 981.917)">
<stop stop-color="#5BC7CE"/>
<stop offset="0.11" stop-color="#4198C0"/>
<stop offset="0.23" stop-color="#296BB3"/>
<stop offset="0.34" stop-color="#184AAA"/>
<stop offset="0.43" stop-color="#0D37A5"/>
<stop offset="0.49" stop-color="#0A30A3"/>
<stop offset="1" stop-color="#00152A"/>
</radialGradient>
<linearGradient id="paint2_linear_115_474" x1="948.22" y1="-104.742" x2="748.261" y2="138.69" gradientUnits="userSpaceOnUse">
<stop offset="0.17" stop-color="#0A30A3"/>
<stop offset="1" stop-color="white"/>
</linearGradient>
<radialGradient id="paint3_radial_115_474" cx="0" cy="0" r="1" gradientUnits="userSpaceOnUse" gradientTransform="translate(785.444 139.836) rotate(-134.97) scale(637.568 637.568)">
<stop stop-color="#5BC7CE"/>
<stop offset="0.11" stop-color="#4198C0"/>
<stop offset="0.23" stop-color="#296BB3"/>
<stop offset="0.34" stop-color="#184AAA"/>
<stop offset="0.43" stop-color="#0D37A5"/>
<stop offset="0.49" stop-color="#0A30A3"/>
<stop offset="1" stop-color="#00152A"/>
</radialGradient>
<linearGradient id="paint4_linear_115_474" x1="0" y1="96" x2="2092.59" y2="690.907" gradientUnits="userSpaceOnUse">
<stop stop-color="#0A30A3"/>
<stop offset="0.585704" stop-color="#001447"/>
</linearGradient>
<radialGradient id="paint5_radial_115_474" cx="0" cy="0" r="1" gradientUnits="userSpaceOnUse" gradientTransform="translate(1782.1 220.461) scale(758.657 758.657)">
<stop stop-color="#0A30A3"/>
<stop offset="1" stop-color="#00152A"/>
</radialGradient>
<radialGradient id="paint6_radial_115_474" cx="0" cy="0" r="1" gradientUnits="userSpaceOnUse" gradientTransform="translate(115.924 -276.705) scale(1072.69)">
<stop stop-color="#0A30A3"/>
<stop offset="1" stop-color="#00152A"/>
</radialGradient>
<radialGradient id="paint7_radial_115_474" cx="0" cy="0" r="1" gradientUnits="userSpaceOnUse" gradientTransform="translate(2.17745 -82.2781) rotate(-45) scale(1433.13)">
<stop stop-color="#5BC7CE"/>
<stop offset="0.11" stop-color="#4198C0"/>
<stop offset="0.23" stop-color="#296BB3"/>
<stop offset="0.34" stop-color="#184AAA"/>
<stop offset="0.43" stop-color="#0D37A5"/>
<stop offset="0.49" stop-color="#0A30A3"/>
<stop offset="1" stop-color="#00152A"/>
</radialGradient>
<radialGradient id="paint8_radial_115_474" cx="0" cy="0" r="1" gradientUnits="userSpaceOnUse" gradientTransform="translate(1488.07 1957.33) rotate(-134.78) scale(1266.56 1266.53)">
<stop stop-color="#5BC7CE"/>
<stop offset="0.11" stop-color="#4198C0"/>
<stop offset="0.23" stop-color="#296BB3"/>
<stop offset="0.34" stop-color="#184AAA"/>
<stop offset="0.43" stop-color="#0D37A5"/>
<stop offset="0.49" stop-color="#0A30A3"/>
<stop offset="1" stop-color="#00152A"/>
</radialGradient>
<radialGradient id="paint9_radial_115_474" cx="0" cy="0" r="1" gradientUnits="userSpaceOnUse" gradientTransform="translate(1021.33 1498.71) rotate(-180) scale(801.052)">
<stop stop-color="#5BC7CE"/>
<stop offset="0.11" stop-color="#4198C0"/>
<stop offset="0.23" stop-color="#296BB3"/>
<stop offset="0.34" stop-color="#184AAA"/>
<stop offset="0.43" stop-color="#0D37A5"/>
<stop offset="0.49" stop-color="#0A30A3"/>
<stop offset="1" stop-color="#00152A"/>
</radialGradient>
<radialGradient id="paint10_radial_115_474" cx="0" cy="0" r="1" gradientUnits="userSpaceOnUse" gradientTransform="translate(311.972 1004.05) rotate(30) scale(641.084)">
<stop stop-color="#0A30A3"/>
<stop offset="1" stop-color="#00152A"/>
</radialGradient>
<linearGradient id="paint11_linear_115_474" x1="1595.95" y1="1575.45" x2="1813.95" y2="1362.95" gradientUnits="userSpaceOnUse">
<stop stop-color="#0A30A3" stop-opacity="0.31"/>
<stop offset="1" stop-color="white" stop-opacity="0"/>
</linearGradient>
<clipPath id="clip0_115_474">
<rect width="1920" height="1739" fill="white"/>
</clipPath>
<clipPath id="clip1_115_474">
<rect width="1920" height="477" fill="white" transform="translate(0 1259)"/>
</clipPath>
</defs>
</svg>
