<svg width="96" height="104" viewBox="0 0 96 104" fill="none" xmlns="http://www.w3.org/2000/svg">
<path d="M35.0178 62.2994C36.5388 63.8025 36.5726 66.2736 35.093 67.8188C33.6143 69.364 31.1818 69.3983 29.6608 67.8952C29.4613 67.6994 29.2652 67.4993 29.0732 67.2983C24.358 62.3475 22 56.0199 22 49.6957C22 43.3715 24.358 37.0439 29.0732 32.0932C29.2652 31.8922 29.4613 31.6921 29.6608 31.4962C34.7421 26.4991 41.3791 24.0005 48 24.0005C54.6217 24.0005 61.2579 26.4991 66.3392 31.4962C66.5387 31.6921 66.7348 31.8922 66.9268 32.0932C71.642 37.0439 74 43.3715 74 49.6957C74 56.0199 71.642 62.3475 66.9268 67.2983C66.7348 67.5001 66.5387 67.6994 66.3392 67.8952C64.8181 69.3983 62.3866 69.364 60.907 67.8188C59.4283 66.2736 59.4612 63.8025 60.9822 62.2994C61.131 62.1525 61.2773 62.0039 61.4193 61.8554C64.6702 58.442 66.2952 54.0702 66.2952 49.6957C66.2952 45.3204 64.6693 40.9486 61.4193 37.5361C61.2773 37.3866 61.131 37.2381 60.9822 37.092C58.3926 34.5454 55.206 32.9229 51.8511 32.2246V49.6957C51.8511 51.8576 50.1264 53.6098 47.9992 53.6098C45.8719 53.6098 44.1472 51.8576 44.1472 49.6957V32.2246C40.7923 32.9229 37.6057 34.5454 35.0161 37.092C34.8673 37.2389 34.721 37.3875 34.579 37.5361C31.3281 40.9494 29.7031 45.3213 29.7031 49.6957C29.7031 54.071 31.3281 58.4429 34.579 61.8554C34.721 62.0048 34.8673 62.1525 35.0161 62.2994H35.0178Z" fill="#1E6AC6"/>
<path d="M79.5888 9.27472L49.5168 0.222528C48.5322 -0.0735251 47.4678 -0.0735251 46.4832 0.222528L16.4064 9.27472C11.626 10.7093 7.46794 13.4672 4.52275 17.1567C1.57756 20.8462 -0.00494913 25.2797 1.16274e-05 29.8274V52.0007C1.16274e-05 84.7732 44.16 102.873 46.0512 103.627C46.6647 103.873 47.3286 104 48 104C48.6714 104 49.3353 103.873 49.9488 103.627C51.84 102.873 96 84.7732 96 52.0007V29.8274C96.0046 25.2792 94.4214 20.8453 91.4753 17.1557C88.5292 13.4661 84.37 10.7085 79.5888 9.27472ZM86.4 52.0007C86.4 75.6387 56.0688 91.1431 48 94.8524C39.9216 91.1561 9.60001 75.6994 9.60001 52.0007V29.8274C9.59995 27.0992 10.5507 24.4401 12.3176 22.2267C14.0845 20.0134 16.5779 18.358 19.4448 17.4949L48 8.90206L76.5504 17.4949C79.4182 18.3572 81.9127 20.0123 83.6805 22.2257C85.4483 24.4392 86.3997 27.0986 86.4 29.8274V52.0007Z" fill="url(#paint0_linear_287_301)"/>
<defs>
<linearGradient id="paint0_linear_287_301" x1="20.5" y1="30.5005" x2="53" y2="104" gradientUnits="userSpaceOnUse">
<stop stop-color="#61CB58"/>
<stop offset="1" stop-color="#0C9800"/>
</linearGradient>
</defs>
</svg>
