<svg width="88" height="103" viewBox="0 0 88 103" fill="none" xmlns="http://www.w3.org/2000/svg">
<path d="M31.0178 56.2994C32.5388 57.8025 32.5726 60.2736 31.093 61.8188C29.6143 63.364 27.1818 63.3983 25.6608 61.8952C25.4613 61.6994 25.2652 61.4993 25.0732 61.2983C20.358 56.3475 18 50.0199 18 43.6957C18 37.3715 20.358 31.0439 25.0732 26.0932C25.2652 25.8922 25.4613 25.6921 25.6608 25.4962C30.7421 20.4991 37.3791 18.0005 44 18.0005C50.6217 18.0005 57.2579 20.4991 62.3392 25.4962C62.5387 25.6921 62.7348 25.8922 62.9268 26.0932C67.642 31.0439 70 37.3715 70 43.6957C70 50.0199 67.642 56.3475 62.9268 61.2983C62.7348 61.5001 62.5387 61.6994 62.3392 61.8952C60.8181 63.3983 58.3866 63.364 56.907 61.8188C55.4283 60.2736 55.4612 57.8025 56.9822 56.2994C57.131 56.1525 57.2773 56.0039 57.4193 55.8554C60.6702 52.442 62.2952 48.0702 62.2952 43.6957C62.2952 39.3204 60.6693 34.9486 57.4193 31.5361C57.2773 31.3866 57.131 31.2381 56.9822 31.092C54.3926 28.5454 51.206 26.9229 47.8511 26.2246V43.6957C47.8511 45.8576 46.1264 47.6098 43.9992 47.6098C41.8719 47.6098 40.1472 45.8576 40.1472 43.6957V26.2246C36.7923 26.9229 33.6057 28.5454 31.0161 31.092C30.8673 31.2389 30.721 31.3875 30.579 31.5361C27.3281 34.9494 25.7031 39.3213 25.7031 43.6957C25.7031 48.071 27.3281 52.4429 30.579 55.8554C30.721 56.0048 30.8673 56.1525 31.0161 56.2994H31.0178Z" fill="#1E6AC6"/>
<path d="M40.5 78.5005V57.2505C40.5 56.2559 40.8951 55.3021 41.5983 54.5988C42.3016 53.8956 43.2554 53.5005 44.25 53.5005C45.2446 53.5005 46.1984 53.8956 46.9017 54.5988C47.6049 55.3021 48 56.2559 48 57.2505V76.0005M48 74.7505V69.7505C48 68.7559 48.3951 67.8021 49.0983 67.0988C49.8016 66.3956 50.7554 66.0005 51.75 66.0005C52.7446 66.0005 53.6984 66.3956 54.4017 67.0988C55.1049 67.8021 55.5 68.7559 55.5 69.7505V76.0005M55.5 72.2505C55.5 71.2559 55.8951 70.3021 56.5983 69.5988C57.3016 68.8956 58.2554 68.5005 59.25 68.5005C60.2446 68.5005 61.1984 68.8956 61.9016 69.5988C62.6049 70.3021 63 71.2559 63 72.2505V76.0005" stroke="#179F0C" stroke-width="3" stroke-linecap="round" stroke-linejoin="round"/>
<path d="M62.9995 74.7505C62.9995 73.7559 63.3946 72.8021 64.0978 72.0988C64.8011 71.3956 65.7549 71.0005 66.7495 71.0005C67.744 71.0005 68.6979 71.3956 69.4011 72.0988C70.1044 72.8021 70.4995 73.7559 70.4995 74.7505V86.0005C70.4995 89.9787 68.9191 93.794 66.1061 96.6071C63.293 99.4201 59.4777 101 55.4995 101H50.4995H51.0195C48.5353 101.001 46.0899 100.384 43.9029 99.2062C41.7159 98.028 39.8558 96.3252 38.4895 94.2505L37.9995 93.5005C37.2195 92.303 34.482 87.5305 29.7845 79.1805C29.3056 78.3293 29.1777 77.3249 29.4279 76.3809C29.6782 75.4368 30.2869 74.6277 31.1245 74.1255C32.0167 73.5902 33.0622 73.3683 34.0949 73.4951C35.1276 73.6219 36.0883 74.0902 36.8245 74.8255L40.4995 78.5005" stroke="#179F0C" stroke-width="3" stroke-linecap="round" stroke-linejoin="round"/>
<path d="M74.9162 60.4074C77.7868 54.9983 79.188 48.9306 78.9798 42.8105C78.7716 36.6904 76.9613 30.732 73.7297 25.5304C70.4981 20.3288 65.9584 16.0661 60.5639 13.1681C55.1694 10.27 49.109 8.83804 42.9879 9.01513C36.8668 9.19221 30.8992 10.9722 25.6813 14.1773C20.4634 17.3823 16.1777 21.9003 13.2522 27.28C10.3268 32.6597 8.86398 38.7128 9.00994 44.8347C9.15591 50.9567 10.9055 56.9332 14.084 62.1673L16.7937 60.5218C13.9031 55.7618 12.312 50.3266 12.1792 44.7592C12.0465 39.1917 13.3768 33.6869 16.0372 28.7945C18.6977 23.9021 22.5952 19.7933 27.3405 16.8785C32.0858 13.9638 37.5129 12.345 43.0795 12.184C48.6462 12.0229 54.1577 13.3252 59.0636 15.9608C63.9695 18.5963 68.098 22.4729 71.0369 27.2033C73.9758 31.9338 75.6221 37.3525 75.8114 42.9183C76.0008 48.4841 74.7265 54.0021 72.1159 58.9214L74.9162 60.4074Z" fill="url(#paint0_linear_287_314)"/>
<path d="M82.8661 64.6264C86.4748 57.8263 88.2363 50.1984 87.9746 42.5045C87.7128 34.8106 85.437 27.3201 81.3745 20.7809C77.312 14.2418 71.6049 8.88303 64.8232 5.23976C58.0416 1.59649 50.4227 -0.203732 42.7276 0.0188899C35.0325 0.241512 27.5305 2.47919 20.9708 6.50843C14.4111 10.5377 9.02334 16.2174 5.34564 22.9805C1.66794 29.7435 -0.170995 37.3531 0.012501 45.0493C0.195997 52.7454 2.3955 60.2587 6.39134 66.8388L10.1505 64.556C6.55411 58.6336 4.57445 51.8713 4.4093 44.9444C4.24415 38.0176 5.89927 31.1686 9.20936 25.0816C12.5195 18.9945 17.3687 13.8825 23.2727 10.256C29.1767 6.62948 35.9288 4.61547 42.8548 4.4151C49.7807 4.21473 56.638 5.83501 62.7418 9.11411C68.8456 12.3932 73.9822 17.2164 77.6387 23.1019C81.2952 28.9874 83.3435 35.7292 83.5791 42.654C83.8146 49.5789 82.2292 56.4443 78.9812 62.5647L82.8661 64.6264Z" fill="url(#paint1_linear_287_314)"/>
<defs>
<linearGradient id="paint0_linear_287_314" x1="45" y1="64.0005" x2="44" y2="0.000485728" gradientUnits="userSpaceOnUse">
<stop offset="0.0001" stop-color="#9FCBFF"/>
<stop offset="0.0002" stop-color="#499CFF" stop-opacity="0"/>
<stop offset="1" stop-color="#A1CAFB"/>
</linearGradient>
<linearGradient id="paint1_linear_287_314" x1="44" y1="71.0291" x2="44" y2="-11.3138" gradientUnits="userSpaceOnUse">
<stop stop-color="#499CFF"/>
<stop offset="0.0001" stop-color="#E8F2FF"/>
<stop offset="1" stop-color="#7AB6FF"/>
</linearGradient>
</defs>
</svg>
