<svg width="1920" height="2087" viewBox="0 0 1920 2087" fill="none" xmlns="http://www.w3.org/2000/svg">
<g clip-path="url(#clip0_125_799)">
<rect width="1920" height="2087" fill="url(#paint0_linear_125_799)"/>
<path opacity="0.36" d="M-17.4359 758.434C-30.188 745.68 -30.188 725.001 -17.4359 712.261L243.256 451.566C256.009 438.811 276.684 438.811 289.436 451.566C302.188 464.32 302.188 484.999 289.436 497.739L28.7286 758.434C15.9766 771.189 -4.69883 771.189 -17.4509 758.434H-17.4359Z" fill="url(#paint1_radial_125_799)"/>
<path d="M127.139 489.859C125.277 487.997 122.258 487.997 120.396 489.859C118.534 491.721 118.534 494.74 120.396 496.602C122.258 498.464 125.277 498.464 127.139 496.602C129.001 494.74 129.001 491.721 127.139 489.859Z" fill="white" fill-opacity="0.5"/>
<path d="M157.009 459.988C155.147 458.126 152.129 458.126 150.267 459.988C148.405 461.85 148.405 464.869 150.267 466.731C152.129 468.593 155.147 468.593 157.009 466.731C158.871 464.869 158.871 461.85 157.009 459.988Z" fill="white" fill-opacity="0.5"/>
<path d="M186.86 430.117C184.998 428.255 181.979 428.255 180.117 430.117C178.255 431.979 178.255 434.998 180.117 436.86C181.979 438.722 184.998 438.722 186.86 436.86C188.722 434.998 188.722 431.979 186.86 430.117Z" fill="white" fill-opacity="0.5"/>
<path d="M216.73 400.268C214.868 398.406 211.85 398.406 209.988 400.268C208.126 402.13 208.126 405.148 209.988 407.01C211.85 408.872 214.868 408.872 216.73 407.01C218.592 405.148 218.592 402.13 216.73 400.268Z" fill="white" fill-opacity="0.5"/>
<path d="M239.858 377.139C241.72 379.001 244.739 379.001 246.601 377.139C248.463 375.277 248.463 372.258 246.601 370.396C244.739 368.534 241.72 368.534 239.858 370.396C237.996 372.258 237.996 375.277 239.858 377.139Z" fill="white" fill-opacity="0.5"/>
<path style="mix-blend-mode:overlay" d="M1061.14 -205.016C1063.96 -202.194 1063.96 -197.607 1061.14 -194.765L729.17 137.2C726.348 140.022 721.762 140.022 718.92 137.2C716.097 134.378 716.097 129.791 718.92 126.949L1050.88 -205.016C1053.71 -207.838 1058.29 -207.838 1061.14 -205.016Z" fill="url(#paint2_linear_125_799)"/>
<path opacity="0.36" d="M1027.35 -95.8435C1035.62 -87.5723 1035.62 -74.1463 1027.35 -65.8751L857.982 103.391C849.711 111.662 836.285 111.662 828.014 103.391C819.743 95.1193 819.743 81.6934 828.014 73.4222L997.377 -95.8435C1005.65 -104.115 1019.07 -104.115 1027.35 -95.8435Z" fill="url(#paint3_radial_125_799)"/>
<path d="M1920 96H0V1607H1920V96Z" fill="url(#paint4_linear_125_799)"/>
<g opacity="0.6">
<path d="M1468.69 434.518L1231.08 370.693" stroke="#1E6AC6" stroke-opacity="0.6" stroke-width="8.4" stroke-linecap="round"/>
<path d="M1167.71 353.674L1159.79 351.546" stroke="#179F0C" stroke-opacity="0.6" stroke-width="8.4" stroke-linecap="round"/>
<path d="M1068.9 658.316L1029.3 647.679" stroke="#179F0C" stroke-opacity="0.6" stroke-width="8.4" stroke-linecap="round"/>
<path d="M983.777 406.17L960.016 399.787" stroke="#179F0C" stroke-opacity="0.6" stroke-width="8.4" stroke-linecap="round"/>
<path d="M1046.91 550.506L1035.59 547.467" stroke="#179F0C" stroke-opacity="0.6" stroke-width="8.4" stroke-linecap="round"/>
<path d="M1292.67 489.139L1070.9 429.569" stroke="#1E6AC6" stroke-opacity="0.6" stroke-width="8.4" stroke-linecap="round"/>
<path d="M1244.92 603.693L1110.27 567.526" stroke="#1E6AC6" stroke-opacity="0.6" stroke-width="8.4" stroke-linecap="round"/>
<path d="M1274.83 713.629L1140.18 677.462" stroke="#1E6AC6" stroke-opacity="0.6" stroke-width="8.4" stroke-linecap="round"/>
<path d="M1298.69 688.609C1307.54 703.75 1302.55 723.394 1287.54 732.485C1272.54 741.578 1253.2 736.675 1244.36 721.534C1243.19 719.558 1242.06 717.556 1240.97 715.556C1214.16 666.312 1208.94 611.178 1222.4 561.088C1235.85 510.997 1267.99 465.897 1315.87 436.716C1317.82 435.532 1319.8 434.365 1321.79 433.238C1372.67 404.469 1430.55 398.799 1482.99 412.885C1535.44 426.973 1582.69 460.881 1612.3 511.27C1613.47 513.246 1614.59 515.248 1615.69 517.249C1642.5 566.492 1647.71 621.626 1634.26 671.717C1620.81 721.807 1588.67 766.908 1540.79 796.088C1538.84 797.279 1536.86 798.44 1534.86 799.566C1519.62 808.235 1500.43 802.79 1492 787.404C1483.58 772.019 1489.09 752.517 1504.34 743.848C1505.83 743.001 1507.3 742.136 1508.75 741.261C1541.76 721.142 1563.93 689.972 1573.23 655.325C1582.54 620.671 1578.97 582.585 1560.48 548.642C1559.68 547.156 1558.84 545.668 1557.97 544.195C1542.87 518.515 1521.09 498.885 1496 486.216L1458.83 624.595C1454.23 641.718 1436.84 651.927 1419.99 647.401C1403.15 642.876 1393.21 625.328 1397.81 608.205L1434.98 469.826C1406.92 468.22 1378.23 474.291 1352.3 488.952C1350.81 489.799 1349.34 490.665 1347.9 491.54C1314.89 511.658 1292.72 542.828 1283.41 577.476C1274.1 612.13 1277.67 650.214 1296.16 684.159C1296.97 685.644 1297.81 687.126 1298.68 688.606L1298.69 688.609Z" fill="#1E6AC6" fill-opacity="0.9"/>
</g>
<path opacity="0.94" d="M1880.69 285.376C2040.68 285.376 2170.38 155.683 2170.38 -4.31199C2170.38 -164.307 2040.68 -294 1880.69 -294C1720.69 -294 1591 -164.307 1591 -4.31199C1591 155.683 1720.69 285.376 1880.69 285.376ZM1880.69 -179.242C1977.3 -179.242 2055.62 -100.92 2055.62 -4.31199C2055.62 92.2964 1977.3 170.618 1880.69 170.618C1784.08 170.618 1705.76 92.2964 1705.76 -4.31199C1705.76 -100.92 1784.08 -179.242 1880.69 -179.242Z" fill="url(#paint5_radial_125_799)"/>
<path opacity="0.94" d="M45.9999 -363C-239.539 -363 -471 -131.539 -471 154C-471 439.539 -239.539 671 45.9999 671C331.539 671 563 439.539 563 154C563 -131.539 331.539 -363 45.9999 -363ZM45.9999 466.194C-126.415 466.194 -266.194 326.415 -266.194 154C-266.194 -18.415 -126.415 -158.194 45.9999 -158.194C218.415 -158.194 358.194 -18.415 358.194 154C358.194 326.415 218.415 466.194 45.9999 466.194Z" fill="url(#paint6_radial_125_799)"/>
<path d="M320.569 207.546L261.691 148.668C210.731 197.001 130.273 196.217 80.3125 146.257C30.3521 96.2964 29.5877 15.8383 77.9017 -35.1217L19.0233 -94C-61.8071 -10.5432 -61.0035 122.639 21.4537 205.116C103.911 287.573 237.093 288.376 320.569 207.546Z" fill="url(#paint7_radial_125_799)" fill-opacity="0.2"/>
<g clip-path="url(#clip1_125_799)" filter="url(#filter0_d_125_799)">
<rect width="1920" height="477" transform="translate(0 1607)" fill="#001447"/>
<path opacity="0.36" d="M1970.71 1850.38C1987.1 1866.89 1987.1 1893.66 1970.71 1910.15L1635.65 2247.62C1619.26 2264.13 1592.68 2264.13 1576.29 2247.62C1559.9 2231.11 1559.9 2204.34 1576.29 2187.85L1911.35 1850.38C1927.74 1833.87 1954.32 1833.87 1970.69 1850.38H1970.71Z" fill="url(#paint8_radial_125_799)"/>
<path d="M1159.62 2027.21L1046.21 2140.62C1046.39 2140.8 1046.55 2140.99 1046.72 2141.17C1046.9 2141.35 1047.1 2141.5 1047.27 2141.68L1160.68 2028.27C1160.5 2028.1 1160.34 2027.9 1160.17 2027.72C1159.99 2027.55 1159.8 2027.39 1159.62 2027.21Z" fill="#FF9149"/>
<path d="M1071.42 2157.97C1071.91 2158.18 1072.4 2158.4 1072.91 2158.61L1177.63 2053.89C1177.44 2053.4 1177.2 2052.91 1176.99 2052.4L1071.42 2157.97Z" fill="#FF9149"/>
<path d="M1051.74 2145.72C1052.13 2146.05 1052.51 2146.38 1052.9 2146.7L1165.72 2033.88C1165.4 2033.49 1165.07 2033.11 1164.74 2032.72L1051.74 2145.72Z" fill="#FF9149"/>
<path d="M1057.76 2150.34C1058.17 2150.64 1058.58 2150.93 1059.01 2151.22L1170.22 2040.01C1169.95 2039.58 1169.64 2039.17 1169.34 2038.76L1057.74 2150.36L1057.76 2150.34Z" fill="#FF9149"/>
<path d="M1079.14 2160.87C1079.67 2161.04 1080.22 2161.22 1080.75 2161.38L1180.38 2061.75C1180.22 2061.2 1180.04 2060.67 1179.87 2060.14L1079.14 2160.87Z" fill="#FF9149"/>
<path d="M1064.3 2154.44C1064.76 2154.69 1065.21 2154.95 1065.68 2155.2L1174.22 2046.66C1173.97 2046.21 1173.71 2045.76 1173.46 2045.29L1064.3 2154.44Z" fill="#FF9149"/>
<path d="M1099.53 2004.32C1098.76 2004.36 1098 2004.42 1097.23 2004.48L1023.52 2078.19C1023.46 2078.96 1023.4 2079.72 1023.36 2080.49L1099.55 2004.3L1099.53 2004.32Z" fill="#FF9149"/>
<path d="M1183.51 2079.9C1183.47 2079.23 1183.41 2078.57 1183.37 2077.92L1096.94 2164.36C1097.61 2164.41 1098.25 2164.45 1098.92 2164.49L1183.51 2079.9Z" fill="#FF9149"/>
<path d="M1025.48 2065.59C1025.26 2066.49 1025.07 2067.41 1024.89 2068.32L1087.33 2005.87C1086.43 2006.05 1085.51 2006.24 1084.61 2006.46L1025.48 2065.59Z" fill="#FF9149"/>
<path d="M1087.59 2163.06C1088.18 2163.18 1088.79 2163.28 1089.39 2163.4L1182.39 2070.39C1182.3 2069.79 1182.18 2069.2 1182.06 2068.59L1087.59 2163.06Z" fill="#FF9149"/>
<path d="M1031.55 2048.89C1030.91 2050.19 1030.3 2051.52 1029.73 2052.83L1071.85 2010.71C1070.52 2011.28 1069.2 2011.89 1067.91 2012.53L1031.55 2048.89Z" fill="#FF9149"/>
<path d="M1023.38 2088.97C1023.42 2089.64 1023.48 2090.31 1023.52 2090.95L1109.95 2004.52C1109.29 2004.46 1108.62 2004.42 1107.97 2004.38L1023.38 2088.97Z" fill="#FF9149"/>
<path d="M1024.5 2098.5C1024.6 2099.11 1024.71 2099.7 1024.83 2100.3L1119.3 2005.83C1118.71 2005.71 1118.11 2005.62 1117.5 2005.5L1024.5 2098.5Z" fill="#FF9149"/>
<path d="M1119.56 2163C1120.46 2162.83 1121.38 2162.63 1122.28 2162.42L1181.41 2103.28C1181.63 2102.38 1181.83 2101.48 1182 2100.56L1119.56 2163Z" fill="#FF9149"/>
<path d="M1041.18 2134.99C1041.49 2135.39 1041.82 2135.76 1042.16 2136.15L1155.15 2023.16C1154.76 2022.82 1154.39 2022.49 1153.99 2022.18L1041.18 2134.99Z" fill="#FF9149"/>
<path d="M1107.39 2164.53C1108.15 2164.49 1108.91 2164.43 1109.68 2164.38L1183.39 2090.66C1183.45 2089.9 1183.51 2089.13 1183.55 2088.37L1107.37 2164.55L1107.39 2164.53Z" fill="#FF9149"/>
<path d="M1175.34 2119.98C1175.99 2118.69 1176.59 2117.35 1177.16 2116.04L1135.04 2158.16C1136.37 2157.59 1137.69 2156.99 1138.98 2156.34L1175.34 2119.98Z" fill="#FF9149"/>
<path d="M1036.67 2128.88C1036.94 2129.31 1037.26 2129.72 1037.55 2130.13L1149.15 2018.53C1148.74 2018.24 1148.33 2017.94 1147.9 2017.65L1036.69 2128.86L1036.67 2128.88Z" fill="#FF9149"/>
<path d="M1032.69 2122.22C1032.93 2122.67 1033.2 2123.12 1033.45 2123.59L1142.61 2014.44C1142.16 2014.18 1141.71 2013.93 1141.23 2013.67L1032.69 2122.22Z" fill="#FF9149"/>
<path d="M1026.52 2107.12C1026.67 2107.67 1026.85 2108.2 1027.03 2108.73L1127.75 2008.01C1127.22 2007.83 1126.67 2007.65 1126.14 2007.5L1026.52 2107.12Z" fill="#FF9149"/>
<path d="M1029.28 2114.98C1029.48 2115.47 1029.71 2115.96 1029.93 2116.47L1135.49 2010.91C1135 2010.69 1134.51 2010.48 1134 2010.26L1029.28 2114.98Z" fill="#FF9149"/>
<path d="M1371.02 1735.02C1416.49 1689.54 1416.49 1615.81 1371.02 1570.34C1325.54 1524.86 1251.82 1524.86 1206.34 1570.34C1160.86 1615.81 1160.86 1689.54 1206.34 1735.02C1251.82 1780.49 1325.54 1780.49 1371.02 1735.02Z" fill="url(#paint9_radial_125_799)" fill-opacity="0.3"/>
<path opacity="0.94" d="M301.567 1286.49C153.78 1201.17 -35.184 1251.8 -120.509 1399.59C-205.835 1547.37 -155.202 1736.34 -7.41427 1821.66C140.374 1906.99 329.337 1856.36 414.662 1708.57C499.988 1560.78 449.355 1371.82 301.567 1286.49ZM53.7862 1715.66C-35.4513 1664.14 -66.0283 1550.02 -14.507 1460.79C37.0144 1371.55 151.129 1340.97 240.367 1392.49C329.604 1444.01 360.181 1558.13 308.66 1647.37C257.139 1736.6 143.024 1767.18 53.7862 1715.66Z" fill="url(#paint10_radial_125_799)"/>
<path d="M40.1389 1861.01C38.2769 1859.15 35.2585 1859.15 33.3965 1861.01C31.5345 1862.87 31.5345 1865.89 33.3965 1867.75C35.2585 1869.62 38.2769 1869.62 40.1389 1867.75C42.0009 1865.89 42.0009 1862.87 40.1389 1861.01Z" fill="white"/>
<path d="M70.009 1831.14C68.147 1829.28 65.1286 1829.28 63.2666 1831.14C61.4046 1833 61.4046 1836.02 63.2666 1837.88C65.1286 1839.75 68.147 1839.75 70.009 1837.88C71.871 1836.02 71.871 1833 70.009 1831.14Z" fill="white"/>
<path d="M99.8596 1801.27C97.9976 1799.41 94.9792 1799.41 93.1172 1801.27C91.2552 1803.13 91.2552 1806.15 93.1172 1808.01C94.9792 1809.87 97.9976 1809.87 99.8596 1808.01C101.722 1806.15 101.722 1803.13 99.8596 1801.27Z" fill="white"/>
<path d="M129.731 1771.42C127.869 1769.56 124.85 1769.56 122.988 1771.42C121.126 1773.28 121.126 1776.3 122.988 1778.16C124.85 1780.02 127.869 1780.02 129.731 1778.16C131.593 1776.3 131.593 1773.28 129.731 1771.42Z" fill="white"/>
<path d="M152.859 1748.29C154.721 1750.15 157.739 1750.15 159.601 1748.29C161.463 1746.43 161.463 1743.41 159.601 1741.55C157.739 1739.69 154.721 1739.69 152.859 1741.55C150.997 1743.41 150.997 1746.43 152.859 1748.29Z" fill="white"/>
</g>
<path d="M1917.78 1231.57C1920.6 1234.39 1920.6 1238.97 1917.78 1241.82L1585.82 1573.78C1582.99 1576.6 1578.41 1576.6 1575.57 1573.78C1572.74 1570.96 1572.74 1566.37 1575.57 1563.53L1907.53 1231.57C1910.35 1228.74 1914.94 1228.74 1917.78 1231.57Z" fill="url(#paint11_linear_125_799)" style="mix-blend-mode:overlay"/>
</g>
<defs>
<filter id="filter0_d_125_799" x="-30" y="1581" width="1980" height="537" filterUnits="userSpaceOnUse" color-interpolation-filters="sRGB">
<feFlood flood-opacity="0" result="BackgroundImageFix"/>
<feColorMatrix in="SourceAlpha" type="matrix" values="0 0 0 0 0 0 0 0 0 0 0 0 0 0 0 0 0 0 127 0" result="hardAlpha"/>
<feOffset dy="4"/>
<feGaussianBlur stdDeviation="15"/>
<feComposite in2="hardAlpha" operator="out"/>
<feColorMatrix type="matrix" values="0 0 0 0 0.0862745 0 0 0 0 0.498039 0 0 0 0 0.988235 0 0 0 1 0"/>
<feBlend mode="normal" in2="BackgroundImageFix" result="effect1_dropShadow_125_799"/>
<feBlend mode="normal" in="SourceGraphic" in2="effect1_dropShadow_125_799" result="shape"/>
</filter>
<linearGradient id="paint0_linear_125_799" x1="960" y1="0" x2="960" y2="2087" gradientUnits="userSpaceOnUse">
<stop offset="0.729167" stop-color="#01164E"/>
<stop offset="1" stop-color="#092E9C"/>
</linearGradient>
<radialGradient id="paint1_radial_125_799" cx="0" cy="0" r="1" gradientUnits="userSpaceOnUse" gradientTransform="translate(346.116 409.559) rotate(45.0153) scale(981.917 981.917)">
<stop stop-color="#5BC7CE"/>
<stop offset="0.11" stop-color="#4198C0"/>
<stop offset="0.23" stop-color="#296BB3"/>
<stop offset="0.34" stop-color="#184AAA"/>
<stop offset="0.43" stop-color="#0D37A5"/>
<stop offset="0.49" stop-color="#0A30A3"/>
<stop offset="1" stop-color="#00152A"/>
</radialGradient>
<linearGradient id="paint2_linear_125_799" x1="948.22" y1="-104.742" x2="748.261" y2="138.69" gradientUnits="userSpaceOnUse">
<stop offset="0.17" stop-color="#0A30A3"/>
<stop offset="1" stop-color="white"/>
</linearGradient>
<radialGradient id="paint3_radial_125_799" cx="0" cy="0" r="1" gradientUnits="userSpaceOnUse" gradientTransform="translate(785.444 139.836) rotate(-134.97) scale(637.568 637.568)">
<stop stop-color="#5BC7CE"/>
<stop offset="0.11" stop-color="#4198C0"/>
<stop offset="0.23" stop-color="#296BB3"/>
<stop offset="0.34" stop-color="#184AAA"/>
<stop offset="0.43" stop-color="#0D37A5"/>
<stop offset="0.49" stop-color="#0A30A3"/>
<stop offset="1" stop-color="#00152A"/>
</radialGradient>
<linearGradient id="paint4_linear_125_799" x1="0" y1="96" x2="2151.67" y2="582.609" gradientUnits="userSpaceOnUse">
<stop stop-color="#0A30A3"/>
<stop offset="0.585704" stop-color="#001447"/>
</linearGradient>
<radialGradient id="paint5_radial_125_799" cx="0" cy="0" r="1" gradientUnits="userSpaceOnUse" gradientTransform="translate(1782.1 220.461) scale(758.657 758.657)">
<stop stop-color="#0A30A3"/>
<stop offset="1" stop-color="#00152A"/>
</radialGradient>
<radialGradient id="paint6_radial_125_799" cx="0" cy="0" r="1" gradientUnits="userSpaceOnUse" gradientTransform="translate(115.924 -276.705) scale(1072.69)">
<stop stop-color="#0A30A3"/>
<stop offset="1" stop-color="#00152A"/>
</radialGradient>
<radialGradient id="paint7_radial_125_799" cx="0" cy="0" r="1" gradientUnits="userSpaceOnUse" gradientTransform="translate(2.17745 -82.2781) rotate(-45) scale(1433.13)">
<stop stop-color="#5BC7CE"/>
<stop offset="0.11" stop-color="#4198C0"/>
<stop offset="0.23" stop-color="#296BB3"/>
<stop offset="0.34" stop-color="#184AAA"/>
<stop offset="0.43" stop-color="#0D37A5"/>
<stop offset="0.49" stop-color="#0A30A3"/>
<stop offset="1" stop-color="#00152A"/>
</radialGradient>
<radialGradient id="paint8_radial_125_799" cx="0" cy="0" r="1" gradientUnits="userSpaceOnUse" gradientTransform="translate(1488.07 2305.33) rotate(-134.78) scale(1266.56 1266.53)">
<stop stop-color="#5BC7CE"/>
<stop offset="0.11" stop-color="#4198C0"/>
<stop offset="0.23" stop-color="#296BB3"/>
<stop offset="0.34" stop-color="#184AAA"/>
<stop offset="0.43" stop-color="#0D37A5"/>
<stop offset="0.49" stop-color="#0A30A3"/>
<stop offset="1" stop-color="#00152A"/>
</radialGradient>
<radialGradient id="paint9_radial_125_799" cx="0" cy="0" r="1" gradientUnits="userSpaceOnUse" gradientTransform="translate(1021.33 1846.71) rotate(-180) scale(801.052)">
<stop stop-color="#5BC7CE"/>
<stop offset="0.11" stop-color="#4198C0"/>
<stop offset="0.23" stop-color="#296BB3"/>
<stop offset="0.34" stop-color="#184AAA"/>
<stop offset="0.43" stop-color="#0D37A5"/>
<stop offset="0.49" stop-color="#0A30A3"/>
<stop offset="1" stop-color="#00152A"/>
</radialGradient>
<radialGradient id="paint10_radial_125_799" cx="0" cy="0" r="1" gradientUnits="userSpaceOnUse" gradientTransform="translate(311.972 1352.05) rotate(30) scale(641.084)">
<stop stop-color="#0A30A3"/>
<stop offset="1" stop-color="#00152A"/>
</radialGradient>
<linearGradient id="paint11_linear_125_799" x1="1595.95" y1="1575.45" x2="1813.95" y2="1362.95" gradientUnits="userSpaceOnUse">
<stop stop-color="#0A30A3" stop-opacity="0.31"/>
<stop offset="1" stop-color="white" stop-opacity="0"/>
</linearGradient>
<clipPath id="clip0_125_799">
<rect width="1920" height="2087" fill="white"/>
</clipPath>
<clipPath id="clip1_125_799">
<rect width="1920" height="477" fill="white" transform="translate(0 1607)"/>
</clipPath>
</defs>
</svg>
