<svg width="1920" height="1489" viewBox="0 0 1920 1489" fill="none" xmlns="http://www.w3.org/2000/svg">
<g clip-path="url(#clip0_114_812)">
<rect width="1920" height="1489" fill="url(#paint0_linear_114_812)"/>
<path opacity="0.36" d="M-17.4359 758.434C-30.188 745.68 -30.188 725.001 -17.4359 712.261L243.256 451.566C256.009 438.811 276.684 438.811 289.436 451.566C302.188 464.32 302.188 484.999 289.436 497.739L28.7286 758.434C15.9766 771.189 -4.69883 771.189 -17.4509 758.434H-17.4359Z" fill="url(#paint1_radial_114_812)"/>
<path d="M127.139 489.858C125.277 487.996 122.258 487.996 120.396 489.858C118.534 491.72 118.534 494.739 120.396 496.601C122.258 498.463 125.277 498.463 127.139 496.601C129.001 494.739 129.001 491.72 127.139 489.858Z" fill="white" fill-opacity="0.5"/>
<path d="M157.01 459.988C155.148 458.126 152.13 458.126 150.268 459.988C148.406 461.85 148.406 464.869 150.268 466.731C152.13 468.593 155.148 468.593 157.01 466.731C158.872 464.869 158.872 461.85 157.01 459.988Z" fill="white" fill-opacity="0.5"/>
<path d="M186.86 430.117C184.998 428.255 181.979 428.255 180.117 430.117C178.255 431.979 178.255 434.998 180.117 436.86C181.979 438.722 184.998 438.722 186.86 436.86C188.722 434.998 188.722 431.979 186.86 430.117Z" fill="white" fill-opacity="0.5"/>
<path d="M216.731 400.267C214.869 398.405 211.85 398.405 209.988 400.267C208.126 402.129 208.126 405.147 209.988 407.009C211.85 408.871 214.869 408.871 216.731 407.009C218.593 405.147 218.593 402.129 216.731 400.267Z" fill="white" fill-opacity="0.5"/>
<path d="M239.859 377.139C241.721 379.001 244.74 379.001 246.602 377.139C248.464 375.277 248.464 372.258 246.602 370.396C244.74 368.534 241.721 368.534 239.859 370.396C237.997 372.258 237.997 375.277 239.859 377.139Z" fill="white" fill-opacity="0.5"/>
<path style="mix-blend-mode:overlay" d="M1061.14 -205.016C1063.96 -202.194 1063.96 -197.607 1061.14 -194.765L729.17 137.2C726.348 140.022 721.762 140.022 718.92 137.2C716.097 134.378 716.097 129.791 718.92 126.949L1050.88 -205.016C1053.71 -207.838 1058.29 -207.838 1061.14 -205.016Z" fill="url(#paint2_linear_114_812)"/>
<path opacity="0.36" d="M1027.35 -95.8435C1035.62 -87.5723 1035.62 -74.1463 1027.35 -65.8751L857.982 103.391C849.711 111.662 836.285 111.662 828.014 103.391C819.743 95.1193 819.743 81.6934 828.014 73.4222L997.377 -95.8435C1005.65 -104.115 1019.07 -104.115 1027.35 -95.8435Z" fill="url(#paint3_radial_114_812)"/>
<path d="M1920 96H0V1009H1920V96Z" fill="url(#paint4_linear_114_812)"/>
<g opacity="0.6">
<path d="M1505.5 434.518L1267.89 370.693" stroke="#1E6AC6" stroke-opacity="0.6" stroke-width="8.4" stroke-linecap="round"/>
<path d="M1204.52 353.673L1196.6 351.545" stroke="#179F0C" stroke-opacity="0.6" stroke-width="8.4" stroke-linecap="round"/>
<path d="M1105.71 658.315L1066.11 647.678" stroke="#179F0C" stroke-opacity="0.6" stroke-width="8.4" stroke-linecap="round"/>
<path d="M1020.59 406.169L996.825 399.787" stroke="#179F0C" stroke-opacity="0.6" stroke-width="8.4" stroke-linecap="round"/>
<path d="M1083.71 550.505L1072.4 547.466" stroke="#179F0C" stroke-opacity="0.6" stroke-width="8.4" stroke-linecap="round"/>
<path d="M1329.48 489.14L1107.71 429.57" stroke="#1E6AC6" stroke-opacity="0.6" stroke-width="8.4" stroke-linecap="round"/>
<path d="M1281.72 603.692L1147.08 567.525" stroke="#1E6AC6" stroke-opacity="0.6" stroke-width="8.4" stroke-linecap="round"/>
<path d="M1311.64 713.629L1176.99 677.462" stroke="#1E6AC6" stroke-opacity="0.6" stroke-width="8.4" stroke-linecap="round"/>
<path d="M1335.5 688.608C1344.35 703.749 1339.36 723.393 1324.35 732.484C1309.35 741.577 1290.01 736.674 1281.16 721.533C1280 719.557 1278.87 717.555 1277.78 715.555C1250.97 666.311 1245.75 611.177 1259.2 561.087C1272.66 510.996 1304.8 465.896 1352.68 436.715C1354.62 435.531 1356.6 434.364 1358.6 433.237C1409.48 404.468 1467.36 398.798 1519.8 412.884C1572.25 426.972 1619.49 460.88 1649.11 511.27C1650.27 513.245 1651.4 515.248 1652.49 517.248C1679.31 566.491 1684.52 621.626 1671.07 671.716C1657.61 721.806 1625.47 766.907 1577.6 796.087C1575.65 797.278 1573.67 798.439 1571.67 799.565C1556.43 808.234 1537.24 802.789 1528.81 787.403C1520.38 772.018 1525.9 752.516 1541.15 743.847C1542.64 743 1544.11 742.135 1545.55 741.26C1578.56 721.141 1600.74 689.971 1610.04 655.324C1619.35 620.67 1615.77 582.584 1597.29 548.641C1596.49 547.155 1595.64 545.667 1594.78 544.194C1579.68 518.514 1557.89 498.884 1532.81 486.215L1495.64 624.594C1491.04 641.717 1473.65 651.926 1456.8 647.4C1439.95 642.875 1430.02 625.327 1434.62 608.204L1471.79 469.825C1443.73 468.219 1415.04 474.29 1389.11 488.951C1387.62 489.798 1386.15 490.664 1384.71 491.539C1351.7 511.657 1329.52 542.827 1320.22 577.475C1310.91 612.129 1314.48 650.213 1332.97 684.158C1333.77 685.643 1334.62 687.125 1335.48 688.605L1335.5 688.608Z" fill="#1E6AC6" fill-opacity="0.9"/>
</g>
<path opacity="0.94" d="M1880.69 285.376C2040.68 285.376 2170.38 155.683 2170.38 -4.31199C2170.38 -164.307 2040.68 -294 1880.69 -294C1720.69 -294 1591 -164.307 1591 -4.31199C1591 155.683 1720.69 285.376 1880.69 285.376ZM1880.69 -179.242C1977.3 -179.242 2055.62 -100.92 2055.62 -4.31199C2055.62 92.2964 1977.3 170.618 1880.69 170.618C1784.08 170.618 1705.76 92.2964 1705.76 -4.31199C1705.76 -100.92 1784.08 -179.242 1880.69 -179.242Z" fill="url(#paint5_radial_114_812)"/>
<path opacity="0.94" d="M45.9999 -363C-239.539 -363 -471 -131.539 -471 154C-471 439.539 -239.539 671 45.9999 671C331.539 671 563 439.539 563 154C563 -131.539 331.539 -363 45.9999 -363ZM45.9999 466.194C-126.415 466.194 -266.194 326.415 -266.194 154C-266.194 -18.415 -126.415 -158.194 45.9999 -158.194C218.415 -158.194 358.194 -18.415 358.194 154C358.194 326.415 218.415 466.194 45.9999 466.194Z" fill="url(#paint6_radial_114_812)"/>
<path d="M320.57 207.546L261.692 148.668C210.732 197.001 130.274 196.217 80.3135 146.257C30.3531 96.2964 29.5887 15.8383 77.9027 -35.1217L19.0243 -94C-61.8061 -10.5432 -61.0025 122.639 21.4547 205.116C103.912 287.573 237.094 288.376 320.57 207.546Z" fill="url(#paint7_radial_114_812)" fill-opacity="0.2"/>
<path d="M442.139 1010.86C440.277 1009 437.258 1009 435.396 1010.86C433.534 1012.72 433.534 1015.74 435.396 1017.6C437.258 1019.46 440.277 1019.46 442.139 1017.6C444.001 1015.74 444.001 1012.72 442.139 1010.86Z" fill="white" fill-opacity="0.5"/>
<path d="M472.01 980.988C470.148 979.126 467.13 979.126 465.268 980.988C463.406 982.85 463.406 985.869 465.268 987.731C467.13 989.593 470.148 989.593 472.01 987.731C473.872 985.869 473.872 982.85 472.01 980.988Z" fill="white" fill-opacity="0.5"/>
<path d="M501.86 951.117C499.998 949.255 496.979 949.255 495.117 951.117C493.255 952.979 493.255 955.998 495.117 957.86C496.979 959.722 499.998 959.722 501.86 957.86C503.722 955.998 503.722 952.979 501.86 951.117Z" fill="white" fill-opacity="0.5"/>
<path d="M531.731 921.267C529.869 919.405 526.85 919.405 524.988 921.267C523.126 923.129 523.126 926.147 524.988 928.009C526.85 929.871 529.869 929.871 531.731 928.009C533.593 926.147 533.593 923.129 531.731 921.267Z" fill="white" fill-opacity="0.5"/>
<path d="M554.859 898.139C556.721 900.001 559.74 900.001 561.602 898.139C563.464 896.277 563.464 893.258 561.602 891.396C559.74 889.534 556.721 889.534 554.859 891.396C552.997 893.258 552.997 896.277 554.859 898.139Z" fill="white" fill-opacity="0.5"/>
<g clip-path="url(#clip1_114_812)" filter="url(#filter0_d_114_812)">
<rect width="1920" height="477" transform="translate(0 1009)" fill="#001447"/>
<path opacity="0.36" d="M1970.71 1252.38C1987.1 1268.89 1987.1 1295.66 1970.71 1312.15L1635.65 1649.62C1619.26 1666.13 1592.68 1666.13 1576.29 1649.62C1559.9 1633.11 1559.9 1606.34 1576.29 1589.85L1911.35 1252.38C1927.74 1235.87 1954.32 1235.87 1970.69 1252.38H1970.71Z" fill="url(#paint8_radial_114_812)"/>
<path d="M1159.62 1429.21L1046.21 1542.62C1046.39 1542.8 1046.55 1542.99 1046.72 1543.17C1046.9 1543.35 1047.1 1543.5 1047.27 1543.68L1160.68 1430.27C1160.5 1430.1 1160.34 1429.9 1160.17 1429.72C1159.99 1429.55 1159.8 1429.39 1159.62 1429.21Z" fill="#FF9149"/>
<path d="M1071.42 1559.97C1071.91 1560.18 1072.4 1560.4 1072.91 1560.61L1177.63 1455.89C1177.44 1455.4 1177.2 1454.91 1176.99 1454.4L1071.42 1559.97Z" fill="#FF9149"/>
<path d="M1051.74 1547.72C1052.13 1548.05 1052.51 1548.38 1052.9 1548.7L1165.72 1435.88C1165.4 1435.49 1165.07 1435.11 1164.74 1434.72L1051.74 1547.72Z" fill="#FF9149"/>
<path d="M1057.76 1552.34C1058.17 1552.64 1058.58 1552.93 1059.01 1553.22L1170.22 1442.01C1169.95 1441.58 1169.64 1441.17 1169.34 1440.76L1057.74 1552.36L1057.76 1552.34Z" fill="#FF9149"/>
<path d="M1079.14 1562.87C1079.67 1563.04 1080.22 1563.22 1080.75 1563.38L1180.38 1463.75C1180.22 1463.2 1180.04 1462.67 1179.87 1462.14L1079.14 1562.87Z" fill="#FF9149"/>
<path d="M1064.3 1556.44C1064.76 1556.69 1065.21 1556.95 1065.68 1557.2L1174.22 1448.66C1173.97 1448.21 1173.71 1447.76 1173.46 1447.29L1064.3 1556.44Z" fill="#FF9149"/>
<path d="M1099.53 1406.32C1098.76 1406.36 1098 1406.42 1097.23 1406.48L1023.52 1480.19C1023.46 1480.96 1023.4 1481.72 1023.36 1482.49L1099.55 1406.3L1099.53 1406.32Z" fill="#FF9149"/>
<path d="M1183.51 1481.9C1183.47 1481.23 1183.41 1480.57 1183.37 1479.92L1096.94 1566.36C1097.61 1566.41 1098.25 1566.45 1098.92 1566.49L1183.51 1481.9Z" fill="#FF9149"/>
<path d="M1025.48 1467.59C1025.26 1468.49 1025.07 1469.41 1024.89 1470.32L1087.33 1407.87C1086.43 1408.05 1085.51 1408.24 1084.61 1408.46L1025.48 1467.59Z" fill="#FF9149"/>
<path d="M1087.59 1565.06C1088.18 1565.18 1088.79 1565.28 1089.39 1565.4L1182.39 1472.39C1182.3 1471.79 1182.18 1471.2 1182.06 1470.59L1087.59 1565.06Z" fill="#FF9149"/>
<path d="M1031.55 1450.89C1030.91 1452.19 1030.3 1453.52 1029.73 1454.83L1071.85 1412.71C1070.52 1413.28 1069.2 1413.89 1067.91 1414.53L1031.55 1450.89Z" fill="#FF9149"/>
<path d="M1023.38 1490.97C1023.42 1491.64 1023.48 1492.31 1023.52 1492.95L1109.95 1406.52C1109.29 1406.46 1108.62 1406.42 1107.97 1406.38L1023.38 1490.97Z" fill="#FF9149"/>
<path d="M1024.5 1500.5C1024.6 1501.11 1024.71 1501.7 1024.83 1502.3L1119.3 1407.83C1118.71 1407.71 1118.11 1407.62 1117.5 1407.5L1024.5 1500.5Z" fill="#FF9149"/>
<path d="M1119.56 1565C1120.46 1564.83 1121.38 1564.63 1122.28 1564.42L1181.41 1505.28C1181.63 1504.38 1181.83 1503.48 1182 1502.56L1119.56 1565Z" fill="#FF9149"/>
<path d="M1041.18 1536.99C1041.49 1537.39 1041.82 1537.76 1042.16 1538.15L1155.15 1425.16C1154.76 1424.82 1154.39 1424.49 1153.99 1424.18L1041.18 1536.99Z" fill="#FF9149"/>
<path d="M1107.39 1566.53C1108.15 1566.49 1108.91 1566.43 1109.68 1566.38L1183.39 1492.66C1183.45 1491.9 1183.51 1491.13 1183.55 1490.37L1107.37 1566.55L1107.39 1566.53Z" fill="#FF9149"/>
<path d="M1175.34 1521.98C1175.99 1520.69 1176.59 1519.35 1177.16 1518.04L1135.04 1560.16C1136.37 1559.59 1137.69 1558.99 1138.98 1558.34L1175.34 1521.98Z" fill="#FF9149"/>
<path d="M1036.67 1530.88C1036.94 1531.31 1037.26 1531.72 1037.55 1532.13L1149.15 1420.53C1148.74 1420.24 1148.33 1419.94 1147.9 1419.65L1036.69 1530.86L1036.67 1530.88Z" fill="#FF9149"/>
<path d="M1032.69 1524.22C1032.93 1524.67 1033.2 1525.12 1033.45 1525.59L1142.61 1416.44C1142.16 1416.18 1141.71 1415.93 1141.23 1415.67L1032.69 1524.22Z" fill="#FF9149"/>
<path d="M1026.52 1509.12C1026.67 1509.67 1026.85 1510.2 1027.03 1510.73L1127.75 1410.01C1127.22 1409.83 1126.67 1409.65 1126.14 1409.5L1026.52 1509.12Z" fill="#FF9149"/>
<path d="M1029.28 1516.98C1029.48 1517.47 1029.71 1517.96 1029.93 1518.47L1135.49 1412.91C1135 1412.69 1134.51 1412.48 1134 1412.26L1029.28 1516.98Z" fill="#FF9149"/>
<path d="M1371.02 1137.02C1416.49 1091.54 1416.49 1017.81 1371.02 972.34C1325.54 926.865 1251.82 926.865 1206.34 972.34C1160.86 1017.81 1160.86 1091.54 1206.34 1137.02C1251.82 1182.49 1325.54 1182.49 1371.02 1137.02Z" fill="url(#paint9_radial_114_812)" fill-opacity="0.3"/>
<path opacity="0.94" d="M301.566 688.491C153.779 603.165 -35.185 653.798 -120.51 801.586C-205.836 949.374 -155.203 1138.34 -7.41525 1223.66C140.373 1308.99 329.336 1258.36 414.661 1110.57C499.987 962.78 449.354 773.816 301.566 688.491ZM53.7853 1117.66C-35.4523 1066.14 -66.0293 952.024 -14.5079 862.786C37.0134 773.549 151.128 742.972 240.366 794.493C329.603 846.014 360.18 960.129 308.659 1049.37C257.138 1138.6 143.023 1169.18 53.7853 1117.66Z" fill="url(#paint10_radial_114_812)"/>
<path d="M40.1389 1263.01C38.2769 1261.15 35.2585 1261.15 33.3965 1263.01C31.5345 1264.87 31.5345 1267.89 33.3965 1269.75C35.2585 1271.62 38.2769 1271.62 40.1389 1269.75C42.0009 1267.89 42.0009 1264.87 40.1389 1263.01Z" fill="white"/>
<path d="M70.01 1233.14C68.148 1231.28 65.1296 1231.28 63.2676 1233.14C61.4056 1235 61.4056 1238.02 63.2676 1239.88C65.1296 1241.75 68.148 1241.75 70.01 1239.88C71.872 1238.02 71.872 1235 70.01 1233.14Z" fill="white"/>
<path d="M99.8596 1203.27C97.9976 1201.41 94.9792 1201.41 93.1172 1203.27C91.2552 1205.13 91.2552 1208.15 93.1172 1210.01C94.9792 1211.87 97.9976 1211.87 99.8596 1210.01C101.722 1208.15 101.722 1205.13 99.8596 1203.27Z" fill="white"/>
<path d="M129.731 1173.42C127.869 1171.56 124.85 1171.56 122.988 1173.42C121.126 1175.28 121.126 1178.3 122.988 1180.16C124.85 1182.02 127.869 1182.02 129.731 1180.16C131.593 1178.3 131.593 1175.28 129.731 1173.42Z" fill="white"/>
<path d="M152.859 1150.29C154.721 1152.15 157.74 1152.15 159.602 1150.29C161.464 1148.43 161.464 1145.41 159.602 1143.55C157.74 1141.69 154.721 1141.69 152.859 1143.55C150.997 1145.41 150.997 1148.43 152.859 1150.29Z" fill="white"/>
</g>
<path d="M1917.78 1231.57C1920.6 1234.39 1920.6 1238.98 1917.78 1241.82L1585.82 1573.78C1582.99 1576.61 1578.41 1576.61 1575.57 1573.78C1572.74 1570.96 1572.74 1566.37 1575.57 1563.53L1907.53 1231.57C1910.35 1228.74 1914.94 1228.74 1917.78 1231.57Z" fill="url(#paint11_linear_114_812)" style="mix-blend-mode:overlay"/>
</g>
<defs>
<filter id="filter0_d_114_812" x="-30" y="983" width="1980" height="537" filterUnits="userSpaceOnUse" color-interpolation-filters="sRGB">
<feFlood flood-opacity="0" result="BackgroundImageFix"/>
<feColorMatrix in="SourceAlpha" type="matrix" values="0 0 0 0 0 0 0 0 0 0 0 0 0 0 0 0 0 0 127 0" result="hardAlpha"/>
<feOffset dy="4"/>
<feGaussianBlur stdDeviation="15"/>
<feComposite in2="hardAlpha" operator="out"/>
<feColorMatrix type="matrix" values="0 0 0 0 0.0862745 0 0 0 0 0.498039 0 0 0 0 0.988235 0 0 0 1 0"/>
<feBlend mode="normal" in2="BackgroundImageFix" result="effect1_dropShadow_114_812"/>
<feBlend mode="normal" in="SourceGraphic" in2="effect1_dropShadow_114_812" result="shape"/>
</filter>
<linearGradient id="paint0_linear_114_812" x1="960" y1="0" x2="960" y2="1489" gradientUnits="userSpaceOnUse">
<stop offset="0.729167" stop-color="#01164E"/>
<stop offset="1" stop-color="#092E9C"/>
</linearGradient>
<radialGradient id="paint1_radial_114_812" cx="0" cy="0" r="1" gradientUnits="userSpaceOnUse" gradientTransform="translate(346.116 409.559) rotate(45.0153) scale(981.917 981.917)">
<stop stop-color="#5BC7CE"/>
<stop offset="0.11" stop-color="#4198C0"/>
<stop offset="0.23" stop-color="#296BB3"/>
<stop offset="0.34" stop-color="#184AAA"/>
<stop offset="0.43" stop-color="#0D37A5"/>
<stop offset="0.49" stop-color="#0A30A3"/>
<stop offset="1" stop-color="#00152A"/>
</radialGradient>
<linearGradient id="paint2_linear_114_812" x1="948.22" y1="-104.742" x2="748.261" y2="138.69" gradientUnits="userSpaceOnUse">
<stop offset="0.17" stop-color="#0A30A3"/>
<stop offset="1" stop-color="white"/>
</linearGradient>
<radialGradient id="paint3_radial_114_812" cx="0" cy="0" r="1" gradientUnits="userSpaceOnUse" gradientTransform="translate(785.444 139.836) rotate(-134.97) scale(637.568 637.568)">
<stop stop-color="#5BC7CE"/>
<stop offset="0.11" stop-color="#4198C0"/>
<stop offset="0.23" stop-color="#296BB3"/>
<stop offset="0.34" stop-color="#184AAA"/>
<stop offset="0.43" stop-color="#0D37A5"/>
<stop offset="0.49" stop-color="#0A30A3"/>
<stop offset="1" stop-color="#00152A"/>
</radialGradient>
<linearGradient id="paint4_linear_114_812" x1="0" y1="96" x2="1983.81" y2="838.504" gradientUnits="userSpaceOnUse">
<stop stop-color="#0A30A3"/>
<stop offset="0.585704" stop-color="#001447"/>
</linearGradient>
<radialGradient id="paint5_radial_114_812" cx="0" cy="0" r="1" gradientUnits="userSpaceOnUse" gradientTransform="translate(1782.1 220.461) scale(758.657 758.657)">
<stop stop-color="#0A30A3"/>
<stop offset="1" stop-color="#00152A"/>
</radialGradient>
<radialGradient id="paint6_radial_114_812" cx="0" cy="0" r="1" gradientUnits="userSpaceOnUse" gradientTransform="translate(115.924 -276.705) scale(1072.69)">
<stop stop-color="#0A30A3"/>
<stop offset="1" stop-color="#00152A"/>
</radialGradient>
<radialGradient id="paint7_radial_114_812" cx="0" cy="0" r="1" gradientUnits="userSpaceOnUse" gradientTransform="translate(2.17843 -82.2781) rotate(-45) scale(1433.13)">
<stop stop-color="#5BC7CE"/>
<stop offset="0.11" stop-color="#4198C0"/>
<stop offset="0.23" stop-color="#296BB3"/>
<stop offset="0.34" stop-color="#184AAA"/>
<stop offset="0.43" stop-color="#0D37A5"/>
<stop offset="0.49" stop-color="#0A30A3"/>
<stop offset="1" stop-color="#00152A"/>
</radialGradient>
<radialGradient id="paint8_radial_114_812" cx="0" cy="0" r="1" gradientUnits="userSpaceOnUse" gradientTransform="translate(1488.07 1707.33) rotate(-134.78) scale(1266.56 1266.53)">
<stop stop-color="#5BC7CE"/>
<stop offset="0.11" stop-color="#4198C0"/>
<stop offset="0.23" stop-color="#296BB3"/>
<stop offset="0.34" stop-color="#184AAA"/>
<stop offset="0.43" stop-color="#0D37A5"/>
<stop offset="0.49" stop-color="#0A30A3"/>
<stop offset="1" stop-color="#00152A"/>
</radialGradient>
<radialGradient id="paint9_radial_114_812" cx="0" cy="0" r="1" gradientUnits="userSpaceOnUse" gradientTransform="translate(1021.33 1248.71) rotate(-180) scale(801.052)">
<stop stop-color="#5BC7CE"/>
<stop offset="0.11" stop-color="#4198C0"/>
<stop offset="0.23" stop-color="#296BB3"/>
<stop offset="0.34" stop-color="#184AAA"/>
<stop offset="0.43" stop-color="#0D37A5"/>
<stop offset="0.49" stop-color="#0A30A3"/>
<stop offset="1" stop-color="#00152A"/>
</radialGradient>
<radialGradient id="paint10_radial_114_812" cx="0" cy="0" r="1" gradientUnits="userSpaceOnUse" gradientTransform="translate(311.971 754.05) rotate(30) scale(641.084)">
<stop stop-color="#0A30A3"/>
<stop offset="1" stop-color="#00152A"/>
</radialGradient>
<linearGradient id="paint11_linear_114_812" x1="1595.95" y1="1575.45" x2="1813.95" y2="1362.95" gradientUnits="userSpaceOnUse">
<stop stop-color="#0A30A3" stop-opacity="0.31"/>
<stop offset="1" stop-color="white" stop-opacity="0"/>
</linearGradient>
<clipPath id="clip0_114_812">
<rect width="1920" height="1489" fill="white"/>
</clipPath>
<clipPath id="clip1_114_812">
<rect width="1920" height="477" fill="white" transform="translate(0 1009)"/>
</clipPath>
</defs>
</svg>
