<?xml version="1.0" standalone="no"?>
<!DOCTYPE svg PUBLIC "-//W3C//DTD SVG 1.1//EN" "http://www.w3.org/Graphics/SVG/1.1/DTD/svg11.dtd" >
<svg>
<metadata>
Created by FontForge 20090622 at Sun Apr  2 20:19:42 2017
 By deploy user
Copyright 2011 - 2016 The Montserrat Project Authors (julieta.ulanovsky@gmail.com)
</metadata>
<defs>
<font id="Montserratarm-Thin" horiz-adv-x="0" >
  <font-face 
    font-family="Montserrat arm Thin"
    font-weight="250"
    font-stretch="normal"
    units-per-em="1000"
    panose-1="0 0 3 0 0 0 0 0 0 0"
    ascent="800"
    descent="-200"
    x-height="517"
    cap-height="699"
    bbox="-504 -326 1693 1081"
    underline-thickness="50"
    underline-position="-50"
    unicode-range="U+000D-U+FB02"
  />
<missing-glyph horiz-adv-x="587" 
d="M40 0v700h507v-700h-507zM120 70h347v560h-347v-560z" />
    <glyph glyph-name="fi" unicode="fi" horiz-adv-x="535" 
d="M117 590q0 69 42.5 116.5t103.5 45.5q43 -2 83 -24l-11 -17q-36 21 -72 21q-54 0 -90 -40.5t-36 -101.5v-83h168v-20h-168v-487h-20v487h-65v20h65v83zM415 692q11 0 18.5 -8t7.5 -18t-7.5 -18t-18.5 -8t-18.5 8t-7.5 18t7.5 18t18.5 8zM405 0v517h20v-517h-20z" />
    <glyph glyph-name="fl" unicode="fl" horiz-adv-x="545" 
d="M117 590q0 69 42.5 116.5t103.5 45.5q43 -2 83 -24l-11 -17q-36 21 -72 21q-54 0 -90 -40.5t-36 -101.5v-83h168v-20h-168v-487h-20v487h-65v20h65v83zM410 742h20v-742h-20v742z" />
    <glyph glyph-name="f_f" unicode="ff" horiz-adv-x="600" 
d="M117 590q0 69 42.5 116.5t103.5 45.5q43 -2 83 -24l-11 -17q-36 21 -72 21q-54 0 -90 -40.5t-36 -101.5v-83h168v-20h-168v-487h-20v487h-65v20h65v83zM568 732q-54 0 -90 -40.5t-36 -101.5v-83h168v-20h-168v-487h-20v487h-65v20h65v83q0 69 42.5 116.5t103.5 45.5
q43 -2 83 -24l-11 -17q-36 21 -72 21z" />
    <glyph glyph-name="f_f_i" unicode="ffi" horiz-adv-x="840" 
d="M117 590q0 69 42.5 116.5t103.5 45.5q43 -2 83 -24l-11 -17q-36 21 -72 21q-54 0 -90 -40.5t-36 -101.5v-83h168v-20h-168v-487h-20v487h-65v20h65v83zM422 590q0 69 42.5 116.5t103.5 45.5q43 -2 83 -24l-11 -17q-36 21 -72 21q-54 0 -90 -40.5t-36 -101.5v-83h168v-20
h-168v-487h-20v487h-65v20h65v83zM720 692q10 0 18 -8t8 -18t-8 -18t-18 -8t-18 8t-8 18t8 18t18 8zM710 0v517h20v-517h-20z" />
    <glyph glyph-name="f_f_l" unicode="ffl" horiz-adv-x="850" 
d="M117 590q0 69 42.5 116.5t103.5 45.5q43 -2 83 -24l-11 -17q-36 21 -72 21q-54 0 -90 -40.5t-36 -101.5v-83h168v-20h-168v-487h-20v487h-65v20h65v83zM422 590q0 69 42.5 116.5t103.5 45.5q43 -2 83 -24l-11 -17q-36 21 -72 21q-54 0 -90 -40.5t-36 -101.5v-83h168v-20
h-168v-487h-20v487h-65v20h65v83zM715 742h20v-742h-20v742z" />
    <glyph glyph-name="uni0535054E.liga" unicode="&#x535;&#x54e;" horiz-adv-x="1566" 
d="M1410 20h191v-20h-211v342q-25 -85 -83 -134.5t-147 -49.5q-132 0 -203 74t-71 210v62h-751v-223q0 -126 67.5 -195t189.5 -69t189.5 69t67.5 195v77h20v-77q0 -136 -72.5 -210t-204.5 -74t-204.5 74t-72.5 210v476h20v-233h771v-82q0 -126 66 -195t188 -69
q115 0 172.5 88.5t57.5 225.5v265h20v-737z" />
    <glyph glyph-name="uni05350552.liga" unicode="&#x535;&#x552;" horiz-adv-x="1566" 
d="M1410 20h191v-20h-211v342q-25 -85 -83 -134.5t-147 -49.5q-132 0 -203 74t-71 210v62h-751v-223q0 -126 67.5 -195t189.5 -69t189.5 69t67.5 195v77h20v-77q0 -136 -72.5 -210t-204.5 -74t-204.5 74t-72.5 210v476h20v-233h771v-82q0 -126 66 -195t188 -69
q115 0 172.5 88.5t57.5 225.5v265h20v-737z" />
    <glyph glyph-name="uni05390540.liga" unicode="&#x539;&#x540;" horiz-adv-x="1559" 
d="M1315 409q91 -20 131 -77.5t38 -129.5v-202h-20v202q0 47 -16 83t-39.5 56.5t-52.5 33.5t-51.5 17.5t-41.5 4.5h-444v-192q1 -98 -64 -151.5t-160 -53.5q-98 0 -168.5 55.5t-70.5 155.5q0 95 62.5 150.5t176.5 55.5h204v56q-4 126 -90.5 195t-241.5 69t-241.5 -69
t-90.5 -195v-473h-20v473q0 136 92 210t260 74t260 -74t92 -210v-56h438q8 1 20.5 3t44.5 12.5t56.5 25.5t44.5 44t20 65q0 72 -53 121t-181 49h-4h-236v20h219h19q124 -1 190.5 -48.5t65.5 -144.5q0 -28 -11 -54.5t-46 -56t-91 -44.5zM799 209v188h-203
q-105 0 -162.5 -50.5t-57.5 -134.5q0 -80 59.5 -136t160.5 -56q87 0 145 50t58 139z" />
    <glyph glyph-name="uni05390545.liga" unicode="&#x539;&#x545;" horiz-adv-x="1697" 
d="M1431 409q66 -16 119 -69t52 -133q-1 -101 -87 -153.5t-234 -53.5q-89 -1 -162 26t-120 84.5t-47 135.5h20q2 -63 32.5 -109t79 -70.5t98 -35.5t100.5 -11t100 9.5t96 29.5t75.5 58t28.5 90q0 85 -65 137.5t-131 52.5h-567v-192q1 -98 -64 -151.5t-160 -53.5
q-98 0 -168.5 55.5t-70.5 155.5q0 95 62.5 150.5t176.5 55.5h204v56q-4 126 -90.5 195t-241.5 69t-241.5 -69t-90.5 -195v-473h-20v473q0 136 92 210t260 74t260 -74t92 -210v-56h558q6 0 20.5 2t40 11.5t47 23.5t38 42.5t16.5 64.5q0 67 -67 121.5t-197 54.5
q-70 0 -121 -15.5t-77 -42.5t-38 -54.5t-14 -58.5h-20q5 97 80 144.5t188 46.5q121 -1 203.5 -53t82.5 -146q0 -113 -128 -149zM799 209v188h-203q-105 0 -162.5 -50.5t-57.5 -134.5q0 -80 59.5 -136t160.5 -56q87 0 145 50t58 139z" />
    <glyph glyph-name="uni0544053E.liga" unicode="&#x544;&#x53e;" horiz-adv-x="1728" 
d="M1693 628v-20h-300q94 -34 153 -114.5t59 -178.5q0 -131 -93 -223t-233 -92t-233 92t-93 223q0 98 59 178.5t153 114.5h-180q-59 0 -89.5 31t-30.5 89v9h-196v-456q0 -136 -72.5 -210t-204.5 -74t-204.5 74t-72.5 210v476h20v-476q0 -126 67.5 -195t189.5 -69t189.5 69
t67.5 195v476h236v-29q0 -100 100 -100h708zM1586 315q0 121 -90 207t-217 86t-217 -86t-90 -207q0 -123 87.5 -209t219.5 -86t219.5 86t87.5 209z" />
    <glyph glyph-name="uni05440546.liga" unicode="&#x544;&#x546;" horiz-adv-x="1650" 
d="M1535 433h20v-152q0 -136 -72.5 -210t-204.5 -74t-204.5 74t-72.5 210v395q-24 2 -86 36.5t-114 41.5q-38 5 -85 -5t-47 -34v-434q0 -136 -72.5 -210t-204.5 -74t-204.5 74t-72.5 210v476h20v-476q0 -126 67.5 -195t189.5 -69t189.5 69t67.5 195v444q0 28 53.5 41t98.5 7
q41 -5 76 -18.5t53.5 -26.5t42.5 -23t48 -10v-414q0 -126 67.5 -195t189.5 -69t189.5 69t67.5 195v152z" />
    <glyph glyph-name="uni05440576.liga" unicode="&#x544;&#x576;" horiz-adv-x="1486" 
d="M1351 517h20v-517h-20v150q-24 -72 -79.5 -111t-135.5 -39q-94 0 -147 54t-53 150v517q-44 -2 -88 11t-72.5 19.5t-106.5 -9.5v-461q0 -136 -72.5 -210t-204.5 -74t-204.5 74t-72.5 210v476h20v-476q0 -126 67.5 -195t189.5 -69t189.5 69t67.5 195v476q97 20 130 13
t80 -20t97 -8v-538q0 -87 48 -136.5t132 -47.5q101 3 158 67.5t57 176.5v253z" />
    <glyph glyph-name="uni05740567.liga" unicode="&#x574;&#x567;" horiz-adv-x="1207" 
d="M1162 496h-380v-474h166q107 0 107 -84h-20q-1 62 -88 62h-185v730q-117 -56 -230 -13q-150 57 -198 3q-28 -33 -5 -82q17 -36 51 -51l32 -16.5t29 -15.5l23 -13.5t20.5 -14.5t15.5 -16t14 -20t9 -23.5t7.5 -30.5t3 -36.5t1.5 -45.5v-355h-20v150q-24 -72 -79.5 -111
t-135.5 -39q-94 0 -147 54t-53 150v313h20v-313q0 -87 48 -136.5t132 -47.5q101 3 158 67.5t57 176.5v92q0 42 -5.5 72.5t-13.5 48.5t-24 32.5t-29 21.5l-38 19.5t-41 22.5q-65 40 -67 99q-2 54 50 79q69 32 186 -14q32 -12 64 -16t62 1t49 9.5t44.5 14.5t29.5 11v-241h380
v-20z" />
    <glyph glyph-name="uni0574056F.liga" unicode="&#x574;&#x56f;" horiz-adv-x="1297" 
d="M1162 517h20v-728h-20v362q-24 -72 -79 -111t-136 -40q-94 0 -147 54t-53 150v527q-108 -54 -215 -14q-150 57 -198 3q-28 -33 -5 -82q17 -36 51 -51l32 -16.5t29 -15.5l23 -13.5t20.5 -14.5t15.5 -16t14 -20t9 -23.5t7.5 -30.5t3 -36.5t1.5 -45.5v-355h-20v150
q-24 -72 -79.5 -111t-135.5 -39q-94 0 -147 54t-53 150v313h20v-313q0 -87 48 -136.5t132 -47.5q101 3 158 67.5t57 176.5v92q0 42 -5.5 72.5t-13.5 48.5t-24 32.5t-29 21.5l-38 19.5t-41 22.5q-65 40 -67 99q-2 54 50 79q69 32 186 -14q39 -15 80 -16t62 4t55.5 18t36.5 14
v-553q0 -87 47.5 -135.5t132.5 -48.5q101 2 158 66.5t57 177.5v253z" />
    <glyph glyph-name="uni0578055B0582.liga" unicode="&#x578;&#x55b;&#x582;" horiz-adv-x="920" 
d="M462 639l98 160h31l-108 -160h-21zM353 517q96 0 149.5 -54t53.5 -150v-313h-20v313q0 87 -48.5 135.5t-134.5 48.5q-96 -2 -153 -59t-65 -157v-281h-20v517h20v-146q25 69 81 107t137 39zM703 20h162v-20h-182v517h20v-497z" />
    <glyph glyph-name="uni0578055C0582.liga" unicode="&#x578;&#x55c;&#x582;" horiz-adv-x="920" 
d="M609 870l24 -2q9 -24 8.5 -42.5t-5.5 -29t-22.5 -19.5t-28.5 -12.5t-38.5 -10t-37.5 -9.5q-26 -7 -44 -23.5t-24.5 -45t15.5 -67.5h-20q-29 56 -8 98t74 57q11 3 31.5 7.5l33.5 7.5t27.5 10t20.5 16.5t5.5 26t-11.5 38.5zM353 517q96 0 149.5 -54t53.5 -150v-313h-20v313
q0 87 -48.5 135.5t-134.5 48.5q-96 -2 -153 -59t-65 -157v-281h-20v517h20v-146q25 69 81 107t137 39zM703 20h162v-20h-182v517h20v-497z" />
    <glyph glyph-name="uni0578055E0582.liga" unicode="&#x578;&#x55e;&#x582;" horiz-adv-x="920" 
d="M596 631q63 0 90 49q25 44 -3 85q-30 43 -102 43q-67 0 -95.5 -57t-30.5 -184h-20q2 135 35.5 198t110.5 63q93 0 125 -63q25 -50 -6 -100q-33 -54 -104 -54v20zM353 517q96 0 149.5 -54t53.5 -150v-313h-20v313q0 87 -48.5 135.5t-134.5 48.5q-96 -2 -153 -59t-65 -157
v-281h-20v517h20v-146q25 69 81 107t137 39zM703 20h162v-20h-182v517h20v-497z" />
    <glyph glyph-name="uniFB13.liga" unicode="&#x574;&#x576;" horiz-adv-x="1293" 
d="M1158 517h20v-517h-20v150q-24 -72 -79.5 -111t-135.5 -39q-94 0 -147 54t-53 150v511q-16 -4 -50 -7.5t-83.5 -2.5t-77.5 12q-152 57 -199 3q-29 -33 -4 -82q17 -36 51 -51l32 -16.5t29 -15.5l23 -13.5t20.5 -14.5t15.5 -16t14 -20t9 -23.5t7.5 -30.5t3 -36.5t1.5 -45.5
v-355h-20v150q-24 -72 -79.5 -111t-135.5 -39q-94 0 -147 54t-53 150v313h20v-313q0 -87 48 -136.5t132 -47.5q101 3 158 67.5t57 176.5v92q0 42 -5.5 72.5t-13.5 48.5t-24 32.5t-29 21.5l-38 19.5t-41 22.5q-64 40 -68 98q-4 54 47 80q69 35 190 -14q14 -6 32.5 -9.5
t38.5 -4t38 0t39.5 2.5t34 3.5t29 4t18.5 2.5v-532q0 -87 48 -136.5t132 -47.5q101 3 158 67.5t57 176.5v253z" />
    <glyph glyph-name="uniFB14.liga" unicode="&#x574;&#x565;" horiz-adv-x="1274" 
d="M1229 497h-462v-293q0 -87 47.5 -135.5t132.5 -48.5q101 2 158 66.5t57 177.5v93h20v-357h-20v151q-24 -72 -79 -111t-136 -40q-94 0 -147 54t-53 150v527q-108 -54 -215 -14q-150 57 -198 3q-28 -33 -5 -82q17 -36 51 -51l32 -16.5t29 -15.5l23 -13.5t20.5 -14.5
t15.5 -16t14 -20t9 -23.5t7.5 -30.5t3 -36.5t1.5 -45.5v-355h-20v150q-24 -72 -79.5 -111t-135.5 -39q-94 0 -147 54t-53 150v313h20v-313q0 -87 48 -136.5t132 -47.5q101 3 158 67.5t57 176.5v92q0 42 -5.5 72.5t-13.5 48.5t-24 32.5t-29 21.5l-38 19.5t-41 22.5
q-65 40 -67 99q-2 54 50 79q69 32 186 -14q39 -15 79.5 -16t62 4t55.5 18t36 14l-1 -1l2 1v-240h462v-20z" />
    <glyph glyph-name="uniFB15.liga" unicode="&#x574;&#x56b;" horiz-adv-x="1303" 
d="M1000 517q96 0 149.5 -54t53.5 -150v-313h-20v313q0 87 -48.5 135.5t-134.5 48.5q-96 -2 -153 -59t-65 -157v-492h-20v942q-118 -57 -230 -14q-150 57 -198 3q-28 -33 -5 -82q17 -36 51 -51l32 -16.5t29 -15.5l23 -13.5t20.5 -14.5t15.5 -16t14 -20t9 -23.5t7.5 -30.5
t3 -36.5t1.5 -45.5v-355h-20v150q-24 -72 -79.5 -111t-135.5 -39q-94 0 -147 54t-53 150v313h20v-313q0 -87 48 -136.5t132 -47.5q101 3 158 67.5t57 176.5v92q0 42 -5.5 72.5t-13.5 48.5t-24 32.5t-29 21.5l-38 19.5t-41 22.5q-65 40 -67 99q-2 54 50 79q69 32 186 -14
q32 -12 64 -16t62 1t49 9.5t44.5 14.5t29.5 11v-386q25 69 81 107t137 39z" />
    <glyph glyph-name="uniFB17.liga" unicode="&#x574;&#x56d;" horiz-adv-x="1565" 
d="M1430 517h20v-517h-20v142q-23 -67 -72 -104t-119 -38q-83 0 -130.5 54t-47.5 150v293h-279v-708h-20v942q-118 -57 -230 -14q-150 57 -198 3q-28 -33 -5 -82q17 -36 51 -51l32 -16.5t29 -15.5l23 -13.5t20.5 -14.5t15.5 -16t14 -20t9 -23.5t7.5 -30.5t3 -36.5t1.5 -45.5
v-355h-20v150q-24 -72 -79.5 -111t-135.5 -39q-94 0 -147 54t-53 150v313h20v-313q0 -87 48 -136.5t132 -47.5q101 3 158 67.5t57 176.5v92q0 42 -5.5 72.5t-13.5 48.5t-24 32.5t-29 21.5l-38 19.5t-41 22.5q-65 40 -67 99q-2 54 50 79q69 32 186 -14q32 -12 64 -16t62 1
t49 9.5t44.5 14.5t29.5 11v-240h299v-313q0 -87 41.5 -135.5t117.5 -48.5q82 2 131.5 55t58.5 147v295z" />
    <glyph glyph-name=".notdef" horiz-adv-x="587" 
d="M40 0v700h507v-700h-507zM120 70h347v560h-347v-560z" />
    <glyph glyph-name=".null" 
 />
    <glyph glyph-name="nonmarkingreturn" horiz-adv-x="333" 
 />
    <glyph glyph-name="CR" unicode="&#xd;" horiz-adv-x="300" 
 />
    <glyph glyph-name="space" unicode=" " horiz-adv-x="300" 
 />
    <glyph glyph-name="exclam" unicode="!" horiz-adv-x="192" 
d="M86 682h20v-494h-20v494zM96 45q10 0 18 -7.5t8 -18.5t-8 -18.5t-18 -7.5t-18 7.5t-8 18.5t8 18.5t18 7.5z" />
    <glyph glyph-name="quotedbl" unicode="&#x22;" horiz-adv-x="236" 
d="M60 699h20v-190h-20v190zM156 699h20v-190h-20v190z" />
    <glyph glyph-name="numbersign" unicode="#" horiz-adv-x="707" 
d="M626 228l1 -20h-151l-26 -208h-20l26 208h-240l-26 -208h-20l26 208h-149l-1 20h152l30 240h-149l-1 20h152l26 211h20l-26 -211h240l26 211h20l-26 -211h148l1 -20h-151l-30 -240h148zM218 228h240l30 240h-240z" />
    <glyph glyph-name="dollar" unicode="$" horiz-adv-x="593" 
d="M99 546q0 -48 23 -81t60 -51.5t82 -32t89.5 -28.5t81.5 -35.5t59.5 -58t22.5 -90.5q0 -74 -58.5 -121t-158.5 -51v-116h-20v116q-66 0 -130.5 27t-108.5 72l14 14q40 -43 101 -68t124 -25q99 0 158 41.5t59 110.5q0 49 -22.5 83.5t-59.5 53t-81.5 32.5l-89.5 29t-82 35
t-60 56.5t-23 88.5q0 67 54.5 108.5t146.5 46.5v102h20v-101h2q107 0 186 -51l-10 -16q-73 47 -176 47q-92 0 -147.5 -37.5t-55.5 -99.5z" />
    <glyph glyph-name="percent" unicode="%" horiz-adv-x="924" 
d="M225 704q81 0 125 -54t44 -154t-44 -154t-125 -54q-80 0 -123.5 54t-43.5 154t43.5 154t123.5 54zM710 699h26l-538 -699h-26zM225 686q-71 0 -108.5 -49t-37.5 -141t37.5 -141t108.5 -49t109 49t38 141t-38 141t-109 49zM697 411q81 0 125 -54t44 -154t-44 -154
t-125 -54q-80 0 -123.5 54t-43.5 154t43.5 154t123.5 54zM697 393q-71 0 -108.5 -49t-37.5 -141t37.5 -141t108.5 -49t109 49t38 141t-38 141t-109 49z" />
    <glyph glyph-name="ampersand" unicode="&#x26;" horiz-adv-x="626" 
d="M487 145l132 -132l-13 -13l-131 130q-105 -130 -225 -130q-79 0 -134.5 52.5t-55.5 130.5q0 71 45 116.5t127 88.5q-81 103 -81 174q0 58 43 97.5t110 39.5q63 0 101 -35.5t38 -92.5q0 -34 -13.5 -61t-46 -52.5t-53 -38t-68.5 -38.5q54 -67 210 -221q48 65 86 151l19 -12
q-42 -91 -90 -154zM171 562q0 -67 78 -165l53 28.5t45 27.5t41.5 34t23.5 37.5t11 47.5q0 48 -32.5 77.5t-86.5 29.5q-59 0 -96 -33.5t-37 -83.5zM250 20q112 0 211 125q-160 158 -216 227q-38 -21 -62.5 -37t-50.5 -39t-39 -51.5t-13 -61.5q0 -70 49.5 -116.5t120.5 -46.5z
" />
    <glyph glyph-name="quotesingle" unicode="'" horiz-adv-x="140" 
d="M60 699h20v-190h-20v190z" />
    <glyph glyph-name="parenleft" unicode="(" horiz-adv-x="276" 
d="M236 742q-113 -169 -113 -433t113 -433h-20q-113 169 -113 433t113 433h20z" />
    <glyph glyph-name="parenright" unicode=")" horiz-adv-x="276" 
d="M40 742h20q113 -169 113 -433t-113 -433h-20q113 169 113 433t-113 433z" />
    <glyph glyph-name="asterisk" unicode="*" horiz-adv-x="298" 
d="M140 723h18v-117l101 59l9 -17l-101 -58l101 -58l-9 -17l-101 59v-117h-18v117l-101 -59l-9 17l100 58l-100 58l9 17l101 -59v117z" />
    <glyph glyph-name="plus" unicode="+" horiz-adv-x="480" 
d="M440 330v-20h-190v-190h-20v190h-190v20h190v190h20v-190h190z" />
    <glyph glyph-name="comma" unicode="," horiz-adv-x="170" 
d="M87 45q11 0 18.5 -7.5t7.5 -18.5q0 -9 -7 -26l-43 -113h-20l38 114q-20 4 -20 25q0 11 7.5 18.5t18.5 7.5z" />
    <glyph glyph-name="hyphen" unicode="-" horiz-adv-x="357" 
d="M70 310h217v-20h-217v20z" />
    <glyph glyph-name="period" unicode="." horiz-adv-x="170" 
d="M85 45q11 0 18.5 -7.5t7.5 -18.5t-7.5 -18.5t-18.5 -7.5t-18.5 7.5t-7.5 18.5t7.5 18.5t18.5 7.5z" />
    <glyph glyph-name="slash" unicode="/" horiz-adv-x="294" 
d="M310 826h21l-306 -956h-21z" />
    <glyph glyph-name="zero" unicode="0" horiz-adv-x="723" 
d="M387 701q133 0 205 -91t72 -260q0 -170 -72 -261t-205 -91t-204.5 91.5t-71.5 260.5t71.5 260t204.5 91zM387 681q-124 0 -190 -85.5t-66 -245.5t66 -246t190 -86t190.5 86t66.5 246t-66.5 245.5t-190.5 85.5z" />
    <glyph glyph-name="one" unicode="1" horiz-adv-x="348" 
d="M6 699h206v-699h-19v679h-187v20z" />
    <glyph glyph-name="two" unicode="2" horiz-adv-x="555" 
d="M60 20h459v-20h-480l1 29l285 299q119 124 119 210q0 67 -50 105t-137 38q-115 0 -202 -85l-14 14q43 43 100.5 67t115.5 24q96 0 151.5 -43.5t55.5 -119.5q0 -45 -33.5 -104t-91.5 -120z" />
    <glyph glyph-name="three" unicode="3" horiz-adv-x="570" 
d="M247 394q121 0 193 -49t72 -135q0 -95 -71 -153.5t-191 -58.5q-122 0 -221 59l12 16q92 -55 210 -55q111 0 176 52t65 136q0 82 -64.5 125t-179.5 43h-78v18l278 287h-388v20h415v-18l-276 -287h48z" />
    <glyph glyph-name="four" unicode="4" horiz-adv-x="570" 
d="M542 228v-20h-121v-208h-20v208h-366v25l291 466h23l-294 -471h346v224h20v-224h121z" />
    <glyph glyph-name="five" unicode="5" horiz-adv-x="606" 
d="M325 417q111 0 177 -53t66 -141q0 -103 -66.5 -164t-178.5 -61q-121 0 -232 68l10 16q49 -29 109.5 -46.5t112.5 -17.5q103 0 164 55.5t61 149.5q0 79 -61 126.5t-162 47.5q-90 0 -187 -36v338h403v-20h-383v-290q89 28 167 28z" />
    <glyph glyph-name="six" unicode="6" horiz-adv-x="646" 
d="M535 639q-84 42 -175 42q-135 0 -202.5 -115t-49.5 -316q17 88 81.5 138.5t162.5 50.5q104 0 164 -57.5t60 -158.5q0 -104 -62 -164.5t-166 -60.5q-125 0 -194.5 86t-69.5 248q0 168 73.5 268.5t200.5 100.5q91 0 187 -44zM352 419q-102 0 -164.5 -60.5t-62.5 -141.5
q0 -32 13 -65.5t38 -64t68.5 -50t98.5 -19.5q95 0 154 56t59 151q0 89 -55.5 141.5t-148.5 52.5z" />
    <glyph glyph-name="seven" unicode="7" horiz-adv-x="555" 
d="M36 699h493v-25l-342 -674h-22l346 679h-455v-112h-20v132z" />
    <glyph glyph-name="eight" unicode="8" horiz-adv-x="648" 
d="M324 701q99 0 155 -44t56 -122q0 -120 -131 -159q78 -18 121 -64.5t43 -116.5q0 -93 -65 -145t-179 -52q-115 0 -180 52t-65 145q0 70 43 116.5t121 64.5q-131 39 -131 159q0 78 56.5 122t155.5 44zM324 681q-89 0 -140.5 -39.5t-51.5 -108.5q0 -70 51.5 -110t140.5 -40
t140 40t51 110q0 69 -51 108.5t-140 39.5zM323 363q-103 0 -163.5 -44.5t-60.5 -121.5q0 -84 60 -131.5t165 -47.5q104 0 164 47t60 131q0 77 -60 122t-165 45z" />
    <glyph glyph-name="nine" unicode="9" horiz-adv-x="641" 
d="M132 60q82 -42 172 -42q134 0 201 116t49 317q-17 -89 -80.5 -139.5t-160.5 -50.5q-103 0 -162.5 57.5t-59.5 159.5q0 104 61.5 163.5t164.5 59.5q124 0 192.5 -85.5t68.5 -246.5q0 -169 -73 -270t-199 -101q-89 0 -184 44zM322 681q-94 0 -152.5 -55.5t-58.5 -149.5
q0 -90 55 -142.5t147 -52.5q101 0 162.5 60.5t61.5 142.5q0 31 -13 64t-37.5 63.5t-67.5 50t-97 19.5z" />
    <glyph glyph-name="colon" unicode=":" horiz-adv-x="170" 
d="M85 342q11 0 18.5 -8t7.5 -18t-7.5 -18t-18.5 -8t-18.5 8t-7.5 18t7.5 18t18.5 8zM85 45q11 0 18.5 -7.5t7.5 -18.5t-7.5 -18.5t-18.5 -7.5t-18.5 7.5t-7.5 18.5t7.5 18.5t18.5 7.5z" />
    <glyph glyph-name="semicolon" unicode=";" horiz-adv-x="170" 
d="M85 290q-11 0 -18.5 8t-7.5 18t7.5 18t18.5 8t18.5 -8t7.5 -18t-7.5 -18t-18.5 -8zM87 45q11 0 18.5 -7.5t7.5 -18.5q0 -9 -7 -26l-43 -113h-20l38 114q-20 4 -20 25q0 11 7.5 18.5t18.5 7.5z" />
    <glyph glyph-name="less" unicode="&#x3c;" horiz-adv-x="480" 
d="M440 527v-22l-381 -177l381 -177v-22l-400 186v26z" />
    <glyph glyph-name="equal" unicode="=" horiz-adv-x="480" 
d="M40 430h400v-20h-400v20zM40 230h400v-20h-400v20z" />
    <glyph glyph-name="greater" unicode="&#x3e;" horiz-adv-x="480" 
d="M40 129v22l381 177l-381 177v22l400 -186v-26z" />
    <glyph glyph-name="question" unicode="?" horiz-adv-x="395" 
d="M24 536q5 68 52 105.5t122 37.5q77 0 125 -38.5t48 -112.5q0 -40 -13.5 -72t-33.5 -51l-43.5 -40.5l-43.5 -40t-33.5 -49.5t-13.5 -69h-20q0 41 13.5 73t33.5 51.5l43.5 40.5l43.5 40t33.5 49.5t13.5 68.5q0 64 -42 97t-112 33q-68 0 -108.5 -32t-44.5 -93zM178 45
q10 0 18 -7.5t8 -18.5t-8 -18.5t-18 -7.5t-18 7.5t-8 18.5t8 18.5t18 7.5z" />
    <glyph glyph-name="at" unicode="@" horiz-adv-x="1006" 
d="M732 96q0 -41 22 -66.5t53 -25.5q59 0 94 69.5t35 185.5q0 192 -121.5 317t-307.5 125q-190 0 -313.5 -124t-123.5 -315q0 -182 120 -301t304 -119q42 0 93 12.5t86 31.5l8 -18q-38 -20 -91 -33t-96 -13q-193 0 -318.5 124.5t-125.5 315.5q0 199 129.5 329t327.5 130
q195 0 322 -131t127 -331q0 -125 -41 -200t-110 -75q-39 0 -66 31t-27 81v64q-28 -71 -90 -112.5t-143 -41.5q-109 0 -181 73.5t-72 186.5t71.5 187t181.5 74q81 0 143 -41.5t90 -112.5v152h20v-429zM479 507q-101 0 -167 -68.5t-66 -172.5t66 -172t167 -68t167 68t66 172
t-66 172.5t-167 68.5z" />
    <glyph glyph-name="A" unicode="A" horiz-adv-x="686" 
d="M653 0l-98 213h-424l-97 -213h-24l320 699h22l324 -699h-23zM140 233h405l-204 443z" />
    <glyph glyph-name="B" unicode="B" horiz-adv-x="731" 
d="M409 699q101 0 157 -45.5t56 -127.5q0 -66 -36 -108.5t-102 -53.5q83 -10 129 -56.5t46 -120.5q0 -89 -65.5 -138t-184.5 -49h-281v699h281zM409 372q92 0 142.5 40t50.5 114q0 73 -50.5 113t-142.5 40h-261v-307h261zM409 20q110 0 170.5 44t60.5 124q0 79 -60.5 122
t-170.5 43h-261v-333h261z" />
    <glyph glyph-name="C" unicode="C" horiz-adv-x="705" 
d="M636 599q-94 85 -227 85q-140 0 -240 -98t-100 -236q0 -137 100 -235.5t240 -98.5q131 0 227 86l14 -13q-103 -92 -241 -92q-148 0 -253.5 104t-105.5 249t105.5 249t253.5 104q138 0 240 -91z" />
    <glyph glyph-name="D" unicode="D" horiz-adv-x="811" 
d="M403 699q148 0 253 -102.5t105 -247.5q0 -144 -105 -246.5t-253 -102.5h-275v699h275zM403 20q139 0 238.5 96.5t99.5 232.5t-99 233t-239 97h-255v-659h255z" />
    <glyph glyph-name="E" unicode="E" horiz-adv-x="644" 
d="M128 699h437v-20h-417v-309h371v-20h-371v-330h431v-20h-451v699z" />
    <glyph glyph-name="F" unicode="F" horiz-adv-x="545" 
d="M128 699h407v-20h-387v-336h341v-20h-341v-323h-20v699z" />
    <glyph glyph-name="G" unicode="G" horiz-adv-x="760" 
d="M630 343h20v-254q-103 -92 -241 -92q-148 0 -253.5 104t-105.5 250q0 145 105.5 248.5t253.5 103.5q138 0 240 -91l-13 -13q-94 85 -227 85q-140 0 -240 -98t-100 -235q0 -138 100 -236.5t240 -98.5q127 0 221 81v246z" />
    <glyph glyph-name="H" unicode="H" horiz-adv-x="799" 
d="M128 699h20v-336h503v336h20v-699h-20v343h-503v-343h-20v699z" />
    <glyph glyph-name="I" unicode="I" horiz-adv-x="276" 
d="M128 699h20v-699h-20v699z" />
    <glyph glyph-name="J" unicode="J" horiz-adv-x="459" 
d="M349 197q0 -95 -44.5 -146t-127.5 -51q-106 0 -174 98l14 14q63 -92 160 -92q74 0 113 45.5t39 131.5v482h-262v20h282v-502z" />
    <glyph glyph-name="K" unicode="K" horiz-adv-x="670" 
d="M640 0h-27l-300 370l-165 -179v-191h-20v699h20v-479l442 479h28l-291 -314z" />
    <glyph glyph-name="L" unicode="L" horiz-adv-x="491" 
d="M128 699h20v-679h313v-20h-333v699z" />
    <glyph glyph-name="M" unicode="M" horiz-adv-x="934" 
d="M128 699h35l305 -579l303 579h35v-699h-20l-1 680l-317 -603h-2l-318 603v-680h-20v699z" />
    <glyph glyph-name="N" unicode="N" horiz-adv-x="799" 
d="M651 699h20v-699h-30l-493 679v-679h-20v699h30l493 -679v679z" />
    <glyph glyph-name="O" unicode="O" horiz-adv-x="818" 
d="M409 703q148 0 253.5 -103.5t105.5 -248.5q0 -146 -105.5 -250t-253.5 -104t-253.5 104t-105.5 250q0 145 105.5 248.5t253.5 103.5zM409 683q-139 0 -239 -97.5t-100 -234.5t100 -235.5t239 -98.5t239 98.5t100 235.5t-100 234.5t-239 97.5z" />
    <glyph glyph-name="P" unicode="P" horiz-adv-x="662" 
d="M365 699q127 0 197 -59.5t70 -167.5q0 -110 -70 -171t-197 -61h-217v-240h-20v699h237zM365 260q118 0 182.5 55.5t64.5 156.5q0 99 -64.5 153t-182.5 54h-217v-419h217z" />
    <glyph glyph-name="Q" unicode="Q" horiz-adv-x="835" 
d="M794 -34l14 -14q-80 -76 -160 -76q-99 0 -214 122q-8 -1 -25 -1q-148 0 -253.5 104t-105.5 250q0 145 105.5 248.5t253.5 103.5t253.5 -103.5t105.5 -248.5q0 -132 -89 -232t-220 -119q105 -105 189 -105q70 0 146 71zM70 351q0 -137 100 -235.5t239 -98.5t239 98.5
t100 235.5t-100 234.5t-239 97.5t-239 -97.5t-100 -234.5z" />
    <glyph glyph-name="R" unicode="R" horiz-adv-x="722" 
d="M632 472q0 -90 -47 -147.5t-134 -76.5l181 -248h-25l-178 244q-40 -4 -64 -4h-217v-240h-20v699h237q127 0 197 -59.5t70 -167.5zM148 260h217q118 0 182.5 55.5t64.5 156.5q0 99 -64.5 153t-182.5 54h-217v-419z" />
    <glyph glyph-name="S" unicode="S" horiz-adv-x="593" 
d="M478 636q-73 47 -176 47q-92 0 -147.5 -37.5t-55.5 -99.5q0 -48 23 -81t60 -51.5t82 -32t89.5 -28.5t81.5 -35.5t59.5 -58t22.5 -90.5q0 -78 -64.5 -125t-172.5 -47q-66 0 -130.5 27t-108.5 72l14 14q40 -43 101 -68t124 -25q99 0 158 41.5t59 110.5q0 49 -22.5 83.5
t-59.5 53t-81.5 32.5l-89.5 29t-82 35t-60 56.5t-23 88.5q0 71 61 113.5t162 42.5q107 0 186 -51z" />
    <glyph glyph-name="T" unicode="T" horiz-adv-x="526" 
d="M13 699h500v-20h-240v-679h-20v679h-240v20z" />
    <glyph glyph-name="U" unicode="U" horiz-adv-x="774" 
d="M130 281q0 -126 67.5 -195t189.5 -69t189.5 69t67.5 195v418h20v-418q0 -136 -72.5 -210t-204.5 -74t-204.5 74t-72.5 210v418h20v-418z" />
    <glyph glyph-name="V" unicode="V" horiz-adv-x="626" 
d="M10 699h23l280 -676l279 676h24l-292 -699h-22z" />
    <glyph glyph-name="W" unicode="W" horiz-adv-x="987" 
d="M954 699h23l-237 -699h-21l-225 671l-226 -671h-21l-237 699h23l225 -676l224 676h23l225 -676z" />
    <glyph glyph-name="X" unicode="X" horiz-adv-x="623" 
d="M52 699h24l230 -320l231 320h24l-243 -337l262 -362h-24l-250 346l-249 -346h-24l261 362z" />
    <glyph glyph-name="Y" unicode="Y" horiz-adv-x="606" 
d="M596 699l-281 -430v-269h-20v269l-285 430h24l271 -410l267 410h24z" />
    <glyph glyph-name="Z" unicode="Z" horiz-adv-x="650" 
d="M66 699h529v-25l-523 -654h526v-20h-546v25l523 654h-509v20z" />
    <glyph glyph-name="bracketleft" unicode="[" horiz-adv-x="284" 
d="M108 742h149v-20h-129v-826h129v-20h-149v866z" />
    <glyph glyph-name="backslash" unicode="\" horiz-adv-x="294" 
d="M-16 826l306 -956h-21l-306 956h21z" />
    <glyph glyph-name="bracketright" unicode="]" horiz-adv-x="284" 
d="M176 742v-866h-149v20h129v826h-129v20h149z" />
    <glyph glyph-name="asciicircum" unicode="^" horiz-adv-x="478" 
d="M438 128h-22l-177 381l-177 -381h-22l186 400h26z" />
    <glyph glyph-name="underscore" unicode="_" horiz-adv-x="537" 
d="M0 -184h537v-20h-537v20z" />
    <glyph glyph-name="grave" unicode="`" horiz-adv-x="350" 
d="M114 739l136 -110l-26 -5l-129 105z" />
    <glyph glyph-name="a" unicode="a" horiz-adv-x="562" 
d="M469 0h-20l-1 117q-66 -117 -217 -117q-74 0 -121 42t-47 107q0 63 51.5 98t140.5 35h192v63q-1 73 -42.5 112.5t-121.5 39.5q-89 0 -181 -72l-12 16q96 76 193 76q88 0 135.5 -46t48.5 -126zM232 20q159 0 216 142l-1 100h-192q-82 0 -127 -29.5t-45 -83.5
q0 -58 40.5 -93.5t108.5 -35.5z" />
    <glyph glyph-name="b" unicode="b" horiz-adv-x="669" 
d="M366 517q109 0 180 -73.5t71 -185.5t-71 -185t-180 -73q-80 0 -141.5 41t-89.5 111v-152h-20v742h20v-377q28 70 89.5 111t141.5 41zM366 20q100 0 165.5 67t65.5 171t-65.5 171.5t-165.5 67.5t-165.5 -67.5t-65.5 -171.5t65.5 -171t165.5 -67z" />
    <glyph glyph-name="c" unicode="c" horiz-adv-x="557" 
d="M466 434q-69 63 -163 63q-101 0 -166.5 -66.5t-65.5 -171.5t65.5 -172t166.5 -67q108 0 174 75l13 -14q-71 -81 -187 -81q-108 0 -179.5 73t-71.5 186q0 112 71.5 185t179.5 73q104 0 176 -69z" />
    <glyph glyph-name="d" unicode="d" horiz-adv-x="673" 
d="M538 742h20v-742h-20v152q-29 -71 -90.5 -112.5t-142.5 -41.5q-109 0 -181 73.5t-72 186.5t71.5 187t181.5 74q81 0 142.5 -41.5t90.5 -112.5v377zM305 18q101 0 167 68t66 172t-66 172.5t-167 68.5t-167 -68.5t-66 -172.5t66 -172t167 -68z" />
    <glyph glyph-name="e" unicode="e" horiz-adv-x="589" 
d="M301 20q116 0 183 75l14 -14q-75 -81 -197 -81q-108 0 -178.5 73t-70.5 186q0 112 70.5 185t178.5 73q107 0 173.5 -72.5t66.5 -185.5h-469q0 -105 64.5 -172t164.5 -67zM301 497q-95 0 -158.5 -60.5t-69.5 -157.5h448q-7 98 -66 158t-154 60z" />
    <glyph glyph-name="f" unicode="f" horiz-adv-x="295" 
d="M263 732q-54 0 -90 -40.5t-36 -101.5v-83h168v-20h-168v-487h-20v487h-65v20h65v83q0 69 42.5 116.5t103.5 45.5q43 -2 83 -24l-11 -17q-36 21 -72 21z" />
    <glyph glyph-name="g" unicode="g" horiz-adv-x="630" 
d="M516 517h20v-459q0 -115 -67 -183.5t-179 -68.5q-116 0 -208 90l14 14q84 -84 194 -84q103 0 164.5 63t61.5 169v108q-27 -68 -86.5 -107.5t-136.5 -39.5q-104 0 -172.5 70.5t-68.5 177.5q0 109 68.5 179.5t172.5 70.5q77 0 136.5 -40t86.5 -108v148zM293 38q97 0 160 65
t63 164q0 100 -63 165.5t-160 65.5t-159.5 -65.5t-62.5 -165.5q0 -99 62.5 -164t159.5 -65z" />
    <glyph glyph-name="h" unicode="h" horiz-adv-x="650" 
d="M354 517q96 0 149.5 -54t53.5 -150v-313h-20v313q0 87 -48.5 135.5t-134.5 48.5q-103 -2 -161 -66.5t-58 -177.5v-253h-20v742h20v-374q25 70 81 109t138 40z" />
    <glyph glyph-name="i" unicode="i" horiz-adv-x="240" 
d="M120 692q10 0 18 -8t8 -18t-8 -18t-18 -8t-18 8t-8 18t8 18t18 8zM110 517h20v-517h-20v517z" />
    <glyph glyph-name="j" unicode="j" horiz-adv-x="219" 
d="M115 692q11 0 18.5 -8t7.5 -18t-7.5 -18t-18.5 -8t-18.5 8t-7.5 18t7.5 18t18.5 8zM-46 -161q27 -11 55 -12q47 -1 71.5 35t24.5 107v548h20v-548q0 -81 -29.5 -122t-86.5 -40q-32 1 -63 14z" />
    <glyph glyph-name="k" unicode="k" horiz-adv-x="538" 
d="M498 0l-217 302l-146 -148v-154h-20v742h20v-557l329 332h28l-197 -200l227 -317h-24z" />
    <glyph glyph-name="l" unicode="l" horiz-adv-x="250" 
d="M115 742h20v-742h-20v742z" />
    <glyph glyph-name="m" unicode="m" horiz-adv-x="1046" 
d="M755 517q94 0 146 -54t52 -150v-313h-20v313q0 87 -47 135.5t-131 48.5q-101 -2 -157 -66.5t-56 -177.5v-253h-20v313q0 87 -47.5 135.5t-131.5 48.5q-100 -2 -156.5 -66.5t-56.5 -177.5v-253h-20v517h20v-148q24 70 79 108.5t135 39.5q81 0 132 -41.5t63 -116.5
q23 75 78.5 116t137.5 42z" />
    <glyph glyph-name="n" unicode="n" horiz-adv-x="644" 
d="M348 517q96 0 149.5 -54t53.5 -150v-313h-20v313q0 87 -48.5 135.5t-134.5 48.5q-96 -2 -153 -59t-65 -157v-281h-20v517h20v-146q25 69 81 107t137 39z" />
    <glyph glyph-name="o" unicode="o" horiz-adv-x="606" 
d="M303 517q108 0 179.5 -73t71.5 -185q0 -113 -71.5 -186t-179.5 -73t-179.5 73t-71.5 186q0 112 71.5 185t179.5 73zM303 497q-101 0 -166 -66.5t-65 -171.5t65 -172t166 -67t166 67t65 172t-65 171.5t-166 66.5z" />
    <glyph glyph-name="p" unicode="p" horiz-adv-x="669" 
d="M366 517q109 0 180 -73.5t71 -185.5t-71 -185t-180 -73q-80 0 -141.5 41t-89.5 111v-346h-20v711h20v-152q28 70 89.5 111t141.5 41zM366 20q100 0 165.5 67t65.5 171t-65.5 171.5t-165.5 67.5t-165.5 -67.5t-65.5 -171.5t65.5 -171t165.5 -67z" />
    <glyph glyph-name="q" unicode="q" horiz-adv-x="673" 
d="M538 517h20v-711h-20v346q-29 -71 -90.5 -112.5t-142.5 -41.5q-109 0 -181 73.5t-72 186.5t71.5 187t181.5 74q81 0 142.5 -41.5t90.5 -112.5v152zM305 18q101 0 167 68t66 172t-66 172.5t-167 68.5t-167 -68.5t-66 -172.5t66 -172t167 -68z" />
    <glyph glyph-name="r" unicode="r" horiz-adv-x="338" 
d="M130 376q49 138 198 141v-20q-88 -2 -139.5 -58.5t-58.5 -155.5v-283h-20v517h20v-141z" />
    <glyph glyph-name="s" unicode="s" horiz-adv-x="427" 
d="M350 463q-53 34 -127 34q-64 0 -104.5 -26t-40.5 -76q0 -36 23 -60.5t57.5 -36l75 -25t75 -26.5t57.5 -42t23 -71q0 -66 -50.5 -100t-123.5 -34q-113 0 -185 72l13 15q69 -67 172 -67q65 0 108.5 27.5t45.5 81.5q1 37 -21 62.5t-57 38l-75.5 26t-75.5 27t-58.5 41.5
t-23.5 69q0 61 46.5 92.5t117.5 31.5q74 0 138 -37z" />
    <glyph glyph-name="t" unicode="t" horiz-adv-x="362" 
d="M326 53l12 -16q-46 -35 -102 -37q-54 -1 -82 35.5t-28 106.5v345h-76v20h76v123h20v-123h182v-20h-182v-345q0 -60 23 -91.5t67 -30.5q51 2 90 33z" />
    <glyph glyph-name="u" unicode="u" horiz-adv-x="637" 
d="M507 517h20v-517h-20v151q-24 -72 -79 -111t-136 -40q-94 0 -147 54t-53 150v313h20v-313q0 -87 47.5 -135.5t132.5 -48.5q101 2 158 66.5t57 177.5v253z" />
    <glyph glyph-name="v" unicode="v" horiz-adv-x="456" 
d="M10 517h23l200 -494l199 494h24l-212 -517h-22z" />
    <glyph glyph-name="w" unicode="w" horiz-adv-x="818" 
d="M10 517h24l185 -494l183 494h24l185 -494l184 494h23l-197 -517h-22l-184 489l-186 -489h-22z" />
    <glyph glyph-name="x" unicode="x" horiz-adv-x="489" 
d="M46 517h24l173 -233l173 233h24l-185 -249l199 -268h-25l-187 251l-186 -251h-25l199 268z" />
    <glyph glyph-name="y" unicode="y" horiz-adv-x="456" 
d="M214 -75q-49 -119 -135 -119q-55 0 -92 26l9 17q34 -23 81 -23q79 0 121 106l26 66l-214 519h23l201 -494l198 494h24z" />
    <glyph glyph-name="z" unicode="z" horiz-adv-x="510" 
d="M71 517l381 -1v-25l-370 -471l377 -1v-20l-397 1v25l370 471l-361 1v20z" />
    <glyph glyph-name="braceleft" unicode="{" horiz-adv-x="317" 
d="M168 390q0 -68 -40 -82q40 -14 40 -82v-250q0 -82 108 -82v-20h-5q-63 0 -93 25t-30 77v250q0 72 -55 72h-19v20h19q55 0 55 72v250q0 52 30 77t93 25h5v-20q-108 0 -108 -82v-250z" />
    <glyph glyph-name="bar" unicode="|" horiz-adv-x="220" 
d="M100 824h20v-953h-20v953z" />
    <glyph glyph-name="braceright" unicode="}" horiz-adv-x="317" 
d="M224 318h19v-20h-19q-55 0 -55 -72v-250q0 -52 -30 -77t-93 -25h-5v20q108 0 108 82v250q0 68 40 82q-40 14 -40 82v250q0 82 -108 82v20h5q63 0 93 -25t30 -77v-250q0 -72 55 -72z" />
    <glyph glyph-name="asciitilde" unicode="~" horiz-adv-x="480" 
d="M398 350q0 -38 -18.5 -59t-51.5 -21q-35 0 -92.5 35t-82.5 35q-50 0 -50 -60h-20q0 38 18.5 59t51.5 21q30 0 89.5 -35t85.5 -35q50 0 50 60h20z" />
    <glyph glyph-name="uni00A0" unicode="&#xa0;" horiz-adv-x="300" 
 />
    <glyph glyph-name="exclamdown" unicode="&#xa1;" horiz-adv-x="192" 
d="M96 471q-10 0 -18 7.5t-8 18.5t8 18.5t18 7.5t18 -7.5t8 -18.5t-8 -18.5t-18 -7.5zM106 -166h-20v494h20v-494z" />
    <glyph glyph-name="cent" unicode="&#xa2;" horiz-adv-x="600" 
d="M490 81q-67 -76 -176 -81v-139h-20v139q-105 4 -173.5 76.5t-68.5 182.5t68.5 182t173.5 76v137h20v-137q97 -4 165 -69l-13 -14q-69 63 -163 63q-101 0 -166.5 -66.5t-65.5 -171.5t65.5 -172t166.5 -67q108 0 174 75z" />
    <glyph glyph-name="sterling" unicode="&#xa3;" horiz-adv-x="532" 
d="M166 330v-310h316v-20h-430v20h94v310h-94v20h94v152q0 95 44.5 146t127.5 51q106 0 174 -98l-14 -14q-63 92 -160 92q-74 0 -113 -45.5t-39 -131.5v-152h191v-20h-191z" />
    <glyph glyph-name="currency" unicode="&#xa4;" horiz-adv-x="726" 
d="M646 316q0 -110 -80 -187l108 -109l-14 -14l-109 109q-80 -69 -188 -69q-106 0 -187 70l-110 -110l-14 14l109 110q-78 78 -78 186q0 109 78 189l-109 110l14 14l110 -110q81 70 187 70q108 0 188 -69l109 109l14 -14l-108 -109q80 -80 80 -190zM103 316
q0 -103 76.5 -176.5t183.5 -73.5q109 0 186 73.5t77 176.5q0 104 -77 178.5t-186 74.5q-107 0 -183.5 -74.5t-76.5 -178.5z" />
    <glyph glyph-name="yen" unicode="&#xa5;" horiz-adv-x="606" 
d="M596 699l-275 -421h214v-20h-220v-90h220v-20h-220v-148h-20v148h-220v20h220v90h-220v20h214l-279 421h24l271 -410l267 410h24z" />
    <glyph glyph-name="brokenbar" unicode="&#xa6;" horiz-adv-x="220" 
d="M100 824h20v-353h-20v353zM100 224h20v-353h-20v353z" />
    <glyph glyph-name="section" unicode="&#xa7;" horiz-adv-x="431" 
d="M353 640q-49 34 -127 34q-67 0 -106.5 -26.5t-39.5 -75.5q0 -36 23 -60.5t58 -36l75.5 -25t75.5 -27t58 -41.5t23 -68q0 -56 -38 -91.5t-84 -40.5q120 -39 120 -129q0 -61 -49 -97t-126 -36q-115 0 -186 73l14 14q69 -67 170 -67q67 0 112.5 30.5t45.5 83.5q0 42 -32 68
t-78 40l-92.5 28.5t-78.5 45t-32 78.5q0 54 39 85.5t108 36.5q-77 24 -111 56.5t-34 78.5q0 57 45.5 90t119.5 33q79 0 139 -39zM225 417q-66 0 -106.5 -26.5t-40.5 -69.5q0 -49 49.5 -86.5t112.5 -37.5q56 0 95 32t39 81q0 48 -40 77.5t-109 29.5z" />
    <glyph glyph-name="dieresis" unicode="&#xa8;" horiz-adv-x="290" 
d="M77 692q11 0 18.5 -8t7.5 -18t-7.5 -18t-18.5 -8t-18.5 8t-7.5 18t7.5 18t18.5 8zM227 692q11 0 18.5 -8t7.5 -18t-7.5 -18t-18.5 -8t-18.5 8t-7.5 18t7.5 18t18.5 8z" />
    <glyph glyph-name="copyright" unicode="&#xa9;" horiz-adv-x="777" 
d="M389 689q142 0 240 -99.5t98 -239.5t-99 -240.5t-241 -100.5q-141 0 -239 99.5t-98 239.5t98.5 240.5t240.5 100.5zM389 669q-135 0 -227 -94.5t-92 -226.5t91.5 -225.5t225.5 -93.5q135 0 227.5 94.5t92.5 226.5q0 133 -92 226t-226 93zM508 468q-49 43 -115 43
q-70 0 -119 -47.5t-49 -114.5q0 -68 49 -115.5t119 -47.5q66 0 115 43l13 -13q-55 -50 -129 -50q-77 0 -132 53.5t-55 129.5q0 75 55 128.5t133 53.5q72 0 128 -49z" />
    <glyph glyph-name="ordfeminine" unicode="&#xaa;" horiz-adv-x="372" 
d="M303 458h-20v66q-40 -66 -130 -66q-46 0 -74 24.5t-28 62.5q0 37 31.5 58t85.5 21h114v33q-2 84 -97 84q-53 0 -109 -40l-9 16q61 43 121 43q54 0 84 -27.5t30 -74.5zM157 475q91 0 126 78l-1 55h-112q-99 0 -99 -62q0 -32 23.5 -51.5t62.5 -19.5z" />
    <glyph glyph-name="guillemotleft" unicode="&#xab;" horiz-adv-x="381" 
d="M167 403h24l-108 -156l108 -153h-24l-109 153zM280 403h24l-108 -156l108 -153h-24l-109 153z" />
    <glyph glyph-name="logicalnot" unicode="&#xac;" horiz-adv-x="534" 
d="M440 360v-200h-20v180h-380v20h400z" />
    <glyph glyph-name="uni00AD" unicode="&#xad;" horiz-adv-x="357" 
d="M70 310h217v-20h-217v20z" />
    <glyph glyph-name="registered" unicode="&#xae;" horiz-adv-x="777" 
d="M389 689q142 0 240 -99.5t98 -239.5t-99 -240.5t-241 -100.5q-141 0 -239 99.5t-98 239.5t98.5 240.5t240.5 100.5zM387 29q135 0 227.5 94.5t92.5 226.5q0 133 -92 226t-226 93q-135 0 -227 -94.5t-92 -226.5t91.5 -225.5t225.5 -93.5zM537 421q0 -98 -93 -121l95 -132
h-25l-91 128q-20 -2 -31 -2h-111v-126h-20v375h131q70 0 107.5 -31.5t37.5 -90.5zM281 314h111q59 0 92 28t33 79q0 50 -32.5 76t-92.5 26h-111v-209z" />
    <glyph glyph-name="macron" unicode="&#xaf;" horiz-adv-x="350" 
d="M47 677h257v-20h-257v20z" />
    <glyph glyph-name="degree" unicode="&#xb0;" horiz-adv-x="300" 
d="M188 796q46 0 79.5 -32.5t33.5 -76.5t-33.5 -76t-79.5 -32q-45 0 -78.5 32.5t-33.5 75.5q0 44 33.5 76.5t78.5 32.5zM188 776q-37 0 -64.5 -26.5t-27.5 -62.5t27 -62t65 -26t65.5 26t27.5 62t-27.5 62.5t-65.5 26.5z" />
    <glyph glyph-name="plusminus" unicode="&#xb1;" horiz-adv-x="480" 
d="M250 379h190v-20h-190v-190h-20v190h-190v20h190v190h20v-190zM40 55v20h400v-20h-400z" />
    <glyph glyph-name="uni00B2" unicode="&#xb2;" horiz-adv-x="323" 
d="M181 553q66 71 66 118q0 38 -26 59.5t-72 21.5q-66 0 -118 -52l-12 15q56 56 130 56q55 0 87 -26.5t32 -72.5q0 -58 -73 -131l-151 -162h254v-19h-278v21z" />
    <glyph glyph-name="uni00B3" unicode="&#xb3;" horiz-adv-x="325" 
d="M145 591q62 0 99.5 -29.5t37.5 -81.5q0 -57 -38 -91t-104 -34q-67 0 -121 37l11 17q47 -36 110 -36q56 0 88.5 29.5t32.5 77.5q0 45 -32 69.5t-90 24.5h-45v15l142 159h-200v18h226v-15l-142 -160h25z" />
    <glyph glyph-name="acute" unicode="&#xb4;" horiz-adv-x="350" 
d="M237 739l19 -10l-129 -105l-26 5z" />
    <glyph glyph-name="uni00B5" unicode="&#xb5;" horiz-adv-x="660" 
d="M530 517h20v-517h-20v151q-24 -72 -79 -111t-136 -40q-132 0 -179 100v-294h-20v373q-1 8 -1 25v313h21v-337q7 -76 53.5 -118t125.5 -42q101 2 158 66.5t57 177.5v253z" />
    <glyph glyph-name="paragraph" unicode="&#xb6;" horiz-adv-x="557" 
d="M207 419q-28 -2 -38 -2q-46 0 -79.5 15.5t-50.5 41t-24.5 51t-7.5 51.5q0 70 48.5 118t147.5 48h226v-854h-20v834h-182v-834h-20v531z" />
    <glyph glyph-name="periodcentered" unicode="&#xb7;" horiz-adv-x="170" 
d="M85 292q11 0 18.5 -8t7.5 -18t-7.5 -18t-18.5 -8t-18.5 8t-7.5 18t7.5 18t18.5 8z" />
    <glyph glyph-name="cedilla" unicode="&#xb8;" horiz-adv-x="254" 
d="M138 5l20 -5l-16 -56q38 -1 59.5 -22.5t21.5 -51.5q0 -33 -23.5 -58t-65.5 -25q-44 0 -73 22l8 20q28 -21 65 -21q32 0 50 18.5t18 43.5q0 22 -16 38.5t-42 16.5h-29z" />
    <glyph glyph-name="uni00B9" unicode="&#xb9;" horiz-adv-x="206" 
d="M10 766h110v-406h-21v387h-89v19z" />
    <glyph glyph-name="ordmasculine" unicode="&#xba;" horiz-adv-x="396" 
d="M198 760q66 0 109.5 -42.5t43.5 -108.5t-43.5 -108.5t-109.5 -42.5q-67 0 -110 42t-43 109q0 66 43 108.5t110 42.5zM198 741q-58 0 -95.5 -37t-37.5 -95q0 -59 37.5 -96t95.5 -37t95 37t37 96q0 58 -37 95t-95 37z" />
    <glyph glyph-name="guillemotright" unicode="&#xbb;" horiz-adv-x="381" 
d="M101 94h-24l108 156l-108 153h24l109 -153zM214 94h-24l108 156l-108 153h24l109 -153z" />
    <glyph glyph-name="onequarter" unicode="&#xbc;" horiz-adv-x="639" 
d="M524 699h26l-538 -699h-26zM10 699h110v-406h-21v387h-89v19zM492 406h22l-159 -271h181v126h21v-126h66v-18h-66v-117h-21v117h-202v21z" />
    <glyph glyph-name="onehalf" unicode="&#xbd;" horiz-adv-x="649" 
d="M523 699h26l-538 -699h-26zM9 699h110v-406h-21v387h-89v19zM506 193q66 71 66 118q0 38 -26 59.5t-72 21.5q-66 0 -118 -52l-12 15q56 56 130 56q55 0 87 -26.5t32 -72.5q0 -58 -73 -131l-151 -162h254v-19h-278v21z" />
    <glyph glyph-name="threequarters" unicode="&#xbe;" horiz-adv-x="728" 
d="M145 524q62 0 99.5 -29.5t37.5 -81.5q0 -57 -38 -91t-104 -34q-67 0 -121 37l11 17q47 -36 110 -36q56 0 88.5 29.5t32.5 77.5q0 45 -32 69.5t-90 24.5h-45v15l142 159h-200v18h226v-15l-142 -160h25zM613 699h26l-538 -699h-26zM581 406h22l-159 -271h181v126h21v-126
h66v-18h-66v-117h-21v117h-202v21z" />
    <glyph glyph-name="questiondown" unicode="&#xbf;" horiz-adv-x="395" 
d="M217 471q-11 0 -18.5 7.5t-7.5 18.5t7.5 18.5t18.5 7.5t18.5 -7.5t7.5 -18.5t-7.5 -18.5t-18.5 -7.5zM371 -20q-5 -68 -52 -105.5t-122 -37.5q-77 0 -125 38.5t-48 112.5q0 47 18.5 82.5t45 58.5l53.5 45t45.5 56.5t18.5 79.5h20q0 -41 -13.5 -73t-33.5 -51.5
l-43.5 -40.5l-43.5 -40t-33.5 -49.5t-13.5 -68.5q0 -64 42 -97t112 -33q68 0 108.5 32t44.5 93z" />
    <glyph glyph-name="Agrave" unicode="&#xc0;" horiz-adv-x="686" 
d="M389 781l-26 -5l-129 105l19 10zM653 0l-98 213h-424l-97 -213h-24l320 699h22l324 -699h-23zM140 233h405l-204 443z" />
    <glyph glyph-name="Aacute" unicode="&#xc1;" horiz-adv-x="686" 
d="M470 881l-129 -105l-26 5l136 110zM653 0l-98 213h-424l-97 -213h-24l320 699h22l324 -699h-23zM140 233h405l-204 443z" />
    <glyph glyph-name="Acircumflex" unicode="&#xc2;" horiz-adv-x="686" 
d="M343 868l-88 -92h-26l98 110h32l98 -110h-26zM653 0l-98 213h-424l-97 -213h-24l320 699h22l324 -699h-23zM140 233h405l-204 443z" />
    <glyph glyph-name="Atilde" unicode="&#xc3;" horiz-adv-x="686" 
d="M279 842q-24 0 -37 -16t-13 -45h-19q0 37 19 59t52 22q29 0 65.5 -32.5t59.5 -32.5q24 0 37 16t13 45h19q0 -37 -19 -59t-52 -22q-29 0 -65.5 32.5t-59.5 32.5zM653 0l-98 213h-424l-97 -213h-24l320 699h22l324 -699h-23zM140 233h405l-204 443z" />
    <glyph glyph-name="Adieresis" unicode="&#xc4;" horiz-adv-x="686" 
d="M267 776q-11 0 -18.5 8t-7.5 18t7.5 18t18.5 8t18.5 -8t7.5 -18t-7.5 -18t-18.5 -8zM419 776q-11 0 -18.5 8t-7.5 18t7.5 18t18.5 8t18.5 -8t7.5 -18t-7.5 -18t-18.5 -8zM653 0l-98 213h-424l-97 -213h-24l320 699h22l324 -699h-23zM140 233h405l-204 443z" />
    <glyph glyph-name="Aring" unicode="&#xc5;" horiz-adv-x="686" 
d="M342 763q-36 0 -62.5 25.5t-26.5 60.5t26.5 61t62.5 26q37 0 63.5 -26t26.5 -61t-26.5 -60.5t-63.5 -25.5zM342 918q-29 0 -50.5 -20.5t-21.5 -48.5t21.5 -48t50.5 -20t51 20t22 48t-22 48.5t-51 20.5zM653 0l-98 213h-424l-97 -213h-24l320 699h22l324 -699h-23z
M140 233h405l-204 443z" />
    <glyph glyph-name="AE" unicode="&#xc6;" horiz-adv-x="987" 
d="M491 20h431v-20h-451v223h-303l-134 -223h-24l421 699h477v-20h-417v-309h371v-20h-371v-330zM180 243h291v436h-29z" />
    <glyph glyph-name="Ccedilla" unicode="&#xc7;" horiz-adv-x="705" 
d="M398 -56q38 -1 59.5 -22.5t21.5 -51.5q0 -33 -23.5 -58t-65.5 -25q-44 0 -73 22l8 20q28 -21 65 -21q32 0 50 18.5t18 43.5q0 22 -16 38.5t-42 16.5h-29l21 72q-142 7 -242 110t-100 243q0 145 105.5 249t253.5 104q138 0 240 -91l-13 -13q-94 85 -227 85
q-140 0 -240 -98t-100 -236q0 -137 100 -235.5t240 -98.5q131 0 227 86l14 -13q-102 -91 -237 -92z" />
    <glyph glyph-name="Egrave" unicode="&#xc8;" horiz-adv-x="644" 
d="M261 891l136 -110l-26 -5l-129 105zM128 699h437v-20h-417v-309h371v-20h-371v-330h431v-20h-451v699z" />
    <glyph glyph-name="Eacute" unicode="&#xc9;" horiz-adv-x="644" 
d="M459 891l19 -10l-129 -105l-26 5zM128 699h437v-20h-417v-309h371v-20h-371v-330h431v-20h-451v699z" />
    <glyph glyph-name="Ecircumflex" unicode="&#xca;" horiz-adv-x="644" 
d="M351 868l-88 -92h-26l98 110h32l98 -110h-26zM148 20h431v-20h-451v699h437v-20h-417v-309h371v-20h-371v-330z" />
    <glyph glyph-name="Edieresis" unicode="&#xcb;" horiz-adv-x="644" 
d="M275 828q11 0 18.5 -8t7.5 -18t-7.5 -18t-18.5 -8t-18.5 8t-7.5 18t7.5 18t18.5 8zM427 828q11 0 18.5 -8t7.5 -18t-7.5 -18t-18.5 -8t-18.5 8t-7.5 18t7.5 18t18.5 8zM128 699h437v-20h-417v-309h371v-20h-371v-330h431v-20h-451v699z" />
    <glyph glyph-name="Igrave" unicode="&#xcc;" horiz-adv-x="276" 
d="M48 891l136 -110l-26 -5l-129 105zM128 699h20v-699h-20v699z" />
    <glyph glyph-name="Iacute" unicode="&#xcd;" horiz-adv-x="276" 
d="M246 891l19 -10l-129 -105l-26 5zM128 699h20v-699h-20v699z" />
    <glyph glyph-name="Icircumflex" unicode="&#xce;" horiz-adv-x="276" 
d="M154 886l98 -110h-26l-88 92l-88 -92h-26l98 110h32zM128 0v699h20v-699h-20z" />
    <glyph glyph-name="Idieresis" unicode="&#xcf;" horiz-adv-x="276" 
d="M62 828q10 0 18 -8t8 -18t-8 -18t-18 -8t-18 8t-8 18t8 18t18 8zM214 828q10 0 18 -8t8 -18t-8 -18t-18 -8t-18 8t-8 18t8 18t18 8zM128 699h20v-699h-20v699z" />
    <glyph glyph-name="Eth" unicode="&#xd0;" horiz-adv-x="811" 
d="M403 699q148 0 253 -102.5t105 -247.5q0 -144 -105 -246.5t-253 -102.5h-275v340h-71v20h71v339h275zM403 20q139 0 238.5 96.5t99.5 232.5t-99 233t-239 97h-255v-319h284v-20h-284v-320h255z" />
    <glyph glyph-name="Ntilde" unicode="&#xd1;" horiz-adv-x="799" 
d="M351 842q-24 0 -37 -16t-13 -45h-19q0 37 19 59t52 22q29 0 65.5 -32.5t59.5 -32.5q24 0 37 16t13 45h19q0 -37 -19 -59t-52 -22q-29 0 -65.5 32.5t-59.5 32.5zM651 699h20v-699h-30l-493 679v-679h-20v699h30l493 -679v679z" />
    <glyph glyph-name="Ograve" unicode="&#xd2;" horiz-adv-x="818" 
d="M319 891l136 -110l-26 -5l-129 105zM409 703q148 0 253.5 -103.5t105.5 -248.5q0 -146 -105.5 -250t-253.5 -104t-253.5 104t-105.5 250q0 145 105.5 248.5t253.5 103.5zM409 683q-139 0 -239 -97.5t-100 -234.5t100 -235.5t239 -98.5t239 98.5t100 235.5t-100 234.5
t-239 97.5z" />
    <glyph glyph-name="Oacute" unicode="&#xd3;" horiz-adv-x="818" 
d="M517 891l19 -10l-129 -105l-26 5zM409 703q148 0 253.5 -103.5t105.5 -248.5q0 -146 -105.5 -250t-253.5 -104t-253.5 104t-105.5 250q0 145 105.5 248.5t253.5 103.5zM409 683q-139 0 -239 -97.5t-100 -234.5t100 -235.5t239 -98.5t239 98.5t100 235.5t-100 234.5
t-239 97.5z" />
    <glyph glyph-name="Ocircumflex" unicode="&#xd4;" horiz-adv-x="818" 
d="M409 868l-88 -92h-26l98 110h32l98 -110h-26zM409 703q148 0 253.5 -103.5t105.5 -248.5q0 -146 -105.5 -250t-253.5 -104t-253.5 104t-105.5 250q0 145 105.5 248.5t253.5 103.5zM409 17q139 0 239 98.5t100 235.5t-100 234.5t-239 97.5t-239 -97.5t-100 -234.5
t100 -235.5t239 -98.5z" />
    <glyph glyph-name="Otilde" unicode="&#xd5;" horiz-adv-x="818" 
d="M541 858q0 -37 -19 -59t-52 -22q-29 0 -65.5 32.5t-59.5 32.5q-24 0 -37 -16t-13 -45h-19q0 37 19 59t52 22q29 0 65.5 -32.5t59.5 -32.5q24 0 37 16t13 45h19zM409 703q148 0 253.5 -103.5t105.5 -248.5q0 -146 -105.5 -250t-253.5 -104t-253.5 104t-105.5 250
q0 145 105.5 248.5t253.5 103.5zM409 683q-139 0 -239 -97.5t-100 -234.5t100 -235.5t239 -98.5t239 98.5t100 235.5t-100 234.5t-239 97.5z" />
    <glyph glyph-name="Odieresis" unicode="&#xd6;" horiz-adv-x="818" 
d="M333 828q11 0 18.5 -8t7.5 -18t-7.5 -18t-18.5 -8t-18.5 8t-7.5 18t7.5 18t18.5 8zM485 828q11 0 18.5 -8t7.5 -18t-7.5 -18t-18.5 -8t-18.5 8t-7.5 18t7.5 18t18.5 8zM409 703q148 0 253.5 -103.5t105.5 -248.5q0 -146 -105.5 -250t-253.5 -104t-253.5 104t-105.5 250
q0 145 105.5 248.5t253.5 103.5zM409 683q-139 0 -239 -97.5t-100 -234.5t100 -235.5t239 -98.5t239 98.5t100 235.5t-100 234.5t-239 97.5z" />
    <glyph glyph-name="multiply" unicode="&#xd7;" horiz-adv-x="480" 
d="M388 454l-134 -134l134 -134l-14 -14l-134 134l-134 -134l-14 14l134 134l-134 134l14 14l134 -134l134 134z" />
    <glyph glyph-name="Oslash" unicode="&#xd8;" horiz-adv-x="818" 
d="M625 628q66 -48 104.5 -121t38.5 -157q0 -144 -105.5 -247t-253.5 -103q-109 0 -202 61l-86 -116h-21l93 126q-66 49 -104.5 122.5t-38.5 156.5q0 144 105.5 246.5t253.5 102.5q109 0 202 -61l86 117h21zM70 350q0 -79 36 -147.5t99 -115.5l394 535q-85 57 -190 57
q-140 0 -239.5 -96.5t-99.5 -232.5zM409 20q139 0 239 97t100 233q0 79 -36 147.5t-99 114.5l-394 -534q85 -58 190 -58z" />
    <glyph glyph-name="Ugrave" unicode="&#xd9;" horiz-adv-x="774" 
d="M297 891l136 -110l-26 -5l-129 105zM130 281q0 -126 67.5 -195t189.5 -69t189.5 69t67.5 195v418h20v-418q0 -136 -72.5 -210t-204.5 -74t-204.5 74t-72.5 210v418h20v-418z" />
    <glyph glyph-name="Uacute" unicode="&#xda;" horiz-adv-x="774" 
d="M495 891l19 -10l-129 -105l-26 5zM130 281q0 -126 67.5 -195t189.5 -69t189.5 69t67.5 195v418h20v-418q0 -136 -72.5 -210t-204.5 -74t-204.5 74t-72.5 210v418h20v-418z" />
    <glyph glyph-name="Ucircumflex" unicode="&#xdb;" horiz-adv-x="774" 
d="M387 868l-88 -92h-26l98 110h32l98 -110h-26zM644 699h20v-418q0 -136 -72.5 -210t-204.5 -74t-204.5 74t-72.5 210v418h20v-418q0 -126 67.5 -195t189.5 -69t189.5 69t67.5 195v418z" />
    <glyph glyph-name="Udieresis" unicode="&#xdc;" horiz-adv-x="774" 
d="M311 828q11 0 18.5 -8t7.5 -18t-7.5 -18t-18.5 -8t-18.5 8t-7.5 18t7.5 18t18.5 8zM463 828q11 0 18.5 -8t7.5 -18t-7.5 -18t-18.5 -8t-18.5 8t-7.5 18t7.5 18t18.5 8zM130 281q0 -126 67.5 -195t189.5 -69t189.5 69t67.5 195v418h20v-418q0 -136 -72.5 -210t-204.5 -74
t-204.5 74t-72.5 210v418h20v-418z" />
    <glyph glyph-name="Yacute" unicode="&#xdd;" horiz-adv-x="606" 
d="M430 881l-129 -105l-26 5l136 110zM596 699l-281 -430v-269h-20v269l-285 430h24l271 -410l267 410h24z" />
    <glyph glyph-name="Thorn" unicode="&#xde;" horiz-adv-x="662" 
d="M335 587q297 0 297 -220q0 -225 -297 -225h-187v-142h-20v699h20v-112h187zM335 162q277 0 277 205q0 200 -277 200h-187v-405h187z" />
    <glyph glyph-name="germandbls" unicode="&#xdf;" horiz-adv-x="640" 
d="M110 496q0 112 60.5 179t160.5 67q92 0 146.5 -49.5t54.5 -132.5q0 -70 -40.5 -120t-108.5 -63q84 -10 134.5 -59t50.5 -121q0 -90 -64.5 -143.5t-173.5 -53.5h-55v20h55q99 0 158.5 48.5t59.5 128.5q0 77 -62 122.5t-165 45.5h-5v20q89 0 142.5 47.5t53.5 127.5
q0 74 -49.5 118t-131.5 44q-91 0 -146 -61.5t-55 -164.5v-496h-20v496z" />
    <glyph glyph-name="agrave" unicode="&#xe0;" horiz-adv-x="562" 
d="M321 629l-26 -5l-129 105l19 10zM469 0h-20l-1 117q-66 -117 -217 -117q-74 0 -121 42t-47 107q0 63 51.5 98t140.5 35h192v63q-1 73 -42.5 112.5t-121.5 39.5q-89 0 -181 -72l-12 16q96 76 193 76q88 0 135.5 -46t48.5 -126zM232 20q159 0 216 142l-1 100h-192
q-82 0 -127 -29.5t-45 -83.5q0 -58 40.5 -93.5t108.5 -35.5z" />
    <glyph glyph-name="aacute" unicode="&#xe1;" horiz-adv-x="562" 
d="M402 729l-129 -105l-26 5l136 110zM469 0h-20l-1 117q-66 -117 -217 -117q-74 0 -121 42t-47 107q0 63 51.5 98t140.5 35h192v63q-1 73 -42.5 112.5t-121.5 39.5q-89 0 -181 -72l-12 16q96 76 193 76q88 0 135.5 -46t48.5 -126zM232 20q159 0 216 142l-1 100h-192
q-82 0 -127 -29.5t-45 -83.5q0 -58 40.5 -93.5t108.5 -35.5z" />
    <glyph glyph-name="acircumflex" unicode="&#xe2;" horiz-adv-x="562" 
d="M275 716l-88 -92h-26l98 110h32l98 -110h-26zM469 0h-20l-1 117q-66 -117 -217 -117q-74 0 -121 42t-47 107q0 63 51.5 98t140.5 35h192v63q-1 73 -42.5 112.5t-121.5 39.5q-89 0 -181 -72l-12 16q96 76 193 76q88 0 135.5 -46t48.5 -126zM232 20q159 0 216 142l-1 100
h-192q-82 0 -127 -29.5t-45 -83.5q0 -58 40.5 -93.5t108.5 -35.5z" />
    <glyph glyph-name="atilde" unicode="&#xe3;" horiz-adv-x="562" 
d="M211 694q-24 0 -37 -16t-13 -45h-19q0 37 19 59t52 22q29 0 65.5 -32.5t59.5 -32.5q24 0 37 16t13 45h19q0 -37 -19 -59t-52 -22q-29 0 -65.5 32.5t-59.5 32.5zM469 0h-20l-1 117q-66 -117 -217 -117q-74 0 -121 42t-47 107q0 63 51.5 98t140.5 35h192v63
q-1 73 -42.5 112.5t-121.5 39.5q-89 0 -181 -72l-12 16q96 76 193 76q88 0 135.5 -46t48.5 -126zM232 20q159 0 216 142l-1 100h-192q-82 0 -127 -29.5t-45 -83.5q0 -58 40.5 -93.5t108.5 -35.5z" />
    <glyph glyph-name="adieresis" unicode="&#xe4;" horiz-adv-x="562" 
d="M200 640q-10 0 -18 8t-8 18t8 18t18 8t18 -8t8 -18t-8 -18t-18 -8zM350 640q-10 0 -18 8t-8 18t8 18t18 8t18 -8t8 -18t-8 -18t-18 -8zM469 0h-20l-1 117q-66 -117 -217 -117q-74 0 -121 42t-47 107q0 63 51.5 98t140.5 35h192v63q-1 73 -42.5 112.5t-121.5 39.5
q-89 0 -181 -72l-12 16q96 76 193 76q88 0 135.5 -46t48.5 -126zM232 20q159 0 216 142l-1 100h-192q-82 0 -127 -29.5t-45 -83.5q0 -58 40.5 -93.5t108.5 -35.5z" />
    <glyph glyph-name="aring" unicode="&#xe5;" horiz-adv-x="562" 
d="M274 581q-36 0 -62.5 25.5t-26.5 60.5t26.5 61t62.5 26q37 0 63.5 -26t26.5 -61t-26.5 -60.5t-63.5 -25.5zM274 736q-29 0 -50.5 -20.5t-21.5 -48.5t21.5 -48t50.5 -20t51 20t22 48t-22 48.5t-51 20.5zM469 0h-20l-1 117q-66 -117 -217 -117q-74 0 -121 42t-47 107
q0 63 51.5 98t140.5 35h192v63q-1 73 -42.5 112.5t-121.5 39.5q-89 0 -181 -72l-12 16q96 76 193 76q88 0 135.5 -46t48.5 -126zM232 20q159 0 216 142l-1 100h-192q-82 0 -127 -29.5t-45 -83.5q0 -58 40.5 -93.5t108.5 -35.5z" />
    <glyph glyph-name="ae" unicode="&#xe6;" horiz-adv-x="988" 
d="M470 232q0 -84 69.5 -148t160.5 -64q114 0 183 75l14 -14q-76 -81 -197 -81q-81 0 -146 44.5t-92 115.5q-66 -160 -230 -160q-74 0 -121.5 42t-47.5 107q0 62 51.5 97.5t141.5 35.5h193l-1 63q-1 74 -43.5 113t-121.5 39q-88 0 -182 -72l-12 16q98 76 194 76
q83 0 131.5 -41.5t52.5 -116.5q28 73 90.5 115.5t142.5 42.5q106 0 173 -72t67 -186h-470v-27zM920 279q-7 99 -67 158.5t-153 59.5q-95 0 -159 -60.5t-70 -157.5h449zM256 262q-83 0 -128 -29.5t-45 -83.5q0 -58 41 -93.5t108 -35.5q83 0 134 38.5t84 125.5v78h-194z" />
    <glyph glyph-name="ccedilla" unicode="&#xe7;" horiz-adv-x="557" 
d="M490 81q-71 -81 -187 -81h-4l-16 -56q38 -1 59.5 -22.5t21.5 -51.5q0 -33 -23.5 -58t-65.5 -25q-44 0 -73 22l8 20q28 -21 65 -21q33 0 50.5 18.5t17.5 43.5q0 22 -16 38.5t-42 16.5h-29l22 76q-99 9 -162.5 80.5t-63.5 177.5q0 112 71.5 185t179.5 73q104 0 176 -69
l-13 -14q-69 63 -163 63q-101 0 -166.5 -66.5t-65.5 -171.5t65.5 -172t166.5 -67q108 0 174 75z" />
    <glyph glyph-name="egrave" unicode="&#xe8;" horiz-adv-x="589" 
d="M341 629l-26 -5l-129 105l19 10zM301 20q116 0 183 75l14 -14q-75 -81 -197 -81q-108 0 -178.5 73t-70.5 186q0 112 70.5 185t178.5 73q107 0 173.5 -72.5t66.5 -185.5h-469q0 -105 64.5 -172t164.5 -67zM301 497q-95 0 -158.5 -60.5t-69.5 -157.5h448q-7 98 -66 158
t-154 60z" />
    <glyph glyph-name="eacute" unicode="&#xe9;" horiz-adv-x="589" 
d="M422 729l-129 -105l-26 5l136 110zM301 20q116 0 183 75l14 -14q-75 -81 -197 -81q-108 0 -178.5 73t-70.5 186q0 112 70.5 185t178.5 73q107 0 173.5 -72.5t66.5 -185.5h-469q0 -105 64.5 -172t164.5 -67zM301 497q-95 0 -158.5 -60.5t-69.5 -157.5h448q-7 98 -66 158
t-154 60z" />
    <glyph glyph-name="ecircumflex" unicode="&#xea;" horiz-adv-x="589" 
d="M295 716l-88 -92h-26l98 110h32l98 -110h-26zM301 20q116 0 183 75l14 -14q-75 -81 -197 -81q-108 0 -178.5 73t-70.5 186q0 112 70.5 185t178.5 73q107 0 173.5 -72.5t66.5 -185.5h-469q0 -105 64.5 -172t164.5 -67zM301 497q-95 0 -158.5 -60.5t-69.5 -157.5h448
q-7 98 -66 158t-154 60z" />
    <glyph glyph-name="edieresis" unicode="&#xeb;" horiz-adv-x="589" 
d="M220 640q-10 0 -18 8t-8 18t8 18t18 8t18 -8t8 -18t-8 -18t-18 -8zM370 640q-10 0 -18 8t-8 18t8 18t18 8t18 -8t8 -18t-8 -18t-18 -8zM301 20q116 0 183 75l14 -14q-75 -81 -197 -81q-108 0 -178.5 73t-70.5 186q0 112 70.5 185t178.5 73q107 0 173.5 -72.5t66.5 -185.5
h-469q0 -105 64.5 -172t164.5 -67zM301 497q-95 0 -158.5 -60.5t-69.5 -157.5h448q-7 98 -66 158t-154 60z" />
    <glyph glyph-name="igrave" unicode="&#xec;" horiz-adv-x="240" 
d="M30 739l136 -110l-26 -5l-129 105zM110 517h20v-517h-20v517z" />
    <glyph glyph-name="iacute" unicode="&#xed;" horiz-adv-x="240" 
d="M228 739l19 -10l-129 -105l-26 5zM110 517h20v-517h-20v517z" />
    <glyph glyph-name="icircumflex" unicode="&#xee;" horiz-adv-x="240" 
d="M136 734l98 -110h-26l-88 92l-88 -92h-26l98 110h32zM110 0v517h20v-517h-20z" />
    <glyph glyph-name="idieresis" unicode="&#xef;" horiz-adv-x="240" 
d="M65 692q12 0 19 -7.5t7 -18.5q0 -10 -7.5 -18t-18.5 -8t-18.5 8t-7.5 18t7.5 18t18.5 8zM175 692q11 0 18.5 -8t7.5 -18t-7.5 -18t-18.5 -8t-18.5 8t-7.5 18t7.5 18t18.5 8zM110 517h20v-517h-20v517z" />
    <glyph glyph-name="eth" unicode="&#xf0;" horiz-adv-x="566" 
d="M335 614q86 -86 133.5 -187t47.5 -200q0 -104 -64 -165.5t-171 -61.5q-101 0 -161 60.5t-60 161.5q0 98 62 157t165 59q70 0 126 -33.5t80 -89.5q-41 155 -177 290l-170 -79l-9 19l162 75q-67 62 -143 104l12 18q85 -50 151 -113l135 63l9 -19zM286 20q96 0 153 53.5
t57 142.5q0 92 -57 147t-152 55q-94 0 -150.5 -52.5t-56.5 -141.5q0 -93 56 -148.5t150 -55.5z" />
    <glyph glyph-name="ntilde" unicode="&#xf1;" horiz-adv-x="644" 
d="M278 694q-24 0 -37 -16t-13 -45h-19q0 37 19 59t52 22q29 0 65.5 -32.5t59.5 -32.5q24 0 37 16t13 45h19q0 -37 -19 -59t-52 -22q-29 0 -65.5 32.5t-59.5 32.5zM348 517q96 0 149.5 -54t53.5 -150v-313h-20v313q0 87 -48.5 135.5t-134.5 48.5q-96 -2 -153 -59t-65 -157
v-281h-20v517h20v-146q25 69 81 107t137 39z" />
    <glyph glyph-name="ograve" unicode="&#xf2;" horiz-adv-x="606" 
d="M213 739l136 -110l-26 -5l-129 105zM303 517q108 0 179.5 -73t71.5 -185q0 -113 -71.5 -186t-179.5 -73t-179.5 73t-71.5 186q0 112 71.5 185t179.5 73zM303 497q-101 0 -166 -66.5t-65 -171.5t65 -172t166 -67t166 67t65 172t-65 171.5t-166 66.5z" />
    <glyph glyph-name="oacute" unicode="&#xf3;" horiz-adv-x="606" 
d="M411 739l19 -10l-129 -105l-26 5zM303 517q108 0 179.5 -73t71.5 -185q0 -113 -71.5 -186t-179.5 -73t-179.5 73t-71.5 186q0 112 71.5 185t179.5 73zM303 497q-101 0 -166 -66.5t-65 -171.5t65 -172t166 -67t166 67t65 172t-65 171.5t-166 66.5z" />
    <glyph glyph-name="ocircumflex" unicode="&#xf4;" horiz-adv-x="606" 
d="M303 716l-88 -92h-26l98 110h32l98 -110h-26zM303 517q108 0 179.5 -73t71.5 -185q0 -113 -71.5 -186t-179.5 -73t-179.5 73t-71.5 186q0 112 71.5 185t179.5 73zM303 20q101 0 166 67t65 172t-65 171.5t-166 66.5t-166 -66.5t-65 -171.5t65 -172t166 -67z" />
    <glyph glyph-name="otilde" unicode="&#xf5;" horiz-adv-x="606" 
d="M435 710q0 -37 -19 -59t-52 -22q-29 0 -65.5 32.5t-59.5 32.5q-24 0 -37 -16t-13 -45h-19q0 37 19 59t52 22q29 0 65.5 -32.5t59.5 -32.5q24 0 37 16t13 45h19zM303 517q108 0 179.5 -73t71.5 -185q0 -113 -71.5 -186t-179.5 -73t-179.5 73t-71.5 186q0 112 71.5 185
t179.5 73zM303 497q-101 0 -166 -66.5t-65 -171.5t65 -172t166 -67t166 67t65 172t-65 171.5t-166 66.5z" />
    <glyph glyph-name="odieresis" unicode="&#xf6;" horiz-adv-x="606" 
d="M228 692q10 0 18 -8t8 -18t-8 -18t-18 -8t-18 8t-8 18t8 18t18 8zM378 692q10 0 18 -8t8 -18t-8 -18t-18 -8t-18 8t-8 18t8 18t18 8zM303 517q108 0 179.5 -73t71.5 -185q0 -113 -71.5 -186t-179.5 -73t-179.5 73t-71.5 186q0 112 71.5 185t179.5 73zM303 497
q-101 0 -166 -66.5t-65 -171.5t65 -172t166 -67t166 67t65 172t-65 171.5t-166 66.5z" />
    <glyph glyph-name="divide" unicode="&#xf7;" horiz-adv-x="480" 
d="M240 521q10 0 18 -7.5t8 -18.5t-8 -18.5t-18 -7.5t-18 7.5t-8 18.5t8 18.5t18 7.5zM40 330h400v-20h-400v20zM240 171q10 0 18 -7.5t8 -18.5t-8 -18.5t-18 -7.5t-18 7.5t-8 18.5t8 18.5t18 7.5z" />
    <glyph glyph-name="oslash" unicode="&#xf8;" horiz-adv-x="606" 
d="M456 467q98 -74 98 -208q0 -113 -71.5 -186t-179.5 -73q-79 0 -139 40l-103 -150h-21l110 160q-98 74 -98 209q0 112 71.5 185t179.5 73q79 0 139 -40l103 150h21zM72 259q0 -125 89 -193l270 395q-56 36 -128 36q-101 0 -166 -66.5t-65 -171.5zM303 20q101 0 166 67
t65 172q0 124 -89 192l-270 -395q56 -36 128 -36z" />
    <glyph glyph-name="ugrave" unicode="&#xf9;" horiz-adv-x="637" 
d="M365 629l-26 -5l-129 105l19 10zM507 517h20v-517h-20v151q-24 -72 -79 -111t-136 -40q-94 0 -147 54t-53 150v313h20v-313q0 -87 47.5 -135.5t132.5 -48.5q101 2 158 66.5t57 177.5v253z" />
    <glyph glyph-name="uacute" unicode="&#xfa;" horiz-adv-x="637" 
d="M446 729l-129 -105l-26 5l136 110zM507 517h20v-517h-20v151q-24 -72 -79 -111t-136 -40q-94 0 -147 54t-53 150v313h20v-313q0 -87 47.5 -135.5t132.5 -48.5q101 2 158 66.5t57 177.5v253z" />
    <glyph glyph-name="ucircumflex" unicode="&#xfb;" horiz-adv-x="637" 
d="M319 716l-88 -92h-26l98 110h32l98 -110h-26zM507 517h20v-517h-20v151q-24 -72 -79 -111t-136 -40q-94 0 -147 54t-53 150v313h20v-313q0 -87 47.5 -135.5t132.5 -48.5q101 2 158 66.5t57 177.5v253z" />
    <glyph glyph-name="udieresis" unicode="&#xfc;" horiz-adv-x="637" 
d="M244 640q-10 0 -18 8t-8 18t8 18t18 8t18 -8t8 -18t-8 -18t-18 -8zM394 640q-10 0 -18 8t-8 18t8 18t18 8t18 -8t8 -18t-8 -18t-18 -8zM507 517h20v-517h-20v151q-24 -72 -79 -111t-136 -40q-94 0 -147 54t-53 150v313h20v-313q0 -87 47.5 -135.5t132.5 -48.5
q101 2 158 66.5t57 177.5v253z" />
    <glyph glyph-name="yacute" unicode="&#xfd;" horiz-adv-x="456" 
d="M341 739l19 -10l-129 -105l-26 5zM214 -75q-49 -119 -135 -119q-55 0 -92 26l9 17q34 -23 81 -23q79 0 121 106l26 66l-214 519h23l201 -494l198 494h24z" />
    <glyph glyph-name="thorn" unicode="&#xfe;" horiz-adv-x="669" 
d="M135 365q28 70 89.5 111t141.5 41q109 0 180 -73.5t71 -185.5t-71 -185t-180 -73q-80 0 -141.5 41t-89.5 111v-346h-20v936h20v-377zM366 497q-100 0 -165.5 -67.5t-65.5 -171.5t65.5 -171t165.5 -67t165.5 67t65.5 171t-65.5 171.5t-165.5 67.5z" />
    <glyph glyph-name="ydieresis" unicode="&#xff;" horiz-adv-x="456" 
d="M158 692q10 0 18 -8t8 -18t-8 -18t-18 -8t-18 8t-8 18t8 18t18 8zM308 692q10 0 18 -8t8 -18t-8 -18t-18 -8t-18 8t-8 18t8 18t18 8zM214 -75q-49 -119 -135 -119q-55 0 -92 26l9 17q34 -23 81 -23q79 0 121 106l26 66l-214 519h23l201 -494l198 494h24z" />
    <glyph glyph-name="Amacron" unicode="&#x100;" horiz-adv-x="686" 
d="M501 801v-20h-317v20h317zM653 0l-98 213h-424l-97 -213h-24l320 699h22l324 -699h-23zM140 233h405l-204 443z" />
    <glyph glyph-name="amacron" unicode="&#x101;" horiz-adv-x="562" 
d="M403 677v-20h-257v20h257zM469 0h-20l-1 117q-66 -117 -217 -117q-74 0 -121 42t-47 107q0 63 51.5 98t140.5 35h192v63q-1 73 -42.5 112.5t-121.5 39.5q-89 0 -181 -72l-12 16q96 76 193 76q88 0 135.5 -46t48.5 -126zM232 20q159 0 216 142l-1 100h-192
q-82 0 -127 -29.5t-45 -83.5q0 -58 40.5 -93.5t108.5 -35.5z" />
    <glyph glyph-name="Abreve" unicode="&#x102;" horiz-adv-x="686" 
d="M343 776q-43 0 -73.5 30t-31.5 75h20q2 -36 26 -60.5t59 -24.5t59 24.5t26 60.5h20q-1 -45 -31.5 -75t-73.5 -30zM653 0l-98 213h-424l-97 -213h-24l320 699h22l324 -699h-23zM140 233h405l-204 443z" />
    <glyph glyph-name="abreve" unicode="&#x103;" horiz-adv-x="562" 
d="M275 621q-43 0 -73.5 30t-31.5 75h20q2 -36 26 -60.5t59 -24.5t59 24.5t26 60.5h20q-1 -45 -31.5 -75t-73.5 -30zM469 0h-20l-1 117q-66 -117 -217 -117q-74 0 -121 42t-47 107q0 63 51.5 98t140.5 35h192v63q-1 73 -42.5 112.5t-121.5 39.5q-89 0 -181 -72l-12 16
q96 76 193 76q88 0 135.5 -46t48.5 -126zM232 20q159 0 216 142l-1 100h-192q-82 0 -127 -29.5t-45 -83.5q0 -58 40.5 -93.5t108.5 -35.5z" />
    <glyph glyph-name="Aogonek" unicode="&#x104;" horiz-adv-x="686" 
d="M606 -193q30 0 59 20l10 -16q-35 -24 -70 -24q-33 0 -52.5 20t-19.5 54q0 40 28 73t89 72l-95 207h-424l-97 -213h-24l320 699h22l324 -699q-65 -43 -93.5 -73.5t-28.5 -65.5q0 -27 14.5 -40.5t37.5 -13.5zM140 233h405l-204 443z" />
    <glyph glyph-name="aogonek" unicode="&#x105;" horiz-adv-x="562" 
d="M399 -193q30 0 59 20l10 -16q-35 -24 -70 -24q-33 0 -52.5 20t-19.5 54q0 41 29.5 74t93.5 74l-1 108q-66 -117 -217 -117q-74 0 -121 42t-47 107q0 63 51.5 98t140.5 35h192v63q-1 73 -42.5 112.5t-121.5 39.5q-89 0 -181 -72l-12 16q96 76 193 76q88 0 135.5 -46
t48.5 -126l2 -345q-65 -43 -93.5 -73.5t-28.5 -65.5q0 -27 14.5 -40.5t37.5 -13.5zM232 20q159 0 216 142l-1 100h-192q-82 0 -127 -29.5t-45 -83.5q0 -58 40.5 -93.5t108.5 -35.5z" />
    <glyph glyph-name="Cacute" unicode="&#x106;" horiz-adv-x="705" 
d="M516 891l19 -10l-129 -105l-26 5zM636 599q-94 85 -227 85q-140 0 -240 -98t-100 -236q0 -137 100 -235.5t240 -98.5q131 0 227 86l14 -13q-103 -92 -241 -92q-148 0 -253.5 104t-105.5 249t105.5 249t253.5 104q138 0 240 -91z" />
    <glyph glyph-name="cacute" unicode="&#x107;" horiz-adv-x="557" 
d="M387 739l19 -10l-129 -105l-26 5zM466 434q-69 63 -163 63q-101 0 -166.5 -66.5t-65.5 -171.5t65.5 -172t166.5 -67q108 0 174 75l13 -14q-71 -81 -187 -81q-108 0 -179.5 73t-71.5 186q0 112 71.5 185t179.5 73q104 0 176 -69z" />
    <glyph glyph-name="Ccircumflex" unicode="&#x108;" horiz-adv-x="705" 
d="M408 868l-88 -92h-26l98 110h32l98 -110h-26zM636 102l14 -13q-103 -92 -241 -92q-148 0 -253.5 104t-105.5 249t105.5 249t253.5 104q138 0 240 -91l-13 -13q-94 85 -227 85q-140 0 -240 -98t-100 -236q0 -137 100 -235.5t240 -98.5q131 0 227 86z" />
    <glyph glyph-name="ccircumflex" unicode="&#x109;" horiz-adv-x="557" 
d="M279 716l-88 -92h-26l98 110h32l98 -110h-26zM477 95l13 -14q-71 -81 -187 -81q-108 0 -179.5 73t-71.5 186q0 112 71.5 185t179.5 73q104 0 176 -69l-13 -14q-69 63 -163 63q-101 0 -166.5 -66.5t-65.5 -171.5t65.5 -172t166.5 -67q108 0 174 75z" />
    <glyph glyph-name="Cdotaccent" unicode="&#x10a;" horiz-adv-x="705" 
d="M408 828q10 0 18 -8t8 -18t-8 -18t-18 -8t-18 8t-8 18t8 18t18 8zM636 599q-94 85 -227 85q-140 0 -240 -98t-100 -236q0 -137 100 -235.5t240 -98.5q131 0 227 86l14 -13q-103 -92 -241 -92q-148 0 -253.5 104t-105.5 249t105.5 249t253.5 104q138 0 240 -91z" />
    <glyph glyph-name="cdotaccent" unicode="&#x10b;" horiz-adv-x="557" 
d="M279 692q11 0 18.5 -8t7.5 -18t-7.5 -18t-18.5 -8t-18.5 8t-7.5 18t7.5 18t18.5 8zM466 434q-69 63 -163 63q-101 0 -166.5 -66.5t-65.5 -171.5t65.5 -172t166.5 -67q108 0 174 75l13 -14q-71 -81 -187 -81q-108 0 -179.5 73t-71.5 186q0 112 71.5 185t179.5 73
q104 0 176 -69z" />
    <glyph glyph-name="Ccaron" unicode="&#x10c;" horiz-adv-x="705" 
d="M424 776h-32l-98 110h26l88 -92l88 92h26zM636 102l14 -13q-103 -92 -241 -92q-148 0 -253.5 104t-105.5 249t105.5 249t253.5 104q138 0 240 -91l-13 -13q-94 85 -227 85q-140 0 -240 -98t-100 -236q0 -137 100 -235.5t240 -98.5q131 0 227 86z" />
    <glyph glyph-name="ccaron" unicode="&#x10d;" horiz-adv-x="557" 
d="M295 624h-32l-98 110h26l88 -92l88 92h26zM477 95l13 -14q-71 -81 -187 -81q-108 0 -179.5 73t-71.5 186q0 112 71.5 185t179.5 73q104 0 176 -69l-13 -14q-69 63 -163 63q-101 0 -166.5 -66.5t-65.5 -171.5t65.5 -172t166.5 -67q108 0 174 75z" />
    <glyph glyph-name="Dcaron" unicode="&#x10e;" horiz-adv-x="811" 
d="M402 776h-32l-98 110h26l88 -92l88 92h26zM403 699q148 0 253 -102.5t105 -247.5q0 -144 -105 -246.5t-253 -102.5h-275v699h275zM403 20q139 0 238.5 96.5t99.5 232.5t-99 233t-239 97h-255v-659h255z" />
    <glyph glyph-name="dcaron" unicode="&#x10f;" horiz-adv-x="665" 
d="M538 365v377h20v-742h-20v152q-29 -71 -90.5 -112.5t-142.5 -41.5q-109 0 -181 73.5t-72 186.5t71.5 187t181.5 74q81 0 142.5 -41.5t90.5 -112.5zM658 742h20l-2 -179h-18v179zM305 18q101 0 167 68t66 172t-66 172.5t-167 68.5t-167 -68.5t-66 -172.5t66 -172t167 -68z
" />
    <glyph glyph-name="Dcroat" unicode="&#x110;" horiz-adv-x="811" 
d="M403 699q148 0 253 -102.5t105 -247.5q0 -144 -105 -246.5t-253 -102.5h-275v340h-71v20h71v339h275zM403 20q139 0 238.5 96.5t99.5 232.5t-99 233t-239 97h-255v-319h284v-20h-284v-320h255z" />
    <glyph glyph-name="dcroat" unicode="&#x111;" horiz-adv-x="673" 
d="M638 639v-20h-80v-619h-20v152q-29 -71 -90.5 -112.5t-142.5 -41.5q-109 0 -181 73.5t-72 186.5t71.5 187t181.5 74q81 0 142.5 -41.5t90.5 -112.5v254h-250v20h250v103h20v-103h80zM305 18q101 0 167 68t66 172t-66 172.5t-167 68.5t-167 -68.5t-66 -172.5t66 -172
t167 -68z" />
    <glyph glyph-name="Emacron" unicode="&#x112;" horiz-adv-x="644" 
d="M192 801h317v-20h-317v20zM128 699h437v-20h-417v-309h371v-20h-371v-330h431v-20h-451v699z" />
    <glyph glyph-name="emacron" unicode="&#x113;" horiz-adv-x="589" 
d="M423 677v-20h-257v20h257zM301 20q116 0 183 75l14 -14q-75 -81 -197 -81q-108 0 -178.5 73t-70.5 186q0 112 70.5 185t178.5 73q107 0 173.5 -72.5t66.5 -185.5h-469q0 -105 64.5 -172t164.5 -67zM301 497q-95 0 -158.5 -60.5t-69.5 -157.5h448q-7 98 -66 158t-154 60z
" />
    <glyph glyph-name="Ebreve" unicode="&#x114;" horiz-adv-x="644" 
d="M266 881q2 -36 26 -60.5t59 -24.5t59 24.5t26 60.5h20q-1 -45 -31.5 -75t-73.5 -30t-73.5 30t-31.5 75h20zM128 699h437v-20h-417v-309h371v-20h-371v-330h431v-20h-451v699z" />
    <glyph glyph-name="ebreve" unicode="&#x115;" horiz-adv-x="589" 
d="M295 621q-43 0 -73.5 30t-31.5 75h20q2 -36 26 -60.5t59 -24.5t59 24.5t26 60.5h20q-1 -45 -31.5 -75t-73.5 -30zM301 20q116 0 183 75l14 -14q-75 -81 -197 -81q-108 0 -178.5 73t-70.5 186q0 112 70.5 185t178.5 73q107 0 173.5 -72.5t66.5 -185.5h-469
q0 -105 64.5 -172t164.5 -67zM301 497q-95 0 -158.5 -60.5t-69.5 -157.5h448q-7 98 -66 158t-154 60z" />
    <glyph glyph-name="Edotaccent" unicode="&#x116;" horiz-adv-x="644" 
d="M351 828q11 0 18.5 -8t7.5 -18t-7.5 -18t-18.5 -8t-18.5 8t-7.5 18t7.5 18t18.5 8zM128 699h437v-20h-417v-309h371v-20h-371v-330h431v-20h-451v699z" />
    <glyph glyph-name="edotaccent" unicode="&#x117;" horiz-adv-x="589" 
d="M295 640q-11 0 -18.5 8t-7.5 18t7.5 18t18.5 8t18.5 -8t7.5 -18t-7.5 -18t-18.5 -8zM301 20q116 0 183 75l14 -14q-75 -81 -197 -81q-108 0 -178.5 73t-70.5 186q0 112 70.5 185t178.5 73q107 0 173.5 -72.5t66.5 -185.5h-469q0 -105 64.5 -172t164.5 -67zM301 497
q-95 0 -158.5 -60.5t-69.5 -157.5h448q-7 98 -66 158t-154 60z" />
    <glyph glyph-name="Eogonek" unicode="&#x118;" horiz-adv-x="644" 
d="M579 0q-65 -43 -93.5 -73.5t-28.5 -65.5q0 -27 14.5 -40.5t37.5 -13.5q30 0 59 20l10 -16q-34 -24 -70 -24q-33 0 -52.5 20t-19.5 54q0 39 26.5 70.5t82.5 68.5h-417v699h437v-20h-417v-309h371v-20h-371v-330h431v-20z" />
    <glyph glyph-name="eogonek" unicode="&#x119;" horiz-adv-x="589" 
d="M301 20q116 0 183 75l14 -14q-17 -18 -41 -36q-137 -110 -137 -185q0 -26 14.5 -39.5t37.5 -13.5q30 0 59 20l10 -16q-35 -24 -70 -24q-32 0 -52 20t-20 54q0 66 93 153q-44 -14 -91 -14q-108 0 -178.5 73t-70.5 186q0 112 70.5 185t178.5 73q107 0 173.5 -72.5
t66.5 -185.5h-469q0 -105 64.5 -172t164.5 -67zM301 497q-95 0 -158.5 -60.5t-69.5 -157.5h448q-7 98 -66 158t-154 60z" />
    <glyph glyph-name="Ecaron" unicode="&#x11a;" horiz-adv-x="644" 
d="M367 776h-32l-98 110h26l88 -92l88 92h26zM148 20h431v-20h-451v699h437v-20h-417v-309h371v-20h-371v-330z" />
    <glyph glyph-name="ecaron" unicode="&#x11b;" horiz-adv-x="589" 
d="M311 624h-32l-98 110h26l88 -92l88 92h26zM301 20q116 0 183 75l14 -14q-75 -81 -197 -81q-108 0 -178.5 73t-70.5 186q0 112 70.5 185t178.5 73q107 0 173.5 -72.5t66.5 -185.5h-469q0 -105 64.5 -172t164.5 -67zM301 497q-95 0 -158.5 -60.5t-69.5 -157.5h448
q-7 98 -66 158t-154 60z" />
    <glyph glyph-name="Gcircumflex" unicode="&#x11c;" horiz-adv-x="760" 
d="M380 868l-88 -92h-26l98 110h32l98 -110h-26zM630 343h20v-254q-103 -92 -241 -92q-148 0 -253.5 104t-105.5 250q0 145 105.5 248.5t253.5 103.5q138 0 240 -91l-13 -13q-94 85 -227 85q-140 0 -240 -98t-100 -235q0 -138 100 -236.5t240 -98.5q127 0 221 81v246z" />
    <glyph glyph-name="gcircumflex" unicode="&#x11d;" horiz-adv-x="630" 
d="M297 716l-88 -92h-26l98 110h32l98 -110h-26zM516 517h20v-459q0 -115 -67 -183.5t-179 -68.5q-116 0 -208 90l14 14q84 -84 194 -84q103 0 164.5 63t61.5 169v108q-27 -68 -86.5 -107.5t-136.5 -39.5q-104 0 -172.5 70.5t-68.5 177.5q0 109 68.5 179.5t172.5 70.5
q77 0 136.5 -40t86.5 -108v148zM293 38q97 0 160 65t63 164q0 100 -63 165.5t-160 65.5t-159.5 -65.5t-62.5 -165.5q0 -99 62.5 -164t159.5 -65z" />
    <glyph glyph-name="Gbreve" unicode="&#x11e;" horiz-adv-x="760" 
d="M380 776q-43 0 -73.5 30t-31.5 75h20q2 -36 26 -60.5t59 -24.5t59 24.5t26 60.5h20q-1 -45 -31.5 -75t-73.5 -30zM630 343h20v-254q-103 -92 -241 -92q-148 0 -253.5 104t-105.5 250q0 145 105.5 248.5t253.5 103.5q138 0 240 -91l-13 -13q-94 85 -227 85
q-140 0 -240 -98t-100 -235q0 -138 100 -236.5t240 -98.5q127 0 221 81v246z" />
    <glyph glyph-name="gbreve" unicode="&#x11f;" horiz-adv-x="630" 
d="M297 621q-43 0 -73.5 30t-31.5 75h20q2 -36 26 -60.5t59 -24.5t59 24.5t26 60.5h20q-1 -45 -31.5 -75t-73.5 -30zM516 517h20v-459q0 -115 -67 -183.5t-179 -68.5q-116 0 -208 90l14 14q84 -84 194 -84q103 0 164.5 63t61.5 169v108q-27 -68 -86.5 -107.5t-136.5 -39.5
q-104 0 -172.5 70.5t-68.5 177.5q0 109 68.5 179.5t172.5 70.5q77 0 136.5 -40t86.5 -108v148zM293 38q97 0 160 65t63 164q0 100 -63 165.5t-160 65.5t-159.5 -65.5t-62.5 -165.5q0 -99 62.5 -164t159.5 -65z" />
    <glyph glyph-name="Gdotaccent" unicode="&#x120;" horiz-adv-x="760" 
d="M380 776q-10 0 -18 8t-8 18t8 18t18 8t18 -8t8 -18t-8 -18t-18 -8zM630 343h20v-254q-103 -92 -241 -92q-148 0 -253.5 104t-105.5 250q0 145 105.5 248.5t253.5 103.5q138 0 240 -91l-13 -13q-94 85 -227 85q-140 0 -240 -98t-100 -235q0 -138 100 -236.5t240 -98.5
q127 0 221 81v246z" />
    <glyph glyph-name="gdotaccent" unicode="&#x121;" horiz-adv-x="630" 
d="M297 640q-11 0 -18.5 8t-7.5 18t7.5 18t18.5 8t18.5 -8t7.5 -18t-7.5 -18t-18.5 -8zM516 517h20v-459q0 -115 -67 -183.5t-179 -68.5q-116 0 -208 90l14 14q84 -84 194 -84q103 0 164.5 63t61.5 169v108q-27 -68 -86.5 -107.5t-136.5 -39.5q-104 0 -172.5 70.5
t-68.5 177.5q0 109 68.5 179.5t172.5 70.5q77 0 136.5 -40t86.5 -108v148zM293 38q97 0 160 65t63 164q0 100 -63 165.5t-160 65.5t-159.5 -65.5t-62.5 -165.5q0 -99 62.5 -164t159.5 -65z" />
    <glyph glyph-name="Gcommaaccent" unicode="&#x122;" horiz-adv-x="760" 
d="M630 343h20v-254q-103 -92 -241 -92q-148 0 -253.5 104t-105.5 250q0 145 105.5 248.5t253.5 103.5q138 0 240 -91l-13 -13q-94 85 -227 85q-140 0 -240 -98t-100 -235q0 -138 100 -236.5t240 -98.5q127 0 221 81v246zM330 -214l40 149h21l-43 -149h-18z" />
    <glyph glyph-name="gcommaaccent" unicode="&#x123;" horiz-adv-x="630" 
d="M341 764l-40 -149h-21l43 149h18zM516 517h20v-459q0 -115 -67 -183.5t-179 -68.5q-116 0 -208 90l14 14q84 -84 194 -84q103 0 164.5 63t61.5 169v108q-27 -68 -86.5 -107.5t-136.5 -39.5q-104 0 -172.5 70.5t-68.5 177.5q0 109 68.5 179.5t172.5 70.5q77 0 136.5 -40
t86.5 -108v148zM293 38q97 0 160 65t63 164q0 100 -63 165.5t-160 65.5t-159.5 -65.5t-62.5 -165.5q0 -99 62.5 -164t159.5 -65z" />
    <glyph glyph-name="Hcircumflex" unicode="&#x124;" horiz-adv-x="799" 
d="M400 868l-88 -92h-26l98 110h32l98 -110h-26zM651 699h20v-699h-20v343h-503v-343h-20v699h20v-336h503v336z" />
    <glyph glyph-name="hcircumflex" unicode="&#x125;" horiz-adv-x="650" 
d="M214 849l-88 92l-88 -92h-26l98 110h32l98 -110h-26zM354 517q96 0 149.5 -54t53.5 -150v-313h-20v313q0 87 -48.5 135.5t-134.5 48.5q-103 -2 -161 -66.5t-58 -177.5v-253h-20v742h20v-374q25 70 81 109t138 40z" />
    <glyph glyph-name="Hbar" unicode="&#x126;" horiz-adv-x="799" 
d="M738 547v-20h-67v-527h-20v343h-503v-343h-20v527h-66v20h66v152h20v-152h503v152h20v-152h67zM651 363v164h-503v-164h503z" />
    <glyph glyph-name="hbar" unicode="&#x127;" horiz-adv-x="650" 
d="M354 517q96 0 149.5 -54t53.5 -150v-313h-20v313q0 87 -48.5 135.5t-134.5 48.5q-103 0 -161 -65.5t-58 -178.5v-253h-20v619h-80v20h80v103h20v-103h250v-20h-250v-250q25 71 81 109.5t138 38.5z" />
    <glyph glyph-name="Itilde" unicode="&#x128;" horiz-adv-x="276" 
d="M270 858q0 -37 -19 -59t-52 -22q-29 0 -65.5 32.5t-59.5 32.5q-24 0 -37 -16t-13 -45h-19q0 37 19 59t52 22q29 0 65.5 -32.5t59.5 -32.5q24 0 37 16t13 45h19zM128 699h20v-699h-20v699z" />
    <glyph glyph-name="itilde" unicode="&#x129;" horiz-adv-x="240" 
d="M227 710q0 -37 -15.5 -59t-42.5 -22q-23 0 -53 32.5t-47 32.5q-39 0 -39 -61h-18q0 37 15 59t42 22q23 0 53 -32.5t48 -32.5q39 0 39 61h18zM110 517h20v-517h-20v517z" />
    <glyph glyph-name="Imacron" unicode="&#x12a;" horiz-adv-x="276" 
d="M9 801h257v-20h-257v20zM128 699h20v-699h-20v699z" />
    <glyph glyph-name="imacron" unicode="&#x12b;" horiz-adv-x="240" 
d="M11 677h217v-20h-217v20zM110 517h20v-517h-20v517z" />
    <glyph glyph-name="Ibreve" unicode="&#x12c;" horiz-adv-x="276" 
d="M53 881q2 -36 26 -60.5t59 -24.5t59 24.5t26 60.5h20q-1 -45 -31.5 -75t-73.5 -30t-73.5 30t-31.5 75h20zM128 699h20v-699h-20v699z" />
    <glyph glyph-name="ibreve" unicode="&#x12d;" horiz-adv-x="240" 
d="M35 726q2 -36 26 -60.5t59 -24.5t59 24.5t26 60.5h20q-1 -45 -31.5 -75t-73.5 -30t-73.5 30t-31.5 75h20zM110 517h20v-517h-20v517z" />
    <glyph glyph-name="Iogonek" unicode="&#x12e;" horiz-adv-x="276" 
d="M148 0q-65 -43 -93.5 -73.5t-28.5 -65.5q0 -27 14.5 -40.5t37.5 -13.5q30 0 59 20l10 -16q-35 -24 -70 -24q-33 0 -52.5 20t-19.5 54q0 41 29.5 74t93.5 74v690h20v-699z" />
    <glyph glyph-name="iogonek" unicode="&#x12f;" horiz-adv-x="240" 
d="M120 692q10 0 18 -8t8 -18t-8 -18t-18 -8t-18 8t-8 18t8 18t18 8zM110 9v508h20v-517q-65 -43 -93.5 -73.5t-28.5 -65.5q0 -27 14.5 -40.5t37.5 -13.5q30 0 59 20l10 -16q-34 -24 -70 -24q-33 0 -52.5 20t-19.5 54q0 41 29.5 74t93.5 74z" />
    <glyph glyph-name="Idotaccent" unicode="&#x130;" horiz-adv-x="276" 
d="M138 828q10 0 18 -8t8 -18t-8 -18t-18 -8t-18 8t-8 18t8 18t18 8zM128 699h20v-699h-20v699z" />
    <glyph glyph-name="dotlessi" unicode="&#x131;" horiz-adv-x="240" 
d="M110 517h20v-517h-20v517z" />
    <glyph glyph-name="IJ" unicode="&#x132;" horiz-adv-x="753" 
d="M128 699h20v-699h-20v699zM625 197q0 -95 -44.5 -146t-127.5 -51q-106 0 -174 98l14 14q63 -92 160 -92q74 0 113 45.5t39 131.5v482h-262v20h282v-502z" />
    <glyph glyph-name="ij" unicode="&#x133;" horiz-adv-x="475" 
d="M120 692q10 0 18 -8t8 -18t-8 -18t-18 -8t-18 8t-8 18t8 18t18 8zM355 692q11 0 18.5 -8t7.5 -18t-7.5 -18t-18.5 -8t-18.5 8t-7.5 18t7.5 18t18.5 8zM110 517h20v-517h-20v517zM194 -161q27 -11 55 -12q47 -1 71.5 35t24.5 107v548h20v-548q0 -81 -29.5 -122t-86.5 -40
q-32 1 -63 14z" />
    <glyph glyph-name="Jcircumflex" unicode="&#x134;" horiz-adv-x="459" 
d="M204 868l-88 -92h-26l98 110h32l98 -110h-26zM67 699h282v-502q0 -95 -44.5 -146t-127.5 -51q-106 0 -174 98l14 14q63 -92 160 -92q74 0 113 45.5t39 131.5v482h-262v20z" />
    <glyph glyph-name="jcircumflex" unicode="&#x135;" horiz-adv-x="219" 
d="M131 734l98 -110h-26l-88 92l-88 -92h-26l98 110h32zM105 -31v548h20v-548q0 -81 -29.5 -122t-86.5 -40q-32 1 -63 14l8 18q27 -11 55 -12q47 -1 71.5 35t24.5 107z" />
    <glyph glyph-name="Kcommaaccent" unicode="&#x136;" horiz-adv-x="670" 
d="M327 385l313 -385h-27l-300 370l-165 -179v-191h-20v699h20v-479l442 479h28zM285 -214l40 149h21l-43 -149h-18z" />
    <glyph glyph-name="kcommaaccent" unicode="&#x137;" horiz-adv-x="538" 
d="M295 317l227 -317h-24l-217 302l-146 -148v-154h-20v742h20v-557l329 332h28zM257 -214l40 149h21l-43 -149h-18z" />
    <glyph glyph-name="kgreenlandic" unicode="&#x138;" horiz-adv-x="535" 
d="M495 0l-217 302l-148 -150v-152h-20v517h20v-334l331 334h28l-197 -200l227 -317h-24z" />
    <glyph glyph-name="Lacute" unicode="&#x139;" horiz-adv-x="491" 
d="M256 891l19 -10l-129 -105l-26 5zM128 699h20v-679h313v-20h-333v699z" />
    <glyph glyph-name="lacute" unicode="&#x13a;" horiz-adv-x="250" 
d="M233 964l19 -10l-129 -105l-26 5zM115 742h20v-742h-20v742z" />
    <glyph glyph-name="Lcommaaccent" unicode="&#x13b;" horiz-adv-x="491" 
d="M128 699h20v-679h313v-20h-333v699zM285 -65h21l-43 -149h-18z" />
    <glyph glyph-name="lcommaaccent" unicode="&#x13c;" horiz-adv-x="250" 
d="M115 742h20v-742h-20v742zM115 -65h21l-43 -149h-18z" />
    <glyph glyph-name="Lcaron" unicode="&#x13d;" horiz-adv-x="491" 
d="M128 699h20v-679h313v-20h-333v699zM441 699h20l-2 -179h-18v179z" />
    <glyph glyph-name="lcaron" unicode="&#x13e;" horiz-adv-x="250" 
d="M115 742h20v-742h-20v742zM235 742h20l-2 -179h-18v179z" />
    <glyph glyph-name="Ldot" unicode="&#x13f;" horiz-adv-x="491" 
d="M128 699h20v-679h313v-20h-333v699zM381 416q11 0 18.5 -8t7.5 -18t-7.5 -18t-18.5 -8t-18.5 8t-7.5 18t7.5 18t18.5 8z" />
    <glyph glyph-name="ldot" unicode="&#x140;" horiz-adv-x="296" 
d="M115 742h20v-742h-20v742zM264 424q10 0 18 -8t8 -18t-8 -18t-18 -8t-18 8t-8 18t8 18t18 8z" />
    <glyph glyph-name="Lslash" unicode="&#x141;" horiz-adv-x="503" 
d="M160 20h313v-20h-333v354l-110 -61v23l110 61v322h20v-311l130 72v-23l-130 -72v-345z" />
    <glyph glyph-name="lslash" unicode="&#x142;" horiz-adv-x="334" 
d="M310 460v-23l-120 -66v-371h-20v359l-120 -66v23l120 66v360h20v-348z" />
    <glyph glyph-name="Nacute" unicode="&#x143;" horiz-adv-x="799" 
d="M542 881l-129 -105l-26 5l136 110zM651 699h20v-699h-30l-493 679v-679h-20v699h30l493 -679v679z" />
    <glyph glyph-name="nacute" unicode="&#x144;" horiz-adv-x="644" 
d="M469 729l-129 -105l-26 5l136 110zM348 517q96 0 149.5 -54t53.5 -150v-313h-20v313q0 87 -48.5 135.5t-134.5 48.5q-96 -2 -153 -59t-65 -157v-281h-20v517h20v-146q25 69 81 107t137 39z" />
    <glyph glyph-name="Ncommaaccent" unicode="&#x145;" horiz-adv-x="799" 
d="M651 699h20v-699h-30l-493 679v-679h-20v699h30l493 -679v679zM345 -214l40 149h21l-43 -149h-18z" />
    <glyph glyph-name="ncommaaccent" unicode="&#x146;" horiz-adv-x="644" 
d="M348 517q96 0 149.5 -54t53.5 -150v-313h-20v313q0 87 -48.5 135.5t-134.5 48.5q-96 -2 -153 -59t-65 -157v-281h-20v517h20v-146q25 69 81 107t137 39zM275 -214l40 149h21l-43 -149h-18z" />
    <glyph glyph-name="Ncaron" unicode="&#x147;" horiz-adv-x="799" 
d="M431 776h-32l-98 110h26l88 -92l88 92h26zM651 699h20v-699h-30l-493 679v-679h-20v699h30l493 -679v679z" />
    <glyph glyph-name="ncaron" unicode="&#x148;" horiz-adv-x="644" 
d="M358 624h-32l-98 110h26l88 -92l88 92h26zM348 517q96 0 149.5 -54t53.5 -150v-313h-20v313q0 87 -48.5 135.5t-134.5 48.5q-96 -2 -153 -59t-65 -157v-281h-20v517h20v-146q25 69 81 107t137 39z" />
    <glyph glyph-name="napostrophe" unicode="&#x149;" horiz-adv-x="683" 
d="M30 440l5 259h20l-7 -259h-18zM387 517q96 0 149.5 -54t53.5 -150v-313h-20v313q0 87 -48.5 135.5t-134.5 48.5q-96 -2 -153 -59t-65 -157v-281h-20v517h20v-146q25 69 81 107t137 39z" />
    <glyph glyph-name="Eng" unicode="&#x14a;" horiz-adv-x="799" 
d="M651 699h20v-699q0 -95 -44.5 -145.5t-127.5 -50.5q-106 0 -174 98l14 14q63 -92 160 -92q73 0 112 45t40 131h-10l-493 679v-679h-20v699h30l493 -679v679z" />
    <glyph glyph-name="eng" unicode="&#x14b;" horiz-adv-x="644" 
d="M348 517q96 0 149.5 -54t53.5 -150v-345q0 -81 -29.5 -121.5t-86.5 -39.5q-56 2 -102 37l12 16q39 -31 90 -33q47 -1 71.5 35t24.5 106v345q0 87 -48.5 135.5t-134.5 48.5q-96 -2 -153 -59t-65 -157v-281h-20v517h20v-146q25 69 81 107t137 39z" />
    <glyph glyph-name="Omacron" unicode="&#x14c;" horiz-adv-x="818" 
d="M250 801h317v-20h-317v20zM409 703q148 0 253.5 -103.5t105.5 -248.5q0 -146 -105.5 -250t-253.5 -104t-253.5 104t-105.5 250q0 145 105.5 248.5t253.5 103.5zM409 683q-139 0 -239 -97.5t-100 -234.5t100 -235.5t239 -98.5t239 98.5t100 235.5t-100 234.5t-239 97.5z
" />
    <glyph glyph-name="omacron" unicode="&#x14d;" horiz-adv-x="606" 
d="M174 677h257v-20h-257v20zM303 517q108 0 179.5 -73t71.5 -185q0 -113 -71.5 -186t-179.5 -73t-179.5 73t-71.5 186q0 112 71.5 185t179.5 73zM303 497q-101 0 -166 -66.5t-65 -171.5t65 -172t166 -67t166 67t65 172t-65 171.5t-166 66.5z" />
    <glyph glyph-name="Obreve" unicode="&#x14e;" horiz-adv-x="818" 
d="M324 881q2 -36 26 -60.5t59 -24.5t59 24.5t26 60.5h20q-1 -45 -31.5 -75t-73.5 -30t-73.5 30t-31.5 75h20zM409 703q148 0 253.5 -103.5t105.5 -248.5q0 -146 -105.5 -250t-253.5 -104t-253.5 104t-105.5 250q0 145 105.5 248.5t253.5 103.5zM409 683q-139 0 -239 -97.5
t-100 -234.5t100 -235.5t239 -98.5t239 98.5t100 235.5t-100 234.5t-239 97.5z" />
    <glyph glyph-name="obreve" unicode="&#x14f;" horiz-adv-x="606" 
d="M218 726q2 -36 26 -60.5t59 -24.5t59 24.5t26 60.5h20q-1 -45 -31.5 -75t-73.5 -30t-73.5 30t-31.5 75h20zM303 517q108 0 179.5 -73t71.5 -185q0 -113 -71.5 -186t-179.5 -73t-179.5 73t-71.5 186q0 112 71.5 185t179.5 73zM303 497q-101 0 -166 -66.5t-65 -171.5
t65 -172t166 -67t166 67t65 172t-65 171.5t-166 66.5z" />
    <glyph glyph-name="Ohungarumlaut" unicode="&#x150;" horiz-adv-x="818" 
d="M424 891l17 -11l-94 -104l-22 5zM543 891l17 -11l-94 -104l-22 5zM409 703q148 0 253.5 -103.5t105.5 -248.5q0 -146 -105.5 -250t-253.5 -104t-253.5 104t-105.5 250q0 145 105.5 248.5t253.5 103.5zM409 683q-139 0 -239 -97.5t-100 -234.5t100 -235.5t239 -98.5
t239 98.5t100 235.5t-100 234.5t-239 97.5z" />
    <glyph glyph-name="ohungarumlaut" unicode="&#x151;" horiz-adv-x="606" 
d="M318 739l17 -11l-94 -104l-22 5zM437 739l17 -11l-94 -104l-22 5zM303 517q108 0 179.5 -73t71.5 -185q0 -113 -71.5 -186t-179.5 -73t-179.5 73t-71.5 186q0 112 71.5 185t179.5 73zM303 497q-101 0 -166 -66.5t-65 -171.5t65 -172t166 -67t166 67t65 172t-65 171.5
t-166 66.5z" />
    <glyph glyph-name="OE" unicode="&#x152;" horiz-adv-x="1089" 
d="M593 20h431v-20h-615q-148 0 -253.5 103t-105.5 247t105.5 246.5t253.5 102.5h601v-20h-417v-309h371v-20h-371v-330zM409 19l164 -2v663h-164q-140 0 -240 -97t-100 -233q0 -137 100 -234t240 -97z" />
    <glyph glyph-name="oe" unicode="&#x153;" horiz-adv-x="1075" 
d="M786 20q115 0 184 75l14 -14q-76 -81 -198 -81q-89 0 -154 50t-87 134q-23 -84 -88 -134t-154 -50q-108 0 -179.5 73t-71.5 186q0 112 71.5 185t179.5 73q89 0 154 -50t88 -133q22 83 87 133t154 50q107 0 174 -72.5t67 -185.5h-472q0 -105 65 -172t166 -67zM303 20
q101 0 166 67t65 172t-65 171.5t-166 66.5t-166 -66.5t-65 -171.5t65 -172t166 -67zM786 497q-96 0 -160 -60.5t-70 -157.5h451q-7 98 -66.5 158t-154.5 60z" />
    <glyph glyph-name="Racute" unicode="&#x154;" horiz-adv-x="722" 
d="M468 881l-129 -105l-26 5l136 110zM632 472q0 -90 -47 -147.5t-134 -76.5l181 -248h-25l-178 244q-40 -4 -64 -4h-217v-240h-20v699h237q127 0 197 -59.5t70 -167.5zM148 260h217q118 0 182.5 55.5t64.5 156.5q0 99 -64.5 153t-182.5 54h-217v-419z" />
    <glyph glyph-name="racute" unicode="&#x155;" horiz-adv-x="338" 
d="M343 729l-129 -105l-26 5l136 110zM130 376q49 138 198 141v-20q-88 -2 -139.5 -58.5t-58.5 -155.5v-283h-20v517h20v-141z" />
    <glyph glyph-name="Rcommaaccent" unicode="&#x156;" horiz-adv-x="722" 
d="M632 472q0 -90 -47 -147.5t-134 -76.5l181 -248h-25l-178 244q-40 -4 -64 -4h-217v-240h-20v699h237q127 0 197 -59.5t70 -167.5zM148 260h217q118 0 182.5 55.5t64.5 156.5q0 99 -64.5 153t-182.5 54h-217v-419zM311 -214l40 149h21l-43 -149h-18z" />
    <glyph glyph-name="rcommaaccent" unicode="&#x157;" horiz-adv-x="338" 
d="M130 376q49 138 198 141v-20q-88 -2 -139.5 -58.5t-58.5 -155.5v-283h-20v517h20v-141zM70 -214l40 149h21l-43 -149h-18z" />
    <glyph glyph-name="Rcaron" unicode="&#x158;" horiz-adv-x="722" 
d="M357 776h-32l-98 110h26l88 -92l88 92h26zM632 472q0 -90 -47 -147.5t-134 -76.5l181 -248h-25l-178 244q-40 -4 -64 -4h-217v-240h-20v699h237q127 0 197 -59.5t70 -167.5zM148 260h217q118 0 182.5 55.5t64.5 156.5q0 99 -64.5 153t-182.5 54h-217v-419z" />
    <glyph glyph-name="rcaron" unicode="&#x159;" horiz-adv-x="338" 
d="M232 624h-32l-98 110h26l88 -92l88 92h26zM130 376q49 138 198 141v-20q-88 -2 -139.5 -58.5t-58.5 -155.5v-283h-20v517h20v-141z" />
    <glyph glyph-name="Sacute" unicode="&#x15a;" horiz-adv-x="593" 
d="M395 891l19 -10l-129 -105l-26 5zM478 636q-73 47 -176 47q-92 0 -147.5 -37.5t-55.5 -99.5q0 -48 23 -81t60 -51.5t82 -32t89.5 -28.5t81.5 -35.5t59.5 -58t22.5 -90.5q0 -78 -64.5 -125t-172.5 -47q-66 0 -130.5 27t-108.5 72l14 14q40 -43 101 -68t124 -25
q99 0 158 41.5t59 110.5q0 49 -22.5 83.5t-59.5 53t-81.5 32.5l-89.5 29t-82 35t-60 56.5t-23 88.5q0 71 61 113.5t162 42.5q107 0 186 -51z" />
    <glyph glyph-name="sacute" unicode="&#x15b;" horiz-adv-x="427" 
d="M321 739l19 -10l-129 -105l-26 5zM350 463q-53 34 -127 34q-64 0 -104.5 -26t-40.5 -76q0 -36 23 -60.5t57.5 -36l75 -25t75 -26.5t57.5 -42t23 -71q0 -66 -50.5 -100t-123.5 -34q-113 0 -185 72l13 15q69 -67 172 -67q65 0 108.5 27.5t45.5 81.5q1 37 -21 62.5t-57 38
l-75.5 26t-75.5 27t-58.5 41.5t-23.5 69q0 61 46.5 92.5t117.5 31.5q74 0 138 -37z" />
    <glyph glyph-name="Scircumflex" unicode="&#x15c;" horiz-adv-x="593" 
d="M287 868l-88 -92h-26l98 110h32l98 -110h-26zM99 546q0 -48 23 -81t60 -51.5t82 -32t89.5 -28.5t81.5 -35.5t59.5 -58t22.5 -90.5q0 -78 -64.5 -125t-172.5 -47q-66 0 -130.5 27t-108.5 72l14 14q40 -43 101 -68t124 -25q99 0 158 41.5t59 110.5q0 49 -22.5 83.5
t-59.5 53t-81.5 32.5l-89.5 29t-82 35t-60 56.5t-23 88.5q0 71 61 113.5t162 42.5q107 0 186 -51l-10 -16q-73 47 -176 47q-92 0 -147.5 -37.5t-55.5 -99.5z" />
    <glyph glyph-name="scircumflex" unicode="&#x15d;" horiz-adv-x="427" 
d="M213 716l-88 -92h-26l98 110h32l98 -110h-26zM78 395q0 -36 23 -60.5t57.5 -36l75 -25t75 -26.5t57.5 -42t23 -71q0 -66 -50.5 -100t-123.5 -34q-113 0 -185 72l13 15q69 -67 172 -67q65 0 108.5 27.5t45.5 81.5q1 37 -21 62.5t-57 38l-75.5 26t-75.5 27t-58.5 41.5
t-23.5 69q0 61 46.5 92.5t117.5 31.5q74 0 138 -37l-10 -17q-53 34 -127 34q-64 0 -104.5 -26t-40.5 -76z" />
    <glyph glyph-name="Scedilla" unicode="&#x15e;" horiz-adv-x="593" 
d="M99 546q0 -48 23 -81t60 -51.5t82 -32t89.5 -28.5t81.5 -35.5t59.5 -58t22.5 -90.5q0 -72 -55 -117.5t-148 -53.5l-16 -54q38 -1 59.5 -22.5t21.5 -51.5q0 -33 -23.5 -58t-65.5 -25q-44 0 -73 22l8 20q28 -21 65 -21q32 0 50 18.5t18 43.5q0 22 -16 38.5t-42 16.5h-29
l21 72h-12q-66 0 -130.5 27t-108.5 72l14 14q40 -43 101 -68t124 -25q99 0 158 41.5t59 110.5q0 49 -22.5 83.5t-59.5 53t-81.5 32.5l-89.5 29t-82 35t-60 56.5t-23 88.5q0 71 61 113.5t162 42.5q107 0 186 -51l-10 -16q-73 47 -176 47q-92 0 -147.5 -37.5t-55.5 -99.5z" />
    <glyph glyph-name="scedilla" unicode="&#x15f;" horiz-adv-x="427" 
d="M389 134q0 -64 -49 -98.5t-120 -35.5l-16 -56q38 -1 59.5 -22.5t21.5 -51.5q0 -33 -23.5 -58t-65.5 -25q-44 0 -73 22l8 20q28 -21 65 -21q32 0 50 18.5t18 43.5q0 22 -16 38.5t-42 16.5h-29l22 75q-103 6 -169 72l13 15q69 -67 172 -67q65 0 108.5 27.5t45.5 81.5
q1 37 -21 62.5t-57 38l-75.5 26t-75.5 27t-58.5 41.5t-23.5 69q0 61 46.5 92.5t117.5 31.5q74 0 138 -37l-10 -17q-53 34 -127 34q-64 0 -104.5 -26t-40.5 -76q0 -36 23 -60.5t57.5 -36l75 -25t75 -26.5t57.5 -42t23 -71z" />
    <glyph glyph-name="Scaron" unicode="&#x160;" horiz-adv-x="593" 
d="M303 776h-32l-98 110h26l88 -92l88 92h26zM99 546q0 -48 23 -81t60 -51.5t82 -32t89.5 -28.5t81.5 -35.5t59.5 -58t22.5 -90.5q0 -78 -64.5 -125t-172.5 -47q-66 0 -130.5 27t-108.5 72l14 14q40 -43 101 -68t124 -25q99 0 158 41.5t59 110.5q0 49 -22.5 83.5t-59.5 53
t-81.5 32.5l-89.5 29t-82 35t-60 56.5t-23 88.5q0 71 61 113.5t162 42.5q107 0 186 -51l-10 -16q-73 47 -176 47q-92 0 -147.5 -37.5t-55.5 -99.5z" />
    <glyph glyph-name="scaron" unicode="&#x161;" horiz-adv-x="427" 
d="M229 624h-32l-98 110h26l88 -92l88 92h26zM78 395q0 -36 23 -60.5t57.5 -36l75 -25t75 -26.5t57.5 -42t23 -71q0 -66 -50.5 -100t-123.5 -34q-113 0 -185 72l13 15q69 -67 172 -67q65 0 108.5 27.5t45.5 81.5q1 37 -21 62.5t-57 38l-75.5 26t-75.5 27t-58.5 41.5
t-23.5 69q0 61 46.5 92.5t117.5 31.5q74 0 138 -37l-10 -17q-53 34 -127 34q-64 0 -104.5 -26t-40.5 -76z" />
    <glyph glyph-name="uni0162" unicode="&#x162;" horiz-adv-x="526" 
d="M513 679h-240v-677l7 -2l-16 -56q38 -1 59.5 -22.5t21.5 -51.5q0 -33 -23.5 -58t-65.5 -25q-44 0 -73 22l8 20q28 -21 65 -21q32 0 50 18.5t18 43.5q0 22 -16 38.5t-42 16.5h-29l22 75h-6v679h-240v20h500v-20z" />
    <glyph glyph-name="uni0163" unicode="&#x163;" horiz-adv-x="362" 
d="M229 -56q38 -1 59.5 -22.5t21.5 -51.5q0 -33 -23.5 -58t-65.5 -25q-44 0 -73 22l8 20q28 -21 65 -21q32 0 50 18.5t18 43.5q0 22 -16 38.5t-42 16.5h-29l22 75q-98 8 -98 142v345h-76v20h76v123h20v-123h182v-20h-182v-345q0 -60 23 -91.5t67 -30.5q51 2 90 33l12 -16
q-43 -33 -94 -37h1z" />
    <glyph glyph-name="Tcaron" unicode="&#x164;" horiz-adv-x="526" 
d="M279 776h-32l-98 110h26l88 -92l88 92h26zM13 699h500v-20h-240v-679h-20v679h-240v20z" />
    <glyph glyph-name="tcaron" unicode="&#x165;" horiz-adv-x="362" 
d="M262 742l-5 -156h-15v156h20zM326 53l12 -16q-46 -35 -102 -37q-54 -1 -82 35.5t-28 106.5v345h-76v20h76v123h20v-123h182v-20h-182v-345q0 -60 23 -91.5t67 -30.5q51 2 90 33z" />
    <glyph glyph-name="Tbar" unicode="&#x166;" horiz-adv-x="526" 
d="M513 679h-240v-319h168v-20h-168v-340h-20v340h-168v20h168v319h-240v20h500v-20z" />
    <glyph glyph-name="tbar" unicode="&#x167;" horiz-adv-x="362" 
d="M326 53l12 -16q-46 -35 -102 -37q-54 -1 -82 35.5t-28 106.5v155h-77v20h77v170h-76v20h76v123h20v-123h182v-20h-182v-170h181v-20h-181v-155q0 -60 23 -91.5t67 -30.5q51 2 90 33z" />
    <glyph glyph-name="Utilde" unicode="&#x168;" horiz-adv-x="774" 
d="M519 858q0 -37 -19 -59t-52 -22q-29 0 -65.5 32.5t-59.5 32.5q-24 0 -37 -16t-13 -45h-19q0 37 19 59t52 22q29 0 65.5 -32.5t59.5 -32.5q24 0 37 16t13 45h19zM130 281q0 -126 67.5 -195t189.5 -69t189.5 69t67.5 195v418h20v-418q0 -136 -72.5 -210t-204.5 -74
t-204.5 74t-72.5 210v418h20v-418z" />
    <glyph glyph-name="utilde" unicode="&#x169;" horiz-adv-x="637" 
d="M255 694q-24 0 -37 -16t-13 -45h-19q0 37 19 59t52 22q29 0 65.5 -32.5t59.5 -32.5q24 0 37 16t13 45h19q0 -37 -19 -59t-52 -22q-29 0 -65.5 32.5t-59.5 32.5zM507 517h20v-517h-20v151q-24 -72 -79 -111t-136 -40q-94 0 -147 54t-53 150v313h20v-313q0 -87 47.5 -135.5
t132.5 -48.5q101 2 158 66.5t57 177.5v253z" />
    <glyph glyph-name="Umacron" unicode="&#x16a;" horiz-adv-x="774" 
d="M228 801h317v-20h-317v20zM130 281q0 -126 67.5 -195t189.5 -69t189.5 69t67.5 195v418h20v-418q0 -136 -72.5 -210t-204.5 -74t-204.5 74t-72.5 210v418h20v-418z" />
    <glyph glyph-name="umacron" unicode="&#x16b;" horiz-adv-x="637" 
d="M447 677v-20h-257v20h257zM507 517h20v-517h-20v151q-24 -72 -79 -111t-136 -40q-94 0 -147 54t-53 150v313h20v-313q0 -87 47.5 -135.5t132.5 -48.5q101 2 158 66.5t57 177.5v253z" />
    <glyph glyph-name="Ubreve" unicode="&#x16c;" horiz-adv-x="774" 
d="M302 881q2 -36 26 -60.5t59 -24.5t59 24.5t26 60.5h20q-1 -45 -31.5 -75t-73.5 -30t-73.5 30t-31.5 75h20zM130 281q0 -126 67.5 -195t189.5 -69t189.5 69t67.5 195v418h20v-418q0 -136 -72.5 -210t-204.5 -74t-204.5 74t-72.5 210v418h20v-418z" />
    <glyph glyph-name="ubreve" unicode="&#x16d;" horiz-adv-x="637" 
d="M319 621q-43 0 -73.5 30t-31.5 75h20q2 -36 26 -60.5t59 -24.5t59 24.5t26 60.5h20q-1 -45 -31.5 -75t-73.5 -30zM507 517h20v-517h-20v151q-24 -72 -79 -111t-136 -40q-94 0 -147 54t-53 150v313h20v-313q0 -87 47.5 -135.5t132.5 -48.5q101 2 158 66.5t57 177.5v253z
" />
    <glyph glyph-name="Uring" unicode="&#x16e;" horiz-adv-x="774" 
d="M386 936q37 0 63.5 -26t26.5 -61t-26.5 -60.5t-63.5 -25.5q-36 0 -62.5 25.5t-26.5 60.5t26.5 61t62.5 26zM386 918q-29 0 -50.5 -20.5t-21.5 -48.5t21.5 -48t50.5 -20t51 20t22 48t-22 48.5t-51 20.5zM130 281q0 -126 67.5 -195t189.5 -69t189.5 69t67.5 195v418h20
v-418q0 -136 -72.5 -210t-204.5 -74t-204.5 74t-72.5 210v418h20v-418z" />
    <glyph glyph-name="uring" unicode="&#x16f;" horiz-adv-x="637" 
d="M318 581q-36 0 -62.5 25.5t-26.5 60.5t26.5 61t62.5 26q37 0 63.5 -26t26.5 -61t-26.5 -60.5t-63.5 -25.5zM318 736q-29 0 -50.5 -20.5t-21.5 -48.5t21.5 -48t50.5 -20t51 20t22 48t-22 48.5t-51 20.5zM507 517h20v-517h-20v151q-24 -72 -79 -111t-136 -40q-94 0 -147 54
t-53 150v313h20v-313q0 -87 47.5 -135.5t132.5 -48.5q101 2 158 66.5t57 177.5v253z" />
    <glyph glyph-name="Uhungarumlaut" unicode="&#x170;" horiz-adv-x="774" 
d="M402 891l17 -11l-94 -104l-22 5zM521 891l17 -11l-94 -104l-22 5zM130 281q0 -126 67.5 -195t189.5 -69t189.5 69t67.5 195v418h20v-418q0 -136 -72.5 -210t-204.5 -74t-204.5 74t-72.5 210v418h20v-418z" />
    <glyph glyph-name="uhungarumlaut" unicode="&#x171;" horiz-adv-x="637" 
d="M351 728l-94 -104l-22 5l99 110zM470 728l-94 -104l-22 5l99 110zM507 517h20v-517h-20v151q-24 -72 -79 -111t-136 -40q-94 0 -147 54t-53 150v313h20v-313q0 -87 47.5 -135.5t132.5 -48.5q101 2 158 66.5t57 177.5v253z" />
    <glyph glyph-name="Uogonek" unicode="&#x172;" horiz-adv-x="774" 
d="M644 699h20v-418q0 -162 -101 -234q-138 -112 -138 -187q0 -26 14.5 -39.5t37.5 -13.5q30 0 59 20l10 -16q-35 -24 -70 -24q-32 0 -52 20t-20 54q0 65 92 152q-47 -16 -109 -16q-132 0 -204.5 74t-72.5 210v418h20v-418q0 -126 67.5 -195t189.5 -69t189.5 69t67.5 195
v418z" />
    <glyph glyph-name="uogonek" unicode="&#x173;" horiz-adv-x="637" 
d="M527 0q-65 -43 -93.5 -73.5t-28.5 -65.5q0 -27 14.5 -40.5t37.5 -13.5q30 0 59 20l10 -16q-34 -24 -70 -24q-33 0 -52.5 20t-19.5 54q0 41 29.5 74t93.5 74v142q-24 -72 -79 -111t-136 -40q-94 0 -147 54t-53 150v313h20v-313q0 -87 47.5 -135.5t132.5 -48.5
q101 2 158 66.5t57 177.5v253h20v-517z" />
    <glyph glyph-name="Wcircumflex" unicode="&#x174;" horiz-adv-x="987" 
d="M494 868l-88 -92h-26l98 110h32l98 -110h-26zM954 699h23l-237 -699h-21l-225 671l-226 -671h-21l-237 699h23l225 -676l224 676h23l225 -676z" />
    <glyph glyph-name="wcircumflex" unicode="&#x175;" horiz-adv-x="818" 
d="M409 716l-88 -92h-26l98 110h32l98 -110h-26zM795 517h23l-197 -517h-22l-184 489l-186 -489h-22l-197 517h24l185 -494l183 494h24l185 -494z" />
    <glyph glyph-name="Ycircumflex" unicode="&#x176;" horiz-adv-x="606" 
d="M303 868l-88 -92h-26l98 110h32l98 -110h-26zM596 699l-281 -430v-269h-20v269l-285 430h24l271 -410l267 410h24z" />
    <glyph glyph-name="ycircumflex" unicode="&#x177;" horiz-adv-x="456" 
d="M233 716l-88 -92h-26l98 110h32l98 -110h-26zM432 517h24l-242 -592q-49 -119 -135 -119q-55 0 -92 26l9 17q34 -23 81 -23q79 0 121 106l26 66l-214 519h23l201 -494z" />
    <glyph glyph-name="Ydieresis" unicode="&#x178;" horiz-adv-x="606" 
d="M227 776q-11 0 -18.5 8t-7.5 18t7.5 18t18.5 8t18.5 -8t7.5 -18t-7.5 -18t-18.5 -8zM379 776q-11 0 -18.5 8t-7.5 18t7.5 18t18.5 8t18.5 -8t7.5 -18t-7.5 -18t-18.5 -8zM596 699l-281 -430v-269h-20v269l-285 430h24l271 -410l267 410h24z" />
    <glyph glyph-name="Zacute" unicode="&#x179;" horiz-adv-x="650" 
d="M439 891l19 -10l-129 -105l-26 5zM66 699h529v-25l-523 -654h526v-20h-546v25l523 654h-509v20z" />
    <glyph glyph-name="zacute" unicode="&#x17a;" horiz-adv-x="510" 
d="M363 739l19 -10l-129 -105l-26 5zM71 517l381 -1v-25l-370 -471l377 -1v-20l-397 1v25l370 471l-361 1v20z" />
    <glyph glyph-name="Zdotaccent" unicode="&#x17b;" horiz-adv-x="650" 
d="M331 828q11 0 18.5 -8t7.5 -18t-7.5 -18t-18.5 -8t-18.5 8t-7.5 18t7.5 18t18.5 8zM66 699h529v-25l-523 -654h526v-20h-546v25l523 654h-509v20z" />
    <glyph glyph-name="zdotaccent" unicode="&#x17c;" horiz-adv-x="510" 
d="M255 692q11 0 18.5 -8t7.5 -18t-7.5 -18t-18.5 -8t-18.5 8t-7.5 18t7.5 18t18.5 8zM71 517l381 -1v-25l-370 -471l377 -1v-20l-397 1v25l370 471l-361 1v20z" />
    <glyph glyph-name="Zcaron" unicode="&#x17d;" horiz-adv-x="650" 
d="M347 776h-32l-98 110h26l88 -92l88 92h26zM72 20h526v-20h-546v25l523 654h-509v20h529v-25z" />
    <glyph glyph-name="zcaron" unicode="&#x17e;" horiz-adv-x="510" 
d="M271 624h-32l-98 110h26l88 -92l88 92h26zM82 20l377 -1v-20l-397 1v25l370 471l-361 1v20l381 -1v-25z" />
    <glyph glyph-name="uni018F" unicode="&#x18f;" horiz-adv-x="790" 
d="M391 -3q-144 0 -246.5 104t-102.5 249h678q0 137 -96.5 235t-232.5 98q-154 0 -256 -115l-13 15q50 56 120 88t149 32q144 0 246.5 -103.5t102.5 -248.5q0 -146 -102.5 -250t-246.5 -104zM391 17q130 0 225 91.5t103 221.5h-656q8 -130 103 -221.5t225 -91.5z" />
    <glyph glyph-name="florin" unicode="&#x192;" horiz-adv-x="310" 
d="M284 732q-48 1 -82 -35t-41 -97l-17 -138h169l-2 -20h-169l-59 -484q-9 -74 -39.5 -113.5t-85.5 -38.5q-48 2 -87 37l14 16q31 -31 75 -33q46 -1 70.5 33.5t32.5 98.5l59 484h-64l2 20h64l17 138q9 70 48.5 111.5t96.5 40.5q54 -2 98 -37l-14 -16q-38 31 -86 33z" />
    <glyph glyph-name="Ohorn" unicode="&#x1a0;" horiz-adv-x="846" 
d="M611 641q73 -49 115 -125.5t42 -164.5q0 -146 -105.5 -250t-253.5 -104t-253.5 104t-105.5 250q0 145 105.5 248.5t253.5 103.5q86 0 160 -37q24 -7 46 -7q54 0 74 51.5t-14 95.5l20 10q39 -57 12.5 -116t-90.5 -59h-6zM409 17q139 0 239 98.5t100 235.5t-100 234.5
t-239 97.5t-239 -97.5t-100 -234.5t100 -235.5t239 -98.5z" />
    <glyph glyph-name="ohorn" unicode="&#x1a1;" horiz-adv-x="628" 
d="M465 460q89 -74 89 -201q0 -113 -71.5 -186t-179.5 -73t-179.5 73t-71.5 186q0 112 71.5 185t179.5 73q71 0 127 -32q25 -7 46 -7q54 0 74 51.5t-14 95.5l20 10q39 -57 12.5 -116t-90.5 -59h-13zM303 20q101 0 166 67t65 172t-65 171.5t-166 66.5t-166 -66.5t-65 -171.5
t65 -172t166 -67z" />
    <glyph glyph-name="Uhorn" unicode="&#x1af;" horiz-adv-x="783" 
d="M720 816q23 -46 7.5 -86.5t-63.5 -46.5v-402q0 -136 -72.5 -210t-204.5 -74t-204.5 74t-72.5 210v418h20v-418q0 -126 67.5 -195t189.5 -69t189.5 69t67.5 195v418h7q46 0 59 35.5t-9 73.5z" />
    <glyph glyph-name="uhorn" unicode="&#x1b0;" horiz-adv-x="635" 
d="M583 634q23 -46 7.5 -86.5t-63.5 -46.5v-501h-20v151q-24 -72 -79 -111t-136 -40q-94 0 -147 54t-53 150v313h20v-313q0 -87 47.5 -135.5t132.5 -48.5q101 2 158 66.5t57 177.5v253h7q46 0 59 35.5t-9 73.5z" />
    <glyph glyph-name="uni01C4" unicode="&#x1c4;" horiz-adv-x="1461" 
d="M1158 776h-32l-98 110h26l88 -92l88 92h26zM403 699q148 0 253 -102.5t105 -247.5q0 -144 -105 -246.5t-253 -102.5h-275v699h275zM883 20h526v-20h-546v25l523 654h-509v20h529v-25zM403 20q139 0 238.5 96.5t99.5 232.5t-99 233t-239 97h-255v-659h255z" />
    <glyph glyph-name="uni01C5" unicode="&#x1c5;" horiz-adv-x="1321" 
d="M1082 624h-32l-98 110h26l88 -92l88 92h26zM403 699q148 0 253 -102.5t105 -247.5q0 -144 -105 -246.5t-253 -102.5h-275v699h275zM403 20q139 0 238.5 96.5t99.5 232.5t-99 233t-239 97h-255v-659h255zM893 20l377 -1v-20l-397 1v25l370 471l-361 1v20l381 -1v-25z" />
    <glyph glyph-name="uni01C6" unicode="&#x1c6;" horiz-adv-x="1183" 
d="M538 365v377h20v-742h-20v152q-29 -71 -90.5 -112.5t-142.5 -41.5q-109 0 -181 73.5t-72 186.5t71.5 187t181.5 74q81 0 142.5 -41.5t90.5 -112.5zM944 624h-32l-98 110h26l88 -92l88 92h26zM755 20l377 -1v-20l-397 1v25l370 471l-361 1v20l381 -1v-25zM305 18
q101 0 167 68t66 172t-66 172.5t-167 68.5t-167 -68.5t-66 -172.5t66 -172t167 -68z" />
    <glyph glyph-name="uni01C7" unicode="&#x1c7;" horiz-adv-x="950" 
d="M128 699h20v-679h313v-20h-333v699zM840 197q0 -95 -44.5 -146t-127.5 -51q-106 0 -174 98l14 14q63 -92 160 -92q74 0 113 45.5t39 131.5v482h-262v20h282v-502z" />
    <glyph glyph-name="uni01C8" unicode="&#x1c8;" horiz-adv-x="710" 
d="M128 699h20v-679h313v-20h-333v699zM606 692q10 0 18 -8t8 -18t-8 -18t-18 -8t-18 8t-8 18t8 18t18 8zM445 -161q27 -11 55 -12q47 -1 71.5 35t24.5 107v548h20v-548q0 -81 -29.5 -122t-86.5 -40q-32 1 -63 14z" />
    <glyph glyph-name="uni01C9" unicode="&#x1c9;" horiz-adv-x="469" 
d="M115 742h20v-742h-20v742zM365 692q11 0 18.5 -8t7.5 -18t-7.5 -18t-18.5 -8t-18.5 8t-7.5 18t7.5 18t18.5 8zM204 -161q27 -11 55 -12q47 -1 71.5 35t24.5 107v548h20v-548q0 -81 -29.5 -122t-86.5 -40q-32 1 -63 14z" />
    <glyph glyph-name="uni01CA" unicode="&#x1ca;" horiz-adv-x="1258" 
d="M651 20v679h20v-699h-30l-493 679v-679h-20v699h30zM866 699h282v-502q0 -95 -44.5 -146t-127.5 -51q-106 0 -174 98l14 14q63 -92 160 -92q74 0 113 45.5t39 131.5v482h-262v20z" />
    <glyph glyph-name="uni01CB" unicode="&#x1cb;" horiz-adv-x="1018" 
d="M651 20v679h20v-699h-30l-493 679v-679h-20v699h30zM914 692q10 0 18 -8t8 -18t-8 -18t-18 -8t-18 8t-8 18t8 18t18 8zM904 -31v548h20v-548q0 -81 -29.5 -122t-86.5 -40q-32 1 -63 14l8 18q27 -11 55 -12q47 -1 71.5 35t24.5 107z" />
    <glyph glyph-name="uni01CC" unicode="&#x1cc;" horiz-adv-x="863" 
d="M759 692q11 0 18.5 -8t7.5 -18t-7.5 -18t-18.5 -8t-18.5 8t-7.5 18t7.5 18t18.5 8zM348 517q96 0 149.5 -54t53.5 -150v-313h-20v313q0 87 -48.5 135.5t-134.5 48.5q-96 -2 -153 -59t-65 -157v-281h-20v517h20v-146q25 69 81 107t137 39zM749 -31v548h20v-548
q0 -81 -29.5 -122t-86.5 -40q-32 1 -63 14l8 18q27 -11 55 -12q47 -1 71.5 35t24.5 107z" />
    <glyph glyph-name="Gcaron" unicode="&#x1e6;" horiz-adv-x="760" 
d="M396 776h-32l-98 110h26l88 -92l88 92h26zM630 343h20v-254q-103 -92 -241 -92q-148 0 -253.5 104t-105.5 250q0 145 105.5 248.5t253.5 103.5q138 0 240 -91l-13 -13q-94 85 -227 85q-140 0 -240 -98t-100 -235q0 -138 100 -236.5t240 -98.5q127 0 221 81v246z" />
    <glyph glyph-name="gcaron" unicode="&#x1e7;" horiz-adv-x="630" 
d="M313 624h-32l-98 110h26l88 -92l88 92h26zM516 517h20v-459q0 -115 -67 -183.5t-179 -68.5q-116 0 -208 90l14 14q84 -84 194 -84q103 0 164.5 63t61.5 169v108q-27 -68 -86.5 -107.5t-136.5 -39.5q-104 0 -172.5 70.5t-68.5 177.5q0 109 68.5 179.5t172.5 70.5
q77 0 136.5 -40t86.5 -108v148zM293 38q97 0 160 65t63 164q0 100 -63 165.5t-160 65.5t-159.5 -65.5t-62.5 -165.5q0 -99 62.5 -164t159.5 -65z" />
    <glyph glyph-name="uni01EA" unicode="&#x1ea;" horiz-adv-x="818" 
d="M581 41q-131 -109 -131 -181q0 -26 14.5 -39.5t37.5 -13.5q30 0 59 20l10 -16q-35 -24 -70 -24q-32 0 -52 20t-20 54q0 66 95 155q-57 -19 -115 -19q-148 0 -253.5 104t-105.5 250q0 145 105.5 248.5t253.5 103.5t253.5 -103.5t105.5 -248.5q0 -98 -51 -181t-136 -129z
M409 17q88 0 167 44q1 1 2.5 2t2.5 2l1 -1q76 45 121 121.5t45 165.5q0 137 -100 234.5t-239 97.5t-239 -97.5t-100 -234.5t100 -235.5t239 -98.5z" />
    <glyph glyph-name="uni01EB" unicode="&#x1eb;" horiz-adv-x="606" 
d="M452 46q-138 -112 -138 -186q0 -26 14.5 -39.5t37.5 -13.5q30 0 59 20l10 -16q-35 -24 -70 -24q-32 0 -52 20t-20 54q0 65 92 152q-38 -13 -82 -13q-108 0 -179.5 73t-71.5 186q0 112 71.5 185t179.5 73t179.5 -73t71.5 -185q0 -139 -102 -213zM72 259q0 -105 65 -172
t166 -67t166 67t65 172t-65 171.5t-166 66.5t-166 -66.5t-65 -171.5z" />
    <glyph glyph-name="Aringacute" unicode="&#x1fa;" horiz-adv-x="686" 
d="M458 1068l-145 -81l-25 9l153 85zM342 763q-36 0 -62.5 25.5t-26.5 60.5t26.5 61t62.5 26q37 0 63.5 -26t26.5 -61t-26.5 -60.5t-63.5 -25.5zM342 918q-29 0 -50.5 -20.5t-21.5 -48.5t21.5 -48t50.5 -20t51 20t22 48t-22 48.5t-51 20.5zM653 0l-98 213h-424l-97 -213h-24
l320 699h22l324 -699h-23zM140 233h405l-204 443z" />
    <glyph glyph-name="aringacute" unicode="&#x1fb;" horiz-adv-x="562" 
d="M390 886l-145 -81l-25 9l153 85zM274 581q-36 0 -62.5 25.5t-26.5 60.5t26.5 61t62.5 26q37 0 63.5 -26t26.5 -61t-26.5 -60.5t-63.5 -25.5zM274 736q-29 0 -50.5 -20.5t-21.5 -48.5t21.5 -48t50.5 -20t51 20t22 48t-22 48.5t-51 20.5zM469 0h-20l-1 117
q-66 -117 -217 -117q-74 0 -121 42t-47 107q0 63 51.5 98t140.5 35h192v63q-1 73 -42.5 112.5t-121.5 39.5q-89 0 -181 -72l-12 16q96 76 193 76q88 0 135.5 -46t48.5 -126zM232 20q159 0 216 142l-1 100h-192q-82 0 -127 -29.5t-45 -83.5q0 -58 40.5 -93.5t108.5 -35.5z
" />
    <glyph glyph-name="AEacute" unicode="&#x1fc;" horiz-adv-x="987" 
d="M725 881l-129 -105l-26 5l136 110zM491 20h431v-20h-451v223h-303l-134 -223h-24l421 699h477v-20h-417v-309h371v-20h-371v-330zM180 243h291v436h-29z" />
    <glyph glyph-name="aeacute" unicode="&#x1fd;" horiz-adv-x="988" 
d="M602 739l19 -10l-129 -105l-26 5zM470 232q0 -84 69.5 -148t160.5 -64q114 0 183 75l14 -14q-76 -81 -197 -81q-81 0 -146 44.5t-92 115.5q-66 -160 -230 -160q-74 0 -121.5 42t-47.5 107q0 62 51.5 97.5t141.5 35.5h193l-1 63q-1 74 -43.5 113t-121.5 39q-88 0 -182 -72
l-12 16q98 76 194 76q83 0 131.5 -41.5t52.5 -116.5q28 73 90.5 115.5t142.5 42.5q106 0 173 -72t67 -186h-470v-27zM920 279q-7 99 -67 158.5t-153 59.5q-95 0 -159 -60.5t-70 -157.5h449zM256 262q-83 0 -128 -29.5t-45 -83.5q0 -58 41 -93.5t108 -35.5q83 0 134 38.5
t84 125.5v78h-194z" />
    <glyph glyph-name="Oslashacute" unicode="&#x1fe;" horiz-adv-x="818" 
d="M537 881l-129 -105l-26 5l136 110zM625 628q66 -48 104.5 -121t38.5 -157q0 -144 -105.5 -247t-253.5 -103q-109 0 -202 61l-86 -116h-21l93 126q-66 49 -104.5 122.5t-38.5 156.5q0 144 105.5 246.5t253.5 102.5q109 0 202 -61l86 117h21zM70 350q0 -79 36 -147.5
t99 -115.5l394 535q-85 57 -190 57q-140 0 -239.5 -96.5t-99.5 -232.5zM409 20q139 0 239 97t100 233q0 79 -36 147.5t-99 114.5l-394 -534q85 -58 190 -58z" />
    <glyph glyph-name="oslashacute" unicode="&#x1ff;" horiz-adv-x="606" 
d="M430 729l-129 -105l-26 5l136 110zM456 467q98 -74 98 -208q0 -113 -71.5 -186t-179.5 -73q-79 0 -139 40l-103 -150h-21l110 160q-98 74 -98 209q0 112 71.5 185t179.5 73q79 0 139 -40l103 150h21zM72 259q0 -125 89 -193l270 395q-56 36 -128 36q-101 0 -166 -66.5
t-65 -171.5zM303 20q101 0 166 67t65 172q0 124 -89 192l-270 -395q56 -36 128 -36z" />
    <glyph glyph-name="uni0200" unicode="&#x200;" horiz-adv-x="686" 
d="M312 781l-23 -5l-94 104l17 11zM431 781l-23 -5l-94 104l17 11zM653 0l-98 213h-424l-97 -213h-24l320 699h22l324 -699h-23zM140 233h405l-204 443z" />
    <glyph glyph-name="uni0201" unicode="&#x201;" horiz-adv-x="562" 
d="M244 629l-23 -5l-94 104l17 11zM363 629l-23 -5l-94 104l17 11zM469 0h-20l-1 117q-66 -117 -217 -117q-74 0 -121 42t-47 107q0 63 51.5 98t140.5 35h192v63q-1 73 -42.5 112.5t-121.5 39.5q-89 0 -181 -72l-12 16q96 76 193 76q88 0 135.5 -46t48.5 -126zM232 20
q159 0 216 142l-1 100h-192q-82 0 -127 -29.5t-45 -83.5q0 -58 40.5 -93.5t108.5 -35.5z" />
    <glyph glyph-name="uni0202" unicode="&#x202;" horiz-adv-x="686" 
d="M343 861q-35 0 -59 -24.5t-26 -60.5h-20q1 45 31.5 75t73.5 30t73.5 -30t31.5 -75h-20q-2 36 -26 60.5t-59 24.5zM653 0l-98 213h-424l-97 -213h-24l320 699h22l324 -699h-23zM140 233h405l-204 443z" />
    <glyph glyph-name="uni0203" unicode="&#x203;" horiz-adv-x="562" 
d="M275 706q-35 0 -59 -24.5t-26 -60.5h-20q1 45 31.5 75t73.5 30t73.5 -30t31.5 -75h-20q-2 36 -26 60.5t-59 24.5zM469 0h-20l-1 117q-66 -117 -217 -117q-74 0 -121 42t-47 107q0 63 51.5 98t140.5 35h192v63q-1 73 -42.5 112.5t-121.5 39.5q-89 0 -181 -72l-12 16
q96 76 193 76q88 0 135.5 -46t48.5 -126zM232 20q159 0 216 142l-1 100h-192q-82 0 -127 -29.5t-45 -83.5q0 -58 40.5 -93.5t108.5 -35.5z" />
    <glyph glyph-name="uni0204" unicode="&#x204;" horiz-adv-x="644" 
d="M220 891l100 -110l-23 -5l-94 104zM339 891l100 -110l-23 -5l-94 104zM128 699h437v-20h-417v-309h371v-20h-371v-330h431v-20h-451v699z" />
    <glyph glyph-name="uni0205" unicode="&#x205;" horiz-adv-x="589" 
d="M264 629l-23 -5l-94 104l17 11zM383 629l-23 -5l-94 104l17 11zM301 20q116 0 183 75l14 -14q-75 -81 -197 -81q-108 0 -178.5 73t-70.5 186q0 112 70.5 185t178.5 73q107 0 173.5 -72.5t66.5 -185.5h-469q0 -105 64.5 -172t164.5 -67zM301 497q-95 0 -158.5 -60.5
t-69.5 -157.5h448q-7 98 -66 158t-154 60z" />
    <glyph glyph-name="uni0206" unicode="&#x206;" horiz-adv-x="644" 
d="M266 776h-20q1 45 31.5 75t73.5 30t73.5 -30t31.5 -75h-20q-2 36 -26 60.5t-59 24.5t-59 -24.5t-26 -60.5zM128 699h437v-20h-417v-309h371v-20h-371v-330h431v-20h-451v699z" />
    <glyph glyph-name="uni0207" unicode="&#x207;" horiz-adv-x="589" 
d="M295 706q-35 0 -59 -24.5t-26 -60.5h-20q1 45 31.5 75t73.5 30t73.5 -30t31.5 -75h-20q-2 36 -26 60.5t-59 24.5zM301 20q116 0 183 75l14 -14q-75 -81 -197 -81q-108 0 -178.5 73t-70.5 186q0 112 70.5 185t178.5 73q107 0 173.5 -72.5t66.5 -185.5h-469
q0 -105 64.5 -172t164.5 -67zM301 497q-95 0 -158.5 -60.5t-69.5 -157.5h448q-7 98 -66 158t-154 60z" />
    <glyph glyph-name="uni0208" unicode="&#x208;" horiz-adv-x="276" 
d="M7 891l100 -110l-23 -5l-94 104zM126 891l100 -110l-23 -5l-94 104zM128 699h20v-699h-20v699z" />
    <glyph glyph-name="uni0209" unicode="&#x209;" horiz-adv-x="240" 
d="M-11 739l100 -110l-23 -5l-94 104zM108 739l100 -110l-23 -5l-94 104zM110 517h20v-517h-20v517z" />
    <glyph glyph-name="uni020A" unicode="&#x20a;" horiz-adv-x="276" 
d="M53 776h-20q1 45 31.5 75t73.5 30t73.5 -30t31.5 -75h-20q-2 36 -26 60.5t-59 24.5t-59 -24.5t-26 -60.5zM128 699h20v-699h-20v699z" />
    <glyph glyph-name="uni020B" unicode="&#x20b;" horiz-adv-x="240" 
d="M53 621h-19q1 45 26 75t60 30t59.5 -30t25.5 -75h-18q-2 36 -20.5 60.5t-46.5 24.5t-47 -24.5t-20 -60.5zM110 517h20v-517h-20v517z" />
    <glyph glyph-name="uni020C" unicode="&#x20c;" horiz-adv-x="818" 
d="M278 891l100 -110l-23 -5l-94 104zM397 891l100 -110l-23 -5l-94 104zM409 703q148 0 253.5 -103.5t105.5 -248.5q0 -146 -105.5 -250t-253.5 -104t-253.5 104t-105.5 250q0 145 105.5 248.5t253.5 103.5zM409 683q-139 0 -239 -97.5t-100 -234.5t100 -235.5t239 -98.5
t239 98.5t100 235.5t-100 234.5t-239 97.5z" />
    <glyph glyph-name="uni020D" unicode="&#x20d;" horiz-adv-x="606" 
d="M172 739l100 -110l-23 -5l-94 104zM291 739l100 -110l-23 -5l-94 104zM303 517q108 0 179.5 -73t71.5 -185q0 -113 -71.5 -186t-179.5 -73t-179.5 73t-71.5 186q0 112 71.5 185t179.5 73zM303 497q-101 0 -166 -66.5t-65 -171.5t65 -172t166 -67t166 67t65 172t-65 171.5
t-166 66.5z" />
    <glyph glyph-name="uni020E" unicode="&#x20e;" horiz-adv-x="818" 
d="M324 776h-20q1 45 31.5 75t73.5 30t73.5 -30t31.5 -75h-20q-2 36 -26 60.5t-59 24.5t-59 -24.5t-26 -60.5zM409 703q148 0 253.5 -103.5t105.5 -248.5q0 -146 -105.5 -250t-253.5 -104t-253.5 104t-105.5 250q0 145 105.5 248.5t253.5 103.5zM409 683q-139 0 -239 -97.5
t-100 -234.5t100 -235.5t239 -98.5t239 98.5t100 235.5t-100 234.5t-239 97.5z" />
    <glyph glyph-name="uni020F" unicode="&#x20f;" horiz-adv-x="606" 
d="M218 621h-20q1 45 31.5 75t73.5 30t73.5 -30t31.5 -75h-20q-2 36 -26 60.5t-59 24.5t-59 -24.5t-26 -60.5zM303 517q108 0 179.5 -73t71.5 -185q0 -113 -71.5 -186t-179.5 -73t-179.5 73t-71.5 186q0 112 71.5 185t179.5 73zM303 497q-101 0 -166 -66.5t-65 -171.5
t65 -172t166 -67t166 67t65 172t-65 171.5t-166 66.5z" />
    <glyph glyph-name="uni0210" unicode="&#x210;" horiz-adv-x="722" 
d="M310 781l-23 -5l-94 104l17 11zM429 781l-23 -5l-94 104l17 11zM632 472q0 -90 -47 -147.5t-134 -76.5l181 -248h-25l-178 244q-40 -4 -64 -4h-217v-240h-20v699h237q127 0 197 -59.5t70 -167.5zM148 260h217q118 0 182.5 55.5t64.5 156.5q0 99 -64.5 153t-182.5 54h-217
v-419z" />
    <glyph glyph-name="uni0211" unicode="&#x211;" horiz-adv-x="338" 
d="M185 629l-23 -5l-94 104l17 11zM304 629l-23 -5l-94 104l17 11zM130 376q49 138 198 141v-20q-88 -2 -139.5 -58.5t-58.5 -155.5v-283h-20v517h20v-141z" />
    <glyph glyph-name="uni0212" unicode="&#x212;" horiz-adv-x="722" 
d="M341 861q-35 0 -59 -24.5t-26 -60.5h-20q1 45 31.5 75t73.5 30t73.5 -30t31.5 -75h-20q-2 36 -26 60.5t-59 24.5zM632 472q0 -90 -47 -147.5t-134 -76.5l181 -248h-25l-178 244q-40 -4 -64 -4h-217v-240h-20v699h237q127 0 197 -59.5t70 -167.5zM148 260h217
q118 0 182.5 55.5t64.5 156.5q0 99 -64.5 153t-182.5 54h-217v-419z" />
    <glyph glyph-name="uni0213" unicode="&#x213;" horiz-adv-x="338" 
d="M216 706q-35 0 -59 -24.5t-26 -60.5h-20q1 45 31.5 75t73.5 30t73.5 -30t31.5 -75h-20q-2 36 -26 60.5t-59 24.5zM130 376q49 138 198 141v-20q-88 -2 -139.5 -58.5t-58.5 -155.5v-283h-20v517h20v-141z" />
    <glyph glyph-name="uni0214" unicode="&#x214;" horiz-adv-x="774" 
d="M256 891l100 -110l-23 -5l-94 104zM375 891l100 -110l-23 -5l-94 104zM130 281q0 -126 67.5 -195t189.5 -69t189.5 69t67.5 195v418h20v-418q0 -136 -72.5 -210t-204.5 -74t-204.5 74t-72.5 210v418h20v-418z" />
    <glyph glyph-name="uni0215" unicode="&#x215;" horiz-adv-x="637" 
d="M288 629l-23 -5l-94 104l17 11zM407 629l-23 -5l-94 104l17 11zM507 517h20v-517h-20v151q-24 -72 -79 -111t-136 -40q-94 0 -147 54t-53 150v313h20v-313q0 -87 47.5 -135.5t132.5 -48.5q101 2 158 66.5t57 177.5v253z" />
    <glyph glyph-name="uni0216" unicode="&#x216;" horiz-adv-x="774" 
d="M302 776h-20q1 45 31.5 75t73.5 30t73.5 -30t31.5 -75h-20q-2 36 -26 60.5t-59 24.5t-59 -24.5t-26 -60.5zM130 281q0 -126 67.5 -195t189.5 -69t189.5 69t67.5 195v418h20v-418q0 -136 -72.5 -210t-204.5 -74t-204.5 74t-72.5 210v418h20v-418z" />
    <glyph glyph-name="uni0217" unicode="&#x217;" horiz-adv-x="637" 
d="M319 706q-35 0 -59 -24.5t-26 -60.5h-20q1 45 31.5 75t73.5 30t73.5 -30t31.5 -75h-20q-2 36 -26 60.5t-59 24.5zM507 517h20v-517h-20v151q-24 -72 -79 -111t-136 -40q-94 0 -147 54t-53 150v313h20v-313q0 -87 47.5 -135.5t132.5 -48.5q101 2 158 66.5t57 177.5v253z
" />
    <glyph glyph-name="Scommaaccent" unicode="&#x218;" horiz-adv-x="593" 
d="M478 636q-73 47 -176 47q-92 0 -147.5 -37.5t-55.5 -99.5q0 -48 23 -81t60 -51.5t82 -32t89.5 -28.5t81.5 -35.5t59.5 -58t22.5 -90.5q0 -78 -64.5 -125t-172.5 -47q-66 0 -130.5 27t-108.5 72l14 14q40 -43 101 -68t124 -25q99 0 158 41.5t59 110.5q0 49 -22.5 83.5
t-59.5 53t-81.5 32.5l-89.5 29t-82 35t-60 56.5t-23 88.5q0 71 61 113.5t162 42.5q107 0 186 -51zM287 -65h21l-43 -149h-18z" />
    <glyph glyph-name="scommaaccent" unicode="&#x219;" horiz-adv-x="427" 
d="M350 463q-53 34 -127 34q-64 0 -104.5 -26t-40.5 -76q0 -36 23 -60.5t57.5 -36l75 -25t75 -26.5t57.5 -42t23 -71q0 -66 -50.5 -100t-123.5 -34q-113 0 -185 72l13 15q69 -67 172 -67q65 0 108.5 27.5t45.5 81.5q1 37 -21 62.5t-57 38l-75.5 26t-75.5 27t-58.5 41.5
t-23.5 69q0 61 46.5 92.5t117.5 31.5q74 0 138 -37zM200 -65h21l-43 -149h-18z" />
    <glyph glyph-name="uni021A" unicode="&#x21a;" horiz-adv-x="526" 
d="M13 699h500v-20h-240v-679h-20v679h-240v20zM253 -65h21l-43 -149h-18z" />
    <glyph glyph-name="uni021B" unicode="&#x21b;" horiz-adv-x="362" 
d="M236 0q-54 -1 -82 35.5t-28 106.5v345h-76v20h76v123h20v-123h182v-20h-182v-345q0 -60 23 -91.5t67 -30.5q51 2 90 33l12 -16q-46 -35 -102 -37zM185 -214l40 149h21l-43 -149h-18z" />
    <glyph glyph-name="uni022A" unicode="&#x22a;" horiz-adv-x="818" 
d="M302 894h217v-20h-217v20zM345 828q11 0 18.5 -8t7.5 -18t-7.5 -18t-18.5 -8t-18.5 8t-7.5 18t7.5 18t18.5 8zM477 828q11 0 18.5 -8t7.5 -18t-7.5 -18t-18.5 -8t-18.5 8t-7.5 18t7.5 18t18.5 8zM409 703q148 0 253.5 -103.5t105.5 -248.5q0 -146 -105.5 -250
t-253.5 -104t-253.5 104t-105.5 250q0 145 105.5 248.5t253.5 103.5zM409 683q-139 0 -239 -97.5t-100 -234.5t100 -235.5t239 -98.5t239 98.5t100 235.5t-100 234.5t-239 97.5z" />
    <glyph glyph-name="uni022B" unicode="&#x22b;" horiz-adv-x="606" 
d="M196 742h217v-20h-217v20zM239 676q11 0 18.5 -8t7.5 -18t-7.5 -18t-18.5 -8t-18.5 8t-7.5 18t7.5 18t18.5 8zM371 676q11 0 18.5 -8t7.5 -18t-7.5 -18t-18.5 -8t-18.5 8t-7.5 18t7.5 18t18.5 8zM303 517q108 0 179.5 -73t71.5 -185q0 -113 -71.5 -186t-179.5 -73
t-179.5 73t-71.5 186q0 112 71.5 185t179.5 73zM303 497q-101 0 -166 -66.5t-65 -171.5t65 -172t166 -67t166 67t65 172t-65 171.5t-166 66.5z" />
    <glyph glyph-name="uni022C" unicode="&#x22c;" horiz-adv-x="818" 
d="M302 909h217v-20h-217v20zM542 843q0 -32 -19 -51t-52 -19q-29 0 -65.5 27.5t-59.5 27.5q-24 0 -37 -14t-13 -38h-20q0 32 19.5 51.5t52.5 19.5q29 0 65.5 -27.5t59.5 -27.5q24 0 37 13.5t13 37.5h19zM409 703q148 0 253.5 -103.5t105.5 -248.5q0 -146 -105.5 -250
t-253.5 -104t-253.5 104t-105.5 250q0 145 105.5 248.5t253.5 103.5zM409 683q-139 0 -239 -97.5t-100 -234.5t100 -235.5t239 -98.5t239 98.5t100 235.5t-100 234.5t-239 97.5z" />
    <glyph glyph-name="uni022D" unicode="&#x22d;" horiz-adv-x="606" 
d="M196 757h217v-20h-217v20zM436 691q0 -32 -19 -51t-52 -19q-29 0 -65.5 27.5t-59.5 27.5q-24 0 -37 -14t-13 -38h-20q0 32 19.5 51.5t52.5 19.5q29 0 65.5 -27.5t59.5 -27.5q24 0 37 13.5t13 37.5h19zM303 517q108 0 179.5 -73t71.5 -185q0 -113 -71.5 -186t-179.5 -73
t-179.5 73t-71.5 186q0 112 71.5 185t179.5 73zM303 497q-101 0 -166 -66.5t-65 -171.5t65 -172t166 -67t166 67t65 172t-65 171.5t-166 66.5z" />
    <glyph glyph-name="uni0230" unicode="&#x230;" horiz-adv-x="818" 
d="M400 894h217v-20h-217v20zM509 828q11 0 18.5 -8t7.5 -18t-7.5 -18t-18.5 -8t-18.5 8t-7.5 18t7.5 18t18.5 8zM409 703q148 0 253.5 -103.5t105.5 -248.5q0 -146 -105.5 -250t-253.5 -104t-253.5 104t-105.5 250q0 145 105.5 248.5t253.5 103.5zM409 683
q-139 0 -239 -97.5t-100 -234.5t100 -235.5t239 -98.5t239 98.5t100 235.5t-100 234.5t-239 97.5z" />
    <glyph glyph-name="uni0231" unicode="&#x231;" horiz-adv-x="606" 
d="M194 742h217v-20h-217v20zM303 676q11 0 18.5 -8t7.5 -18t-7.5 -18t-18.5 -8t-18.5 8t-7.5 18t7.5 18t18.5 8zM303 517q108 0 179.5 -73t71.5 -185q0 -113 -71.5 -186t-179.5 -73t-179.5 73t-71.5 186q0 112 71.5 185t179.5 73zM303 497q-101 0 -166 -66.5t-65 -171.5
t65 -172t166 -67t166 67t65 172t-65 171.5t-166 66.5z" />
    <glyph glyph-name="uni0232" unicode="&#x232;" horiz-adv-x="606" 
d="M461 801v-20h-317v20h317zM596 699l-281 -430v-269h-20v269l-285 430h24l271 -410l267 410h24z" />
    <glyph glyph-name="uni0233" unicode="&#x233;" horiz-adv-x="456" 
d="M104 677h257v-20h-257v20zM214 -75q-49 -119 -135 -119q-55 0 -92 26l9 17q34 -23 81 -23q79 0 121 106l26 66l-214 519h23l201 -494l198 494h24z" />
    <glyph glyph-name="uni0237" unicode="&#x237;" horiz-adv-x="219" 
d="M-46 -161q27 -11 55 -12q47 -1 71.5 35t24.5 107v548h20v-548q0 -81 -29.5 -122t-86.5 -40q-32 1 -63 14z" />
    <glyph glyph-name="uni0259" unicode="&#x259;" horiz-adv-x="589" 
d="M288 517q108 0 178.5 -73t70.5 -186q0 -112 -70.5 -185t-178.5 -73q-107 0 -173.5 72.5t-66.5 185.5h469q0 105 -64.5 172t-164.5 67q-116 0 -183 -75l-14 14q75 81 197 81zM288 20q95 0 158.5 60.5t69.5 157.5h-448q7 -98 66 -158t154 -60z" />
    <glyph glyph-name="uni02BB" unicode="&#x2bb;" horiz-adv-x="123" 
d="M73 520l-23 5l8 175h15v-180z" />
    <glyph glyph-name="uni02BC" unicode="&#x2bc;" horiz-adv-x="89" 
d="M35 699h20l-7 -259h-18z" />
    <glyph glyph-name="uni02BE" unicode="&#x2be;" horiz-adv-x="268" 
d="M70 559v20q38 0 65.5 26t27.5 62t-27.5 62.5t-65.5 26.5v20q46 0 79.5 -32.5t33.5 -76.5t-33.5 -76t-79.5 -32z" />
    <glyph glyph-name="uni02BF" unicode="&#x2bf;" horiz-adv-x="267" 
d="M197 559v20q-38 0 -65 26t-27 62t27.5 62.5t64.5 26.5v20q-46 0 -79 -32.5t-33 -76.5t33 -76t79 -32z" />
    <glyph glyph-name="circumflex" unicode="&#x2c6;" horiz-adv-x="268" 
d="M248 624h-26l-88 92l-88 -92h-26l98 110h32z" />
    <glyph glyph-name="caron" unicode="&#x2c7;" horiz-adv-x="268" 
d="M222 734h26l-98 -110h-32l-98 110h26l88 -92z" />
    <glyph glyph-name="uni02C8" unicode="&#x2c8;" horiz-adv-x="40" 
d="M10 519v180h20v-180h-20z" />
    <glyph glyph-name="uni02C9" unicode="&#x2c9;" horiz-adv-x="350" 
d="M47 677h257v-20h-257v20z" />
    <glyph glyph-name="uni02CA" unicode="&#x2ca;" horiz-adv-x="350" 
d="M242 739l19 -10l-129 -105l-26 5z" />
    <glyph glyph-name="uni02CB" unicode="&#x2cb;" horiz-adv-x="350" 
d="M69 739l136 -110l-26 -5l-129 105z" />
    <glyph glyph-name="uni02CC" unicode="&#x2cc;" horiz-adv-x="40" 
d="M10 -210v180h20v-180h-20z" />
    <glyph glyph-name="breve" unicode="&#x2d8;" horiz-adv-x="250" 
d="M40 726q2 -36 26 -60.5t59 -24.5t59 24.5t26 60.5h20q-1 -45 -31.5 -75t-73.5 -30t-73.5 30t-31.5 75h20z" />
    <glyph glyph-name="dotaccent" unicode="&#x2d9;" horiz-adv-x="92" 
d="M46 692q10 0 18 -8t8 -18t-8 -18t-18 -8t-18 8t-8 18t8 18t18 8z" />
    <glyph glyph-name="ring" unicode="&#x2da;" horiz-adv-x="425" 
d="M178 754q37 0 63.5 -26t26.5 -61t-26.5 -60.5t-63.5 -25.5q-36 0 -62.5 25.5t-26.5 60.5t26.5 61t62.5 26zM178 736q-29 0 -50.5 -20.5t-21.5 -48.5t21.5 -48t50.5 -20t51 20t22 48t-22 48.5t-51 20.5z" />
    <glyph glyph-name="ogonek" unicode="&#x2db;" horiz-adv-x="238" 
d="M180 16l9 -16q-65 -43 -93.5 -73.5t-28.5 -65.5q0 -27 14.5 -40.5t37.5 -13.5q30 0 59 20l10 -16q-35 -24 -70 -24q-33 0 -52.5 20t-19.5 54q0 43 31.5 77t102.5 78z" />
    <glyph glyph-name="tilde" unicode="&#x2dc;" horiz-adv-x="305" 
d="M285 710q0 -37 -19 -59t-52 -22q-29 0 -65.5 32.5t-59.5 32.5q-24 0 -37 -16t-13 -45h-19q0 37 19 59t52 22q29 0 65.5 -32.5t59.5 -32.5q24 0 37 16t13 45h19z" />
    <glyph glyph-name="hungarumlaut" unicode="&#x2dd;" horiz-adv-x="430" 
d="M200 739l17 -11l-94 -104l-22 5zM319 739l17 -11l-94 -104l-22 5z" />
    <glyph glyph-name="gravecomb" unicode="&#x300;" 
d="M-192 739l136 -110l-26 -5l-129 105z" />
    <glyph glyph-name="acutecomb" unicode="&#x301;" 
d="M-39 739l19 -10l-129 -105l-26 5z" />
    <glyph glyph-name="uni0302" unicode="&#x302;" 
d="M-20 624h-26l-88 92l-88 -92h-26l98 110h32z" />
    <glyph glyph-name="tildecomb" unicode="&#x303;" 
d="M-20 710q0 -37 -19 -59t-52 -22q-29 0 -65.5 32.5t-59.5 32.5q-24 0 -37 -16t-13 -45h-19q0 37 19 59t52 22q29 0 65.5 -32.5t59.5 -32.5q24 0 37 16t13 45h19z" />
    <glyph glyph-name="uni0304" unicode="&#x304;" 
d="M-257 677h257v-20h-257v20z" />
    <glyph glyph-name="uni0306" unicode="&#x306;" 
d="M-210 726q2 -36 26 -60.5t59 -24.5t59 24.5t26 60.5h20q-1 -45 -31.5 -75t-73.5 -30t-73.5 30t-31.5 75h20z" />
    <glyph glyph-name="uni0307" unicode="&#x307;" 
d="M-76 692q10 0 18 -8t8 -18t-8 -18t-18 -8t-18 8t-8 18t8 18t18 8z" />
    <glyph glyph-name="uni0308" unicode="&#x308;" 
d="M-225 692q11 0 18.5 -8t7.5 -18t-7.5 -18t-18.5 -8t-18.5 8t-7.5 18t7.5 18t18.5 8zM-75 692q11 0 18.5 -8t7.5 -18t-7.5 -18t-18.5 -8t-18.5 8t-7.5 18t7.5 18t18.5 8z" />
    <glyph glyph-name="hookabovecomb" unicode="&#x309;" 
d="M-119 751q35 0 54.5 -20t19.5 -51q0 -52 -54 -92l-20 8q54 38 54 84q0 22 -14.5 36.5t-39.5 14.5t-53 -18l-11 16q34 22 64 22z" />
    <glyph glyph-name="uni030A" unicode="&#x30a;" 
d="M-179 754q37 0 63.5 -26t26.5 -61t-26.5 -60.5t-63.5 -25.5q-36 0 -62.5 25.5t-26.5 60.5t26.5 61t62.5 26zM-179 736q-29 0 -50.5 -20.5t-21.5 -48.5t21.5 -48t50.5 -20t51 20t22 48t-22 48.5t-51 20.5z" />
    <glyph glyph-name="uni030B" unicode="&#x30b;" 
d="M-185 739l17 -11l-94 -104l-22 5zM-66 739l17 -11l-94 -104l-22 5z" />
    <glyph glyph-name="uni030C" unicode="&#x30c;" 
d="M-76 734h26l-98 -110h-32l-98 110h26l88 -92z" />
    <glyph glyph-name="uni030F" unicode="&#x30f;" 
d="M-273 739l100 -110l-23 -5l-94 104zM-154 739l100 -110l-23 -5l-94 104z" />
    <glyph glyph-name="uni0311" unicode="&#x311;" 
d="M-210 621h-20q1 45 31.5 75t73.5 30t73.5 -30t31.5 -75h-20q-2 36 -26 60.5t-59 24.5t-59 -24.5t-26 -60.5z" />
    <glyph glyph-name="uni0312" unicode="&#x312;" 
d="M-81 615h-21l43 149h18z" />
    <glyph glyph-name="uni031B" unicode="&#x31b;" 
d="M-28 634q26 -50 5.5 -92t-75.5 -42l1 17q46 0 59 35.5t-9 73.5z" />
    <glyph glyph-name="dotbelowcomb" unicode="&#x323;" 
d="M-76 -80q10 0 18 -8t8 -18t-8 -18t-18 -8t-18 8t-8 18t8 18t18 8z" />
    <glyph glyph-name="uni0324" unicode="&#x324;" 
d="M-219 -79q11 0 18.5 -7.5t7.5 -18.5t-7.5 -18.5t-18.5 -7.5t-18.5 7.5t-7.5 18.5t7.5 18.5t18.5 7.5zM-69 -79q11 0 18.5 -7.5t7.5 -18.5t-7.5 -18.5t-18.5 -7.5t-18.5 7.5t-7.5 18.5t7.5 18.5t18.5 7.5z" />
    <glyph glyph-name="uni0326" unicode="&#x326;" 
d="M-91 -65h21l-43 -149h-18z" />
    <glyph glyph-name="uni0327" unicode="&#x327;" 
d="M-128 5l20 -5l-16 -56q38 -1 59.5 -22.5t21.5 -51.5q0 -33 -23.5 -58t-65.5 -25q-44 0 -73 22l8 20q28 -21 65 -21q32 0 50 18.5t18 43.5q0 22 -16 38.5t-42 16.5h-29z" />
    <glyph glyph-name="uni0328" unicode="&#x328;" 
d="M-41 16l9 -16q-65 -43 -93.5 -73.5t-28.5 -65.5q0 -27 14.5 -40.5t37.5 -13.5q30 0 59 20l10 -16q-35 -24 -70 -24q-33 0 -52.5 20t-19.5 54q0 43 31.5 77t102.5 78z" />
    <glyph glyph-name="uni032E" unicode="&#x32e;" 
d="M-210 -50q2 -36 26 -60.5t59 -24.5t59 24.5t26 60.5h20q-1 -45 -31.5 -75t-73.5 -30t-73.5 30t-31.5 75h20z" />
    <glyph glyph-name="uni0331" unicode="&#x331;" 
d="M-287 -90h257v-20h-257v20z" />
    <glyph glyph-name="uni0335" unicode="&#x335;" 
d="M-278 451h278v-20h-278v20z" />
    <glyph glyph-name="uni0336" unicode="&#x336;" 
d="M-480 451h356v-20h-356v20z" />
    <glyph glyph-name="uni0337" unicode="&#x337;" 
d="M-48 560l-154 -480h-21l154 480h21z" />
    <glyph glyph-name="uni0338" unicode="&#x338;" 
d="M-248 0l237 742h21l-237 -742h-21z" />
    <glyph glyph-name="uni0394" unicode="&#x394;" horiz-adv-x="686" 
d="M352 699l324 -699h-666l320 699h22zM43 20h601l-303 656z" />
    <glyph glyph-name="uni03A9" unicode="&#x3a9;" horiz-adv-x="926" 
d="M609 21q84 44 138.5 137.5t54.5 194.5q0 141 -96 233.5t-243 92.5t-243 -92.5t-96 -233.5q0 -101 54.5 -195.5t139.5 -137.5v-20h-305v20h266q-78 52 -126.5 144.5t-48.5 188.5q0 149 102.5 247.5t256.5 98.5t256.5 -98.5t102.5 -247.5q0 -96 -48.5 -188.5t-126.5 -144.5
h266v-20h-304v21z" />
    <glyph glyph-name="uni03BC" unicode="&#x3bc;" horiz-adv-x="660" 
d="M530 517h20v-517h-20v151q-24 -72 -79 -111t-136 -40q-132 0 -179 100v-294h-20v373q-1 8 -1 25v313h21v-337q7 -76 53.5 -118t125.5 -42q101 2 158 66.5t57 177.5v253z" />
    <glyph glyph-name="pi" unicode="&#x3c0;" horiz-adv-x="718" 
d="M712 517l-1 -20h-182v-497h-20v497h-242l-58 -497h-20l58 497h-85q-61 0 -102 -36.5t-40 -89.5q2 -48 33 -91l-16 -11q-35 45 -37 102q-1 61 46 103.5t116 42.5h550z" />
    <glyph glyph-name="uni0531" unicode="&#x531;" horiz-adv-x="820" 
d="M800 25l-13 -14l-147 123q-65 -137 -248 -137q-132 0 -204.5 74t-72.5 210v476h20v-476q0 -126 67.5 -195t189.5 -69q172 0 231 131l1 1q25 58 25 132v476h20v-476q0 -73 -21 -127z" />
    <glyph glyph-name="uni0532" unicode="&#x532;" horiz-adv-x="791" 
d="M696 218v-20h-561v-198h-20v473q0 136 72.5 210t204.5 74t204.5 -74t72.5 -210v-62h-20v62q0 126 -67.5 195t-189.5 69t-189.5 -69t-67.5 -195v-255h561z" />
    <glyph glyph-name="uni0533" unicode="&#x533;" horiz-adv-x="749" 
d="M769 239v-20h-143v-219h-20v219h-254q-144 0 -224 70.5t-83 201.5q-2 109 83.5 188t223.5 78q123 -1 198.5 -71t75.5 -179v-268h143zM606 239v268q0 103 -69 165.5t-185 64.5q-131 1 -210 -72t-77 -174q3 -122 77 -187t210 -65h254z" />
    <glyph glyph-name="uni0534" unicode="&#x534;" horiz-adv-x="840" 
d="M860 276v-20h-191v-256h-20v473q0 126 -67.5 195t-189.5 69t-189.5 -69t-67.5 -195v-112h-20v112q0 136 72.5 210t204.5 74t204.5 -74t72.5 -210v-197h191z" />
    <glyph glyph-name="uni0535" unicode="&#x535;" horiz-adv-x="791" 
d="M696 504h-561v-223q0 -126 67.5 -195t189.5 -69t189.5 69t67.5 195v77h20v-77q0 -136 -72.5 -210t-204.5 -74t-204.5 74t-72.5 210v476h20v-233h561v-20z" />
    <glyph glyph-name="uni0536" unicode="&#x536;" horiz-adv-x="703" 
d="M533 151q71 0 108 -37.5t37 -107.5v-6h-20v19q0 49 -31.5 80.5t-80.5 31.5h-463v-131h-20v279h20v-128h83q42 0 97.5 10t121.5 35t121.5 60t94.5 92t42 125q5 112 -76 188t-201 76q-131 0 -207 -61.5t-76 -183.5v-12h-20v12q0 132 81 198.5t222 66.5q130 0 215.5 -80.5
t80.5 -202.5q-3 -58 -28.5 -108.5t-62 -84.5t-86.5 -61.5t-93.5 -42.5t-89.5 -26h231z" />
    <glyph glyph-name="uni0537" unicode="&#x537;" horiz-adv-x="648" 
d="M623 504h-488v-484h356q27 0 44 -14.5t17 -36.5v-21h-20v21q0 13 -11.5 22t-29.5 9h-376v757h20v-233h488v-20z" />
    <glyph glyph-name="uni0538" unicode="&#x538;" horiz-adv-x="788" 
d="M135 20h558v-20h-578v473q0 136 72.5 210t204.5 74t204.5 -74t72.5 -210v-112h-20v112q0 126 -67.5 195t-189.5 69t-189.5 -69t-67.5 -195v-453z" />
    <glyph glyph-name="uni0539" unicode="&#x539;" horiz-adv-x="924" 
d="M934 397h-115v-192q1 -98 -64 -151.5t-160 -53.5q-98 0 -168.5 55.5t-70.5 155.5q0 95 62.5 150.5t176.5 55.5h204v56q-4 126 -90.5 195t-241.5 69t-241.5 -69t-90.5 -195v-473h-20v473q0 136 92 210t260 74t260 -74t92 -210v-56h115v-20zM799 209v188h-203
q-105 0 -162.5 -50.5t-57.5 -134.5q0 -80 59.5 -136t160.5 -56q87 0 145 50t58 139z" />
    <glyph glyph-name="uni053A" unicode="&#x53a;" horiz-adv-x="729" 
d="M749 538v-20h-143v-268q0 -250 -265 -250q-42 0 -80.5 6.5t-79 25t-70 47.5t-48 78t-18.5 113q1 129 80 198.5t223 69.5h238v219h20v-219h143zM586 518h-238q-52 0 -96.5 -10t-89 -35t-71 -77t-26.5 -126q0 -59 16.5 -104.5t43 -72.5t64.5 -44t74.5 -23t77.5 -6
q137 0 191 61t54 169v268z" />
    <glyph glyph-name="uni053B" unicode="&#x53b;" horiz-adv-x="774" 
d="M385 615q133 0 208.5 -74.5t75.5 -209.5v-102h-20v102q0 125 -70.5 194.5t-193.5 69.5q-117 0 -183.5 -90.5t-66.5 -223.5v-281h-20v757h20v-339q28 90 92.5 143.5t157.5 53.5z" />
    <glyph glyph-name="uni053C" unicode="&#x53c;" horiz-adv-x="667" 
d="M571 20q22 0 36.5 -14.5t14.5 -36.5v-21h-20v21q0 13 -9 22t-22 9h-456v757h20v-737h436z" />
    <glyph glyph-name="uni053D" unicode="&#x53d;" horiz-adv-x="903" 
d="M778 525h20v-151q0 -265 -201 -265t-201 265v131h-261v-505h-20v757h20v-232h281v-151q0 -126 44.5 -185.5t136.5 -59.5t136.5 60t44.5 185v151z" />
    <glyph glyph-name="uni053E" unicode="&#x53e;" horiz-adv-x="898" 
d="M863 628v-20h-300q94 -34 153 -114.5t59 -178.5q0 -131 -93 -223t-233 -92t-233 92t-93 223q0 98 59 178.5t153 114.5h-180q-59 0 -89.5 31t-30.5 89v29h20v-29q0 -100 100 -100h708zM756 315q0 121 -90 207t-217 86t-217 -86t-90 -207q0 -123 87.5 -209t219.5 -86
t219.5 86t87.5 209z" />
    <glyph glyph-name="uni053F" unicode="&#x53f;" horiz-adv-x="734" 
d="M599 549h20v-549h-20v342q-25 -85 -83 -134.5t-147 -49.5q-132 0 -203 74t-71 210v315h20v-315q0 -126 66 -195t188 -69q115 0 172.5 88.5t57.5 225.5v57z" />
    <glyph glyph-name="uni0540" unicode="&#x540;" horiz-adv-x="695" 
d="M451 409q91 -20 131 -77.5t38 -129.5v-202h-20v202q0 47 -16 83t-39.5 56.5t-52.5 33.5t-51.5 17.5t-41.5 4.5h-274v20h268q8 1 20.5 3t44.5 12.5t56.5 25.5t44.5 44t20 65q0 72 -53 121t-181 49h-4h-236v20h219h19q124 -1 190.5 -48.5t65.5 -144.5q0 -28 -11 -54.5
t-46 -56t-91 -44.5z" />
    <glyph glyph-name="uni0541" unicode="&#x541;" horiz-adv-x="745" 
d="M690 -7l-12 -17l-160 134q-61 -55 -132 -85.5t-139 -30.5q-85 0 -138.5 32.5t-53.5 102.5q0 64 53 98.5t139 31.5q119 -2 270 -121q68 63 108.5 146t40.5 175q0 121 -87.5 199.5t-209.5 78.5q-126 0 -204 -64.5t-78 -180.5v-8h-20v8q0 126 83 195.5t219 69.5
q132 0 224.5 -83.5t92.5 -214.5q0 -94 -41 -181.5t-111 -153.5q22 -17 47 -38.5l57.5 -49zM247 16q59 0 126.5 28.5t127.5 79.5q-146 113 -254 115q-164 2 -172 -110q0 -54 48 -83.5t124 -29.5z" />
    <glyph glyph-name="uni0542" unicode="&#x542;" horiz-adv-x="825" 
d="M669 20h191v-20h-211v473q0 126 -67.5 195t-189.5 69t-189.5 -69t-67.5 -195v-112h-20v112q0 136 72.5 210t204.5 74t204.5 -74t72.5 -210v-453z" />
    <glyph glyph-name="uni0543" unicode="&#x543;" horiz-adv-x="798" 
d="M430 517q136 0 224.5 -71.5t88.5 -198.5v-247h-592q0 208 10 355q6 81 24 142h-130v20h136q77 237 319 240h192v-20h-189q-226 -1 -301 -220h218zM171 20h552v227q0 117 -83 183.5t-210 66.5h-224q-20 -65 -25 -142q-10 -123 -10 -335z" />
    <glyph glyph-name="uni0544" unicode="&#x544;" horiz-adv-x="820" 
d="M860 757v-20h-191v-456q0 -136 -72.5 -210t-204.5 -74t-204.5 74t-72.5 210v476h20v-476q0 -126 67.5 -195t189.5 -69t189.5 69t67.5 195v476h211z" />
    <glyph glyph-name="uni0545" unicode="&#x545;" horiz-adv-x="833" 
d="M85 397h437q66 0 131 -52.5t65 -137.5q0 -52 -28.5 -90t-75.5 -58t-96 -29.5t-100 -9.5t-100.5 11t-98 35.5t-79 70.5t-32.5 109h-20q0 -78 47 -135.5t120 -84.5t162 -26q148 1 234 53.5t87 153.5q1 80 -52 133t-119 69q128 36 128 149q0 94 -82.5 146t-203.5 53
q-113 1 -188 -46.5t-80 -144.5h20q2 31 14 58.5t38 54.5t77 42.5t121 15.5q130 0 197 -54.5t67 -121.5q0 -36 -16.5 -64.5t-38 -42.5t-47 -23.5t-40 -11.5t-20.5 -2h-428v-20z" />
    <glyph glyph-name="uni0546" unicode="&#x546;" horiz-adv-x="810" 
d="M695 433h20v-152q0 -136 -72.5 -210t-204.5 -74t-204.5 74t-72.5 210v456h-191v20h211v-476q0 -126 67.5 -195t189.5 -69t189.5 69t67.5 195v152z" />
    <glyph glyph-name="uni0547" unicode="&#x547;" horiz-adv-x="728" 
d="M653 279h20v-12q0 -132 -79.5 -198.5t-216.5 -66.5q-136 0 -229 77t-93 217q0 280 319 332l-222 122v23l518 -284v-23l-272 149q-323 -51 -323 -319q0 -130 88 -202t214 -72q127 0 201.5 61.5t74.5 183.5v12z" />
    <glyph glyph-name="uni0548" unicode="&#x548;" horiz-adv-x="784" 
d="M135 473v-473h-20v473q0 136 72.5 210t204.5 74t204.5 -74t72.5 -210v-473h-20v473q0 126 -67.5 195t-189.5 69t-189.5 -69t-67.5 -195z" />
    <glyph glyph-name="uni0549" unicode="&#x549;" horiz-adv-x="714" 
d="M659 466q0 -57 -16 -107.5t-52 -99t-100.5 -87.5t-154.5 -64l164 -107v-23l-445 291v23l261 -171q323 93 323 345q0 120 -83 195.5t-200 75.5q-132 0 -206.5 -63.5t-74.5 -181.5v-12h-20v12q0 128 80 196.5t221 68.5q126 0 214.5 -80.5t88.5 -210.5z" />
    <glyph glyph-name="uni054A" unicode="&#x54a;" horiz-adv-x="890" 
d="M450 757q155 -2 240 -76.5t85 -207.5v-473h-20v473q-3 124 -82.5 193t-222.5 71v-497h-20v497q-143 -2 -222.5 -71t-82.5 -193v-112h-20v112q0 133 85 207.5t240 76.5h20z" />
    <glyph glyph-name="uni054B" unicode="&#x54b;" horiz-adv-x="713" 
d="M513 151q71 0 108 -37.5t37 -107.5v-6h-20v19q0 49 -31.5 80.5t-80.5 31.5h-451v-131h-20v279h20v-128h166q13 3 37 9q52 31 65.5 66.5t-14.5 67t-94 51.5q-24 7 -45 16t-36 18t-27.5 19.5t-20.5 19.5t-14 20t-9.5 18.5t-5.5 18t-2.5 15t-1 12.5t-0.5 9v12q0 28 7.5 56.5
t27.5 61.5t50 58t81.5 41.5t116.5 16.5q60 0 111.5 -19.5t86 -50t58 -69.5t34 -77.5t8.5 -73.5q-2 -56 -26 -104.5t-58 -81t-80.5 -60t-85.5 -43t-81 -27.5h190zM240 363q98 -29 121.5 -84.5t-34.5 -104.5q299 95 308 292q2 42 -14.5 88t-49 87.5t-89 68.5t-126.5 27
q-61 0 -109 -15t-76 -37.5t-46.5 -52.5t-25 -56.5t-6.5 -52.5v-12q0 -1 0.5 -9t1 -12t2.5 -13.5t4.5 -15.5t8 -16t13 -17.5t18.5 -17t25 -17t33 -15.5t41 -15z" />
    <glyph glyph-name="uni054C" unicode="&#x54c;" horiz-adv-x="840" 
d="M860 276v-20h-191v-256h-20v473q0 126 -67.5 195t-189.5 69t-189.5 -69t-67.5 -195v-473h-20v473q0 136 72.5 210t204.5 74t204.5 -74t72.5 -210v-197h191z" />
    <glyph glyph-name="uni054D" unicode="&#x54d;" horiz-adv-x="784" 
d="M135 281q0 -126 67.5 -195t189.5 -69t189.5 69t67.5 195v476h20v-476q0 -136 -72.5 -210t-204.5 -74t-204.5 74t-72.5 210v476h20v-476z" />
    <glyph glyph-name="uni054E" unicode="&#x54e;" horiz-adv-x="775" 
d="M619 20h191v-20h-211v342q-25 -85 -83 -134.5t-147 -49.5q-132 0 -203 74t-71 210v127h20v-127q0 -126 66 -195t188 -69q115 0 172.5 88.5t57.5 225.5v265h20v-737z" />
    <glyph glyph-name="uni054F" unicode="&#x54f;" horiz-adv-x="770" 
d="M45 259q-4 -83 39 -147t118.5 -97t169.5 -33q321 0 323 202q1 61 -31 102t-84 61t-114.5 32.5t-125.5 23.5t-115 27.5t-85 51.5t-33 89q2 80 68.5 123.5t201.5 42.5q132 -1 195 -53t64 -125h20q-1 99 -80 147t-197 51q-133 3 -212.5 -45t-79.5 -135q0 -61 32.5 -101
t84.5 -58.5t114.5 -30.5l125.5 -23.5t115 -29t84 -55.5t32 -95q0 -182 -303 -182q-80 0 -143 23t-98.5 60.5t-52.5 82.5t-13 91h-20z" />
    <glyph glyph-name="uni0550" unicode="&#x550;" horiz-adv-x="774" 
d="M135 473v-473h-20v473q0 136 72.5 210t204.5 74t204.5 -74t72.5 -210v-112h-20v112q0 126 -67.5 195t-189.5 69t-189.5 -69t-67.5 -195z" />
    <glyph glyph-name="uni0551" unicode="&#x551;" horiz-adv-x="802" 
d="M523 430q58 -3 103.5 -24t71 -52.5t38 -65t11.5 -66.5q-2 -79 -50.5 -130t-122 -71t-172.5 -21q-144 -1 -246 65t-98 181h20q0 -61 32 -107.5t82.5 -71t104 -36t106.5 -11.5q41 0 80 4.5t85 18.5t79.5 35t56 59t22.5 87q0 46 -21.5 84t-54.5 60t-67 33.5t-64 11.5h-464
v20l224 -2q-49 10 -88.5 45t-39.5 100q-2 85 73.5 133.5t183.5 47.5q106 -1 178.5 -50.5t72.5 -130.5q0 -124 -136 -146zM407 433q111 0 171.5 36t60.5 107t-65.5 116t-164.5 45q-104 0 -171 -43t-67 -118q0 -62 60 -102.5t176 -40.5z" />
    <glyph glyph-name="uni0552" unicode="&#x552;" horiz-adv-x="248" 
d="M268 515v-20h-228v-495h-20v757h20v-242h228z" />
    <glyph glyph-name="uni0553" unicode="&#x553;" horiz-adv-x="922" 
d="M867 380q0 -124 -103 -199t-293 -77v-104h-20v104q-191 2 -293.5 77t-102.5 199q0 125 99.5 198t296.5 75v104h20v-104q191 -2 293.5 -76t102.5 -197zM471 124q179 1 277.5 69.5t98.5 187.5q0 117 -97 184t-279 68v-509zM75 381q0 -120 96 -187.5t280 -69.5v509
q-188 -2 -282 -68t-94 -184z" />
    <glyph glyph-name="uni0554" unicode="&#x554;" horiz-adv-x="770" 
d="M745 153v-20h-590v-133h-20v133h-80v20h80v355v9q2 102 79.5 171t205.5 69q127 0 205.5 -69t78.5 -171t-78.5 -171t-205.5 -69q-91 0 -162.5 40.5t-102.5 106.5v-271h590zM420 738q-120 -1 -192.5 -64.5t-72.5 -156.5q0 -92 75.5 -156t189.5 -64q120 0 191.5 63t71.5 157
t-72 158t-191 63z" />
    <glyph glyph-name="uni0555" unicode="&#x555;" horiz-adv-x="904" 
d="M452 773q163 0 280 -114t117 -273q0 -160 -117 -274.5t-280 -114.5t-280 114.5t-117 274.5q0 159 117 273t280 114zM452 753q-155 0 -266 -108t-111 -259q0 -152 111 -260.5t266 -108.5t266 108.5t111 260.5q0 151 -111 259t-266 108z" />
    <glyph glyph-name="uni0556" unicode="&#x556;" horiz-adv-x="777" 
d="M742 232q0 -81 -47 -135t-122.5 -76.5t-174.5 -20.5q-168 2 -265.5 68t-97.5 185h20q2 -99 87.5 -164.5t247.5 -68.5v416q-120 4 -182 39t-62 127q0 39 15 68t37.5 45.5t57 26t65 12.5t69.5 3h20v-301q96 -3 162.5 -20.5t102.5 -48.5t51.5 -68.5t15.5 -86.5zM166 602
q0 -79 54.5 -110.5t169.5 -35.5v281q-108 -2 -166 -32.5t-58 -102.5zM410 20q58 0 109 10t99 32.5t76 66t28 103.5q-1 102 -79 150t-233 54v-416z" />
    <glyph glyph-name="uni0559" unicode="&#x559;" horiz-adv-x="142" 
d="M4 804l38 -114h-20l-43 113q-7 17 -7 26q0 11 8 18.5t18 7.5t18 -7.5t8 -18.5q0 -21 -20 -25z" />
    <glyph glyph-name="uni055A" unicode="&#x55a;" horiz-adv-x="142" 
d="M16 855q10 0 18 -7.5t8 -18.5q0 -9 -7 -26l-43 -113h-20l38 114q-20 4 -20 25q0 11 8 18.5t18 7.5z" />
    <glyph glyph-name="uni055B" unicode="&#x55b;" horiz-adv-x="59" 
d="M-22 799h31l-108 -160h-21z" />
    <glyph glyph-name="uni055C" unicode="&#x55c;" horiz-adv-x="228" 
d="M96 870l24 -2q9 -24 8.5 -42.5t-5.5 -29t-22.5 -19.5t-28.5 -12.5t-38.5 -10t-37.5 -9.5q-26 -7 -44 -23.5t-24.5 -45t15.5 -67.5h-20q-29 56 -8 98t74 57q11 3 31.5 7.5l33.5 7.5t27.5 10t20.5 16.5t5.5 26t-11.5 38.5z" />
    <glyph glyph-name="uni055D" unicode="&#x55d;" horiz-adv-x="129" 
d="M-49 799l98 -160h-21l-108 160h31z" />
    <glyph glyph-name="uni055E" unicode="&#x55e;" horiz-adv-x="211" 
d="M41 611v20q63 0 90 49q25 44 -3 85q-30 43 -102 43q-67 0 -95.5 -57t-30.5 -184h-20q2 135 35.5 198t110.5 63q93 0 125 -63q25 -50 -6 -100q-33 -54 -104 -54z" />
    <glyph glyph-name="uni055F" unicode="&#x55f;" horiz-adv-x="396" 
d="M240 545q-54 0 -92.5 11.5t-56 30.5t-24.5 36t-7 35q0 43 37 77t115 34h8v-20h-15q-45 0 -85 -22t-40 -70q0 -46 43.5 -69t107.5 -23h145v-20h-136z" />
    <glyph glyph-name="uni0561" unicode="&#x561;" horiz-adv-x="973" 
d="M838 517h20v-517h-20v142q-23 -67 -72 -104t-119 -38q-73 0 -119 41.5t-56 117.5q-20 -75 -70 -116.5t-124 -42.5q-85 0 -131.5 54t-46.5 150v313h20v-313q0 -87 41.5 -135.5t116.5 -48.5q91 2 141 66.5t50 177.5v253h20v-313q0 -87 41.5 -135.5t117.5 -48.5
q82 2 131.5 55t58.5 147v295z" />
    <glyph glyph-name="uni0562" unicode="&#x562;" horiz-adv-x="642" 
d="M597 20v-20h-462v-211h-20v728h20v-146q25 69 81 107t137 39q96 0 149.5 -54t53.5 -150v-143h-20v143q0 87 -48.5 135.5t-134.5 48.5q-96 -2 -153 -59t-65 -157v-261h462z" />
    <glyph glyph-name="uni0563" unicode="&#x563;" horiz-adv-x="698" 
d="M723 20v-20h-162v-211h-20v363q-29 -71 -90.5 -112.5t-142.5 -41.5q-109 0 -181 73.5t-72 186.5t71.5 187t181.5 74q81 0 142.5 -41.5t90.5 -112.5v152h20v-497h162zM308 18q101 0 167 68t66 172t-66 172.5t-167 68.5t-167 -68.5t-66 -172.5t66 -172t167 -68z" />
    <glyph glyph-name="uni0564" unicode="&#x564;" horiz-adv-x="693" 
d="M718 20v-20h-162v-211h-20v524q0 87 -48.5 135.5t-134.5 48.5q-96 -2 -153 -59t-65 -157v-281h-20v517h20v-146q25 69 81 107t137 39q96 0 149.5 -54t53.5 -150v-293h162z" />
    <glyph glyph-name="uni0565" unicode="&#x565;" horiz-adv-x="627" 
d="M582 497h-462v-293q0 -87 47.5 -135.5t132.5 -48.5q101 2 158 66.5t57 177.5v93h20v-357h-20v151q-24 -72 -79 -111t-136 -40q-94 0 -147 54t-53 150v553h20v-240h462v-20z" />
    <glyph glyph-name="uni0566" unicode="&#x566;" horiz-adv-x="683" 
d="M561 -191h162v-20h-182v363q-29 -71 -90.5 -112.5t-142.5 -41.5q-109 0 -181 73.5t-72 186.5t71.5 187t181.5 74q81 0 142.5 -41.5t90.5 -112.5v152h20v-708zM308 18q101 0 167 68t66 172t-66 172.5t-167 68.5t-167 -68.5t-66 -172.5t66 -172t167 -68z" />
    <glyph glyph-name="uni0567" unicode="&#x567;" horiz-adv-x="560" 
d="M515 496h-380v-474h166q107 0 107 -84h-20q-1 62 -88 62h-185v757h20v-241h380v-20z" />
    <glyph glyph-name="uni0568" unicode="&#x568;" horiz-adv-x="643" 
d="M136 -201h462v-20h-482l-1 738h20v-145q26 69 81.5 106.5t136.5 38.5q96 0 149.5 -54t53.5 -150v-313h-20v313q0 87 -48.5 135.5t-134.5 48.5q-96 -2 -153 -58t-65 -154z" />
    <glyph glyph-name="uni0569" unicode="&#x569;" horiz-adv-x="742" 
d="M678 332h118v-20h-117v-142q0 -170 -170 -170q-88 0 -134 49t-46 117q0 83 49.5 124.5t139.5 41.5h140q-7 82 -75.5 123.5t-187.5 41.5q-123 0 -191.5 -65.5t-68.5 -178.5v-464h-20v728h20v-151q29 72 95.5 111.5t164.5 39.5q128 0 202 -46.5t81 -138.5zM659 169v143
h-154q-25 0 -49 -6t-50 -20.5t-41.5 -46t-15.5 -75.5q0 -56 40 -100t120 -44q150 0 150 149z" />
    <glyph glyph-name="uni056A" unicode="&#x56a;" horiz-adv-x="643" 
d="M674 497h-149v-267q2 -110 -54.5 -170t-165.5 -60q-106 0 -173 67t-67 188q0 114 63.5 188t175.5 74h201v240h20v-240h149v-20zM505 232v265h-199q-104 0 -162.5 -69.5t-58.5 -172.5q0 -58 20.5 -109t72.5 -88.5t128 -37.5q102 0 150.5 57.5t48.5 154.5z" />
    <glyph glyph-name="uni056B" unicode="&#x56b;" horiz-adv-x="656" 
d="M353 517q96 0 149.5 -54t53.5 -150v-313h-20v313q0 87 -48.5 135.5t-134.5 48.5q-96 -2 -153 -59t-65 -157v-492h-20v968h20v-386q25 69 81 107t137 39z" />
    <glyph glyph-name="uni056C" unicode="&#x56c;" horiz-adv-x="257" 
d="M135 -191h162v-20h-182v728h20v-708z" />
    <glyph glyph-name="uni056D" unicode="&#x56d;" horiz-adv-x="918" 
d="M783 517h20v-517h-20v142q-23 -67 -72 -104t-119 -38q-83 0 -130.5 54t-47.5 150v293h-279v-708h-20v968h20v-240h299v-313q0 -87 41.5 -135.5t117.5 -48.5q82 2 131.5 55t58.5 147v295z" />
    <glyph glyph-name="uni056E" unicode="&#x56e;" horiz-adv-x="619" 
d="M604 497h-186q76 -63 113.5 -121t35.5 -142q1 -107 -70 -170.5t-182 -63.5q-109 0 -184.5 73t-75.5 182q0 112 75.5 187t196.5 75h35q-92 75 -145 139q-24 30 -26.5 59t7.5 43l10 15h18q-4 -5 -9.5 -14.5t-5 -37.5t21.5 -53q53 -63 161 -151h210v-20zM547 236
q1 44 -10 81t-36.5 69.5t-49 54.5t-65.5 56h-57q-113 0 -183.5 -70.5t-70.5 -171.5q0 -89 65 -162t176 -73q105 0 168 61t63 155z" />
    <glyph glyph-name="uni056F" unicode="&#x56f;" horiz-adv-x="650" 
d="M515 517h20v-728h-20v362q-24 -72 -79 -111t-136 -40q-94 0 -147 54t-53 150v553h20v-553q0 -87 47.5 -135.5t132.5 -48.5q101 2 158 66.5t57 177.5v253z" />
    <glyph glyph-name="uni0570" unicode="&#x570;" horiz-adv-x="657" 
d="M354 517q96 0 149.5 -54t53.5 -150v-313h-20v313q0 87 -48.5 135.5t-134.5 48.5q-103 -2 -161 -66.5t-58 -177.5v-253h-20v757h20v-389q25 70 81 109t138 40z" />
    <glyph glyph-name="uni0571" unicode="&#x571;" horiz-adv-x="610" 
d="M320 515q56 -20 96 -44t73 -61t49.5 -91t16.5 -127v-192h-20v129q-52 -129 -216 -129q-108 0 -172.5 68.5t-61.5 176.5q2 83 52.5 147t147.5 124l165 104h-172q-57 0 -82.5 18.5t-25.5 69.5v49h21v-48q0 -35 16 -52t57 -17h204q13 0 17.5 -5t0.5 -11t-14 -13zM319 20
q97 0 152.5 51t63.5 144q-5 117 -61 182.5t-173 105.5q-1 0 -1 -0.5t-1 -0.5q-96 -61 -143 -120.5t-50 -132.5q-4 -104 54.5 -166.5t158.5 -62.5z" />
    <glyph glyph-name="uni0572" unicode="&#x572;" horiz-adv-x="679" 
d="M556 -191h163v-20h-183v524q0 87 -48.5 135.5t-134.5 48.5q-96 -2 -153 -59t-65 -157v-281h-20v517h20v-146q25 69 81 107t137 39q96 0 149.5 -54t53.5 -150v-504z" />
    <glyph glyph-name="uni0573" unicode="&#x573;" horiz-adv-x="627" 
d="M592 0h-20l-5 152q-16 -40 -42.5 -71.5t-80 -56.5t-124.5 -24q-52 1 -93.5 14.5t-67.5 35.5t-43.5 50t-24.5 58.5t-6 60t8 55.5l64 223h-122v20h128l23 81q26 88 74.5 123.5t134.5 35.5h127v-20h-127q-76 0 -121.5 -34t-67.5 -110l-22 -76h128q145 0 207 -68t66 -213z
M320 20q56 -1 100.5 15t70 39.5t42.5 54t23.5 53t8.5 43.5l-1 17q-4 126 -58.5 190.5t-193.5 64.5h-134l-65 -225q-6 -30 -8 -63t12.5 -66.5t37.5 -60.5t66 -44t99 -18z" />
    <glyph glyph-name="uni0574" unicode="&#x574;" horiz-adv-x="647" 
d="M694 757v-20h-162v-737h-20v142q-52 -139 -212 -142q-94 0 -147 54t-53 150v313h20v-313q0 -87 47.5 -135.5t132.5 -48.5q90 2 145 53.5t67 142.5v541h182z" />
    <glyph glyph-name="uni0575" unicode="&#x575;" horiz-adv-x="228" 
d="M58 -191v-20q51 11 74 45t21.5 84.5t-11.5 100l-23.5 112t-14.5 100.5v287h-20v-276q0 -44 11.5 -107t21.5 -112t13.5 -96.5t-14 -78t-58.5 -39.5z" />
    <glyph glyph-name="uni0576" unicode="&#x576;" horiz-adv-x="650" 
d="M515 517h20v-517h-20v151q-24 -72 -79 -111t-136 -40q-94 0 -147 54t-53 150v533h-162v20h182v-553q0 -87 47.5 -135.5t132.5 -48.5q101 2 158 66.5t57 177.5v253z" />
    <glyph glyph-name="uni0577" unicode="&#x577;" horiz-adv-x="572" 
d="M518 -183l-235 -2q-98 -1 -139 26.5t-37 95.5q1 25 13 46t24 34.5t39.5 29t41.5 21.5t48.5 19.5t43.5 17.5q85 35 118 60q80 61 77 168q-3 87 -60.5 139.5t-153.5 51.5q-92 -1 -142 -50.5t-58 -112.5h20q31 142 181 143q87 1 138.5 -46t54.5 -125q5 -118 -107 -177
q-21 -12 -75 -33q-7 -3 -44 -17t-51.5 -20.5t-44 -23.5t-43.5 -32t-26.5 -39t-13.5 -52q-4 -79 40 -112t149 -32l243 2z" />
    <glyph glyph-name="uni0578" unicode="&#x578;" horiz-adv-x="656" 
d="M353 517q96 0 149.5 -54t53.5 -150v-313h-20v313q0 87 -48.5 135.5t-134.5 48.5q-96 -2 -153 -59t-65 -157v-281h-20v517h20v-146q25 69 81 107t137 39z" />
    <glyph glyph-name="uni0579" unicode="&#x579;" horiz-adv-x="431" 
d="M466 -191h-255q-84 0 -120 21t-36 70q0 68 113 156l146 114q28 23 29 46.5t-13 38.5t-36 27l-113 64q-44 24 -14 68l74 108l-15 9l-76 -107q-40 -61 19 -94l116 -66q67 -39 15 -80l-144 -112q-121 -93 -121 -172q0 -59 43 -85t133 -26h255v20z" />
    <glyph glyph-name="uni057A" unicode="&#x57a;" horiz-adv-x="973" 
d="M838 517h20v-728h-20v353q-23 -67 -72 -104t-119 -38q-73 0 -119 41.5t-56 117.5q-20 -75 -70 -116.5t-124 -42.5q-85 0 -131.5 54t-46.5 150v313h20v-313q0 -87 41.5 -135.5t116.5 -48.5q91 2 141 66.5t50 177.5v253h20v-313q0 -87 41.5 -135.5t117.5 -48.5
q82 2 131.5 55t58.5 147v295z" />
    <glyph glyph-name="uni057B" unicode="&#x57b;" horiz-adv-x="569" 
d="M85 -107q0 -32 27.5 -52t61 -26t71.5 -6h256v-20h-256q-180 0 -180 105q0 54 31 85t94 58l12.5 22.5t9.5 21.5t4.5 25.5t-6.5 23.5q-6 13 -23 24t-35 21.5t-36 27t-29.5 49t-11.5 78.5q1 77 57 132.5t162 54.5q105 -2 157.5 -64.5t52.5 -150.5q0 -47 -14 -85t-31.5 -60.5
t-48 -43t-50 -29t-50.5 -20.5q-9 -3 -13 -5q-12 -5 -37 -14.5l-36.5 -14t-32 -13.5t-30.5 -15l-25 -15.5t-22 -18.5t-15 -20.5t-11 -25t-3 -29.5zM228 140q20 -39 -11 -92q11 5 35.5 14.5t37.5 15.5q4 2 23.5 10t26 11l25.5 12t26.5 14.5l23.5 17t23 21.5l18 25t15.5 30.5
t8.5 35.5t4 42q0 34 -9.5 66.5t-29.5 63t-58 49.5t-90 21q-97 0 -150 -50.5t-52 -116.5q0 -53 16.5 -85.5t37 -43.5t45 -26.5t34.5 -34.5z" />
    <glyph glyph-name="uni057C" unicode="&#x57c;" horiz-adv-x="649" 
d="M393 20h191v-20h-212v20h1l25.5 26t31.5 33l29.5 34t30.5 43t22.5 45t18 54t5.5 58q0 87 -48.5 135.5t-134.5 48.5q-96 -2 -153 -59t-65 -157v-281h-20v517h20v-146q25 69 81 107t137 39q96 0 149.5 -54t53.5 -150q0 -41 -13 -82t-27.5 -68t-43 -60.5t-40.5 -45z" />
    <glyph glyph-name="uni057D" unicode="&#x57d;" horiz-adv-x="650" 
d="M515 517h20v-517h-20v151q-24 -72 -79 -111t-136 -40q-94 0 -147 54t-53 150v313h20v-313q0 -87 47.5 -135.5t132.5 -48.5q101 2 158 66.5t57 177.5v253z" />
    <glyph glyph-name="uni057E" unicode="&#x57e;" horiz-adv-x="657" 
d="M535 -191h162v-20h-182v362q-24 -72 -79 -111t-136 -40q-94 0 -147 54t-53 150v313h20v-313q0 -87 47.5 -135.5t132.5 -48.5q101 2 158 66.5t57 177.5v493h20v-948z" />
    <glyph glyph-name="uni057F" unicode="&#x57f;" horiz-adv-x="958" 
d="M680 517q83 0 130.5 -54t47.5 -150v-313h-20v313q0 87 -41.5 135.5t-117.5 48.5q-82 -2 -131.5 -55t-58.5 -147v-295h-20v148q-22 -70 -71 -108.5t-120 -39.5q-85 0 -131.5 54t-46.5 150v313h20v-313q0 -87 41.5 -135.5t116.5 -48.5q91 2 141 66.5t50 177.5v253h20v-142
q23 67 72 104t119 38z" />
    <glyph glyph-name="uni0580" unicode="&#x580;" horiz-adv-x="656" 
d="M353 517q96 0 149.5 -54t53.5 -150v-313h-20v313q0 87 -48.5 135.5t-134.5 48.5q-96 -2 -153 -59t-65 -157v-492h-20v728h20v-146q25 69 81 107t137 39z" />
    <glyph glyph-name="uni0581" unicode="&#x581;" horiz-adv-x="639" 
d="M519 517h20v-476q0 -115 -67 -183.5t-179 -68.5q-116 0 -208 90l14 14q84 -84 194 -84q103 0 164.5 63t61.5 169v125q-27 -68 -86.5 -107.5t-136.5 -39.5q-104 0 -172.5 70.5t-68.5 177.5q0 109 68.5 179.5t172.5 70.5q77 0 136.5 -40t86.5 -108v148zM296 38q97 0 160 65
t63 164q0 100 -63 165.5t-160 65.5t-159.5 -65.5t-62.5 -165.5q0 -99 62.5 -164t159.5 -65z" />
    <glyph glyph-name="uni0582" unicode="&#x582;" horiz-adv-x="272" 
d="M55 20h162v-20h-182v517h20v-497z" />
    <glyph glyph-name="uni0583" unicode="&#x583;" horiz-adv-x="958" 
d="M680 517q83 0 130.5 -54t47.5 -150v-313h-20v313q0 87 -41.5 135.5t-117.5 48.5q-82 -2 -131.5 -55t-58.5 -147v-506h-20v359q-22 -70 -71 -108.5t-120 -39.5q-85 0 -131.5 54t-46.5 150v313h20v-313q0 -87 41.5 -135.5t116.5 -48.5q91 2 141 66.5t50 177.5v509h20v-398
q23 67 72 104t119 38z" />
    <glyph glyph-name="uni0584" unicode="&#x584;" horiz-adv-x="758" 
d="M683 -80v-20h-508v-111h-20v111h-90v20h90v597h20v-152q28 70 89.5 111t141.5 41q109 0 180 -73.5t71 -185.5t-71 -185t-180 -73q-80 0 -141.5 41t-89.5 111v-232h508zM406 497q-100 0 -165.5 -67.5t-65.5 -171.5t65.5 -171t165.5 -67t165.5 67t65.5 171t-65.5 171.5
t-165.5 67.5z" />
    <glyph glyph-name="uni0585" unicode="&#x585;" horiz-adv-x="622" 
d="M311 517q108 0 179.5 -73t71.5 -185q0 -113 -71.5 -186t-179.5 -73t-179.5 73t-71.5 186q0 112 71.5 185t179.5 73zM311 497q-101 0 -166 -66.5t-65 -171.5t65 -172t166 -67t166 67t65 172t-65 171.5t-166 66.5z" />
    <glyph glyph-name="uni0586" unicode="&#x586;" horiz-adv-x="717" 
d="M692 232q1 -118 -82.5 -175t-229.5 -57v-211h-20v211q-162 4 -248.5 68.5t-86.5 184.5h20q2 -101 78.5 -165.5t236.5 -67.5v416q-114 7 -169 40.5t-55 125.5q0 40 13 68.5t33 45t51.5 26t60 12.5t66.5 3h20v-301q93 -5 155.5 -23t96 -48.5t47 -67t13.5 -85.5zM156 602
q0 -79 47 -109t157 -36v280q-104 -2 -154 -32t-50 -103zM380 20q45 0 84.5 6t79 20.5t67 38t44.5 61t17 86.5q-1 102 -72.5 148t-219.5 55v-415z" />
    <glyph glyph-name="uni05650582" unicode="&#x587;" horiz-adv-x="752" 
d="M535 20h162v-20h-182v151q-24 -72 -79 -111t-136 -40q-94 0 -147 54t-53 150v553h20v-553q0 -87 47.5 -135.5t132.5 -48.5q101 2 158 66.5t57 177.5v253h20v-497z" />
    <glyph glyph-name="uni0589" unicode="&#x589;" horiz-adv-x="302" 
d="M151 518q11 0 18.5 -8t7.5 -18t-7.5 -18t-18.5 -8t-18.5 8t-7.5 18t7.5 18t18.5 8zM151 45q11 0 18.5 -7.5t7.5 -18.5t-7.5 -18.5t-18.5 -7.5t-18.5 7.5t-7.5 18.5t7.5 18.5t18.5 7.5z" />
    <glyph glyph-name="uni058A" unicode="&#x58a;" horiz-adv-x="408" 
d="M370 233l8 -16q-86 -59 -171 -60q-110 -1 -177 64l11 13q74 -58 164 -57q88 1 165 56z" />
    <glyph glyph-name="uni058F" unicode="&#x58f;" horiz-adv-x="831" 
d="M851 306h-182v-170h182v-20h-182v-116h-20v116h-181v20h181v170h-181v20h181v147q0 126 -67.5 195t-189.5 69t-189.5 -69t-67.5 -195v-112h-20v112q0 136 72.5 210t204.5 74t204.5 -74t72.5 -210v-147h182v-20z" />
    <glyph glyph-name="uni1E08" unicode="&#x1e08;" horiz-adv-x="705" 
d="M513 881l-129 -105l-26 5l136 110zM398 -56q38 -1 59.5 -22.5t21.5 -51.5q0 -33 -23.5 -58t-65.5 -25q-44 0 -73 22l8 20q28 -21 65 -21q32 0 50 18.5t18 43.5q0 22 -16 38.5t-42 16.5h-29l21 72q-142 7 -242 110t-100 243q0 145 105.5 249t253.5 104q138 0 240 -91
l-13 -13q-94 85 -227 85q-140 0 -240 -98t-100 -236q0 -137 100 -235.5t240 -98.5q131 0 227 86l14 -13q-102 -91 -237 -92z" />
    <glyph glyph-name="uni1E09" unicode="&#x1e09;" horiz-adv-x="557" 
d="M416 780l-129 -105l-26 5l136 110zM490 81q-71 -81 -187 -81h-4l-16 -56q38 -1 59.5 -22.5t21.5 -51.5q0 -33 -23.5 -58t-65.5 -25q-44 0 -73 22l8 20q28 -21 65 -21q33 0 50.5 18.5t17.5 43.5q0 22 -16 38.5t-42 16.5h-29l22 76q-99 9 -162.5 80.5t-63.5 177.5
q0 112 71.5 185t179.5 73q104 0 176 -69l-13 -14q-69 63 -163 63q-101 0 -166.5 -66.5t-65.5 -171.5t65.5 -172t166.5 -67q108 0 174 75z" />
    <glyph glyph-name="uni1E0C" unicode="&#x1e0c;" horiz-adv-x="811" 
d="M403 699q148 0 253 -102.5t105 -247.5q0 -144 -105 -246.5t-253 -102.5h-275v699h275zM403 20q139 0 238.5 96.5t99.5 232.5t-99 233t-239 97h-255v-659h255zM391 -80q11 0 18.5 -8t7.5 -18t-7.5 -18t-18.5 -8t-18.5 8t-7.5 18t7.5 18t18.5 8z" />
    <glyph glyph-name="uni1E0D" unicode="&#x1e0d;" horiz-adv-x="673" 
d="M538 742h20v-742h-20v152q-29 -71 -90.5 -112.5t-142.5 -41.5q-109 0 -181 73.5t-72 186.5t71.5 187t181.5 74q81 0 142.5 -41.5t90.5 -112.5v377zM305 18q101 0 167 68t66 172t-66 172.5t-167 68.5t-167 -68.5t-66 -172.5t66 -172t167 -68zM330 -80q10 0 18 -8t8 -18
t-8 -18t-18 -8t-18 8t-8 18t8 18t18 8z" />
    <glyph glyph-name="uni1E0E" unicode="&#x1e0e;" horiz-adv-x="811" 
d="M403 699q148 0 253 -102.5t105 -247.5q0 -144 -105 -246.5t-253 -102.5h-275v699h275zM403 20q139 0 238.5 96.5t99.5 232.5t-99 233t-239 97h-255v-659h255zM262 -90h257v-20h-257v20z" />
    <glyph glyph-name="uni1E0F" unicode="&#x1e0f;" horiz-adv-x="673" 
d="M538 742h20v-742h-20v152q-29 -71 -90.5 -112.5t-142.5 -41.5q-109 0 -181 73.5t-72 186.5t71.5 187t181.5 74q81 0 142.5 -41.5t90.5 -112.5v377zM305 18q101 0 167 68t66 172t-66 172.5t-167 68.5t-167 -68.5t-66 -172.5t66 -172t167 -68zM201 -110v20h257v-20h-257z
" />
    <glyph glyph-name="uni1E14" unicode="&#x1e14;" horiz-adv-x="644" 
d="M260 956l153 -85l-25 -9l-145 81zM242 796h217v-20h-217v20zM128 699h437v-20h-417v-309h371v-20h-371v-330h431v-20h-451v699z" />
    <glyph glyph-name="uni1E15" unicode="&#x1e15;" horiz-adv-x="589" 
d="M370 719l-25 -9l-145 81l17 13zM416 644v-20h-217v20h217zM301 20q116 0 183 75l14 -14q-75 -81 -197 -81q-108 0 -178.5 73t-70.5 186q0 112 70.5 185t178.5 73q107 0 173.5 -72.5t66.5 -185.5h-469q0 -105 64.5 -172t164.5 -67zM301 497q-95 0 -158.5 -60.5
t-69.5 -157.5h448q-7 98 -66 158t-154 60z" />
    <glyph glyph-name="uni1E16" unicode="&#x1e16;" horiz-adv-x="644" 
d="M446 956l17 -13l-145 -81l-25 9zM239 796h217v-20h-217v20zM128 699h437v-20h-417v-309h371v-20h-371v-330h431v-20h-451v699z" />
    <glyph glyph-name="uni1E17" unicode="&#x1e17;" horiz-adv-x="589" 
d="M426 791l-145 -81l-25 9l153 85zM419 644v-20h-217v20h217zM301 20q116 0 183 75l14 -14q-75 -81 -197 -81q-108 0 -178.5 73t-70.5 186q0 112 70.5 185t178.5 73q107 0 173.5 -72.5t66.5 -185.5h-469q0 -105 64.5 -172t164.5 -67zM301 497q-95 0 -158.5 -60.5
t-69.5 -157.5h448q-7 98 -66 158t-154 60z" />
    <glyph glyph-name="uni1E1C" unicode="&#x1e1c;" horiz-adv-x="644" 
d="M343 776q-43 0 -73.5 30t-31.5 75h20q2 -36 26 -60.5t59 -24.5t59 24.5t26 60.5h20q-1 -45 -31.5 -75t-73.5 -30zM579 0h-208l-16 -56q38 -1 59.5 -22.5t21.5 -51.5q0 -33 -23.5 -58t-65.5 -25q-44 0 -73 22l8 20q28 -21 65 -21q33 0 50.5 18.5t17.5 43.5q0 22 -16 38.5
t-42 16.5h-29l22 75h-222v699h437v-20h-417v-309h371v-20h-371v-330h431v-20z" />
    <glyph glyph-name="uni1E1D" unicode="&#x1e1d;" horiz-adv-x="589" 
d="M295 672q-43 0 -73.5 30t-31.5 75h20q2 -36 26 -60.5t59 -24.5t59 24.5t26 60.5h20q-1 -45 -31.5 -75t-73.5 -30zM301 20q116 0 183 75l14 -14q-73 -79 -193 -81l-16 -56q38 -1 59.5 -22.5t21.5 -51.5q0 -33 -23.5 -58t-65.5 -25q-44 0 -73 22l8 20q28 -21 65 -21
q33 0 50.5 18.5t17.5 43.5q0 22 -16 38.5t-42 16.5h-29l22 76q-101 6 -166.5 78t-65.5 180q0 112 70.5 185t178.5 73q107 0 173.5 -72.5t66.5 -185.5h-469q0 -105 64.5 -172t164.5 -67zM301 497q-95 0 -158.5 -60.5t-69.5 -157.5h448q-7 98 -66 158t-154 60z" />
    <glyph glyph-name="uni1E20" unicode="&#x1e20;" horiz-adv-x="760" 
d="M538 801v-20h-317v20h317zM630 343h20v-254q-103 -92 -241 -92q-148 0 -253.5 104t-105.5 250q0 145 105.5 248.5t253.5 103.5q138 0 240 -91l-13 -13q-94 85 -227 85q-140 0 -240 -98t-100 -235q0 -138 100 -236.5t240 -98.5q127 0 221 81v246z" />
    <glyph glyph-name="uni1E21" unicode="&#x1e21;" horiz-adv-x="630" 
d="M425 677v-20h-257v20h257zM516 517h20v-459q0 -115 -67 -183.5t-179 -68.5q-116 0 -208 90l14 14q84 -84 194 -84q103 0 164.5 63t61.5 169v108q-27 -68 -86.5 -107.5t-136.5 -39.5q-104 0 -172.5 70.5t-68.5 177.5q0 109 68.5 179.5t172.5 70.5q77 0 136.5 -40
t86.5 -108v148zM293 38q97 0 160 65t63 164q0 100 -63 165.5t-160 65.5t-159.5 -65.5t-62.5 -165.5q0 -99 62.5 -164t159.5 -65z" />
    <glyph glyph-name="uni1E24" unicode="&#x1e24;" horiz-adv-x="799" 
d="M128 699h20v-336h503v336h20v-699h-20v343h-503v-343h-20v699zM400 -80q10 0 18 -8t8 -18t-8 -18t-18 -8t-18 8t-8 18t8 18t18 8z" />
    <glyph glyph-name="uni1E25" unicode="&#x1e25;" horiz-adv-x="650" 
d="M354 517q96 0 149.5 -54t53.5 -150v-313h-20v313q0 87 -48.5 135.5t-134.5 48.5q-103 -2 -161 -66.5t-58 -177.5v-253h-20v742h20v-374q25 70 81 109t138 40zM336 -80q10 0 18 -8t8 -18t-8 -18t-18 -8t-18 8t-8 18t8 18t18 8z" />
    <glyph glyph-name="uni1E2A" unicode="&#x1e2a;" horiz-adv-x="799" 
d="M128 699h20v-336h503v336h20v-699h-20v343h-503v-343h-20v699zM315 -50q2 -36 26 -60.5t59 -24.5t59 24.5t26 60.5h20q-1 -45 -31.5 -75t-73.5 -30t-73.5 30t-31.5 75h20z" />
    <glyph glyph-name="uni1E2B" unicode="&#x1e2b;" horiz-adv-x="650" 
d="M354 517q96 0 149.5 -54t53.5 -150v-313h-20v313q0 87 -48.5 135.5t-134.5 48.5q-103 -2 -161 -66.5t-58 -177.5v-253h-20v742h20v-374q25 70 81 109t138 40zM336 -135q35 0 59 24.5t26 60.5h20q-1 -45 -31.5 -75t-73.5 -30t-73.5 30t-31.5 75h20q2 -36 26 -60.5
t59 -24.5z" />
    <glyph glyph-name="uni1E2E" unicode="&#x1e2e;" horiz-adv-x="276" 
d="M224 952l17 -13l-145 -81l-25 9zM60 828q10 0 18 -8t8 -18t-8 -18t-18 -8t-18 8t-8 18t8 18t18 8zM192 828q10 0 18 -8t8 -18t-8 -18t-18 -8t-18 8t-8 18t8 18t18 8zM128 699h20v-699h-20v699z" />
    <glyph glyph-name="uni1E2F" unicode="&#x1e2f;" horiz-adv-x="240" 
d="M206 800l17 -13l-145 -81l-25 9zM42 676q10 0 18 -8t8 -18t-8 -18t-18 -8t-18 8t-8 18t8 18t18 8zM174 676q10 0 18 -8t8 -18t-8 -18t-18 -8t-18 8t-8 18t8 18t18 8zM110 517h20v-517h-20v517z" />
    <glyph glyph-name="uni1E36" unicode="&#x1e36;" horiz-adv-x="491" 
d="M128 699h20v-679h313v-20h-333v699zM295 -80q11 0 18.5 -8t7.5 -18t-7.5 -18t-18.5 -8t-18.5 8t-7.5 18t7.5 18t18.5 8z" />
    <glyph glyph-name="uni1E37" unicode="&#x1e37;" horiz-adv-x="250" 
d="M115 742h20v-742h-20v742zM125 -80q11 0 18.5 -8t7.5 -18t-7.5 -18t-18.5 -8t-18.5 8t-7.5 18t7.5 18t18.5 8z" />
    <glyph glyph-name="uni1E3A" unicode="&#x1e3a;" horiz-adv-x="491" 
d="M128 699h20v-679h313v-20h-333v699zM166 -90h257v-20h-257v20z" />
    <glyph glyph-name="uni1E3B" unicode="&#x1e3b;" horiz-adv-x="250" 
d="M115 742h20v-742h-20v742zM-4 -90h257v-20h-257v20z" />
    <glyph glyph-name="uni1E42" unicode="&#x1e42;" horiz-adv-x="934" 
d="M128 699h35l305 -579l303 579h35v-699h-20l-1 680l-317 -603h-2l-318 603v-680h-20v699zM467 -80q11 0 18.5 -8t7.5 -18t-7.5 -18t-18.5 -8t-18.5 8t-7.5 18t7.5 18t18.5 8z" />
    <glyph glyph-name="uni1E43" unicode="&#x1e43;" horiz-adv-x="1046" 
d="M755 517q94 0 146 -54t52 -150v-313h-20v313q0 87 -47 135.5t-131 48.5q-101 -2 -157 -66.5t-56 -177.5v-253h-20v313q0 87 -47.5 135.5t-131.5 48.5q-100 -2 -156.5 -66.5t-56.5 -177.5v-253h-20v517h20v-148q24 70 79 108.5t135 39.5q81 0 132 -41.5t63 -116.5
q23 75 78.5 116t137.5 42zM532 -80q10 0 18 -8t8 -18t-8 -18t-18 -8t-18 8t-8 18t8 18t18 8z" />
    <glyph glyph-name="uni1E44" unicode="&#x1e44;" horiz-adv-x="799" 
d="M415 776q-11 0 -18.5 8t-7.5 18t7.5 18t18.5 8t18.5 -8t7.5 -18t-7.5 -18t-18.5 -8zM651 699h20v-699h-30l-493 679v-679h-20v699h30l493 -679v679z" />
    <glyph glyph-name="uni1E45" unicode="&#x1e45;" horiz-adv-x="644" 
d="M342 640q-10 0 -18 8t-8 18t8 18t18 8t18 -8t8 -18t-8 -18t-18 -8zM348 517q96 0 149.5 -54t53.5 -150v-313h-20v313q0 87 -48.5 135.5t-134.5 48.5q-96 -2 -153 -59t-65 -157v-281h-20v517h20v-146q25 69 81 107t137 39z" />
    <glyph glyph-name="uni1E46" unicode="&#x1e46;" horiz-adv-x="799" 
d="M651 699h20v-699h-30l-493 679v-679h-20v699h30l493 -679v679zM395 -80q11 0 18.5 -8t7.5 -18t-7.5 -18t-18.5 -8t-18.5 8t-7.5 18t7.5 18t18.5 8z" />
    <glyph glyph-name="uni1E47" unicode="&#x1e47;" horiz-adv-x="644" 
d="M348 517q96 0 149.5 -54t53.5 -150v-313h-20v313q0 87 -48.5 135.5t-134.5 48.5q-96 -2 -153 -59t-65 -157v-281h-20v517h20v-146q25 69 81 107t137 39zM325 -80q11 0 18.5 -8t7.5 -18t-7.5 -18t-18.5 -8t-18.5 8t-7.5 18t7.5 18t18.5 8z" />
    <glyph glyph-name="uni1E48" unicode="&#x1e48;" horiz-adv-x="799" 
d="M651 699h20v-699h-30l-493 679v-679h-20v699h30l493 -679v679zM266 -110v20h257v-20h-257z" />
    <glyph glyph-name="uni1E49" unicode="&#x1e49;" horiz-adv-x="644" 
d="M348 517q96 0 149.5 -54t53.5 -150v-313h-20v313q0 87 -48.5 135.5t-134.5 48.5q-96 -2 -153 -59t-65 -157v-281h-20v517h20v-146q25 69 81 107t137 39zM196 -110v20h257v-20h-257z" />
    <glyph glyph-name="uni1E4C" unicode="&#x1e4c;" horiz-adv-x="818" 
d="M509 983l17 -13l-145 -81l-25 9zM542 843q0 -32 -19 -51t-52 -19q-29 0 -65.5 27.5t-59.5 27.5q-24 0 -37 -14t-13 -38h-20q0 32 19.5 51.5t52.5 19.5q29 0 65.5 -27.5t59.5 -27.5q24 0 37 13.5t13 37.5h19zM409 703q148 0 253.5 -103.5t105.5 -248.5q0 -146 -105.5 -250
t-253.5 -104t-253.5 104t-105.5 250q0 145 105.5 248.5t253.5 103.5zM409 683q-139 0 -239 -97.5t-100 -234.5t100 -235.5t239 -98.5t239 98.5t100 235.5t-100 234.5t-239 97.5z" />
    <glyph glyph-name="uni1E4D" unicode="&#x1e4d;" horiz-adv-x="606" 
d="M403 831l17 -13l-145 -81l-25 9zM436 691q0 -32 -19 -51t-52 -19q-29 0 -65.5 27.5t-59.5 27.5q-24 0 -37 -14t-13 -38h-20q0 32 19.5 51.5t52.5 19.5q29 0 65.5 -27.5t59.5 -27.5q24 0 37 13.5t13 37.5h19zM303 517q108 0 179.5 -73t71.5 -185q0 -113 -71.5 -186
t-179.5 -73t-179.5 73t-71.5 186q0 112 71.5 185t179.5 73zM303 497q-101 0 -166 -66.5t-65 -171.5t65 -172t166 -67t166 67t65 172t-65 171.5t-166 66.5z" />
    <glyph glyph-name="uni1E4E" unicode="&#x1e4e;" horiz-adv-x="818" 
d="M345 941q11 0 18.5 -7.5t7.5 -18.5t-7.5 -18.5t-18.5 -7.5t-18.5 7.5t-7.5 18.5t7.5 18.5t18.5 7.5zM477 941q11 0 18.5 -7.5t7.5 -18.5t-7.5 -18.5t-18.5 -7.5t-18.5 7.5t-7.5 18.5t7.5 18.5t18.5 7.5zM542 843q0 -32 -19 -51t-52 -19q-29 0 -65.5 27.5t-59.5 27.5
q-24 0 -37 -14t-13 -38h-20q0 32 19.5 51.5t52.5 19.5q29 0 65.5 -27.5t59.5 -27.5q24 0 37 13.5t13 37.5h19zM409 703q148 0 253.5 -103.5t105.5 -248.5q0 -146 -105.5 -250t-253.5 -104t-253.5 104t-105.5 250q0 145 105.5 248.5t253.5 103.5zM409 683q-139 0 -239 -97.5
t-100 -234.5t100 -235.5t239 -98.5t239 98.5t100 235.5t-100 234.5t-239 97.5z" />
    <glyph glyph-name="uni1E4F" unicode="&#x1e4f;" horiz-adv-x="606" 
d="M239 789q11 0 18.5 -7.5t7.5 -18.5t-7.5 -18.5t-18.5 -7.5t-18.5 7.5t-7.5 18.5t7.5 18.5t18.5 7.5zM371 789q11 0 18.5 -7.5t7.5 -18.5t-7.5 -18.5t-18.5 -7.5t-18.5 7.5t-7.5 18.5t7.5 18.5t18.5 7.5zM436 691q0 -32 -19 -51t-52 -19q-29 0 -65.5 27.5t-59.5 27.5
q-24 0 -37 -14t-13 -38h-20q0 32 19.5 51.5t52.5 19.5q29 0 65.5 -27.5t59.5 -27.5q24 0 37 13.5t13 37.5h19zM303 517q108 0 179.5 -73t71.5 -185q0 -113 -71.5 -186t-179.5 -73t-179.5 73t-71.5 186q0 112 71.5 185t179.5 73zM303 497q-101 0 -166 -66.5t-65 -171.5
t65 -172t166 -67t166 67t65 172t-65 171.5t-166 66.5z" />
    <glyph glyph-name="uni1E50" unicode="&#x1e50;" horiz-adv-x="818" 
d="M318 956l153 -85l-25 -9l-145 81zM300 796h217v-20h-217v20zM409 703q148 0 253.5 -103.5t105.5 -248.5q0 -146 -105.5 -250t-253.5 -104t-253.5 104t-105.5 250q0 145 105.5 248.5t253.5 103.5zM409 683q-139 0 -239 -97.5t-100 -234.5t100 -235.5t239 -98.5t239 98.5
t100 235.5t-100 234.5t-239 97.5z" />
    <glyph glyph-name="uni1E51" unicode="&#x1e51;" horiz-adv-x="606" 
d="M225 804l153 -85l-25 -9l-145 81zM207 644h217v-20h-217v20zM303 517q108 0 179.5 -73t71.5 -185q0 -113 -71.5 -186t-179.5 -73t-179.5 73t-71.5 186q0 112 71.5 185t179.5 73zM303 497q-101 0 -166 -66.5t-65 -171.5t65 -172t166 -67t166 67t65 172t-65 171.5
t-166 66.5z" />
    <glyph glyph-name="uni1E52" unicode="&#x1e52;" horiz-adv-x="818" 
d="M504 956l17 -13l-145 -81l-25 9zM297 796h217v-20h-217v20zM409 703q148 0 253.5 -103.5t105.5 -248.5q0 -146 -105.5 -250t-253.5 -104t-253.5 104t-105.5 250q0 145 105.5 248.5t253.5 103.5zM409 683q-139 0 -239 -97.5t-100 -234.5t100 -235.5t239 -98.5t239 98.5
t100 235.5t-100 234.5t-239 97.5z" />
    <glyph glyph-name="uni1E53" unicode="&#x1e53;" horiz-adv-x="606" 
d="M417 804l17 -13l-145 -81l-25 9zM210 644h217v-20h-217v20zM303 517q108 0 179.5 -73t71.5 -185q0 -113 -71.5 -186t-179.5 -73t-179.5 73t-71.5 186q0 112 71.5 185t179.5 73zM303 497q-101 0 -166 -66.5t-65 -171.5t65 -172t166 -67t166 67t65 172t-65 171.5t-166 66.5
z" />
    <glyph glyph-name="uni1E5A" unicode="&#x1e5a;" horiz-adv-x="722" 
d="M632 472q0 -90 -47 -147.5t-134 -76.5l181 -248h-25l-178 244q-40 -4 -64 -4h-217v-240h-20v699h237q127 0 197 -59.5t70 -167.5zM148 260h217q118 0 182.5 55.5t64.5 156.5q0 99 -64.5 153t-182.5 54h-217v-419zM361 -80q11 0 18.5 -8t7.5 -18t-7.5 -18t-18.5 -8
t-18.5 8t-7.5 18t7.5 18t18.5 8z" />
    <glyph glyph-name="uni1E5B" unicode="&#x1e5b;" horiz-adv-x="338" 
d="M130 376q49 138 198 141v-20q-88 -2 -139.5 -58.5t-58.5 -155.5v-283h-20v517h20v-141zM120 -80q10 0 18 -8t8 -18t-8 -18t-18 -8t-18 8t-8 18t8 18t18 8z" />
    <glyph glyph-name="uni1E5E" unicode="&#x1e5e;" horiz-adv-x="722" 
d="M632 472q0 -90 -47 -147.5t-134 -76.5l181 -248h-25l-178 244q-40 -4 -64 -4h-217v-240h-20v699h237q127 0 197 -59.5t70 -167.5zM148 260h217q118 0 182.5 55.5t64.5 156.5q0 99 -64.5 153t-182.5 54h-217v-419zM232 -110v20h257v-20h-257z" />
    <glyph glyph-name="uni1E5F" unicode="&#x1e5f;" horiz-adv-x="338" 
d="M130 376q49 138 198 141v-20q-88 -2 -139.5 -58.5t-58.5 -155.5v-283h-20v517h20v-141zM47 -110v20h257v-20h-257z" />
    <glyph glyph-name="uni1E60" unicode="&#x1e60;" horiz-adv-x="593" 
d="M287 828q11 0 18.5 -8t7.5 -18t-7.5 -18t-18.5 -8t-18.5 8t-7.5 18t7.5 18t18.5 8zM478 636q-73 47 -176 47q-92 0 -147.5 -37.5t-55.5 -99.5q0 -48 23 -81t60 -51.5t82 -32t89.5 -28.5t81.5 -35.5t59.5 -58t22.5 -90.5q0 -78 -64.5 -125t-172.5 -47q-66 0 -130.5 27
t-108.5 72l14 14q40 -43 101 -68t124 -25q99 0 158 41.5t59 110.5q0 49 -22.5 83.5t-59.5 53t-81.5 32.5l-89.5 29t-82 35t-60 56.5t-23 88.5q0 71 61 113.5t162 42.5q107 0 186 -51z" />
    <glyph glyph-name="uni1E61" unicode="&#x1e61;" horiz-adv-x="427" 
d="M213 692q11 0 18.5 -8t7.5 -18t-7.5 -18t-18.5 -8t-18.5 8t-7.5 18t7.5 18t18.5 8zM350 463q-53 34 -127 34q-64 0 -104.5 -26t-40.5 -76q0 -36 23 -60.5t57.5 -36l75 -25t75 -26.5t57.5 -42t23 -71q0 -66 -50.5 -100t-123.5 -34q-113 0 -185 72l13 15q69 -67 172 -67
q65 0 108.5 27.5t45.5 81.5q1 37 -21 62.5t-57 38l-75.5 26t-75.5 27t-58.5 41.5t-23.5 69q0 61 46.5 92.5t117.5 31.5q74 0 138 -37z" />
    <glyph glyph-name="uni1E62" unicode="&#x1e62;" horiz-adv-x="593" 
d="M478 636q-73 47 -176 47q-92 0 -147.5 -37.5t-55.5 -99.5q0 -48 23 -81t60 -51.5t82 -32t89.5 -28.5t81.5 -35.5t59.5 -58t22.5 -90.5q0 -78 -64.5 -125t-172.5 -47q-66 0 -130.5 27t-108.5 72l14 14q40 -43 101 -68t124 -25q99 0 158 41.5t59 110.5q0 49 -22.5 83.5
t-59.5 53t-81.5 32.5l-89.5 29t-82 35t-60 56.5t-23 88.5q0 71 61 113.5t162 42.5q107 0 186 -51zM297 -80q11 0 18.5 -8t7.5 -18t-7.5 -18t-18.5 -8t-18.5 8t-7.5 18t7.5 18t18.5 8z" />
    <glyph glyph-name="uni1E63" unicode="&#x1e63;" horiz-adv-x="427" 
d="M350 463q-53 34 -127 34q-64 0 -104.5 -26t-40.5 -76q0 -36 23 -60.5t57.5 -36l75 -25t75 -26.5t57.5 -42t23 -71q0 -66 -50.5 -100t-123.5 -34q-113 0 -185 72l13 15q69 -67 172 -67q65 0 108.5 27.5t45.5 81.5q1 37 -21 62.5t-57 38l-75.5 26t-75.5 27t-58.5 41.5
t-23.5 69q0 61 46.5 92.5t117.5 31.5q74 0 138 -37zM210 -80q10 0 18 -8t8 -18t-8 -18t-18 -8t-18 8t-8 18t8 18t18 8z" />
    <glyph glyph-name="uni1E64" unicode="&#x1e64;" horiz-adv-x="593" 
d="M277 945q11 0 18.5 -7.5t7.5 -18.5t-7.5 -18.5t-18.5 -7.5t-18.5 7.5t-7.5 18.5t7.5 18.5t18.5 7.5zM355 870l17 -13l-145 -81l-25 9zM478 636q-73 47 -176 47q-92 0 -147.5 -37.5t-55.5 -99.5q0 -48 23 -81t60 -51.5t82 -32t89.5 -28.5t81.5 -35.5t59.5 -58t22.5 -90.5
q0 -78 -64.5 -125t-172.5 -47q-66 0 -130.5 27t-108.5 72l14 14q40 -43 101 -68t124 -25q99 0 158 41.5t59 110.5q0 49 -22.5 83.5t-59.5 53t-81.5 32.5l-89.5 29t-82 35t-60 56.5t-23 88.5q0 71 61 113.5t162 42.5q107 0 186 -51z" />
    <glyph glyph-name="uni1E65" unicode="&#x1e65;" horiz-adv-x="427" 
d="M203 793q11 0 18.5 -7.5t7.5 -18.5t-7.5 -18.5t-18.5 -7.5t-18.5 7.5t-7.5 18.5t7.5 18.5t18.5 7.5zM281 718l17 -13l-145 -81l-25 9zM350 463q-53 34 -127 34q-64 0 -104.5 -26t-40.5 -76q0 -36 23 -60.5t57.5 -36l75 -25t75 -26.5t57.5 -42t23 -71q0 -66 -50.5 -100
t-123.5 -34q-113 0 -185 72l13 15q69 -67 172 -67q65 0 108.5 27.5t45.5 81.5q1 37 -21 62.5t-57 38l-75.5 26t-75.5 27t-58.5 41.5t-23.5 69q0 61 46.5 92.5t117.5 31.5q74 0 138 -37z" />
    <glyph glyph-name="uni1E66" unicode="&#x1e66;" horiz-adv-x="593" 
d="M297 885q-11 0 -18.5 7.5t-7.5 18.5t7.5 18.5t18.5 7.5t18.5 -7.5t7.5 -18.5t-7.5 -18.5t-18.5 -7.5zM313 775h-33l-107 80h28l96 -68l96 68h28zM99 546q0 -48 23 -81t60 -51.5t82 -32t89.5 -28.5t81.5 -35.5t59.5 -58t22.5 -90.5q0 -78 -64.5 -125t-172.5 -47
q-66 0 -130.5 27t-108.5 72l14 14q40 -43 101 -68t124 -25q99 0 158 41.5t59 110.5q0 49 -22.5 83.5t-59.5 53t-81.5 32.5l-89.5 29t-82 35t-60 56.5t-23 88.5q0 71 61 113.5t162 42.5q107 0 186 -51l-10 -16q-73 47 -176 47q-92 0 -147.5 -37.5t-55.5 -99.5z" />
    <glyph glyph-name="uni1E67" unicode="&#x1e67;" horiz-adv-x="427" 
d="M223 734q-11 0 -18.5 8t-7.5 18t7.5 18t18.5 8t18.5 -8t7.5 -18t-7.5 -18t-18.5 -8zM239 624h-33l-107 80h28l96 -68l96 68h28zM78 395q0 -36 23 -60.5t57.5 -36l75 -25t75 -26.5t57.5 -42t23 -71q0 -66 -50.5 -100t-123.5 -34q-113 0 -185 72l13 15q69 -67 172 -67
q65 0 108.5 27.5t45.5 81.5q1 37 -21 62.5t-57 38l-75.5 26t-75.5 27t-58.5 41.5t-23.5 69q0 61 46.5 92.5t117.5 31.5q74 0 138 -37l-10 -17q-53 34 -127 34q-64 0 -104.5 -26t-40.5 -76z" />
    <glyph glyph-name="uni1E68" unicode="&#x1e68;" horiz-adv-x="593" 
d="M297 828q11 0 18.5 -8t7.5 -18t-7.5 -18t-18.5 -8t-18.5 8t-7.5 18t7.5 18t18.5 8zM478 636q-73 47 -176 47q-92 0 -147.5 -37.5t-55.5 -99.5q0 -48 23 -81t60 -51.5t82 -32t89.5 -28.5t81.5 -35.5t59.5 -58t22.5 -90.5q0 -78 -64.5 -125t-172.5 -47q-66 0 -130.5 27
t-108.5 72l14 14q40 -43 101 -68t124 -25q99 0 158 41.5t59 110.5q0 49 -22.5 83.5t-59.5 53t-81.5 32.5l-89.5 29t-82 35t-60 56.5t-23 88.5q0 71 61 113.5t162 42.5q107 0 186 -51zM297 -80q11 0 18.5 -8t7.5 -18t-7.5 -18t-18.5 -8t-18.5 8t-7.5 18t7.5 18t18.5 8z" />
    <glyph glyph-name="uni1E69" unicode="&#x1e69;" horiz-adv-x="427" 
d="M210 692q10 0 18 -8t8 -18t-8 -18t-18 -8t-18 8t-8 18t8 18t18 8zM350 463q-53 34 -127 34q-64 0 -104.5 -26t-40.5 -76q0 -36 23 -60.5t57.5 -36l75 -25t75 -26.5t57.5 -42t23 -71q0 -66 -50.5 -100t-123.5 -34q-113 0 -185 72l13 15q69 -67 172 -67q65 0 108.5 27.5
t45.5 81.5q1 37 -21 62.5t-57 38l-75.5 26t-75.5 27t-58.5 41.5t-23.5 69q0 61 46.5 92.5t117.5 31.5q74 0 138 -37zM210 -80q10 0 18 -8t8 -18t-8 -18t-18 -8t-18 8t-8 18t8 18t18 8z" />
    <glyph glyph-name="uni1E6C" unicode="&#x1e6c;" horiz-adv-x="526" 
d="M13 699h500v-20h-240v-679h-20v679h-240v20zM263 -80q11 0 18.5 -8t7.5 -18t-7.5 -18t-18.5 -8t-18.5 8t-7.5 18t7.5 18t18.5 8z" />
    <glyph glyph-name="uni1E6D" unicode="&#x1e6d;" horiz-adv-x="362" 
d="M236 0q-54 -1 -82 35.5t-28 106.5v345h-76v20h76v123h20v-123h182v-20h-182v-345q0 -60 23 -91.5t67 -30.5q51 2 90 33l12 -16q-46 -35 -102 -37zM235 -80q11 0 18.5 -8t7.5 -18t-7.5 -18t-18.5 -8t-18.5 8t-7.5 18t7.5 18t18.5 8z" />
    <glyph glyph-name="uni1E6E" unicode="&#x1e6e;" horiz-adv-x="526" 
d="M13 699h500v-20h-240v-679h-20v679h-240v20zM134 -90h257v-20h-257v20z" />
    <glyph glyph-name="uni1E6F" unicode="&#x1e6f;" horiz-adv-x="362" 
d="M126 142v345h-76v20h76v123h20v-123h182v-20h-182v-345q0 -60 23 -91.5t67 -30.5q51 2 90 33l12 -16q-46 -35 -102 -37q-54 -1 -82 35.5t-28 106.5zM106 -90h257v-20h-257v20z" />
    <glyph glyph-name="uni1E78" unicode="&#x1e78;" horiz-adv-x="774" 
d="M487 983l17 -13l-145 -81l-25 9zM520 843q0 -32 -19 -51t-52 -19q-29 0 -65.5 27.5t-59.5 27.5q-24 0 -37 -14t-13 -38h-20q0 32 19.5 51.5t52.5 19.5q29 0 65.5 -27.5t59.5 -27.5q24 0 37 13.5t13 37.5h19zM130 281q0 -126 67.5 -195t189.5 -69t189.5 69t67.5 195v418
h20v-418q0 -136 -72.5 -210t-204.5 -74t-204.5 74t-72.5 210v418h20v-418z" />
    <glyph glyph-name="uni1E79" unicode="&#x1e79;" horiz-adv-x="637" 
d="M436 818l-145 -81l-25 9l153 85zM256 676q-24 0 -37 -14t-13 -38h-20q0 32 19.5 51.5t52.5 19.5q29 0 65.5 -27.5t59.5 -27.5q24 0 37 13.5t13 37.5h19q0 -32 -19 -51t-52 -19q-29 0 -65.5 27.5t-59.5 27.5zM507 517h20v-517h-20v151q-24 -72 -79 -111t-136 -40
q-94 0 -147 54t-53 150v313h20v-313q0 -87 47.5 -135.5t132.5 -48.5q101 2 158 66.5t57 177.5v253z" />
    <glyph glyph-name="uni1E7A" unicode="&#x1e7a;" horiz-adv-x="774" 
d="M321 914q11 0 18.5 -8t7.5 -18t-7.5 -18t-18.5 -8t-18.5 8t-7.5 18t7.5 18t18.5 8zM453 914q11 0 18.5 -8t7.5 -18t-7.5 -18t-18.5 -8t-18.5 8t-7.5 18t7.5 18t18.5 8zM278 796h217v-20h-217v20zM130 281q0 -126 67.5 -195t189.5 -69t189.5 69t67.5 195v418h20v-418
q0 -136 -72.5 -210t-204.5 -74t-204.5 74t-72.5 210v418h20v-418z" />
    <glyph glyph-name="uni1E7B" unicode="&#x1e7b;" horiz-adv-x="637" 
d="M253 710q-11 0 -18.5 8t-7.5 18t7.5 18t18.5 8t18.5 -8t7.5 -18t-7.5 -18t-18.5 -8zM385 710q-11 0 -18.5 8t-7.5 18t7.5 18t18.5 8t18.5 -8t7.5 -18t-7.5 -18t-18.5 -8zM427 644v-20h-217v20h217zM507 517h20v-517h-20v151q-24 -72 -79 -111t-136 -40q-94 0 -147 54
t-53 150v313h20v-313q0 -87 47.5 -135.5t132.5 -48.5q101 2 158 66.5t57 177.5v253z" />
    <glyph glyph-name="Wgrave" unicode="&#x1e80;" horiz-adv-x="987" 
d="M540 781l-26 -5l-129 105l19 10zM954 699h23l-237 -699h-21l-225 671l-226 -671h-21l-237 699h23l225 -676l224 676h23l225 -676z" />
    <glyph glyph-name="wgrave" unicode="&#x1e81;" horiz-adv-x="818" 
d="M319 739l136 -110l-26 -5l-129 105zM10 517h24l185 -494l183 494h24l185 -494l184 494h23l-197 -517h-22l-184 489l-186 -489h-22z" />
    <glyph glyph-name="Wacute" unicode="&#x1e82;" horiz-adv-x="987" 
d="M621 881l-129 -105l-26 5l136 110zM954 699h23l-237 -699h-21l-225 671l-226 -671h-21l-237 699h23l225 -676l224 676h23l225 -676z" />
    <glyph glyph-name="wacute" unicode="&#x1e83;" horiz-adv-x="818" 
d="M517 739l19 -10l-129 -105l-26 5zM10 517h24l185 -494l183 494h24l185 -494l184 494h23l-197 -517h-22l-184 489l-186 -489h-22z" />
    <glyph glyph-name="Wdieresis" unicode="&#x1e84;" horiz-adv-x="987" 
d="M418 776q-10 0 -18 8t-8 18t8 18t18 8t18 -8t8 -18t-8 -18t-18 -8zM570 776q-10 0 -18 8t-8 18t8 18t18 8t18 -8t8 -18t-8 -18t-18 -8zM954 699h23l-237 -699h-21l-225 671l-226 -671h-21l-237 699h23l225 -676l224 676h23l225 -676z" />
    <glyph glyph-name="wdieresis" unicode="&#x1e85;" horiz-adv-x="818" 
d="M334 692q10 0 18 -8t8 -18t-8 -18t-18 -8t-18 8t-8 18t8 18t18 8zM484 692q10 0 18 -8t8 -18t-8 -18t-18 -8t-18 8t-8 18t8 18t18 8zM10 517h24l185 -494l183 494h24l185 -494l184 494h23l-197 -517h-22l-184 489l-186 -489h-22z" />
    <glyph glyph-name="uni1E8E" unicode="&#x1e8e;" horiz-adv-x="606" 
d="M303 776q-11 0 -18.5 8t-7.5 18t7.5 18t18.5 8t18.5 -8t7.5 -18t-7.5 -18t-18.5 -8zM596 699l-281 -430v-269h-20v269l-285 430h24l271 -410l267 410h24z" />
    <glyph glyph-name="uni1E8F" unicode="&#x1e8f;" horiz-adv-x="456" 
d="M233 692q11 0 18.5 -8t7.5 -18t-7.5 -18t-18.5 -8t-18.5 8t-7.5 18t7.5 18t18.5 8zM214 -75q-49 -119 -135 -119q-55 0 -92 26l9 17q34 -23 81 -23q79 0 121 106l26 66l-214 519h23l201 -494l198 494h24z" />
    <glyph glyph-name="uni1E92" unicode="&#x1e92;" horiz-adv-x="650" 
d="M66 699h529v-25l-523 -654h526v-20h-546v25l523 654h-509v20zM325 -80q11 0 18.5 -8t7.5 -18t-7.5 -18t-18.5 -8t-18.5 8t-7.5 18t7.5 18t18.5 8z" />
    <glyph glyph-name="uni1E93" unicode="&#x1e93;" horiz-adv-x="510" 
d="M71 517l381 -1v-25l-370 -471l377 -1v-20l-397 1v25l370 471l-361 1v20zM261 -80q11 0 18.5 -8t7.5 -18t-7.5 -18t-18.5 -8t-18.5 8t-7.5 18t7.5 18t18.5 8z" />
    <glyph glyph-name="uni1E97" unicode="&#x1e97;" horiz-adv-x="362" 
d="M87 779q0 -11 -7.5 -18.5t-18.5 -7.5t-18.5 7.5t-7.5 18.5t7.5 18.5t18.5 7.5t18.5 -7.5t7.5 -18.5zM211 753q-11 0 -18.5 7.5t-7.5 18.5t7.5 18.5t18.5 7.5t18.5 -7.5t7.5 -18.5t-7.5 -18.5t-18.5 -7.5zM326 53l12 -16q-46 -35 -102 -37q-54 -1 -82 35.5t-28 106.5v345
h-76v20h76v123h20v-123h182v-20h-182v-345q0 -60 23 -91.5t67 -30.5q51 2 90 33z" />
    <glyph glyph-name="uni1E9E" unicode="&#x1e9e;" horiz-adv-x="670" 
d="M379 385q112 -4 170.5 -56.5t58.5 -131.5q0 -90 -64.5 -143.5t-173.5 -53.5h-85v20h85q99 0 158.5 48.5t59.5 128.5q0 77 -60 122.5t-167 45.5h-5v20l197 245q-82 49 -192 49q-111 0 -176 -58t-65 -165v-456h-20v456q0 116 70.5 179.5t190.5 63.5q119 0 208 -59v-20z" />
    <glyph glyph-name="uni1EA0" unicode="&#x1ea0;" horiz-adv-x="686" 
d="M676 0h-23l-98 213h-424l-97 -213h-24l320 699h22zM140 233h405l-204 443zM342 -80q10 0 18 -8t8 -18t-8 -18t-18 -8t-18 8t-8 18t8 18t18 8z" />
    <glyph glyph-name="uni1EA1" unicode="&#x1ea1;" horiz-adv-x="562" 
d="M469 0h-20l-1 117q-66 -117 -217 -117q-74 0 -121 42t-47 107q0 63 51.5 98t140.5 35h192v63q-1 73 -42.5 112.5t-121.5 39.5q-89 0 -181 -72l-12 16q96 76 193 76q88 0 135.5 -46t48.5 -126zM232 20q159 0 216 142l-1 100h-192q-82 0 -127 -29.5t-45 -83.5
q0 -58 40.5 -93.5t108.5 -35.5zM285 -80q11 0 18.5 -8t7.5 -18t-7.5 -18t-18.5 -8t-18.5 8t-7.5 18t7.5 18t18.5 8z" />
    <glyph glyph-name="uni1EA2" unicode="&#x1ea2;" horiz-adv-x="686" 
d="M328 903q-25 0 -53 -18l-11 16q34 22 64 22q35 0 54.5 -20t19.5 -51q0 -52 -54 -92l-20 8q54 38 54 84q0 22 -14.5 36.5t-39.5 14.5zM653 0l-98 213h-424l-97 -213h-24l320 699h22l324 -699h-23zM140 233h405l-204 443z" />
    <glyph glyph-name="uni1EA3" unicode="&#x1ea3;" horiz-adv-x="562" 
d="M260 731q-25 0 -53 -18l-11 16q34 22 64 22q35 0 54.5 -20t19.5 -51q0 -52 -54 -92l-20 8q54 38 54 84q0 22 -14.5 36.5t-39.5 14.5zM469 0h-20l-1 117q-66 -117 -217 -117q-74 0 -121 42t-47 107q0 63 51.5 98t140.5 35h192v63q-1 73 -42.5 112.5t-121.5 39.5
q-89 0 -181 -72l-12 16q96 76 193 76q88 0 135.5 -46t48.5 -126zM232 20q159 0 216 142l-1 100h-192q-82 0 -127 -29.5t-45 -83.5q0 -58 40.5 -93.5t108.5 -35.5z" />
    <glyph glyph-name="uni1EA4" unicode="&#x1ea4;" horiz-adv-x="686" 
d="M466 971l-145 -81l-25 9l153 85zM351 843l-96 -68h-28l108 80h33l107 -80h-28zM653 0l-98 213h-424l-97 -213h-24l320 699h22l324 -699h-23zM140 233h405l-204 443z" />
    <glyph glyph-name="uni1EA5" unicode="&#x1ea5;" horiz-adv-x="562" 
d="M390 820l-145 -81l-25 9l153 85zM275 692l-96 -68h-28l108 80h33l107 -80h-28zM469 0h-20l-1 117q-66 -117 -217 -117q-74 0 -121 42t-47 107q0 63 51.5 98t140.5 35h192v63q-1 73 -42.5 112.5t-121.5 39.5q-89 0 -181 -72l-12 16q96 76 193 76q88 0 135.5 -46t48.5 -126
zM232 20q159 0 216 142l-1 100h-192q-82 0 -127 -29.5t-45 -83.5q0 -58 40.5 -93.5t108.5 -35.5z" />
    <glyph glyph-name="uni1EA6" unicode="&#x1ea6;" horiz-adv-x="686" 
d="M405 899l-25 -9l-145 81l17 13zM343 843l-96 -68h-28l108 80h33l107 -80h-28zM653 0l-98 213h-424l-97 -213h-24l320 699h22l324 -699h-23zM140 233h405l-204 443z" />
    <glyph glyph-name="uni1EA7" unicode="&#x1ea7;" horiz-adv-x="562" 
d="M337 748l-25 -9l-145 81l17 13zM275 692l-96 -68h-28l108 80h33l107 -80h-28zM469 0h-20l-1 117q-66 -117 -217 -117q-74 0 -121 42t-47 107q0 63 51.5 98t140.5 35h192v63q-1 73 -42.5 112.5t-121.5 39.5q-89 0 -181 -72l-12 16q96 76 193 76q88 0 135.5 -46t48.5 -126z
M232 20q159 0 216 142l-1 100h-192q-82 0 -127 -29.5t-45 -83.5q0 -58 40.5 -93.5t108.5 -35.5z" />
    <glyph glyph-name="uni1EA8" unicode="&#x1ea8;" horiz-adv-x="686" 
d="M336 1006q-22 0 -45 -14l-11 16q31 19 57 19q31 0 48.5 -16.5t17.5 -42.5q0 -44 -57 -77l-20 8q55 30 55 68q0 17 -12 28t-33 11zM343 843l-96 -68h-28l108 80h33l107 -80h-28zM653 0l-98 213h-424l-97 -213h-24l320 699h22l324 -699h-23zM140 233h405l-204 443z" />
    <glyph glyph-name="uni1EA9" unicode="&#x1ea9;" horiz-adv-x="562" 
d="M268 855q-22 0 -45 -14l-11 16q31 19 57 19q31 0 48.5 -16.5t17.5 -42.5q0 -44 -57 -77l-20 8q55 30 55 68q0 17 -12 28t-33 11zM275 692l-96 -68h-28l108 80h33l107 -80h-28zM469 0h-20l-1 117q-66 -117 -217 -117q-74 0 -121 42t-47 107q0 63 51.5 98t140.5 35h192v63
q-1 73 -42.5 112.5t-121.5 39.5q-89 0 -181 -72l-12 16q96 76 193 76q88 0 135.5 -46t48.5 -126zM232 20q159 0 216 142l-1 100h-192q-82 0 -127 -29.5t-45 -83.5q0 -58 40.5 -93.5t108.5 -35.5z" />
    <glyph glyph-name="uni1EAA" unicode="&#x1eaa;" horiz-adv-x="686" 
d="M291 952q-24 0 -37 -14t-13 -38h-20q0 32 19.5 51.5t52.5 19.5q29 0 65.5 -27.5t59.5 -27.5q24 0 37 13.5t13 37.5h19q0 -32 -19 -51t-52 -19q-29 0 -65.5 27.5t-59.5 27.5zM340 855h33l107 -80h-28l-96 68l-96 -68h-28zM653 0l-98 213h-424l-97 -213h-24l320 699h22
l324 -699h-23zM140 233h405l-204 443z" />
    <glyph glyph-name="uni1EAB" unicode="&#x1eab;" horiz-adv-x="562" 
d="M212 801q-24 0 -37 -14t-13 -38h-20q0 32 19.5 51.5t52.5 19.5q29 0 65.5 -27.5t59.5 -27.5q24 0 37 13.5t13 37.5h19q0 -32 -19 -51t-52 -19q-29 0 -65.5 27.5t-59.5 27.5zM261 704h33l107 -80h-28l-96 68l-96 -68h-28zM469 0h-20l-1 117q-66 -117 -217 -117
q-74 0 -121 42t-47 107q0 63 51.5 98t140.5 35h192v63q-1 73 -42.5 112.5t-121.5 39.5q-89 0 -181 -72l-12 16q96 76 193 76q88 0 135.5 -46t48.5 -126zM232 20q159 0 216 142l-1 100h-192q-82 0 -127 -29.5t-45 -83.5q0 -58 40.5 -93.5t108.5 -35.5z" />
    <glyph glyph-name="uni1EAC" unicode="&#x1eac;" horiz-adv-x="686" 
d="M342 868l-88 -92h-26l98 110h32l98 -110h-26zM676 0h-23l-98 213h-424l-97 -213h-24l320 699h22zM140 233h405l-204 443zM342 -80q10 0 18 -8t8 -18t-8 -18t-18 -8t-18 8t-8 18t8 18t18 8z" />
    <glyph glyph-name="uni1EAD" unicode="&#x1ead;" horiz-adv-x="562" 
d="M285 716l-88 -92h-26l98 110h32l98 -110h-26zM469 0h-20l-1 117q-66 -117 -217 -117q-74 0 -121 42t-47 107q0 63 51.5 98t140.5 35h192v63q-1 73 -42.5 112.5t-121.5 39.5q-89 0 -181 -72l-12 16q96 76 193 76q88 0 135.5 -46t48.5 -126zM232 20q159 0 216 142l-1 100
h-192q-82 0 -127 -29.5t-45 -83.5q0 -58 40.5 -93.5t108.5 -35.5zM285 -80q11 0 18.5 -8t7.5 -18t-7.5 -18t-18.5 -8t-18.5 8t-7.5 18t7.5 18t18.5 8z" />
    <glyph glyph-name="uni1EAE" unicode="&#x1eae;" horiz-adv-x="686" 
d="M453 964l-145 -81l-25 9l153 85zM338 769q-43 0 -73.5 24.5t-31.5 61.5h20q2 -29 26 -48t59 -19t59 19t26 48h20q-1 -37 -31.5 -61.5t-73.5 -24.5zM653 0l-98 213h-424l-97 -213h-24l320 699h22l324 -699h-23zM140 233h405l-204 443z" />
    <glyph glyph-name="uni1EAF" unicode="&#x1eaf;" horiz-adv-x="562" 
d="M390 819l-145 -81l-25 9l153 85zM275 624q-43 0 -73.5 24.5t-31.5 61.5h20q2 -29 26 -48t59 -19t59 19t26 48h20q-1 -37 -31.5 -61.5t-73.5 -24.5zM469 0h-20l-1 117q-66 -117 -217 -117q-74 0 -121 42t-47 107q0 63 51.5 98t140.5 35h192v63q-1 73 -42.5 112.5
t-121.5 39.5q-89 0 -181 -72l-12 16q96 76 193 76q88 0 135.5 -46t48.5 -126zM232 20q159 0 216 142l-1 100h-192q-82 0 -127 -29.5t-45 -83.5q0 -58 40.5 -93.5t108.5 -35.5z" />
    <glyph glyph-name="uni1EB0" unicode="&#x1eb0;" horiz-adv-x="686" 
d="M406 892l-25 -9l-145 81l17 13zM259 855q2 -29 26 -48t59 -19t59 19t26 48h20q-1 -37 -31.5 -61.5t-73.5 -24.5t-73.5 24.5t-31.5 61.5h20zM653 0l-98 213h-424l-97 -213h-24l320 699h22l324 -699h-23zM140 233h405l-204 443z" />
    <glyph glyph-name="uni1EB1" unicode="&#x1eb1;" horiz-adv-x="562" 
d="M337 747l-25 -9l-145 81l17 13zM190 710q2 -29 26 -48t59 -19t59 19t26 48h20q-1 -37 -31.5 -61.5t-73.5 -24.5t-73.5 24.5t-31.5 61.5h20zM469 0h-20l-1 117q-66 -117 -217 -117q-74 0 -121 42t-47 107q0 63 51.5 98t140.5 35h192v63q-1 73 -42.5 112.5t-121.5 39.5
q-89 0 -181 -72l-12 16q96 76 193 76q88 0 135.5 -46t48.5 -126zM232 20q159 0 216 142l-1 100h-192q-82 0 -127 -29.5t-45 -83.5q0 -58 40.5 -93.5t108.5 -35.5z" />
    <glyph glyph-name="uni1EB2" unicode="&#x1eb2;" horiz-adv-x="686" 
d="M336 999q-22 0 -45 -14l-11 16q31 19 57 19q31 0 48.5 -16.5t17.5 -42.5q0 -44 -57 -77l-20 8q55 30 55 68q0 17 -12 28t-33 11zM343 769q-43 0 -73.5 24.5t-31.5 61.5h20q2 -29 26 -48t59 -19t59 19t26 48h20q-1 -37 -31.5 -61.5t-73.5 -24.5zM653 0l-98 213h-424
l-97 -213h-24l320 699h22l324 -699h-23zM140 233h405l-204 443z" />
    <glyph glyph-name="uni1EB3" unicode="&#x1eb3;" horiz-adv-x="562" 
d="M268 853q-22 0 -45 -14l-11 16q31 19 57 19q31 0 48.5 -16.5t17.5 -42.5q0 -44 -57 -77l-20 8q55 30 55 68q0 17 -12 28t-33 11zM275 623q-43 0 -73.5 24.5t-31.5 61.5h20q2 -29 26 -48t59 -19t59 19t26 48h20q-1 -37 -31.5 -61.5t-73.5 -24.5zM469 0h-20l-1 117
q-66 -117 -217 -117q-74 0 -121 42t-47 107q0 63 51.5 98t140.5 35h192v63q-1 73 -42.5 112.5t-121.5 39.5q-89 0 -181 -72l-12 16q96 76 193 76q88 0 135.5 -46t48.5 -126zM232 20q159 0 216 142l-1 100h-192q-82 0 -127 -29.5t-45 -83.5q0 -58 40.5 -93.5t108.5 -35.5z
" />
    <glyph glyph-name="uni1EB4" unicode="&#x1eb4;" horiz-adv-x="686" 
d="M283 964q-24 0 -37 -14t-13 -38h-20q0 32 19.5 51.5t52.5 19.5q29 0 65.5 -27.5t59.5 -27.5q24 0 37 13.5t13 37.5h19q0 -32 -19 -51t-52 -19q-29 0 -65.5 27.5t-59.5 27.5zM343 788q35 0 59 19t26 48h20q-1 -37 -31.5 -61.5t-73.5 -24.5t-73.5 24.5t-31.5 61.5h20
q2 -29 26 -48t59 -19zM653 0l-98 213h-424l-97 -213h-24l320 699h22l324 -699h-23zM140 233h405l-204 443z" />
    <glyph glyph-name="uni1EB5" unicode="&#x1eb5;" horiz-adv-x="562" 
d="M212 818q-24 0 -37 -14t-13 -38h-20q0 32 19.5 51.5t52.5 19.5q29 0 65.5 -27.5t59.5 -27.5q24 0 37 13.5t13 37.5h19q0 -32 -19 -51t-52 -19q-29 0 -65.5 27.5t-59.5 27.5zM272 642q35 0 59 19t26 48h20q-1 -37 -31.5 -61.5t-73.5 -24.5t-73.5 24.5t-31.5 61.5h20
q2 -29 26 -48t59 -19zM469 0h-20l-1 117q-66 -117 -217 -117q-74 0 -121 42t-47 107q0 63 51.5 98t140.5 35h192v63q-1 73 -42.5 112.5t-121.5 39.5q-89 0 -181 -72l-12 16q96 76 193 76q88 0 135.5 -46t48.5 -126zM232 20q159 0 216 142l-1 100h-192q-82 0 -127 -29.5
t-45 -83.5q0 -58 40.5 -93.5t108.5 -35.5z" />
    <glyph glyph-name="uni1EB6" unicode="&#x1eb6;" horiz-adv-x="686" 
d="M342 776q-43 0 -73.5 30t-31.5 75h20q2 -36 26 -60.5t59 -24.5t59 24.5t26 60.5h20q-1 -45 -31.5 -75t-73.5 -30zM676 0h-23l-98 213h-424l-97 -213h-24l320 699h22zM140 233h405l-204 443zM342 -80q10 0 18 -8t8 -18t-8 -18t-18 -8t-18 8t-8 18t8 18t18 8z" />
    <glyph glyph-name="uni1EB7" unicode="&#x1eb7;" horiz-adv-x="562" 
d="M285 621q-43 0 -73.5 30t-31.5 75h20q2 -36 26 -60.5t59 -24.5t59 24.5t26 60.5h20q-1 -45 -31.5 -75t-73.5 -30zM469 0h-20l-1 117q-66 -117 -217 -117q-74 0 -121 42t-47 107q0 63 51.5 98t140.5 35h192v63q-1 73 -42.5 112.5t-121.5 39.5q-89 0 -181 -72l-12 16
q96 76 193 76q88 0 135.5 -46t48.5 -126zM232 20q159 0 216 142l-1 100h-192q-82 0 -127 -29.5t-45 -83.5q0 -58 40.5 -93.5t108.5 -35.5zM285 -80q11 0 18.5 -8t7.5 -18t-7.5 -18t-18.5 -8t-18.5 8t-7.5 18t7.5 18t18.5 8z" />
    <glyph glyph-name="uni1EB8" unicode="&#x1eb8;" horiz-adv-x="644" 
d="M128 699h437v-20h-417v-309h371v-20h-371v-330h431v-20h-451v699zM354 -80q10 0 18 -8t8 -18t-8 -18t-18 -8t-18 8t-8 18t8 18t18 8z" />
    <glyph glyph-name="uni1EB9" unicode="&#x1eb9;" horiz-adv-x="589" 
d="M301 20q116 0 183 75l14 -14q-75 -81 -197 -81q-108 0 -178.5 73t-70.5 186q0 112 70.5 185t178.5 73q107 0 173.5 -72.5t66.5 -185.5h-469q0 -105 64.5 -172t164.5 -67zM301 497q-95 0 -158.5 -60.5t-69.5 -157.5h448q-7 98 -66 158t-154 60zM295 -80q11 0 18.5 -8
t7.5 -18t-7.5 -18t-18.5 -8t-18.5 8t-7.5 18t7.5 18t18.5 8z" />
    <glyph glyph-name="uni1EBA" unicode="&#x1eba;" horiz-adv-x="644" 
d="M336 923q35 0 54.5 -20t19.5 -51q0 -52 -54 -92l-20 8q54 38 54 84q0 22 -14.5 36.5t-39.5 14.5t-53 -18l-11 16q34 22 64 22zM128 699h437v-20h-417v-309h371v-20h-371v-330h431v-20h-451v699z" />
    <glyph glyph-name="uni1EBB" unicode="&#x1ebb;" horiz-adv-x="589" 
d="M280 731q-25 0 -53 -18l-11 16q34 22 64 22q35 0 54.5 -20t19.5 -51q0 -52 -54 -92l-20 8q54 38 54 84q0 22 -14.5 36.5t-39.5 14.5zM301 20q116 0 183 75l14 -14q-75 -81 -197 -81q-108 0 -178.5 73t-70.5 186q0 112 70.5 185t178.5 73q107 0 173.5 -72.5t66.5 -185.5
h-469q0 -105 64.5 -172t164.5 -67zM301 497q-95 0 -158.5 -60.5t-69.5 -157.5h448q-7 98 -66 158t-154 60z" />
    <glyph glyph-name="uni1EBC" unicode="&#x1ebc;" horiz-adv-x="644" 
d="M483 858q0 -37 -19 -59t-52 -22q-29 0 -65.5 32.5t-59.5 32.5q-24 0 -37 -16t-13 -45h-19q0 37 19 59t52 22q29 0 65.5 -32.5t59.5 -32.5q24 0 37 16t13 45h19zM128 699h437v-20h-417v-309h371v-20h-371v-330h431v-20h-451v699z" />
    <glyph glyph-name="uni1EBD" unicode="&#x1ebd;" horiz-adv-x="589" 
d="M231 694q-24 0 -37 -16t-13 -45h-19q0 37 19 59t52 22q29 0 65.5 -32.5t59.5 -32.5q24 0 37 16t13 45h19q0 -37 -19 -59t-52 -22q-29 0 -65.5 32.5t-59.5 32.5zM301 20q116 0 183 75l14 -14q-75 -81 -197 -81q-108 0 -178.5 73t-70.5 186q0 112 70.5 185t178.5 73
q107 0 173.5 -72.5t66.5 -185.5h-469q0 -105 64.5 -172t164.5 -67zM301 497q-95 0 -158.5 -60.5t-69.5 -157.5h448q-7 98 -66 158t-154 60z" />
    <glyph glyph-name="uni1EBE" unicode="&#x1ebe;" horiz-adv-x="644" 
d="M474 971l-145 -81l-25 9l153 85zM359 843l-96 -68h-28l108 80h33l107 -80h-28zM148 20h431v-20h-451v699h437v-20h-417v-309h371v-20h-371v-330z" />
    <glyph glyph-name="uni1EBF" unicode="&#x1ebf;" horiz-adv-x="589" 
d="M410 820l-145 -81l-25 9l153 85zM295 692l-96 -68h-28l108 80h33l107 -80h-28zM301 20q116 0 183 75l14 -14q-75 -81 -197 -81q-108 0 -178.5 73t-70.5 186q0 112 70.5 185t178.5 73q107 0 173.5 -72.5t66.5 -185.5h-469q0 -105 64.5 -172t164.5 -67zM301 497
q-95 0 -158.5 -60.5t-69.5 -157.5h448q-7 98 -66 158t-154 60z" />
    <glyph glyph-name="uni1EC0" unicode="&#x1ec0;" horiz-adv-x="644" 
d="M413 899l-25 -9l-145 81l17 13zM351 843l-96 -68h-28l108 80h33l107 -80h-28zM148 20h431v-20h-451v699h437v-20h-417v-309h371v-20h-371v-330z" />
    <glyph glyph-name="uni1EC1" unicode="&#x1ec1;" horiz-adv-x="589" 
d="M357 748l-25 -9l-145 81l17 13zM295 692l-96 -68h-28l108 80h33l107 -80h-28zM301 20q116 0 183 75l14 -14q-75 -81 -197 -81q-108 0 -178.5 73t-70.5 186q0 112 70.5 185t178.5 73q107 0 173.5 -72.5t66.5 -185.5h-469q0 -105 64.5 -172t164.5 -67zM301 497
q-95 0 -158.5 -60.5t-69.5 -157.5h448q-7 98 -66 158t-154 60z" />
    <glyph glyph-name="uni1EC2" unicode="&#x1ec2;" horiz-adv-x="644" 
d="M344 1006q-22 0 -45 -14l-11 16q31 19 57 19q31 0 48.5 -16.5t17.5 -42.5q0 -44 -57 -77l-20 8q55 30 55 68q0 17 -12 28t-33 11zM351 843l-96 -68h-28l108 80h33l107 -80h-28zM148 20h431v-20h-451v699h437v-20h-417v-309h371v-20h-371v-330z" />
    <glyph glyph-name="uni1EC3" unicode="&#x1ec3;" horiz-adv-x="589" 
d="M288 855q-22 0 -45 -14l-11 16q31 19 57 19q31 0 48.5 -16.5t17.5 -42.5q0 -44 -57 -77l-20 8q55 30 55 68q0 17 -12 28t-33 11zM295 692l-96 -68h-28l108 80h33l107 -80h-28zM301 20q116 0 183 75l14 -14q-75 -81 -197 -81q-108 0 -178.5 73t-70.5 186q0 112 70.5 185
t178.5 73q107 0 173.5 -72.5t66.5 -185.5h-469q0 -105 64.5 -172t164.5 -67zM301 497q-95 0 -158.5 -60.5t-69.5 -157.5h448q-7 98 -66 158t-154 60z" />
    <glyph glyph-name="uni1EC4" unicode="&#x1ec4;" horiz-adv-x="644" 
d="M299 952q-24 0 -37 -14t-13 -38h-20q0 32 19.5 51.5t52.5 19.5q29 0 65.5 -27.5t59.5 -27.5q24 0 37 13.5t13 37.5h19q0 -32 -19 -51t-52 -19q-29 0 -65.5 27.5t-59.5 27.5zM348 855h33l107 -80h-28l-96 68l-96 -68h-28zM148 20h431v-20h-451v699h437v-20h-417v-309h371
v-20h-371v-330z" />
    <glyph glyph-name="uni1EC5" unicode="&#x1ec5;" horiz-adv-x="589" 
d="M232 801q-24 0 -37 -14t-13 -38h-20q0 32 19.5 51.5t52.5 19.5q29 0 65.5 -27.5t59.5 -27.5q24 0 37 13.5t13 37.5h19q0 -32 -19 -51t-52 -19q-29 0 -65.5 27.5t-59.5 27.5zM281 704h33l107 -80h-28l-96 68l-96 -68h-28zM301 20q116 0 183 75l14 -14q-75 -81 -197 -81
q-108 0 -178.5 73t-70.5 186q0 112 70.5 185t178.5 73q107 0 173.5 -72.5t66.5 -185.5h-469q0 -105 64.5 -172t164.5 -67zM301 497q-95 0 -158.5 -60.5t-69.5 -157.5h448q-7 98 -66 158t-154 60z" />
    <glyph glyph-name="uni1EC6" unicode="&#x1ec6;" horiz-adv-x="644" 
d="M354 868l-88 -92h-26l98 110h32l98 -110h-26zM148 20h431v-20h-451v699h437v-20h-417v-309h371v-20h-371v-330zM354 -80q10 0 18 -8t8 -18t-8 -18t-18 -8t-18 8t-8 18t8 18t18 8z" />
    <glyph glyph-name="uni1EC7" unicode="&#x1ec7;" horiz-adv-x="589" 
d="M295 716l-88 -92h-26l98 110h32l98 -110h-26zM301 20q116 0 183 75l14 -14q-75 -81 -197 -81q-108 0 -178.5 73t-70.5 186q0 112 70.5 185t178.5 73q107 0 173.5 -72.5t66.5 -185.5h-469q0 -105 64.5 -172t164.5 -67zM301 497q-95 0 -158.5 -60.5t-69.5 -157.5h448
q-7 98 -66 158t-154 60zM295 -80q11 0 18.5 -8t7.5 -18t-7.5 -18t-18.5 -8t-18.5 8t-7.5 18t7.5 18t18.5 8z" />
    <glyph glyph-name="uni1EC8" unicode="&#x1ec8;" horiz-adv-x="276" 
d="M123 923q35 0 54.5 -20t19.5 -51q0 -52 -54 -92l-20 8q54 38 54 84q0 22 -14.5 36.5t-39.5 14.5t-53 -18l-11 16q34 22 64 22zM128 699h20v-699h-20v699z" />
    <glyph glyph-name="uni1EC9" unicode="&#x1ec9;" horiz-adv-x="240" 
d="M105 751q35 0 54.5 -20t19.5 -51q0 -52 -54 -92l-20 8q54 38 54 84q0 22 -14.5 36.5t-39.5 14.5t-53 -18l-11 16q34 22 64 22zM110 517h20v-517h-20v517z" />
    <glyph glyph-name="uni1ECA" unicode="&#x1eca;" horiz-adv-x="276" 
d="M128 699h20v-699h-20v699zM138 -80q10 0 18 -8t8 -18t-8 -18t-18 -8t-18 8t-8 18t8 18t18 8z" />
    <glyph glyph-name="uni1ECB" unicode="&#x1ecb;" horiz-adv-x="240" 
d="M120 692q10 0 18 -8t8 -18t-8 -18t-18 -8t-18 8t-8 18t8 18t18 8zM110 517h20v-517h-20v517zM120 -80q10 0 18 -8t8 -18t-8 -18t-18 -8t-18 8t-8 18t8 18t18 8z" />
    <glyph glyph-name="uni1ECC" unicode="&#x1ecc;" horiz-adv-x="818" 
d="M409 703q148 0 253.5 -103.5t105.5 -248.5q0 -146 -105.5 -250t-253.5 -104t-253.5 104t-105.5 250q0 145 105.5 248.5t253.5 103.5zM409 683q-139 0 -239 -97.5t-100 -234.5t100 -235.5t239 -98.5t239 98.5t100 235.5t-100 234.5t-239 97.5zM409 -80q11 0 18.5 -8
t7.5 -18t-7.5 -18t-18.5 -8t-18.5 8t-7.5 18t7.5 18t18.5 8z" />
    <glyph glyph-name="uni1ECD" unicode="&#x1ecd;" horiz-adv-x="606" 
d="M303 517q108 0 179.5 -73t71.5 -185q0 -113 -71.5 -186t-179.5 -73t-179.5 73t-71.5 186q0 112 71.5 185t179.5 73zM303 497q-101 0 -166 -66.5t-65 -171.5t65 -172t166 -67t166 67t65 172t-65 171.5t-166 66.5zM303 -80q11 0 18.5 -8t7.5 -18t-7.5 -18t-18.5 -8t-18.5 8
t-7.5 18t7.5 18t18.5 8z" />
    <glyph glyph-name="uni1ECE" unicode="&#x1ece;" horiz-adv-x="818" 
d="M394 923q35 0 54.5 -20t19.5 -51q0 -52 -54 -92l-20 8q54 38 54 84q0 22 -14.5 36.5t-39.5 14.5t-53 -18l-11 16q34 22 64 22zM409 703q148 0 253.5 -103.5t105.5 -248.5q0 -146 -105.5 -250t-253.5 -104t-253.5 104t-105.5 250q0 145 105.5 248.5t253.5 103.5zM409 683
q-139 0 -239 -97.5t-100 -234.5t100 -235.5t239 -98.5t239 98.5t100 235.5t-100 234.5t-239 97.5z" />
    <glyph glyph-name="uni1ECF" unicode="&#x1ecf;" horiz-adv-x="606" 
d="M288 751q35 0 54.5 -20t19.5 -51q0 -52 -54 -92l-20 8q54 38 54 84q0 22 -14.5 36.5t-39.5 14.5t-53 -18l-11 16q34 22 64 22zM303 517q108 0 179.5 -73t71.5 -185q0 -113 -71.5 -186t-179.5 -73t-179.5 73t-71.5 186q0 112 71.5 185t179.5 73zM303 497
q-101 0 -166 -66.5t-65 -171.5t65 -172t166 -67t166 67t65 172t-65 171.5t-166 66.5z" />
    <glyph glyph-name="uni1ED0" unicode="&#x1ed0;" horiz-adv-x="818" 
d="M532 971l-145 -81l-25 9l153 85zM417 843l-96 -68h-28l108 80h33l107 -80h-28zM409 703q148 0 253.5 -103.5t105.5 -248.5q0 -146 -105.5 -250t-253.5 -104t-253.5 104t-105.5 250q0 145 105.5 248.5t253.5 103.5zM409 17q139 0 239 98.5t100 235.5t-100 234.5t-239 97.5
t-239 -97.5t-100 -234.5t100 -235.5t239 -98.5z" />
    <glyph glyph-name="uni1ED1" unicode="&#x1ed1;" horiz-adv-x="606" 
d="M418 820l-145 -81l-25 9l153 85zM303 692l-96 -68h-28l108 80h33l107 -80h-28zM303 517q108 0 179.5 -73t71.5 -185q0 -113 -71.5 -186t-179.5 -73t-179.5 73t-71.5 186q0 112 71.5 185t179.5 73zM303 20q101 0 166 67t65 172t-65 171.5t-166 66.5t-166 -66.5t-65 -171.5
t65 -172t166 -67z" />
    <glyph glyph-name="uni1ED2" unicode="&#x1ed2;" horiz-adv-x="818" 
d="M471 899l-25 -9l-145 81l17 13zM409 843l-96 -68h-28l108 80h33l107 -80h-28zM409 703q148 0 253.5 -103.5t105.5 -248.5q0 -146 -105.5 -250t-253.5 -104t-253.5 104t-105.5 250q0 145 105.5 248.5t253.5 103.5zM409 17q139 0 239 98.5t100 235.5t-100 234.5t-239 97.5
t-239 -97.5t-100 -234.5t100 -235.5t239 -98.5z" />
    <glyph glyph-name="uni1ED3" unicode="&#x1ed3;" horiz-adv-x="606" 
d="M365 748l-25 -9l-145 81l17 13zM303 692l-96 -68h-28l108 80h33l107 -80h-28zM303 517q108 0 179.5 -73t71.5 -185q0 -113 -71.5 -186t-179.5 -73t-179.5 73t-71.5 186q0 112 71.5 185t179.5 73zM303 20q101 0 166 67t65 172t-65 171.5t-166 66.5t-166 -66.5t-65 -171.5
t65 -172t166 -67z" />
    <glyph glyph-name="uni1ED4" unicode="&#x1ed4;" horiz-adv-x="818" 
d="M402 1006q-22 0 -45 -14l-11 16q31 19 57 19q31 0 48.5 -16.5t17.5 -42.5q0 -44 -57 -77l-20 8q55 30 55 68q0 17 -12 28t-33 11zM409 843l-96 -68h-28l108 80h33l107 -80h-28zM409 703q148 0 253.5 -103.5t105.5 -248.5q0 -146 -105.5 -250t-253.5 -104t-253.5 104
t-105.5 250q0 145 105.5 248.5t253.5 103.5zM409 17q139 0 239 98.5t100 235.5t-100 234.5t-239 97.5t-239 -97.5t-100 -234.5t100 -235.5t239 -98.5z" />
    <glyph glyph-name="uni1ED5" unicode="&#x1ed5;" horiz-adv-x="606" 
d="M296 855q-22 0 -45 -14l-11 16q31 19 57 19q31 0 48.5 -16.5t17.5 -42.5q0 -44 -57 -77l-20 8q55 30 55 68q0 17 -12 28t-33 11zM303 692l-96 -68h-28l108 80h33l107 -80h-28zM303 517q108 0 179.5 -73t71.5 -185q0 -113 -71.5 -186t-179.5 -73t-179.5 73t-71.5 186
q0 112 71.5 185t179.5 73zM303 20q101 0 166 67t65 172t-65 171.5t-166 66.5t-166 -66.5t-65 -171.5t65 -172t166 -67z" />
    <glyph glyph-name="uni1ED6" unicode="&#x1ed6;" horiz-adv-x="818" 
d="M357 952q-24 0 -37 -14t-13 -38h-20q0 32 19.5 51.5t52.5 19.5q29 0 65.5 -27.5t59.5 -27.5q24 0 37 13.5t13 37.5h19q0 -32 -19 -51t-52 -19q-29 0 -65.5 27.5t-59.5 27.5zM406 855h33l107 -80h-28l-96 68l-96 -68h-28zM409 703q148 0 253.5 -103.5t105.5 -248.5
q0 -146 -105.5 -250t-253.5 -104t-253.5 104t-105.5 250q0 145 105.5 248.5t253.5 103.5zM409 17q139 0 239 98.5t100 235.5t-100 234.5t-239 97.5t-239 -97.5t-100 -234.5t100 -235.5t239 -98.5z" />
    <glyph glyph-name="uni1ED7" unicode="&#x1ed7;" horiz-adv-x="606" 
d="M240 801q-24 0 -37 -14t-13 -38h-20q0 32 19.5 51.5t52.5 19.5q29 0 65.5 -27.5t59.5 -27.5q24 0 37 13.5t13 37.5h19q0 -32 -19 -51t-52 -19q-29 0 -65.5 27.5t-59.5 27.5zM289 704h33l107 -80h-28l-96 68l-96 -68h-28zM303 517q108 0 179.5 -73t71.5 -185
q0 -113 -71.5 -186t-179.5 -73t-179.5 73t-71.5 186q0 112 71.5 185t179.5 73zM303 20q101 0 166 67t65 172t-65 171.5t-166 66.5t-166 -66.5t-65 -171.5t65 -172t166 -67z" />
    <glyph glyph-name="uni1ED8" unicode="&#x1ed8;" horiz-adv-x="818" 
d="M409 868l-88 -92h-26l98 110h32l98 -110h-26zM409 703q148 0 253.5 -103.5t105.5 -248.5q0 -146 -105.5 -250t-253.5 -104t-253.5 104t-105.5 250q0 145 105.5 248.5t253.5 103.5zM409 17q139 0 239 98.5t100 235.5t-100 234.5t-239 97.5t-239 -97.5t-100 -234.5
t100 -235.5t239 -98.5zM409 -80q11 0 18.5 -8t7.5 -18t-7.5 -18t-18.5 -8t-18.5 8t-7.5 18t7.5 18t18.5 8z" />
    <glyph glyph-name="uni1ED9" unicode="&#x1ed9;" horiz-adv-x="606" 
d="M303 716l-88 -92h-26l98 110h32l98 -110h-26zM303 517q108 0 179.5 -73t71.5 -185q0 -113 -71.5 -186t-179.5 -73t-179.5 73t-71.5 186q0 112 71.5 185t179.5 73zM303 20q101 0 166 67t65 172t-65 171.5t-166 66.5t-166 -66.5t-65 -171.5t65 -172t166 -67zM303 -80
q11 0 18.5 -8t7.5 -18t-7.5 -18t-18.5 -8t-18.5 8t-7.5 18t7.5 18t18.5 8z" />
    <glyph glyph-name="uni1EDA" unicode="&#x1eda;" horiz-adv-x="846" 
d="M536 881l-129 -105l-26 5l136 110zM611 641q73 -49 115 -125.5t42 -164.5q0 -146 -105.5 -250t-253.5 -104t-253.5 104t-105.5 250q0 145 105.5 248.5t253.5 103.5q86 0 160 -37q24 -7 46 -7q54 0 74 51.5t-14 95.5l20 10q39 -57 12.5 -116t-90.5 -59h-6zM409 17
q139 0 239 98.5t100 235.5t-100 234.5t-239 97.5t-239 -97.5t-100 -234.5t100 -235.5t239 -98.5z" />
    <glyph glyph-name="uni1EDB" unicode="&#x1edb;" horiz-adv-x="628" 
d="M430 729l-129 -105l-26 5l136 110zM465 460q89 -74 89 -201q0 -113 -71.5 -186t-179.5 -73t-179.5 73t-71.5 186q0 112 71.5 185t179.5 73q71 0 127 -32q25 -7 46 -7q54 0 74 51.5t-14 95.5l20 10q39 -57 12.5 -116t-90.5 -59h-13zM303 20q101 0 166 67t65 172t-65 171.5
t-166 66.5t-166 -66.5t-65 -171.5t65 -172t166 -67z" />
    <glyph glyph-name="uni1EDC" unicode="&#x1edc;" horiz-adv-x="846" 
d="M455 781l-26 -5l-129 105l19 10zM611 641q73 -49 115 -125.5t42 -164.5q0 -146 -105.5 -250t-253.5 -104t-253.5 104t-105.5 250q0 145 105.5 248.5t253.5 103.5q86 0 160 -37q24 -7 46 -7q54 0 74 51.5t-14 95.5l20 10q39 -57 12.5 -116t-90.5 -59h-6zM409 17
q139 0 239 98.5t100 235.5t-100 234.5t-239 97.5t-239 -97.5t-100 -234.5t100 -235.5t239 -98.5z" />
    <glyph glyph-name="uni1EDD" unicode="&#x1edd;" horiz-adv-x="628" 
d="M349 629l-26 -5l-129 105l19 10zM465 460q89 -74 89 -201q0 -113 -71.5 -186t-179.5 -73t-179.5 73t-71.5 186q0 112 71.5 185t179.5 73q71 0 127 -32q25 -7 46 -7q54 0 74 51.5t-14 95.5l20 10q39 -57 12.5 -116t-90.5 -59h-13zM303 20q101 0 166 67t65 172t-65 171.5
t-166 66.5t-166 -66.5t-65 -171.5t65 -172t166 -67z" />
    <glyph glyph-name="uni1EDE" unicode="&#x1ede;" horiz-adv-x="846" 
d="M394 903q-25 0 -53 -18l-11 16q34 22 64 22q35 0 54.5 -20t19.5 -51q0 -52 -54 -92l-20 8q54 38 54 84q0 22 -14.5 36.5t-39.5 14.5zM611 641q73 -49 115 -125.5t42 -164.5q0 -146 -105.5 -250t-253.5 -104t-253.5 104t-105.5 250q0 145 105.5 248.5t253.5 103.5
q86 0 160 -37q24 -7 46 -7q54 0 74 51.5t-14 95.5l20 10q39 -57 12.5 -116t-90.5 -59h-6zM409 17q139 0 239 98.5t100 235.5t-100 234.5t-239 97.5t-239 -97.5t-100 -234.5t100 -235.5t239 -98.5z" />
    <glyph glyph-name="uni1EDF" unicode="&#x1edf;" horiz-adv-x="628" 
d="M288 731q-25 0 -53 -18l-11 16q34 22 64 22q35 0 54.5 -20t19.5 -51q0 -52 -54 -92l-20 8q54 38 54 84q0 22 -14.5 36.5t-39.5 14.5zM465 460q89 -74 89 -201q0 -113 -71.5 -186t-179.5 -73t-179.5 73t-71.5 186q0 112 71.5 185t179.5 73q71 0 127 -32q25 -7 46 -7
q54 0 74 51.5t-14 95.5l20 10q39 -57 12.5 -116t-90.5 -59h-13zM303 20q101 0 166 67t65 172t-65 171.5t-166 66.5t-166 -66.5t-65 -171.5t65 -172t166 -67z" />
    <glyph glyph-name="uni1EE0" unicode="&#x1ee0;" horiz-adv-x="846" 
d="M345 842q-24 0 -37 -16t-13 -45h-19q0 37 19 59t52 22q29 0 65.5 -32.5t59.5 -32.5q24 0 37 16t13 45h19q0 -37 -19 -59t-52 -22q-29 0 -65.5 32.5t-59.5 32.5zM611 641q73 -49 115 -125.5t42 -164.5q0 -146 -105.5 -250t-253.5 -104t-253.5 104t-105.5 250
q0 145 105.5 248.5t253.5 103.5q86 0 160 -37q24 -7 46 -7q54 0 74 51.5t-14 95.5l20 10q39 -57 12.5 -116t-90.5 -59h-6zM409 17q139 0 239 98.5t100 235.5t-100 234.5t-239 97.5t-239 -97.5t-100 -234.5t100 -235.5t239 -98.5z" />
    <glyph glyph-name="uni1EE1" unicode="&#x1ee1;" horiz-adv-x="628" 
d="M239 694q-24 0 -37 -16t-13 -45h-19q0 37 19 59t52 22q29 0 65.5 -32.5t59.5 -32.5q24 0 37 16t13 45h19q0 -37 -19 -59t-52 -22q-29 0 -65.5 32.5t-59.5 32.5zM465 460q89 -74 89 -201q0 -113 -71.5 -186t-179.5 -73t-179.5 73t-71.5 186q0 112 71.5 185t179.5 73
q71 0 127 -32q25 -7 46 -7q54 0 74 51.5t-14 95.5l20 10q39 -57 12.5 -116t-90.5 -59h-13zM303 20q101 0 166 67t65 172t-65 171.5t-166 66.5t-166 -66.5t-65 -171.5t65 -172t166 -67z" />
    <glyph glyph-name="uni1EE2" unicode="&#x1ee2;" horiz-adv-x="846" 
d="M611 641q73 -49 115 -125.5t42 -164.5q0 -146 -105.5 -250t-253.5 -104t-253.5 104t-105.5 250q0 145 105.5 248.5t253.5 103.5q86 0 160 -37q24 -7 46 -7q54 0 74 51.5t-14 95.5l20 10q39 -57 12.5 -116t-90.5 -59h-6zM409 17q139 0 239 98.5t100 235.5t-100 234.5
t-239 97.5t-239 -97.5t-100 -234.5t100 -235.5t239 -98.5zM409 -80q11 0 18.5 -8t7.5 -18t-7.5 -18t-18.5 -8t-18.5 8t-7.5 18t7.5 18t18.5 8z" />
    <glyph glyph-name="uni1EE3" unicode="&#x1ee3;" horiz-adv-x="629" 
d="M465 460q89 -74 89 -201q0 -113 -71.5 -186t-179.5 -73t-179.5 73t-71.5 186q0 112 71.5 185t179.5 73q71 0 127 -32q25 -7 46 -7q54 0 74 51.5t-14 95.5l20 10q39 -57 12.5 -116t-90.5 -59h-13zM303 20q101 0 166 67t65 172t-65 171.5t-166 66.5t-166 -66.5t-65 -171.5
t65 -172t166 -67zM303 -80q11 0 18.5 -8t7.5 -18t-7.5 -18t-18.5 -8t-18.5 8t-7.5 18t7.5 18t18.5 8z" />
    <glyph glyph-name="uni1EE4" unicode="&#x1ee4;" horiz-adv-x="774" 
d="M130 281q0 -126 67.5 -195t189.5 -69t189.5 69t67.5 195v418h20v-418q0 -136 -72.5 -210t-204.5 -74t-204.5 74t-72.5 210v418h20v-418zM387 -80q11 0 18.5 -8t7.5 -18t-7.5 -18t-18.5 -8t-18.5 8t-7.5 18t7.5 18t18.5 8z" />
    <glyph glyph-name="uni1EE5" unicode="&#x1ee5;" horiz-adv-x="637" 
d="M507 517h20v-517h-20v151q-24 -72 -79 -111t-136 -40q-94 0 -147 54t-53 150v313h20v-313q0 -87 47.5 -135.5t132.5 -48.5q101 2 158 66.5t57 177.5v253zM319 -80q11 0 18.5 -8t7.5 -18t-7.5 -18t-18.5 -8t-18.5 8t-7.5 18t7.5 18t18.5 8z" />
    <glyph glyph-name="uni1EE6" unicode="&#x1ee6;" horiz-adv-x="774" 
d="M372 923q35 0 54.5 -20t19.5 -51q0 -52 -54 -92l-20 8q54 38 54 84q0 22 -14.5 36.5t-39.5 14.5t-53 -18l-11 16q34 22 64 22zM130 281q0 -126 67.5 -195t189.5 -69t189.5 69t67.5 195v418h20v-418q0 -136 -72.5 -210t-204.5 -74t-204.5 74t-72.5 210v418h20v-418z" />
    <glyph glyph-name="uni1EE7" unicode="&#x1ee7;" horiz-adv-x="637" 
d="M304 731q-25 0 -53 -18l-11 16q34 22 64 22q35 0 54.5 -20t19.5 -51q0 -52 -54 -92l-20 8q54 38 54 84q0 22 -14.5 36.5t-39.5 14.5zM507 517h20v-517h-20v151q-24 -72 -79 -111t-136 -40q-94 0 -147 54t-53 150v313h20v-313q0 -87 47.5 -135.5t132.5 -48.5
q101 2 158 66.5t57 177.5v253z" />
    <glyph glyph-name="uni1EE8" unicode="&#x1ee8;" horiz-adv-x="783" 
d="M514 881l-129 -105l-26 5l136 110zM720 816q23 -46 7.5 -86.5t-63.5 -46.5v-402q0 -136 -72.5 -210t-204.5 -74t-204.5 74t-72.5 210v418h20v-418q0 -126 67.5 -195t189.5 -69t189.5 69t67.5 195v418h7q46 0 59 35.5t-9 73.5z" />
    <glyph glyph-name="uni1EE9" unicode="&#x1ee9;" horiz-adv-x="635" 
d="M446 729l-129 -105l-26 5l136 110zM583 634q23 -46 7.5 -86.5t-63.5 -46.5v-501h-20v151q-24 -72 -79 -111t-136 -40q-94 0 -147 54t-53 150v313h20v-313q0 -87 47.5 -135.5t132.5 -48.5q101 2 158 66.5t57 177.5v253h7q46 0 59 35.5t-9 73.5z" />
    <glyph glyph-name="uni1EEA" unicode="&#x1eea;" horiz-adv-x="783" 
d="M433 781l-26 -5l-129 105l19 10zM720 816q23 -46 7.5 -86.5t-63.5 -46.5v-402q0 -136 -72.5 -210t-204.5 -74t-204.5 74t-72.5 210v418h20v-418q0 -126 67.5 -195t189.5 -69t189.5 69t67.5 195v418h7q46 0 59 35.5t-9 73.5z" />
    </font>
</defs>
</svg>
