<?xml version="1.0" standalone="no"?>
<!DOCTYPE svg PUBLIC "-//W3C//DTD SVG 1.1//EN" "http://www.w3.org/Graphics/SVG/1.1/DTD/svg11.dtd" >
<svg>
<metadata>
Created by FontForge 20090622 at Sun Apr  2 20:19:11 2017
 By deploy user
Copyright 2011 - 2016 The Montserrat Project Authors (julieta.ulanovsky@gmail.com)
</metadata>
<defs>
<font id="Montserratarm-Regular" horiz-adv-x="0" >
  <font-face 
    font-family="Montserrat arm"
    font-weight="400"
    font-stretch="normal"
    units-per-em="1000"
    panose-1="0 0 5 0 0 0 0 0 0 0"
    ascent="800"
    descent="-200"
    x-height="529"
    cap-height="700"
    bbox="-528 -388 1692 1119"
    underline-thickness="50"
    underline-position="-50"
    unicode-range="U+000D-U+FB02"
  />
<missing-glyph horiz-adv-x="587" 
d="M40 0v700h507v-700h-507zM120 70h347v560h-347v-560z" />
    <glyph glyph-name="fi" unicode="fi" horiz-adv-x="616" 
d="M109 568q0 85 51.5 132.5t123.5 47.5q44 0 92 -24l-22 -76q-36 17 -68 17q-36 0 -60 -22t-24 -63v-69h146v-71h-146v-440h-93v440h-69v71h69v57zM479 620q-25 0 -41.5 17t-16.5 43t16.5 43t41.5 17t41.5 -17t16.5 -43t-16.5 -43t-41.5 -17zM433 0v529h93v-529h-93z" />
    <glyph glyph-name="fl" unicode="fl" horiz-adv-x="638" 
d="M109 568q0 85 51.5 132.5t123.5 47.5q44 0 92 -24l-22 -76q-36 17 -68 17q-36 0 -60 -22t-24 -63v-69h146v-71h-146v-440h-93v440h-69v71h69v57zM449 742h93v-742h-93v742z" />
    <glyph glyph-name="f_f" unicode="ff" horiz-adv-x="690" 
d="M109 568q0 85 51.5 132.5t123.5 47.5q44 0 92 -24l-22 -76q-36 17 -68 17q-36 0 -60 -22t-24 -63v-69h146v-71h-146v-440h-93v440h-69v71h69v57zM635 665q-36 0 -60 -22t-24 -63v-69h146v-71h-146v-440h-93v440h-69v71h69v57q0 85 51 132.5t124 47.5q44 0 92 -24l-22 -76
q-36 17 -68 17z" />
    <glyph glyph-name="f_f_i" unicode="ffi" horiz-adv-x="964" 
d="M109 568q0 85 51.5 132.5t123.5 47.5q44 0 92 -24l-22 -76q-36 17 -68 17q-36 0 -60 -22t-24 -63v-69h146v-71h-146v-440h-93v440h-69v71h69v57zM458 568q0 85 51 132.5t124 47.5q44 0 92 -24l-22 -76q-36 17 -68 17q-36 0 -60 -22t-24 -63v-69h146v-71h-146v-440h-93
v440h-69v71h69v57zM828 620q-25 0 -41.5 17t-16.5 43t16.5 43t41.5 17t41.5 -17t16.5 -43t-16.5 -43t-41.5 -17zM782 0v529h93v-529h-93z" />
    <glyph glyph-name="f_f_l" unicode="ffl" horiz-adv-x="986" 
d="M109 568q0 85 51.5 132.5t123.5 47.5q44 0 92 -24l-22 -76q-36 17 -68 17q-36 0 -60 -22t-24 -63v-69h146v-71h-146v-440h-93v440h-69v71h69v57zM458 568q0 85 51 132.5t124 47.5q44 0 92 -24l-22 -76q-36 17 -68 17q-36 0 -60 -22t-24 -63v-69h146v-71h-146v-440h-93
v440h-69v71h69v57zM798 742h93v-742h-93v742z" />
    <glyph glyph-name="uni0535054E.liga" unicode="&#x535;&#x54e;" horiz-adv-x="1564" 
d="M1411 87h176v-88h-272v246q-71 -91 -188 -91q-135 0 -210.5 82.5t-75.5 221.5v26h-653v-198q0 -97 53.5 -151.5t147.5 -54.5q93 0 146 54.5t53 151.5v63h96v-63q0 -137 -78.5 -215t-216.5 -78q-139 0 -218 78t-79 215v471h96v-185h741v-1h8v-113q0 -101 48.5 -159
t141.5 -58q86 0 133.5 48.5t54.5 139.5v328h96v-670z" />
    <glyph glyph-name="uni05350552.liga" unicode="&#x535;&#x552;" horiz-adv-x="1571" 
d="M1411 87h176v-88h-272v246q-71 -91 -188 -91q-135 0 -210.5 82.5t-75.5 221.5v26h-653v-198q0 -97 53.5 -151.5t147.5 -54.5q93 0 146 54.5t53 151.5v63h96v-63q0 -137 -78.5 -215t-216.5 -78q-139 0 -218 78t-79 215v471h96v-185h749v-114q0 -101 48.5 -159t141.5 -58
q86 0 133.5 48.5t54.5 139.5v328h96v-670z" />
    <glyph glyph-name="uni05390540.liga" unicode="&#x539;&#x540;" horiz-adv-x="1611" 
d="M1405 411q154 -47 147 -205v-206h-96v214v1q0 69 -56 107.5t-164 38.5h-396v-152q0 -93 -69.5 -154.5t-179.5 -61.5q-111 0 -189.5 63t-78.5 168q0 98 64.5 161.5t181.5 63.5h175v22q-1 96 -78 151t-201 55q-126 0 -201 -52.5t-76 -153.5v-471h-96v471q0 138 96 215.5
t277 77.5q176 0 275.5 -83.5t99.5 -209.5v-22h393q200 0 200 114q0 49 -47 78t-142 29h-2h-236v87h231h5q156 -1 221.5 -51t65.5 -149q0 -51 -34.5 -93t-89.5 -53zM744 217v144h-168q-74 0 -115 -36t-41 -100q0 -67 48 -106t125 -39q72 0 111 40t40 97z" />
    <glyph glyph-name="uni05390545.liga" unicode="&#x539;&#x545;" horiz-adv-x="1743" 
d="M1520 409q158 -56 155 -189q-2 -110 -91 -168t-232 -59q-66 0 -127.5 16t-110.5 46t-78 80t-27 111h95q1 -54 36 -92.5t90 -56.5t123 -17q99 1 162.5 36.5t63.5 111.5q0 63 -59.5 98t-162.5 35h-517v-152q0 -93 -69.5 -154.5t-179.5 -61.5q-111 0 -189.5 63t-78.5 168
q0 98 64.5 161.5t181.5 63.5h175v22q-1 96 -78 151t-201 55q-126 0 -201 -52.5t-76 -153.5v-471h-96v471q0 138 96 215.5t277 77.5q176 0 275.5 -83.5t99.5 -209.5v-22h514q181 0 181 109q0 52 -53.5 85.5t-144.5 33.5q-165 0 -180 -109h-95q5 97 82.5 147t190.5 49
q122 -1 209 -57.5t87 -158.5q0 -46 -27.5 -85.5t-83.5 -53.5zM744 217v144h-168q-74 0 -115 -36t-41 -100q0 -67 48 -106t125 -39q72 0 111 40t40 97z" />
    <glyph glyph-name="uni0544053E.liga" unicode="&#x544;&#x53e;" horiz-adv-x="1726" 
d="M1692 653v-87h-173q106 -96 106 -242q-1 -140 -95 -235.5t-240 -95.5t-240 95.5t-94 235.5q0 145 105 242h-52q-117 0 -134 104h-191v-384q0 -137 -78.5 -215t-216.5 -78q-139 0 -218 78t-79 215v471h96v-471q0 -97 53.5 -151.5t147.5 -54.5q93 0 146 54.5t53 151.5v471
h380v-46q0 -58 62 -58h662zM1535 324q0 101 -71.5 171.5t-172.5 70.5q-102 0 -174 -70.5t-72 -171.5q0 -103 69.5 -173t176.5 -70t175.5 70t68.5 173z" />
    <glyph glyph-name="uni05440546.liga" unicode="&#x544;&#x546;" horiz-adv-x="1666" 
d="M1498 451h96v-165q0 -137 -78.5 -215t-216.5 -78q-139 0 -218 78t-79 215v327q-16 3 -63 25t-75 31q-58 24 -118.5 12.5t-61.5 -47.5v-348q0 -137 -78.5 -215t-216.5 -78q-139 0 -218 78t-79 215v471h96v-471q0 -97 53.5 -151.5t147.5 -54.5q93 0 146 54.5t53 151.5v449
q19 17 87 29.5t134 6.5q61 -5 151 -44.5t138 -38.5v-402q0 -97 53.5 -151.5t147.5 -54.5q93 0 146 54.5t53 151.5v165z" />
    <glyph glyph-name="uni05440576.liga" unicode="&#x544;&#x576;" horiz-adv-x="1519" 
d="M1333 529h94v-529h-94v112q-52 -115 -195 -115q-92 0 -144.5 54.5t-52.5 150.5v436q-21 2 -49.5 13.5l-50.5 20t-64.5 12t-92.5 -9.5v-388q0 -137 -78.5 -215t-216.5 -78q-139 0 -218 78t-79 215v471h96v-471q0 -97 53.5 -151.5t147.5 -54.5q93 0 146 54.5t53 151.5v471
q99 21 174 17t114.5 -18.5t82 -27t76.5 -8.5v-493q0 -67 36.5 -105t100.5 -37q74 1 117.5 52.5t43.5 131.5v260z" />
    <glyph glyph-name="uni05740567.liga" unicode="&#x574;&#x567;" horiz-adv-x="1260" 
d="M1215 456h-372v-384h154q63 0 98 -38t35 -108h-94q0 74 -80 74h-207v672q-106 -22 -194 6q-79 23 -119 14t-33.5 -46.5t60.5 -81.5q59 -45 81 -97t22 -134v-330h-94v111q-52 -115 -195 -115q-92 0 -144 54.5t-52 150.5v327h93v-302q0 -66 37 -104.5t100 -36.5
q74 1 117.5 52.5t43.5 131.5v62q0 50 -19.5 94t-43 71t-72.5 76q-51 59 -23 119q26 58 105 72q68 13 151 -16q85 -29 273 7v-229h372v-72z" />
    <glyph glyph-name="uni0574056F.liga" unicode="&#x574;&#x56f;" horiz-adv-x="1315" 
d="M1129 529h94v-740h-94v323q-52 -113 -195 -115q-92 0 -144 54.5t-52 150.5v469q-104 -19 -183 7q-79 23 -118 14t-32.5 -46.5t58.5 -81.5q59 -47 81 -98.5t22 -132.5v-330h-94v111q-52 -115 -195 -115q-92 0 -144 54.5t-52 150.5v327h93v-302q0 -66 37 -104.5t100 -36.5
q74 1 117.5 52.5t43.5 131.5v62q0 50 -19.5 94t-43 71t-72.5 76q-51 59 -23 119q26 58 105 72q68 13 151 -16q81 -28 262 7v-530q0 -67 36 -104.5t100 -37.5q75 1 118 52t43 132v260z" />
    <glyph glyph-name="uni0578055B0582.liga" unicode="&#x578;&#x55b;&#x582;" horiz-adv-x="965" 
d="M673 833l-141 -203h-79l107 203h113zM386 532q94 0 147 -55t53 -150v-327h-94v302q0 67 -37.5 104.5t-103.5 37.5q-71 -1 -115 -45t-50 -116v-283h-94v529h94v-110q53 111 200 113zM767 72h150v-72h-244v529h94v-457z" />
    <glyph glyph-name="uni0578055C0582.liga" unicode="&#x578;&#x55c;&#x582;" horiz-adv-x="965" 
d="M707 896q9 -61 2.5 -100.5t-25 -55t-43.5 -23t-52 -4.5t-51 0q-28 -1 -34.5 -29t12.5 -60l-84 -15q-41 121 42 163q17 10 40 13.5t40.5 3t36 2t26.5 10t12.5 26.5t-6.5 52zM386 532q94 0 147 -55t53 -150v-327h-94v302q0 67 -37.5 104.5t-103.5 37.5q-71 -1 -115 -45
t-50 -116v-283h-94v529h94v-110q53 111 200 113zM767 72h150v-72h-244v529h94v-457z" />
    <glyph glyph-name="uni0578055E0582.liga" unicode="&#x578;&#x55e;&#x582;" horiz-adv-x="965" 
d="M603 717q37 0 52 22.5t-2 44.5t-57 22q-47 0 -77 -47t-25 -159h-83q-9 283 185 283q105 0 139 -66q27 -53 -5 -108q-46 -61 -127 -65v73zM386 532q94 0 147 -55t53 -150v-327h-94v302q0 67 -37.5 104.5t-103.5 37.5q-71 -1 -115 -45t-50 -116v-283h-94v529h94v-110
q53 111 200 113zM767 72h150v-72h-244v529h94v-457z" />
    <glyph glyph-name="uniFB13.liga" unicode="&#x574;&#x576;" horiz-adv-x="1317" 
d="M1132 531h93v-528h-93v114q-51 -118 -196 -118q-92 0 -144 54.5t-52 150.5v447q-86 -8 -185 27q-79 23 -119 14t-33.5 -46.5t60.5 -81.5q59 -45 81 -97t22 -134v-330h-94v111q-52 -115 -195 -115q-92 0 -144 54.5t-52 150.5v327h93v-302q0 -66 37 -104.5t100 -36.5
q74 1 117.5 52.5t43.5 131.5v62q0 50 -19.5 94t-43 71t-72.5 76q-51 59 -24 119q27 58 105 72q69 13 152 -16q51 -18 127.5 -23.5t136.5 7.5v-505q0 -67 36.5 -105t99.5 -36q75 1 118.5 52.5t43.5 131.5v259z" />
    <glyph glyph-name="uniFB14.liga" unicode="&#x574;&#x565;" horiz-adv-x="1302" 
d="M1257 456h-425v-229q0 -67 36 -104.5t100 -37.5q75 1 118 52t43 132v77h94v-346h-94v112q-52 -113 -195 -115q-92 0 -144 54.5t-52 150.5v468q-102 -19 -183 8q-79 23 -119 14t-33.5 -46.5t60.5 -81.5q59 -45 81 -97t22 -134v-330h-94v111q-52 -115 -195 -115
q-92 0 -144 54.5t-52 150.5v327h93v-302q0 -66 37 -104.5t100 -36.5q74 1 117.5 52.5t43.5 131.5v62q0 50 -19.5 94t-43 71t-72.5 76q-51 59 -23 119q26 58 105 72q68 13 151 -16q82 -28 261 7h1v-229h425v-72z" />
    <glyph glyph-name="uniFB15.liga" unicode="&#x574;&#x56b;" horiz-adv-x="1323" 
d="M1044 532q93 0 146 -55t53 -150v-327h-94v302q0 67 -37.5 104.5t-102.5 37.5q-72 -1 -116 -45t-50 -116v-494h-94v883q-109 -21 -194 6q-79 23 -119 14t-33.5 -46.5t60.5 -81.5q59 -45 81 -97t22 -134v-330h-94v111q-52 -115 -195 -115q-92 0 -144 54.5t-52 150.5v327h93
v-302q0 -66 37 -104.5t100 -36.5q74 1 117.5 52.5t43.5 131.5v62q0 50 -19.5 94t-43 71t-72.5 76q-51 59 -23 119q26 58 105 72q68 13 151 -16q85 -29 273 7v-338q53 111 201 113z" />
    <glyph glyph-name="uniFB17.liga" unicode="&#x574;&#x56d;" horiz-adv-x="1600" 
d="M1415 529h93v-529h-93v106q-47 -107 -176 -109q-82 0 -129 54.5t-47 150.5v255h-220v-668h-94v883q-109 -21 -194 6q-79 23 -118 14t-32.5 -46.5t58.5 -81.5q59 -47 81 -98.5t22 -132.5v-330h-94v111q-52 -115 -195 -115q-92 0 -144 54.5t-52 150.5v327h93v-302
q0 -66 37 -104.5t100 -36.5q74 1 117.5 52.5t43.5 131.5v62q0 50 -19.5 94t-43 71t-72.5 76q-51 59 -23 119q26 58 105 72q68 13 151 -16q85 -29 273 7v-228h313v-302q0 -143 115 -143q60 2 98 43t46 107v295z" />
    <glyph glyph-name=".notdef" horiz-adv-x="587" 
d="M40 0v700h507v-700h-507zM120 70h347v560h-347v-560z" />
    <glyph glyph-name=".null" 
 />
    <glyph glyph-name="nonmarkingreturn" horiz-adv-x="333" 
 />
    <glyph glyph-name="CR" unicode="&#xd;" horiz-adv-x="300" 
 />
    <glyph glyph-name="space" unicode=" " horiz-adv-x="300" 
 />
    <glyph glyph-name="exclam" unicode="!" horiz-adv-x="206" 
d="M70 690h90v-171l-15 -304h-61l-14 304v171zM115 106q23 0 38.5 -16t15.5 -41t-15.5 -41.5t-38.5 -16.5t-39 16.5t-16 41.5t16 41t39 16z" />
    <glyph glyph-name="quotedbl" unicode="&#x22;" horiz-adv-x="334" 
d="M60 700h73v-233h-73v233zM201 700h73v-233h-73v233z" />
    <glyph glyph-name="numbersign" unicode="#" horiz-adv-x="721" 
d="M682 442h-145l-23 -190h141l-6 -71h-144l-22 -181h-70l22 181h-192l-22 -181h-70l22 181h-141l6 71h144l23 190h-141l6 71h144l23 187h71l-23 -187h191l23 187h70l-23 -187h142zM444 252l23 190h-191l-24 -190h192z" />
    <glyph glyph-name="dollar" unicode="$" horiz-adv-x="616" 
d="M177 528q0 -35 21.5 -59.5t55.5 -38.5t75 -26t82.5 -27.5t75.5 -36.5t55 -58.5t21 -89.5q0 -81 -58.5 -133t-155.5 -63v-133h-73v132q-69 5 -133.5 34t-113.5 75l43 83q50 -49 112.5 -75.5t121.5 -26.5q70 0 110.5 27.5t40.5 74.5q0 48 -40 77t-96.5 44.5t-113.5 35
t-97 63t-40 113.5q0 77 56 126.5t150 59.5v121h73v-120q113 -9 200 -67l-40 -86q-97 62 -198 62q-61 0 -97.5 -23.5t-36.5 -64.5z" />
    <glyph glyph-name="percent" unicode="%" horiz-adv-x="955" 
d="M222 702q85 0 133 -55t48 -153t-48 -153.5t-133 -55.5t-133 55.5t-48 153.5t48 153t133 55zM694 700h76l-519 -700h-77zM222 646q-56 0 -86.5 -39.5t-30.5 -112.5t30.5 -112.5t86.5 -39.5t86.5 39.5t30.5 112.5t-30.5 112.5t-86.5 39.5zM733 414q85 0 133 -55t48 -153
t-48 -153.5t-133 -55.5t-133 55.5t-48 153.5t48 153t133 55zM733 358q-56 0 -86.5 -39.5t-30.5 -112.5t30.5 -112.5t86.5 -39.5t86.5 39.5t30.5 112.5t-30.5 112.5t-86.5 39.5z" />
    <glyph glyph-name="ampersand" unicode="&#x26;" horiz-adv-x="655" 
d="M648 35l-49 -50l-114 112q-96 -101 -214 -101q-91 0 -152.5 55.5t-61.5 138.5q0 68 41.5 112.5t114.5 83.5q-70 92 -70 164q0 68 49 111t127 43q75 0 122 -40t47 -103q0 -64 -44.5 -106t-127.5 -85q50 -58 161 -168q40 61 67 132l62 -46q-31 -74 -76 -138zM219 551
q0 -55 57 -133q67 35 101.5 66t34.5 76q0 38 -25 61t-67 23q-46 0 -73.5 -26.5t-27.5 -66.5zM274 68q83 0 160 80q-118 117 -181 189q-56 -31 -86.5 -64t-30.5 -77q0 -56 40 -92t98 -36z" />
    <glyph glyph-name="quotesingle" unicode="'" horiz-adv-x="193" 
d="M60 700h73v-233h-73v233z" />
    <glyph glyph-name="parenleft" unicode="(" horiz-adv-x="304" 
d="M283 742q-117 -181 -117 -433t117 -433h-86q-120 176 -120 433t120 433h86z" />
    <glyph glyph-name="parenright" unicode=")" horiz-adv-x="304" 
d="M21 742h86q120 -176 120 -433t-120 -433h-86q117 181 117 433t-117 433z" />
    <glyph glyph-name="asterisk" unicode="*" horiz-adv-x="337" 
d="M143 721h51l-1 -106l92 54l25 -47l-93 -52l93 -52l-25 -47l-92 54l1 -106h-51l1 107l-92 -54l-26 46l93 52l-93 52l26 48l92 -55z" />
    <glyph glyph-name="plus" unicode="+" horiz-adv-x="494" 
d="M458 357v-67h-179v-178h-63v178h-180v67h180v178h63v-178h179z" />
    <glyph glyph-name="comma" unicode="," horiz-adv-x="204" 
d="M104 103q22 0 37.5 -15t15.5 -40q0 -16 -14 -46l-54 -114h-51l40 113q-28 15 -28 47q0 24 15.5 39.5t38.5 15.5z" />
    <glyph glyph-name="hyphen" unicode="-" horiz-adv-x="366" 
d="M63 337h239v-67h-239v67z" />
    <glyph glyph-name="period" unicode="." horiz-adv-x="207" 
d="M104 106q23 0 38.5 -16t15.5 -41t-15.5 -41.5t-38.5 -16.5t-39 16.5t-16 41.5t16 41t39 16z" />
    <glyph glyph-name="slash" unicode="/" horiz-adv-x="323" 
d="M299 819h81l-315 -939h-80z" />
    <glyph glyph-name="zero" unicode="0" horiz-adv-x="711" 
d="M362 704q141 0 217 -91.5t76 -262.5t-76 -263t-217 -92q-142 0 -217.5 92t-75.5 263t75.5 262.5t217.5 91.5zM362 628q-194 0 -194 -278t194 -278t194 278t-194 278z" />
    <glyph glyph-name="one" unicode="1" horiz-adv-x="369" 
d="M6 700h255v-700h-96v613h-159v87z" />
    <glyph glyph-name="two" unicode="2" horiz-adv-x="578" 
d="M164 87h380v-87h-506v74l271 281q96 96 96 163q0 47 -36.5 74t-100.5 27q-49 0 -102 -22.5t-96 -62.5l-41 73q120 97 251 97q102 0 163.5 -47t61.5 -126q0 -93 -130 -228z" />
    <glyph glyph-name="three" unicode="3" horiz-adv-x="585" 
d="M305 403q105 -6 167 -55t62 -132q0 -99 -74 -160t-198 -61q-66 0 -132.5 20t-114.5 53l41 78q88 -69 200 -69q86 0 135 37t49 99t-49 94.5t-138 32.5h-96v61l215 212h-323l-1 87h450v-61l-235 -233z" />
    <glyph glyph-name="four" unicode="4" horiz-adv-x="591" 
d="M561 266v-86h-108v-180h-90v180h-347v74l250 446h94l-240 -434h243v179h90v-179h108z" />
    <glyph glyph-name="five" unicode="5" horiz-adv-x="615" 
d="M317 439q116 0 186.5 -59t70.5 -151q0 -106 -72 -170t-192 -64q-62 0 -130.5 21.5t-122.5 57.5l39 77q95 -70 205 -70q79 0 125 38t46 103q0 61 -46 95.5t-131 34.5q-94 0 -185 -14v362h435v-87h-345v-178q47 4 117 4z" />
    <glyph glyph-name="six" unicode="6" horiz-adv-x="637" 
d="M523 580q-71 44 -159 44q-107 0 -161 -78.5t-47 -212.5q52 117 203 117q105 0 165.5 -60t60.5 -162q0 -107 -66.5 -170t-176.5 -63q-132 0 -206.5 89.5t-74.5 250.5q0 168 80.5 268.5t215.5 100.5q110 0 204 -51zM342 373q-77 0 -122.5 -43.5t-44.5 -105.5
q-1 -56 41 -100.5t120 -44.5q72 0 115.5 40t43.5 110q0 66 -41.5 105t-111.5 39z" />
    <glyph glyph-name="seven" unicode="7" horiz-adv-x="567" 
d="M14 700h524v-75l-305 -625h-102l299 613h-329l-1 -101h-86v188z" />
    <glyph glyph-name="eight" unicode="8" horiz-adv-x="636" 
d="M319 704q106 0 167 -47.5t61 -130.5q0 -52 -28.5 -91.5t-79.5 -60.5q67 -21 105 -67.5t38 -110.5q0 -93 -70.5 -147t-191.5 -54t-191.5 53.5t-70.5 145.5q0 65 39 112t108 68q-113 48 -113 155q0 81 61 128t166 47zM320 634q-69 0 -107.5 -30t-38.5 -83q0 -54 38.5 -84
t107.5 -30t107 30t38 84q0 53 -38 83t-107 30zM319 331q-80 0 -125 -33.5t-45 -92.5q0 -63 45 -98t126 -35q80 0 125.5 35t45.5 97q0 59 -45.5 93t-126.5 34z" />
    <glyph glyph-name="nine" unicode="9" horiz-adv-x="634" 
d="M119 120q71 -44 158 -44q106 0 159.5 78.5t46.5 213.5q-51 -118 -201 -118q-104 0 -164 60t-60 162q0 107 66 169.5t175 62.5q130 0 204.5 -89t74.5 -249q0 -169 -80 -270t-215 -101q-106 0 -202 52zM305 621q-71 0 -114 -40t-43 -110q0 -66 41 -105t110 -39q76 0 121 44
t45 106q0 55 -41.5 99.5t-118.5 44.5z" />
    <glyph glyph-name="colon" unicode=":" horiz-adv-x="207" 
d="M104 403q23 0 38.5 -16t15.5 -41t-15.5 -41.5t-38.5 -16.5t-39 16.5t-16 41.5t16 41t39 16zM104 106q23 0 38.5 -16t15.5 -41t-15.5 -41.5t-38.5 -16.5t-39 16.5t-16 41.5t16 41t39 16z" />
    <glyph glyph-name="semicolon" unicode=";" horiz-adv-x="206" 
d="M104 288q-23 0 -39 16.5t-16 41.5t16 41t39 16t38.5 -16t15.5 -41t-15.5 -41.5t-38.5 -16.5zM104 103q22 0 37.5 -15t15.5 -40q0 -16 -14 -46l-54 -114h-51l40 113q-28 15 -28 47q0 24 15.5 39.5t38.5 15.5z" />
    <glyph glyph-name="less" unicode="&#x3c;" horiz-adv-x="494" 
d="M458 554v-74l-358 -154l358 -154v-74l-422 186v84z" />
    <glyph glyph-name="equal" unicode="=" horiz-adv-x="494" 
d="M36 460h422v-66h-422v66zM36 253h422v-66h-422v66z" />
    <glyph glyph-name="greater" unicode="&#x3e;" horiz-adv-x="494" 
d="M36 102v74l358 154l-358 154v74l422 -186v-84z" />
    <glyph glyph-name="question" unicode="?" horiz-adv-x="432" 
d="M23 505q3 88 57 137.5t143 49.5q88 0 141 -42.5t53 -121.5q0 -44 -18 -79t-44.5 -58l-52.5 -45t-44 -53t-18 -70h-73q0 46 16.5 80.5t40 56.5l47.5 42.5t40.5 48.5t16.5 64q0 47 -30 71.5t-83 24.5t-84 -27.5t-33 -79.5zM202 106q23 0 38.5 -16t15.5 -41t-15.5 -41.5
t-38.5 -16.5t-39 16.5t-16 41.5t16 41t39 16z" />
    <glyph glyph-name="at" unicode="@" horiz-adv-x="981" 
d="M718 139q0 -30 14.5 -45.5t37.5 -15.5q43 0 72.5 53t29.5 136q0 160 -103.5 264.5t-272.5 104.5q-163 0 -275 -107t-112 -263q0 -152 107 -252t267 -100q46 0 98.5 14.5t91.5 41.5l34 -63q-43 -29 -106 -47t-118 -18q-191 0 -318 121t-127 303q0 187 131.5 313t326.5 126
q194 0 321 -123t127 -312q0 -115 -50.5 -184.5t-132.5 -69.5q-45 0 -74.5 22.5t-35.5 64.5l-2 28q-61 -102 -186 -102q-97 0 -166 68t-69 172q0 103 63.5 172.5t163.5 69.5q62 0 110.5 -29t64.5 -60v81h88v-364zM471 426q-64 0 -106 -44t-42 -109q0 -67 42 -113t108 -46
q67 0 109 45t42 113q0 66 -42.5 110t-110.5 44z" />
    <glyph glyph-name="A" unicode="A" horiz-adv-x="726" 
d="M620 0l-74 170h-369l-73 -170h-101l311 700h100l310 -700h-104zM215 257h294l-148 340z" />
    <glyph glyph-name="B" unicode="B" horiz-adv-x="712" 
d="M399 700q107 0 168.5 -46.5t61.5 -128.5q0 -60 -34 -101.5t-93 -55.5q73 -11 114.5 -58.5t41.5 -118.5q0 -90 -67.5 -140.5t-186.5 -50.5h-304v700h299zM394 403q65 0 100.5 27.5t35.5 78.5q0 50 -35.5 77t-100.5 26h-198v-209h198zM394 88q78 -1 122 29.5t44 85.5
q0 53 -44 83t-122 30h-198v-228h198z" />
    <glyph glyph-name="C" unicode="C" horiz-adv-x="699" 
d="M607 532q-86 89 -202 89q-113 0 -191.5 -78.5t-78.5 -190.5t79 -190.5t191 -78.5q115 0 202 84l58 -63q-53 -52 -123 -81.5t-142 -29.5q-152 0 -257 104t-105 254q0 149 106 252t260 103q73 0 141.5 -27.5t118.5 -77.5z" />
    <glyph glyph-name="D" unicode="D" horiz-adv-x="783" 
d="M385 700q155 0 258 -99.5t103 -250.5q0 -150 -104 -250t-260 -100h-282v700h285zM387 87q111 0 186 74.5t75 187.5t-76.5 188.5t-188.5 75.5h-187v-526h191z" />
    <glyph glyph-name="E" unicode="E" horiz-adv-x="653" 
d="M100 700h486v-87h-390v-216h349v-87h-349v-223h402v-87h-498v700z" />
    <glyph glyph-name="F" unicode="F" horiz-adv-x="568" 
d="M100 700h456l-1 -87h-359v-230h323v-87h-323v-296h-96v700z" />
    <glyph glyph-name="G" unicode="G" horiz-adv-x="751" 
d="M584 134v208h85v-257q-53 -42 -124 -67t-141 -25q-154 0 -260 104t-106 254q0 149 107 252t264 103q73 0 142.5 -26t120.5 -71l-55 -70q-88 82 -208 82q-115 0 -194.5 -78.5t-79.5 -191.5t80 -192.5t195 -79.5q92 0 174 55z" />
    <glyph glyph-name="H" unicode="H" horiz-adv-x="793" 
d="M100 700h96v-312h400v312h97v-700h-97v301h-400v-301h-96v700z" />
    <glyph glyph-name="I" unicode="I" horiz-adv-x="296" 
d="M100 700h96v-700h-96v700z" />
    <glyph glyph-name="J" unicode="J" horiz-adv-x="490" 
d="M406 212q0 -103 -55 -159.5t-153 -56.5q-120 0 -199 100l47 74q69 -80 151 -80q54 0 83 32.5t29 92.5v397h-247v88h344v-488z" />
    <glyph glyph-name="K" unicode="K" horiz-adv-x="707" 
d="M687 0h-116l-246 323l-129 -140v-183h-96v700h96v-393l358 393h115l-277 -302z" />
    <glyph glyph-name="L" unicode="L" horiz-adv-x="524" 
d="M100 700h96v-613h306v-87h-402v700z" />
    <glyph glyph-name="M" unicode="M" horiz-adv-x="939" 
d="M100 700h114l256 -492l254 492h115v-700h-90l-1 559l-249 -485h-59l-251 485v-559h-89v700z" />
    <glyph glyph-name="N" unicode="N" horiz-adv-x="794" 
d="M598 700h95v-700h-97l-400 542v-542h-96v700h97l401 -543v543z" />
    <glyph glyph-name="O" unicode="O" horiz-adv-x="812" 
d="M406 706q155 0 261.5 -103t106.5 -252q0 -150 -107 -254t-261 -104t-261 104t-107 254t106.5 252.5t261.5 102.5zM407 620q-112 0 -192 -78.5t-80 -190.5t80.5 -191.5t191.5 -79.5t190 79.5t79 191.5t-79 190.5t-190 78.5z" />
    <glyph glyph-name="P" unicode="P" horiz-adv-x="671" 
d="M370 700q131 0 202.5 -62t71.5 -174q0 -117 -72 -181.5t-202 -64.5h-174v-218h-96v700h270zM366 305q90 0 138 39.5t48 116.5q0 75 -48 113.5t-138 38.5l-170 -1v-307h170z" />
    <glyph glyph-name="Q" unicode="Q" horiz-adv-x="822" 
d="M775 -2l40 -69q-84 -76 -183 -76q-127 0 -220 140h-6q-154 0 -261 104t-107 254t106.5 252.5t261.5 102.5t261.5 -103t106.5 -252q0 -122 -73 -216t-188 -127q66 -71 130 -71q58 0 132 61zM135 351q0 -112 80.5 -191.5t191.5 -79.5t190 79.5t79 191.5t-79 190.5
t-190 78.5q-112 0 -192 -78.5t-80 -190.5z" />
    <glyph glyph-name="R" unicode="R" horiz-adv-x="723" 
d="M662 0h-110l-139 220q-24 -2 -39 -2h-178v-218h-96v700h274q133 0 205.5 -61.5t72.5 -174.5q0 -174 -153 -227zM196 305h178q90 0 138 39.5t48 116.5q0 75 -48 113.5t-138 38.5h-178v-308z" />
    <glyph glyph-name="S" unicode="S" horiz-adv-x="616" 
d="M509 554q-97 62 -198 62q-61 0 -97.5 -23.5t-36.5 -64.5q0 -35 21.5 -59.5t55.5 -38.5t75 -26t82.5 -27.5t75.5 -36.5t55 -58.5t21 -89.5q0 -90 -71.5 -144t-186.5 -54q-77 0 -150 30t-126 80l43 83q50 -49 112.5 -75.5t121.5 -26.5q70 0 110.5 27.5t40.5 74.5
q0 48 -40 77t-96.5 44.5t-113.5 35t-97 63t-40 113.5q0 85 68 136.5t180 51.5q130 0 231 -68z" />
    <glyph glyph-name="T" unicode="T" horiz-adv-x="567" 
d="M10 700h547v-88h-226v-612h-96v612h-225v88z" />
    <glyph glyph-name="U" unicode="U" horiz-adv-x="762" 
d="M181 286q0 -97 53.5 -151.5t147.5 -54.5q93 0 146 54.5t53 151.5v414h96v-414q0 -137 -78.5 -215t-216.5 -78q-139 0 -218 78t-79 215v414h96v-414z" />
    <glyph glyph-name="V" unicode="V" horiz-adv-x="676" 
d="M5 700h103l231 -593l231 593h101l-284 -700h-100z" />
    <glyph glyph-name="W" unicode="W" horiz-adv-x="1046" 
d="M942 700h100l-237 -700h-100l-181 578l-184 -578h-99l-236 700h103l185 -597l184 597h96l185 -597z" />
    <glyph glyph-name="X" unicode="X" horiz-adv-x="677" 
d="M37 700h112l184 -261l185 261h113l-237 -336l257 -364h-115l-203 283l-201 -283h-113l256 360z" />
    <glyph glyph-name="Y" unicode="Y" horiz-adv-x="630" 
d="M627 700l-262 -460v-240h-96v236l-266 464h98l216 -357l212 357h98z" />
    <glyph glyph-name="Z" unicode="Z" horiz-adv-x="662" 
d="M54 700h563v-71l-448 -542h453l-1 -87h-580v71l448 542h-436z" />
    <glyph glyph-name="bracketleft" unicode="[" horiz-adv-x="319" 
d="M88 742h209v-76h-125v-714h125v-76h-209v866z" />
    <glyph glyph-name="backslash" unicode="\" horiz-adv-x="323" 
d="M24 819l314 -939h-80l-315 939h81z" />
    <glyph glyph-name="bracketright" unicode="]" horiz-adv-x="319" 
d="M231 742v-866h-209v76h125v714h-125v76h209z" />
    <glyph glyph-name="asciicircum" unicode="^" horiz-adv-x="524" 
d="M490 131h-74l-154 336l-154 -336h-74l186 396h84z" />
    <glyph glyph-name="underscore" unicode="_" horiz-adv-x="560" 
d="M0 -146h559v-58h-559v58z" />
    <glyph glyph-name="grave" unicode="`" horiz-adv-x="330" 
d="M161 752l107 -130l-79 -10l-124 98z" />
    <glyph glyph-name="a" unicode="a" horiz-adv-x="581" 
d="M506 0h-92v74q-59 -78 -185 -78q-83 0 -133 46t-50 116q0 71 52.5 112.5t146.5 42.5h168v25q0 56 -34.5 86.5t-100.5 30.5q-80 0 -163 -57l-39 64q57 37 105.5 53.5t115.5 16.5q99 0 153 -48.5t55 -135.5zM248 73q65 0 110.5 31.5t54.5 83.5v53h-155q-124 0 -124 -79
q0 -41 31 -65t83 -24z" />
    <glyph glyph-name="b" unicode="b" horiz-adv-x="678" 
d="M385 532q113 0 183.5 -75t70.5 -194q0 -118 -70 -192t-182 -74q-137 0 -198 108v-105h-93v742h93v-318q61 108 196 108zM367 78q77 0 127 53t50 135q0 81 -50 134t-127 53q-78 0 -128 -53t-50 -134q0 -83 50 -135.5t128 -52.5z" />
    <glyph glyph-name="c" unicode="c" horiz-adv-x="562" 
d="M462 388q-64 62 -155 61q-77 0 -126 -51.5t-49 -133.5q0 -83 49 -134.5t126 -51.5q105 0 160 66l53 -54q-74 -93 -217 -93q-116 0 -190 74.5t-74 192.5t74 193t190 75q135 0 210 -80z" />
    <glyph glyph-name="d" unicode="d" horiz-adv-x="680" 
d="M491 742h93v-742h-93v105q-61 -110 -198 -110q-113 0 -183.5 75.5t-70.5 195.5q0 118 70.5 192.5t182.5 74.5q138 0 199 -109v318zM312 75q79 0 129 52.5t50 135.5t-50 136t-129 53t-129 -53t-50 -136t50 -135.5t129 -52.5z" />
    <glyph glyph-name="e" unicode="e" horiz-adv-x="588" 
d="M303 532q130 0 193 -81t55 -223h-418q11 -71 59.5 -113t119.5 -42q96 0 158 65l51 -53q-80 -88 -216 -88q-118 0 -192 74t-74 193q0 118 73.5 192.5t190.5 75.5zM132 300h336q-4 72 -48 113.5t-116 41.5q-70 0 -116.5 -42t-55.5 -113z" />
    <glyph glyph-name="f" unicode="f" horiz-adv-x="342" 
d="M286 665q-36 0 -60 -22t-24 -63v-69h146v-71h-146v-440h-93v440h-69v71h69v57q0 85 51.5 132.5t123.5 47.5q44 0 92 -24l-22 -76q-36 17 -68 17z" />
    <glyph glyph-name="g" unicode="g" horiz-adv-x="638" 
d="M465 529h94v-475q0 -115 -73.5 -183t-196.5 -68q-117 0 -218 74l41 68q78 -63 173 -63q82 0 131 46t49 123v74q-58 -101 -186 -101q-107 0 -173.5 71t-66.5 185q0 111 65.5 181t171.5 71q129 1 189 -100v97zM297 99q74 0 121 50t47 128q0 79 -47 129t-121 50
q-75 0 -122 -50.5t-48 -128.5q1 -78 48 -128t122 -50z" />
    <glyph glyph-name="h" unicode="h" horiz-adv-x="665" 
d="M391 532q93 0 146 -54.5t53 -150.5v-327h-93v302q0 67 -37.5 104.5t-103.5 37.5q-77 -1 -122 -52t-45 -132v-260h-93v742h93v-327q53 115 202 117z" />
    <glyph glyph-name="i" unicode="i" horiz-adv-x="274" 
d="M137 740q25 0 41.5 -17t16.5 -43t-16.5 -43t-41.5 -17t-41.5 17t-16.5 43t16.5 43t41.5 17zM91 529h93v-529h-93v529z" />
    <glyph glyph-name="j" unicode="j" horiz-adv-x="263" 
d="M135 740q25 0 41.5 -17t16.5 -43t-16.5 -43t-41.5 -17t-41.5 17t-16.5 43t16.5 43t41.5 17zM-37 -108q22 -8 48 -10q38 -1 58 26t20 79v542h94v-555q0 -83 -40.5 -127.5t-112.5 -43.5q-49 2 -89 18z" />
    <glyph glyph-name="k" unicode="k" horiz-adv-x="582" 
d="M461 0l-169 257l-103 -107v-150h-93v742h93v-473l256 260h109l-197 -205l216 -324h-112z" />
    <glyph glyph-name="l" unicode="l" horiz-adv-x="285" 
d="M96 742h93v-742h-93v742z" />
    <glyph glyph-name="m" unicode="m" horiz-adv-x="1044" 
d="M774 532q91 0 143 -55t52 -150v-327h-94v302q0 67 -36.5 105t-100.5 38q-75 -2 -118 -53t-43 -131v-261h-94v302q0 67 -36 105t-101 38q-75 -2 -118.5 -53t-43.5 -131v-261h-93v529h93v-111q52 112 197 114q73 0 121.5 -35t65.5 -98q49 131 206 133z" />
    <glyph glyph-name="n" unicode="n" horiz-adv-x="659" 
d="M385 532q93 0 146 -54.5t53 -150.5v-327h-93v302q0 67 -37.5 104.5t-103.5 37.5q-71 -1 -115.5 -45.5t-50.5 -115.5v-283h-93v529h93v-112q53 113 201 115z" />
    <glyph glyph-name="o" unicode="o" horiz-adv-x="621" 
d="M311 532q119 0 195 -74.5t76 -192.5q0 -119 -75.5 -193.5t-195.5 -74.5q-121 0 -196.5 74.5t-75.5 193.5t75.5 193t196.5 74zM311 451q-79 0 -128.5 -52t-49.5 -135q0 -84 49.5 -136t128.5 -52q78 0 127.5 52t49.5 136q0 82 -50 134.5t-127 52.5z" />
    <glyph glyph-name="p" unicode="p" horiz-adv-x="678" 
d="M385 532q113 0 183.5 -75t70.5 -194q0 -118 -70 -192t-182 -74q-137 0 -198 108v-299h-93v723h93v-105q61 108 196 108zM367 78q77 0 127 53t50 135q0 81 -50 134t-127 53q-78 0 -128 -53t-50 -134q0 -83 50 -135.5t128 -52.5z" />
    <glyph glyph-name="q" unicode="q" horiz-adv-x="680" 
d="M491 529h93v-723h-93v299q-61 -110 -198 -110q-113 0 -183.5 75.5t-70.5 195.5q0 118 70.5 192.5t182.5 74.5q138 0 199 -109v105zM312 75q79 0 129 52.5t50 135.5t-50 136t-129 53t-129 -53t-50 -136t50 -135.5t129 -52.5z" />
    <glyph glyph-name="r" unicode="r" horiz-adv-x="382" 
d="M184 415q53 115 188 117v-90q-81 3 -131 -42t-57 -121v-279h-93v529h93v-114z" />
    <glyph glyph-name="s" unicode="s" horiz-adv-x="460" 
d="M380 412q-72 44 -148 44q-93 0 -93 -63q0 -30 30 -48.5t72.5 -30.5t85 -27.5t72 -50t29.5 -87.5q0 -74 -56.5 -113t-140.5 -39q-59 0 -114.5 19t-93.5 54l35 68q33 -30 81.5 -48t94.5 -18t74 17t28 51q1 33 -28.5 53t-72 32t-84.5 27t-71.5 48.5t-29.5 85.5q0 73 54 110
t135 37q102 0 175 -50z" />
    <glyph glyph-name="t" unicode="t" horiz-adv-x="397" 
d="M350 107l25 -72q-61 -39 -124 -39t-102 37.5t-39 113.5v293h-75v71h75v142h94v-142h162v-71h-162v-276q0 -44 16 -63t48 -19q38 0 82 25z" />
    <glyph glyph-name="u" unicode="u" horiz-adv-x="649" 
d="M465 529h94v-529h-94v112q-52 -113 -196 -115q-92 0 -144 54.5t-52 150.5v327h94v-302q0 -67 36.5 -104.5t100.5 -37.5q74 1 117.5 52.5t43.5 131.5v260z" />
    <glyph glyph-name="v" unicode="v" horiz-adv-x="510" 
d="M3 529h99l159 -437l158 437h94l-206 -529h-97z" />
    <glyph glyph-name="w" unicode="w" horiz-adv-x="876" 
d="M3 529h97l148 -437l146 437h97l147 -437l146 437h96l-195 -529h-97l-146 416l-146 -416h-97z" />
    <glyph glyph-name="x" unicode="x" horiz-adv-x="540" 
d="M31 529h108l131 -194l133 194h103l-174 -258l187 -271h-109l-140 208l-147 -208h-105l190 271z" />
    <glyph glyph-name="y" unicode="y" horiz-adv-x="514" 
d="M276 -75q-50 -123 -164 -123q-66 0 -116 41l40 73q35 -25 71 -25q60 0 90 68l20 47l-219 523h98l168 -424l159 424h95z" />
    <glyph glyph-name="z" unicode="z" horiz-adv-x="531" 
d="M58 529l425 -1v-66l-320 -385l328 -1v-77l-442 1v66l319 385l-310 1v77z" />
    <glyph glyph-name="braceleft" unicode="{" horiz-adv-x="339" 
d="M211 410q0 -19 -2.5 -31.5t-12 -23t-14.5 -15t-23 -15.5l-26 -16l25.5 -16.5t23.5 -16t15 -15t11.5 -23.5t2.5 -32v-183q0 -39 22.5 -56t75.5 -17v-76h-35q-80 0 -114.5 28t-34.5 94v216q0 58 -45 58h-29v77h29q45 0 45 58v216q0 65 34.5 93.5t114.5 28.5h35v-76
q-53 0 -75.5 -17t-22.5 -56v-184z" />
    <glyph glyph-name="bar" unicode="|" horiz-adv-x="258" 
d="M93 813h72v-932h-72v932z" />
    <glyph glyph-name="braceright" unicode="}" horiz-adv-x="339" 
d="M259 347h29v-77h-29q-45 0 -45 -58v-216q0 -66 -34.5 -94t-114.5 -28h-35v76q53 0 75.5 17t22.5 56v183q0 19 2.5 32t11.5 23.5t15 15t23.5 16l25.5 16.5l-26 16t-23 15.5t-14.5 15t-12 23t-2.5 31.5v184q0 39 -22.5 56t-75.5 17v76h35q80 0 114.5 -28.5t34.5 -93.5v-216
q0 -58 45 -58z" />
    <glyph glyph-name="asciitilde" unicode="~" horiz-adv-x="494" 
d="M425 380q0 -127 -91 -127q-36 0 -86.5 30t-69.5 30q-42 0 -42 -53h-66q0 127 91 127q33 0 85 -30t72 -30q41 0 41 53h66z" />
    <glyph glyph-name="uni00A0" unicode="&#xa0;" horiz-adv-x="300" 
 />
    <glyph glyph-name="exclamdown" unicode="&#xa1;" horiz-adv-x="206" 
d="M114 422q-23 0 -38.5 16t-15.5 41t15.5 41.5t38.5 16.5t39 -16.5t16 -41.5t-16 -41t-39 -16zM159 -162h-90v171l15 304h61l14 -304v-171z" />
    <glyph glyph-name="cent" unicode="&#xa2;" horiz-adv-x="600" 
d="M520 90q-64 -79 -179 -91v-139h-72v139q-103 11 -166.5 83.5t-63.5 181.5t63.5 182t166.5 84v147h72v-147q109 -11 172 -78l-51 -64q-64 62 -155 61q-77 0 -126 -51.5t-49 -133.5q0 -83 49 -134.5t126 -51.5q105 0 160 66z" />
    <glyph glyph-name="sterling" unicode="&#xa3;" horiz-adv-x="544" 
d="M222 323v-244h288v-79h-470v79h86v244h-86v54h86v110q0 104 53 160.5t151 56.5q116 0 192 -92l-39 -74q-64 79 -144 79q-57 0 -87 -33.5t-30 -98.5v-108h179v-54h-179z" />
    <glyph glyph-name="currency" unicode="&#xa4;" horiz-adv-x="714" 
d="M629 319q0 -89 -56 -161l102 -103l-53 -57l-107 107q-69 -50 -158 -50q-88 0 -157 50l-107 -107l-54 57l103 104q-56 70 -56 160q0 88 54 159l-101 102l54 57l104 -104q72 51 160 51q89 0 161 -51l104 104l53 -57l-101 -102q55 -69 55 -159zM357 134q82 0 139.5 54
t57.5 131t-57.5 131.5t-139.5 54.5q-81 0 -138 -54.5t-57 -131.5t57 -131t138 -54z" />
    <glyph glyph-name="yen" unicode="&#xa5;" horiz-adv-x="629" 
d="M626 700l-230 -406h173v-53h-203l-1 -1v-64h204v-54h-204v-122h-96v122h-205v54h205v60l-3 5h-202v53h171l-233 406h98l216 -357l212 357h98z" />
    <glyph glyph-name="brokenbar" unicode="&#xa6;" horiz-adv-x="258" 
d="M93 813h72v-347h-72v347zM93 229h72v-348h-72v348z" />
    <glyph glyph-name="section" unicode="&#xa7;" horiz-adv-x="484" 
d="M399 584q-73 43 -147 43q-49 0 -78 -18.5t-29 -49.5q0 -34 31.5 -55.5t76.5 -34.5t90 -28.5t76.5 -49t31.5 -84.5q0 -44 -32.5 -80.5t-78.5 -48.5q50 -20 72.5 -47t22.5 -70q0 -64 -55.5 -104.5t-143.5 -40.5q-126 0 -213 75l30 60q83 -68 180 -68q51 0 84 21.5t33 53.5
q0 34 -31.5 55.5t-76 34.5t-89 29t-76 49t-31.5 83q0 48 34 81t93 44q-61 24 -85.5 51.5t-24.5 69.5q0 62 52 100.5t137 38.5q96 0 178 -50zM238 385q-51 0 -80.5 -18.5t-29.5 -50.5q0 -39 39.5 -64.5t95.5 -25.5q49 0 77 20.5t28 54.5q0 37 -36 60.5t-94 23.5z" />
    <glyph glyph-name="dieresis" unicode="&#xa8;" horiz-adv-x="350" 
d="M103 734q23 0 38 -15.5t15 -39.5q0 -23 -15 -38.5t-38 -15.5t-38 15.5t-15 38.5q0 24 15 39.5t38 15.5zM275 734q23 0 38 -15.5t15 -39.5q0 -23 -15 -38.5t-38 -15.5t-38 15.5t-15 38.5q0 24 15 39.5t38 15.5z" />
    <glyph glyph-name="copyright" unicode="&#xa9;" horiz-adv-x="752" 
d="M377 689q142 0 240 -99.5t98 -239.5t-99 -240.5t-241 -100.5q-141 0 -239 99.5t-98 239.5t98.5 240.5t240.5 100.5zM377 638q-123 0 -207 -85t-84 -205q0 -119 83.5 -203.5t205.5 -84.5t206.5 85.5t84.5 204.5q0 120 -83.5 204t-205.5 84zM482 435q-45 42 -100 42
t-93 -37t-38 -90q0 -54 38 -91.5t93 -37.5q56 0 100 41l30 -33q-57 -55 -132 -55q-76 0 -128 50.5t-52 124.5q0 73 52.5 123.5t128.5 50.5t131 -53z" />
    <glyph glyph-name="ordfeminine" unicode="&#xaa;" horiz-adv-x="382" 
d="M328 458h-66v53q-38 -56 -118 -56q-49 0 -78 26t-29 68t32 65t91 23h101v18q0 65 -80 65q-49 0 -108 -32l-18 47q76 38 141 38q62 0 97 -29t34 -81zM166 502q67 0 95 55v44h-88q-72 0 -72 -47q0 -23 17.5 -37.5t47.5 -14.5z" />
    <glyph glyph-name="guillemotleft" unicode="&#xab;" horiz-adv-x="439" 
d="M145 427h80l-107 -170l107 -169h-80l-114 169zM310 427h80l-107 -170l107 -169h-80l-114 169z" />
    <glyph glyph-name="logicalnot" unicode="&#xac;" horiz-adv-x="555" 
d="M476 394v-246h-70v180h-370v66h440z" />
    <glyph glyph-name="uni00AD" unicode="&#xad;" horiz-adv-x="366" 
d="M63 337h239v-67h-239v67z" />
    <glyph glyph-name="registered" unicode="&#xae;" horiz-adv-x="752" 
d="M377 689q142 0 240 -99.5t98 -239.5t-99 -240.5t-241 -100.5q-141 0 -239 99.5t-98 239.5t98.5 240.5t240.5 100.5zM375 60q122 0 206.5 85.5t84.5 204.5q0 120 -83.5 204t-205.5 84q-123 0 -207 -85t-84 -205q0 -119 83.5 -203.5t205.5 -84.5zM521 414q0 -86 -75 -112
l81 -117h-57l-68 108q-6 -1 -19 -1h-86v-107h-49v346h135q67 0 102.5 -30.5t35.5 -86.5zM297 334h86q44 0 68 21t24 59q0 37 -24 56.5t-68 19.5h-86v-156z" />
    <glyph glyph-name="macron" unicode="&#xaf;" horiz-adv-x="350" 
d="M32 710h287v-62h-287v62z" />
    <glyph glyph-name="degree" unicode="&#xb0;" horiz-adv-x="336" 
d="M195 807q47 0 81.5 -34t34.5 -80t-34.5 -79.5t-81.5 -33.5t-81 33.5t-34 79.5q0 47 34 80.5t81 33.5zM195 763q-30 0 -51.5 -20.5t-21.5 -49.5q0 -28 21.5 -48.5t51.5 -20.5t51.5 20.5t21.5 48.5q0 29 -21.5 49.5t-51.5 20.5z" />
    <glyph glyph-name="plusminus" unicode="&#xb1;" horiz-adv-x="494" 
d="M279 419h179v-66h-179v-175h-63v175h-180v66h180v174h63v-174zM36 27v67h422v-67h-422z" />
    <glyph glyph-name="uni00B2" unicode="&#xb2;" horiz-adv-x="351" 
d="M179 572q53 53 53 90q0 26 -19 40.5t-53 14.5q-58 0 -117 -52l-29 51q73 59 156 59q61 0 98 -28t37 -76q0 -59 -79 -135l-117 -120h216v-56h-303v49z" />
    <glyph glyph-name="uni00B3" unicode="&#xb3;" horiz-adv-x="348" 
d="M193 597q55 -5 88.5 -34.5t33.5 -77.5q0 -58 -42.5 -94t-113.5 -36q-83 0 -143 43l30 55q46 -44 109 -44q43 0 67 20t24 55q0 33 -24 51t-68 18h-58v39l118 124h-179v52h260v-41l-124 -129z" />
    <glyph glyph-name="acute" unicode="&#xb4;" horiz-adv-x="350" 
d="M183 752l96 -42l-124 -98l-79 10z" />
    <glyph glyph-name="uni00B5" unicode="&#xb5;" horiz-adv-x="672" 
d="M487 529h94v-529h-94v112q-52 -113 -196 -115q-58 0 -101 23v-214h-94v371q-1 8 -1 25v327h95v-323q6 -57 42 -89t94 -32q74 1 117.5 52.5t43.5 131.5v260z" />
    <glyph glyph-name="paragraph" unicode="&#xb6;" horiz-adv-x="602" 
d="M215 371q-12 -1 -33 -1q-51 0 -88.5 18t-56.5 47t-27.5 58t-8.5 59q0 80 54 135t164 55h283v-852h-73v792h-142v-792h-72v481z" />
    <glyph glyph-name="periodcentered" unicode="&#xb7;" horiz-adv-x="214" 
d="M107 342q25 0 41.5 -17t16.5 -43t-16.5 -43t-41.5 -17t-41.5 17t-16.5 43t16.5 43t41.5 17z" />
    <glyph glyph-name="cedilla" unicode="&#xb8;" horiz-adv-x="285" 
d="M137 8l63 -8l-18 -52q40 -6 60.5 -27.5t20.5 -50.5q0 -40 -31 -63.5t-79 -23.5q-47 0 -92 21l20 57q32 -13 61 -13q22 0 34.5 9.5t12.5 21.5q0 13 -13.5 21.5t-37.5 8.5h-32z" />
    <glyph glyph-name="uni00B9" unicode="&#xb9;" horiz-adv-x="232" 
d="M6 772h154v-412h-70v355h-84v57z" />
    <glyph glyph-name="ordmasculine" unicode="&#xba;" horiz-adv-x="405" 
d="M202 773q75 0 122 -44t47 -115q0 -70 -47 -114t-122 -44t-122 44t-47 114q0 71 47 115t122 44zM202 717q-44 0 -72.5 -28.5t-28.5 -74.5t28.5 -75t72.5 -29t72 29t28 75t-28 74.5t-72 28.5z" />
    <glyph glyph-name="guillemotright" unicode="&#xbb;" horiz-adv-x="449" 
d="M129 88h-80l107 170l-107 169h80l114 -169zM294 88h-80l107 170l-107 169h80l114 -169z" />
    <glyph glyph-name="onequarter" unicode="&#xbc;" horiz-adv-x="733" 
d="M6 700h154v-412h-70v355h-84v57zM546 700h76l-519 -700h-77zM540 412h67l-143 -258h133v107h66v-107h62v-52h-62v-102h-66v102h-203v50z" />
    <glyph glyph-name="onehalf" unicode="&#xbd;" horiz-adv-x="760" 
d="M6 700h154v-412h-70v355h-84v57zM545 700h76l-519 -700h-77zM588 212q53 53 53 90q0 26 -19 40.5t-53 14.5q-59 0 -117 -52l-29 51q73 59 156 59q61 0 98 -28t37 -76q0 -59 -79 -135l-117 -120h216v-56h-303v49z" />
    <glyph glyph-name="threequarters" unicode="&#xbe;" horiz-adv-x="818" 
d="M631 700h76l-519 -700h-77zM193 527q55 -5 88.5 -34.5t33.5 -77.5q0 -58 -42.5 -94t-113.5 -36q-83 0 -143 43l30 55q46 -44 109 -44q43 0 67 20t24 55q0 33 -24 51t-68 18h-58v39l118 124h-179v52h260v-41l-124 -129zM625 412h67l-143 -258h133v107h66v-107h62v-52h-62
v-102h-66v102h-203v50z" />
    <glyph glyph-name="questiondown" unicode="&#xbf;" horiz-adv-x="432" 
d="M230 422q-23 0 -38.5 16t-15.5 41t15.5 41.5t38.5 16.5t39 -16.5t16 -41.5t-16 -41t-39 -16zM409 23q-3 -88 -57 -137.5t-143 -49.5q-88 0 -141 42.5t-53 121.5q0 44 18 79t44.5 58l52.5 45t44 53t18 70h73q0 -46 -16.5 -80.5t-40.5 -56.5l-47.5 -42.5t-40 -48.5
t-16.5 -64q0 -47 30 -71.5t83 -24.5t84 27.5t33 79.5z" />
    <glyph glyph-name="Agrave" unicode="&#xc0;" horiz-adv-x="726" 
d="M412 772l-79 -10l-124 98l96 42zM620 0l-74 170h-369l-73 -170h-101l311 700h100l310 -700h-104zM215 257h294l-148 340z" />
    <glyph glyph-name="Aacute" unicode="&#xc1;" horiz-adv-x="726" 
d="M514 860l-124 -98l-79 10l107 130zM620 0l-74 170h-369l-73 -170h-101l311 700h100l310 -700h-104zM215 257h294l-148 340z" />
    <glyph glyph-name="Acircumflex" unicode="&#xc2;" horiz-adv-x="726" 
d="M363 834l-61 -67h-93l105 133h98l105 -133h-93zM620 0l-74 170h-369l-73 -170h-101l311 700h100l310 -700h-104zM215 257h294l-148 340z" />
    <glyph glyph-name="Atilde" unicode="&#xc3;" horiz-adv-x="726" 
d="M305 815q-32 0 -32 -49h-65q0 53 19.5 87.5t61.5 34.5q31 0 74 -26t57 -26q32 0 32 48h65q0 -53 -19.5 -87.5t-61.5 -34.5q-31 0 -74 26.5t-57 26.5zM620 0l-74 170h-369l-73 -170h-101l311 700h100l310 -700h-104zM215 257h294l-148 340z" />
    <glyph glyph-name="Adieresis" unicode="&#xc4;" horiz-adv-x="726" 
d="M278 762q-22 0 -37.5 16t-15.5 39q0 24 15 39t38 15q22 0 37 -15t15 -39q0 -23 -15 -39t-37 -16zM450 762q-22 0 -37.5 16t-15.5 39q0 24 15 39t38 15t38 -15t15 -39q0 -23 -15.5 -39t-37.5 -16zM620 0l-74 170h-369l-73 -170h-101l311 700h100l310 -700h-104zM215 257
h294l-148 340z" />
    <glyph glyph-name="Aring" unicode="&#xc5;" horiz-adv-x="726" 
d="M363 750q-43 0 -74.5 31.5t-31.5 74.5t31.5 74.5t74.5 31.5t74.5 -31.5t31.5 -74.5t-31.5 -74.5t-74.5 -31.5zM363 910q-23 0 -39.5 -16t-16.5 -38t16.5 -37.5t39.5 -15.5t40 15.5t17 37.5t-17 38t-40 16zM620 0l-74 170h-369l-73 -170h-101l311 700h100l310 -700h-104z
M215 257h294l-148 340z" />
    <glyph glyph-name="AE" unicode="&#xc6;" horiz-adv-x="1037" 
d="M580 88h402v-88h-498v184h-275l-105 -184h-101l410 700h556v-88h-389v-215h349v-87h-349v-222zM253 260h231v360h-25z" />
    <glyph glyph-name="Ccedilla" unicode="&#xc7;" horiz-adv-x="699" 
d="M411 -52q40 -6 60.5 -27.5t20.5 -50.5q0 -40 -31 -63.5t-79 -23.5q-46 0 -92 21l20 57q32 -13 61 -13q22 0 34.5 9.5t12.5 21.5q0 13 -13.5 21.5t-37.5 8.5h-32l27 86q-139 14 -231.5 115t-92.5 241q0 149 106 252t260 103q73 0 141.5 -27.5t118.5 -77.5l-57 -69
q-86 89 -202 89q-113 0 -191.5 -78.5t-78.5 -190.5t79 -190.5t191 -78.5q115 0 202 84l58 -63q-103 -99 -238 -110z" />
    <glyph glyph-name="Egrave" unicode="&#xc8;" horiz-adv-x="653" 
d="M293 902l107 -130l-79 -10l-124 98zM100 700h486v-87h-390v-216h349v-87h-349v-223h402v-87h-498v700z" />
    <glyph glyph-name="Eacute" unicode="&#xc9;" horiz-adv-x="653" 
d="M406 902l96 -42l-124 -98l-79 10zM100 700h486v-87h-390v-216h349v-87h-349v-223h402v-87h-498v700z" />
    <glyph glyph-name="Ecircumflex" unicode="&#xca;" horiz-adv-x="653" 
d="M351 834l-61 -67h-93l105 133h98l105 -133h-93zM196 87h402v-87h-498v700h486v-87h-390v-216h349v-87h-349v-223z" />
    <glyph glyph-name="Edieresis" unicode="&#xcb;" horiz-adv-x="653" 
d="M266 871q22 0 37 -15t15 -39q0 -23 -15 -39t-37 -16t-37.5 16t-15.5 39q0 24 15 39t38 15zM438 871q23 0 38 -15t15 -39q0 -23 -15.5 -39t-37.5 -16t-37.5 16t-15.5 39q0 24 15 39t38 15zM100 700h486v-87h-390v-216h349v-87h-349v-223h402v-87h-498v700z" />
    <glyph glyph-name="Igrave" unicode="&#xcc;" horiz-adv-x="296" 
d="M90 902l107 -130l-79 -10l-124 98zM100 700h96v-700h-96v700z" />
    <glyph glyph-name="Iacute" unicode="&#xcd;" horiz-adv-x="296" 
d="M203 902l96 -42l-124 -98l-79 10zM100 700h96v-700h-96v700z" />
    <glyph glyph-name="Icircumflex" unicode="&#xce;" horiz-adv-x="296" 
d="M197 900l105 -133h-93l-61 67l-61 -67h-93l105 133h98zM100 0v700h96v-700h-96z" />
    <glyph glyph-name="Idieresis" unicode="&#xcf;" horiz-adv-x="296" 
d="M63 871q22 0 37 -15t15 -39q0 -23 -15 -39t-37 -16t-37.5 16t-15.5 39q0 24 15 39t38 15zM235 871q23 0 38 -15t15 -39q0 -23 -15.5 -39t-37.5 -16t-37.5 16t-15.5 39q0 24 15 39t38 15zM100 700h96v-700h-96v700z" />
    <glyph glyph-name="Eth" unicode="&#xd0;" horiz-adv-x="783" 
d="M384 700q155 0 258 -100t103 -250t-103.5 -250t-259.5 -100h-282v321h-72v58h72v321h284zM387 88q111 0 186 74t75 187t-76.5 188t-188.5 75h-187v-233h217v-58h-217v-233h191z" />
    <glyph glyph-name="Ntilde" unicode="&#xd1;" horiz-adv-x="794" 
d="M350 815q-32 0 -32 -49h-65q0 53 19.5 87.5t61.5 34.5q31 0 74 -26t57 -26q32 0 32 48h65q0 -53 -19.5 -87.5t-61.5 -34.5q-31 0 -74 26.5t-57 26.5zM598 700h95v-700h-97l-400 542v-542h-96v700h97l401 -543v543z" />
    <glyph glyph-name="Ograve" unicode="&#xd2;" horiz-adv-x="812" 
d="M348 902l107 -130l-79 -10l-124 98zM406 706q155 0 261.5 -103t106.5 -252q0 -150 -107 -254t-261 -104t-261 104t-107 254t106.5 252.5t261.5 102.5zM407 620q-112 0 -192 -78.5t-80 -190.5t80.5 -191.5t191.5 -79.5t190 79.5t79 191.5t-79 190.5t-190 78.5z" />
    <glyph glyph-name="Oacute" unicode="&#xd3;" horiz-adv-x="812" 
d="M461 902l96 -42l-124 -98l-79 10zM406 706q155 0 261.5 -103t106.5 -252q0 -150 -107 -254t-261 -104t-261 104t-107 254t106.5 252.5t261.5 102.5zM407 620q-112 0 -192 -78.5t-80 -190.5t80.5 -191.5t191.5 -79.5t190 79.5t79 191.5t-79 190.5t-190 78.5z" />
    <glyph glyph-name="Ocircumflex" unicode="&#xd4;" horiz-adv-x="812" 
d="M406 834l-61 -67h-93l105 133h98l105 -133h-93zM406 706q155 0 261.5 -103t106.5 -252q0 -150 -107 -254t-261 -104t-261 104t-107 254t106.5 252.5t261.5 102.5zM407 80q111 0 190 79.5t79 191.5t-79 190.5t-190 78.5q-112 0 -192 -78.5t-80 -190.5t80.5 -191.5
t191.5 -79.5z" />
    <glyph glyph-name="Otilde" unicode="&#xd5;" horiz-adv-x="812" 
d="M560 884q0 -53 -19.5 -87.5t-61.5 -34.5q-31 0 -74 26.5t-57 26.5q-32 0 -32 -49h-65q0 53 19.5 87.5t61.5 34.5q31 0 74 -26t57 -26q32 0 32 48h65zM406 706q155 0 261.5 -103t106.5 -252q0 -150 -107 -254t-261 -104t-261 104t-107 254t106.5 252.5t261.5 102.5z
M407 620q-112 0 -192 -78.5t-80 -190.5t80.5 -191.5t191.5 -79.5t190 79.5t79 191.5t-79 190.5t-190 78.5z" />
    <glyph glyph-name="Odieresis" unicode="&#xd6;" horiz-adv-x="812" 
d="M321 871q22 0 37 -15t15 -39q0 -23 -15 -39t-37 -16t-37.5 16t-15.5 39q0 24 15 39t38 15zM493 871q23 0 38 -15t15 -39q0 -23 -15.5 -39t-37.5 -16t-37.5 16t-15.5 39q0 24 15 39t38 15zM406 706q155 0 261.5 -103t106.5 -252q0 -150 -107 -254t-261 -104t-261 104
t-107 254t106.5 252.5t261.5 102.5zM407 620q-112 0 -192 -78.5t-80 -190.5t80.5 -191.5t191.5 -79.5t190 79.5t79 191.5t-79 190.5t-190 78.5z" />
    <glyph glyph-name="multiply" unicode="&#xd7;" horiz-adv-x="494" 
d="M418 449l-125 -125l125 -126l-44 -47l-127 127l-126 -127l-45 47l126 126l-126 125l45 47l126 -127l127 127z" />
    <glyph glyph-name="Oslash" unicode="&#xd8;" horiz-adv-x="812" 
d="M636 627q64 -49 101 -121t37 -156q0 -149 -107 -251.5t-261 -102.5q-93 0 -173 41l-63 -92h-82l87 128q-64 49 -100.5 121.5t-36.5 155.5q0 149 106.5 250.5t261.5 101.5q92 0 172 -39l63 92h82zM135 350q0 -120 93 -200l299 438q-56 28 -120 28q-112 0 -192 -77.5
t-80 -188.5zM407 83q111 0 190 78t79 189q0 122 -92 201l-300 -439q56 -29 123 -29z" />
    <glyph glyph-name="Ugrave" unicode="&#xd9;" horiz-adv-x="762" 
d="M324 902l107 -130l-79 -10l-124 98zM181 286q0 -97 53.5 -151.5t147.5 -54.5q93 0 146 54.5t53 151.5v414h96v-414q0 -137 -78.5 -215t-216.5 -78q-139 0 -218 78t-79 215v414h96v-414z" />
    <glyph glyph-name="Uacute" unicode="&#xda;" horiz-adv-x="762" 
d="M437 902l96 -42l-124 -98l-79 10zM181 286q0 -97 53.5 -151.5t147.5 -54.5q93 0 146 54.5t53 151.5v414h96v-414q0 -137 -78.5 -215t-216.5 -78q-139 0 -218 78t-79 215v414h96v-414z" />
    <glyph glyph-name="Ucircumflex" unicode="&#xdb;" horiz-adv-x="762" 
d="M382 834l-61 -67h-93l105 133h98l105 -133h-93zM581 700h96v-414q0 -137 -78.5 -215t-216.5 -78q-139 0 -218 78t-79 215v414h96v-414q0 -97 53.5 -151.5t147.5 -54.5q93 0 146 54.5t53 151.5v414z" />
    <glyph glyph-name="Udieresis" unicode="&#xdc;" horiz-adv-x="762" 
d="M297 871q22 0 37 -15t15 -39q0 -23 -15 -39t-37 -16t-37.5 16t-15.5 39q0 24 15 39t38 15zM469 871q23 0 38 -15t15 -39q0 -23 -15.5 -39t-37.5 -16t-37.5 16t-15.5 39q0 24 15 39t38 15zM181 286q0 -97 53.5 -151.5t147.5 -54.5q93 0 146 54.5t53 151.5v414h96v-414
q0 -137 -78.5 -215t-216.5 -78q-139 0 -218 78t-79 215v414h96v-414z" />
    <glyph glyph-name="Yacute" unicode="&#xdd;" horiz-adv-x="630" 
d="M466 860l-124 -98l-79 10l107 130zM627 700l-262 -460v-240h-96v236l-266 464h98l216 -357l212 357h98z" />
    <glyph glyph-name="Thorn" unicode="&#xde;" horiz-adv-x="674" 
d="M352 598q144 0 220.5 -59.5t76.5 -171.5q0 -116 -76.5 -178t-220.5 -62h-156v-127h-96v700h96v-102h156zM348 207q202 0 202 157q0 154 -202 154h-152v-311h152z" />
    <glyph glyph-name="germandbls" unicode="&#xdf;" horiz-adv-x="651" 
d="M85 489q0 118 66.5 187.5t181.5 69.5q100 0 162.5 -52.5t62.5 -138.5q0 -61 -33.5 -108.5t-89.5 -66.5q74 -13 118.5 -57.5t44.5 -114.5q0 -92 -70.5 -150t-187.5 -58h-52v73h59q71 0 115 37t44 95q0 60 -49 94.5t-131 34.5h-12v73q70 0 112 36.5t42 98.5q0 58 -37.5 93
t-99.5 35q-70 0 -111.5 -47.5t-41.5 -127.5v-495h-93v489z" />
    <glyph glyph-name="agrave" unicode="&#xe0;" horiz-adv-x="581" 
d="M336 622l-79 -10l-124 98l96 42zM506 0h-92v74q-59 -78 -185 -78q-83 0 -133 46t-50 116q0 71 52.5 112.5t146.5 42.5h168v25q0 56 -34.5 86.5t-100.5 30.5q-80 0 -163 -57l-39 64q57 37 105.5 53.5t115.5 16.5q99 0 153 -48.5t55 -135.5zM248 73q65 0 110.5 31.5
t54.5 83.5v53h-155q-124 0 -124 -79q0 -41 31 -65t83 -24z" />
    <glyph glyph-name="aacute" unicode="&#xe1;" horiz-adv-x="581" 
d="M438 710l-124 -98l-79 10l107 130zM506 0h-92v74q-59 -78 -185 -78q-83 0 -133 46t-50 116q0 71 52.5 112.5t146.5 42.5h168v25q0 56 -34.5 86.5t-100.5 30.5q-80 0 -163 -57l-39 64q57 37 105.5 53.5t115.5 16.5q99 0 153 -48.5t55 -135.5zM248 73q65 0 110.5 31.5
t54.5 83.5v53h-155q-124 0 -124 -79q0 -41 31 -65t83 -24z" />
    <glyph glyph-name="acircumflex" unicode="&#xe2;" horiz-adv-x="581" 
d="M287 684l-61 -67h-93l105 133h98l105 -133h-93zM506 0h-92v74q-59 -78 -185 -78q-83 0 -133 46t-50 116q0 71 52.5 112.5t146.5 42.5h168v25q0 56 -34.5 86.5t-100.5 30.5q-80 0 -163 -57l-39 64q57 37 105.5 53.5t115.5 16.5q99 0 153 -48.5t55 -135.5zM248 73
q65 0 110.5 31.5t54.5 83.5v53h-155q-124 0 -124 -79q0 -41 31 -65t83 -24z" />
    <glyph glyph-name="atilde" unicode="&#xe3;" horiz-adv-x="581" 
d="M229 661q-32 0 -32 -49h-65q0 53 19.5 87.5t61.5 34.5q31 0 74 -26t57 -26q32 0 32 48h65q0 -53 -19.5 -87.5t-61.5 -34.5q-31 0 -74 26.5t-57 26.5zM506 0h-92v74q-59 -78 -185 -78q-83 0 -133 46t-50 116q0 71 52.5 112.5t146.5 42.5h168v25q0 56 -34.5 86.5
t-100.5 30.5q-80 0 -163 -57l-39 64q57 37 105.5 53.5t115.5 16.5q99 0 153 -48.5t55 -135.5zM248 73q65 0 110.5 31.5t54.5 83.5v53h-155q-124 0 -124 -79q0 -41 31 -65t83 -24z" />
    <glyph glyph-name="adieresis" unicode="&#xe4;" horiz-adv-x="581" 
d="M201 625q-23 0 -38 15.5t-15 38.5q0 24 15 39.5t38 15.5t38 -15.5t15 -39.5q0 -23 -15 -38.5t-38 -15.5zM373 625q-23 0 -38 15.5t-15 38.5q0 24 15 39.5t38 15.5t38 -15.5t15 -39.5q0 -23 -15 -38.5t-38 -15.5zM506 0h-92v74q-59 -78 -185 -78q-83 0 -133 46t-50 116
q0 71 52.5 112.5t146.5 42.5h168v25q0 56 -34.5 86.5t-100.5 30.5q-80 0 -163 -57l-39 64q57 37 105.5 53.5t115.5 16.5q99 0 153 -48.5t55 -135.5zM248 73q65 0 110.5 31.5t54.5 83.5v53h-155q-124 0 -124 -79q0 -41 31 -65t83 -24z" />
    <glyph glyph-name="aring" unicode="&#xe5;" horiz-adv-x="581" 
d="M287 579q-43 0 -74.5 31.5t-31.5 74.5t31.5 74.5t74.5 31.5t74.5 -31.5t31.5 -74.5t-31.5 -74.5t-74.5 -31.5zM287 739q-23 0 -39.5 -16t-16.5 -38t16.5 -37.5t39.5 -15.5t40 15.5t17 37.5t-17 38t-40 16zM506 0h-92v74q-59 -78 -185 -78q-83 0 -133 46t-50 116
q0 71 52.5 112.5t146.5 42.5h168v25q0 56 -34.5 86.5t-100.5 30.5q-80 0 -163 -57l-39 64q57 37 105.5 53.5t115.5 16.5q99 0 153 -48.5t55 -135.5zM248 73q65 0 110.5 31.5t54.5 83.5v53h-155q-124 0 -124 -79q0 -41 31 -65t83 -24z" />
    <glyph glyph-name="ae" unicode="&#xe6;" horiz-adv-x="978" 
d="M510 228q0 -62 54.5 -108.5t126.5 -46.5q95 0 158 65l51 -53q-82 -88 -216 -88q-78 0 -138 35t-90 98q-65 -134 -228 -134q-82 0 -132 43.5t-50 114.5q0 69 52.5 107.5t147.5 38.5h169v38q-2 117 -137 117q-84 0 -177 -57l-25 67q113 67 221 67q141 0 186 -93
q68 93 199 93q119 0 190.5 -79t68.5 -208h-431v-17zM847 297q-3 74 -48 119.5t-116 45.5q-70 0 -118 -45.5t-55 -119.5h337zM263 248q-62 0 -95.5 -22.5t-33.5 -63.5q0 -44 31.5 -71.5t82.5 -27.5q118 0 168 109l-1 76h-152z" />
    <glyph glyph-name="ccedilla" unicode="&#xe7;" horiz-adv-x="562" 
d="M520 90q-66 -83 -190 -92l-17 -50q40 -6 60.5 -27.5t20.5 -50.5q0 -40 -31 -63.5t-79 -23.5q-46 0 -92 21l20 57q32 -13 61 -13q22 0 34.5 9.5t12.5 21.5q0 13 -13.5 21.5t-37.5 8.5h-32l28 90q-101 13 -163.5 85t-62.5 180q0 118 74 193t190 75q135 0 210 -80l-51 -64
q-64 62 -155 61q-77 0 -126 -51.5t-49 -133.5q0 -83 49 -134.5t126 -51.5q105 0 160 66z" />
    <glyph glyph-name="egrave" unicode="&#xe8;" horiz-adv-x="588" 
d="M347 622l-79 -10l-124 98l96 42zM303 532q130 0 193 -81t55 -223h-418q11 -71 59.5 -113t119.5 -42q96 0 158 65l51 -53q-80 -88 -216 -88q-118 0 -192 74t-74 193q0 118 73.5 192.5t190.5 75.5zM132 300h336q-4 72 -48 113.5t-116 41.5q-70 0 -116.5 -42t-55.5 -113z
" />
    <glyph glyph-name="eacute" unicode="&#xe9;" horiz-adv-x="588" 
d="M449 710l-124 -98l-79 10l107 130zM303 532q130 0 193 -81t55 -223h-418q11 -71 59.5 -113t119.5 -42q96 0 158 65l51 -53q-80 -88 -216 -88q-118 0 -192 74t-74 193q0 118 73.5 192.5t190.5 75.5zM132 300h336q-4 72 -48 113.5t-116 41.5q-70 0 -116.5 -42t-55.5 -113z
" />
    <glyph glyph-name="ecircumflex" unicode="&#xea;" horiz-adv-x="588" 
d="M298 684l-61 -67h-93l105 133h98l105 -133h-93zM303 532q130 0 193 -81t55 -223h-418q11 -71 59.5 -113t119.5 -42q96 0 158 65l51 -53q-80 -88 -216 -88q-118 0 -192 74t-74 193q0 118 73.5 192.5t190.5 75.5zM132 300h336q-4 72 -48 113.5t-116 41.5q-70 0 -116.5 -42
t-55.5 -113z" />
    <glyph glyph-name="edieresis" unicode="&#xeb;" horiz-adv-x="588" 
d="M212 625q-23 0 -38 15.5t-15 38.5q0 24 15 39.5t38 15.5t38 -15.5t15 -39.5q0 -23 -15 -38.5t-38 -15.5zM384 625q-23 0 -38 15.5t-15 38.5q0 24 15 39.5t38 15.5t38 -15.5t15 -39.5q0 -23 -15 -38.5t-38 -15.5zM303 532q130 0 193 -81t55 -223h-418q11 -71 59.5 -113
t119.5 -42q96 0 158 65l51 -53q-80 -88 -216 -88q-118 0 -192 74t-74 193q0 118 73.5 192.5t190.5 75.5zM132 300h336q-4 72 -48 113.5t-116 41.5q-70 0 -116.5 -42t-55.5 -113z" />
    <glyph glyph-name="igrave" unicode="&#xec;" horiz-adv-x="274" 
d="M79 752l107 -130l-79 -10l-124 98zM91 529h93v-529h-93v529z" />
    <glyph glyph-name="iacute" unicode="&#xed;" horiz-adv-x="274" 
d="M192 752l96 -42l-124 -98l-79 10zM91 529h93v-529h-93v529z" />
    <glyph glyph-name="icircumflex" unicode="&#xee;" horiz-adv-x="274" 
d="M186 750l105 -133h-93l-61 67l-61 -67h-93l105 133h98zM91 0v529h93v-529h-93z" />
    <glyph glyph-name="idieresis" unicode="&#xef;" horiz-adv-x="274" 
d="M64 734q23 0 37.5 -15.5t14.5 -39.5q0 -23 -15 -39t-37 -16q-23 0 -38.5 16t-15.5 39q0 24 15.5 39.5t38.5 15.5zM211 734q23 0 37.5 -15.5t14.5 -39.5q0 -23 -15 -39t-37 -16t-37.5 16t-15.5 39q0 24 15 39.5t38 15.5zM91 529h93v-529h-93v529z" />
    <glyph glyph-name="eth" unicode="&#xf0;" horiz-adv-x="585" 
d="M387 609q76 -76 118 -167.5t42 -185.5q0 -118 -72 -189t-193 -71q-110 0 -175.5 62t-65.5 166q0 99 62 158.5t165 59.5q60 0 110.5 -24.5t74.5 -66.5q-23 116 -139 225l-176 -82l-24 52l152 71q-65 51 -136 84l62 45q78 -37 149 -95l136 63l24 -52zM288 79
q73 0 116.5 39.5t43.5 105.5q0 67 -43.5 108t-115.5 41t-115 -39t-43 -105q0 -68 43 -109t114 -41z" />
    <glyph glyph-name="ntilde" unicode="&#xf1;" horiz-adv-x="659" 
d="M287 661q-32 0 -32 -49h-65q0 53 19.5 87.5t61.5 34.5q31 0 74 -26t57 -26q32 0 32 48h65q0 -53 -19.5 -87.5t-61.5 -34.5q-31 0 -74 26.5t-57 26.5zM385 532q93 0 146 -54.5t53 -150.5v-327h-93v302q0 67 -37.5 104.5t-103.5 37.5q-71 -1 -115.5 -45.5t-50.5 -115.5
v-283h-93v529h93v-112q53 113 201 115z" />
    <glyph glyph-name="ograve" unicode="&#xf2;" horiz-adv-x="621" 
d="M253 752l107 -130l-79 -10l-124 98zM311 532q119 0 195 -74.5t76 -192.5q0 -119 -75.5 -193.5t-195.5 -74.5q-121 0 -196.5 74.5t-75.5 193.5t75.5 193t196.5 74zM311 451q-79 0 -128.5 -52t-49.5 -135q0 -84 49.5 -136t128.5 -52q78 0 127.5 52t49.5 136q0 82 -50 134.5
t-127 52.5z" />
    <glyph glyph-name="oacute" unicode="&#xf3;" horiz-adv-x="621" 
d="M366 752l96 -42l-124 -98l-79 10zM311 532q119 0 195 -74.5t76 -192.5q0 -119 -75.5 -193.5t-195.5 -74.5q-121 0 -196.5 74.5t-75.5 193.5t75.5 193t196.5 74zM311 451q-79 0 -128.5 -52t-49.5 -135q0 -84 49.5 -136t128.5 -52q78 0 127.5 52t49.5 136q0 82 -50 134.5
t-127 52.5z" />
    <glyph glyph-name="ocircumflex" unicode="&#xf4;" horiz-adv-x="621" 
d="M311 684l-61 -67h-93l105 133h98l105 -133h-93zM311 532q119 0 195 -74.5t76 -192.5q0 -119 -75.5 -193.5t-195.5 -74.5q-121 0 -196.5 74.5t-75.5 193.5t75.5 193t196.5 74zM311 76q78 0 127.5 52t49.5 136q0 82 -50 134.5t-127 52.5q-79 0 -128.5 -52t-49.5 -135
q0 -84 49.5 -136t128.5 -52z" />
    <glyph glyph-name="otilde" unicode="&#xf5;" horiz-adv-x="621" 
d="M465 730q0 -53 -19.5 -87.5t-61.5 -34.5q-31 0 -74 26.5t-57 26.5q-32 0 -32 -49h-65q0 53 19.5 87.5t61.5 34.5q31 0 74 -26t57 -26q32 0 32 48h65zM311 532q119 0 195 -74.5t76 -192.5q0 -119 -75.5 -193.5t-195.5 -74.5q-121 0 -196.5 74.5t-75.5 193.5t75.5 193
t196.5 74zM311 451q-79 0 -128.5 -52t-49.5 -135q0 -84 49.5 -136t128.5 -52q78 0 127.5 52t49.5 136q0 82 -50 134.5t-127 52.5z" />
    <glyph glyph-name="odieresis" unicode="&#xf6;" horiz-adv-x="621" 
d="M225 734q23 0 38 -15.5t15 -39.5q0 -23 -15 -38.5t-38 -15.5t-38 15.5t-15 38.5q0 24 15 39.5t38 15.5zM397 734q23 0 38 -15.5t15 -39.5q0 -23 -15 -38.5t-38 -15.5t-38 15.5t-15 38.5q0 24 15 39.5t38 15.5zM311 532q119 0 195 -74.5t76 -192.5q0 -119 -75.5 -193.5
t-195.5 -74.5q-121 0 -196.5 74.5t-75.5 193.5t75.5 193t196.5 74zM311 451q-79 0 -128.5 -52t-49.5 -135q0 -84 49.5 -136t128.5 -52q78 0 127.5 52t49.5 136q0 82 -50 134.5t-127 52.5z" />
    <glyph glyph-name="divide" unicode="&#xf7;" horiz-adv-x="494" 
d="M248 561q23 0 38 -15.5t15 -39.5q0 -23 -15.5 -39t-37.5 -16q-23 0 -38.5 16t-15.5 39q0 24 15.5 39.5t38.5 15.5zM36 357h422v-67h-422v67zM248 206q23 0 38 -15.5t15 -39.5q0 -23 -15.5 -39t-37.5 -16q-23 0 -38.5 16t-15.5 39q0 24 15.5 39.5t38.5 15.5z" />
    <glyph glyph-name="oslash" unicode="&#xf8;" horiz-adv-x="621" 
d="M488 474q94 -75 94 -209q0 -119 -75.5 -193.5t-195.5 -74.5q-71 0 -130 28l-84 -123h-69l105 153q-94 75 -94 210q0 119 75.5 193t196.5 74q71 0 130 -28l84 123h68zM128 264q0 -86 51 -142l217 317q-40 19 -85 19q-81 0 -132 -54t-51 -140zM311 68q80 0 131.5 54.5
t51.5 141.5q0 88 -53 141l-217 -317q40 -20 87 -20z" />
    <glyph glyph-name="ugrave" unicode="&#xf9;" horiz-adv-x="649" 
d="M374 622l-79 -10l-124 98l96 42zM465 529h94v-529h-94v112q-52 -113 -196 -115q-92 0 -144 54.5t-52 150.5v327h94v-302q0 -67 36.5 -104.5t100.5 -37.5q74 1 117.5 52.5t43.5 131.5v260z" />
    <glyph glyph-name="uacute" unicode="&#xfa;" horiz-adv-x="649" 
d="M476 710l-124 -98l-79 10l107 130zM465 529h94v-529h-94v112q-52 -113 -196 -115q-92 0 -144 54.5t-52 150.5v327h94v-302q0 -67 36.5 -104.5t100.5 -37.5q74 1 117.5 52.5t43.5 131.5v260z" />
    <glyph glyph-name="ucircumflex" unicode="&#xfb;" horiz-adv-x="649" 
d="M325 684l-61 -67h-93l105 133h98l105 -133h-93zM465 529h94v-529h-94v112q-52 -113 -196 -115q-92 0 -144 54.5t-52 150.5v327h94v-302q0 -67 36.5 -104.5t100.5 -37.5q74 1 117.5 52.5t43.5 131.5v260z" />
    <glyph glyph-name="udieresis" unicode="&#xfc;" horiz-adv-x="649" 
d="M239 625q-23 0 -38 15.5t-15 38.5q0 24 15 39.5t38 15.5t38 -15.5t15 -39.5q0 -23 -15 -38.5t-38 -15.5zM411 625q-23 0 -38 15.5t-15 38.5q0 24 15 39.5t38 15.5t38 -15.5t15 -39.5q0 -23 -15 -38.5t-38 -15.5zM465 529h94v-529h-94v112q-52 -113 -196 -115
q-92 0 -144 54.5t-52 150.5v327h94v-302q0 -67 36.5 -104.5t100.5 -37.5q74 1 117.5 52.5t43.5 131.5v260z" />
    <glyph glyph-name="yacute" unicode="&#xfd;" horiz-adv-x="514" 
d="M315 752l96 -42l-124 -98l-79 10zM276 -75q-50 -123 -164 -123q-66 0 -116 41l40 73q35 -25 71 -25q60 0 90 68l20 47l-219 523h98l168 -424l159 424h95z" />
    <glyph glyph-name="thorn" unicode="&#xfe;" horiz-adv-x="678" 
d="M189 427q61 105 196 105q113 0 183.5 -75t70.5 -194q0 -118 -70 -192t-182 -74q-137 0 -198 105v-296h-93v936h93v-315zM367 453q-78 0 -128 -53t-50 -134q0 -83 50 -135.5t128 -52.5q77 0 127 53t50 135q0 81 -50 134t-127 53z" />
    <glyph glyph-name="ydieresis" unicode="&#xff;" horiz-adv-x="514" 
d="M174 734q23 0 38 -15.5t15 -39.5q0 -23 -15 -38.5t-38 -15.5t-38 15.5t-15 38.5q0 24 15 39.5t38 15.5zM346 734q23 0 38 -15.5t15 -39.5q0 -23 -15 -38.5t-38 -15.5t-38 15.5t-15 38.5q0 24 15 39.5t38 15.5zM276 -75q-50 -123 -164 -123q-66 0 -116 41l40 73
q35 -25 71 -25q60 0 90 68l20 47l-219 523h98l168 -424l159 424h95z" />
    <glyph glyph-name="Amacron" unicode="&#x100;" horiz-adv-x="726" 
d="M517 833v-62h-308v62h308zM620 0l-74 170h-369l-73 -170h-101l311 700h100l310 -700h-104zM215 257h294l-148 340z" />
    <glyph glyph-name="amacron" unicode="&#x101;" horiz-adv-x="581" 
d="M430 710v-62h-287v62h287zM506 0h-92v74q-59 -78 -185 -78q-83 0 -133 46t-50 116q0 71 52.5 112.5t146.5 42.5h168v25q0 56 -34.5 86.5t-100.5 30.5q-80 0 -163 -57l-39 64q57 37 105.5 53.5t115.5 16.5q99 0 153 -48.5t55 -135.5zM248 73q65 0 110.5 31.5t54.5 83.5v53
h-155q-124 0 -124 -79q0 -41 31 -65t83 -24z" />
    <glyph glyph-name="Abreve" unicode="&#x102;" horiz-adv-x="726" 
d="M363 762q-57 0 -94 37t-39 97h65q2 -30 21 -50t47 -20t47 20t21 50h65q-2 -60 -39 -97t-94 -37zM620 0l-74 170h-369l-73 -170h-101l311 700h100l310 -700h-104zM215 257h294l-148 340z" />
    <glyph glyph-name="abreve" unicode="&#x103;" horiz-adv-x="581" 
d="M287 610q-57 0 -94 37t-39 97h65q2 -30 21 -50t47 -20t47 20t21 50h65q-2 -60 -39 -97t-94 -37zM506 0h-92v74q-59 -78 -185 -78q-83 0 -133 46t-50 116q0 71 52.5 112.5t146.5 42.5h168v25q0 56 -34.5 86.5t-100.5 30.5q-80 0 -163 -57l-39 64q57 37 105.5 53.5
t115.5 16.5q99 0 153 -48.5t55 -135.5zM248 73q65 0 110.5 31.5t54.5 83.5v53h-155q-124 0 -124 -79q0 -41 31 -65t83 -24z" />
    <glyph glyph-name="Aogonek" unicode="&#x104;" horiz-adv-x="726" 
d="M723 0q-51 -37 -72.5 -62.5t-21.5 -49.5q0 -33 31 -33q20 0 39 10l23 -62q-38 -19 -81 -19q-45 0 -72 22.5t-27 64.5q0 69 77 131l-73 168h-369l-73 -170h-101l311 700h100l310 -700h-1zM215 257h294l-148 340z" />
    <glyph glyph-name="aogonek" unicode="&#x105;" horiz-adv-x="581" 
d="M443 -145q20 0 39 10l23 -62q-38 -19 -81 -19q-45 0 -72 22.5t-27 64.5q0 75 89 140v63q-59 -78 -185 -78q-83 0 -133 46t-50 116q0 71 52.5 112.5t146.5 42.5h168v25q0 56 -34.5 86.5t-100.5 30.5q-80 0 -163 -57l-39 64q57 37 105.5 53.5t115.5 16.5q99 0 153 -48.5
t55 -135.5l1 -348q-51 -37 -72.5 -62.5t-21.5 -49.5q0 -33 31 -33zM248 73q65 0 110.5 31.5t54.5 83.5v53h-155q-124 0 -124 -79q0 -41 31 -65t83 -24z" />
    <glyph glyph-name="Cacute" unicode="&#x106;" horiz-adv-x="699" 
d="M474 902l96 -42l-124 -98l-79 10zM607 532q-86 89 -202 89q-113 0 -191.5 -78.5t-78.5 -190.5t79 -190.5t191 -78.5q115 0 202 84l58 -63q-53 -52 -123 -81.5t-142 -29.5q-152 0 -257 104t-105 254q0 149 106 252t260 103q73 0 141.5 -27.5t118.5 -77.5z" />
    <glyph glyph-name="cacute" unicode="&#x107;" horiz-adv-x="562" 
d="M353 752l96 -42l-124 -98l-79 10zM462 388q-64 62 -155 61q-77 0 -126 -51.5t-49 -133.5q0 -83 49 -134.5t126 -51.5q105 0 160 66l53 -54q-74 -93 -217 -93q-116 0 -190 74.5t-74 192.5t74 193t190 75q135 0 210 -80z" />
    <glyph glyph-name="Ccircumflex" unicode="&#x108;" horiz-adv-x="699" 
d="M419 834l-61 -67h-93l105 133h98l105 -133h-93zM607 167l58 -63q-53 -52 -123 -81.5t-142 -29.5q-152 0 -257 104t-105 254q0 149 106 252t260 103q73 0 141.5 -27.5t118.5 -77.5l-57 -69q-86 89 -202 89q-113 0 -191.5 -78.5t-78.5 -190.5t79 -190.5t191 -78.5
q115 0 202 84z" />
    <glyph glyph-name="ccircumflex" unicode="&#x109;" horiz-adv-x="562" 
d="M298 684l-61 -67h-93l105 133h98l105 -133h-93zM467 144l53 -54q-74 -93 -217 -93q-116 0 -190 74.5t-74 192.5t74 193t190 75q135 0 210 -80l-51 -64q-64 62 -155 61q-77 0 -126 -51.5t-49 -133.5q0 -83 49 -134.5t126 -51.5q105 0 160 66z" />
    <glyph glyph-name="Cdotaccent" unicode="&#x10a;" horiz-adv-x="699" 
d="M419 882q24 0 41 -17t17 -43q0 -25 -17 -42.5t-41 -17.5q-25 0 -41.5 17t-16.5 43t16.5 43t41.5 17zM607 532q-86 89 -202 89q-113 0 -191.5 -78.5t-78.5 -190.5t79 -190.5t191 -78.5q115 0 202 84l58 -63q-53 -52 -123 -81.5t-142 -29.5q-152 0 -257 104t-105 254
q0 149 106 252t260 103q73 0 141.5 -27.5t118.5 -77.5z" />
    <glyph glyph-name="cdotaccent" unicode="&#x10b;" horiz-adv-x="562" 
d="M298 740q25 0 41.5 -17t16.5 -43t-16.5 -43t-41.5 -17t-41.5 17t-16.5 43t16.5 43t41.5 17zM462 388q-64 62 -155 61q-77 0 -126 -51.5t-49 -133.5q0 -83 49 -134.5t126 -51.5q105 0 160 66l53 -54q-74 -93 -217 -93q-116 0 -190 74.5t-74 192.5t74 193t190 75
q135 0 210 -80z" />
    <glyph glyph-name="Ccaron" unicode="&#x10c;" horiz-adv-x="699" 
d="M445 766h-98l-105 133h93l61 -67l61 67h93zM607 167l58 -63q-53 -52 -123 -81.5t-142 -29.5q-152 0 -257 104t-105 254q0 149 106 252t260 103q73 0 141.5 -27.5t118.5 -77.5l-57 -69q-86 89 -202 89q-113 0 -191.5 -78.5t-78.5 -190.5t79 -190.5t191 -78.5q115 0 202 84
z" />
    <glyph glyph-name="ccaron" unicode="&#x10d;" horiz-adv-x="562" 
d="M346 616h-98l-105 133h93l61 -67l61 67h93zM467 144l53 -54q-74 -93 -217 -93q-116 0 -190 74.5t-74 192.5t74 193t190 75q135 0 210 -80l-51 -64q-64 62 -155 61q-77 0 -126 -51.5t-49 -133.5q0 -83 49 -134.5t126 -51.5q105 0 160 66z" />
    <glyph glyph-name="Dcaron" unicode="&#x10e;" horiz-adv-x="783" 
d="M396 766h-98l-105 133h93l61 -67l61 67h93zM385 700q155 0 258 -99.5t103 -250.5q0 -150 -104 -250t-260 -100h-282v700h285zM387 87q111 0 186 74.5t75 187.5t-76.5 188.5t-188.5 75.5h-187v-526h191z" />
    <glyph glyph-name="dcaron" unicode="&#x10f;" horiz-adv-x="744" 
d="M491 424v318h93v-742h-93v105q-61 -110 -198 -110q-113 0 -183.5 75.5t-70.5 195.5q0 118 70.5 192.5t182.5 74.5q138 0 199 -109zM665 742h88l-24 -197h-64v197zM312 75q79 0 129 52.5t50 135.5t-50 136t-129 53t-129 -53t-50 -136t50 -135.5t129 -52.5z" />
    <glyph glyph-name="Dcroat" unicode="&#x110;" horiz-adv-x="783" 
d="M384 700q155 0 258 -100t103 -250t-103.5 -250t-259.5 -100h-282v321h-72v58h72v321h284zM387 88q111 0 186 74t75 187t-76.5 188t-188.5 75h-187v-233h217v-58h-217v-233h191z" />
    <glyph glyph-name="dcroat" unicode="&#x111;" horiz-adv-x="679" 
d="M657 653v-58h-73v-595h-93v109q-31 -54 -83 -84t-117 -30q-111 0 -181.5 73.5t-70.5 188.5t70 187.5t180 72.5q65 0 118 -30.5t84 -83.5v192h-215v58h215v89h93v-89h73zM312 75q78 0 128.5 50.5t50.5 129.5t-50.5 130t-128.5 51q-79 0 -129 -51t-50 -130t50 -129.5
t129 -50.5z" />
    <glyph glyph-name="Emacron" unicode="&#x112;" horiz-adv-x="653" 
d="M197 833h308v-62h-308v62zM100 700h486v-87h-390v-216h349v-87h-349v-223h402v-87h-498v700z" />
    <glyph glyph-name="emacron" unicode="&#x113;" horiz-adv-x="588" 
d="M441 710v-62h-287v62h287zM303 532q130 0 193 -81t55 -223h-418q11 -71 59.5 -113t119.5 -42q96 0 158 65l51 -53q-80 -88 -216 -88q-118 0 -192 74t-74 193q0 118 73.5 192.5t190.5 75.5zM132 300h336q-4 72 -48 113.5t-116 41.5q-70 0 -116.5 -42t-55.5 -113z" />
    <glyph glyph-name="Ebreve" unicode="&#x114;" horiz-adv-x="653" 
d="M283 896q2 -30 21 -50t47 -20t47 20t21 50h65q-2 -60 -39 -97t-94 -37t-94 37t-39 97h65zM100 700h486v-87h-390v-216h349v-87h-349v-223h402v-87h-498v700z" />
    <glyph glyph-name="ebreve" unicode="&#x115;" horiz-adv-x="588" 
d="M298 610q-56 0 -93.5 37t-39.5 97h65q2 -30 21 -50t47 -20t47 20t21 50h65q-2 -60 -39.5 -97t-93.5 -37zM303 532q130 0 193 -81t55 -223h-418q11 -71 59.5 -113t119.5 -42q96 0 158 65l51 -53q-80 -88 -216 -88q-118 0 -192 74t-74 193q0 118 73.5 192.5t190.5 75.5z
M132 300h336q-4 72 -48 113.5t-116 41.5q-70 0 -116.5 -42t-55.5 -113z" />
    <glyph glyph-name="Edotaccent" unicode="&#x116;" horiz-adv-x="653" 
d="M351 882q24 0 41 -17t17 -43q0 -25 -17 -42.5t-41 -17.5q-25 0 -41.5 17t-16.5 43t16.5 43t41.5 17zM100 700h486v-87h-390v-216h349v-87h-349v-223h402v-87h-498v700z" />
    <glyph glyph-name="edotaccent" unicode="&#x117;" horiz-adv-x="588" 
d="M298 620q-25 0 -41.5 17t-16.5 43t16.5 43t41.5 17t41.5 -17t16.5 -43t-16.5 -43t-41.5 -17zM303 532q130 0 193 -81t55 -223h-418q11 -71 59.5 -113t119.5 -42q96 0 158 65l51 -53q-80 -88 -216 -88q-118 0 -192 74t-74 193q0 118 73.5 192.5t190.5 75.5zM132 300h336
q-4 72 -48 113.5t-116 41.5q-70 0 -116.5 -42t-55.5 -113z" />
    <glyph glyph-name="Eogonek" unicode="&#x118;" horiz-adv-x="653" 
d="M598 0q-51 -37 -72.5 -62.5t-21.5 -49.5q0 -33 31 -33q20 0 39 10l23 -62q-38 -19 -81 -19q-45 0 -72 22.5t-27 64.5q0 68 75 129h-392v700h486v-87h-390v-216h349v-87h-349v-223h402v-87z" />
    <glyph glyph-name="eogonek" unicode="&#x119;" horiz-adv-x="588" 
d="M303 532q130 0 193 -81t55 -223h-418q11 -71 59.5 -113t119.5 -42q96 0 158 65l51 -53q-20 -23 -48 -41q-40 -35 -66 -77.5t-26 -74.5q0 -37 33 -37q18 0 38 10l23 -62q-39 -19 -82 -19q-45 0 -71.5 26.5t-26.5 71.5q0 58 52 117q-28 -2 -42 -2q-118 0 -192 74t-74 193
q0 118 73.5 192.5t190.5 75.5zM132 300h336q-4 72 -48 113.5t-116 41.5q-70 0 -116.5 -42t-55.5 -113z" />
    <glyph glyph-name="Ecaron" unicode="&#x11a;" horiz-adv-x="653" 
d="M377 766h-98l-105 133h93l61 -67l61 67h93zM196 87h402v-87h-498v700h486v-87h-390v-216h349v-87h-349v-223z" />
    <glyph glyph-name="ecaron" unicode="&#x11b;" horiz-adv-x="588" 
d="M346 616h-98l-105 133h93l61 -67l61 67h93zM303 532q130 0 193 -81t55 -223h-418q11 -71 59.5 -113t119.5 -42q96 0 158 65l51 -53q-80 -88 -216 -88q-118 0 -192 74t-74 193q0 118 73.5 192.5t190.5 75.5zM132 300h336q-4 72 -48 113.5t-116 41.5q-70 0 -116.5 -42
t-55.5 -113z" />
    <glyph glyph-name="Gcircumflex" unicode="&#x11c;" horiz-adv-x="751" 
d="M385 834l-61 -67h-93l105 133h98l105 -133h-93zM584 134v208h85v-257q-53 -42 -124 -67t-141 -25q-154 0 -260 104t-106 254q0 149 107 252t264 103q73 0 142.5 -26t120.5 -71l-55 -70q-88 82 -208 82q-115 0 -194.5 -78.5t-79.5 -191.5t80 -192.5t195 -79.5q92 0 174 55
z" />
    <glyph glyph-name="gcircumflex" unicode="&#x11d;" horiz-adv-x="638" 
d="M304 684l-61 -67h-93l105 133h98l105 -133h-93zM465 529h94v-475q0 -115 -73.5 -183t-196.5 -68q-117 0 -218 74l41 68q78 -63 173 -63q82 0 131 46t49 123v74q-58 -101 -186 -101q-107 0 -173.5 71t-66.5 185q0 111 65.5 181t171.5 71q129 1 189 -100v97zM297 99
q74 0 121 50t47 128q0 79 -47 129t-121 50q-75 0 -122 -50.5t-48 -128.5q1 -78 48 -128t122 -50z" />
    <glyph glyph-name="Gbreve" unicode="&#x11e;" horiz-adv-x="751" 
d="M385 762q-57 0 -94 37t-39 97h65q2 -30 21 -50t47 -20t47 20t21 50h65q-2 -60 -39 -97t-94 -37zM584 134v208h85v-257q-53 -42 -124 -67t-141 -25q-154 0 -260 104t-106 254q0 149 107 252t264 103q73 0 142.5 -26t120.5 -71l-55 -70q-88 82 -208 82q-115 0 -194.5 -78.5
t-79.5 -191.5t80 -192.5t195 -79.5q92 0 174 55z" />
    <glyph glyph-name="gbreve" unicode="&#x11f;" horiz-adv-x="638" 
d="M304 610q-56 0 -93.5 37t-39.5 97h65q2 -30 21 -50t47 -20t47 20t21 50h65q-2 -60 -39.5 -97t-93.5 -37zM465 529h94v-475q0 -115 -73.5 -183t-196.5 -68q-117 0 -218 74l41 68q78 -63 173 -63q82 0 131 46t49 123v74q-58 -101 -186 -101q-107 0 -173.5 71t-66.5 185
q0 111 65.5 181t171.5 71q129 1 189 -100v97zM297 99q74 0 121 50t47 128q0 79 -47 129t-121 50q-75 0 -122 -50.5t-48 -128.5q1 -78 48 -128t122 -50z" />
    <glyph glyph-name="Gdotaccent" unicode="&#x120;" horiz-adv-x="751" 
d="M385 762q-25 0 -41.5 17t-16.5 43t16.5 43t41.5 17q24 0 41 -17t17 -43q0 -25 -17 -42.5t-41 -17.5zM584 134v208h85v-257q-53 -42 -124 -67t-141 -25q-154 0 -260 104t-106 254q0 149 107 252t264 103q73 0 142.5 -26t120.5 -71l-55 -70q-88 82 -208 82
q-115 0 -194.5 -78.5t-79.5 -191.5t80 -192.5t195 -79.5q92 0 174 55z" />
    <glyph glyph-name="gdotaccent" unicode="&#x121;" horiz-adv-x="638" 
d="M304 620q-25 0 -41.5 17t-16.5 43t16.5 43t41.5 17t41.5 -17t16.5 -43t-16.5 -43t-41.5 -17zM465 529h94v-475q0 -115 -73.5 -183t-196.5 -68q-117 0 -218 74l41 68q78 -63 173 -63q82 0 131 46t49 123v74q-58 -101 -186 -101q-107 0 -173.5 71t-66.5 185q0 111 65.5 181
t171.5 71q129 1 189 -100v97zM297 99q74 0 121 50t47 128q0 79 -47 129t-121 50q-75 0 -122 -50.5t-48 -128.5q1 -78 48 -128t122 -50z" />
    <glyph glyph-name="Gcommaaccent" unicode="&#x122;" horiz-adv-x="751" 
d="M584 134v208h85v-257q-53 -42 -124 -67t-141 -25q-154 0 -260 104t-106 254q0 149 107 252t264 103q73 0 142.5 -26t120.5 -71l-55 -70q-88 82 -208 82q-115 0 -194.5 -78.5t-79.5 -191.5t80 -192.5t195 -79.5q92 0 174 55zM307 -218l35 159h88l-55 -159h-68z" />
    <glyph glyph-name="gcommaaccent" unicode="&#x123;" horiz-adv-x="638" 
d="M381 772l-35 -159h-88l55 159h68zM465 529h94v-475q0 -115 -73.5 -183t-196.5 -68q-117 0 -218 74l41 68q78 -63 173 -63q82 0 131 46t49 123v74q-58 -101 -186 -101q-107 0 -173.5 71t-66.5 185q0 111 65.5 181t171.5 71q129 1 189 -100v97zM297 99q74 0 121 50t47 128
q0 79 -47 129t-121 50q-75 0 -122 -50.5t-48 -128.5q1 -78 48 -128t122 -50z" />
    <glyph glyph-name="Hcircumflex" unicode="&#x124;" horiz-adv-x="793" 
d="M400 834l-61 -67h-93l105 133h98l105 -133h-93zM596 700h97v-700h-97v301h-400v-301h-96v700h96v-312h400v312z" />
    <glyph glyph-name="hcircumflex" unicode="&#x125;" horiz-adv-x="665" 
d="M203 830l-61 67l-61 -67h-93l105 133h98l105 -133h-93zM391 532q93 0 146 -54.5t53 -150.5v-327h-93v302q0 67 -37.5 104.5t-103.5 37.5q-77 -1 -122 -52t-45 -132v-260h-93v742h93v-327q53 115 202 117z" />
    <glyph glyph-name="Hbar" unicode="&#x126;" horiz-adv-x="793" 
d="M780 583v-58h-87v-525h-96v301h-401v-301h-96v525h-85v58h85v117h96v-117h401v117h96v-117h87zM597 388v137h-401v-137h401z" />
    <glyph glyph-name="hbar" unicode="&#x127;" horiz-adv-x="665" 
d="M391 516q94 0 146.5 -54.5t52.5 -150.5v-311h-93v286q0 67 -37.5 104.5t-103.5 37.5q-77 0 -122 -51.5t-45 -132.5v-244h-93v595h-73v58h73v89h93v-89h215v-58h-215v-196q53 117 202 117z" />
    <glyph glyph-name="Itilde" unicode="&#x128;" horiz-adv-x="296" 
d="M302 884q0 -53 -19.5 -87.5t-61.5 -34.5q-31 0 -74 26.5t-57 26.5q-32 0 -32 -49h-65q0 53 19.5 87.5t61.5 34.5q31 0 74 -26t57 -26q32 0 32 48h65zM100 700h96v-700h-96v700z" />
    <glyph glyph-name="itilde" unicode="&#x129;" horiz-adv-x="274" 
d="M277 729q0 -55 -18 -88.5t-56 -33.5q-27 0 -63 25t-47 25q-27 0 -27 -46h-65q0 122 74 122q26 0 62.5 -23.5t47.5 -23.5q27 0 27 43h65zM91 529h93v-529h-93v529z" />
    <glyph glyph-name="Imacron" unicode="&#x12a;" horiz-adv-x="296" 
d="M4 833h287v-62h-287v62zM100 700h96v-700h-96v700z" />
    <glyph glyph-name="imacron" unicode="&#x12b;" horiz-adv-x="274" 
d="M13 710h247v-62h-247v62zM91 529h93v-529h-93v529z" />
    <glyph glyph-name="Ibreve" unicode="&#x12c;" horiz-adv-x="296" 
d="M80 896q2 -30 21 -50t47 -20t47 20t21 50h65q-2 -60 -39.5 -97t-93.5 -37t-93.5 37t-39.5 97h65zM100 700h96v-700h-96v700z" />
    <glyph glyph-name="ibreve" unicode="&#x12d;" horiz-adv-x="274" 
d="M69 744q2 -30 21 -50t47 -20t47 20t21 50h65q-2 -60 -39 -97t-94 -37t-94 37t-39 97h65zM91 529h93v-529h-93v529z" />
    <glyph glyph-name="Iogonek" unicode="&#x12e;" horiz-adv-x="296" 
d="M196 0q-51 -37 -72.5 -62.5t-21.5 -49.5q0 -33 31 -33q20 0 39 10l23 -62q-38 -19 -81 -19q-45 0 -72 22.5t-27 64.5q0 73 85 137v692h96v-700z" />
    <glyph glyph-name="iogonek" unicode="&#x12f;" horiz-adv-x="274" 
d="M137 620q-25 0 -41.5 17t-16.5 43t16.5 43t41.5 17t41.5 -17t16.5 -43t-16.5 -43t-41.5 -17zM91 10v519h93v-529q-51 -37 -72.5 -62.5t-21.5 -49.5q0 -33 31 -33q20 0 39 10l23 -62q-38 -19 -81 -19q-45 0 -72 22.5t-27 64.5q0 74 88 139z" />
    <glyph glyph-name="Idotaccent" unicode="&#x130;" horiz-adv-x="296" 
d="M148 882q24 0 41 -17t17 -43q0 -25 -17 -42.5t-41 -17.5q-25 0 -41.5 17t-16.5 43t16.5 43t41.5 17zM100 700h96v-700h-96v700z" />
    <glyph glyph-name="dotlessi" unicode="&#x131;" horiz-adv-x="274" 
d="M91 529h93v-529h-93v529z" />
    <glyph glyph-name="IJ" unicode="&#x132;" horiz-adv-x="802" 
d="M100 700h96v-700h-96v700zM702 212q0 -103 -55 -159.5t-153 -56.5q-120 0 -199 100l47 74q69 -80 151 -80q54 0 83 32.5t29 92.5v397h-247v88h344v-488z" />
    <glyph glyph-name="ij" unicode="&#x133;" horiz-adv-x="547" 
d="M137 740q25 0 41.5 -17t16.5 -43t-16.5 -43t-41.5 -17t-41.5 17t-16.5 43t16.5 43t41.5 17zM409 740q25 0 41.5 -17t16.5 -43t-16.5 -43t-41.5 -17t-41.5 17t-16.5 43t16.5 43t41.5 17zM91 529h93v-529h-93v529zM237 -108q22 -8 48 -10q38 -1 58 26t20 79v542h94v-555
q0 -83 -40.5 -127.5t-112.5 -43.5q-49 2 -89 18z" />
    <glyph glyph-name="Jcircumflex" unicode="&#x134;" horiz-adv-x="490" 
d="M230 834l-61 -67h-93l105 133h98l105 -133h-93zM62 700h344v-488q0 -103 -55 -159.5t-153 -56.5q-120 0 -199 100l47 74q69 -80 151 -80q54 0 83 32.5t29 92.5v397h-247v88z" />
    <glyph glyph-name="jcircumflex" unicode="&#x135;" horiz-adv-x="263" 
d="M184 750l105 -133h-93l-61 67l-61 -67h-93l105 133h98zM89 -13v542h94v-555q0 -83 -40.5 -127.5t-112.5 -43.5q-49 2 -89 18l22 71q22 -8 48 -10q38 -1 58 26t20 79z" />
    <glyph glyph-name="Kcommaaccent" unicode="&#x136;" horiz-adv-x="707" 
d="M392 398l295 -398h-116l-246 323l-129 -140v-183h-96v700h96v-393l358 393h115zM271 -218l35 159h88l-55 -159h-68z" />
    <glyph glyph-name="kcommaaccent" unicode="&#x137;" horiz-adv-x="582" 
d="M357 324l216 -324h-112l-169 257l-103 -107v-150h-93v742h93v-473l256 260h109zM240 -218l35 159h88l-55 -159h-68z" />
    <glyph glyph-name="kgreenlandic" unicode="&#x138;" horiz-adv-x="578" 
d="M457 0l-169 258l-104 -108v-150h-93v529h93v-260l257 260h109l-197 -204l215 -325h-111z" />
    <glyph glyph-name="Lacute" unicode="&#x139;" horiz-adv-x="524" 
d="M207 902l96 -42l-124 -98l-79 10zM100 700h96v-613h306v-87h-402v700z" />
    <glyph glyph-name="lacute" unicode="&#x13a;" horiz-adv-x="285" 
d="M198 965l96 -42l-124 -98l-79 10zM96 742h93v-742h-93v742z" />
    <glyph glyph-name="Lcommaaccent" unicode="&#x13b;" horiz-adv-x="524" 
d="M100 700h96v-613h306v-87h-402v700zM258 -59h88l-55 -159h-68z" />
    <glyph glyph-name="lcommaaccent" unicode="&#x13c;" horiz-adv-x="285" 
d="M96 742h93v-742h-93v742zM100 -59h88l-55 -159h-68z" />
    <glyph glyph-name="Lcaron" unicode="&#x13d;" horiz-adv-x="524" 
d="M100 700h96v-613h306v-87h-402v700zM413 700h88l-24 -197h-64v197z" />
    <glyph glyph-name="lcaron" unicode="&#x13e;" horiz-adv-x="285" 
d="M96 742h93v-742h-93v742zM270 742h88l-24 -197h-64v197z" />
    <glyph glyph-name="Ldot" unicode="&#x13f;" horiz-adv-x="524" 
d="M100 700h96v-613h306v-87h-402v700zM409 458q25 0 41.5 -17t16.5 -43t-16.5 -43t-41.5 -17t-41.5 17t-16.5 43t16.5 43t41.5 17z" />
    <glyph glyph-name="ldot" unicode="&#x140;" horiz-adv-x="384" 
d="M96 742h93v-742h-93v742zM324 458q25 0 41.5 -17t16.5 -43t-16.5 -43t-41.5 -17t-41.5 17t-16.5 43t16.5 43t41.5 17z" />
    <glyph glyph-name="Lslash" unicode="&#x141;" horiz-adv-x="552" 
d="M224 87h305v-87h-401v329l-103 -55v60l103 55v311h96v-259l120 64v-60l-120 -64v-294z" />
    <glyph glyph-name="lslash" unicode="&#x142;" horiz-adv-x="376" 
d="M354 501v-67l-112 -60v-374h-93v323l-114 -61v68l114 61v351h93v-301z" />
    <glyph glyph-name="Nacute" unicode="&#x143;" horiz-adv-x="794" 
d="M559 860l-124 -98l-79 10l107 130zM598 700h95v-700h-97l-400 542v-542h-96v700h97l401 -543v543z" />
    <glyph glyph-name="nacute" unicode="&#x144;" horiz-adv-x="659" 
d="M496 710l-124 -98l-79 10l107 130zM385 532q93 0 146 -54.5t53 -150.5v-327h-93v302q0 67 -37.5 104.5t-103.5 37.5q-71 -1 -115.5 -45.5t-50.5 -115.5v-283h-93v529h93v-112q53 113 201 115z" />
    <glyph glyph-name="Ncommaaccent" unicode="&#x145;" horiz-adv-x="794" 
d="M598 700h95v-700h-97l-400 542v-542h-96v700h97l401 -543v543zM318 -218l35 159h88l-55 -159h-68z" />
    <glyph glyph-name="ncommaaccent" unicode="&#x146;" horiz-adv-x="659" 
d="M385 532q93 0 146 -54.5t53 -150.5v-327h-93v302q0 67 -37.5 104.5t-103.5 37.5q-71 -1 -115.5 -45.5t-50.5 -115.5v-283h-93v529h93v-112q53 113 201 115zM256 -218l35 159h88l-55 -159h-68z" />
    <glyph glyph-name="Ncaron" unicode="&#x147;" horiz-adv-x="794" 
d="M434 766h-98l-105 133h93l61 -67l61 67h93zM598 700h95v-700h-97l-400 542v-542h-96v700h97l401 -543v543z" />
    <glyph glyph-name="ncaron" unicode="&#x148;" horiz-adv-x="659" 
d="M393 616h-98l-105 133h93l61 -67l61 67h93zM385 532q93 0 146 -54.5t53 -150.5v-327h-93v302q0 67 -37.5 104.5t-103.5 37.5q-71 -1 -115.5 -45.5t-50.5 -115.5v-283h-93v529h93v-112q53 113 201 115z" />
    <glyph glyph-name="napostrophe" unicode="&#x149;" horiz-adv-x="760" 
d="M34 440l1 260h73l-13 -260h-61zM486 532q93 0 146 -54.5t53 -150.5v-327h-93v302q0 67 -37.5 104.5t-103.5 37.5q-71 -1 -115.5 -45.5t-50.5 -115.5v-283h-93v529h93v-112q53 113 201 115z" />
    <glyph glyph-name="Eng" unicode="&#x14a;" horiz-adv-x="794" 
d="M598 700h95v-700q0 -93 -56 -147.5t-152 -54.5q-116 0 -191 83l47 74q65 -63 142 -63q49 0 78.5 28t33.5 81l-399 539v-540h-96v700h97l401 -541v541z" />
    <glyph glyph-name="eng" unicode="&#x14b;" horiz-adv-x="659" 
d="M385 532q93 0 146 -54.5t53 -150.5v-345q0 -88 -46.5 -134t-113.5 -46q-60 0 -109 36l32 74q35 -27 73 -27q32 0 51.5 21t19.5 64v332q0 67 -37.5 104.5t-103.5 37.5q-71 -1 -115.5 -45.5t-50.5 -115.5v-283h-93v529h93v-112q53 113 201 115z" />
    <glyph glyph-name="Omacron" unicode="&#x14c;" horiz-adv-x="812" 
d="M252 833h308v-62h-308v62zM406 706q155 0 261.5 -103t106.5 -252q0 -150 -107 -254t-261 -104t-261 104t-107 254t106.5 252.5t261.5 102.5zM407 620q-112 0 -192 -78.5t-80 -190.5t80.5 -191.5t191.5 -79.5t190 79.5t79 191.5t-79 190.5t-190 78.5z" />
    <glyph glyph-name="omacron" unicode="&#x14d;" horiz-adv-x="621" 
d="M167 710h287v-62h-287v62zM311 532q119 0 195 -74.5t76 -192.5q0 -119 -75.5 -193.5t-195.5 -74.5q-121 0 -196.5 74.5t-75.5 193.5t75.5 193t196.5 74zM311 451q-79 0 -128.5 -52t-49.5 -135q0 -84 49.5 -136t128.5 -52q78 0 127.5 52t49.5 136q0 82 -50 134.5
t-127 52.5z" />
    <glyph glyph-name="Obreve" unicode="&#x14e;" horiz-adv-x="812" 
d="M338 896q2 -30 21 -50t47 -20t47 20t21 50h65q-2 -60 -39.5 -97t-93.5 -37t-93.5 37t-39.5 97h65zM406 706q155 0 261.5 -103t106.5 -252q0 -150 -107 -254t-261 -104t-261 104t-107 254t106.5 252.5t261.5 102.5zM407 620q-112 0 -192 -78.5t-80 -190.5t80.5 -191.5
t191.5 -79.5t190 79.5t79 191.5t-79 190.5t-190 78.5z" />
    <glyph glyph-name="obreve" unicode="&#x14f;" horiz-adv-x="621" 
d="M243 744q2 -30 21 -50t47 -20t47 20t21 50h65q-2 -60 -39 -97t-94 -37t-94 37t-39 97h65zM311 532q119 0 195 -74.5t76 -192.5q0 -119 -75.5 -193.5t-195.5 -74.5q-121 0 -196.5 74.5t-75.5 193.5t75.5 193t196.5 74zM311 451q-79 0 -128.5 -52t-49.5 -135
q0 -84 49.5 -136t128.5 -52q78 0 127.5 52t49.5 136q0 82 -50 134.5t-127 52.5z" />
    <glyph glyph-name="Ohungarumlaut" unicode="&#x150;" horiz-adv-x="812" 
d="M356 908l80 -38l-92 -108l-70 9zM511 908l80 -38l-92 -108l-70 9zM406 706q155 0 261.5 -103t106.5 -252q0 -150 -107 -254t-261 -104t-261 104t-107 254t106.5 252.5t261.5 102.5zM407 620q-112 0 -192 -78.5t-80 -190.5t80.5 -191.5t191.5 -79.5t190 79.5t79 191.5
t-79 190.5t-190 78.5z" />
    <glyph glyph-name="ohungarumlaut" unicode="&#x151;" horiz-adv-x="621" 
d="M261 758l80 -38l-92 -108l-70 9zM416 758l80 -38l-92 -108l-70 9zM311 532q119 0 195 -74.5t76 -192.5q0 -119 -75.5 -193.5t-195.5 -74.5q-121 0 -196.5 74.5t-75.5 193.5t75.5 193t196.5 74zM311 451q-79 0 -128.5 -52t-49.5 -135q0 -84 49.5 -136t128.5 -52
q78 0 127.5 52t49.5 136q0 82 -50 134.5t-127 52.5z" />
    <glyph glyph-name="OE" unicode="&#x152;" horiz-adv-x="1095" 
d="M638 88h402v-88h-635q-154 0 -260.5 101.5t-106.5 248.5t106.5 248.5t260.5 101.5h623v-88h-390v-215h349v-87h-349v-222zM406 87l136 -1v527h-136q-114 0 -192.5 -76.5t-78.5 -187.5t78.5 -186.5t192.5 -75.5z" />
    <glyph glyph-name="oe" unicode="&#x153;" horiz-adv-x="1049" 
d="M752 532q120 0 191.5 -79.5t67.5 -207.5h-434q7 -79 57.5 -125.5t126.5 -46.5q96 0 158 65l51 -53q-82 -88 -216 -88q-76 0 -133.5 34t-87.5 95q-31 -61 -88.5 -95t-133.5 -34q-120 0 -196 74.5t-76 193.5q0 118 76 192.5t196 74.5q76 0 134 -34t89 -96q30 62 86.5 96
t131.5 34zM578 297h340q-4 74 -49 119.5t-117 45.5q-71 0 -118.5 -46t-55.5 -119zM311 76q78 0 127.5 52t49.5 136q0 82 -50 134.5t-127 52.5q-78 0 -128 -52.5t-50 -134.5q0 -84 50 -136t128 -52z" />
    <glyph glyph-name="Racute" unicode="&#x154;" horiz-adv-x="723" 
d="M495 860l-124 -98l-79 10l107 130zM662 0h-110l-139 220q-24 -2 -39 -2h-178v-218h-96v700h274q133 0 205.5 -61.5t72.5 -174.5q0 -174 -153 -227zM196 305h178q90 0 138 39.5t48 116.5q0 75 -48 113.5t-138 38.5h-178v-308z" />
    <glyph glyph-name="racute" unicode="&#x155;" horiz-adv-x="382" 
d="M385 710l-124 -98l-79 10l107 130zM184 415q53 115 188 117v-90q-81 3 -131 -42t-57 -121v-279h-93v529h93v-114z" />
    <glyph glyph-name="Rcommaaccent" unicode="&#x156;" horiz-adv-x="723" 
d="M662 0h-110l-139 220q-24 -2 -39 -2h-178v-218h-96v700h274q133 0 205.5 -61.5t72.5 -174.5q0 -174 -153 -227zM196 305h178q90 0 138 39.5t48 116.5q0 75 -48 113.5t-138 38.5h-178v-308zM282 -218l35 159h88l-55 -159h-68z" />
    <glyph glyph-name="rcommaaccent" unicode="&#x157;" horiz-adv-x="382" 
d="M184 415q53 115 188 117v-90q-81 3 -131 -42t-57 -121v-279h-93v529h93v-114zM58 -218l35 159h88l-55 -159h-68z" />
    <glyph glyph-name="Rcaron" unicode="&#x158;" horiz-adv-x="723" 
d="M370 766h-98l-105 133h93l61 -67l61 67h93zM662 0h-110l-139 220q-24 -2 -39 -2h-178v-218h-96v700h274q133 0 205.5 -61.5t72.5 -174.5q0 -174 -153 -227zM196 305h178q90 0 138 39.5t48 116.5q0 75 -48 113.5t-138 38.5h-178v-308z" />
    <glyph glyph-name="rcaron" unicode="&#x159;" horiz-adv-x="382" 
d="M282 616h-98l-105 133h93l61 -67l61 67h93zM184 415q53 115 188 117v-90q-81 3 -131 -42t-57 -121v-279h-93v529h93v-114z" />
    <glyph glyph-name="Sacute" unicode="&#x15a;" horiz-adv-x="616" 
d="M367 902l96 -42l-124 -98l-79 10zM509 554q-97 62 -198 62q-61 0 -97.5 -23.5t-36.5 -64.5q0 -35 21.5 -59.5t55.5 -38.5t75 -26t82.5 -27.5t75.5 -36.5t55 -58.5t21 -89.5q0 -90 -71.5 -144t-186.5 -54q-77 0 -150 30t-126 80l43 83q50 -49 112.5 -75.5t121.5 -26.5
q70 0 110.5 27.5t40.5 74.5q0 48 -40 77t-96.5 44.5t-113.5 35t-97 63t-40 113.5q0 85 68 136.5t180 51.5q130 0 231 -68z" />
    <glyph glyph-name="sacute" unicode="&#x15b;" horiz-adv-x="460" 
d="M290 752l96 -42l-124 -98l-79 10zM380 412q-72 44 -148 44q-93 0 -93 -63q0 -30 30 -48.5t72.5 -30.5t85 -27.5t72 -50t29.5 -87.5q0 -74 -56.5 -113t-140.5 -39q-59 0 -114.5 19t-93.5 54l35 68q33 -30 81.5 -48t94.5 -18t74 17t28 51q1 33 -28.5 53t-72 32t-84.5 27
t-71.5 48.5t-29.5 85.5q0 73 54 110t135 37q102 0 175 -50z" />
    <glyph glyph-name="Scircumflex" unicode="&#x15c;" horiz-adv-x="616" 
d="M312 834l-61 -67h-93l105 133h98l105 -133h-93zM177 528q0 -35 21.5 -59.5t55.5 -38.5t75 -26t82.5 -27.5t75.5 -36.5t55 -58.5t21 -89.5q0 -90 -71.5 -144t-186.5 -54q-77 0 -150 30t-126 80l43 83q50 -49 112.5 -75.5t121.5 -26.5q70 0 110.5 27.5t40.5 74.5
q0 48 -40 77t-96.5 44.5t-113.5 35t-97 63t-40 113.5q0 85 68 136.5t180 51.5q130 0 231 -68l-40 -86q-97 62 -198 62q-61 0 -97.5 -23.5t-36.5 -64.5z" />
    <glyph glyph-name="scircumflex" unicode="&#x15d;" horiz-adv-x="460" 
d="M235 684l-61 -67h-93l105 133h98l105 -133h-93zM139 393q0 -30 30 -48.5t72.5 -30.5t85 -27.5t72 -50t29.5 -87.5q0 -74 -56.5 -113t-140.5 -39q-59 0 -114.5 19t-93.5 54l35 68q33 -30 81.5 -48t94.5 -18t74 17t28 51q1 33 -28.5 53t-72 32t-84.5 27t-71.5 48.5
t-29.5 85.5q0 73 54 110t135 37q102 0 175 -50l-34 -71q-72 44 -148 44q-93 0 -93 -63z" />
    <glyph glyph-name="Scedilla" unicode="&#x15e;" horiz-adv-x="616" 
d="M177 528q0 -35 21.5 -59.5t55.5 -38.5t75 -26t82.5 -27.5t75.5 -36.5t55 -58.5t21 -89.5q0 -80 -57 -132t-152 -63l-17 -49q40 -6 60.5 -27.5t20.5 -50.5q0 -40 -31 -63.5t-79 -23.5q-46 0 -92 21l20 57q32 -13 61 -13q22 0 34.5 9.5t12.5 21.5q0 13 -13.5 21.5
t-37.5 8.5h-32l27 85q-150 8 -259 110l43 83q50 -49 112.5 -75.5t121.5 -26.5q70 0 110.5 27.5t40.5 74.5q0 48 -40 77t-96.5 44.5t-113.5 35t-97 63t-40 113.5q0 85 68 136.5t180 51.5q130 0 231 -68l-40 -86q-97 62 -198 62q-61 0 -97.5 -23.5t-36.5 -64.5z" />
    <glyph glyph-name="scedilla" unicode="&#x15f;" horiz-adv-x="460" 
d="M139 393q0 -30 30 -48.5t72.5 -30.5t85 -27.5t72 -50t29.5 -87.5q0 -65 -44 -103t-113 -47l-18 -51q40 -6 60.5 -27.5t20.5 -50.5q0 -40 -31 -63.5t-79 -23.5q-46 0 -92 21l20 57q32 -13 61 -13q22 0 34.5 9.5t12.5 21.5q0 13 -13.5 21.5t-37.5 8.5h-32l28 89
q-114 8 -182 72l35 68q33 -30 81.5 -48t94.5 -18t74 17t28 51q1 33 -28.5 53t-72 32t-84.5 27t-71.5 48.5t-29.5 85.5q0 73 54 110t135 37q102 0 175 -50l-34 -71q-72 44 -148 44q-93 0 -93 -63z" />
    <glyph glyph-name="Scaron" unicode="&#x160;" horiz-adv-x="616" 
d="M338 766h-98l-105 133h93l61 -67l61 67h93zM177 528q0 -35 21.5 -59.5t55.5 -38.5t75 -26t82.5 -27.5t75.5 -36.5t55 -58.5t21 -89.5q0 -90 -71.5 -144t-186.5 -54q-77 0 -150 30t-126 80l43 83q50 -49 112.5 -75.5t121.5 -26.5q70 0 110.5 27.5t40.5 74.5q0 48 -40 77
t-96.5 44.5t-113.5 35t-97 63t-40 113.5q0 85 68 136.5t180 51.5q130 0 231 -68l-40 -86q-97 62 -198 62q-61 0 -97.5 -23.5t-36.5 -64.5z" />
    <glyph glyph-name="scaron" unicode="&#x161;" horiz-adv-x="460" 
d="M283 616h-98l-105 133h93l61 -67l61 67h93zM139 393q0 -30 30 -48.5t72.5 -30.5t85 -27.5t72 -50t29.5 -87.5q0 -74 -56.5 -113t-140.5 -39q-59 0 -114.5 19t-93.5 54l35 68q33 -30 81.5 -48t94.5 -18t74 17t28 51q1 33 -28.5 53t-72 32t-84.5 27t-71.5 48.5t-29.5 85.5
q0 73 54 110t135 37q102 0 175 -50l-34 -71q-72 44 -148 44q-93 0 -93 -63z" />
    <glyph glyph-name="uni0162" unicode="&#x162;" horiz-adv-x="567" 
d="M331 0h-5l-18 -52q40 -6 60.5 -27.5t20.5 -50.5q0 -40 -31 -63.5t-79 -23.5q-47 0 -92 21l20 57q32 -13 61 -13q22 0 34.5 9.5t12.5 21.5q0 13 -13.5 21.5t-37.5 8.5h-32l28 91h-25v612h-225v88h547v-88h-226v-612z" />
    <glyph glyph-name="uni0163" unicode="&#x163;" horiz-adv-x="397" 
d="M275 -52q40 -6 60.5 -27.5t20.5 -50.5q0 -40 -31 -63.5t-79 -23.5q-46 0 -92 21l20 57q32 -13 61 -13q22 0 34.5 9.5t12.5 21.5q0 13 -13.5 21.5t-37.5 8.5h-32l28 89q-53 6 -85 43.5t-32 105.5v293h-75v71h75v142h94v-142h162v-71h-162v-276q0 -44 16 -63t48 -19
q38 0 82 25l25 -72q-41 -26 -83 -35h1z" />
    <glyph glyph-name="Tcaron" unicode="&#x164;" horiz-adv-x="567" 
d="M315 766h-98l-105 133h93l61 -67l61 67h93zM10 700h547v-88h-226v-612h-96v612h-225v88z" />
    <glyph glyph-name="tcaron" unicode="&#x165;" horiz-adv-x="397" 
d="M361 742l-24 -165h-64v165h88zM350 107l25 -72q-61 -39 -124 -39t-102 37.5t-39 113.5v293h-75v71h75v142h94v-142h162v-71h-162v-276q0 -44 16 -63t48 -19q38 0 82 25z" />
    <glyph glyph-name="Tbar" unicode="&#x166;" horiz-adv-x="567" 
d="M557 612h-226v-250h152v-58h-152v-304h-96v304h-154v58h154v250h-225v88h547v-88z" />
    <glyph glyph-name="tbar" unicode="&#x167;" horiz-adv-x="397" 
d="M350 107l25 -72q-61 -39 -124 -39t-102 37.5t-39 113.5v111h-75v72h75v110h-75v71h75v142h94v-142h162v-71h-162v-110h162v-72h-162v-94q0 -44 16 -63t48 -19q38 0 82 25z" />
    <glyph glyph-name="Utilde" unicode="&#x168;" horiz-adv-x="762" 
d="M536 884q0 -53 -19.5 -87.5t-61.5 -34.5q-31 0 -74 26.5t-57 26.5q-32 0 -32 -49h-65q0 53 19.5 87.5t61.5 34.5q31 0 74 -26t57 -26q32 0 32 48h65zM181 286q0 -97 53.5 -151.5t147.5 -54.5q93 0 146 54.5t53 151.5v414h96v-414q0 -137 -78.5 -215t-216.5 -78
q-139 0 -218 78t-79 215v414h96v-414z" />
    <glyph glyph-name="utilde" unicode="&#x169;" horiz-adv-x="649" 
d="M267 661q-32 0 -32 -49h-65q0 53 19.5 87.5t61.5 34.5q31 0 74 -26t57 -26q32 0 32 48h65q0 -53 -19.5 -87.5t-61.5 -34.5q-31 0 -74 26.5t-57 26.5zM465 529h94v-529h-94v112q-52 -113 -196 -115q-92 0 -144 54.5t-52 150.5v327h94v-302q0 -67 36.5 -104.5t100.5 -37.5
q74 1 117.5 52.5t43.5 131.5v260z" />
    <glyph glyph-name="Umacron" unicode="&#x16a;" horiz-adv-x="762" 
d="M228 833h308v-62h-308v62zM181 286q0 -97 53.5 -151.5t147.5 -54.5q93 0 146 54.5t53 151.5v414h96v-414q0 -137 -78.5 -215t-216.5 -78q-139 0 -218 78t-79 215v414h96v-414z" />
    <glyph glyph-name="umacron" unicode="&#x16b;" horiz-adv-x="649" 
d="M468 710v-62h-287v62h287zM465 529h94v-529h-94v112q-52 -113 -196 -115q-92 0 -144 54.5t-52 150.5v327h94v-302q0 -67 36.5 -104.5t100.5 -37.5q74 1 117.5 52.5t43.5 131.5v260z" />
    <glyph glyph-name="Ubreve" unicode="&#x16c;" horiz-adv-x="762" 
d="M314 896q2 -30 21 -50t47 -20t47 20t21 50h65q-2 -60 -39.5 -97t-93.5 -37t-93.5 37t-39.5 97h65zM181 286q0 -97 53.5 -151.5t147.5 -54.5q93 0 146 54.5t53 151.5v414h96v-414q0 -137 -78.5 -215t-216.5 -78q-139 0 -218 78t-79 215v414h96v-414z" />
    <glyph glyph-name="ubreve" unicode="&#x16d;" horiz-adv-x="649" 
d="M325 610q-57 0 -94 37t-39 97h65q2 -30 21 -50t47 -20t47 20t21 50h65q-2 -60 -39 -97t-94 -37zM465 529h94v-529h-94v112q-52 -113 -196 -115q-92 0 -144 54.5t-52 150.5v327h94v-302q0 -67 36.5 -104.5t100.5 -37.5q74 1 117.5 52.5t43.5 131.5v260z" />
    <glyph glyph-name="Uring" unicode="&#x16e;" horiz-adv-x="762" 
d="M382 962q43 0 74.5 -31.5t31.5 -74.5t-31.5 -74.5t-74.5 -31.5t-74.5 31.5t-31.5 74.5t31.5 74.5t74.5 31.5zM382 910q-23 0 -39.5 -16t-16.5 -38t16.5 -37.5t39.5 -15.5t40 15.5t17 37.5t-17 38t-40 16zM181 286q0 -97 53.5 -151.5t147.5 -54.5q93 0 146 54.5t53 151.5
v414h96v-414q0 -137 -78.5 -215t-216.5 -78q-139 0 -218 78t-79 215v414h96v-414z" />
    <glyph glyph-name="uring" unicode="&#x16f;" horiz-adv-x="649" 
d="M325 579q-43 0 -74.5 31.5t-31.5 74.5t31.5 74.5t74.5 31.5t74.5 -31.5t31.5 -74.5t-31.5 -74.5t-74.5 -31.5zM325 739q-23 0 -39.5 -16t-16.5 -38t16.5 -37.5t39.5 -15.5t40 15.5t17 37.5t-17 38t-40 16zM465 529h94v-529h-94v112q-52 -113 -196 -115q-92 0 -144 54.5
t-52 150.5v327h94v-302q0 -67 36.5 -104.5t100.5 -37.5q74 1 117.5 52.5t43.5 131.5v260z" />
    <glyph glyph-name="Uhungarumlaut" unicode="&#x170;" horiz-adv-x="762" 
d="M332 908l80 -38l-92 -108l-70 9zM487 908l80 -38l-92 -108l-70 9zM181 286q0 -97 53.5 -151.5t147.5 -54.5q93 0 146 54.5t53 151.5v414h96v-414q0 -137 -78.5 -215t-216.5 -78q-139 0 -218 78t-79 215v414h96v-414z" />
    <glyph glyph-name="uhungarumlaut" unicode="&#x171;" horiz-adv-x="649" 
d="M355 720l-92 -108l-70 9l82 137zM418 612l-70 9l82 137l80 -38zM465 529h94v-529h-94v112q-52 -113 -196 -115q-92 0 -144 54.5t-52 150.5v327h94v-302q0 -67 36.5 -104.5t100.5 -37.5q74 1 117.5 52.5t43.5 131.5v260z" />
    <glyph glyph-name="Uogonek" unicode="&#x172;" horiz-adv-x="762" 
d="M581 700h96v-414q0 -161 -106 -239q-42 -35 -69 -79t-27 -76q0 -37 33 -37q18 0 38 10l23 -62q-39 -19 -82 -19q-45 0 -71.5 26.5t-26.5 71.5q0 57 49 115q-24 -4 -56 -4q-139 0 -218 78t-79 215v414h96v-414q0 -97 53.5 -151.5t147.5 -54.5q93 0 146 54.5t53 151.5v414z
" />
    <glyph glyph-name="uogonek" unicode="&#x173;" horiz-adv-x="649" 
d="M559 0q-51 -37 -72.5 -62.5t-21.5 -49.5q0 -33 31 -33q20 0 39 10l23 -62q-38 -19 -81 -19q-45 0 -72 22.5t-27 64.5q0 74 87 138v103q-52 -113 -196 -115q-92 0 -144 54.5t-52 150.5v327h94v-302q0 -67 36.5 -104.5t100.5 -37.5q74 1 117.5 52.5t43.5 131.5v260h94v-529
z" />
    <glyph glyph-name="Wcircumflex" unicode="&#x174;" horiz-adv-x="1046" 
d="M524 834l-61 -67h-93l105 133h98l105 -133h-93zM942 700h100l-237 -700h-100l-181 578l-184 -578h-99l-236 700h103l185 -597l184 597h96l185 -597z" />
    <glyph glyph-name="wcircumflex" unicode="&#x175;" horiz-adv-x="876" 
d="M442 684l-61 -67h-93l105 133h98l105 -133h-93zM784 529h96l-195 -529h-97l-146 416l-146 -416h-97l-196 529h97l148 -437l146 437h97l147 -437z" />
    <glyph glyph-name="Ycircumflex" unicode="&#x176;" horiz-adv-x="630" 
d="M315 834l-61 -67h-93l105 133h98l105 -133h-93zM627 700l-262 -460v-240h-96v236l-266 464h98l216 -357l212 357h98z" />
    <glyph glyph-name="ycircumflex" unicode="&#x177;" horiz-adv-x="514" 
d="M260 684l-61 -67h-93l105 133h98l105 -133h-93zM423 529h95l-242 -604q-50 -123 -164 -123q-66 0 -116 41l40 73q35 -25 71 -25q60 0 90 68l20 47l-219 523h98l168 -424z" />
    <glyph glyph-name="Ydieresis" unicode="&#x178;" horiz-adv-x="630" 
d="M230 762q-22 0 -37.5 16t-15.5 39q0 24 15 39t38 15q22 0 37 -15t15 -39q0 -23 -15 -39t-37 -16zM402 762q-22 0 -37.5 16t-15.5 39q0 24 15 39t38 15t38 -15t15 -39q0 -23 -15.5 -39t-37.5 -16zM627 700l-262 -460v-240h-96v236l-266 464h98l216 -357l212 357h98z" />
    <glyph glyph-name="Zacute" unicode="&#x179;" horiz-adv-x="662" 
d="M391 902l96 -42l-124 -98l-79 10zM54 700h563v-71l-448 -542h453l-1 -87h-580v71l448 542h-436z" />
    <glyph glyph-name="zacute" unicode="&#x17a;" horiz-adv-x="531" 
d="M324 752l96 -42l-124 -98l-79 10zM58 529l425 -1v-66l-320 -385l328 -1v-77l-442 1v66l319 385l-310 1v77z" />
    <glyph glyph-name="Zdotaccent" unicode="&#x17b;" horiz-adv-x="662" 
d="M336 882q24 0 41 -17t17 -43q0 -25 -17 -42.5t-41 -17.5q-25 0 -41.5 17t-16.5 43t16.5 43t41.5 17zM54 700h563v-71l-448 -542h453l-1 -87h-580v71l448 542h-436z" />
    <glyph glyph-name="zdotaccent" unicode="&#x17c;" horiz-adv-x="531" 
d="M269 740q25 0 41.5 -17t16.5 -43t-16.5 -43t-41.5 -17t-41.5 17t-16.5 43t16.5 43t41.5 17zM58 529l425 -1v-66l-320 -385l328 -1v-77l-442 1v66l319 385l-310 1v77z" />
    <glyph glyph-name="Zcaron" unicode="&#x17d;" horiz-adv-x="662" 
d="M362 766h-98l-105 133h93l61 -67l61 67h93zM169 87h453l-1 -87h-580v71l448 542h-436l1 87h563v-71z" />
    <glyph glyph-name="zcaron" unicode="&#x17e;" horiz-adv-x="531" 
d="M317 616h-98l-105 133h93l61 -67l61 67h93zM163 77l328 -1v-77l-442 1v66l319 385l-310 1v77l425 -1v-66z" />
    <glyph glyph-name="uni018F" unicode="&#x18f;" horiz-adv-x="782" 
d="M391 -7q-156 0 -257 108t-101 274h616q-8 104 -82 174.5t-175 70.5q-64 0 -120 -27.5t-94 -76.5l-69 65q111 125 282 125q149 0 251.5 -103t102.5 -252q0 -150 -103 -254t-251 -104zM392 80q94 0 164 58t88 150h-507q17 -92 87.5 -150t167.5 -58z" />
    <glyph glyph-name="florin" unicode="&#x192;" horiz-adv-x="358" 
d="M323 673q-39 1 -66.5 -26t-33.5 -73l-13 -110h146l-8 -67h-147l-52 -430q-10 -78 -52.5 -122t-113.5 -43q-61 2 -104 38l28 69q28 -26 67 -28q37 -1 57.5 25t26.5 74l51 417h-68l7 67h69l15 123q9 76 58 121t121 44q71 -2 121 -38l-35 -69q-33 26 -74 28z" />
    <glyph glyph-name="Ohorn" unicode="&#x1a0;" horiz-adv-x="837" 
d="M660 610q114 -104 114 -259q0 -150 -107 -254t-261 -104t-261 104t-107 254t106.5 252.5t261.5 102.5q85 0 159 -34v1q19 -8 42 -8q49 0 63 47.5t-19 91.5l78 29q39 -73 17.5 -137.5t-86.5 -85.5zM407 80q111 0 190 79.5t79 191.5t-79 190.5t-190 78.5q-112 0 -192 -78.5
t-80 -190.5t80.5 -191.5t191.5 -79.5z" />
    <glyph glyph-name="ohorn" unicode="&#x1a1;" horiz-adv-x="651" 
d="M611 661q42 -77 15.5 -144.5t-99.5 -82.5q55 -69 55 -169q0 -119 -75.5 -193.5t-195.5 -74.5q-121 0 -196.5 74.5t-75.5 193.5t75.5 193t196.5 74q76 0 136 -31q19 -8 42 -8q49 0 63 47.5t-19 91.5zM311 76q78 0 127.5 52t49.5 136q0 82 -50 134.5t-127 52.5
q-79 0 -128.5 -52t-49.5 -135q0 -84 49.5 -136t128.5 -52z" />
    <glyph glyph-name="Uhorn" unicode="&#x1af;" horiz-adv-x="787" 
d="M765 833q32 -75 7.5 -127.5t-95.5 -63.5v-356q0 -137 -78.5 -215t-216.5 -78q-139 0 -218 78t-79 215v414h96v-414q0 -97 53.5 -151.5t147.5 -54.5q93 0 146 54.5t53 151.5v414h59q51 0 64 30.5t-11 74.5z" />
    <glyph glyph-name="uhorn" unicode="&#x1b0;" horiz-adv-x="654" 
d="M631 662q30 -71 10 -121.5t-82 -66.5v-474h-94v112q-52 -113 -196 -115q-92 0 -144 54.5t-52 150.5v327h94v-302q0 -67 36.5 -104.5t100.5 -37.5q74 1 117.5 52.5t43.5 131.5v260h41q51 0 64 30.5t-11 74.5z" />
    <glyph glyph-name="uni01C4" unicode="&#x1c4;" horiz-adv-x="1445" 
d="M1145 766h-98l-105 133h93l61 -67l61 67h93zM385 700q155 0 258 -99.5t103 -250.5q0 -150 -104 -250t-260 -100h-282v700h285zM952 87h453l-1 -87h-580v71l448 542h-436l1 87h563v-71zM387 87q111 0 186 74.5t75 187.5t-76.5 188.5t-188.5 75.5h-187v-526h191z" />
    <glyph glyph-name="uni01C5" unicode="&#x1c5;" horiz-adv-x="1314" 
d="M1100 616h-98l-105 133h93l61 -67l61 67h93zM385 700q155 0 258 -99.5t103 -250.5q0 -150 -104 -250t-260 -100h-282v700h285zM387 87q111 0 186 74.5t75 187.5t-76.5 188.5t-188.5 75.5h-187v-526h191zM946 77l328 -1v-77l-442 1v66l319 385l-310 1v77l425 -1v-66z" />
    <glyph glyph-name="uni01C6" unicode="&#x1c6;" horiz-adv-x="1211" 
d="M997 616h-98l-105 133h93l61 -67l61 67h93zM491 424v318h93v-742h-93v105q-61 -110 -198 -110q-113 0 -183.5 75.5t-70.5 195.5q0 118 70.5 192.5t182.5 74.5q138 0 199 -109zM843 77l328 -1v-77l-442 1v66l319 385l-310 1v77l425 -1v-66zM312 75q79 0 129 52.5t50 135.5
t-50 136t-129 53t-129 -53t-50 -136t50 -135.5t129 -52.5z" />
    <glyph glyph-name="uni01C7" unicode="&#x1c7;" horiz-adv-x="1015" 
d="M100 700h96v-613h306v-87h-402v700zM930 212q0 -103 -55 -159.5t-153 -56.5q-120 0 -199 100l47 74q69 -80 151 -80q54 0 83 32.5t29 92.5v397h-247v88h344v-488z" />
    <glyph glyph-name="uni01C8" unicode="&#x1c8;" horiz-adv-x="787" 
d="M659 740q25 0 41.5 -17t16.5 -43t-16.5 -43t-41.5 -17t-41.5 17t-16.5 43t16.5 43t41.5 17zM100 700h96v-613h306v-87h-402v700zM487 -108q22 -8 48 -10q38 -1 58 26t20 79v542h94v-555q0 -83 -40.5 -127.5t-112.5 -43.5q-49 2 -89 18z" />
    <glyph glyph-name="uni01C9" unicode="&#x1c9;" horiz-adv-x="548" 
d="M96 742h93v-742h-93v742zM420 740q25 0 41.5 -17t16.5 -43t-16.5 -43t-41.5 -17t-41.5 17t-16.5 43t16.5 43t41.5 17zM248 -108q22 -8 48 -10q38 -1 58 26t20 79v542h94v-555q0 -83 -40.5 -127.5t-112.5 -43.5q-49 2 -89 18z" />
    <glyph glyph-name="uni01CA" unicode="&#x1ca;" horiz-adv-x="1284" 
d="M598 157v543h95v-700h-97l-400 542v-542h-96v700h97zM856 700h344v-488q0 -103 -55 -159.5t-153 -56.5q-120 0 -199 100l47 74q69 -80 151 -80q54 0 83 32.5t29 92.5v397h-247v88z" />
    <glyph glyph-name="uni01CB" unicode="&#x1cb;" horiz-adv-x="1056" 
d="M929 620q-25 0 -41.5 17t-16.5 43t16.5 43t41.5 17t41.5 -17t16.5 -43t-16.5 -43t-41.5 -17zM598 157v543h95v-700h-97l-400 542v-542h-96v700h97zM883 -13v542h94v-555q0 -83 -40.5 -127.5t-112.5 -43.5q-49 2 -89 18l22 71q22 -8 48 -10q38 -1 58 26t20 79z" />
    <glyph glyph-name="uni01CC" unicode="&#x1cc;" horiz-adv-x="921" 
d="M794 620q-25 0 -41.5 17t-16.5 43t16.5 43t41.5 17t41.5 -17t16.5 -43t-16.5 -43t-41.5 -17zM385 532q93 0 146 -54.5t53 -150.5v-327h-93v302q0 67 -37.5 104.5t-103.5 37.5q-71 -1 -115.5 -45.5t-50.5 -115.5v-283h-93v529h93v-112q53 113 201 115zM748 -13v542h94
v-555q0 -83 -40.5 -127.5t-112.5 -43.5q-49 2 -89 18l22 71q22 -8 48 -10q38 -1 58 26t20 79z" />
    <glyph glyph-name="Gcaron" unicode="&#x1e6;" horiz-adv-x="751" 
d="M411 766h-98l-105 133h93l61 -67l61 67h93zM584 134v208h85v-257q-53 -42 -124 -67t-141 -25q-154 0 -260 104t-106 254q0 149 107 252t264 103q73 0 142.5 -26t120.5 -71l-55 -70q-88 82 -208 82q-115 0 -194.5 -78.5t-79.5 -191.5t80 -192.5t195 -79.5q92 0 174 55z
" />
    <glyph glyph-name="gcaron" unicode="&#x1e7;" horiz-adv-x="638" 
d="M352 616h-98l-105 133h93l61 -67l61 67h93zM465 529h94v-475q0 -115 -73.5 -183t-196.5 -68q-117 0 -218 74l41 68q78 -63 173 -63q82 0 131 46t49 123v74q-58 -101 -186 -101q-107 0 -173.5 71t-66.5 185q0 111 65.5 181t171.5 71q129 1 189 -100v97zM297 99
q74 0 121 50t47 128q0 79 -47 129t-121 50q-75 0 -122 -50.5t-48 -128.5q1 -78 48 -128t122 -50z" />
    <glyph glyph-name="uni01EA" unicode="&#x1ea;" horiz-adv-x="812" 
d="M593 41q-39 -34 -64 -76t-25 -73q0 -37 33 -37q18 0 38 10l23 -62q-39 -19 -82 -19q-45 0 -71.5 26.5t-26.5 71.5q0 57 50 116q-33 -5 -62 -5q-154 0 -261 104t-107 254t106.5 252.5t261.5 102.5t261.5 -103t106.5 -252q0 -98 -49 -180.5t-132 -129.5zM135 351
q0 -112 80.5 -191.5t191.5 -79.5t190 79.5t79 191.5t-79 190.5t-190 78.5q-112 0 -192 -78.5t-80 -190.5z" />
    <glyph glyph-name="uni01EB" unicode="&#x1eb;" horiz-adv-x="621" 
d="M479 48q-42 -34 -69.5 -78.5t-27.5 -77.5q0 -37 33 -37q18 0 38 10l23 -62q-39 -19 -82 -19q-45 0 -71.5 26.5t-26.5 71.5q0 57 51 117q-24 -2 -36 -2q-121 0 -196.5 74.5t-75.5 193.5t75.5 193t196.5 74q119 0 195 -74.5t76 -192.5q0 -141 -103 -217zM133 264
q0 -84 49.5 -136t128.5 -52q78 0 127.5 52t49.5 136q0 82 -50 134.5t-127 52.5q-79 0 -128.5 -52t-49.5 -135z" />
    <glyph glyph-name="Aringacute" unicode="&#x1fa;" horiz-adv-x="726" 
d="M504 1065l-139 -75l-71 22l130 107zM363 750q-43 0 -74.5 31.5t-31.5 74.5t31.5 74.5t74.5 31.5t74.5 -31.5t31.5 -74.5t-31.5 -74.5t-74.5 -31.5zM363 910q-23 0 -39.5 -16t-16.5 -38t16.5 -37.5t39.5 -15.5t40 15.5t17 37.5t-17 38t-40 16zM620 0l-74 170h-369
l-73 -170h-101l311 700h100l310 -700h-104zM215 257h294l-148 340z" />
    <glyph glyph-name="aringacute" unicode="&#x1fb;" horiz-adv-x="581" 
d="M428 894l-139 -75l-71 22l130 107zM287 579q-43 0 -74.5 31.5t-31.5 74.5t31.5 74.5t74.5 31.5t74.5 -31.5t31.5 -74.5t-31.5 -74.5t-74.5 -31.5zM287 739q-23 0 -39.5 -16t-16.5 -38t16.5 -37.5t39.5 -15.5t40 15.5t17 37.5t-17 38t-40 16zM506 0h-92v74
q-59 -78 -185 -78q-83 0 -133 46t-50 116q0 71 52.5 112.5t146.5 42.5h168v25q0 56 -34.5 86.5t-100.5 30.5q-80 0 -163 -57l-39 64q57 37 105.5 53.5t115.5 16.5q99 0 153 -48.5t55 -135.5zM248 73q65 0 110.5 31.5t54.5 83.5v53h-155q-124 0 -124 -79q0 -41 31 -65t83 -24
z" />
    <glyph glyph-name="AEacute" unicode="&#x1fc;" horiz-adv-x="1037" 
d="M771 860l-124 -98l-79 10l107 130zM580 88h402v-88h-498v184h-275l-105 -184h-101l410 700h556v-88h-389v-215h349v-87h-349v-222zM253 260h231v360h-25z" />
    <glyph glyph-name="aeacute" unicode="&#x1fd;" horiz-adv-x="978" 
d="M544 752l96 -42l-124 -98l-79 10zM510 228q0 -62 54.5 -108.5t126.5 -46.5q95 0 158 65l51 -53q-82 -88 -216 -88q-78 0 -138 35t-90 98q-65 -134 -228 -134q-82 0 -132 43.5t-50 114.5q0 69 52.5 107.5t147.5 38.5h169v38q-2 117 -137 117q-84 0 -177 -57l-25 67
q113 67 221 67q141 0 186 -93q68 93 199 93q119 0 190.5 -79t68.5 -208h-431v-17zM847 297q-3 74 -48 119.5t-116 45.5q-70 0 -118 -45.5t-55 -119.5h337zM263 248q-62 0 -95.5 -22.5t-33.5 -63.5q0 -44 31.5 -71.5t82.5 -27.5q118 0 168 109l-1 76h-152z" />
    <glyph glyph-name="Oslashacute" unicode="&#x1fe;" horiz-adv-x="812" 
d="M557 860l-124 -98l-79 10l107 130zM636 627q64 -49 101 -121t37 -156q0 -149 -107 -251.5t-261 -102.5q-93 0 -173 41l-63 -92h-82l87 128q-64 49 -100.5 121.5t-36.5 155.5q0 149 106.5 250.5t261.5 101.5q92 0 172 -39l63 92h82zM135 350q0 -120 93 -200l299 438
q-56 28 -120 28q-112 0 -192 -77.5t-80 -188.5zM407 83q111 0 190 78t79 189q0 122 -92 201l-300 -439q56 -29 123 -29z" />
    <glyph glyph-name="oslashacute" unicode="&#x1ff;" horiz-adv-x="621" 
d="M462 710l-124 -98l-79 10l107 130zM488 474q94 -75 94 -209q0 -119 -75.5 -193.5t-195.5 -74.5q-71 0 -130 28l-84 -123h-69l105 153q-94 75 -94 210q0 119 75.5 193t196.5 74q71 0 130 -28l84 123h68zM128 264q0 -86 51 -142l217 317q-40 19 -85 19q-81 0 -132 -54
t-51 -140zM311 68q80 0 131.5 54.5t51.5 141.5q0 88 -53 141l-217 -317q40 -20 87 -20z" />
    <glyph glyph-name="uni0200" unicode="&#x200;" horiz-adv-x="726" 
d="M331 771l-71 -9l-92 108l80 38zM486 771l-71 -9l-92 108l80 38zM620 0l-74 170h-369l-73 -170h-101l311 700h100l310 -700h-104zM215 257h294l-148 340z" />
    <glyph glyph-name="uni0201" unicode="&#x201;" horiz-adv-x="581" 
d="M255 621l-71 -9l-92 108l80 38zM410 621l-71 -9l-92 108l80 38zM506 0h-92v74q-59 -78 -185 -78q-83 0 -133 46t-50 116q0 71 52.5 112.5t146.5 42.5h168v25q0 56 -34.5 86.5t-100.5 30.5q-80 0 -163 -57l-39 64q57 37 105.5 53.5t115.5 16.5q99 0 153 -48.5t55 -135.5z
M248 73q65 0 110.5 31.5t54.5 83.5v53h-155q-124 0 -124 -79q0 -41 31 -65t83 -24z" />
    <glyph glyph-name="uni0202" unicode="&#x202;" horiz-adv-x="726" 
d="M363 836q-28 0 -47 -19.5t-21 -50.5h-65q2 60 39 97t94 37t94 -37t39 -97h-65q-2 31 -21 50.5t-47 19.5zM620 0l-74 170h-369l-73 -170h-101l311 700h100l310 -700h-104zM215 257h294l-148 340z" />
    <glyph glyph-name="uni0203" unicode="&#x203;" horiz-adv-x="581" 
d="M287 680q-28 0 -47 -19.5t-21 -50.5h-65q2 60 39 97t94 37t94 -37t39 -97h-65q-2 31 -21 50.5t-47 19.5zM506 0h-92v74q-59 -78 -185 -78q-83 0 -133 46t-50 116q0 71 52.5 112.5t146.5 42.5h168v25q0 56 -34.5 86.5t-100.5 30.5q-80 0 -163 -57l-39 64q57 37 105.5 53.5
t115.5 16.5q99 0 153 -48.5t55 -135.5zM248 73q65 0 110.5 31.5t54.5 83.5v53h-155q-124 0 -124 -79q0 -41 31 -65t83 -24z" />
    <glyph glyph-name="uni0204" unicode="&#x204;" horiz-adv-x="653" 
d="M236 908l83 -137l-71 -9l-92 108zM391 908l83 -137l-71 -9l-92 108zM100 700h486v-87h-390v-216h349v-87h-349v-223h402v-87h-498v700z" />
    <glyph glyph-name="uni0205" unicode="&#x205;" horiz-adv-x="588" 
d="M266 621l-71 -9l-92 108l80 38zM421 621l-71 -9l-92 108l80 38zM303 532q130 0 193 -81t55 -223h-418q11 -71 59.5 -113t119.5 -42q96 0 158 65l51 -53q-80 -88 -216 -88q-118 0 -192 74t-74 193q0 118 73.5 192.5t190.5 75.5zM132 300h336q-4 72 -48 113.5t-116 41.5
q-70 0 -116.5 -42t-55.5 -113z" />
    <glyph glyph-name="uni0206" unicode="&#x206;" horiz-adv-x="653" 
d="M283 766h-65q2 60 39 97t94 37t94 -37t39 -97h-65q-2 31 -21 50.5t-47 19.5t-47 -19.5t-21 -50.5zM100 700h486v-87h-390v-216h349v-87h-349v-223h402v-87h-498v700z" />
    <glyph glyph-name="uni0207" unicode="&#x207;" horiz-adv-x="588" 
d="M298 680q-28 0 -47 -19.5t-21 -50.5h-65q2 60 39.5 97t93.5 37t93.5 -37t39.5 -97h-65q-2 31 -21 50.5t-47 19.5zM303 532q130 0 193 -81t55 -223h-418q11 -71 59.5 -113t119.5 -42q96 0 158 65l51 -53q-80 -88 -216 -88q-118 0 -192 74t-74 193q0 118 73.5 192.5
t190.5 75.5zM132 300h336q-4 72 -48 113.5t-116 41.5q-70 0 -116.5 -42t-55.5 -113z" />
    <glyph glyph-name="uni0208" unicode="&#x208;" horiz-adv-x="296" 
d="M33 908l83 -137l-71 -9l-92 108zM188 908l83 -137l-71 -9l-92 108zM100 700h96v-700h-96v700z" />
    <glyph glyph-name="uni0209" unicode="&#x209;" horiz-adv-x="274" 
d="M22 758l83 -137l-71 -9l-92 108zM177 758l83 -137l-71 -9l-92 108zM91 529h93v-529h-93v529z" />
    <glyph glyph-name="uni020A" unicode="&#x20a;" horiz-adv-x="296" 
d="M80 766h-65q2 60 39.5 97t93.5 37t93.5 -37t39.5 -97h-65q-2 31 -21 50.5t-47 19.5t-47 -19.5t-21 -50.5zM100 700h96v-700h-96v700z" />
    <glyph glyph-name="uni020B" unicode="&#x20b;" horiz-adv-x="274" 
d="M81 610h-66q2 61 36 98.5t86 37.5q53 0 86.5 -37.5t35.5 -98.5h-66q-2 30 -17.5 50t-38.5 20t-38.5 -20t-17.5 -50zM91 529h93v-529h-93v529z" />
    <glyph glyph-name="uni020C" unicode="&#x20c;" horiz-adv-x="812" 
d="M291 908l83 -137l-71 -9l-92 108zM446 908l83 -137l-71 -9l-92 108zM406 706q155 0 261.5 -103t106.5 -252q0 -150 -107 -254t-261 -104t-261 104t-107 254t106.5 252.5t261.5 102.5zM407 620q-112 0 -192 -78.5t-80 -190.5t80.5 -191.5t191.5 -79.5t190 79.5t79 191.5
t-79 190.5t-190 78.5z" />
    <glyph glyph-name="uni020D" unicode="&#x20d;" horiz-adv-x="621" 
d="M196 758l83 -137l-71 -9l-92 108zM351 758l83 -137l-71 -9l-92 108zM311 532q119 0 195 -74.5t76 -192.5q0 -119 -75.5 -193.5t-195.5 -74.5q-121 0 -196.5 74.5t-75.5 193.5t75.5 193t196.5 74zM311 451q-79 0 -128.5 -52t-49.5 -135q0 -84 49.5 -136t128.5 -52
q78 0 127.5 52t49.5 136q0 82 -50 134.5t-127 52.5z" />
    <glyph glyph-name="uni020E" unicode="&#x20e;" horiz-adv-x="812" 
d="M338 766h-65q2 60 39.5 97t93.5 37t93.5 -37t39.5 -97h-65q-2 31 -21 50.5t-47 19.5t-47 -19.5t-21 -50.5zM406 706q155 0 261.5 -103t106.5 -252q0 -150 -107 -254t-261 -104t-261 104t-107 254t106.5 252.5t261.5 102.5zM407 620q-112 0 -192 -78.5t-80 -190.5
t80.5 -191.5t191.5 -79.5t190 79.5t79 191.5t-79 190.5t-190 78.5z" />
    <glyph glyph-name="uni020F" unicode="&#x20f;" horiz-adv-x="621" 
d="M243 610h-65q2 60 39 97t94 37t94 -37t39 -97h-65q-2 31 -21 50.5t-47 19.5t-47 -19.5t-21 -50.5zM311 532q119 0 195 -74.5t76 -192.5q0 -119 -75.5 -193.5t-195.5 -74.5q-121 0 -196.5 74.5t-75.5 193.5t75.5 193t196.5 74zM311 451q-79 0 -128.5 -52t-49.5 -135
q0 -84 49.5 -136t128.5 -52q78 0 127.5 52t49.5 136q0 82 -50 134.5t-127 52.5z" />
    <glyph glyph-name="uni0210" unicode="&#x210;" horiz-adv-x="723" 
d="M312 771l-71 -9l-92 108l80 38zM467 771l-71 -9l-92 108l80 38zM662 0h-110l-139 220q-24 -2 -39 -2h-178v-218h-96v700h274q133 0 205.5 -61.5t72.5 -174.5q0 -174 -153 -227zM196 305h178q90 0 138 39.5t48 116.5q0 75 -48 113.5t-138 38.5h-178v-308z" />
    <glyph glyph-name="uni0211" unicode="&#x211;" horiz-adv-x="382" 
d="M202 621l-71 -9l-92 108l80 38zM357 621l-71 -9l-92 108l80 38zM184 415q53 115 188 117v-90q-81 3 -131 -42t-57 -121v-279h-93v529h93v-114z" />
    <glyph glyph-name="uni0212" unicode="&#x212;" horiz-adv-x="723" 
d="M344 836q-28 0 -47 -19.5t-21 -50.5h-65q2 60 39.5 97t93.5 37t93.5 -37t39.5 -97h-65q-2 31 -21 50.5t-47 19.5zM662 0h-110l-139 220q-24 -2 -39 -2h-178v-218h-96v700h274q133 0 205.5 -61.5t72.5 -174.5q0 -174 -153 -227zM196 305h178q90 0 138 39.5t48 116.5
q0 75 -48 113.5t-138 38.5h-178v-308z" />
    <glyph glyph-name="uni0213" unicode="&#x213;" horiz-adv-x="382" 
d="M234 680q-28 0 -47 -19.5t-21 -50.5h-65q2 60 39.5 97t93.5 37t93.5 -37t39.5 -97h-65q-2 31 -21 50.5t-47 19.5zM184 415q53 115 188 117v-90q-81 3 -131 -42t-57 -121v-279h-93v529h93v-114z" />
    <glyph glyph-name="uni0214" unicode="&#x214;" horiz-adv-x="762" 
d="M267 908l83 -137l-71 -9l-92 108zM422 908l83 -137l-71 -9l-92 108zM181 286q0 -97 53.5 -151.5t147.5 -54.5q93 0 146 54.5t53 151.5v414h96v-414q0 -137 -78.5 -215t-216.5 -78q-139 0 -218 78t-79 215v414h96v-414z" />
    <glyph glyph-name="uni0215" unicode="&#x215;" horiz-adv-x="649" 
d="M293 621l-71 -9l-92 108l80 38zM448 621l-71 -9l-92 108l80 38zM465 529h94v-529h-94v112q-52 -113 -196 -115q-92 0 -144 54.5t-52 150.5v327h94v-302q0 -67 36.5 -104.5t100.5 -37.5q74 1 117.5 52.5t43.5 131.5v260z" />
    <glyph glyph-name="uni0216" unicode="&#x216;" horiz-adv-x="762" 
d="M314 766h-65q2 60 39.5 97t93.5 37t93.5 -37t39.5 -97h-65q-2 31 -21 50.5t-47 19.5t-47 -19.5t-21 -50.5zM181 286q0 -97 53.5 -151.5t147.5 -54.5q93 0 146 54.5t53 151.5v414h96v-414q0 -137 -78.5 -215t-216.5 -78q-139 0 -218 78t-79 215v414h96v-414z" />
    <glyph glyph-name="uni0217" unicode="&#x217;" horiz-adv-x="649" 
d="M325 680q-28 0 -47 -19.5t-21 -50.5h-65q2 60 39 97t94 37t94 -37t39 -97h-65q-2 31 -21 50.5t-47 19.5zM465 529h94v-529h-94v112q-52 -113 -196 -115q-92 0 -144 54.5t-52 150.5v327h94v-302q0 -67 36.5 -104.5t100.5 -37.5q74 1 117.5 52.5t43.5 131.5v260z" />
    <glyph glyph-name="Scommaaccent" unicode="&#x218;" horiz-adv-x="616" 
d="M509 554q-97 62 -198 62q-61 0 -97.5 -23.5t-36.5 -64.5q0 -35 21.5 -59.5t55.5 -38.5t75 -26t82.5 -27.5t75.5 -36.5t55 -58.5t21 -89.5q0 -90 -71.5 -144t-186.5 -54q-77 0 -150 30t-126 80l43 83q50 -49 112.5 -75.5t121.5 -26.5q70 0 110.5 27.5t40.5 74.5
q0 48 -40 77t-96.5 44.5t-113.5 35t-97 63t-40 113.5q0 85 68 136.5t180 51.5q130 0 231 -68zM269 -59h88l-55 -159h-68z" />
    <glyph glyph-name="scommaaccent" unicode="&#x219;" horiz-adv-x="460" 
d="M380 412q-72 44 -148 44q-93 0 -93 -63q0 -30 30 -48.5t72.5 -30.5t85 -27.5t72 -50t29.5 -87.5q0 -74 -56.5 -113t-140.5 -39q-59 0 -114.5 19t-93.5 54l35 68q33 -30 81.5 -48t94.5 -18t74 17t28 51q1 33 -28.5 53t-72 32t-84.5 27t-71.5 48.5t-29.5 85.5q0 73 54 110
t135 37q102 0 175 -50zM186 -59h88l-55 -159h-68z" />
    <glyph glyph-name="uni021A" unicode="&#x21a;" horiz-adv-x="567" 
d="M10 700h547v-88h-226v-612h-96v612h-225v88zM240 -59h88l-55 -159h-68z" />
    <glyph glyph-name="uni021B" unicode="&#x21b;" horiz-adv-x="397" 
d="M375 35q-61 -39 -124 -39t-102 37.5t-39 113.5v293h-75v71h75v142h94v-142h162v-71h-162v-276q0 -44 16 -63t48 -19q38 0 82 25zM173 -218l35 159h88l-55 -159h-68z" />
    <glyph glyph-name="uni022A" unicode="&#x22a;" horiz-adv-x="812" 
d="M283 966h246v-61h-246v61zM326 868q21 0 35.5 -15t14.5 -37q0 -23 -14.5 -38.5t-35.5 -15.5q-22 0 -37 15.5t-15 38.5q0 22 15 37t37 15zM487 868q21 0 36 -15t15 -37t-15 -38t-36 -16q-22 0 -37 15.5t-15 38.5q0 22 15 37t37 15zM406 706q155 0 261.5 -103t106.5 -252
q0 -150 -107 -254t-261 -104t-261 104t-107 254t106.5 252.5t261.5 102.5zM407 620q-112 0 -192 -78.5t-80 -190.5t80.5 -191.5t191.5 -79.5t190 79.5t79 191.5t-79 190.5t-190 78.5z" />
    <glyph glyph-name="uni022B" unicode="&#x22b;" horiz-adv-x="621" 
d="M188 808h246v-61h-246v61zM231 710q21 0 35.5 -15t14.5 -37q0 -23 -14.5 -38.5t-35.5 -15.5q-22 0 -37 15.5t-15 38.5q0 22 14.5 37t37.5 15zM392 710q21 0 36 -15t15 -37t-15 -38t-36 -16q-22 0 -37 15.5t-15 38.5q0 22 15 37t37 15zM311 532q119 0 195 -74.5t76 -192.5
q0 -119 -75.5 -193.5t-195.5 -74.5q-121 0 -196.5 74.5t-75.5 193.5t75.5 193t196.5 74zM311 451q-79 0 -128.5 -52t-49.5 -135q0 -84 49.5 -136t128.5 -52q78 0 127.5 52t49.5 136q0 82 -50 134.5t-127 52.5z" />
    <glyph glyph-name="uni022C" unicode="&#x22c;" horiz-adv-x="812" 
d="M283 970h246v-61h-246v61zM558 870q0 -106 -79 -106q-32 0 -76.5 24t-59.5 24q-35 0 -35 -45h-55q0 48 19.5 77.5t60.5 29.5q32 0 77 -24t60 -24q34 0 34 44h54zM406 706q155 0 261.5 -103t106.5 -252q0 -150 -107 -254t-261 -104t-261 104t-107 254t106.5 252.5
t261.5 102.5zM407 620q-112 0 -192 -78.5t-80 -190.5t80.5 -191.5t191.5 -79.5t190 79.5t79 191.5t-79 190.5t-190 78.5z" />
    <glyph glyph-name="uni022D" unicode="&#x22d;" horiz-adv-x="621" 
d="M188 809h246v-61h-246v61zM463 709q0 -106 -79 -106q-32 0 -76.5 24t-59.5 24q-35 0 -35 -45h-55q0 48 19.5 77.5t60.5 29.5q32 0 77 -24t60 -24q34 0 34 44h54zM311 532q119 0 195 -74.5t76 -192.5q0 -119 -75.5 -193.5t-195.5 -74.5q-121 0 -196.5 74.5t-75.5 193.5
t75.5 193t196.5 74zM311 451q-79 0 -128.5 -52t-49.5 -135q0 -84 49.5 -136t128.5 -52q78 0 127.5 52t49.5 136q0 82 -50 134.5t-127 52.5z" />
    <glyph glyph-name="uni0230" unicode="&#x230;" horiz-adv-x="812" 
d="M340 969h246v-61h-246v61zM462 878q23 0 39 -16.5t16 -40.5q0 -23 -16 -39.5t-39 -16.5q-22 0 -38 16.5t-16 39.5q0 24 15.5 40.5t38.5 16.5zM406 706q155 0 261.5 -103t106.5 -252q0 -150 -107 -254t-261 -104t-261 104t-107 254t106.5 252.5t261.5 102.5zM407 620
q-112 0 -192 -78.5t-80 -190.5t80.5 -191.5t191.5 -79.5t190 79.5t79 191.5t-79 190.5t-190 78.5z" />
    <glyph glyph-name="uni0231" unicode="&#x231;" horiz-adv-x="621" 
d="M187 808h246v-61h-246v61zM309 717q23 0 39 -16.5t16 -40.5q0 -23 -16 -39.5t-39 -16.5q-22 0 -38 16.5t-16 39.5q0 24 15.5 40.5t38.5 16.5zM311 532q119 0 195 -74.5t76 -192.5q0 -119 -75.5 -193.5t-195.5 -74.5q-121 0 -196.5 74.5t-75.5 193.5t75.5 193t196.5 74z
M311 451q-79 0 -128.5 -52t-49.5 -135q0 -84 49.5 -136t128.5 -52q78 0 127.5 52t49.5 136q0 82 -50 134.5t-127 52.5z" />
    <glyph glyph-name="uni0232" unicode="&#x232;" horiz-adv-x="630" 
d="M469 833v-62h-308v62h308zM627 700l-262 -460v-240h-96v236l-266 464h98l216 -357l212 357h98z" />
    <glyph glyph-name="uni0233" unicode="&#x233;" horiz-adv-x="514" 
d="M116 710h287v-62h-287v62zM276 -75q-50 -123 -164 -123q-66 0 -116 41l40 73q35 -25 71 -25q60 0 90 68l20 47l-219 523h98l168 -424l159 424h95z" />
    <glyph glyph-name="uni0237" unicode="&#x237;" horiz-adv-x="263" 
d="M-37 -108q22 -8 48 -10q38 -1 58 26t20 79v542h94v-555q0 -83 -40.5 -127.5t-112.5 -43.5q-49 2 -89 18z" />
    <glyph glyph-name="uni0259" unicode="&#x259;" horiz-adv-x="588" 
d="M283 532q118 0 192 -74t74 -193q0 -118 -73.5 -192.5t-190.5 -75.5q-130 0 -193 81t-55 223h418q-11 71 -59.5 113t-119.5 42q-96 0 -158 -65l-51 53q80 88 216 88zM284 74q70 0 116.5 42t55.5 113h-336q4 -72 48 -113.5t116 -41.5z" />
    <glyph glyph-name="uni02BB" unicode="&#x2bb;" horiz-adv-x="189" 
d="M139 508l-89 20l25 172h64v-192z" />
    <glyph glyph-name="uni02BC" unicode="&#x2bc;" horiz-adv-x="138" 
d="M35 700h73l-13 -260h-61z" />
    <glyph glyph-name="uni02BE" unicode="&#x2be;" horiz-adv-x="249" 
d="M65 567v45q30 0 52 20.5t22 48.5t-22 49t-52 21v45q48 0 82.5 -34t34.5 -81t-34.5 -80.5t-82.5 -33.5z" />
    <glyph glyph-name="uni02BF" unicode="&#x2bf;" horiz-adv-x="248" 
d="M182 567v45q-30 0 -51.5 20.5t-21.5 48.5q0 29 21.5 49.5t51.5 20.5v45q-48 0 -82 -34t-34 -81t34 -80.5t82 -33.5z" />
    <glyph glyph-name="circumflex" unicode="&#x2c6;" horiz-adv-x="332" 
d="M320 617h-93l-61 67l-61 -67h-93l105 133h98z" />
    <glyph glyph-name="caron" unicode="&#x2c7;" horiz-adv-x="332" 
d="M203 749h93l-105 -133h-98l-105 133h93l61 -67z" />
    <glyph glyph-name="uni02C8" unicode="&#x2c8;" horiz-adv-x="105" 
d="M18 524v176h69v-176h-69z" />
    <glyph glyph-name="uni02C9" unicode="&#x2c9;" horiz-adv-x="350" 
d="M32 710h287v-62h-287v62z" />
    <glyph glyph-name="uni02CA" unicode="&#x2ca;" horiz-adv-x="350" 
d="M191 752l96 -42l-124 -98l-79 10z" />
    <glyph glyph-name="uni02CB" unicode="&#x2cb;" horiz-adv-x="350" 
d="M146 752l107 -130l-79 -10l-124 98z" />
    <glyph glyph-name="uni02CC" unicode="&#x2cc;" horiz-adv-x="104" 
d="M18 -207v176h68v-176h-68z" />
    <glyph glyph-name="breve" unicode="&#x2d8;" horiz-adv-x="328" 
d="M96 744q2 -30 21 -50t47 -20t47 20t21 50h65q-2 -60 -39.5 -97t-93.5 -37t-93.5 37t-39.5 97h65z" />
    <glyph glyph-name="dotaccent" unicode="&#x2d9;" horiz-adv-x="293" 
d="M146 740q25 0 41.5 -17t16.5 -43t-16.5 -43t-41.5 -17t-41.5 17t-16.5 43t16.5 43t41.5 17z" />
    <glyph glyph-name="ring" unicode="&#x2da;" horiz-adv-x="434" 
d="M174 791q43 0 74.5 -31.5t31.5 -74.5t-31.5 -74.5t-74.5 -31.5t-74.5 31.5t-31.5 74.5t31.5 74.5t74.5 31.5zM174 739q-23 0 -39.5 -16t-16.5 -38t16.5 -37.5t39.5 -15.5t40 15.5t17 37.5t-17 38t-40 16z" />
    <glyph glyph-name="ogonek" unicode="&#x2db;" horiz-adv-x="266" 
d="M145 33l58 -33q-51 -37 -72.5 -62.5t-21.5 -49.5q0 -33 31 -33q20 0 39 10l23 -62q-38 -19 -81 -19q-45 0 -72 22.5t-27 64.5q0 88 123 162z" />
    <glyph glyph-name="tilde" unicode="&#x2dc;" horiz-adv-x="371" 
d="M340 730q0 -53 -19.5 -87.5t-61.5 -34.5q-31 0 -74 26.5t-57 26.5q-32 0 -32 -49h-65q0 53 19.5 87.5t61.5 34.5q31 0 74 -26t57 -26q32 0 32 48h65z" />
    <glyph glyph-name="hungarumlaut" unicode="&#x2dd;" horiz-adv-x="464" 
d="M158 758l80 -38l-92 -108l-70 9zM313 758l80 -38l-92 -108l-70 9z" />
    <glyph glyph-name="gravecomb" unicode="&#x300;" 
d="M-164 752l107 -130l-79 -10l-124 98z" />
    <glyph glyph-name="acutecomb" unicode="&#x301;" 
d="M-116 752l96 -42l-124 -98l-79 10z" />
    <glyph glyph-name="uni0302" unicode="&#x302;" 
d="M-12 617h-93l-61 67l-61 -67h-93l105 133h98z" />
    <glyph glyph-name="tildecomb" unicode="&#x303;" 
d="M-31 730q0 -53 -19.5 -87.5t-61.5 -34.5q-31 0 -74 26.5t-57 26.5q-32 0 -32 -49h-65q0 53 19.5 87.5t61.5 34.5q31 0 74 -26t57 -26q32 0 32 48h65z" />
    <glyph glyph-name="uni0304" unicode="&#x304;" 
d="M-287 710h287v-62h-287v62z" />
    <glyph glyph-name="uni0306" unicode="&#x306;" 
d="M-232 744q2 -30 21 -50t47 -20t47 20t21 50h65q-2 -60 -39.5 -97t-93.5 -37t-93.5 37t-39.5 97h65z" />
    <glyph glyph-name="uni0307" unicode="&#x307;" 
d="M-108 740q25 0 41.5 -17t16.5 -43t-16.5 -43t-41.5 -17t-41.5 17t-16.5 43t16.5 43t41.5 17z" />
    <glyph glyph-name="uni0308" unicode="&#x308;" 
d="M-274 734q23 0 38 -15.5t15 -39.5q0 -23 -15 -38.5t-38 -15.5t-38 15.5t-15 38.5q0 24 15 39.5t38 15.5zM-102 734q23 0 38 -15.5t15 -39.5q0 -23 -15 -38.5t-38 -15.5t-38 15.5t-15 38.5q0 24 15 39.5t38 15.5z" />
    <glyph glyph-name="hookabovecomb" unicode="&#x309;" 
d="M-122 779q41 0 68 -21t27 -59q0 -28 -20 -61t-52 -60l-52 24q44 41 44 81q0 13 -10 22t-24 9q-19 0 -39 -13l-31 50q42 28 89 28z" />
    <glyph glyph-name="uni030A" unicode="&#x30a;" 
d="M-174 791q43 0 74.5 -31.5t31.5 -74.5t-31.5 -74.5t-74.5 -31.5t-74.5 31.5t-31.5 74.5t31.5 74.5t74.5 31.5zM-174 739q-23 0 -39.5 -16t-16.5 -38t16.5 -37.5t39.5 -15.5t40 15.5t17 37.5t-17 38t-40 16z" />
    <glyph glyph-name="uni030B" unicode="&#x30b;" 
d="M-283 758l80 -38l-92 -108l-70 9zM-128 758l80 -38l-92 -108l-70 9z" />
    <glyph glyph-name="uni030C" unicode="&#x30c;" 
d="M-112 749h93l-105 -133h-98l-105 133h93l61 -67z" />
    <glyph glyph-name="uni030F" unicode="&#x30f;" 
d="M-292 758l83 -137l-71 -9l-92 108zM-137 758l83 -137l-71 -9l-92 108z" />
    <glyph glyph-name="uni0311" unicode="&#x311;" 
d="M-232 610h-65q2 60 39.5 97t93.5 37t93.5 -37t39.5 -97h-65q-2 31 -21 50.5t-47 19.5t-47 -19.5t-21 -50.5z" />
    <glyph glyph-name="uni0312" unicode="&#x312;" 
d="M-75 613h-88l55 159h68z" />
    <glyph glyph-name="uni031B" unicode="&#x31b;" 
d="M-52 662q36 -84 1.5 -139t-126.5 -55v61q51 0 64 30.5t-11 74.5z" />
    <glyph glyph-name="dotbelowcomb" unicode="&#x323;" 
d="M-108 -74q25 0 41.5 -17t16.5 -43t-16.5 -43t-41.5 -17t-41.5 17t-16.5 43t16.5 43t41.5 17z" />
    <glyph glyph-name="uni0324" unicode="&#x324;" 
d="M-261 -71q23 0 38 -15.5t15 -39.5q0 -23 -15 -38.5t-38 -15.5t-38 15.5t-15 38.5q0 24 15 39.5t38 15.5zM-89 -71q23 0 38 -15.5t15 -39.5q0 -23 -15 -38.5t-38 -15.5t-38 15.5t-15 38.5q0 24 15 39.5t38 15.5z" />
    <glyph glyph-name="uni0326" unicode="&#x326;" 
d="M-133 -59h88l-55 -159h-68z" />
    <glyph glyph-name="uni0327" unicode="&#x327;" 
d="M-164 8l63 -8l-18 -52q40 -6 60.5 -27.5t20.5 -50.5q0 -40 -31 -63.5t-79 -23.5q-46 0 -92 21l20 57q32 -13 61 -13q22 0 34.5 9.5t12.5 21.5q0 13 -13.5 21.5t-37.5 8.5h-32z" />
    <glyph glyph-name="uni0328" unicode="&#x328;" 
d="M-90 33l58 -33q-51 -37 -72.5 -62.5t-21.5 -49.5q0 -33 31 -33q20 0 39 10l23 -62q-38 -19 -81 -19q-45 0 -72 22.5t-27 64.5q0 88 123 162z" />
    <glyph glyph-name="uni032E" unicode="&#x32e;" 
d="M-232 -50q2 -30 21 -50t47 -20t47 20t21 50h65q-2 -60 -39.5 -97t-93.5 -37t-93.5 37t-39.5 97h65z" />
    <glyph glyph-name="uni0331" unicode="&#x331;" 
d="M-317 -82h287v-62h-287v62z" />
    <glyph glyph-name="uni0335" unicode="&#x335;" 
d="M-338 470h331v-58h-331v58z" />
    <glyph glyph-name="uni0336" unicode="&#x336;" 
d="M-503 470h402v-58h-402v58z" />
    <glyph glyph-name="uni0337" unicode="&#x337;" 
d="M-30 558l-157 -469h-81l157 469h81z" />
    <glyph glyph-name="uni0338" unicode="&#x338;" 
d="M-298 0l249 742h81l-249 -742h-81z" />
    <glyph glyph-name="uni0394" unicode="&#x394;" horiz-adv-x="726" 
d="M414 700l310 -700h-721l311 700h100zM137 76h450l-226 521z" />
    <glyph glyph-name="uni03A9" unicode="&#x3a9;" horiz-adv-x="892" 
d="M556 87q78 44 121 117t43 151q0 109 -75.5 186.5t-198.5 77.5t-198 -77t-75 -186q0 -79 42.5 -152t121.5 -117v-87h-327v82h222q-64 47 -104.5 126.5t-40.5 159.5q0 145 102 240.5t257 95.5t257.5 -95.5t102.5 -240.5q0 -79 -41 -159t-105 -127h222v-82h-326v87z" />
    <glyph glyph-name="uni03BC" unicode="&#x3bc;" horiz-adv-x="672" 
d="M487 529h94v-529h-94v112q-52 -113 -196 -115q-58 0 -101 23v-214h-94v371q-1 8 -1 25v327h95v-323q6 -57 42 -89t94 -32q74 1 117.5 52.5t43.5 131.5v260z" />
    <glyph glyph-name="pi" unicode="&#x3c0;" horiz-adv-x="723" 
d="M714 529v-73h-155v-456h-79v456h-168l-52 -456h-79l51 456h-58q-46 0 -77 -26.5t-30 -66.5q2 -41 28 -80l-66 -26q-35 55 -37 121q-1 64 48.5 107.5t122.5 43.5h551z" />
    <glyph glyph-name="uni0531" unicode="&#x531;" horiz-adv-x="817" 
d="M816 73l-53 -68l-125 106q-76 -118 -249 -118q-139 0 -218 78t-79 215v471h96v-471q0 -97 53.5 -151.5t147.5 -54.5q93 0 146 54.5t53 151.5v471h96v-471q0 -48 -11 -92z" />
    <glyph glyph-name="uni0532" unicode="&#x532;" horiz-adv-x="785" 
d="M713 261v-88h-525v-173h-96v484q0 137 79 215t218 78q138 0 216.5 -78t78.5 -215v-65h-96v65q0 97 -53 151.5t-146 54.5q-94 0 -147.5 -54.5t-53.5 -151.5v-223h525z" />
    <glyph glyph-name="uni0533" unicode="&#x533;" horiz-adv-x="783" 
d="M795 284v-87h-151v-197h-96v197h-200q-145 0 -225.5 81t-81.5 204q-1 132 87 207t223 75q133 1 213 -65t80 -175v-240h151zM548 284v238q0 64 -48.5 110t-145.5 46q-101 0 -160.5 -51.5t-58.5 -145.5q2 -93 58.5 -145t159.5 -52h195z" />
    <glyph glyph-name="uni0534" unicode="&#x534;" horiz-adv-x="848" 
d="M860 310v-87h-176v-223h-96v471q0 96 -54 151t-147 55t-146 -54.5t-53 -151.5v-127h-96v127q0 137 78.5 215t216.5 78q139 0 218 -78t79 -215v-161h176z" />
    <glyph glyph-name="uni0535" unicode="&#x535;" horiz-adv-x="785" 
d="M713 484h-525v-198q0 -97 53.5 -151.5t147.5 -54.5q93 0 146 54.5t53 151.5v63h96v-63q0 -137 -78.5 -215t-216.5 -78q-139 0 -218 78t-79 215v471h96v-185h525v-88z" />
    <glyph glyph-name="uni0536" unicode="&#x536;" horiz-adv-x="725" 
d="M534 181q175 0 175 -167v-14h-96v17q0 39 -25 63.5t-65 24.5h-363v-105h-96v285h96v-101q106 2 205 42t164 111.5t66 154.5q1 85 -61 134.5t-156 51.5q-98 2 -158 -45.5t-60 -140.5v-16h-96v16q0 132 83.5 203t227.5 69q139 -2 228.5 -76t88.5 -195q-1 -61 -26 -114.5
t-65.5 -92t-86.5 -65t-95 -40.5h115z" />
    <glyph glyph-name="uni0537" unicode="&#x537;" horiz-adv-x="671" 
d="M650 484h-463v-396h278q66 0 98 -30.5t32 -94.5v-38h-96v24q0 23 -15 37t-41 14h-351v757h95v-185h463v-88z" />
    <glyph glyph-name="uni0538" unicode="&#x538;" horiz-adv-x="784" 
d="M188 88h524v-88h-620v471q0 137 79 215t218 78q138 0 216.5 -78t78.5 -215v-133h-96v133q0 97 -53 151.5t-146 54.5t-147 -55t-54 -151v-383z" />
    <glyph glyph-name="uni0539" unicode="&#x539;" horiz-adv-x="961" 
d="M960 449v-88h-120v-152q0 -93 -69.5 -154.5t-179.5 -61.5q-111 0 -189.5 63t-78.5 168q0 98 64.5 161.5t181.5 63.5h175v22q-1 96 -78 151t-201 55q-126 0 -201 -52.5t-76 -153.5v-471h-96v471q0 138 96 215.5t277 77.5q176 0 275.5 -83.5t99.5 -209.5v-22h120zM744 217
v144h-168q-74 0 -115 -36t-41 -100q0 -67 48 -106t125 -39q72 0 111 40t40 97z" />
    <glyph glyph-name="uni053A" unicode="&#x53a;" horiz-adv-x="785" 
d="M797 557v-87h-165v-240q0 -112 -73 -175t-212 -62q-127 0 -216.5 76t-89.5 209q0 121 76.5 200t206.5 79h212v200h96v-200h165zM536 470h-207q-86 0 -137.5 -48.5t-52.5 -143.5q0 -98 57.5 -147t153.5 -51q97 0 141.5 45.5t44.5 106.5v238z" />
    <glyph glyph-name="uni053B" unicode="&#x53b;" horiz-adv-x="758" 
d="M387 618q141 0 219 -82.5t78 -221.5v-89h-96v89q0 99 -53 158.5t-148 59.5q-93 0 -146 -56t-53 -153v-116h-1v-207h-95v757h95v-236q76 97 200 97z" />
    <glyph glyph-name="uni053C" unicode="&#x53c;" horiz-adv-x="624" 
d="M519 88q50 0 82.5 -33.5t32.5 -85.5v-44h-96v27q0 20 -13.5 34t-32.5 14h-400v757h95v-669h332z" />
    <glyph glyph-name="uni053D" unicode="&#x53d;" horiz-adv-x="900" 
d="M731 572h95v-194q0 -136 -59 -204.5t-172 -68.5q-114 0 -173.5 68.5t-59.5 204.5v106h-175v-484h-95v757h95v-185h270v-194q0 -186 138 -186q74 0 105 43.5t31 142.5v194z" />
    <glyph glyph-name="uni053E" unicode="&#x53e;" horiz-adv-x="889" 
d="M854 653v-87h-173q106 -96 106 -242q-1 -140 -95 -235.5t-240 -95.5t-240 95.5t-94 235.5q0 145 105 242h-52q-136 0 -136 136v55h95v-46q0 -58 62 -58h662zM697 324q0 101 -71.5 171.5t-172.5 70.5q-102 0 -174 -70.5t-72 -171.5q0 -103 69.5 -173t176.5 -70t175.5 70
t68.5 173z" />
    <glyph glyph-name="uni053F" unicode="&#x53f;" horiz-adv-x="733" 
d="M546 591h96v-592h-96v250q-72 -95 -192 -95q-139 0 -210.5 81.5t-71.5 222.5v299h96v-299q0 -101 46 -159t140 -58q86 0 135.5 49t56.5 140v161z" />
    <glyph glyph-name="uni0540" unicode="&#x540;" horiz-adv-x="694" 
d="M488 411q154 -47 147 -205v-206h-96v214v1q0 69 -56 107.5t-164 38.5h-202v88h199q200 0 200 114q0 49 -47 78t-142 29h-2h-236v87h231h5q156 -1 221.5 -51t65.5 -149q0 -51 -34.5 -93t-89.5 -53z" />
    <glyph glyph-name="uni0541" unicode="&#x541;" horiz-adv-x="759" 
d="M711 459q0 -174 -119 -312l114 -99l-54 -67l-124 104q-116 -93 -258 -93q-97 0 -159 47t-63 116v1q1 68 59 111t163 42q111 -1 244 -99q99 112 99 250q0 92 -71 154.5t-171 62.5q-102 0 -162.5 -49.5t-60.5 -135.5v-15h-98v15q0 120 86.5 196t234.5 76q146 0 243 -88.5
t97 -216.5zM270 79q88 0 178 69q-98 71 -178 74q-52 1 -87.5 -16.5t-36.5 -50.5q1 -39 39 -57.5t85 -18.5z" />
    <glyph glyph-name="uni0542" unicode="&#x542;" horiz-adv-x="844" 
d="M684 88h176v-88h-272v471q0 96 -54 151t-147 55t-146 -54.5t-53 -151.5v-133h-96v133q0 137 78.5 215t216.5 78q139 0 218 -78t79 -215v-383z" />
    <glyph glyph-name="uni0543" unicode="&#x543;" horiz-adv-x="806" 
d="M442 536q140 0 228.5 -73t88.5 -205v-258h-609v2h-4q0 208 10 355q3 43 12 92h-121v87h146q85 226 331 229h208l-1 -87h-203q-164 0 -232 -142h146zM242 88h421v169q0 90 -67.5 141t-167.5 51h-162q-8 -37 -14 -92q-10 -111 -10 -269z" />
    <glyph glyph-name="uni0544" unicode="&#x544;" horiz-adv-x="828" 
d="M860 757v-87h-176v-384q0 -137 -78.5 -215t-216.5 -78q-139 0 -218 78t-79 215v471h96v-471q0 -97 53.5 -151.5t147.5 -54.5q93 0 146 54.5t53 151.5v471h272z" />
    <glyph glyph-name="uni0545" unicode="&#x545;" horiz-adv-x="826" 
d="M81 361h359q103 0 162.5 -35t59.5 -98q0 -76 -63.5 -111.5t-162.5 -36.5q-68 -1 -123 17t-90 56.5t-36 92.5h-95q-2 -61 27 -111t78 -80t110.5 -46t127.5 -16q143 1 232 59t91 168q3 133 -155 189q56 14 83.5 53.5t27.5 85.5q0 102 -87 158.5t-209 57.5
q-113 1 -190.5 -49t-82.5 -147h95q15 109 180 109q91 0 144.5 -33.5t53.5 -85.5q0 -109 -181 -109h-356v-88z" />
    <glyph glyph-name="uni0546" unicode="&#x546;" horiz-adv-x="818" 
d="M650 451h96v-165q0 -137 -78.5 -215t-216.5 -78q-139 0 -218 78t-79 215v384h-176v87h272v-471q0 -97 53.5 -151.5t147.5 -54.5q93 0 146 54.5t53 151.5v165z" />
    <glyph glyph-name="uni0547" unicode="&#x547;" horiz-adv-x="725" 
d="M581 277h97v-12q0 -133 -84 -202t-227 -69q-139 0 -229.5 82.5t-90.5 212.5q0 116 63 193t175 116l-158 79v96l546 -274v-96l-304 153q-110 -34 -167 -103.5t-57 -163.5q0 -89 64.5 -149t157.5 -60q214 0 214 185v12z" />
    <glyph glyph-name="uni0548" unicode="&#x548;" horiz-adv-x="775" 
d="M188 471v-471h-96v471q0 137 79 215t218 78q138 0 216.5 -78t78.5 -215v-471h-96v471q0 97 -53 151.5t-146 54.5t-147 -55t-54 -151z" />
    <glyph glyph-name="uni0549" unicode="&#x549;" horiz-adv-x="731" 
d="M684 464q0 -246 -254 -346l131 -72v-96l-514 282v96l292 -160q249 86 249 296q0 87 -64 150t-161 63q-99 0 -157.5 -46t-58.5 -139v-12h-97v12q0 127 87.5 199.5t225.5 72.5q137 0 229 -86t92 -214z" />
    <glyph glyph-name="uni054A" unicode="&#x54a;" horiz-adv-x="889" 
d="M438 764q168 0 264 -78t96 -215v-471h-97v471q-7 90 -63.5 141.5t-150.5 61.5v-434h-96v435q-97 -11 -154.5 -63t-58.5 -141v-127h-96v127q0 137 95 215t261 78z" />
    <glyph glyph-name="uni054B" unicode="&#x54b;" horiz-adv-x="735" 
d="M504 200q81 0 132.5 -52t51.5 -134v-14h-96v17q0 41 -27.5 68.5t-68.5 27.5h-353v-113h-96v287h96v-87h50q31 11 56 32.5t35 44.5t-6 44t-60 31q-82 18 -115.5 61.5t-34.5 115.5v3q0 102 77 167t218 65q143 0 225.5 -80.5t78.5 -209.5q-3 -91 -75.5 -161.5t-177.5 -112.5
h90zM166 529q0 -25 7 -43t14.5 -28.5t29 -20.5t34 -14.5t46.5 -14.5q42 -14 62.5 -38.5t18.5 -52.5t-14 -58q195 91 206 215q8 86 -50.5 145t-156.5 59q-97 0 -147 -41t-50 -105v-3z" />
    <glyph glyph-name="uni054C" unicode="&#x54c;" horiz-adv-x="848" 
d="M860 310v-87h-176v-223h-96v471q0 97 -53 151.5t-146 54.5t-147 -55t-54 -151v-471h-96v471q0 137 79 215t218 78q138 0 216.5 -78t78.5 -215v-161h176z" />
    <glyph glyph-name="uni054D" unicode="&#x54d;" horiz-adv-x="775" 
d="M188 286q0 -97 53.5 -151.5t147.5 -54.5q93 0 146 54.5t53 151.5v471h96v-471q0 -137 -78.5 -215t-216.5 -78q-139 0 -218 78t-79 215v471h96v-471z" />
    <glyph glyph-name="uni054E" unicode="&#x54e;" horiz-adv-x="803" 
d="M642 87h177v-88h-273v247q-71 -92 -188 -92q-136 0 -211 82.5t-75 221.5v144h96v-144q0 -101 48 -159t142 -58q86 0 133.5 48.5t54.5 139.5v328h96v-670z" />
    <glyph glyph-name="uni054F" unicode="&#x54f;" horiz-adv-x="755" 
d="M47 264q-1 -59 17 -106t49 -78t74 -51.5t89.5 -29.5t97.5 -9q148 -1 235.5 53t90.5 156q2 65 -26 110.5t-73.5 69.5t-101.5 39.5t-111.5 26t-102 24.5t-75 40t-28.5 66q1 50 54.5 77t145.5 25q89 -1 138.5 -36t48.5 -81h96q0 70 -45.5 117.5t-106 66t-130.5 20.5
q-139 4 -217 -49t-80 -140q-1 -61 27 -103.5t73.5 -64t101 -36.5t111.5 -26t102 -25.5t74.5 -42.5t28.5 -70q-1 -65 -60 -98t-168 -32q-108 1 -170 49t-62 138h-97z" />
    <glyph glyph-name="uni0550" unicode="&#x550;" horiz-adv-x="773" 
d="M188 471v-471h-96v471q0 137 79 215t218 78q138 0 216.5 -78t78.5 -215v-133h-96v133q0 97 -53 151.5t-146 54.5t-147 -55t-54 -151z" />
    <glyph glyph-name="uni0551" unicode="&#x551;" horiz-adv-x="802" 
d="M568 441q93 -22 141 -83.5t46 -128.5q-4 -112 -100 -170t-246 -59q-95 -1 -175.5 26t-133.5 86t-50 141h98q0 -79 77.5 -122.5t184.5 -42.5q49 0 90.5 8t78 24.5t57.5 46t21 70.5q0 67 -63.5 107t-167.5 40h-379v87h164q-41 24 -55 43q-22 30 -24 74q1 86 77.5 131.5
t195.5 44.5t194.5 -51t75.5 -137q0 -55 -29.5 -89.5t-77.5 -45.5zM405 483q81 0 127 24t46 72q0 43 -47.5 70.5t-125.5 27.5t-126.5 -26t-48.5 -72q0 -47 45.5 -71.5t129.5 -24.5z" />
    <glyph glyph-name="uni0552" unicode="&#x552;" horiz-adv-x="311" 
d="M323 528v-88h-188v-440h-96v757h96v-229h188z" />
    <glyph glyph-name="uni0553" unicode="&#x553;" horiz-adv-x="936" 
d="M889 380q0 -121 -96.5 -196.5t-276.5 -85.5v-98h-95v98q-181 10 -277.5 85.5t-96.5 196.5t96 195.5t278 83.5v98h95v-98q181 -10 277 -84.5t96 -194.5zM516 186q275 15 275 194q0 176 -275 191v-385zM145 380q0 -86 69 -136.5t207 -57.5v385q-276 -15 -276 -191z" />
    <glyph glyph-name="uni0554" unicode="&#x554;" horiz-adv-x="779" 
d="M729 189v-88h-529v-101h-96v101h-69v88h69v317q1 119 81 188.5t218 69.5q131 0 213.5 -66.5t82.5 -172.5q0 -105 -78.5 -171.5t-201.5 -66.5q-139 0 -219 78v-176h529zM401 678q-91 -1 -146 -44t-55 -109q0 -65 57 -108.5t144 -43.5q90 0 144 43t54 109t-54.5 110
t-143.5 43z" />
    <glyph glyph-name="uni0555" unicode="&#x555;" horiz-adv-x="898" 
d="M449 773q171 0 288 -112t117 -276q0 -165 -117.5 -278.5t-287.5 -113.5t-288 113.5t-118 278.5q0 164 117.5 276t288.5 112zM450 686q-127 0 -216.5 -87.5t-89.5 -213.5t90 -215.5t216 -89.5q125 0 214 89t89 216q0 126 -88.5 213.5t-214.5 87.5z" />
    <glyph glyph-name="uni0556" unicode="&#x556;" horiz-adv-x="805" 
d="M778 233q0 -81 -53.5 -137t-137 -80.5t-186.5 -22.5q-102 2 -186 30.5t-137 88t-51 141.5h96q-3 -72 63 -117.5t176 -53.5v318q-242 18 -242 176q0 93 68 136.5t174 44.5h95v-276q91 -5 156 -28t99.5 -58.5t50 -75t15.5 -86.5zM215 581q0 -48 33.5 -69.5t113.5 -26.5v185
q-75 -1 -111 -24.5t-36 -64.5zM682 233q1 77 -54.5 116t-170.5 47v-315q225 12 225 152z" />
    <glyph glyph-name="uni0559" unicode="&#x559;" horiz-adv-x="146" 
d="M22 759l39 -112h-50l-54 114q-15 32 -15 46q0 25 16 40t38 15q23 0 38.5 -15.5t15.5 -39.5q0 -33 -28 -48z" />
    <glyph glyph-name="uni055A" unicode="&#x55a;" horiz-adv-x="146" 
d="M8 862q22 0 37.5 -15t15.5 -40q0 -16 -14 -46l-54 -114h-51l40 112q-28 15 -28 48q0 24 15.5 39.5t38.5 15.5z" />
    <glyph glyph-name="uni055B" unicode="&#x55b;" horiz-adv-x="58" 
d="M-75 833h113l-141 -203h-79z" />
    <glyph glyph-name="uni055C" unicode="&#x55c;" horiz-adv-x="146" 
d="M-11 879l84 17q9 -61 2.5 -100.5t-25 -55t-43.5 -23t-52 -4.5t-51 0q-28 -1 -34.5 -29t12.5 -60l-84 -15q-41 121 42 163q17 10 40 13.5t40.5 3t36 2t26.5 10t12.5 26.5t-6.5 52z" />
    <glyph glyph-name="uni055D" unicode="&#x55d;" horiz-adv-x="142" 
d="M-6 833l107 -203h-87l-141 203h121z" />
    <glyph glyph-name="uni055E" unicode="&#x55e;" horiz-adv-x="134" 
d="M-52 644v73q37 0 52 22.5t-2 44.5t-57 22q-47 0 -77 -47t-25 -159h-83q-9 283 185 283q105 0 139 -66q27 -53 -5 -108q-46 -61 -127 -65z" />
    <glyph glyph-name="uni055F" unicode="&#x55f;" horiz-adv-x="370" 
d="M221 529q-104 0 -150 42t-46 95q0 65 48.5 101t130.5 36h16v-64h-6q-48 0 -75 -18.5t-27 -52.5q0 -69 124 -69h121v-70h-136z" />
    <glyph glyph-name="uni0561" unicode="&#x561;" horiz-adv-x="971" 
d="M786 529h93v-529h-93v107q-47 -108 -176 -110q-66 0 -109.5 35t-58.5 99q-43 -132 -185 -134q-83 0 -129.5 54.5t-46.5 150.5v327h93v-302q0 -69 29 -106t86 -37q67 2 106 53t39 131v261h93v-302q0 -143 115 -143q59 2 97.5 43t46.5 107v295z" />
    <glyph glyph-name="uni0562" unicode="&#x562;" horiz-adv-x="656" 
d="M611 72v-72h-425v-211h-94v740h94v-110q53 111 200 113q94 0 147 -55t53 -150v-140h-94v115q0 67 -37.5 104.5t-103.5 37.5q-71 -1 -115 -45t-50 -116v-211h425z" />
    <glyph glyph-name="uni0563" unicode="&#x563;" horiz-adv-x="730" 
d="M743 72v-72h-150v-211h-94v314q-61 -108 -197 -108q-114 0 -184.5 75.5t-70.5 195.5q0 118 70.5 192.5t182.5 74.5q138 0 199 -108v104h94v-457h150zM320 75q79 0 129 52.5t50 135.5t-50 136t-129 53q-78 0 -128 -53t-51 -136q1 -83 50.5 -135.5t128.5 -52.5z" />
    <glyph glyph-name="uni0564" unicode="&#x564;" horiz-adv-x="723" 
d="M736 72v-72h-150v-211h-94v513q0 67 -37.5 104.5t-103.5 37.5q-71 -1 -115 -45t-50 -116v-283h-94v529h94v-110q53 111 200 113q94 0 147 -55t53 -150v-255h150z" />
    <glyph glyph-name="uni0565" unicode="&#x565;" horiz-adv-x="645" 
d="M600 456h-426v-229q0 -67 36.5 -104.5t100.5 -37.5q74 1 117.5 52.5t43.5 131.5v77h94v-346h-94v112q-52 -113 -195 -115q-92 0 -144 54.5t-52 150.5v555h93v-229h426v-72z" />
    <glyph glyph-name="uni0566" unicode="&#x566;" horiz-adv-x="711" 
d="M593 -139h150v-72h-244v314q-61 -108 -197 -108q-114 0 -184.5 75.5t-70.5 195.5q0 118 70.5 192.5t182.5 74.5q138 0 199 -108v104h94v-668zM320 75q79 0 129 52.5t50 135.5t-50 136t-129 53q-78 0 -128 -53t-51 -136q1 -83 50.5 -135.5t128.5 -52.5z" />
    <glyph glyph-name="uni0567" unicode="&#x567;" horiz-adv-x="603" 
d="M558 457h-372v-380h138q148 0 148 -144h-79q-2 67 -84 67h-217v757h94v-228h372v-72z" />
    <glyph glyph-name="uni0568" unicode="&#x568;" horiz-adv-x="656" 
d="M186 -141h425v-72h-519v742h94v-110q53 111 200 113q94 0 147 -55t53 -150v-327h-94v302q0 67 -37.5 104.5t-103.5 37.5q-71 -1 -115 -45t-50 -116v-424z" />
    <glyph glyph-name="uni0569" unicode="&#x569;" horiz-adv-x="772" 
d="M792 332v-72h-101v-90q0 -81 -54.5 -127t-132.5 -46q-88 0 -142 47t-54 125q0 76 52 119.5t141 43.5h93q-11 56 -61.5 84.5t-122.5 28.5q-87 0 -155.5 -57t-68.5 -128v-471h-94v740h94v-112q39 58 106 88t145 30q107 0 179.5 -53t74.5 -150h101zM597 169v91h-109
q-37 0 -67.5 -23t-30.5 -70q0 -44 30.5 -70t78.5 -26q50 0 74 27t24 71z" />
    <glyph glyph-name="uni056A" unicode="&#x56a;" horiz-adv-x="688" 
d="M718 529v-83h-149v-208q0 -116 -68 -179t-180 -63q-114 0 -191 69.5t-77 192.5q0 114 70 192.5t194 78.5h158v228h94v-228h149zM475 246v200h-144q-89 0 -136.5 -55t-47.5 -138q0 -71 43.5 -124.5t128.5 -54.5q83 -1 119.5 46.5t36.5 125.5z" />
    <glyph glyph-name="uni056B" unicode="&#x56b;" horiz-adv-x="666" 
d="M386 532q94 0 147 -55t53 -150v-327h-94v302q0 67 -37.5 104.5t-103.5 37.5q-71 -1 -115 -45t-50 -116v-494h-94v968h94v-338q53 111 200 113z" />
    <glyph glyph-name="uni056C" unicode="&#x56c;" horiz-adv-x="304" 
d="M186 -139h150v-72h-244v740h94v-668z" />
    <glyph glyph-name="uni056D" unicode="&#x56d;" horiz-adv-x="943" 
d="M758 529h93v-529h-93v107q-47 -108 -176 -110q-82 0 -129 54.5t-47 150.5v255h-220v-668h-94v968h94v-228h313v-302q0 -143 115 -143q60 2 98 43t46 107v295z" />
    <glyph glyph-name="uni056E" unicode="&#x56e;" horiz-adv-x="642" 
d="M634 529v-72h-128q103 -102 101 -215q0 -107 -76 -176.5t-202 -68.5q-118 0 -196 73t-78 193q0 102 66.5 178.5t173.5 86.5q-93 78 -106 156q-5 24 1 46t15 32l9 11h93q-4 -4 -9.5 -10.5t-13 -26.5t-3.5 -39q7 -30 30.5 -62t46 -52t64.5 -54h212zM513 245q1 64 -33 112
t-98 100h-54q-76 0 -126.5 -60t-52.5 -134q0 -77 49 -131.5t134 -55.5q88 0 134.5 53.5t46.5 115.5z" />
    <glyph glyph-name="uni056F" unicode="&#x56f;" horiz-adv-x="658" 
d="M472 529h94v-740h-94v323q-52 -113 -195 -115q-92 0 -144 54.5t-52 150.5v555h93v-530q0 -67 36.5 -104.5t100.5 -37.5q74 1 117.5 52.5t43.5 131.5v260z" />
    <glyph glyph-name="uni0570" unicode="&#x570;" horiz-adv-x="667" 
d="M387 532q94 0 147 -55t53 -150v-327h-94v302q0 67 -37.5 104.5t-103.5 37.5q-77 -1 -121.5 -52t-44.5 -132v-260h-94v757h94v-340q53 113 201 115z" />
    <glyph glyph-name="uni0571" unicode="&#x571;" horiz-adv-x="635" 
d="M382 508q103 -45 153.5 -117t50.5 -199v-192h-94v82q-58 -85 -182 -85q-64 0 -119 24.5t-92 80t-37 133.5q0 148 155 256q106 78 168 112h-122q-62 0 -93 31.5t-31 86.5v36h101v-35q0 -24 11 -35.5t39 -11.5h177q33 -1 46 -16t6.5 -34.5t-26.5 -34.5q-37 -25 -111 -82z
M317 78q59 0 108.5 36t66.5 98q-2 95 -40.5 150t-133.5 96l-47 -38q-114 -83 -115 -184q-1 -70 41.5 -114t119.5 -44z" />
    <glyph glyph-name="uni0572" unicode="&#x572;" horiz-adv-x="704" 
d="M586 -139h150v-72h-244v513q0 67 -37.5 104.5t-103.5 37.5q-71 -1 -115 -45t-50 -116v-283h-94v529h94v-110q53 111 200 113q94 0 147 -55t53 -150v-466z" />
    <glyph glyph-name="uni0573" unicode="&#x573;" horiz-adv-x="663" 
d="M623 0h-93l-3 96q-78 -101 -221 -100q-88 1 -145.5 43t-74.5 104.5t1 130.5l44 161h-110v82h132l24 87q24 83 79.5 121t155.5 38h143v-82h-129q-65 0 -103.5 -24t-55.5 -80l-17 -60h95q143 0 205 -64t66 -204zM334 78q43 0 79 14.5t58 37.5t35 47.5t17 47.5l-1 17
q-3 100 -45 146.5t-154 46.5h-97l-46 -162q-12 -33 -7 -67.5t21 -63t52.5 -46.5t87.5 -18z" />
    <glyph glyph-name="uni0574" unicode="&#x574;" horiz-adv-x="657" 
d="M716 757v-72h-151v-685h-93v112q-52 -115 -195 -115q-92 0 -144 54.5t-52 150.5v327h93v-302q0 -67 36.5 -105t100.5 -37q74 1 117.5 52.5t43.5 131.5v488h244z" />
    <glyph glyph-name="uni0575" unicode="&#x575;" horiz-adv-x="293" 
d="M59 -150v-68q53 10 89 28.5t54 42.5t25 55t3.5 62t-11 68t-16.5 69t-16 68.5t-8 63.5v290h-94v-279q0 -44 12.5 -100.5t24 -97.5t15.5 -82t-14.5 -71.5t-63.5 -48.5z" />
    <glyph glyph-name="uni0576" unicode="&#x576;" horiz-adv-x="662" 
d="M476 529h94v-529h-94v112q-52 -113 -195 -115q-92 0 -144.5 54.5t-52.5 150.5v483h-150v72h244v-530q0 -67 36.5 -104.5t100.5 -37.5q74 1 117.5 52.5t43.5 131.5v260z" />
    <glyph glyph-name="uni0577" unicode="&#x577;" horiz-adv-x="567" 
d="M519 -138h-270q-51 0 -76 22t-24 55q0 14 5.5 26.5t17 23.5t23 20t31.5 20t34.5 18l40 19l39.5 19q72 33 103 59q81 67 80 177q-1 88 -64 149t-169 61q-107 0 -167 -54t-65 -145h94q3 53 39 86t99 32q67 -1 102.5 -37t36.5 -95q0 -32 -10.5 -57t-32 -42.5t-39 -27.5
t-45.5 -23q-7 -3 -11 -5l-45 -21.5l-48 -23t-42 -23t-40.5 -29t-29.5 -32t-23 -40.5t-7 -47q-1 -86 51 -121.5t140 -35.5h272v72z" />
    <glyph glyph-name="uni0578" unicode="&#x578;" horiz-adv-x="666" 
d="M386 532q94 0 147 -55t53 -150v-327h-94v302q0 67 -37.5 104.5t-103.5 37.5q-71 -1 -115 -45t-50 -116v-283h-94v529h94v-110q53 111 200 113z" />
    <glyph glyph-name="uni0579" unicode="&#x579;" horiz-adv-x="453" 
d="M484 -139h-263q-23 0 -36.5 1t-28.5 4.5t-22 12.5t-7 23q0 12 7.5 28t23 34.5t27.5 31.5t32.5 33l25.5 25l111 104q31 35 24.5 69t-43.5 61l-84 64q-38 28 -9 60l72 82l-65 51l-106 -121q-20 -26 -16.5 -51t27.5 -42l93 -74q50 -33 16 -68l-101 -91q-33 -33 -46 -47
t-37 -43.5t-34 -54.5t-10 -51q0 -56 41 -84.5t142 -28.5h266v72z" />
    <glyph glyph-name="uni057A" unicode="&#x57a;" horiz-adv-x="971" 
d="M786 529h93v-740h-93v318q-47 -108 -176 -110q-66 0 -109.5 35t-58.5 99q-43 -132 -185 -134q-83 0 -129.5 54.5t-46.5 150.5v327h93v-302q0 -69 29 -106t86 -37q67 2 106 53t39 131v261h93v-302q0 -143 115 -143q59 2 97.5 43t46.5 107v295z" />
    <glyph glyph-name="uni057B" unicode="&#x57b;" horiz-adv-x="599" 
d="M159 -83q0 -30 26.5 -44t68.5 -12h291v-72h-298q-93 0 -137.5 25.5t-44.5 101.5q0 75 97 131q64 62 32 97q-8 9 -32 24t-42 29t-33.5 46t-15.5 75q-1 92 61.5 153t173.5 61q113 0 177.5 -63.5t66.5 -152.5q1 -104 -47.5 -164t-151.5 -108q-17 -8 -45.5 -20t-42.5 -18.5
l-34.5 -16.5t-30.5 -17t-20.5 -16t-14.5 -18.5t-4 -20.5zM286 176q7 -15 3 -36t-15 -39l28 12q76 33 116.5 76t37.5 123q-2 58 -41 98.5t-107 40.5q-65 -1 -104.5 -40.5t-38.5 -89.5q0 -38 16 -62t36 -32.5t41 -21.5t28 -29z" />
    <glyph glyph-name="uni057C" unicode="&#x57c;" horiz-adv-x="654" 
d="M447 72h157v-72h-251v72h1q7 8 38 39.5t40.5 43.5t27.5 38.5t24.5 52t7.5 56.5q0 67 -37.5 104.5t-103.5 37.5q-71 -1 -115 -45t-50 -116v-283h-94v529h94v-110q53 111 200 113q94 0 147 -55t53 -150q0 -79 -37 -139t-102 -116z" />
    <glyph glyph-name="uni057D" unicode="&#x57d;" horiz-adv-x="658" 
d="M472 529h94v-529h-94v112q-52 -113 -195 -115q-92 0 -144 54.5t-52 150.5v327h93v-302q0 -67 36.5 -104.5t100.5 -37.5q74 1 117.5 52.5t43.5 131.5v260z" />
    <glyph glyph-name="uni057E" unicode="&#x57e;" horiz-adv-x="684" 
d="M566 -139h150v-72h-244v323q-52 -113 -195 -115q-92 0 -144 54.5t-52 150.5v327h93v-302q0 -67 36.5 -104.5t100.5 -37.5q74 1 117.5 52.5t43.5 131.5v488h94v-896z" />
    <glyph glyph-name="uni057F" unicode="&#x57f;" horiz-adv-x="952" 
d="M696 532q82 0 128.5 -54.5t46.5 -150.5v-327h-93v302q0 143 -115 143q-52 -1 -88.5 -34.5t-50.5 -88.5v-322h-93v104q-48 -105 -174 -107q-83 0 -129.5 54.5t-46.5 150.5v327h93v-302q0 -69 29 -106t86 -37q58 2 95.5 41t46.5 102v302h93v-96q49 97 172 99z" />
    <glyph glyph-name="uni0580" unicode="&#x580;" horiz-adv-x="666" 
d="M386 532q94 0 147 -55t53 -150v-327h-94v302q0 67 -37.5 104.5t-103.5 37.5q-71 -1 -115 -45t-50 -116v-494h-94v740h94v-110q53 111 200 113z" />
    <glyph glyph-name="uni0581" unicode="&#x581;" horiz-adv-x="655" 
d="M474 529h93v-496q0 -115 -73 -183t-196 -68q-119 0 -218 74l41 68q78 -63 173 -63q82 0 131 45.5t49 123.5v96q-58 -102 -187 -102q-106 0 -173 71.5t-67 184.5q0 111 66 181t171 71q131 2 190 -102v99zM305 99q74 0 121.5 50t47.5 128q0 79 -47.5 129t-121.5 50
t-121.5 -50.5t-48.5 -128.5q1 -78 48 -128t122 -50z" />
    <glyph glyph-name="uni0582" unicode="&#x582;" horiz-adv-x="319" 
d="M121 72h150v-72h-244v529h94v-457z" />
    <glyph glyph-name="uni0583" unicode="&#x583;" horiz-adv-x="952" 
d="M696 532q82 0 128.5 -54.5t46.5 -150.5v-327h-93v302q0 143 -115 143q-52 -1 -88.5 -34.5t-50.5 -88.5v-533h-93v315q-48 -105 -174 -107q-83 0 -129.5 54.5t-46.5 150.5v327h93v-302q0 -69 29 -106t86 -37q58 2 95.5 41t46.5 102v533h93v-327q49 97 172 99z" />
    <glyph glyph-name="uni0584" unicode="&#x584;" horiz-adv-x="721" 
d="M677 -62v-71h-471v-78h-94v78h-78v71h78v591h94v-105q61 108 196 108q112 0 182.5 -75t70.5 -194q0 -118 -69.5 -192t-181.5 -74q-137 0 -198 107v-166h471zM383 453q-77 0 -127 -53t-50 -134q0 -83 49.5 -135.5t127.5 -52.5t128 53t50 135q0 81 -50 134t-128 53z" />
    <glyph glyph-name="uni0585" unicode="&#x585;" horiz-adv-x="632" 
d="M316 532q120 0 196 -74.5t76 -192.5q0 -119 -76 -193.5t-196 -74.5t-196 74.5t-76 193.5q0 118 76 192.5t196 74.5zM316 451q-78 0 -128 -52.5t-50 -134.5q0 -84 50 -136t128 -52t128 52t50 136q0 82 -50 134.5t-128 52.5z" />
    <glyph glyph-name="uni0586" unicode="&#x586;" horiz-adv-x="771" 
d="M750 233q1 -108 -87.5 -169t-224.5 -70v-205h-94v206q-93 7 -165 37t-116 87t-42 134h94q-2 -73 60 -120.5t169 -56.5v326q-221 19 -221 174q0 47 20 83t53.5 56.5t70.5 30.5t77 11h94v-279q310 -22 312 -245zM217 581q0 -46 31 -68.5t96 -29.5v193q-64 -1 -95.5 -27.5
t-31.5 -67.5zM438 75q98 7 157.5 46t60.5 112q0 76 -54 115t-164 48v-321z" />
    <glyph glyph-name="uni05650582" unicode="&#x587;" horiz-adv-x="764" 
d="M566 72h150v-72h-244v112q-52 -113 -195 -115q-92 0 -144 54.5t-52 150.5v555h93v-530q0 -67 36.5 -104.5t100.5 -37.5q74 1 117.5 52.5t43.5 131.5v259h94v-456z" />
    <glyph glyph-name="uni0589" unicode="&#x589;" horiz-adv-x="305" 
d="M153 534q23 0 38.5 -16t15.5 -41t-15.5 -41.5t-38.5 -16.5q-24 0 -39.5 16.5t-15.5 41.5t15.5 41t39.5 16zM153 106q23 0 38.5 -16t15.5 -41t-15.5 -41.5t-38.5 -16.5q-24 0 -39.5 16.5t-15.5 41.5t15.5 41t39.5 16z" />
    <glyph glyph-name="uni058A" unicode="&#x58a;" horiz-adv-x="424" 
d="M380 261l14 -62q-85 -61 -179 -62q-54 -1 -103.5 19t-81.5 47l24 60q78 -53 160 -56q71 -1 166 54z" />
    <glyph glyph-name="uni058F" unicode="&#x58f;" horiz-adv-x="838" 
d="M850 281h-166v-102h166v-88h-166v-91h-96v91h-172v88h172v102h-172v88h172v102q0 96 -54 151t-147 55t-146 -54.5t-53 -151.5v-127h-96v127q0 137 78.5 215t216.5 78q139 0 218 -78t79 -215v-102h166v-88z" />
    <glyph glyph-name="uni1E08" unicode="&#x1e08;" horiz-adv-x="699" 
d="M523 860l-124 -98l-79 10l107 130zM411 -52q40 -6 60.5 -27.5t20.5 -50.5q0 -40 -31 -63.5t-79 -23.5q-46 0 -92 21l20 57q32 -13 61 -13q22 0 34.5 9.5t12.5 21.5q0 13 -13.5 21.5t-37.5 8.5h-32l27 86q-139 14 -231.5 115t-92.5 241q0 149 106 252t260 103
q73 0 141.5 -27.5t118.5 -77.5l-57 -69q-86 89 -202 89q-113 0 -191.5 -78.5t-78.5 -190.5t79 -190.5t191 -78.5q115 0 202 84l58 -63q-103 -99 -238 -110z" />
    <glyph glyph-name="uni1E09" unicode="&#x1e09;" horiz-adv-x="562" 
d="M431 718l-124 -98l-79 10l107 130zM520 90q-66 -83 -190 -92l-17 -50q40 -6 60.5 -27.5t20.5 -50.5q0 -40 -31 -63.5t-79 -23.5q-46 0 -92 21l20 57q32 -13 61 -13q22 0 34.5 9.5t12.5 21.5q0 13 -13.5 21.5t-37.5 8.5h-32l28 90q-101 13 -163.5 85t-62.5 180
q0 118 74 193t190 75q135 0 210 -80l-51 -64q-64 62 -155 61q-77 0 -126 -51.5t-49 -133.5q0 -83 49 -134.5t126 -51.5q105 0 160 66z" />
    <glyph glyph-name="uni1E0C" unicode="&#x1e0c;" horiz-adv-x="783" 
d="M385 700q155 0 258 -99.5t103 -250.5q0 -150 -104 -250t-260 -100h-282v700h285zM387 87q111 0 186 74.5t75 187.5t-76.5 188.5t-188.5 75.5h-187v-526h191zM383 -74q25 0 41.5 -17t16.5 -43t-16.5 -43t-41.5 -17t-41.5 17t-16.5 43t16.5 43t41.5 17z" />
    <glyph glyph-name="uni1E0D" unicode="&#x1e0d;" horiz-adv-x="680" 
d="M491 742h93v-742h-93v105q-61 -110 -198 -110q-113 0 -183.5 75.5t-70.5 195.5q0 118 70.5 192.5t182.5 74.5q138 0 199 -109v318zM312 75q79 0 129 52.5t50 135.5t-50 136t-129 53t-129 -53t-50 -136t50 -135.5t129 -52.5zM351 -74q25 0 41.5 -17t16.5 -43t-16.5 -43
t-41.5 -17t-41.5 17t-16.5 43t16.5 43t41.5 17z" />
    <glyph glyph-name="uni1E0E" unicode="&#x1e0e;" horiz-adv-x="783" 
d="M385 700q155 0 258 -99.5t103 -250.5q0 -150 -104 -250t-260 -100h-282v700h285zM387 87q111 0 186 74.5t75 187.5t-76.5 188.5t-188.5 75.5h-187v-526h191zM239 -82h287v-62h-287v62z" />
    <glyph glyph-name="uni1E0F" unicode="&#x1e0f;" horiz-adv-x="680" 
d="M491 742h93v-742h-93v105q-61 -110 -198 -110q-113 0 -183.5 75.5t-70.5 195.5q0 118 70.5 192.5t182.5 74.5q138 0 199 -109v318zM312 75q79 0 129 52.5t50 135.5t-50 136t-129 53t-129 -53t-50 -136t50 -135.5t129 -52.5zM207 -144v62h287v-62h-287z" />
    <glyph glyph-name="uni1E14" unicode="&#x1e14;" horiz-adv-x="653" 
d="M294 1004l130 -107l-71 -22l-139 75zM240 829h246v-61h-246v61zM100 700h486v-87h-390v-216h349v-87h-349v-223h402v-87h-498v700z" />
    <glyph glyph-name="uni1E15" unicode="&#x1e15;" horiz-adv-x="588" 
d="M355 735l-71 -22l-139 75l80 54zM171 606v61h246v-61h-246zM303 532q130 0 193 -81t55 -223h-418q11 -71 59.5 -113t119.5 -42q96 0 158 65l51 -53q-80 -88 -216 -88q-118 0 -192 74t-74 193q0 118 73.5 192.5t190.5 75.5zM132 300h336q-4 72 -48 113.5t-116 41.5
q-70 0 -116.5 -42t-55.5 -113z" />
    <glyph glyph-name="uni1E16" unicode="&#x1e16;" horiz-adv-x="653" 
d="M402 1004l80 -54l-139 -75l-71 22zM219 829h246v-61h-246v61zM100 700h486v-87h-390v-216h349v-87h-349v-223h402v-87h-498v700z" />
    <glyph glyph-name="uni1E17" unicode="&#x1e17;" horiz-adv-x="588" 
d="M439 788l-139 -75l-71 22l130 107zM422 667v-61h-246v61h246zM303 532q130 0 193 -81t55 -223h-418q11 -71 59.5 -113t119.5 -42q96 0 158 65l51 -53q-80 -88 -216 -88q-118 0 -192 74t-74 193q0 118 73.5 192.5t190.5 75.5zM132 300h336q-4 72 -48 113.5t-116 41.5
q-70 0 -116.5 -42t-55.5 -113z" />
    <glyph glyph-name="uni1E1C" unicode="&#x1e1c;" horiz-adv-x="653" 
d="M335 762q-57 0 -94 37t-39 97h65q2 -30 21 -50t47 -20t47 20t21 50h65q-2 -60 -39 -97t-94 -37zM598 0h-206l-18 -52q40 -6 60.5 -27.5t20.5 -50.5q0 -40 -31 -63.5t-79 -23.5q-47 0 -92 21l20 57q32 -13 61 -13q22 0 34.5 9.5t12.5 21.5q0 13 -13.5 21.5t-37.5 8.5h-32
l28 91h-226v700h486v-87h-390v-216h349v-87h-349v-223h402v-87z" />
    <glyph glyph-name="uni1E1D" unicode="&#x1e1d;" horiz-adv-x="588" 
d="M290 618q-56 0 -93.5 37t-39.5 97h65q2 -30 21 -50t47 -20t47 20t21 50h65q-2 -60 -39.5 -97t-93.5 -37zM303 532q130 0 193 -81t55 -223h-418q11 -71 59.5 -113t119.5 -42q96 0 158 65l51 -53q-69 -76 -180 -86l-18 -51q40 -6 60.5 -27.5t20.5 -50.5q0 -40 -31 -63.5
t-79 -23.5q-46 0 -92 21l20 57q32 -13 61 -13q22 0 34.5 9.5t12.5 21.5q0 13 -13.5 21.5t-37.5 8.5h-32l28 89q-107 10 -171.5 82.5t-64.5 183.5q0 118 73.5 192.5t190.5 75.5zM132 300h336q-4 72 -48 113.5t-116 41.5q-70 0 -116.5 -42t-55.5 -113z" />
    <glyph glyph-name="uni1E20" unicode="&#x1e20;" horiz-adv-x="751" 
d="M539 833v-62h-308v62h308zM584 134v208h85v-257q-53 -42 -124 -67t-141 -25q-154 0 -260 104t-106 254q0 149 107 252t264 103q73 0 142.5 -26t120.5 -71l-55 -70q-88 82 -208 82q-115 0 -194.5 -78.5t-79.5 -191.5t80 -192.5t195 -79.5q92 0 174 55z" />
    <glyph glyph-name="uni1E21" unicode="&#x1e21;" horiz-adv-x="638" 
d="M447 710v-62h-287v62h287zM465 529h94v-475q0 -115 -73.5 -183t-196.5 -68q-117 0 -218 74l41 68q78 -63 173 -63q82 0 131 46t49 123v74q-58 -101 -186 -101q-107 0 -173.5 71t-66.5 185q0 111 65.5 181t171.5 71q129 1 189 -100v97zM297 99q74 0 121 50t47 128
q0 79 -47 129t-121 50q-75 0 -122 -50.5t-48 -128.5q1 -78 48 -128t122 -50z" />
    <glyph glyph-name="uni1E24" unicode="&#x1e24;" horiz-adv-x="793" 
d="M100 700h96v-312h400v312h97v-700h-97v301h-400v-301h-96v700zM396 -74q25 0 41.5 -17t16.5 -43t-16.5 -43t-41.5 -17t-41.5 17t-16.5 43t16.5 43t41.5 17z" />
    <glyph glyph-name="uni1E25" unicode="&#x1e25;" horiz-adv-x="665" 
d="M391 532q93 0 146 -54.5t53 -150.5v-327h-93v302q0 67 -37.5 104.5t-103.5 37.5q-77 -1 -122 -52t-45 -132v-260h-93v742h93v-327q53 115 202 117zM343 -74q25 0 41.5 -17t16.5 -43t-16.5 -43t-41.5 -17t-41.5 17t-16.5 43t16.5 43t41.5 17z" />
    <glyph glyph-name="uni1E2A" unicode="&#x1e2a;" horiz-adv-x="793" 
d="M100 700h96v-312h400v312h97v-700h-97v301h-400v-301h-96v700zM328 -50q2 -30 21 -50t47 -20t47 20t21 50h65q-2 -60 -39.5 -97t-93.5 -37t-93.5 37t-39.5 97h65z" />
    <glyph glyph-name="uni1E2B" unicode="&#x1e2b;" horiz-adv-x="665" 
d="M391 532q93 0 146 -54.5t53 -150.5v-327h-93v302q0 67 -37.5 104.5t-103.5 37.5q-77 -1 -122 -52t-45 -132v-260h-93v742h93v-327q53 115 202 117zM343 -120q28 0 47 20t21 50h65q-2 -60 -39 -97t-94 -37t-94 37t-39 97h65q2 -30 21 -50t47 -20z" />
    <glyph glyph-name="uni1E2E" unicode="&#x1e2e;" horiz-adv-x="296" 
d="M205 1012l80 -54l-139 -75l-71 22zM65 868q21 0 35.5 -15t14.5 -37q0 -23 -14.5 -38.5t-35.5 -15.5q-22 0 -37 15.5t-15 38.5q0 22 14.5 37t37.5 15zM226 868q21 0 36 -15t15 -37t-15 -38t-36 -16q-22 0 -37 15.5t-15 38.5q0 22 15 37t37 15zM100 700h96v-700h-96v700z
" />
    <glyph glyph-name="uni1E2F" unicode="&#x1e2f;" horiz-adv-x="274" 
d="M194 854l80 -54l-139 -75l-71 22zM54 710q21 0 35.5 -15t14.5 -37q0 -23 -14.5 -38.5t-35.5 -15.5q-22 0 -37 15.5t-15 38.5q0 22 15 37t37 15zM215 710q21 0 36 -15t15 -37t-15 -38t-36 -16q-22 0 -37 15.5t-15 38.5q0 22 15 37t37 15zM91 529h93v-529h-93v529z" />
    <glyph glyph-name="uni1E36" unicode="&#x1e36;" horiz-adv-x="524" 
d="M100 700h96v-613h306v-87h-402v700zM301 -74q25 0 41.5 -17t16.5 -43t-16.5 -43t-41.5 -17t-41.5 17t-16.5 43t16.5 43t41.5 17z" />
    <glyph glyph-name="uni1E37" unicode="&#x1e37;" horiz-adv-x="285" 
d="M96 742h93v-742h-93v742zM143 -74q25 0 41.5 -17t16.5 -43t-16.5 -43t-41.5 -17t-41.5 17t-16.5 43t16.5 43t41.5 17z" />
    <glyph glyph-name="uni1E3A" unicode="&#x1e3a;" horiz-adv-x="524" 
d="M100 700h96v-613h306v-87h-402v700zM157 -82h287v-62h-287v62z" />
    <glyph glyph-name="uni1E3B" unicode="&#x1e3b;" horiz-adv-x="285" 
d="M96 742h93v-742h-93v742zM-1 -82h287v-62h-287v62z" />
    <glyph glyph-name="uni1E42" unicode="&#x1e42;" horiz-adv-x="939" 
d="M100 700h114l256 -492l254 492h115v-700h-90l-1 559l-249 -485h-59l-251 485v-559h-89v700zM469 -74q25 0 41.5 -17t16.5 -43t-16.5 -43t-41.5 -17t-41.5 17t-16.5 43t16.5 43t41.5 17z" />
    <glyph glyph-name="uni1E43" unicode="&#x1e43;" horiz-adv-x="1044" 
d="M774 532q91 0 143 -55t52 -150v-327h-94v302q0 67 -36.5 105t-100.5 38q-75 -2 -118 -53t-43 -131v-261h-94v302q0 67 -36 105t-101 38q-75 -2 -118.5 -53t-43.5 -131v-261h-93v529h93v-111q52 112 197 114q73 0 121.5 -35t65.5 -98q49 131 206 133zM530 -74
q25 0 41.5 -17t16.5 -43t-16.5 -43t-41.5 -17t-41.5 17t-16.5 43t16.5 43t41.5 17z" />
    <glyph glyph-name="uni1E44" unicode="&#x1e44;" horiz-adv-x="794" 
d="M408 762q-25 0 -41.5 17t-16.5 43t16.5 43t41.5 17q24 0 41 -17t17 -43q0 -25 -17 -42.5t-41 -17.5zM598 700h95v-700h-97l-400 542v-542h-96v700h97l401 -543v543z" />
    <glyph glyph-name="uni1E45" unicode="&#x1e45;" horiz-adv-x="659" 
d="M345 620q-25 0 -41.5 17t-16.5 43t16.5 43t41.5 17t41.5 -17t16.5 -43t-16.5 -43t-41.5 -17zM385 532q93 0 146 -54.5t53 -150.5v-327h-93v302q0 67 -37.5 104.5t-103.5 37.5q-71 -1 -115.5 -45.5t-50.5 -115.5v-283h-93v529h93v-112q53 113 201 115z" />
    <glyph glyph-name="uni1E46" unicode="&#x1e46;" horiz-adv-x="794" 
d="M598 700h95v-700h-97l-400 542v-542h-96v700h97l401 -543v543zM396 -74q25 0 41.5 -17t16.5 -43t-16.5 -43t-41.5 -17t-41.5 17t-16.5 43t16.5 43t41.5 17z" />
    <glyph glyph-name="uni1E47" unicode="&#x1e47;" horiz-adv-x="659" 
d="M385 532q93 0 146 -54.5t53 -150.5v-327h-93v302q0 67 -37.5 104.5t-103.5 37.5q-71 -1 -115.5 -45.5t-50.5 -115.5v-283h-93v529h93v-112q53 113 201 115zM334 -74q25 0 41.5 -17t16.5 -43t-16.5 -43t-41.5 -17t-41.5 17t-16.5 43t16.5 43t41.5 17z" />
    <glyph glyph-name="uni1E48" unicode="&#x1e48;" horiz-adv-x="794" 
d="M598 700h95v-700h-97l-400 542v-542h-96v700h97l401 -543v543zM252 -144v62h287v-62h-287z" />
    <glyph glyph-name="uni1E49" unicode="&#x1e49;" horiz-adv-x="659" 
d="M385 532q93 0 146 -54.5t53 -150.5v-327h-93v302q0 67 -37.5 104.5t-103.5 37.5q-71 -1 -115.5 -45.5t-50.5 -115.5v-283h-93v529h93v-112q53 113 201 115zM190 -144v62h287v-62h-287z" />
    <glyph glyph-name="uni1E4C" unicode="&#x1e4c;" horiz-adv-x="812" 
d="M467 1036l80 -54l-139 -75l-71 22zM558 870q0 -106 -79 -106q-32 0 -76.5 24t-59.5 24q-35 0 -35 -45h-55q0 48 19.5 77.5t60.5 29.5q32 0 77 -24t60 -24q34 0 34 44h54zM406 706q155 0 261.5 -103t106.5 -252q0 -150 -107 -254t-261 -104t-261 104t-107 254t106.5 252.5
t261.5 102.5zM407 620q-112 0 -192 -78.5t-80 -190.5t80.5 -191.5t191.5 -79.5t190 79.5t79 191.5t-79 190.5t-190 78.5z" />
    <glyph glyph-name="uni1E4D" unicode="&#x1e4d;" horiz-adv-x="621" 
d="M372 875l80 -54l-139 -75l-71 22zM463 709q0 -106 -79 -106q-32 0 -76.5 24t-59.5 24q-35 0 -35 -45h-55q0 48 19.5 77.5t60.5 29.5q32 0 77 -24t60 -24q34 0 34 44h54zM311 532q119 0 195 -74.5t76 -192.5q0 -119 -75.5 -193.5t-195.5 -74.5q-121 0 -196.5 74.5
t-75.5 193.5t75.5 193t196.5 74zM311 451q-79 0 -128.5 -52t-49.5 -135q0 -84 49.5 -136t128.5 -52q78 0 127.5 52t49.5 136q0 82 -50 134.5t-127 52.5z" />
    <glyph glyph-name="uni1E4E" unicode="&#x1e4e;" horiz-adv-x="812" 
d="M315 1012q21 0 35.5 -15t14.5 -37q0 -23 -14.5 -38.5t-35.5 -15.5q-22 0 -37 15.5t-15 38.5q0 22 14.5 37t37.5 15zM476 1012q21 0 36 -15t15 -37t-15 -38t-36 -16q-22 0 -37 15.5t-15 38.5q0 22 15 37t37 15zM546 870q0 -106 -79 -106q-32 0 -76.5 24t-59.5 24
q-35 0 -35 -45h-55q0 48 19.5 77.5t60.5 29.5q32 0 77 -24t60 -24q34 0 34 44h54zM406 706q155 0 261.5 -103t106.5 -252q0 -150 -107 -254t-261 -104t-261 104t-107 254t106.5 252.5t261.5 102.5zM407 620q-112 0 -192 -78.5t-80 -190.5t80.5 -191.5t191.5 -79.5t190 79.5
t79 191.5t-79 190.5t-190 78.5z" />
    <glyph glyph-name="uni1E4F" unicode="&#x1e4f;" horiz-adv-x="621" 
d="M221 851q21 0 35.5 -15t14.5 -37q0 -23 -14.5 -38.5t-35.5 -15.5q-22 0 -37 15.5t-15 38.5t14.5 37.5t37.5 14.5zM382 851q21 0 36 -15t15 -37t-15 -38t-36 -16q-22 0 -37 15.5t-15 38.5q0 22 15 37t37 15zM452 709q0 -106 -79 -106q-32 0 -76.5 24t-59.5 24
q-35 0 -35 -45h-55q0 48 19.5 77.5t60.5 29.5q32 0 77 -24t60 -24q34 0 34 44h54zM311 532q119 0 195 -74.5t76 -192.5q0 -119 -75.5 -193.5t-195.5 -74.5q-121 0 -196.5 74.5t-75.5 193.5t75.5 193t196.5 74zM311 451q-79 0 -128.5 -52t-49.5 -135q0 -84 49.5 -136
t128.5 -52q78 0 127.5 52t49.5 136q0 82 -50 134.5t-127 52.5z" />
    <glyph glyph-name="uni1E50" unicode="&#x1e50;" horiz-adv-x="812" 
d="M349 1004l130 -107l-71 -22l-139 75zM295 829h246v-61h-246v61zM406 706q155 0 261.5 -103t106.5 -252q0 -150 -107 -254t-261 -104t-261 104t-107 254t106.5 252.5t261.5 102.5zM407 620q-112 0 -192 -78.5t-80 -190.5t80.5 -191.5t191.5 -79.5t190 79.5t79 191.5
t-79 190.5t-190 78.5z" />
    <glyph glyph-name="uni1E51" unicode="&#x1e51;" horiz-adv-x="621" 
d="M238 842l130 -107l-71 -22l-139 75zM184 667h246v-61h-246v61zM311 532q119 0 195 -74.5t76 -192.5q0 -119 -75.5 -193.5t-195.5 -74.5q-121 0 -196.5 74.5t-75.5 193.5t75.5 193t196.5 74zM311 451q-79 0 -128.5 -52t-49.5 -135q0 -84 49.5 -136t128.5 -52
q78 0 127.5 52t49.5 136q0 82 -50 134.5t-127 52.5z" />
    <glyph glyph-name="uni1E52" unicode="&#x1e52;" horiz-adv-x="812" 
d="M457 1004l80 -54l-139 -75l-71 22zM274 829h246v-61h-246v61zM406 706q155 0 261.5 -103t106.5 -252q0 -150 -107 -254t-261 -104t-261 104t-107 254t106.5 252.5t261.5 102.5zM407 620q-112 0 -192 -78.5t-80 -190.5t80.5 -191.5t191.5 -79.5t190 79.5t79 191.5
t-79 190.5t-190 78.5z" />
    <glyph glyph-name="uni1E53" unicode="&#x1e53;" horiz-adv-x="621" 
d="M372 842l80 -54l-139 -75l-71 22zM189 667h246v-61h-246v61zM311 532q119 0 195 -74.5t76 -192.5q0 -119 -75.5 -193.5t-195.5 -74.5q-121 0 -196.5 74.5t-75.5 193.5t75.5 193t196.5 74zM311 451q-79 0 -128.5 -52t-49.5 -135q0 -84 49.5 -136t128.5 -52q78 0 127.5 52
t49.5 136q0 82 -50 134.5t-127 52.5z" />
    <glyph glyph-name="uni1E5A" unicode="&#x1e5a;" horiz-adv-x="723" 
d="M499 237l163 -237h-110l-139 220q-24 -2 -39 -2h-178v-218h-96v700h274q133 0 205.5 -61.5t72.5 -174.5q0 -174 -153 -227zM196 305h178q90 0 138 39.5t48 116.5q0 75 -48 113.5t-138 38.5h-178v-308zM360 -74q25 0 41.5 -17t16.5 -43t-16.5 -43t-41.5 -17t-41.5 17
t-16.5 43t16.5 43t41.5 17z" />
    <glyph glyph-name="uni1E5B" unicode="&#x1e5b;" horiz-adv-x="382" 
d="M184 415q53 115 188 117v-90q-81 3 -131 -42t-57 -121v-279h-93v529h93v-114zM136 -74q25 0 41.5 -17t16.5 -43t-16.5 -43t-41.5 -17t-41.5 17t-16.5 43t16.5 43t41.5 17z" />
    <glyph glyph-name="uni1E5E" unicode="&#x1e5e;" horiz-adv-x="723" 
d="M499 237l163 -237h-110l-139 220q-24 -2 -39 -2h-178v-218h-96v700h274q133 0 205.5 -61.5t72.5 -174.5q0 -174 -153 -227zM196 305h178q90 0 138 39.5t48 116.5q0 75 -48 113.5t-138 38.5h-178v-308zM216 -144v62h287v-62h-287z" />
    <glyph glyph-name="uni1E5F" unicode="&#x1e5f;" horiz-adv-x="382" 
d="M184 415q53 115 188 117v-90q-81 3 -131 -42t-57 -121v-279h-93v529h93v-114zM28 -144v62h287v-62h-287z" />
    <glyph glyph-name="uni1E60" unicode="&#x1e60;" horiz-adv-x="616" 
d="M312 882q24 0 41 -17t17 -43q0 -25 -17 -42.5t-41 -17.5q-25 0 -41.5 17t-16.5 43t16.5 43t41.5 17zM509 554q-97 62 -198 62q-61 0 -97.5 -23.5t-36.5 -64.5q0 -35 21.5 -59.5t55.5 -38.5t75 -26t82.5 -27.5t75.5 -36.5t55 -58.5t21 -89.5q0 -90 -71.5 -144t-186.5 -54
q-77 0 -150 30t-126 80l43 83q50 -49 112.5 -75.5t121.5 -26.5q70 0 110.5 27.5t40.5 74.5q0 48 -40 77t-96.5 44.5t-113.5 35t-97 63t-40 113.5q0 85 68 136.5t180 51.5q130 0 231 -68z" />
    <glyph glyph-name="uni1E61" unicode="&#x1e61;" horiz-adv-x="460" 
d="M235 740q25 0 41.5 -17t16.5 -43t-16.5 -43t-41.5 -17t-41.5 17t-16.5 43t16.5 43t41.5 17zM380 412q-72 44 -148 44q-93 0 -93 -63q0 -30 30 -48.5t72.5 -30.5t85 -27.5t72 -50t29.5 -87.5q0 -74 -56.5 -113t-140.5 -39q-59 0 -114.5 19t-93.5 54l35 68q33 -30 81.5 -48
t94.5 -18t74 17t28 51q1 33 -28.5 53t-72 32t-84.5 27t-71.5 48.5t-29.5 85.5q0 73 54 110t135 37q102 0 175 -50z" />
    <glyph glyph-name="uni1E62" unicode="&#x1e62;" horiz-adv-x="616" 
d="M509 554q-97 62 -198 62q-61 0 -97.5 -23.5t-36.5 -64.5q0 -35 21.5 -59.5t55.5 -38.5t75 -26t82.5 -27.5t75.5 -36.5t55 -58.5t21 -89.5q0 -90 -71.5 -144t-186.5 -54q-77 0 -150 30t-126 80l43 83q50 -49 112.5 -75.5t121.5 -26.5q70 0 110.5 27.5t40.5 74.5
q0 48 -40 77t-96.5 44.5t-113.5 35t-97 63t-40 113.5q0 85 68 136.5t180 51.5q130 0 231 -68zM312 -74q25 0 41.5 -17t16.5 -43t-16.5 -43t-41.5 -17t-41.5 17t-16.5 43t16.5 43t41.5 17z" />
    <glyph glyph-name="uni1E63" unicode="&#x1e63;" horiz-adv-x="460" 
d="M380 412q-72 44 -148 44q-93 0 -93 -63q0 -30 30 -48.5t72.5 -30.5t85 -27.5t72 -50t29.5 -87.5q0 -74 -56.5 -113t-140.5 -39q-59 0 -114.5 19t-93.5 54l35 68q33 -30 81.5 -48t94.5 -18t74 17t28 51q1 33 -28.5 53t-72 32t-84.5 27t-71.5 48.5t-29.5 85.5q0 73 54 110
t135 37q102 0 175 -50zM229 -74q25 0 41.5 -17t16.5 -43t-16.5 -43t-41.5 -17t-41.5 17t-16.5 43t16.5 43t41.5 17z" />
    <glyph glyph-name="uni1E64" unicode="&#x1e64;" horiz-adv-x="616" 
d="M309 1015q23 0 39 -16.5t16 -40.5q0 -23 -16 -39.5t-39 -16.5q-22 0 -38 16.5t-16 39.5q0 24 15.5 40.5t38.5 16.5zM337 883l80 -54l-139 -75l-71 22zM509 554q-97 62 -198 62q-61 0 -97.5 -23.5t-36.5 -64.5q0 -35 21.5 -59.5t55.5 -38.5t75 -26t82.5 -27.5t75.5 -36.5
t55 -58.5t21 -89.5q0 -90 -71.5 -144t-186.5 -54q-77 0 -150 30t-126 80l43 83q50 -49 112.5 -75.5t121.5 -26.5q70 0 110.5 27.5t40.5 74.5q0 48 -40 77t-96.5 44.5t-113.5 35t-97 63t-40 113.5q0 85 68 136.5t180 51.5q130 0 231 -68z" />
    <glyph glyph-name="uni1E65" unicode="&#x1e65;" horiz-adv-x="460" 
d="M232 865q23 0 39 -16.5t16 -40.5q0 -23 -16 -39.5t-39 -16.5q-22 0 -38 16.5t-16 39.5q0 24 15.5 40.5t38.5 16.5zM260 733l80 -54l-139 -75l-71 22zM380 412q-72 44 -148 44q-93 0 -93 -63q0 -30 30 -48.5t72.5 -30.5t85 -27.5t72 -50t29.5 -87.5q0 -74 -56.5 -113
t-140.5 -39q-59 0 -114.5 19t-93.5 54l35 68q33 -30 81.5 -48t94.5 -18t74 17t28 51q1 33 -28.5 53t-72 32t-84.5 27t-71.5 48.5t-29.5 85.5q0 73 54 110t135 37q102 0 175 -50z" />
    <glyph glyph-name="uni1E66" unicode="&#x1e66;" horiz-adv-x="616" 
d="M321 888q-22 0 -38 16.5t-16 39.5q0 24 15.5 40.5t38.5 16.5t39 -16.5t16 -40.5q0 -23 -16 -39.5t-39 -16.5zM388 766h-130l-107 96h100l71 -56l72 56h100zM177 528q0 -35 21.5 -59.5t55.5 -38.5t75 -26t82.5 -27.5t75.5 -36.5t55 -58.5t21 -89.5q0 -90 -71.5 -144
t-186.5 -54q-77 0 -150 30t-126 80l43 83q50 -49 112.5 -75.5t121.5 -26.5q70 0 110.5 27.5t40.5 74.5q0 48 -40 77t-96.5 44.5t-113.5 35t-97 63t-40 113.5q0 85 68 136.5t180 51.5q130 0 231 -68l-40 -86q-97 62 -198 62q-61 0 -97.5 -23.5t-36.5 -64.5z" />
    <glyph glyph-name="uni1E67" unicode="&#x1e67;" horiz-adv-x="460" 
d="M244 728q-22 0 -38 16.5t-16 39.5q0 24 15.5 40.5t38.5 16.5t39 -16.5t16 -40.5q0 -23 -16 -39.5t-39 -16.5zM311 606h-130l-107 96h100l71 -56l72 56h100zM139 393q0 -30 30 -48.5t72.5 -30.5t85 -27.5t72 -50t29.5 -87.5q0 -74 -56.5 -113t-140.5 -39q-59 0 -114.5 19
t-93.5 54l35 68q33 -30 81.5 -48t94.5 -18t74 17t28 51q1 33 -28.5 53t-72 32t-84.5 27t-71.5 48.5t-29.5 85.5q0 73 54 110t135 37q102 0 175 -50l-34 -71q-72 44 -148 44q-93 0 -93 -63z" />
    <glyph glyph-name="uni1E68" unicode="&#x1e68;" horiz-adv-x="616" 
d="M312 882q24 0 41 -17t17 -43q0 -25 -17 -42.5t-41 -17.5q-25 0 -41.5 17t-16.5 43t16.5 43t41.5 17zM509 554q-97 62 -198 62q-61 0 -97.5 -23.5t-36.5 -64.5q0 -35 21.5 -59.5t55.5 -38.5t75 -26t82.5 -27.5t75.5 -36.5t55 -58.5t21 -89.5q0 -90 -71.5 -144t-186.5 -54
q-77 0 -150 30t-126 80l43 83q50 -49 112.5 -75.5t121.5 -26.5q70 0 110.5 27.5t40.5 74.5q0 48 -40 77t-96.5 44.5t-113.5 35t-97 63t-40 113.5q0 85 68 136.5t180 51.5q130 0 231 -68zM312 -74q25 0 41.5 -17t16.5 -43t-16.5 -43t-41.5 -17t-41.5 17t-16.5 43t16.5 43
t41.5 17z" />
    <glyph glyph-name="uni1E69" unicode="&#x1e69;" horiz-adv-x="460" 
d="M229 740q25 0 41.5 -17t16.5 -43t-16.5 -43t-41.5 -17t-41.5 17t-16.5 43t16.5 43t41.5 17zM380 412q-72 44 -148 44q-93 0 -93 -63q0 -30 30 -48.5t72.5 -30.5t85 -27.5t72 -50t29.5 -87.5q0 -74 -56.5 -113t-140.5 -39q-59 0 -114.5 19t-93.5 54l35 68q33 -30 81.5 -48
t94.5 -18t74 17t28 51q1 33 -28.5 53t-72 32t-84.5 27t-71.5 48.5t-29.5 85.5q0 73 54 110t135 37q102 0 175 -50zM229 -74q25 0 41.5 -17t16.5 -43t-16.5 -43t-41.5 -17t-41.5 17t-16.5 43t16.5 43t41.5 17z" />
    <glyph glyph-name="uni1E6C" unicode="&#x1e6c;" horiz-adv-x="567" 
d="M10 700h547v-88h-226v-612h-96v612h-225v88zM283 -74q25 0 41.5 -17t16.5 -43t-16.5 -43t-41.5 -17t-41.5 17t-16.5 43t16.5 43t41.5 17z" />
    <glyph glyph-name="uni1E6D" unicode="&#x1e6d;" horiz-adv-x="397" 
d="M375 35q-61 -39 -124 -39t-102 37.5t-39 113.5v293h-75v71h75v142h94v-142h162v-71h-162v-276q0 -44 16 -63t48 -19q38 0 82 25zM251 -74q25 0 41.5 -17t16.5 -43t-16.5 -43t-41.5 -17t-41.5 17t-16.5 43t16.5 43t41.5 17z" />
    <glyph glyph-name="uni1E6E" unicode="&#x1e6e;" horiz-adv-x="567" 
d="M10 700h547v-88h-226v-612h-96v612h-225v88zM139 -82h287v-62h-287v62z" />
    <glyph glyph-name="uni1E6F" unicode="&#x1e6f;" horiz-adv-x="397" 
d="M110 147v293h-75v71h75v142h94v-142h162v-71h-162v-276q0 -44 16 -63t48 -19q38 0 82 25l25 -72q-61 -39 -124 -39t-102 37.5t-39 113.5zM107 -82h287v-62h-287v62z" />
    <glyph glyph-name="uni1E78" unicode="&#x1e78;" horiz-adv-x="762" 
d="M443 1036l80 -54l-139 -75l-71 22zM534 870q0 -106 -79 -106q-32 0 -76.5 24t-59.5 24q-35 0 -35 -45h-55q0 48 19.5 77.5t60.5 29.5q32 0 77 -24t60 -24q34 0 34 44h54zM181 286q0 -97 53.5 -151.5t147.5 -54.5q93 0 146 54.5t53 151.5v414h96v-414q0 -137 -78.5 -215
t-216.5 -78q-139 0 -218 78t-79 215v414h96v-414z" />
    <glyph glyph-name="uni1E79" unicode="&#x1e79;" horiz-adv-x="649" 
d="M466 821l-139 -75l-71 22l130 107zM262 651q-35 0 -35 -45h-55q0 48 19.5 77.5t60.5 29.5q32 0 77 -24t60 -24q34 0 34 44h54q0 -106 -79 -106q-32 0 -76.5 24t-59.5 24zM465 529h94v-529h-94v112q-52 -113 -196 -115q-92 0 -144 54.5t-52 150.5v327h94v-302
q0 -67 36.5 -104.5t100.5 -37.5q74 1 117.5 52.5t43.5 131.5v260z" />
    <glyph glyph-name="uni1E7A" unicode="&#x1e7a;" horiz-adv-x="762" 
d="M288 980q21 0 35.5 -15t14.5 -37q0 -23 -14.5 -38.5t-35.5 -15.5q-22 0 -37 15.5t-15 38.5q0 22 15 37t37 15zM449 980q21 0 36 -15t15 -37t-15 -38t-36 -16q-22 0 -37 15.5t-15 38.5q0 22 15 37t37 15zM245 829h246v-61h-246v61zM181 286q0 -97 53.5 -151.5t147.5 -54.5
q93 0 146 54.5t53 151.5v414h96v-414q0 -137 -78.5 -215t-216.5 -78q-139 0 -218 78t-79 215v414h96v-414z" />
    <glyph glyph-name="uni1E7B" unicode="&#x1e7b;" horiz-adv-x="649" 
d="M228 712q-22 0 -37 15.5t-15 38.5q0 22 15 37t37 15q21 0 35.5 -15t14.5 -37q0 -23 -14.5 -38.5t-35.5 -15.5zM389 712q-22 0 -37 15.5t-15 38.5q0 22 15 37t37 15q21 0 36 -15t15 -37t-15 -38t-36 -16zM185 606v61h246v-61h-246zM465 529h94v-529h-94v112
q-52 -113 -196 -115q-92 0 -144 54.5t-52 150.5v327h94v-302q0 -67 36.5 -104.5t100.5 -37.5q74 1 117.5 52.5t43.5 131.5v260z" />
    <glyph glyph-name="Wgrave" unicode="&#x1e80;" horiz-adv-x="1046" 
d="M573 772l-79 -10l-124 98l96 42zM942 700h100l-237 -700h-100l-181 578l-184 -578h-99l-236 700h103l185 -597l184 597h96l185 -597z" />
    <glyph glyph-name="wgrave" unicode="&#x1e81;" horiz-adv-x="876" 
d="M384 752l107 -130l-79 -10l-124 98zM3 529h97l148 -437l146 437h97l147 -437l146 437h96l-195 -529h-97l-146 416l-146 -416h-97z" />
    <glyph glyph-name="Wacute" unicode="&#x1e82;" horiz-adv-x="1046" 
d="M675 860l-124 -98l-79 10l107 130zM942 700h100l-237 -700h-100l-181 578l-184 -578h-99l-236 700h103l185 -597l184 597h96l185 -597z" />
    <glyph glyph-name="wacute" unicode="&#x1e83;" horiz-adv-x="876" 
d="M497 752l96 -42l-124 -98l-79 10zM3 529h97l148 -437l146 437h97l147 -437l146 437h96l-195 -529h-97l-146 416l-146 -416h-97z" />
    <glyph glyph-name="Wdieresis" unicode="&#x1e84;" horiz-adv-x="1046" 
d="M439 762q-22 0 -37.5 16t-15.5 39q0 24 15 39t38 15q22 0 37 -15t15 -39q0 -23 -15 -39t-37 -16zM611 762q-22 0 -37.5 16t-15.5 39q0 24 15 39t38 15t38 -15t15 -39q0 -23 -15.5 -39t-37.5 -16zM942 700h100l-237 -700h-100l-181 578l-184 -578h-99l-236 700h103
l185 -597l184 597h96l185 -597z" />
    <glyph glyph-name="wdieresis" unicode="&#x1e85;" horiz-adv-x="876" 
d="M356 734q23 0 38 -15.5t15 -39.5q0 -23 -15 -38.5t-38 -15.5t-38 15.5t-15 38.5q0 24 15 39.5t38 15.5zM528 734q23 0 38 -15.5t15 -39.5q0 -23 -15 -38.5t-38 -15.5t-38 15.5t-15 38.5q0 24 15 39.5t38 15.5zM3 529h97l148 -437l146 437h97l147 -437l146 437h96
l-195 -529h-97l-146 416l-146 -416h-97z" />
    <glyph glyph-name="uni1E8E" unicode="&#x1e8e;" horiz-adv-x="630" 
d="M315 762q-25 0 -41.5 17t-16.5 43t16.5 43t41.5 17q24 0 41 -17t17 -43q0 -25 -17 -42.5t-41 -17.5zM627 700l-262 -460v-240h-96v236l-266 464h98l216 -357l212 357h98z" />
    <glyph glyph-name="uni1E8F" unicode="&#x1e8f;" horiz-adv-x="514" 
d="M260 740q25 0 41.5 -17t16.5 -43t-16.5 -43t-41.5 -17t-41.5 17t-16.5 43t16.5 43t41.5 17zM276 -75q-50 -123 -164 -123q-66 0 -116 41l40 73q35 -25 71 -25q60 0 90 68l20 47l-219 523h98l168 -424l159 424h95z" />
    <glyph glyph-name="uni1E92" unicode="&#x1e92;" horiz-adv-x="662" 
d="M54 700h563v-71l-448 -542h453l-1 -87h-580v71l448 542h-436zM331 -74q25 0 41.5 -17t16.5 -43t-16.5 -43t-41.5 -17t-41.5 17t-16.5 43t16.5 43t41.5 17z" />
    <glyph glyph-name="uni1E93" unicode="&#x1e93;" horiz-adv-x="531" 
d="M58 529l425 -1v-66l-320 -385l328 -1v-77l-442 1v66l319 385l-310 1v77zM270 -74q25 0 41.5 -17t16.5 -43t-16.5 -43t-41.5 -17t-41.5 17t-16.5 43t16.5 43t41.5 17z" />
    <glyph glyph-name="uni1E97" unicode="&#x1e97;" horiz-adv-x="397" 
d="M124 803q0 -23 -15 -38.5t-38 -15.5t-38 15.5t-15 38.5q0 24 15 39.5t38 15.5t38 -15.5t15 -39.5zM243 749q-23 0 -38 15.5t-15 38.5q0 24 15 39.5t38 15.5t38 -15.5t15 -39.5q0 -23 -15 -38.5t-38 -15.5zM350 107l25 -72q-61 -39 -124 -39t-102 37.5t-39 113.5v293h-75
v71h75v142h94v-142h162v-71h-162v-276q0 -44 16 -63t48 -19q38 0 82 25z" />
    <glyph glyph-name="uni1E9E" unicode="&#x1e9e;" horiz-adv-x="676" 
d="M466 400q83 -15 128 -66.5t45 -129.5q0 -94 -64.5 -149t-176.5 -55h-82v87h82q66 0 104.5 31t38.5 85q0 55 -38 85.5t-107 30.5h-36v87l150 175q-60 36 -141 36q-88 0 -138 -49t-50 -136v-432h-97v432q0 128 75 200t207 72t226 -75v-82z" />
    <glyph glyph-name="uni1EA0" unicode="&#x1ea0;" horiz-adv-x="726" 
d="M724 0h-104l-74 170h-369l-73 -170h-101l311 700h100zM215 257h294l-148 340zM360 -74q25 0 41.5 -17t16.5 -43t-16.5 -43t-41.5 -17t-41.5 17t-16.5 43t16.5 43t41.5 17z" />
    <glyph glyph-name="uni1EA1" unicode="&#x1ea1;" horiz-adv-x="581" 
d="M506 0h-92v74q-59 -78 -185 -78q-83 0 -133 46t-50 116q0 71 52.5 112.5t146.5 42.5h168v25q0 56 -34.5 86.5t-100.5 30.5q-80 0 -163 -57l-39 64q57 37 105.5 53.5t115.5 16.5q99 0 153 -48.5t55 -135.5zM248 73q65 0 110.5 31.5t54.5 83.5v53h-155q-124 0 -124 -79
q0 -41 31 -65t83 -24zM285 -74q25 0 41.5 -17t16.5 -43t-16.5 -43t-41.5 -17t-41.5 17t-16.5 43t16.5 43t41.5 17z" />
    <glyph glyph-name="uni1EA2" unicode="&#x1ea2;" horiz-adv-x="726" 
d="M340 881q-19 0 -39 -13l-31 50q42 28 89 28q41 0 68 -21t27 -59q0 -28 -20 -61t-52 -60l-52 24q44 41 44 81q0 13 -10 22t-24 9zM620 0l-74 170h-369l-73 -170h-101l311 700h100l310 -700h-104zM215 257h294l-148 340z" />
    <glyph glyph-name="uni1EA3" unicode="&#x1ea3;" horiz-adv-x="581" 
d="M264 714q-19 0 -39 -13l-31 50q42 28 89 28q41 0 68 -21t27 -59q0 -28 -20 -61t-52 -60l-52 24q44 41 44 81q0 13 -10 22t-24 9zM506 0h-92v74q-59 -78 -185 -78q-83 0 -133 46t-50 116q0 71 52.5 112.5t146.5 42.5h168v25q0 56 -34.5 86.5t-100.5 30.5q-80 0 -163 -57
l-39 64q57 37 105.5 53.5t115.5 16.5q99 0 153 -48.5t55 -135.5zM248 73q65 0 110.5 31.5t54.5 83.5v53h-155q-124 0 -124 -79q0 -41 31 -65t83 -24z" />
    <glyph glyph-name="uni1EA4" unicode="&#x1ea4;" horiz-adv-x="726" 
d="M505 958l-139 -75l-71 22l130 107zM365 812l-72 -56h-100l106 96h130l107 -96h-100zM620 0l-74 170h-369l-73 -170h-101l311 700h100l310 -700h-104zM215 257h294l-148 340z" />
    <glyph glyph-name="uni1EA5" unicode="&#x1ea5;" horiz-adv-x="581" 
d="M427 808l-139 -75l-71 22l130 107zM287 662l-72 -56h-100l106 96h130l107 -96h-100zM506 0h-92v74q-59 -78 -185 -78q-83 0 -133 46t-50 116q0 71 52.5 112.5t146.5 42.5h168v25q0 56 -34.5 86.5t-100.5 30.5q-80 0 -163 -57l-39 64q57 37 105.5 53.5t115.5 16.5
q99 0 153 -48.5t55 -135.5zM248 73q65 0 110.5 31.5t54.5 83.5v53h-155q-124 0 -124 -79q0 -41 31 -65t83 -24z" />
    <glyph glyph-name="uni1EA6" unicode="&#x1ea6;" horiz-adv-x="726" 
d="M424 905l-71 -22l-139 75l80 54zM363 812l-72 -56h-100l106 96h130l107 -96h-100zM620 0l-74 170h-369l-73 -170h-101l311 700h100l310 -700h-104zM215 257h294l-148 340z" />
    <glyph glyph-name="uni1EA7" unicode="&#x1ea7;" horiz-adv-x="581" 
d="M348 755l-71 -22l-139 75l80 54zM287 662l-72 -56h-100l106 96h130l107 -96h-100zM506 0h-92v74q-59 -78 -185 -78q-83 0 -133 46t-50 116q0 71 52.5 112.5t146.5 42.5h168v25q0 56 -34.5 86.5t-100.5 30.5q-80 0 -163 -57l-39 64q57 37 105.5 53.5t115.5 16.5
q99 0 153 -48.5t55 -135.5zM248 73q65 0 110.5 31.5t54.5 83.5v53h-155q-124 0 -124 -79q0 -41 31 -65t83 -24z" />
    <glyph glyph-name="uni1EA8" unicode="&#x1ea8;" horiz-adv-x="726" 
d="M351 981q-17 0 -33 -10l-29 43q38 26 82 26q37 0 59.5 -18t22.5 -47q0 -47 -65 -94l-49 20q40 30 40 57q0 10 -8 16.5t-20 6.5zM378 812l-72 -56h-100l106 96h130l107 -96h-100zM620 0l-74 170h-369l-73 -170h-101l311 700h100l310 -700h-104zM215 257h294l-148 340z" />
    <glyph glyph-name="uni1EA9" unicode="&#x1ea9;" horiz-adv-x="581" 
d="M260 831q-17 0 -33 -10l-29 43q38 26 82 26q37 0 59.5 -18t22.5 -47q0 -47 -65 -94l-49 20q40 30 40 57q0 10 -8 16.5t-20 6.5zM287 662l-72 -56h-100l106 96h130l107 -96h-100zM506 0h-92v74q-59 -78 -185 -78q-83 0 -133 46t-50 116q0 71 52.5 112.5t146.5 42.5h168v25
q0 56 -34.5 86.5t-100.5 30.5q-80 0 -163 -57l-39 64q57 37 105.5 53.5t115.5 16.5q99 0 153 -48.5t55 -135.5zM248 73q65 0 110.5 31.5t54.5 83.5v53h-155q-124 0 -124 -79q0 -41 31 -65t83 -24z" />
    <glyph glyph-name="uni1EAA" unicode="&#x1eaa;" horiz-adv-x="726" 
d="M302 939q-35 0 -35 -45h-55q0 48 19.5 77.5t60.5 29.5q32 0 77 -24t60 -24q34 0 34 44h54q0 -106 -79 -106q-32 0 -76.5 24t-59.5 24zM366 812l-72 -56h-100l106 96h130l107 -96h-100zM620 0l-74 170h-369l-73 -170h-101l311 700h100l310 -700h-104zM215 257h294
l-148 340z" />
    <glyph glyph-name="uni1EAB" unicode="&#x1eab;" horiz-adv-x="581" 
d="M224 789q-35 0 -35 -45h-55q0 48 19.5 77.5t60.5 29.5q32 0 77 -24t60 -24q34 0 34 44h54q0 -106 -79 -106q-32 0 -76.5 24t-59.5 24zM288 662l-72 -56h-100l106 96h130l107 -96h-100zM506 0h-92v74q-59 -78 -185 -78q-83 0 -133 46t-50 116q0 71 52.5 112.5t146.5 42.5
h168v25q0 56 -34.5 86.5t-100.5 30.5q-80 0 -163 -57l-39 64q57 37 105.5 53.5t115.5 16.5q99 0 153 -48.5t55 -135.5zM248 73q65 0 110.5 31.5t54.5 83.5v53h-155q-124 0 -124 -79q0 -41 31 -65t83 -24z" />
    <glyph glyph-name="uni1EAC" unicode="&#x1eac;" horiz-adv-x="726" 
d="M360 834l-61 -67h-93l105 133h98l105 -133h-93zM724 0h-104l-74 170h-369l-73 -170h-101l311 700h100zM215 257h294l-148 340zM360 -74q25 0 41.5 -17t16.5 -43t-16.5 -43t-41.5 -17t-41.5 17t-16.5 43t16.5 43t41.5 17z" />
    <glyph glyph-name="uni1EAD" unicode="&#x1ead;" horiz-adv-x="581" 
d="M285 684l-61 -67h-93l105 133h98l105 -133h-93zM506 0h-92v74q-59 -78 -185 -78q-83 0 -133 46t-50 116q0 71 52.5 112.5t146.5 42.5h168v25q0 56 -34.5 86.5t-100.5 30.5q-80 0 -163 -57l-39 64q57 37 105.5 53.5t115.5 16.5q99 0 153 -48.5t55 -135.5zM248 73
q65 0 110.5 31.5t54.5 83.5v53h-155q-124 0 -124 -79q0 -41 31 -65t83 -24zM285 -74q25 0 41.5 -17t16.5 -43t-16.5 -43t-41.5 -17t-41.5 17t-16.5 43t16.5 43t41.5 17z" />
    <glyph glyph-name="uni1EAE" unicode="&#x1eae;" horiz-adv-x="726" 
d="M502 951l-139 -75l-71 22l130 107zM362 747q-57 0 -95 32t-40 83h67q1 -23 20 -37.5t48 -14.5q28 0 47 14.5t20 37.5h67q-2 -51 -39.5 -83t-94.5 -32zM620 0l-74 170h-369l-73 -170h-101l311 700h100l310 -700h-104zM215 257h294l-148 340z" />
    <glyph glyph-name="uni1EAF" unicode="&#x1eaf;" horiz-adv-x="581" 
d="M427 810l-139 -75l-71 22l130 107zM287 606q-57 0 -95 32t-40 83h67q1 -23 20 -37.5t48 -14.5q28 0 47 14.5t20 37.5h67q-2 -51 -39.5 -83t-94.5 -32zM506 0h-92v74q-59 -78 -185 -78q-83 0 -133 46t-50 116q0 71 52.5 112.5t146.5 42.5h168v25q0 56 -34.5 86.5
t-100.5 30.5q-80 0 -163 -57l-39 64q57 37 105.5 53.5t115.5 16.5q99 0 153 -48.5t55 -135.5zM248 73q65 0 110.5 31.5t54.5 83.5v53h-155q-124 0 -124 -79q0 -41 31 -65t83 -24z" />
    <glyph glyph-name="uni1EB0" unicode="&#x1eb0;" horiz-adv-x="726" 
d="M428 898l-71 -22l-139 75l80 54zM367 810q28 0 47 14.5t20 37.5h67q-2 -51 -39.5 -83t-94.5 -32t-95 32t-40 83h67q1 -23 20 -37.5t48 -14.5zM620 0l-74 170h-369l-73 -170h-101l311 700h100l310 -700h-104zM215 257h294l-148 340z" />
    <glyph glyph-name="uni1EB1" unicode="&#x1eb1;" horiz-adv-x="581" 
d="M348 757l-71 -22l-139 75l80 54zM287 669q28 0 47 14.5t20 37.5h67q-2 -51 -39.5 -83t-94.5 -32t-95 32t-40 83h67q1 -23 20 -37.5t48 -14.5zM506 0h-92v74q-59 -78 -185 -78q-83 0 -133 46t-50 116q0 71 52.5 112.5t146.5 42.5h168v25q0 56 -34.5 86.5t-100.5 30.5
q-80 0 -163 -57l-39 64q57 37 105.5 53.5t115.5 16.5q99 0 153 -48.5t55 -135.5zM248 73q65 0 110.5 31.5t54.5 83.5v53h-155q-124 0 -124 -79q0 -41 31 -65t83 -24z" />
    <glyph glyph-name="uni1EB2" unicode="&#x1eb2;" horiz-adv-x="726" 
d="M335 974q-17 0 -33 -10l-29 43q38 26 82 26q37 0 59.5 -18t22.5 -47q0 -47 -65 -94l-49 20q40 30 40 57q0 10 -8 16.5t-20 6.5zM363 747q-57 0 -95 32t-40 83h67q1 -23 20 -37.5t48 -14.5q28 0 47 14.5t20 37.5h67q-2 -51 -39.5 -83t-94.5 -32zM620 0l-74 170h-369
l-73 -170h-101l311 700h100l310 -700h-104zM215 257h294l-148 340z" />
    <glyph glyph-name="uni1EB3" unicode="&#x1eb3;" horiz-adv-x="581" 
d="M259 833q-17 0 -33 -10l-29 43q38 26 82 26q37 0 59.5 -18t22.5 -47q0 -47 -65 -94l-49 20q40 30 40 57q0 10 -8 16.5t-20 6.5zM287 606q-57 0 -95 32t-40 83h67q1 -23 20 -37.5t48 -14.5q28 0 47 14.5t20 37.5h67q-2 -51 -39.5 -83t-94.5 -32zM506 0h-92v74
q-59 -78 -185 -78q-83 0 -133 46t-50 116q0 71 52.5 112.5t146.5 42.5h168v25q0 56 -34.5 86.5t-100.5 30.5q-80 0 -163 -57l-39 64q57 37 105.5 53.5t115.5 16.5q99 0 153 -48.5t55 -135.5zM248 73q65 0 110.5 31.5t54.5 83.5v53h-155q-124 0 -124 -79q0 -41 31 -65t83 -24
z" />
    <glyph glyph-name="uni1EB4" unicode="&#x1eb4;" horiz-adv-x="726" 
d="M301 956q-35 0 -35 -45h-55q0 48 19.5 77.5t60.5 29.5q32 0 77 -24t60 -24q34 0 34 44h54q0 -106 -79 -106q-32 0 -76.5 24t-59.5 24zM363 811q28 0 47 14.5t20 37.5h67q-2 -51 -39.5 -83t-94.5 -32t-95 32t-40 83h67q1 -23 20 -37.5t48 -14.5zM620 0l-74 170h-369
l-73 -170h-101l311 700h100l310 -700h-104zM215 257h294l-148 340z" />
    <glyph glyph-name="uni1EB5" unicode="&#x1eb5;" horiz-adv-x="581" 
d="M224 814q-35 0 -35 -45h-55q0 48 19.5 77.5t60.5 29.5q32 0 77 -24t60 -24q34 0 34 44h54q0 -106 -79 -106q-32 0 -76.5 24t-59.5 24zM286 669q28 0 47 14.5t20 37.5h67q-2 -51 -39.5 -83t-94.5 -32t-95 32t-40 83h67q1 -23 20 -37.5t48 -14.5zM506 0h-92v74
q-59 -78 -185 -78q-83 0 -133 46t-50 116q0 71 52.5 112.5t146.5 42.5h168v25q0 56 -34.5 86.5t-100.5 30.5q-80 0 -163 -57l-39 64q57 37 105.5 53.5t115.5 16.5q99 0 153 -48.5t55 -135.5zM248 73q65 0 110.5 31.5t54.5 83.5v53h-155q-124 0 -124 -79q0 -41 31 -65t83 -24
z" />
    <glyph glyph-name="uni1EB6" unicode="&#x1eb6;" horiz-adv-x="726" 
d="M360 762q-56 0 -93.5 37t-39.5 97h65q2 -30 21 -50t47 -20t47 20t21 50h65q-2 -60 -39.5 -97t-93.5 -37zM724 0h-104l-74 170h-369l-73 -170h-101l311 700h100zM215 257h294l-148 340zM360 -74q25 0 41.5 -17t16.5 -43t-16.5 -43t-41.5 -17t-41.5 17t-16.5 43t16.5 43
t41.5 17z" />
    <glyph glyph-name="uni1EB7" unicode="&#x1eb7;" horiz-adv-x="581" 
d="M285 610q-57 0 -94 37t-39 97h65q2 -30 21 -50t47 -20t47 20t21 50h65q-2 -60 -39 -97t-94 -37zM506 0h-92v74q-59 -78 -185 -78q-83 0 -133 46t-50 116q0 71 52.5 112.5t146.5 42.5h168v25q0 56 -34.5 86.5t-100.5 30.5q-80 0 -163 -57l-39 64q57 37 105.5 53.5
t115.5 16.5q99 0 153 -48.5t55 -135.5zM248 73q65 0 110.5 31.5t54.5 83.5v53h-155q-124 0 -124 -79q0 -41 31 -65t83 -24zM285 -74q25 0 41.5 -17t16.5 -43t-16.5 -43t-41.5 -17t-41.5 17t-16.5 43t16.5 43t41.5 17z" />
    <glyph glyph-name="uni1EB8" unicode="&#x1eb8;" horiz-adv-x="653" 
d="M100 700h486v-87h-390v-216h349v-87h-349v-223h402v-87h-498v700zM349 -74q25 0 41.5 -17t16.5 -43t-16.5 -43t-41.5 -17t-41.5 17t-16.5 43t16.5 43t41.5 17z" />
    <glyph glyph-name="uni1EB9" unicode="&#x1eb9;" horiz-adv-x="588" 
d="M303 532q130 0 193 -81t55 -223h-418q11 -71 59.5 -113t119.5 -42q96 0 158 65l51 -53q-80 -88 -216 -88q-118 0 -192 74t-74 193q0 118 73.5 192.5t190.5 75.5zM132 300h336q-4 72 -48 113.5t-116 41.5q-70 0 -116.5 -42t-55.5 -113zM299 -74q25 0 41.5 -17t16.5 -43
t-16.5 -43t-41.5 -17t-41.5 17t-16.5 43t16.5 43t41.5 17z" />
    <glyph glyph-name="uni1EBA" unicode="&#x1eba;" horiz-adv-x="653" 
d="M347 946q41 0 68 -21t27 -59q0 -28 -20 -61t-52 -60l-52 24q44 41 44 81q0 13 -10 22t-24 9q-19 0 -39 -13l-31 50q42 28 89 28zM100 700h486v-87h-390v-216h349v-87h-349v-223h402v-87h-498v700z" />
    <glyph glyph-name="uni1EBB" unicode="&#x1ebb;" horiz-adv-x="588" 
d="M275 714q-19 0 -39 -13l-31 50q42 28 89 28q41 0 68 -21t27 -59q0 -28 -20 -61t-52 -60l-52 24q44 41 44 81q0 13 -10 22t-24 9zM303 532q130 0 193 -81t55 -223h-418q11 -71 59.5 -113t119.5 -42q96 0 158 65l51 -53q-80 -88 -216 -88q-118 0 -192 74t-74 193
q0 118 73.5 192.5t190.5 75.5zM132 300h336q-4 72 -48 113.5t-116 41.5q-70 0 -116.5 -42t-55.5 -113z" />
    <glyph glyph-name="uni1EBC" unicode="&#x1ebc;" horiz-adv-x="653" 
d="M505 884q0 -53 -19.5 -87.5t-61.5 -34.5q-31 0 -74 26.5t-57 26.5q-32 0 -32 -49h-65q0 53 19.5 87.5t61.5 34.5q31 0 74 -26t57 -26q32 0 32 48h65zM100 700h486v-87h-390v-216h349v-87h-349v-223h402v-87h-498v700z" />
    <glyph glyph-name="uni1EBD" unicode="&#x1ebd;" horiz-adv-x="588" 
d="M240 661q-32 0 -32 -49h-65q0 53 19.5 87.5t61.5 34.5q31 0 74 -26t57 -26q32 0 32 48h65q0 -53 -19.5 -87.5t-61.5 -34.5q-31 0 -74 26.5t-57 26.5zM303 532q130 0 193 -81t55 -223h-418q11 -71 59.5 -113t119.5 -42q96 0 158 65l51 -53q-80 -88 -216 -88
q-118 0 -192 74t-74 193q0 118 73.5 192.5t190.5 75.5zM132 300h336q-4 72 -48 113.5t-116 41.5q-70 0 -116.5 -42t-55.5 -113z" />
    <glyph glyph-name="uni1EBE" unicode="&#x1ebe;" horiz-adv-x="653" 
d="M493 958l-139 -75l-71 22l130 107zM353 812l-72 -56h-100l106 96h130l107 -96h-100zM196 87h402v-87h-498v700h486v-87h-390v-216h349v-87h-349v-223z" />
    <glyph glyph-name="uni1EBF" unicode="&#x1ebf;" horiz-adv-x="588" 
d="M438 808l-139 -75l-71 22l130 107zM298 662l-72 -56h-100l106 96h130l107 -96h-100zM303 532q130 0 193 -81t55 -223h-418q11 -71 59.5 -113t119.5 -42q96 0 158 65l51 -53q-80 -88 -216 -88q-118 0 -192 74t-74 193q0 118 73.5 192.5t190.5 75.5zM132 300h336
q-4 72 -48 113.5t-116 41.5q-70 0 -116.5 -42t-55.5 -113z" />
    <glyph glyph-name="uni1EC0" unicode="&#x1ec0;" horiz-adv-x="653" 
d="M412 905l-71 -22l-139 75l80 54zM351 812l-72 -56h-100l106 96h130l107 -96h-100zM196 87h402v-87h-498v700h486v-87h-390v-216h349v-87h-349v-223z" />
    <glyph glyph-name="uni1EC1" unicode="&#x1ec1;" horiz-adv-x="588" 
d="M359 755l-71 -22l-139 75l80 54zM298 662l-72 -56h-100l106 96h130l107 -96h-100zM303 532q130 0 193 -81t55 -223h-418q11 -71 59.5 -113t119.5 -42q96 0 158 65l51 -53q-80 -88 -216 -88q-118 0 -192 74t-74 193q0 118 73.5 192.5t190.5 75.5zM132 300h336
q-4 72 -48 113.5t-116 41.5q-70 0 -116.5 -42t-55.5 -113z" />
    <glyph glyph-name="uni1EC2" unicode="&#x1ec2;" horiz-adv-x="653" 
d="M339 981q-17 0 -33 -10l-29 43q38 26 82 26q37 0 59.5 -18t22.5 -47q0 -47 -65 -94l-49 20q40 30 40 57q0 10 -8 16.5t-20 6.5zM366 812l-72 -56h-100l106 96h130l107 -96h-100zM196 87h402v-87h-498v700h486v-87h-390v-216h349v-87h-349v-223z" />
    <glyph glyph-name="uni1EC3" unicode="&#x1ec3;" horiz-adv-x="588" 
d="M271 831q-17 0 -33 -10l-29 43q38 26 82 26q37 0 59.5 -18t22.5 -47q0 -47 -65 -94l-49 20q40 30 40 57q0 10 -8 16.5t-20 6.5zM298 662l-72 -56h-100l106 96h130l107 -96h-100zM303 532q130 0 193 -81t55 -223h-418q11 -71 59.5 -113t119.5 -42q96 0 158 65l51 -53
q-80 -88 -216 -88q-118 0 -192 74t-74 193q0 118 73.5 192.5t190.5 75.5zM132 300h336q-4 72 -48 113.5t-116 41.5q-70 0 -116.5 -42t-55.5 -113z" />
    <glyph glyph-name="uni1EC4" unicode="&#x1ec4;" horiz-adv-x="653" 
d="M290 939q-35 0 -35 -45h-55q0 48 19.5 77.5t60.5 29.5q32 0 77 -24t60 -24q34 0 34 44h54q0 -106 -79 -106q-32 0 -76.5 24t-59.5 24zM354 812l-72 -56h-100l106 96h130l107 -96h-100zM196 87h402v-87h-498v700h486v-87h-390v-216h349v-87h-349v-223z" />
    <glyph glyph-name="uni1EC5" unicode="&#x1ec5;" horiz-adv-x="588" 
d="M235 789q-35 0 -35 -45h-55q0 48 19.5 77.5t60.5 29.5q32 0 77 -24t60 -24q34 0 34 44h54q0 -106 -79 -106q-32 0 -76.5 24t-59.5 24zM299 662l-72 -56h-100l106 96h130l107 -96h-100zM303 532q130 0 193 -81t55 -223h-418q11 -71 59.5 -113t119.5 -42q96 0 158 65
l51 -53q-80 -88 -216 -88q-118 0 -192 74t-74 193q0 118 73.5 192.5t190.5 75.5zM132 300h336q-4 72 -48 113.5t-116 41.5q-70 0 -116.5 -42t-55.5 -113z" />
    <glyph glyph-name="uni1EC6" unicode="&#x1ec6;" horiz-adv-x="653" 
d="M349 834l-61 -67h-93l105 133h98l105 -133h-93zM196 87h402v-87h-498v700h486v-87h-390v-216h349v-87h-349v-223zM349 -74q25 0 41.5 -17t16.5 -43t-16.5 -43t-41.5 -17t-41.5 17t-16.5 43t16.5 43t41.5 17z" />
    <glyph glyph-name="uni1EC7" unicode="&#x1ec7;" horiz-adv-x="588" 
d="M299 684l-61 -67h-93l105 133h98l105 -133h-93zM303 532q130 0 193 -81t55 -223h-418q11 -71 59.5 -113t119.5 -42q96 0 158 65l51 -53q-80 -88 -216 -88q-118 0 -192 74t-74 193q0 118 73.5 192.5t190.5 75.5zM132 300h336q-4 72 -48 113.5t-116 41.5q-70 0 -116.5 -42
t-55.5 -113zM299 -74q25 0 41.5 -17t16.5 -43t-16.5 -43t-41.5 -17t-41.5 17t-16.5 43t16.5 43t41.5 17z" />
    <glyph glyph-name="uni1EC8" unicode="&#x1ec8;" horiz-adv-x="296" 
d="M144 946q41 0 68 -21t27 -59q0 -28 -20 -61t-52 -60l-52 24q44 41 44 81q0 13 -10 22t-24 9q-19 0 -39 -13l-31 50q42 28 89 28zM100 700h96v-700h-96v700z" />
    <glyph glyph-name="uni1EC9" unicode="&#x1ec9;" horiz-adv-x="274" 
d="M133 779q41 0 68 -21t27 -59q0 -28 -20 -61t-52 -60l-52 24q44 41 44 81q0 13 -10 22t-24 9q-19 0 -39 -13l-31 50q42 28 89 28zM91 529h93v-529h-93v529z" />
    <glyph glyph-name="uni1ECA" unicode="&#x1eca;" horiz-adv-x="296" 
d="M100 700h96v-700h-96v700zM148 -74q25 0 41.5 -17t16.5 -43t-16.5 -43t-41.5 -17t-41.5 17t-16.5 43t16.5 43t41.5 17z" />
    <glyph glyph-name="uni1ECB" unicode="&#x1ecb;" horiz-adv-x="274" 
d="M137 740q25 0 41.5 -17t16.5 -43t-16.5 -43t-41.5 -17t-41.5 17t-16.5 43t16.5 43t41.5 17zM91 529h93v-529h-93v529zM137 -74q25 0 41.5 -17t16.5 -43t-16.5 -43t-41.5 -17t-41.5 17t-16.5 43t16.5 43t41.5 17z" />
    <glyph glyph-name="uni1ECC" unicode="&#x1ecc;" horiz-adv-x="812" 
d="M406 706q155 0 261.5 -103t106.5 -252q0 -150 -107 -254t-261 -104t-261 104t-107 254t106.5 252.5t261.5 102.5zM407 620q-112 0 -192 -78.5t-80 -190.5t80.5 -191.5t191.5 -79.5t190 79.5t79 191.5t-79 190.5t-190 78.5zM406 -74q25 0 41.5 -17t16.5 -43t-16.5 -43
t-41.5 -17t-41.5 17t-16.5 43t16.5 43t41.5 17z" />
    <glyph glyph-name="uni1ECD" unicode="&#x1ecd;" horiz-adv-x="621" 
d="M311 532q119 0 195 -74.5t76 -192.5q0 -119 -75.5 -193.5t-195.5 -74.5q-121 0 -196.5 74.5t-75.5 193.5t75.5 193t196.5 74zM311 451q-79 0 -128.5 -52t-49.5 -135q0 -84 49.5 -136t128.5 -52q78 0 127.5 52t49.5 136q0 82 -50 134.5t-127 52.5zM311 -74q25 0 41.5 -17
t16.5 -43t-16.5 -43t-41.5 -17t-41.5 17t-16.5 43t16.5 43t41.5 17z" />
    <glyph glyph-name="uni1ECE" unicode="&#x1ece;" horiz-adv-x="812" 
d="M402 946q41 0 68 -21t27 -59q0 -28 -20 -61t-52 -60l-52 24q44 41 44 81q0 13 -10 22t-24 9q-19 0 -39 -13l-31 50q42 28 89 28zM406 706q155 0 261.5 -103t106.5 -252q0 -150 -107 -254t-261 -104t-261 104t-107 254t106.5 252.5t261.5 102.5zM407 620
q-112 0 -192 -78.5t-80 -190.5t80.5 -191.5t191.5 -79.5t190 79.5t79 191.5t-79 190.5t-190 78.5z" />
    <glyph glyph-name="uni1ECF" unicode="&#x1ecf;" horiz-adv-x="621" 
d="M307 779q41 0 68 -21t27 -59q0 -28 -20 -61t-52 -60l-52 24q44 41 44 81q0 13 -10 22t-24 9q-19 0 -39 -13l-31 50q42 28 89 28zM311 532q119 0 195 -74.5t76 -192.5q0 -119 -75.5 -193.5t-195.5 -74.5q-121 0 -196.5 74.5t-75.5 193.5t75.5 193t196.5 74zM311 451
q-79 0 -128.5 -52t-49.5 -135q0 -84 49.5 -136t128.5 -52q78 0 127.5 52t49.5 136q0 82 -50 134.5t-127 52.5z" />
    <glyph glyph-name="uni1ED0" unicode="&#x1ed0;" horiz-adv-x="812" 
d="M548 958l-139 -75l-71 22l130 107zM408 812l-72 -56h-100l106 96h130l107 -96h-100zM406 706q155 0 261.5 -103t106.5 -252q0 -150 -107 -254t-261 -104t-261 104t-107 254t106.5 252.5t261.5 102.5zM407 80q111 0 190 79.5t79 191.5t-79 190.5t-190 78.5
q-112 0 -192 -78.5t-80 -190.5t80.5 -191.5t191.5 -79.5z" />
    <glyph glyph-name="uni1ED1" unicode="&#x1ed1;" horiz-adv-x="621" 
d="M451 808l-139 -75l-71 22l130 107zM311 662l-72 -56h-100l106 96h130l107 -96h-100zM311 532q119 0 195 -74.5t76 -192.5q0 -119 -75.5 -193.5t-195.5 -74.5q-121 0 -196.5 74.5t-75.5 193.5t75.5 193t196.5 74zM311 76q78 0 127.5 52t49.5 136q0 82 -50 134.5t-127 52.5
q-79 0 -128.5 -52t-49.5 -135q0 -84 49.5 -136t128.5 -52z" />
    <glyph glyph-name="uni1ED2" unicode="&#x1ed2;" horiz-adv-x="812" 
d="M467 905l-71 -22l-139 75l80 54zM406 812l-72 -56h-100l106 96h130l107 -96h-100zM406 706q155 0 261.5 -103t106.5 -252q0 -150 -107 -254t-261 -104t-261 104t-107 254t106.5 252.5t261.5 102.5zM407 80q111 0 190 79.5t79 191.5t-79 190.5t-190 78.5
q-112 0 -192 -78.5t-80 -190.5t80.5 -191.5t191.5 -79.5z" />
    <glyph glyph-name="uni1ED3" unicode="&#x1ed3;" horiz-adv-x="621" 
d="M372 755l-71 -22l-139 75l80 54zM311 662l-72 -56h-100l106 96h130l107 -96h-100zM311 532q119 0 195 -74.5t76 -192.5q0 -119 -75.5 -193.5t-195.5 -74.5q-121 0 -196.5 74.5t-75.5 193.5t75.5 193t196.5 74zM311 76q78 0 127.5 52t49.5 136q0 82 -50 134.5t-127 52.5
q-79 0 -128.5 -52t-49.5 -135q0 -84 49.5 -136t128.5 -52z" />
    <glyph glyph-name="uni1ED4" unicode="&#x1ed4;" horiz-adv-x="812" 
d="M394 981q-17 0 -33 -10l-29 43q38 26 82 26q37 0 59.5 -18t22.5 -47q0 -47 -65 -94l-49 20q40 30 40 57q0 10 -8 16.5t-20 6.5zM421 812l-72 -56h-100l106 96h130l107 -96h-100zM406 706q155 0 261.5 -103t106.5 -252q0 -150 -107 -254t-261 -104t-261 104t-107 254
t106.5 252.5t261.5 102.5zM407 80q111 0 190 79.5t79 191.5t-79 190.5t-190 78.5q-112 0 -192 -78.5t-80 -190.5t80.5 -191.5t191.5 -79.5z" />
    <glyph glyph-name="uni1ED5" unicode="&#x1ed5;" horiz-adv-x="621" 
d="M284 831q-17 0 -33 -10l-29 43q38 26 82 26q37 0 59.5 -18t22.5 -47q0 -47 -65 -94l-49 20q40 30 40 57q0 10 -8 16.5t-20 6.5zM311 662l-72 -56h-100l106 96h130l107 -96h-100zM311 532q119 0 195 -74.5t76 -192.5q0 -119 -75.5 -193.5t-195.5 -74.5q-121 0 -196.5 74.5
t-75.5 193.5t75.5 193t196.5 74zM311 76q78 0 127.5 52t49.5 136q0 82 -50 134.5t-127 52.5q-79 0 -128.5 -52t-49.5 -135q0 -84 49.5 -136t128.5 -52z" />
    <glyph glyph-name="uni1ED6" unicode="&#x1ed6;" horiz-adv-x="812" 
d="M345 939q-35 0 -35 -45h-55q0 48 19.5 77.5t60.5 29.5q32 0 77 -24t60 -24q34 0 34 44h54q0 -106 -79 -106q-32 0 -76.5 24t-59.5 24zM409 812l-72 -56h-100l106 96h130l107 -96h-100zM406 706q155 0 261.5 -103t106.5 -252q0 -150 -107 -254t-261 -104t-261 104
t-107 254t106.5 252.5t261.5 102.5zM407 80q111 0 190 79.5t79 191.5t-79 190.5t-190 78.5q-112 0 -192 -78.5t-80 -190.5t80.5 -191.5t191.5 -79.5z" />
    <glyph glyph-name="uni1ED7" unicode="&#x1ed7;" horiz-adv-x="621" 
d="M248 789q-35 0 -35 -45h-55q0 48 19.5 77.5t60.5 29.5q32 0 77 -24t60 -24q34 0 34 44h54q0 -106 -79 -106q-32 0 -76.5 24t-59.5 24zM312 662l-72 -56h-100l106 96h130l107 -96h-100zM311 532q119 0 195 -74.5t76 -192.5q0 -119 -75.5 -193.5t-195.5 -74.5
q-121 0 -196.5 74.5t-75.5 193.5t75.5 193t196.5 74zM311 76q78 0 127.5 52t49.5 136q0 82 -50 134.5t-127 52.5q-79 0 -128.5 -52t-49.5 -135q0 -84 49.5 -136t128.5 -52z" />
    <glyph glyph-name="uni1ED8" unicode="&#x1ed8;" horiz-adv-x="812" 
d="M406 834l-61 -67h-93l105 133h98l105 -133h-93zM406 706q155 0 261.5 -103t106.5 -252q0 -150 -107 -254t-261 -104t-261 104t-107 254t106.5 252.5t261.5 102.5zM407 80q111 0 190 79.5t79 191.5t-79 190.5t-190 78.5q-112 0 -192 -78.5t-80 -190.5t80.5 -191.5
t191.5 -79.5zM406 -74q25 0 41.5 -17t16.5 -43t-16.5 -43t-41.5 -17t-41.5 17t-16.5 43t16.5 43t41.5 17z" />
    <glyph glyph-name="uni1ED9" unicode="&#x1ed9;" horiz-adv-x="621" 
d="M311 684l-61 -67h-93l105 133h98l105 -133h-93zM311 532q119 0 195 -74.5t76 -192.5q0 -119 -75.5 -193.5t-195.5 -74.5q-121 0 -196.5 74.5t-75.5 193.5t75.5 193t196.5 74zM311 76q78 0 127.5 52t49.5 136q0 82 -50 134.5t-127 52.5q-79 0 -128.5 -52t-49.5 -135
q0 -84 49.5 -136t128.5 -52zM311 -74q25 0 41.5 -17t16.5 -43t-16.5 -43t-41.5 -17t-41.5 17t-16.5 43t16.5 43t41.5 17z" />
    <glyph glyph-name="uni1EDA" unicode="&#x1eda;" horiz-adv-x="837" 
d="M557 860l-124 -98l-79 10l107 130zM660 610q114 -104 114 -259q0 -150 -107 -254t-261 -104t-261 104t-107 254t106.5 252.5t261.5 102.5q85 0 159 -34v1q19 -8 42 -8q49 0 63 47.5t-19 91.5l78 29q39 -73 17.5 -137.5t-86.5 -85.5zM407 80q111 0 190 79.5t79 191.5
t-79 190.5t-190 78.5q-112 0 -192 -78.5t-80 -190.5t80.5 -191.5t191.5 -79.5z" />
    <glyph glyph-name="uni1EDB" unicode="&#x1edb;" horiz-adv-x="651" 
d="M462 710l-124 -98l-79 10l107 130zM611 661q42 -77 15.5 -144.5t-99.5 -82.5q55 -69 55 -169q0 -119 -75.5 -193.5t-195.5 -74.5q-121 0 -196.5 74.5t-75.5 193.5t75.5 193t196.5 74q76 0 136 -31q19 -8 42 -8q49 0 63 47.5t-19 91.5zM311 76q78 0 127.5 52t49.5 136
q0 82 -50 134.5t-127 52.5q-79 0 -128.5 -52t-49.5 -135q0 -84 49.5 -136t128.5 -52z" />
    <glyph glyph-name="uni1EDC" unicode="&#x1edc;" horiz-adv-x="837" 
d="M455 772l-79 -10l-124 98l96 42zM660 610q114 -104 114 -259q0 -150 -107 -254t-261 -104t-261 104t-107 254t106.5 252.5t261.5 102.5q85 0 159 -34v1q19 -8 42 -8q49 0 63 47.5t-19 91.5l78 29q39 -73 17.5 -137.5t-86.5 -85.5zM407 80q111 0 190 79.5t79 191.5
t-79 190.5t-190 78.5q-112 0 -192 -78.5t-80 -190.5t80.5 -191.5t191.5 -79.5z" />
    <glyph glyph-name="uni1EDD" unicode="&#x1edd;" horiz-adv-x="651" 
d="M360 622l-79 -10l-124 98l96 42zM611 661q42 -77 15.5 -144.5t-99.5 -82.5q55 -69 55 -169q0 -119 -75.5 -193.5t-195.5 -74.5q-121 0 -196.5 74.5t-75.5 193.5t75.5 193t196.5 74q76 0 136 -31q19 -8 42 -8q49 0 63 47.5t-19 91.5zM311 76q78 0 127.5 52t49.5 136
q0 82 -50 134.5t-127 52.5q-79 0 -128.5 -52t-49.5 -135q0 -84 49.5 -136t128.5 -52z" />
    <glyph glyph-name="uni1EDE" unicode="&#x1ede;" horiz-adv-x="837" 
d="M383 881q-19 0 -39 -13l-31 50q42 28 89 28q41 0 68 -21t27 -59q0 -28 -20 -61t-52 -60l-52 24q44 41 44 81q0 13 -10 22t-24 9zM660 610q114 -104 114 -259q0 -150 -107 -254t-261 -104t-261 104t-107 254t106.5 252.5t261.5 102.5q85 0 159 -34v1q19 -8 42 -8
q49 0 63 47.5t-19 91.5l78 29q39 -73 17.5 -137.5t-86.5 -85.5zM407 80q111 0 190 79.5t79 191.5t-79 190.5t-190 78.5q-112 0 -192 -78.5t-80 -190.5t80.5 -191.5t191.5 -79.5z" />
    <glyph glyph-name="uni1EDF" unicode="&#x1edf;" horiz-adv-x="651" 
d="M288 714q-19 0 -39 -13l-31 50q42 28 89 28q41 0 68 -21t27 -59q0 -28 -20 -61t-52 -60l-52 24q44 41 44 81q0 13 -10 22t-24 9zM611 661q42 -77 15.5 -144.5t-99.5 -82.5q55 -69 55 -169q0 -119 -75.5 -193.5t-195.5 -74.5q-121 0 -196.5 74.5t-75.5 193.5t75.5 193
t196.5 74q76 0 136 -31q19 -8 42 -8q49 0 63 47.5t-19 91.5zM311 76q78 0 127.5 52t49.5 136q0 82 -50 134.5t-127 52.5q-79 0 -128.5 -52t-49.5 -135q0 -84 49.5 -136t128.5 -52z" />
    <glyph glyph-name="uni1EE0" unicode="&#x1ee0;" horiz-adv-x="837" 
d="M348 815q-32 0 -32 -49h-65q0 53 19.5 87.5t61.5 34.5q31 0 74 -26t57 -26q32 0 32 48h65q0 -53 -19.5 -87.5t-61.5 -34.5q-31 0 -74 26.5t-57 26.5zM660 610q114 -104 114 -259q0 -150 -107 -254t-261 -104t-261 104t-107 254t106.5 252.5t261.5 102.5q85 0 159 -34v1
q19 -8 42 -8q49 0 63 47.5t-19 91.5l78 29q39 -73 17.5 -137.5t-86.5 -85.5zM407 80q111 0 190 79.5t79 191.5t-79 190.5t-190 78.5q-112 0 -192 -78.5t-80 -190.5t80.5 -191.5t191.5 -79.5z" />
    <glyph glyph-name="uni1EE1" unicode="&#x1ee1;" horiz-adv-x="651" 
d="M253 661q-32 0 -32 -49h-65q0 53 19.5 87.5t61.5 34.5q31 0 74 -26t57 -26q32 0 32 48h65q0 -53 -19.5 -87.5t-61.5 -34.5q-31 0 -74 26.5t-57 26.5zM611 661q42 -77 15.5 -144.5t-99.5 -82.5q55 -69 55 -169q0 -119 -75.5 -193.5t-195.5 -74.5q-121 0 -196.5 74.5
t-75.5 193.5t75.5 193t196.5 74q76 0 136 -31q19 -8 42 -8q49 0 63 47.5t-19 91.5zM311 76q78 0 127.5 52t49.5 136q0 82 -50 134.5t-127 52.5q-79 0 -128.5 -52t-49.5 -135q0 -84 49.5 -136t128.5 -52z" />
    <glyph glyph-name="uni1EE2" unicode="&#x1ee2;" horiz-adv-x="837" 
d="M660 610q114 -104 114 -259q0 -150 -107 -254t-261 -104t-261 104t-107 254t106.5 252.5t261.5 102.5q85 0 159 -34v1q19 -8 42 -8q49 0 63 47.5t-19 91.5l78 29q39 -73 17.5 -137.5t-86.5 -85.5zM407 80q111 0 190 79.5t79 191.5t-79 190.5t-190 78.5q-112 0 -192 -78.5
t-80 -190.5t80.5 -191.5t191.5 -79.5zM406 -74q25 0 41.5 -17t16.5 -43t-16.5 -43t-41.5 -17t-41.5 17t-16.5 43t16.5 43t41.5 17z" />
    <glyph glyph-name="uni1EE3" unicode="&#x1ee3;" horiz-adv-x="652" 
d="M611 661q42 -77 15.5 -144.5t-99.5 -82.5q55 -69 55 -169q0 -119 -75.5 -193.5t-195.5 -74.5q-121 0 -196.5 74.5t-75.5 193.5t75.5 193t196.5 74q76 0 136 -31q19 -8 42 -8q49 0 63 47.5t-19 91.5zM311 76q78 0 127.5 52t49.5 136q0 82 -50 134.5t-127 52.5
q-79 0 -128.5 -52t-49.5 -135q0 -84 49.5 -136t128.5 -52zM311 -74q25 0 41.5 -17t16.5 -43t-16.5 -43t-41.5 -17t-41.5 17t-16.5 43t16.5 43t41.5 17z" />
    <glyph glyph-name="uni1EE4" unicode="&#x1ee4;" horiz-adv-x="762" 
d="M181 286q0 -97 53.5 -151.5t147.5 -54.5q93 0 146 54.5t53 151.5v414h96v-414q0 -137 -78.5 -215t-216.5 -78q-139 0 -218 78t-79 215v414h96v-414zM382 -74q25 0 41.5 -17t16.5 -43t-16.5 -43t-41.5 -17t-41.5 17t-16.5 43t16.5 43t41.5 17z" />
    <glyph glyph-name="uni1EE5" unicode="&#x1ee5;" horiz-adv-x="649" 
d="M465 529h94v-529h-94v112q-52 -113 -196 -115q-92 0 -144 54.5t-52 150.5v327h94v-302q0 -67 36.5 -104.5t100.5 -37.5q74 1 117.5 52.5t43.5 131.5v260zM325 -74q25 0 41.5 -17t16.5 -43t-16.5 -43t-41.5 -17t-41.5 17t-16.5 43t16.5 43t41.5 17z" />
    <glyph glyph-name="uni1EE6" unicode="&#x1ee6;" horiz-adv-x="762" 
d="M378 946q41 0 68 -21t27 -59q0 -28 -20 -61t-52 -60l-52 24q44 41 44 81q0 13 -10 22t-24 9q-19 0 -39 -13l-31 50q42 28 89 28zM181 286q0 -97 53.5 -151.5t147.5 -54.5q93 0 146 54.5t53 151.5v414h96v-414q0 -137 -78.5 -215t-216.5 -78q-139 0 -218 78t-79 215v414
h96v-414z" />
    <glyph glyph-name="uni1EE7" unicode="&#x1ee7;" horiz-adv-x="649" 
d="M302 714q-19 0 -39 -13l-31 50q42 28 89 28q41 0 68 -21t27 -59q0 -28 -20 -61t-52 -60l-52 24q44 41 44 81q0 13 -10 22t-24 9zM465 529h94v-529h-94v112q-52 -113 -196 -115q-92 0 -144 54.5t-52 150.5v327h94v-302q0 -67 36.5 -104.5t100.5 -37.5q74 1 117.5 52.5
t43.5 131.5v260z" />
    <glyph glyph-name="uni1EE8" unicode="&#x1ee8;" horiz-adv-x="787" 
d="M533 860l-124 -98l-79 10l107 130zM765 833q32 -75 7.5 -127.5t-95.5 -63.5v-356q0 -137 -78.5 -215t-216.5 -78q-139 0 -218 78t-79 215v414h96v-414q0 -97 53.5 -151.5t147.5 -54.5q93 0 146 54.5t53 151.5v414h59q51 0 64 30.5t-11 74.5z" />
    <glyph glyph-name="uni1EE9" unicode="&#x1ee9;" horiz-adv-x="654" 
d="M476 710l-124 -98l-79 10l107 130zM631 662q30 -71 10 -121.5t-82 -66.5v-474h-94v112q-52 -113 -196 -115q-92 0 -144 54.5t-52 150.5v327h94v-302q0 -67 36.5 -104.5t100.5 -37.5q74 1 117.5 52.5t43.5 131.5v260h41q51 0 64 30.5t-11 74.5z" />
    <glyph glyph-name="uni1EEA" unicode="&#x1eea;" horiz-adv-x="787" 
d="M431 772l-79 -10l-124 98l96 42zM765 833q32 -75 7.5 -127.5t-95.5 -63.5v-356q0 -137 -78.5 -215t-216.5 -78q-139 0 -218 78t-79 215v414h96v-414q0 -97 53.5 -151.5t147.5 -54.5q93 0 146 54.5t53 151.5v414h59q51 0 64 30.5t-11 74.5z" />
    <glyph glyph-name="uni1EEB" unicode="&#x1eeb;" horiz-adv-x="654" 
d="M374 622l-79 -10l-124 98l96 42zM631 662q30 -71 10 -121.5t-82 -66.5v-474h-94v112q-52 -113 -196 -115q-92 0 -144 54.5t-52 150.5v327h94v-302q0 -67 36.5 -104.5t100.5 -37.5q74 1 117.5 52.5t43.5 131.5v260h41q51 0 64 30.5t-11 74.5z" />
    <glyph glyph-name="uni1EEC" unicode="&#x1eec;" horiz-adv-x="787" 
d="M359 881q-19 0 -39 -13l-31 50q42 28 89 28q41 0 68 -21t27 -59q0 -28 -20 -61t-52 -60l-52 24q44 41 44 81q0 13 -10 22t-24 9zM765 833q32 -75 7.5 -127.5t-95.5 -63.5v-356q0 -137 -78.5 -215t-216.5 -78q-139 0 -218 78t-79 215v414h96v-414q0 -97 53.5 -151.5
t147.5 -54.5q93 0 146 54.5t53 151.5v414h59q51 0 64 30.5t-11 74.5z" />
    <glyph glyph-name="uni1EED" unicode="&#x1eed;" horiz-adv-x="654" 
d="M303 714q-19 0 -39 -13l-31 50q42 28 89 28q41 0 68 -21t27 -59q0 -28 -20 -61t-52 -60l-52 24q44 41 44 81q0 13 -10 22t-24 9zM631 662q30 -71 10 -121.5t-82 -66.5v-474h-94v112q-52 -113 -196 -115q-92 0 -144 54.5t-52 150.5v327h94v-302q0 -67 36.5 -104.5
t100.5 -37.5q74 1 117.5 52.5t43.5 131.5v260h41q51 0 64 30.5t-11 74.5z" />
    <glyph glyph-name="uni1EEE" unicode="&#x1eee;" horiz-adv-x="787" 
d="M324 815q-32 0 -32 -49h-65q0 53 19.5 87.5t61.5 34.5q31 0 74 -26t57 -26q32 0 32 48h65q0 -53 -19.5 -87.5t-61.5 -34.5q-31 0 -74 26.5t-57 26.5zM765 833q32 -75 7.5 -127.5t-95.5 -63.5v-356q0 -137 -78.5 -215t-216.5 -78q-139 0 -218 78t-79 215v414h96v-414
q0 -97 53.5 -151.5t147.5 -54.5q93 0 146 54.5t53 151.5v414h59q51 0 64 30.5t-11 74.5z" />
    <glyph glyph-name="uni1EEF" unicode="&#x1eef;" horiz-adv-x="654" 
d="M268 661q-32 0 -32 -49h-65q0 53 19.5 87.5t61.5 34.5q31 0 74 -26t57 -26q32 0 32 48h65q0 -53 -19.5 -87.5t-61.5 -34.5q-31 0 -74 26.5t-57 26.5zM631 662q30 -71 10 -121.5t-82 -66.5v-474h-94v112q-52 -113 -196 -115q-92 0 -144 54.5t-52 150.5v327h94v-302
q0 -67 36.5 -104.5t100.5 -37.5q74 1 117.5 52.5t43.5 131.5v260h41q51 0 64 30.5t-11 74.5z" />
    </font>
</defs>
</svg>
