<svg width="746" height="418" viewBox="0 0 746 418" fill="none" xmlns="http://www.w3.org/2000/svg">
<g opacity="0.6">
<path d="M522.689 58.8142L277.232 41.961" stroke="#1E6AC6" stroke-opacity="0.6" stroke-width="8.4" stroke-linecap="round"/>
<path d="M211.777 37.4662L203.595 36.9044" stroke="#179F0C" stroke-opacity="0.6" stroke-width="8.4" stroke-linecap="round"/>
<path d="M173.504 355.438L132.594 352.629" stroke="#179F0C" stroke-opacity="0.6" stroke-width="8.4" stroke-linecap="round"/>
<path d="M41.3984 124.414L16.8527 122.729" stroke="#179F0C" stroke-opacity="0.6" stroke-width="8.4" stroke-linecap="round"/>
<path d="M131.15 253.884L119.462 253.082" stroke="#179F0C" stroke-opacity="0.6" stroke-width="8.4" stroke-linecap="round"/>
<path d="M360.49 146.322L131.397 130.593" stroke="#1E6AC6" stroke-opacity="0.6" stroke-width="8.4" stroke-linecap="round"/>
<path d="M335.697 267.929L196.605 258.379" stroke="#1E6AC6" stroke-opacity="0.6" stroke-width="8.4" stroke-linecap="round"/>
<path d="M386.23 370.043L247.138 360.493" stroke="#1E6AC6" stroke-opacity="0.6" stroke-width="8.4" stroke-linecap="round"/>
<path d="M404.823 340.895C416.423 354.048 415.312 374.285 402.338 386.097C389.371 397.909 369.45 396.823 357.849 383.671C356.327 381.956 354.834 380.209 353.377 378.456C317.579 335.301 301.84 282.204 305.393 230.46C308.946 178.716 331.794 128.269 373.154 90.4109C374.838 88.8743 376.555 87.3471 378.298 85.8569C422.68 47.8251 478.386 31.1104 532.558 34.8299C586.737 38.5498 639.629 62.721 678.397 106.462C679.919 108.176 681.412 109.924 682.869 111.676C718.667 154.832 734.406 207.928 730.853 259.672C727.3 311.416 704.452 361.864 663.092 399.721C661.408 401.265 659.691 402.785 657.948 404.276C644.659 415.719 624.784 414.072 613.546 400.598C602.315 387.125 603.973 366.925 617.262 355.482C618.562 354.363 619.842 353.23 621.088 352.094C649.604 325.993 665.355 291.135 667.813 255.344C670.271 219.546 659.424 182.862 634.75 153.116C633.672 151.813 632.559 150.515 631.423 149.237C611.665 126.945 586.504 111.88 559.448 104.282L549.633 247.23C548.418 264.918 533.322 278.285 515.917 277.09C498.513 275.895 485.385 260.59 486.6 242.902L496.414 99.9543C468.573 103.783 441.589 115.268 418.97 134.65C417.67 135.768 416.39 136.902 415.144 138.038C386.628 164.139 370.877 198.996 368.419 234.787C365.961 270.586 376.801 307.269 401.482 337.016C402.56 338.318 403.674 339.609 404.809 340.894L404.823 340.895Z" fill="#1E6AC6" fill-opacity="0.9"/>
</g>
</svg>
