<svg width="396" height="86" viewBox="0 0 396 86" fill="none" xmlns="http://www.w3.org/2000/svg">
<path d="M166.142 46.1379C166.142 63.1182 152.337 76.8838 135.309 76.8838C118.281 76.8838 104.477 63.1182 104.477 46.1379C104.477 29.1588 118.282 15.392 135.309 15.392C152.336 15.392 166.142 29.158 166.142 46.1379ZM283.263 59.5769C284.422 57.923 286.705 57.5187 288.364 58.6745C290.023 59.8298 290.428 62.1069 289.269 63.7609C288.716 64.5498 288.173 65.2615 287.643 65.8932C281.827 72.8154 273.239 76.8838 264.06 76.8838C246.968 76.8838 233.266 63.0453 233.275 46.0416C233.275 29.1506 247.139 15.3924 264.06 15.3924C276.649 15.3924 287.77 22.9896 292.496 34.386C294.024 38.0709 294.833 42.0597 294.833 46.1379C294.833 48.1864 293.148 49.8064 291.126 49.8064H240.917C242.698 61.1201 252.479 69.5476 264.06 69.5476C271.052 69.5476 277.595 66.4508 282.01 61.1935C282.493 60.6187 282.911 60.0795 283.263 59.5773V59.5769ZM240.917 42.4698H287.215C286.924 40.6453 286.419 38.8649 285.714 37.1657C282.124 28.5072 273.608 22.7286 264.06 22.7286C252.479 22.7286 242.698 31.1557 240.916 42.4698H240.917ZM197.612 22.8172C195.588 22.9916 193.806 21.4964 193.631 19.4784C193.457 17.4608 194.956 15.6839 196.98 15.5095C214.859 13.9495 230.495 28.007 230.495 46.1375C230.495 54.0052 227.484 61.8739 221.464 67.8773C220.027 69.31 217.698 69.31 216.262 67.8777L180.664 32.3801C177.68 36.4681 176.187 41.3028 176.187 46.1375C176.187 59.9539 188.066 70.648 201.713 69.4579C203.737 69.2839 205.519 70.7783 205.694 72.7963C205.868 74.8143 204.369 76.5916 202.345 76.7656C184.444 78.3267 168.83 64.2505 168.83 46.1375C168.83 38.2695 171.841 30.4011 177.861 24.3978C179.297 22.965 181.626 22.965 183.063 24.3974L218.66 59.8949C221.645 55.8066 223.138 50.9723 223.138 46.1375C223.138 32.3118 211.242 21.6283 197.612 22.8168L197.612 22.8172ZM304.389 34.4329C303.374 36.1821 301.129 36.7786 299.375 35.7653C297.621 34.7528 297.022 32.5136 298.039 30.7648C299.389 28.4327 301.036 26.3011 302.946 24.3978C308.971 18.3941 316.862 15.392 324.748 15.392C332.634 15.392 340.524 18.3941 346.549 24.3978C348.459 26.3007 350.106 28.4334 351.456 30.7648C352.472 32.5136 351.874 34.7528 350.12 35.7653C348.366 36.7786 346.121 36.1817 345.106 34.4329C344.084 32.6685 342.822 31.0254 341.376 29.5845C337.727 25.9476 333.17 23.7579 328.426 23.0146V73.2154C328.426 75.2412 326.779 76.8834 324.748 76.8834C322.716 76.8834 321.069 75.2412 321.069 73.2154V23.0146C316.325 23.7579 311.769 25.9476 308.119 29.5845C306.674 31.025 305.412 32.6685 304.39 34.4329H304.389ZM54.3564 67.8718C52.9806 69.2437 50.4999 69.3389 49.15 67.8523C43.1328 61.8505 40.1243 53.9915 40.1243 46.1368C40.1243 29.167 53.9412 15.3979 70.9569 15.3979C87.973 15.3979 101.789 29.1666 101.789 46.1368C101.789 54.8398 98.587 61.568 92.7518 67.8652C91.3158 69.2975 88.9931 69.3042 87.5571 67.8718C86.1156 66.4344 86.1309 64.121 87.5692 62.6871C92.1449 58.1192 94.4327 52.1299 94.4327 46.1368C94.4327 34.5827 85.9939 24.802 74.6358 23.0208V46.1368C74.6358 48.1626 72.9889 49.8049 70.9573 49.8049C68.9258 49.8049 67.2789 48.1626 67.2789 46.1368V23.0208C55.9203 24.8024 47.4819 34.5823 47.4819 46.1368C47.4819 52.1299 49.7698 58.1192 54.345 62.6871C55.7501 64.192 55.8472 66.3864 54.3572 67.8718H54.3564ZM135.309 22.7282C122.343 22.7282 111.834 33.2081 111.834 46.1375C111.834 59.0674 122.343 69.5473 135.309 69.5473C148.276 69.5473 158.785 59.0674 158.785 46.1375C158.785 33.2085 148.275 22.7282 135.309 22.7282Z" fill="#C2D3FF"/>
<circle cx="71.088" cy="46.1388" r="30.7148" stroke="#E0E0E0" stroke-opacity="0.6" stroke-width="0.5"/>
<circle cx="135.198" cy="46.1388" r="30.7148" stroke="#E0E0E0" stroke-opacity="0.6" stroke-width="0.5"/>
<circle cx="199.744" cy="46.1388" r="30.7148" stroke="#E0E0E0" stroke-opacity="0.6" stroke-width="0.5"/>
<circle cx="264.29" cy="46.1388" r="30.7148" stroke="#E0E0E0" stroke-opacity="0.6" stroke-width="0.5"/>
<path d="M295.284 38.0384C296.663 32.9975 299.304 28.3916 302.959 24.6566C306.614 20.9215 311.162 18.1808 316.172 16.6938C321.182 15.2068 326.488 15.0226 331.589 16.1587C336.69 17.2948 341.417 19.7136 345.322 23.1862C349.227 26.6588 352.182 31.0705 353.906 36.0037C355.631 40.9368 356.068 46.2284 355.176 51.3778C354.285 56.5271 352.095 61.3638 348.812 65.4303C345.53 69.4968 341.264 72.6586 336.419 74.6165" stroke="#E0E0E0" stroke-opacity="0.6" stroke-width="0.5"/>
<circle cx="70.87" cy="46.1388" r="23.5187" stroke="#E0E0E0" stroke-opacity="0.6" stroke-width="0.5"/>
<circle cx="134.98" cy="46.1388" r="23.5187" stroke="#E0E0E0" stroke-opacity="0.6" stroke-width="0.5"/>
<circle cx="199.526" cy="46.1388" r="23.5187" stroke="#E0E0E0" stroke-opacity="0.6" stroke-width="0.5"/>
<circle cx="264.072" cy="46.1388" r="23.5187" stroke="#E0E0E0" stroke-opacity="0.6" stroke-width="0.5"/>
<circle cx="324.694" cy="46.1388" r="23.5187" stroke="#E0E0E0" stroke-opacity="0.6" stroke-width="0.5"/>
<line x1="159.362" y1="0.823223" x2="238.736" y2="80.1977" stroke="#E0E0E0" stroke-opacity="0.6" stroke-width="0.5"/>
<line x1="232.454" y1="42.1816" x2="296.564" y2="42.1816" stroke="#E0E0E0" stroke-opacity="0.6" stroke-width="0.5"/>
<line x1="74.827" y1="1" x2="74.827" y2="65.1101" stroke="#E0E0E0" stroke-opacity="0.6" stroke-width="0.5"/>
<line x1="328.651" y1="21.4978" x2="328.651" y2="85.6079" stroke="#E0E0E0" stroke-opacity="0.6" stroke-width="0.5"/>
<line x1="153.692" y1="5.62059" x2="233.067" y2="84.995" stroke="#E0E0E0" stroke-opacity="0.6" stroke-width="0.5"/>
<line x1="232.018" y1="49.5957" x2="296.128" y2="49.5957" stroke="#E0E0E0" stroke-opacity="0.6" stroke-width="0.5"/>
<line x1="67.4129" y1="1" x2="67.4129" y2="65.1101" stroke="#E0E0E0" stroke-opacity="0.6" stroke-width="0.5"/>
<line x1="321.237" y1="21.0618" x2="321.237" y2="85.1719" stroke="#E0E0E0" stroke-opacity="0.6" stroke-width="0.5"/>
<line y1="14.4556" x2="396" y2="14.4556" stroke="#E0E0E0" stroke-opacity="0.6"/>
<line y1="76.385" x2="396" y2="76.385" stroke="#E0E0E0" stroke-opacity="0.6"/>
<line y1="68.9709" x2="396" y2="68.9709" stroke="#E0E0E0" stroke-opacity="0.6"/>
<line y1="48.9092" x2="396" y2="48.9092" stroke="#E0E0E0" stroke-opacity="0.6"/>
<line y1="35.8257" x2="396" y2="35.8257" stroke="#E0E0E0" stroke-opacity="0.6"/>
</svg>
