<svg width="108" height="83" viewBox="0 0 108 83" fill="none" xmlns="http://www.w3.org/2000/svg">
<path d="M79.3098 28.6812L48.9901 16.0668" stroke="#1E6AC6" stroke-opacity="0.6" stroke-width="8.4" stroke-linecap="round"/>
<path d="M40.9049 12.7026L39.8942 12.2822" stroke="#179F0C" stroke-opacity="0.6" stroke-width="8.4" stroke-linecap="round"/>
<path d="M22.485 51.2778L17.4317 49.1754" stroke="#179F0C" stroke-opacity="0.6" stroke-width="8.4" stroke-linecap="round"/>
<path d="M15.6462 16.4214L12.6142 15.16" stroke="#179F0C" stroke-opacity="0.6" stroke-width="8.4" stroke-linecap="round"/>
<path d="M21.4665 36.627L20.0227 36.0263" stroke="#179F0C" stroke-opacity="0.6" stroke-width="8.4" stroke-linecap="round"/>
<path d="M55.0615 32.8198L26.7631 21.0465" stroke="#1E6AC6" stroke-opacity="0.6" stroke-width="8.4" stroke-linecap="round"/>
<path d="M46.7328 47.1387L29.5516 39.9906" stroke="#1E6AC6" stroke-opacity="0.6" stroke-width="8.4" stroke-linecap="round"/>
<path d="M48.7616 62.21L31.5805 55.0619" stroke="#1E6AC6" stroke-opacity="0.6" stroke-width="8.4" stroke-linecap="round"/>
<path d="M52.3575 59.3179C53.2627 61.4766 52.2579 63.9883 50.1128 64.9278C47.9686 65.8677 45.4958 64.8796 44.5906 62.7209C44.4713 62.4391 44.3572 62.1544 44.2477 61.8706C41.564 54.8844 41.8414 47.4978 44.5006 41.1063C47.1598 34.7147 52.2036 29.3112 59.0507 26.2903C59.3292 26.1678 59.6116 26.048 59.8956 25.934C67.1322 23.0202 74.8905 23.2857 81.582 26.0696C88.2743 28.8539 93.9305 34.1694 96.9648 41.3564C97.0841 41.6382 97.1982 41.923 97.3076 42.2068C99.9914 49.193 99.7139 56.5795 97.0548 62.9711C94.3956 69.3627 89.3518 74.7662 82.5047 77.7871C82.2259 77.9104 81.9438 78.0293 81.6598 78.1433C79.4906 79.0229 77.0475 77.9658 76.2019 75.782C75.3571 73.5986 76.4295 71.115 78.5987 70.2354C78.8109 70.1496 79.0212 70.0609 79.2272 69.9704C83.9479 67.8876 87.4285 64.1525 89.2679 59.7314C91.1076 55.3095 91.3027 50.2074 89.4529 45.392C89.3722 45.1812 89.2868 44.9696 89.1979 44.7594C87.6514 41.0967 85.1131 38.117 82.0161 36.0007L74.6699 53.658C73.7608 55.8429 71.2809 56.8885 69.1311 55.9941C66.9812 55.0997 65.9748 52.6036 66.8838 50.4187L74.23 32.7613C70.5458 32.0564 66.6431 32.3563 62.955 33.8412C62.7428 33.9271 62.5325 34.0158 62.3265 34.1062C57.6058 36.189 54.1252 39.9242 52.2858 44.3453C50.4461 48.7672 50.2501 53.8689 52.1008 58.6847C52.1815 58.8954 52.2672 59.1062 52.3558 59.3172L52.3575 59.3179Z" fill="#1E6AC6" fill-opacity="0.9"/>
</svg>
