<svg width="130" height="130" viewBox="0 0 130 130" fill="none" xmlns="http://www.w3.org/2000/svg">
<path d="M8.62719 121.347C6.76519 119.485 3.74678 119.485 1.88478 121.347C0.0227812 123.209 0.0227812 126.227 1.88478 128.089C3.74678 129.951 6.76519 129.951 8.62719 128.089C10.4892 126.227 10.4892 123.209 8.62719 121.347Z" fill="#3B6DE9"/>
<path d="M38.4983 91.4764C36.6363 89.6144 33.6179 89.6144 31.7559 91.4764C29.8939 93.3384 29.8939 96.3568 31.7559 98.2188C33.6179 100.081 36.6363 100.081 38.4983 98.2188C40.3603 96.3568 40.3603 93.3384 38.4983 91.4764Z" fill="#3B6DE9"/>
<path d="M68.3479 61.606C66.4859 59.744 63.4675 59.744 61.6055 61.606C59.7435 63.468 59.7435 66.4863 61.6055 68.3483C63.4675 70.2103 66.4859 70.2103 68.3479 68.3483C70.2099 66.4863 70.2099 63.468 68.3479 61.606Z" fill="#3B6DE9"/>
<path d="M98.219 31.7552C96.357 29.8932 93.3386 29.8932 91.4766 31.7552C89.6146 33.6172 89.6146 36.6356 91.4766 38.4976C93.3386 40.3596 96.357 40.3596 98.219 38.4976C100.081 36.6356 100.081 33.6172 98.219 31.7552Z" fill="#3B6DE9"/>
<path d="M121.348 8.62719C123.21 10.4892 126.228 10.4892 128.09 8.62719C129.952 6.76519 129.952 3.74678 128.09 1.88478C126.228 0.0227812 123.21 0.0227812 121.348 1.88478C119.486 3.74678 119.486 6.76519 121.348 8.62719Z" fill="#3B6DE9"/>
</svg>
