<svg width="133" height="172" viewBox="0 0 133 172" fill="none" xmlns="http://www.w3.org/2000/svg">
<path d="M130.346 50.3457C132.746 47.9457 132.746 44.0543 130.346 41.6542L91.234 2.54239C88.8339 0.142293 84.9426 0.142294 82.5425 2.54239C80.1424 4.94249 80.1424 8.83381 82.5425 11.2339L117.309 46L82.5425 80.7661C80.1424 83.1662 80.1424 87.0575 82.5425 89.4576C84.9426 91.8577 88.8339 91.8577 91.234 89.4576L130.346 50.3457ZM7.06958 52.1458L126 52.1458L126 39.8542L7.06958 39.8542L7.06958 52.1458Z" fill="white"/>
<path d="M2.65442 130.346C0.254326 127.946 0.254326 124.054 2.65442 121.654L41.7663 82.5424C44.1664 80.1423 48.0577 80.1423 50.4578 82.5424C52.8579 84.9425 52.8579 88.8338 50.4578 91.2339L15.6917 126L50.4578 160.766C52.8579 163.166 52.8579 167.057 50.4578 169.458C48.0577 171.858 44.1664 171.858 41.7663 169.458L2.65442 130.346ZM125.931 132.146L7.00018 132.146L7.00018 119.854L125.931 119.854L125.931 132.146Z" fill="white"/>
</svg>
