<svg width="500" height="259" viewBox="0 0 500 259" fill="none" xmlns="http://www.w3.org/2000/svg">
<line y1="75.5" x2="484.424" y2="75.5" stroke="#91C3FF"/>
<line y1="214.5" x2="484.424" y2="214.5" stroke="#91C3FF"/>
<line y1="205.5" x2="484.424" y2="205.5" stroke="#91C3FF"/>
<line x1="2.33594" y1="65.5" x2="486.76" y2="65.5" stroke="#91C3FF"/>
<line x1="15.5762" y1="171.5" x2="500" y2="171.5" stroke="#91C3FF"/>
<line y1="89.5" x2="484.424" y2="89.5" stroke="#91C3FF"/>
<line y1="180.5" x2="484.424" y2="180.5" stroke="#91C3FF"/>
<line y1="86.5" x2="484.424" y2="86.5" stroke="#91C3FF"/>
<path d="M294.064 99.3033H324.877C327.489 99.3033 329.608 101.419 329.608 104.027V120.977L363.579 87.0543L329.608 53.1317V70.0814C329.608 72.6898 327.489 74.8054 324.877 74.8054C324.736 74.8054 324.598 74.7988 324.46 74.7872L232.823 74.7905C215.053 75.1008 199.006 82.5128 187.405 94.3055C175.84 106.063 168.706 122.193 168.706 140.001C168.706 146.074 169.522 151.918 171.049 157.432C172.636 163.16 174.988 168.574 177.987 173.557C179.325 175.789 178.595 178.681 176.36 180.016C175.601 180.469 174.765 180.685 173.939 180.685V180.7H143.126C140.514 180.7 138.396 178.584 138.396 175.976V159.026L104.424 192.949L138.396 226.872V209.922C138.396 207.314 140.514 205.198 143.126 205.198C143.268 205.198 143.406 205.205 143.544 205.216L235.257 205.211C253.009 204.881 269.038 197.464 280.624 185.671C292.173 173.917 299.297 157.797 299.297 140.004C299.297 133.931 298.481 128.087 296.954 122.575C295.367 116.847 293.016 111.433 290.016 106.45C288.679 104.218 289.408 101.326 291.643 99.9902C292.403 99.5372 293.238 99.3215 294.064 99.3215V99.3066V99.3033ZM320.144 108.753H301.897C303.572 112.375 304.965 116.153 306.047 120.061C307.815 126.443 308.758 133.131 308.758 140.001C308.758 160.345 300.593 178.8 287.351 192.275C274.101 205.76 255.749 214.243 235.403 214.621L147.857 214.626V238.276C147.857 239.486 147.395 240.694 146.471 241.616C144.624 243.461 141.628 243.461 139.78 241.616L94.3858 196.287C92.5381 194.442 92.5381 191.451 94.3858 189.605L139.76 144.297C140.617 143.431 141.809 142.893 143.125 142.893C145.737 142.893 147.856 145.009 147.856 147.617V171.247H166.103C164.428 167.625 163.035 163.847 161.953 159.939C160.185 153.557 159.242 146.869 159.242 139.999C159.242 119.64 167.419 101.175 180.676 87.6965C193.943 74.2097 212.312 65.7324 232.673 65.3773L320.143 65.374V41.724C320.143 40.5144 320.605 39.3064 321.529 38.3839C323.376 36.5387 326.372 36.5387 328.22 38.3839L373.614 83.7125C375.462 85.5577 375.462 88.5494 373.614 90.3945L328.24 135.703C327.383 136.569 326.191 137.107 324.875 137.107C322.263 137.107 320.144 134.991 320.144 132.383V108.751V108.753Z" fill="#C2D3FF"/>
<path d="M208.535 163.045C211.518 165.951 211.585 170.728 208.682 173.715C205.782 176.703 201.011 176.769 198.027 173.863C197.636 173.485 197.251 173.098 196.874 172.709C187.625 163.138 183 150.904 183 138.677C183 126.451 187.625 114.217 196.874 104.646C197.251 104.257 197.636 103.87 198.027 103.492C207.994 93.8306 221.013 89 234 89C246.989 89 260.006 93.8306 269.973 103.492C270.364 103.87 270.749 104.257 271.126 104.646C280.375 114.217 285 126.451 285 138.677C285 150.904 280.375 163.138 271.126 172.709C270.749 173.099 270.364 173.485 269.973 173.863C266.989 176.769 262.22 176.703 259.318 173.715C256.417 170.728 256.482 165.951 259.465 163.045C259.757 162.761 260.044 162.473 260.323 162.186C266.699 155.587 269.887 147.135 269.887 138.677C269.887 130.219 266.698 121.766 260.323 115.169C260.044 114.88 259.757 114.593 259.465 114.31C254.385 109.387 248.135 106.25 241.554 104.9V138.677C241.554 142.857 238.171 146.245 233.998 146.245C229.826 146.245 226.443 142.857 226.443 138.677V104.9C219.862 106.25 213.611 109.387 208.532 114.31C208.24 114.594 207.953 114.882 207.674 115.169C201.297 121.768 198.11 130.22 198.11 138.677C198.11 147.136 201.297 155.589 207.674 162.186C207.953 162.475 208.24 162.761 208.532 163.045H208.535Z" fill="#C2D3FF"/>
<line x1="291.247" y1="0.752513" x2="399.247" y2="108.753" stroke="#F6F6F6" stroke-width="0.7"/>
<line x1="283.247" y1="7.75251" x2="395.247" y2="119.753" stroke="#F6F6F6" stroke-width="0.7"/>
<line x1="393.247" y1="61.8073" x2="314.247" y2="140.807" stroke="#F6F6F6" stroke-width="0.7"/>
<line x1="401.247" y1="67.2475" x2="321.247" y2="147.247" stroke="#F6F6F6" stroke-width="0.7"/>
<path d="M206.128 181.412C197.491 175.466 190.945 167.088 187.376 157.412C183.806 147.737 183.384 137.23 186.167 127.314C188.95 117.398 194.804 108.551 202.938 101.971C211.073 95.3903 221.094 91.3954 231.645 90.5286C242.197 89.6617 252.767 91.9648 261.925 97.1251C271.083 102.285 278.385 110.053 282.844 119.375C287.303 128.696 288.704 139.122 286.859 149.242C285.014 159.362 280.011 168.688 272.526 175.958" stroke="#F6F6F6" stroke-width="0.7"/>
<circle cx="175.5" cy="177.5" r="5.15" stroke="#F6F6F6" stroke-width="0.7" stroke-linecap="round" stroke-dasharray="10 10"/>
<path d="M271.65 140.5C271.65 159.347 255.703 174.65 236 174.65C216.297 174.65 200.35 159.347 200.35 140.5C200.35 121.653 216.297 106.35 236 106.35C255.703 106.35 271.65 121.653 271.65 140.5Z" stroke="#F6F6F6" stroke-width="0.7"/>
<path d="M311.65 141.5C311.65 182.445 277.787 215.65 236 215.65C194.213 215.65 160.35 182.445 160.35 141.5C160.35 100.555 194.213 67.35 236 67.35C277.787 67.35 311.65 100.555 311.65 141.5Z" stroke="#F6F6F6" stroke-width="0.7"/>
<line x1="140.35" y1="118" x2="140.35" y2="259" stroke="#F6F6F6" stroke-width="0.7"/>
<line x1="321.35" y1="19" x2="321.35" y2="160" stroke="#F6F6F6" stroke-width="0.7"/>
<line x1="243.35" y1="14" x2="243.35" y2="202" stroke="#F6F6F6" stroke-width="0.7"/>
<line x1="150.35" y1="118" x2="150.35" y2="259" stroke="#F6F6F6" stroke-width="0.7"/>
<line x1="331.35" y1="19" x2="331.35" y2="160" stroke="#F6F6F6" stroke-width="0.7"/>
<line x1="228.35" y1="14" x2="228.35" y2="202" stroke="#F6F6F6" stroke-width="0.7"/>
</svg>
