<svg width="6" height="10" viewBox="0 0 6 10" fill="none" xmlns="http://www.w3.org/2000/svg">
<path d="M5.73042 4.42333L1.23024 0.673166C1.07725 0.546622 0.880358 0.485859 0.682667 0.504181C0.484976 0.522504 0.302602 0.61842 0.175482 0.770925C0.0483622 0.92343 -0.0131438 1.1201 0.00443316 1.31785C0.0220101 1.51561 0.117238 1.69835 0.269262 1.82604L4.07801 4.99979L0.269262 8.17354C0.116652 8.30106 0.020898 8.48394 0.00303531 8.68201C-0.0148274 8.88007 0.0466618 9.07713 0.173995 9.2299C0.301329 9.38266 0.484093 9.47863 0.682141 9.49673C0.880188 9.51483 1.07732 9.45358 1.23024 9.32643L5.73042 5.5762C5.81481 5.50571 5.88268 5.41754 5.92926 5.31794C5.97583 5.21834 5.99997 5.10972 5.99997 4.99977C5.99997 4.88981 5.97583 4.7812 5.92926 4.68159C5.88268 4.58199 5.81481 4.49383 5.73042 4.42333Z" fill="white" fill-opacity="0.5"/>
</svg>
