<svg width="1140" height="1315" viewBox="0 0 1140 1315" fill="none" xmlns="http://www.w3.org/2000/svg">
<path opacity="0.36" d="M644.255 790.291C665.26 811.418 665.26 845.672 644.255 866.774L214.832 1298.6C193.826 1319.73 159.769 1319.73 138.763 1298.6C117.757 1277.47 117.757 1243.22 138.763 1222.12L568.186 790.291C589.191 769.164 623.249 769.164 644.23 790.291H644.255Z" fill="url(#paint0_radial_61_120)"/>
<path opacity="0.94" d="M384.422 925.787C596.739 1033.39 851.769 956.984 954.069 755.128C1056.37 553.272 967.187 302.423 754.87 194.823C542.553 87.2221 287.523 163.626 185.224 365.482C82.9246 567.338 172.106 818.187 384.422 925.787ZM681.495 339.606C809.696 404.578 863.553 556.065 801.782 677.95C740.012 799.835 585.999 845.976 457.798 781.004C329.596 716.032 275.74 564.545 337.51 442.66C399.281 320.775 553.293 274.635 681.495 339.606Z" fill="url(#paint1_radial_61_120)"/>
<path d="M379.211 883.563C382.033 886.385 382.033 890.971 379.211 893.813L47.2455 1225.78C44.4231 1228.6 39.8367 1228.6 36.9947 1225.78C34.1723 1222.96 34.1723 1218.37 36.9947 1215.53L368.96 883.563C371.782 880.74 376.369 880.74 379.211 883.563Z" fill="url(#paint2_linear_61_120)" style="mix-blend-mode:overlay"/>
<path d="M302.636 1135.79C300.774 1133.93 297.756 1133.93 295.894 1135.79C294.032 1137.65 294.032 1140.67 295.894 1142.53C297.756 1144.4 300.774 1144.4 302.636 1142.53C304.498 1140.67 304.498 1137.65 302.636 1135.79Z" fill="#3B6DE9"/>
<path d="M332.506 1105.92C330.644 1104.06 327.626 1104.06 325.764 1105.92C323.902 1107.78 323.902 1110.8 325.764 1112.66C327.626 1114.53 330.644 1114.53 332.506 1112.66C334.368 1110.8 334.368 1107.78 332.506 1105.92Z" fill="#3B6DE9"/>
<path d="M362.357 1076.05C360.495 1074.19 357.476 1074.19 355.614 1076.05C353.752 1077.91 353.752 1080.93 355.614 1082.79C357.476 1084.66 360.495 1084.66 362.357 1082.79C364.219 1080.93 364.219 1077.91 362.357 1076.05Z" fill="#3B6DE9"/>
<path d="M392.228 1046.2C390.366 1044.34 387.347 1044.34 385.485 1046.2C383.623 1048.06 383.623 1051.08 385.485 1052.94C387.347 1054.81 390.366 1054.81 392.228 1052.94C394.09 1051.08 394.09 1048.06 392.228 1046.2Z" fill="#3B6DE9"/>
<path d="M415.355 1023.07C417.217 1024.93 420.236 1024.93 422.098 1023.07C423.96 1021.21 423.96 1018.19 422.098 1016.33C420.236 1014.47 417.217 1014.47 415.355 1016.33C413.493 1018.19 413.493 1021.21 415.355 1023.07Z" fill="#3B6DE9"/>
<defs>
<radialGradient id="paint0_radial_61_120" cx="0" cy="0" r="1" gradientUnits="userSpaceOnUse" gradientTransform="translate(25.6901 1372.45) rotate(-134.825) scale(1621.98 1621.95)">
<stop stop-color="#5BC7CE"/>
<stop offset="0.11" stop-color="#4198C0"/>
<stop offset="0.23" stop-color="#296BB3"/>
<stop offset="0.34" stop-color="#184AAA"/>
<stop offset="0.43" stop-color="#0D37A5"/>
<stop offset="0.49" stop-color="#0A30A3"/>
<stop offset="1" stop-color="#00152A"/>
</radialGradient>
<radialGradient id="paint1_radial_61_120" cx="0" cy="0" r="1" gradientUnits="userSpaceOnUse" gradientTransform="translate(363.346 838.433) rotate(-153.124) scale(894.193 850.137)">
<stop stop-color="#0A30A3"/>
<stop offset="1" stop-color="#00152A"/>
</radialGradient>
<linearGradient id="paint2_linear_61_120" x1="57.3779" y1="1227.45" x2="275.378" y2="1014.95" gradientUnits="userSpaceOnUse">
<stop stop-color="#0A30A3" stop-opacity="0.31"/>
<stop offset="1" stop-color="white" stop-opacity="0"/>
</linearGradient>
</defs>
</svg>
