<svg width="129" height="129" viewBox="0 0 129 129" fill="none" xmlns="http://www.w3.org/2000/svg">
<path d="M8.13891 120.858C6.27691 118.996 3.2585 118.996 1.3965 120.858C-0.4655 122.72 -0.4655 125.739 1.3965 127.601C3.2585 129.463 6.27691 129.463 8.13891 127.601C10.0009 125.739 10.0009 122.72 8.13891 120.858Z" fill="#05C0C7"/>
<path d="M38.01 90.9881C36.148 89.1261 33.1296 89.1261 31.2676 90.9881C29.4056 92.8501 29.4056 95.8685 31.2676 97.7305C33.1296 99.5925 36.148 99.5925 38.01 97.7305C39.872 95.8685 39.872 92.8501 38.01 90.9881Z" fill="#05C0C7"/>
<path d="M67.8577 61.1177C65.9957 59.2557 62.9773 59.2557 61.1152 61.1177C59.2532 62.9797 59.2532 65.998 61.1152 67.86C62.9773 69.722 65.9957 69.722 67.8577 67.86C69.7197 65.998 69.7197 62.9797 67.8577 61.1177Z" fill="#05C0C7"/>
<path d="M97.7327 31.2669C95.8707 29.4049 92.8523 29.4049 90.9902 31.2669C89.1282 33.1289 89.1282 36.1473 90.9902 38.0093C92.8523 39.8713 95.8707 39.8713 97.7327 38.0093C99.5947 36.1473 99.5947 33.1289 97.7327 31.2669Z" fill="#05C0C7"/>
<path d="M120.857 8.13891C122.719 10.0009 125.738 10.0009 127.6 8.13891C129.462 6.27691 129.462 3.2585 127.6 1.3965C125.738 -0.4655 122.719 -0.4655 120.857 1.3965C118.995 3.2585 118.995 6.27691 120.857 8.13891Z" fill="#05C0C7"/>
</svg>
