<svg width="231" height="68" viewBox="0 0 231 68" fill="none" xmlns="http://www.w3.org/2000/svg">
<path d="M222.782 68H8.09184C3.63098 68 0 64.3824 0 59.9539V8.0342C0 3.604 3.63098 0 8.09184 0H222.782C227.241 0 231 3.604 231 8.0342V59.9539C231 64.3824 227.241 68 222.782 68Z" fill="#A6A6A6"/>
<path d="M229.344 59.9573C229.344 63.5545 226.411 66.4683 222.784 66.4683H8.09239C4.46655 66.4683 1.52344 63.5545 1.52344 59.9573V8.03415C1.52344 4.43865 4.46655 1.51465 8.09239 1.51465H222.782C226.411 1.51465 229.342 4.43865 229.342 8.03415L229.344 59.9573Z" fill="#5489CA"/>
<path d="M51.5507 33.6335C51.5011 28.1544 56.0663 25.4888 56.2751 25.3647C53.6896 21.6196 49.6822 21.1079 48.2739 21.0671C44.9082 20.7152 41.6434 23.068 39.9288 23.068C38.1801 23.068 35.5398 21.1011 32.6943 21.1589C29.0325 21.215 25.6068 23.3213 23.728 26.5921C19.8507 33.2612 22.7424 43.0617 26.4573 48.4524C28.3155 51.0925 30.4869 54.0403 33.3291 53.9366C36.1096 53.8227 37.1483 52.1754 40.5038 52.1754C43.8285 52.1754 44.8038 53.9366 47.7024 53.8703C50.6866 53.8227 52.5654 51.2183 54.3586 48.5544C56.5061 45.5284 57.3685 42.5483 57.4027 42.3953C57.3326 42.3715 51.6072 40.2006 51.5507 33.6335Z" fill="white"/>
<path d="M46.0782 17.5206C47.5737 15.6625 48.597 13.1346 48.3129 10.5693C46.1484 10.6645 43.4414 12.0568 41.8826 13.8741C40.5034 15.4755 39.2714 18.1003 39.5897 20.5687C42.0212 20.7489 44.5177 19.3498 46.0782 17.5206Z" fill="white"/>
<path d="M91.7907 53.5572H87.9048L85.7762 46.9119H78.3773L76.3497 53.5572H72.5664L79.8968 30.9336H84.4244L91.7907 53.5572ZM85.1345 44.1239L83.2095 38.2164C83.0059 37.6129 82.6243 36.1917 82.0614 33.9545H81.9929C81.7688 34.9167 81.4077 36.3379 80.9115 38.2164L79.0207 44.1239H85.1345Z" fill="white"/>
<path d="M110.644 45.2001C110.644 47.9745 109.89 50.1675 108.381 51.7774C107.029 53.2105 105.35 53.9262 103.347 53.9262C101.184 53.9262 99.63 53.1544 98.6837 51.6108H98.6153V60.2043H94.9672V42.6144C94.9672 40.8702 94.921 39.0801 94.832 37.2441H98.0404L98.244 39.8298H98.3124C99.529 37.8816 101.375 36.9092 103.853 36.9092C105.79 36.9092 107.407 37.6691 108.701 39.1906C109.998 40.7138 110.644 42.7164 110.644 45.2001ZM106.928 45.3327C106.928 43.7449 106.569 42.4359 105.846 41.4057C105.058 40.3313 103.998 39.7941 102.671 39.7941C101.771 39.7941 100.953 40.0933 100.222 40.6832C99.4897 41.2782 99.0106 42.0551 98.7864 43.0173C98.6735 43.4661 98.617 43.8333 98.617 44.1223V46.8423C98.617 48.0289 98.9832 49.0302 99.7155 49.8479C100.448 50.6656 101.399 51.0736 102.57 51.0736C103.944 51.0736 105.013 50.5466 105.778 49.496C106.545 48.4437 106.928 47.0565 106.928 45.3327Z" fill="white"/>
<path d="M129.529 45.1991C129.529 47.9735 128.775 50.1665 127.264 51.7764C125.914 53.2095 124.235 53.9252 122.232 53.9252C120.069 53.9252 118.515 53.1534 117.57 51.6098H117.502V60.2033H113.854V42.6134C113.854 40.8692 113.808 39.0791 113.719 37.2431H116.927L117.131 39.8288H117.199C118.414 37.8806 120.26 36.9082 122.74 36.9082C124.675 36.9082 126.292 37.6681 127.589 39.1896C128.881 40.7128 129.529 42.7154 129.529 45.1991ZM125.813 45.3317C125.813 43.7439 125.452 42.4349 124.73 41.4047C123.941 40.3303 122.885 39.7931 121.556 39.7931C120.654 39.7931 119.838 40.0923 119.105 40.6822C118.373 41.2772 117.896 42.0541 117.671 43.0163C117.56 43.4651 117.502 43.8323 117.502 44.1213V46.8413C117.502 48.0279 117.868 49.0292 118.597 49.8469C119.329 50.6629 120.281 51.0726 121.455 51.0726C122.829 51.0726 123.898 50.5456 124.663 49.495C125.43 48.4427 125.813 47.0555 125.813 45.3317Z" fill="white"/>
<path d="M150.643 47.2123C150.643 49.1367 149.97 50.7024 148.62 51.9111C147.137 53.232 145.071 53.8916 142.417 53.8916C139.967 53.8916 138.003 53.4224 136.516 52.4823L137.361 49.4614C138.963 50.4236 140.72 50.9064 142.635 50.9064C144.009 50.9064 145.078 50.597 145.846 49.9816C146.611 49.3662 146.993 48.54 146.993 47.5098C146.993 46.5918 146.678 45.8183 146.047 45.191C145.419 44.5637 144.37 43.9806 142.905 43.4417C138.918 41.9644 136.926 39.8003 136.926 36.9545C136.926 35.0947 137.624 33.5698 139.022 32.3832C140.415 31.1949 142.274 30.6016 144.597 30.6016C146.669 30.6016 148.391 30.9603 149.765 31.676L148.853 34.6306C147.569 33.937 146.118 33.5902 144.495 33.5902C143.211 33.5902 142.209 33.9047 141.49 34.5303C140.882 35.0896 140.578 35.7713 140.578 36.5788C140.578 37.473 140.925 38.2125 141.623 38.7939C142.231 39.3311 143.334 39.9125 144.936 40.5398C146.895 41.3235 148.334 42.2398 149.26 43.2904C150.182 44.3376 150.643 45.6483 150.643 47.2123Z" fill="white"/>
<path d="M162.707 39.9634H158.686V47.8837C158.686 49.8982 159.394 50.9046 160.814 50.9046C161.466 50.9046 162.007 50.8485 162.435 50.7363L162.536 53.4886C161.817 53.7555 160.871 53.8898 159.699 53.8898C158.258 53.8898 157.132 53.4529 156.319 52.5808C155.51 51.707 155.103 50.2416 155.103 48.1829V39.96H152.707V37.24H155.103V34.2531L158.686 33.1787V37.24H162.707V39.9634Z" fill="white"/>
<path d="M180.848 45.2637C180.848 47.7712 180.126 49.8299 178.686 51.4398C177.175 53.0973 175.169 53.9235 172.669 53.9235C170.26 53.9235 168.342 53.1296 166.911 51.5418C165.481 49.954 164.766 47.9497 164.766 45.534C164.766 43.0061 165.501 40.9355 166.978 39.3256C168.451 37.714 170.44 36.9082 172.94 36.9082C175.349 36.9082 177.288 37.7021 178.751 39.2916C180.15 40.8335 180.848 42.8242 180.848 45.2637ZM177.063 45.381C177.063 43.8765 176.74 42.5862 176.085 41.5101C175.32 40.2079 174.226 39.5585 172.81 39.5585C171.343 39.5585 170.229 40.2096 169.464 41.5101C168.809 42.5879 168.486 43.8986 168.486 45.449C168.486 46.9535 168.809 48.2438 169.464 49.3182C170.253 50.6204 171.355 51.2698 172.777 51.2698C174.17 51.2698 175.263 50.6068 176.052 49.2842C176.725 48.1877 177.063 46.8838 177.063 45.381Z" fill="white"/>
<path d="M192.707 40.4316C192.346 40.3653 191.961 40.3313 191.557 40.3313C190.274 40.3313 189.281 40.8124 188.583 41.7763C187.975 42.6263 187.671 43.7007 187.671 44.9978V53.5573H184.025L184.059 42.3815C184.059 40.5013 184.013 38.7894 183.922 37.2458H187.099L187.233 40.367H187.334C187.719 39.2943 188.326 38.4307 189.158 37.783C189.971 37.1999 190.848 36.9092 191.795 36.9092C192.132 36.9092 192.436 36.933 192.707 36.9755V40.4316Z" fill="white"/>
<path d="M209.022 44.6273C209.022 45.2767 208.979 45.8241 208.889 46.2712H197.944C197.987 47.8828 198.516 49.1153 199.532 49.9653C200.455 50.7252 201.647 51.106 203.112 51.106C204.732 51.106 206.211 50.8493 207.54 50.3342L208.112 52.8502C206.558 53.5234 204.724 53.8583 202.607 53.8583C200.061 53.8583 198.062 53.1137 196.608 51.6262C195.157 50.1387 194.43 48.1412 194.43 45.6354C194.43 43.1755 195.106 41.127 196.459 39.4933C197.876 37.7491 199.791 36.877 202.2 36.877C204.566 36.877 206.358 37.7491 207.574 39.4933C208.538 40.8788 209.022 42.5924 209.022 44.6273ZM205.543 43.6872C205.567 42.6128 205.329 41.6846 204.835 40.9009C204.204 39.8928 203.233 39.3896 201.928 39.3896C200.735 39.3896 199.765 39.8809 199.024 40.8669C198.417 41.6506 198.056 42.5907 197.944 43.6855L205.543 43.6872Z" fill="white"/>
<path d="M83.9299 17.0138C83.9299 19.0147 83.3259 20.5209 82.1195 21.5324C81.0022 22.4657 79.4143 22.9332 77.3575 22.9332C76.3377 22.9332 75.465 22.889 74.7344 22.8006V11.8679C75.6875 11.7149 76.7141 11.6367 77.8229 11.6367C79.7822 11.6367 81.2588 12.06 82.2547 12.9066C83.3704 13.8637 83.9299 15.2322 83.9299 17.0138ZM82.0391 17.0631C82.0391 15.766 81.6935 14.7715 81.0022 14.0779C80.3109 13.386 79.3013 13.0392 77.9718 13.0392C77.4071 13.0392 76.9263 13.0766 76.5276 13.1548V21.4661C76.7484 21.5001 77.1522 21.5154 77.7391 21.5154C79.1114 21.5154 80.1706 21.1363 80.9166 20.3781C81.6627 19.6199 82.0391 18.5149 82.0391 17.0631Z" fill="white"/>
<path d="M93.9549 18.761C93.9549 19.9935 93.6007 21.0033 92.8923 21.7955C92.1497 22.6098 91.1658 23.0161 89.9372 23.0161C88.7531 23.0161 87.8103 22.6268 87.107 21.8448C86.4055 21.0645 86.0547 20.0802 86.0547 18.8936C86.0547 17.6526 86.4157 16.6343 87.1412 15.8438C87.8668 15.0533 88.8421 14.6572 90.0707 14.6572C91.2548 14.6572 92.2061 15.0465 92.9265 15.8268C93.611 16.585 93.9549 17.5642 93.9549 18.761ZM92.0949 18.8188C92.0949 18.0793 91.9341 17.4452 91.6141 16.9165C91.2376 16.2773 90.7021 15.9577 90.0056 15.9577C89.2853 15.9577 88.7377 16.2773 88.3613 16.9165C88.0396 17.4452 87.8804 18.0895 87.8804 18.8511C87.8804 19.5906 88.0413 20.2247 88.3613 20.7534C88.7497 21.3926 89.2904 21.7122 89.9885 21.7122C90.673 21.7122 91.2103 21.3875 91.597 20.7364C91.9289 20.1975 92.0949 19.5583 92.0949 18.8188Z" fill="white"/>
<path d="M107.398 14.8232L104.874 22.837H103.231L102.186 19.3571C101.921 18.4884 101.705 17.6248 101.537 16.768H101.505C101.349 17.6486 101.133 18.5105 100.856 19.3571L99.7457 22.837H98.0842L95.7109 14.8232H97.5538L98.4658 18.6329C98.6866 19.5339 98.8679 20.3924 99.0134 21.205H99.0459C99.1794 20.5352 99.4001 19.6818 99.7115 18.6499L100.856 14.8249H102.318L103.414 18.5683C103.68 19.4812 103.895 20.3601 104.061 21.2067H104.111C104.232 20.3822 104.415 19.5033 104.658 18.5683L105.637 14.8249H107.398V14.8232Z" fill="white"/>
<path d="M116.695 22.8354H114.902V18.2454C114.902 16.831 114.361 16.1238 113.277 16.1238C112.744 16.1238 112.315 16.3176 111.981 16.7069C111.651 17.0962 111.483 17.5552 111.483 18.0805V22.8337H109.69V17.1115C109.69 16.4077 109.668 15.6444 109.625 14.8182H111.201L111.285 16.0711H111.334C111.543 15.6818 111.855 15.3605 112.264 15.1038C112.749 14.8046 113.294 14.6533 113.889 14.6533C114.642 14.6533 115.268 14.8947 115.766 15.3792C116.386 15.9725 116.695 16.8582 116.695 18.0346V22.8354Z" fill="white"/>
<path d="M121.639 22.8345H119.848V11.1436H121.639V22.8345Z" fill="white"/>
<path d="M132.197 18.761C132.197 19.9935 131.843 21.0033 131.134 21.7955C130.392 22.6098 129.406 23.0161 128.179 23.0161C126.994 23.0161 126.051 22.6268 125.349 21.8448C124.648 21.0645 124.297 20.0802 124.297 18.8936C124.297 17.6526 124.658 16.6343 125.383 15.8438C126.109 15.0533 127.084 14.6572 128.311 14.6572C129.497 14.6572 130.447 15.0465 131.169 15.8268C131.853 16.585 132.197 17.5642 132.197 18.761ZM130.335 18.8188C130.335 18.0793 130.175 17.4452 129.855 16.9165C129.48 16.2773 128.943 15.9577 128.248 15.9577C127.526 15.9577 126.978 16.2773 126.603 16.9165C126.282 17.4452 126.123 18.0895 126.123 18.8511C126.123 19.5906 126.283 20.2247 126.603 20.7534C126.992 21.3926 127.533 21.7122 128.231 21.7122C128.915 21.7122 129.451 21.3875 129.837 20.7364C130.171 20.1975 130.335 19.5583 130.335 18.8188Z" fill="white"/>
<path d="M140.876 22.8342H139.266L139.132 21.9111H139.083C138.532 22.6472 137.746 23.0161 136.726 23.0161C135.965 23.0161 135.349 22.773 134.885 22.2902C134.464 21.8516 134.254 21.3059 134.254 20.6582C134.254 19.679 134.665 18.9327 135.491 18.4159C136.316 17.8991 137.476 17.6458 138.97 17.6577V17.5081C138.97 16.4524 138.412 15.9254 137.295 15.9254C136.499 15.9254 135.797 16.1243 135.192 16.5187L134.827 15.3491C135.577 14.8884 136.502 14.6572 137.594 14.6572C139.702 14.6572 140.76 15.7622 140.76 17.9722V20.9234C140.76 21.7241 140.799 22.3616 140.876 22.8342ZM139.014 20.0802V18.8443C137.036 18.8103 136.047 19.3492 136.047 20.4593C136.047 20.8775 136.16 21.1903 136.391 21.3994C136.622 21.6085 136.916 21.7122 137.267 21.7122C137.661 21.7122 138.029 21.5881 138.364 21.3416C138.701 21.0934 138.908 20.7789 138.985 20.393C139.004 20.3063 139.014 20.2009 139.014 20.0802Z" fill="white"/>
<path d="M151.063 22.8345H149.472L149.388 21.5476H149.338C148.83 22.5268 147.964 23.0164 146.748 23.0164C145.776 23.0164 144.967 22.6373 144.325 21.8791C143.683 21.1209 143.363 20.1366 143.363 18.9279C143.363 17.6308 143.711 16.5802 144.409 15.7778C145.085 15.0298 145.913 14.6558 146.898 14.6558C147.982 14.6558 148.74 15.0179 149.171 15.7438H149.205V11.1436H151V20.6755C151 21.4558 151.021 22.1749 151.063 22.8345ZM149.205 19.4549V18.1187C149.205 17.8875 149.188 17.7005 149.155 17.5577C149.054 17.1293 148.837 16.7689 148.507 16.4782C148.173 16.1875 147.771 16.0413 147.307 16.0413C146.638 16.0413 146.115 16.3048 145.73 16.8335C145.348 17.3622 145.155 18.0371 145.155 18.8616C145.155 19.6538 145.338 20.2964 145.706 20.7911C146.094 21.3181 146.618 21.5816 147.273 21.5816C147.862 21.5816 148.332 21.3623 148.69 20.922C149.036 20.5157 149.205 20.0261 149.205 19.4549Z" fill="white"/>
<path d="M166.4 18.761C166.4 19.9935 166.046 21.0033 165.338 21.7955C164.595 22.6098 163.613 23.0161 162.383 23.0161C161.2 23.0161 160.257 22.6268 159.552 21.8448C158.851 21.0645 158.5 20.0802 158.5 18.8936C158.5 17.6526 158.861 16.6343 159.587 15.8438C160.312 15.0533 161.287 14.6572 162.518 14.6572C163.7 14.6572 164.653 15.0465 165.372 15.8268C166.056 16.585 166.4 17.5642 166.4 18.761ZM164.542 18.8188C164.542 18.0793 164.381 17.4452 164.061 16.9165C163.683 16.2773 163.149 15.9577 162.451 15.9577C161.732 15.9577 161.185 16.2773 160.807 16.9165C160.485 17.4452 160.326 18.0895 160.326 18.8511C160.326 19.5906 160.487 20.2247 160.807 20.7534C161.195 21.3926 161.736 21.7122 162.434 21.7122C163.118 21.7122 163.657 21.3875 164.044 20.7364C164.374 20.1975 164.542 19.5583 164.542 18.8188Z" fill="white"/>
<path d="M176.045 22.8354H174.254V18.2454C174.254 16.831 173.713 16.1238 172.626 16.1238C172.094 16.1238 171.665 16.3176 171.333 16.7069C171.001 17.0962 170.835 17.5552 170.835 18.0805V22.8337H169.04V17.1115C169.04 16.4077 169.019 15.6444 168.977 14.8182H170.551L170.635 16.0711H170.684C170.895 15.6818 171.206 15.3605 171.613 15.1038C172.101 14.8046 172.643 14.6533 173.241 14.6533C173.992 14.6533 174.618 14.8947 175.116 15.3792C175.737 15.9725 176.045 16.8582 176.045 18.0346V22.8354Z" fill="white"/>
<path d="M188.112 16.1594H186.137V20.0524C186.137 21.0418 186.488 21.5365 187.183 21.5365C187.504 21.5365 187.771 21.5093 187.982 21.4532L188.028 22.8047C187.674 22.9373 187.208 23.0036 186.635 23.0036C185.927 23.0036 185.376 22.7894 184.977 22.361C184.577 21.9326 184.378 21.2118 184.378 20.2003V16.1594H183.199V14.8249H184.378V13.3561L186.135 12.8291V14.8232H188.11L188.112 16.1594Z" fill="white"/>
<path d="M197.607 22.8345H195.812V18.2785C195.812 16.842 195.271 16.1229 194.188 16.1229C193.356 16.1229 192.788 16.5394 192.477 17.3724C192.424 17.5475 192.393 17.7617 192.393 18.0133V22.8328H190.602V11.1436H192.393V15.9733H192.427C192.992 15.0944 193.801 14.6558 194.85 14.6558C195.593 14.6558 196.207 14.8972 196.695 15.3817C197.302 15.9852 197.607 16.8828 197.607 18.0694V22.8345Z" fill="white"/>
<path d="M207.398 18.4499C207.398 18.7695 207.374 19.0381 207.331 19.2574H201.953C201.977 20.0496 202.234 20.6531 202.732 21.0713C203.187 21.4453 203.774 21.6323 204.492 21.6323C205.288 21.6323 206.014 21.5065 206.667 21.2532L206.948 22.4908C206.183 22.8206 205.283 22.9855 204.241 22.9855C202.992 22.9855 202.008 22.62 201.296 21.889C200.581 21.158 200.227 20.1771 200.227 18.9463C200.227 17.7376 200.557 16.7312 201.222 15.9288C201.917 15.072 202.857 14.6436 204.042 14.6436C205.202 14.6436 206.084 15.072 206.679 15.9288C207.16 16.6088 207.398 17.4503 207.398 18.4499ZM205.687 17.9892C205.7 17.4605 205.582 17.0049 205.339 16.6207C205.028 16.126 204.554 15.8778 203.912 15.8778C203.327 15.8778 202.85 16.1192 202.485 16.6037C202.187 16.9896 202.011 17.4503 201.953 17.9892H205.687Z" fill="white"/>
</svg>
