<svg width="237" height="70" viewBox="0 0 237 70" fill="none" xmlns="http://www.w3.org/2000/svg">
<g clip-path="url(#clip0_527_8520)">
<path d="M228.222 0H8.77778C3.92994 0 0 3.91751 0 8.75V61.25C0 66.0825 3.92994 70 8.77778 70H228.222C233.07 70 237 66.0825 237 61.25V8.75C237 3.91751 233.07 0 228.222 0Z" fill="#5489CA"/>
<path d="M228.222 1.4C230.178 1.4 232.053 2.17437 233.436 3.55276C234.819 4.93116 235.596 6.80066 235.596 8.75V61.25C235.596 63.1993 234.819 65.0688 233.436 66.4472C232.053 67.8256 230.178 68.6 228.222 68.6H8.77778C6.82225 68.6 4.94681 67.8256 3.56404 66.4472C2.18128 65.0688 1.40444 63.1993 1.40444 61.25V8.75C1.40444 6.80066 2.18128 4.93116 3.56404 3.55276C4.94681 2.17437 6.82225 1.4 8.77778 1.4H228.222ZM228.222 0H8.77778C6.44977 0 4.2171 0.921872 2.57095 2.56282C0.924799 4.20376 0 6.42936 0 8.75V61.25C0 63.5706 0.924799 65.7962 2.57095 67.4372C4.2171 69.0781 6.44977 70 8.77778 70H228.222C230.55 70 232.783 69.0781 234.429 67.4372C236.075 65.7962 237 63.5706 237 61.25V8.75C237 6.42936 236.075 4.20376 234.429 2.56282C232.783 0.921872 230.55 0 228.222 0Z" fill="#A6A6A6"/>
<path d="M83.2476 17.9196C83.2775 18.5615 83.1762 19.2027 82.9498 19.8043C82.7235 20.406 82.3769 20.9555 81.931 21.4196C81.4331 21.9351 80.8319 22.3403 80.1664 22.6086C79.5009 22.877 78.7862 23.0025 78.0688 22.9771C76.9803 22.9686 75.9185 22.6401 75.0165 22.0327C74.1145 21.4253 73.4124 20.5661 72.9982 19.5627C72.5839 18.5593 72.4759 17.4563 72.6878 16.392C72.8996 15.3277 73.4218 14.3493 74.189 13.5796C74.6932 13.0665 75.2977 12.6619 75.965 12.391C76.6324 12.1201 77.3484 11.9886 78.0688 12.0046C78.8109 12.0021 79.5458 12.151 80.2281 12.4421C80.8633 12.6975 81.4289 13.0993 81.8783 13.6146L80.9479 14.5421C80.5975 14.1266 80.1549 13.7981 79.6553 13.5824C79.1556 13.3668 78.6124 13.27 78.0688 13.2996C77.5204 13.2969 76.9771 13.4046 76.4716 13.6163C75.966 13.828 75.5085 14.1393 75.1265 14.5315C74.7445 14.9237 74.4459 15.3887 74.2486 15.8988C74.0513 16.4088 73.9594 16.9533 73.9783 17.4996C73.9668 18.3153 74.1979 19.1162 74.6425 19.8011C75.0871 20.4861 75.7252 21.0244 76.4764 21.3483C77.2275 21.6721 78.0581 21.767 78.8632 21.6208C79.6684 21.4747 80.4121 21.0941 81.0005 20.5271C81.5407 19.9435 81.8523 19.1857 81.8783 18.3921H78.0688V17.1321H83.1774C83.2242 17.392 83.2477 17.6555 83.2476 17.9196ZM91.2881 13.5446H86.5481V16.8696H90.8667V18.1296H86.5481V21.4546H91.2881V22.7496H85.1436V12.2496H91.2881V13.5446ZM97.0463 22.7496H95.6945V13.5446H92.7452V12.2496H100.066V13.5446H97.0463V22.7496ZM105.227 22.7496V12.2496H106.579V22.7496H105.227ZM112.583 22.7496H111.231V13.5446H108.282V12.2496H115.515V13.5446H112.583V22.7496ZM129.226 21.3846C128.199 22.4019 126.811 22.973 125.363 22.973C123.916 22.973 122.528 22.4019 121.501 21.3846C120.504 20.332 119.948 18.9389 119.948 17.4908C119.948 16.0428 120.504 14.6497 121.501 13.5971C122.007 13.0891 122.609 12.686 123.272 12.4109C123.934 12.1358 124.645 11.9941 125.363 11.9941C126.081 11.9941 126.792 12.1358 127.455 12.4109C128.118 12.686 128.72 13.0891 129.226 13.5971C130.227 14.6477 130.786 16.0416 130.786 17.4908C130.786 18.9401 130.227 20.334 129.226 21.3846ZM122.502 20.5096C123.262 21.264 124.291 21.6876 125.363 21.6876C126.436 21.6876 127.465 21.264 128.225 20.5096C128.975 19.6854 129.39 18.6124 129.39 17.4996C129.39 16.3868 128.975 15.3138 128.225 14.4896C127.465 13.7351 126.436 13.3115 125.363 13.3115C124.291 13.3115 123.262 13.7351 122.502 14.4896C121.752 15.3138 121.336 16.3868 121.336 17.4996C121.336 18.6124 121.752 19.6854 122.502 20.5096ZM132.684 22.7496V12.2496H134.334L139.461 20.4221V12.2496H140.812V22.7496H139.408L134.053 14.1921V22.7496H132.684Z" fill="white" stroke="white" stroke-width="0.2" stroke-miterlimit="10"/>
<path d="M119.623 38.0615C118.149 38.0684 116.71 38.5105 115.487 39.3319C114.265 40.1533 113.314 41.3173 112.755 42.6769C112.195 44.0366 112.053 45.5309 112.344 46.9713C112.636 48.4117 113.35 49.7337 114.394 50.7703C115.439 51.807 116.769 52.5119 118.215 52.796C119.661 53.0802 121.16 52.9309 122.521 52.3669C123.882 51.803 125.046 50.8497 125.864 49.6274C126.682 48.4051 127.119 46.9685 127.119 45.499C127.133 44.5154 126.949 43.5389 126.577 42.6278C126.205 41.7167 125.652 40.8896 124.953 40.1956C124.254 39.5017 123.421 38.9551 122.506 38.5885C121.59 38.2218 120.609 38.0426 119.623 38.0615ZM119.623 50.014C118.716 50.0772 117.811 49.8671 117.026 49.4109C116.241 48.9548 115.612 48.2737 115.22 47.4563C114.828 46.6388 114.692 45.7228 114.829 44.8272C114.967 43.9317 115.371 43.0981 115.99 42.4348C116.609 41.7715 117.414 41.3091 118.3 41.1078C119.187 40.9066 120.113 40.9756 120.959 41.3061C121.805 41.6366 122.532 42.2132 123.045 42.961C123.558 43.7087 123.834 44.593 123.836 45.499C123.864 46.073 123.777 46.6469 123.579 47.1867C123.382 47.7266 123.077 48.2215 122.685 48.6423C122.292 49.0631 121.819 49.4013 121.293 49.6368C120.767 49.8724 120.199 50.0007 119.623 50.014ZM103.279 38.0615C101.804 38.0649 100.363 38.5041 99.1381 39.3234C97.9135 40.1428 96.9599 41.3056 96.3979 42.6649C95.8359 44.0242 95.6906 45.5191 95.9805 46.9607C96.2703 48.4022 96.9823 49.7258 98.0265 50.7642C99.0706 51.8026 100.4 52.5093 101.847 52.7948C103.294 53.0804 104.793 52.9321 106.155 52.3686C107.518 51.8052 108.682 50.8519 109.501 49.6292C110.32 48.4065 110.757 46.9692 110.757 45.499C110.771 44.5154 110.587 43.5389 110.215 42.6278C109.843 41.7167 109.291 40.8896 108.591 40.1956C107.892 39.5017 107.059 38.9551 106.144 38.5885C105.228 38.2218 104.248 38.0426 103.261 38.0615H103.279ZM103.279 50.014C102.371 50.0808 101.465 49.8738 100.678 49.42C99.8905 48.9662 99.2584 48.2866 98.8639 47.4697C98.4694 46.6527 98.3307 45.7364 98.466 44.8398C98.6013 43.9433 99.0042 43.1081 99.6222 42.4429C100.24 41.7778 101.045 41.3136 101.931 41.1107C102.818 40.9079 103.745 40.9757 104.592 41.3054C105.44 41.6352 106.168 42.2116 106.682 42.9595C107.196 43.7075 107.472 44.5924 107.474 45.499C107.503 46.073 107.415 46.6469 107.218 47.1867C107.02 47.7266 106.716 48.2215 106.323 48.6423C105.93 49.0631 105.457 49.4013 104.931 49.6368C104.405 49.8724 103.837 50.0007 103.261 50.014H103.279ZM83.8094 40.354V43.504H91.3934C91.2745 44.9876 90.6558 46.3876 89.6378 47.4765C88.8791 48.2469 87.967 48.8504 86.9601 49.2483C85.9533 49.6461 84.874 49.8295 83.7918 49.7865C81.557 49.7865 79.4136 48.9015 77.8333 47.3262C76.253 45.7509 75.3652 43.6143 75.3652 41.3865C75.3652 39.1587 76.253 37.0221 77.8333 35.4468C79.4136 33.8715 81.557 32.9865 83.7918 32.9865C85.9298 32.9517 87.9942 33.7636 89.5325 35.244L91.7621 33.0215C90.7236 31.9733 89.4847 31.1435 88.1186 30.5814C86.7526 30.0193 85.2872 29.7362 83.8094 29.749C82.2487 29.6884 80.6918 29.9426 79.232 30.4962C77.7722 31.0498 76.4395 31.8915 75.3138 32.9708C74.1882 34.0501 73.2926 35.3448 72.6809 36.7773C72.0692 38.2099 71.7539 39.7508 71.7539 41.3077C71.7539 42.8647 72.0692 44.4056 72.6809 45.8381C73.2926 47.2707 74.1882 48.5654 75.3138 49.6447C76.4395 50.724 77.7722 51.5657 79.232 52.1193C80.6918 52.6729 82.2487 52.927 83.8094 52.8665C85.3121 52.9342 86.8119 52.6803 88.2078 52.1218C89.6038 51.5634 90.8636 50.7134 91.9025 49.629C93.7418 47.6146 94.7238 44.9666 94.6412 42.244C94.6468 41.5807 94.5881 40.9185 94.4656 40.2665L83.8094 40.354ZM163.354 42.804C162.896 41.4613 162.04 40.2889 160.898 39.442C159.757 38.5951 158.385 38.1137 156.963 38.0615C156.003 38.0596 155.053 38.2541 154.171 38.6329C153.289 39.0117 152.494 39.5668 151.836 40.2639C151.178 40.961 150.67 41.7852 150.344 42.6857C150.018 43.5861 149.881 44.5436 149.941 45.499C149.92 46.4771 150.096 47.4494 150.461 48.3579C150.825 49.2665 151.369 50.0925 152.06 50.7867C152.752 51.481 153.577 52.0291 154.485 52.3985C155.394 52.7679 156.368 52.9508 157.35 52.9365C158.578 52.9431 159.788 52.646 160.873 52.0718C161.957 51.4977 162.882 50.6643 163.564 49.6465L161.019 47.8965C160.639 48.5279 160.101 49.0501 159.458 49.4121C158.815 49.774 158.088 49.9633 157.35 49.9615C156.589 49.9904 155.838 49.7905 155.193 49.3879C154.548 48.9853 154.039 48.3986 153.733 47.704L163.722 43.5915L163.354 42.804ZM153.171 45.289C153.136 44.7477 153.209 44.2048 153.386 43.692C153.564 43.1792 153.842 42.7069 154.205 42.3028C154.568 41.8986 155.009 41.5707 155.5 41.3382C155.992 41.1058 156.525 40.9734 157.069 40.949C157.635 40.9118 158.2 41.0412 158.693 41.3212C159.186 41.6012 159.586 42.0195 159.843 42.524L153.171 45.289ZM145.061 52.499H148.344V30.624H145.061V52.499ZM139.689 39.724H139.566C139.071 39.1726 138.465 38.7316 137.787 38.43C137.11 38.1284 136.376 37.973 135.633 37.974C133.715 38.0667 131.906 38.8917 130.581 40.278C129.256 41.6643 128.517 43.5056 128.517 45.4202C128.517 47.3349 129.256 49.1762 130.581 50.5625C131.906 51.9487 133.715 52.7737 135.633 52.8665C136.377 52.879 137.115 52.7287 137.794 52.4264C138.474 52.124 139.078 51.6769 139.566 51.1165H139.671V52.184C139.671 55.0365 138.144 56.559 135.686 56.559C134.867 56.5399 134.073 56.2784 133.404 55.8078C132.735 55.3372 132.222 54.6789 131.929 53.9165L129.068 55.1065C129.606 56.4126 130.524 57.5286 131.703 58.3112C132.883 59.0938 134.269 59.5074 135.686 59.499C139.531 59.499 142.708 57.2415 142.708 51.7465V38.499H139.689V39.724ZM135.932 50.014C134.799 49.9145 133.745 49.3958 132.978 48.56C132.21 47.7243 131.784 46.6322 131.784 45.499C131.784 44.3658 132.21 43.2737 132.978 42.4379C133.745 41.6022 134.799 41.0835 135.932 40.984C136.493 41.0127 137.043 41.1532 137.55 41.397C138.056 41.6409 138.508 41.9833 138.879 42.4041C139.251 42.8249 139.534 43.3154 139.712 43.847C139.89 44.3785 139.96 44.9402 139.917 45.499C139.965 46.0602 139.898 46.6253 139.721 47.16C139.543 47.6947 139.259 48.1881 138.885 48.6101C138.51 49.0322 138.054 49.3742 137.544 49.6155C137.033 49.8568 136.479 49.9923 135.914 50.014H135.932ZM178.732 30.624H170.885V52.499H174.168V44.204H178.75C179.685 44.271 180.625 44.1451 181.51 43.8343C182.394 43.5234 183.205 43.0342 183.892 42.3971C184.579 41.76 185.126 40.9888 185.501 40.1314C185.875 39.2741 186.068 38.3491 186.068 37.414C186.068 36.4789 185.875 35.5539 185.501 34.6965C185.126 33.8392 184.579 33.0679 183.892 32.4309C183.205 31.7938 182.394 31.3046 181.51 30.9937C180.625 30.6828 179.685 30.557 178.75 30.624H178.732ZM178.732 41.124H174.15V33.669H178.803C179.801 33.669 180.759 34.0645 181.465 34.7684C182.171 35.4724 182.568 36.4272 182.568 37.4227C182.568 38.4183 182.171 39.3731 181.465 40.077C180.759 40.781 179.801 41.1765 178.803 41.1765L178.732 41.124ZM198.974 37.974C197.779 37.9028 196.589 38.1812 195.55 38.775C194.512 39.3688 193.67 40.2522 193.128 41.3165L196.042 42.524C196.329 41.9961 196.764 41.5629 197.294 41.277C197.824 40.9912 198.426 40.865 199.027 40.914C199.443 40.8655 199.866 40.9002 200.269 41.0161C200.672 41.1319 201.048 41.3267 201.375 41.589C201.701 41.8512 201.973 42.1758 202.172 42.5436C202.372 42.9115 202.496 43.3153 202.538 43.7315V43.959C201.483 43.4025 200.307 43.114 199.114 43.119C195.972 43.119 192.794 44.869 192.794 48.0365C192.825 48.7119 192.992 49.3742 193.284 49.9843C193.576 50.5944 193.988 51.14 194.496 51.5886C195.003 52.0373 195.595 52.38 196.238 52.5965C196.881 52.813 197.56 52.8988 198.237 52.849C199.063 52.9082 199.891 52.7444 200.632 52.3749C201.373 52.0054 202.001 51.4438 202.45 50.749H202.555V52.499H205.715V44.0815C205.715 40.249 202.801 38.0265 199.062 38.0265L198.974 37.974ZM198.57 49.9615C197.499 49.9615 196.007 49.419 196.007 48.1065C196.007 46.3565 197.868 45.779 199.518 45.779C200.561 45.7533 201.592 46.0072 202.503 46.514C202.393 47.4614 201.943 48.3374 201.237 48.9806C200.53 49.6237 199.614 49.9907 198.658 50.014L198.57 49.9615ZM217.232 38.499L213.475 47.984H213.369L209.472 38.499H205.961L211.807 51.764L208.471 59.1315H211.895L220.883 38.499H217.232ZM187.721 52.499H191.004V30.624H187.721V52.499Z" fill="white"/>
<path d="M18.3295 13.1967C17.7573 13.8812 17.4685 14.7574 17.5219 15.6467V54.3567C17.4685 55.2461 17.7573 56.1223 18.3295 56.8067L18.4524 56.9292L40.2037 35.2642V34.7567L18.4524 13.0742L18.3295 13.1967Z" fill="url(#paint0_linear_527_8520)"/>
<path d="M47.4009 42.4917L40.2031 35.2642V34.7567L47.4009 27.5117L47.5589 27.5992L56.1787 32.4817C58.6365 33.8642 58.6365 36.1392 56.1787 37.5392L47.594 42.4042L47.4009 42.4917Z" fill="url(#paint1_linear_527_8520)"/>
<path d="M47.6108 42.385L40.2023 35L18.3281 56.805C18.8291 57.244 19.4682 57.4947 20.1349 57.5139C20.8016 57.5331 21.4542 57.3195 21.9797 56.91L47.6283 42.385" fill="url(#paint2_linear_527_8520)"/>
<path d="M47.6088 27.6164L21.9601 13.0914C21.4346 12.682 20.7821 12.4683 20.1154 12.4875C19.4486 12.5067 18.8096 12.7574 18.3086 13.1964L40.2004 35.0014L47.6088 27.6164Z" fill="url(#paint3_linear_527_8520)"/>
<path opacity="0.2" d="M47.4001 42.2256L21.9621 56.6631C21.4553 57.0408 20.8394 57.245 20.2066 57.245C19.5737 57.245 18.9579 57.0408 18.451 56.6631L18.3281 56.7856L18.451 56.9081C18.9567 57.2885 19.573 57.4944 20.2066 57.4944C20.8401 57.4944 21.4564 57.2885 21.9621 56.9081L47.6108 42.3831L47.4001 42.2256Z" fill="#5489CA"/>
<path opacity="0.12" d="M18.3295 56.56C17.7573 55.8756 17.4685 54.9994 17.5219 54.11V54.3725C17.4685 55.2619 17.7573 56.1381 18.3295 56.8225L18.4524 56.7L18.3295 56.56ZM56.1792 37.275L47.4015 42.2275L47.5595 42.385L56.1792 37.52C56.6683 37.291 57.0882 36.9374 57.3964 36.4949C57.7046 36.0525 57.8904 35.5368 57.9348 35C57.8361 35.4877 57.6265 35.9464 57.3222 36.3408C57.0178 36.7352 56.6268 37.0548 56.1792 37.275Z" fill="#5489CA"/>
<path opacity="0.25" d="M21.963 13.3353L56.1788 32.7253C56.6264 32.9455 57.0174 33.2651 57.3217 33.6595C57.626 34.0538 57.8356 34.5125 57.9344 35.0003C57.8899 34.4634 57.7042 33.9478 57.396 33.5053C57.0877 33.0629 56.6679 32.7093 56.1788 32.4803L21.963 13.0903C19.5052 11.7078 17.5039 12.8628 17.5039 15.6628V15.9253C17.5566 13.1078 19.5228 11.9528 21.963 13.3353Z" fill="white"/>
</g>
<defs>
<linearGradient id="paint0_linear_527_8520" x1="38.2726" y1="15.2442" x2="8.90773" y2="44.7023" gradientUnits="userSpaceOnUse">
<stop stop-color="#00A0FF"/>
<stop offset="0.01" stop-color="#00A1FF"/>
<stop offset="0.26" stop-color="#00BEFF"/>
<stop offset="0.51" stop-color="#00D2FF"/>
<stop offset="0.76" stop-color="#00DFFF"/>
<stop offset="1" stop-color="#00E3FF"/>
</linearGradient>
<linearGradient id="paint1_linear_527_8520" x1="59.3913" y1="35.0017" x2="16.9245" y2="35.0017" gradientUnits="userSpaceOnUse">
<stop stop-color="#FFE000"/>
<stop offset="0.41" stop-color="#FFBD00"/>
<stop offset="0.78" stop-color="#FFA500"/>
<stop offset="1" stop-color="#FF9C00"/>
</linearGradient>
<linearGradient id="paint2_linear_527_8520" x1="43.5906" y1="39.025" x2="3.76071" y2="78.9637" gradientUnits="userSpaceOnUse">
<stop stop-color="#FF3A44"/>
<stop offset="1" stop-color="#C31162"/>
</linearGradient>
<linearGradient id="paint3_linear_527_8520" x1="12.8137" y1="0.316427" x2="30.5936" y2="18.1528" gradientUnits="userSpaceOnUse">
<stop stop-color="#32A071"/>
<stop offset="0.07" stop-color="#2DA771"/>
<stop offset="0.48" stop-color="#15CF74"/>
<stop offset="0.8" stop-color="#06E775"/>
<stop offset="1" stop-color="#00F076"/>
</linearGradient>
<clipPath id="clip0_527_8520">
<rect width="237" height="70" fill="white"/>
</clipPath>
</defs>
</svg>
