<svg width="714" height="714" viewBox="0 0 714 714" fill="none" xmlns="http://www.w3.org/2000/svg">
<path opacity="0.94" d="M304.537 661.292C472.733 690.131 632.452 577.168 661.292 408.971C690.131 240.775 577.168 81.0566 408.972 52.2171C240.775 23.3775 81.0567 136.341 52.2171 304.537C23.3776 472.733 136.341 632.452 304.537 661.292ZM388.286 172.858C489.847 190.271 558.065 286.725 540.651 388.286C523.237 489.847 426.783 558.065 325.223 540.651C223.662 523.237 155.444 426.783 172.858 325.223C190.272 223.662 286.726 155.444 388.286 172.858Z" fill="url(#paint0_radial_22_169)"/>
<path d="M415.338 293.727C418.16 296.549 418.16 301.135 415.338 303.977L83.3729 635.943C80.5505 638.765 75.9642 638.765 73.1222 635.943C70.2998 633.12 70.2998 628.534 73.1222 625.692L405.087 293.727C407.91 290.904 412.496 290.904 415.338 293.727Z" fill="url(#paint1_linear_22_169)" style="mix-blend-mode:overlay"/>
<path d="M205.864 455.749C207.726 457.611 210.744 457.611 212.606 455.749C214.468 453.887 214.468 450.868 212.606 449.006C210.744 447.144 207.726 447.144 205.864 449.006C204.002 450.868 204.002 453.887 205.864 455.749Z" fill="white" fill-opacity="0.3"/>
<path d="M175.994 485.619C177.856 487.481 180.874 487.481 182.736 485.619C184.598 483.757 184.598 480.739 182.736 478.877C180.874 477.015 177.856 477.015 175.994 478.877C174.132 480.739 174.132 483.757 175.994 485.619Z" fill="white" fill-opacity="0.3"/>
<path d="M146.124 515.47C147.986 517.332 151.004 517.332 152.866 515.47C154.728 513.608 154.728 510.59 152.866 508.728C151.004 506.866 147.986 506.866 146.124 508.728C144.262 510.59 144.262 513.608 146.124 515.47Z" fill="white" fill-opacity="0.3"/>
<path d="M116.272 545.34C118.134 547.202 121.152 547.202 123.014 545.34C124.876 543.478 124.876 540.46 123.014 538.598C121.152 536.736 118.134 536.736 116.272 538.598C114.41 540.46 114.41 543.478 116.272 545.34Z" fill="white" fill-opacity="0.3"/>
<path d="M93.1443 568.468C91.2823 566.606 88.2639 566.606 86.4019 568.468C84.5399 570.33 84.5399 573.349 86.4019 575.211C88.2639 577.073 91.2823 577.073 93.1443 575.211C95.0063 573.349 95.0063 570.33 93.1443 568.468Z" fill="white" fill-opacity="0.3"/>
<defs>
<radialGradient id="paint0_radial_22_169" cx="0" cy="0" r="1" gradientUnits="userSpaceOnUse" gradientTransform="translate(272.064 603.398) rotate(-170.27) scale(641.084)">
<stop stop-color="#0A30A3"/>
<stop offset="1" stop-color="#00152A"/>
</radialGradient>
<linearGradient id="paint1_linear_22_169" x1="93.5054" y1="637.61" x2="311.505" y2="425.11" gradientUnits="userSpaceOnUse">
<stop stop-color="#0A30A3" stop-opacity="0.31"/>
<stop offset="1" stop-color="white" stop-opacity="0"/>
</linearGradient>
</defs>
</svg>
