<svg width="738" height="690" viewBox="0 0 738 690" fill="none" xmlns="http://www.w3.org/2000/svg">
<g filter="url(#filter0_dd_1_318)">
<path d="M550.881 60.5768C551.179 60.9471 551.121 61.4896 550.751 61.7882L507.3 96.8251C506.93 97.1237 506.388 97.0656 506.089 96.6952C505.79 96.3249 505.849 95.7825 506.219 95.4838L549.669 60.4469C550.04 60.1483 550.582 60.2065 550.881 60.5768Z" fill="url(#paint0_linear_1_318)" style="mix-blend-mode:overlay"/>
<path opacity="0.36" d="M139.878 553.122C137.375 550.618 137.375 546.558 139.878 544.057L191.057 492.878C193.56 490.374 197.619 490.374 200.123 492.878C202.626 495.382 202.626 499.442 200.123 501.943L148.941 553.122C146.438 555.626 142.379 555.626 139.875 553.122H139.878Z" fill="url(#paint1_radial_1_318)"/>
<path d="M326.912 549C363.639 549 393.412 578.773 393.412 615.5C393.412 652.227 363.639 682 326.912 682C290.185 682 260.412 652.227 260.412 615.5C260.412 578.773 290.185 549 326.912 549Z" fill="url(#paint2_radial_1_318)"/>
<path d="M163.379 451.897C163.379 451.897 155.062 563.099 146.546 604H342.792C333.627 565.877 324.151 462.798 324.151 462.798L351.886 503.872L376.86 440.865C376.86 440.865 352.818 399.761 326.879 378.273C308.866 363.348 271.404 357.859 250.201 355.899V354.73C250.201 354.73 247.29 354.862 242.456 355.274C237.615 354.942 234.702 354.857 234.702 354.857L234.716 356.026C213.548 358.336 176.607 364.95 158.416 379.659C91.0931 434.093 56.2734 599.856 55.4116 604H97.3201C119.961 518.129 163.379 451.897 163.379 451.897Z" fill="#2A485E"/>
<path d="M376.858 440.865C376.858 440.865 360.157 412.314 339.58 390.366C332.188 418.101 329.937 447.207 332.902 475.758L351.889 503.874L376.858 440.865Z" fill="#193345"/>
<path d="M548.056 505.528C543.104 503.003 538.785 499.524 534.882 495.558L392.845 448.305C392.845 448.305 392.845 406.6 384.825 384.85C398.297 359.693 397.215 336.068 392.845 321.85C388.475 307.631 369.484 299.59 362.525 320.474C359.068 330.852 344.526 373.328 339.247 384.169C325.91 450.051 346.89 528.573 388.646 557.013C430.401 585.452 499.743 588.227 550.167 574.178C585.666 564.282 595.671 525.816 598.485 503.914C593.502 505.985 588.394 507.71 583.12 508.862C571.416 511.415 558.721 510.97 548.056 505.528Z" fill="#F7A87E"/>
<path d="M599.58 488.421L563.771 505.169L534.878 495.558C538.781 499.524 543.1 503.003 548.052 505.528C558.721 510.97 571.419 511.415 583.12 508.858C588.394 507.706 593.502 505.981 598.485 503.91C599.667 494.702 599.58 488.421 599.58 488.421Z" fill="#E98870"/>
<path d="M580.641 306.329L545.016 344.182C536.367 353.372 537.183 367.94 546.805 376.101C555.91 383.826 569.51 382.897 577.481 374.007L612.182 335.307C620.053 326.527 619.348 313.039 610.603 305.125C601.955 297.301 588.634 297.836 580.641 306.329Z" fill="#F7A87E"/>
<path d="M272.205 358.645L211.687 358.763L218.559 406.759H264.561L272.205 358.645Z" fill="#ECEADD"/>
<path d="M264.56 406.759H218.559L235.226 523.167L264.56 406.759Z" fill="white"/>
<path d="M216.786 328.911V348.775C224.738 354.594 234.005 358.218 243.651 358.625C243.874 358.635 244.099 358.642 244.322 358.645C244.545 358.648 244.767 358.635 244.99 358.625C254.012 358.246 262.704 355.046 270.297 349.877V328.911H216.786Z" fill="#E98870"/>
<path d="M283.961 303.764C298.154 298.512 309.739 286.644 314.647 272.33C319.556 258.015 317.692 241.535 309.711 228.678C316.584 227.023 319.874 218.141 317.275 211.567C314.675 204.993 307.84 200.888 300.907 199.499C304.161 196.435 303.468 190.725 300.476 187.407C297.483 184.089 292.921 182.688 288.514 181.94C281.428 180.736 274.178 180.846 267.012 181.396C253.425 182.441 205.419 180.998 192.036 213.444C174.747 218.859 174.901 244.804 174.76 251.864C174.382 270.752 182.181 290.398 197.646 301.245C222.077 318.383 255.973 314.126 283.961 303.764Z" fill="#4E2F20"/>
<path d="M293.116 309.809C285.552 330.9 266.177 347.331 244.99 348.22C244.767 348.23 244.545 348.236 244.322 348.24C244.099 348.24 243.874 348.23 243.65 348.22C222.462 347.331 203.091 330.9 195.523 309.809C190.915 296.959 190.244 282.903 190.739 269.163C191.234 255.424 192.845 241.72 192.588 227.975C209.596 224.479 227.052 221.774 244.322 222.771C261.592 221.777 279.044 224.479 296.052 227.975C295.796 241.72 297.403 255.425 297.901 269.163C298.399 282.902 297.725 296.959 293.116 309.809Z" fill="#F7A87E"/>
<path d="M300.791 281.354C293.515 270.684 288.961 257.534 289.619 244.635C258.689 246.791 227.649 242.503 198.462 232.043C198.801 249.067 194.161 265.794 186.937 281.214C186.061 264.243 185.833 247.77 187.633 230.872C187.832 228.948 188.079 226.963 189.045 225.285C190.764 222.302 194.314 220.979 197.613 219.973C228.613 210.502 262.845 209.145 293.051 220.909C296.232 222.149 299.465 223.593 301.774 226.117C303.803 228.329 304.966 231.212 305.632 234.138C306.832 239.407 306.536 244.887 306.234 250.283C305.631 261.006 304.468 271.263 300.791 281.354Z" fill="#4E2F20"/>
<path d="M178.81 249.865C183.107 245.328 186.875 240.318 190.043 234.932C192.687 230.432 195.34 225.29 200.247 223.512C204.762 221.878 210.188 223.573 214.329 221.146C216.439 219.911 217.907 217.748 220.077 216.619C224.314 214.413 229.336 216.808 233.877 218.288C244.116 221.628 255.877 219.916 264.74 213.794C269.244 210.683 273.148 206.21 274.075 200.815C274.893 196.056 273.315 191.217 271.375 186.794C270.554 184.921 269.655 183.083 268.698 181.276C268.137 181.313 267.576 181.352 267.017 181.396C262.026 181.78 252.389 181.83 241.532 183.345C241.673 183.49 241.814 183.635 241.952 183.783C244.338 186.346 246.278 189.959 245.093 193.257C244.176 195.81 241.667 197.392 239.275 198.671C231.94 202.592 224.118 205.527 216.013 207.398C214.073 207.845 211.908 208.371 210.844 210.055C210.093 211.248 210.079 212.754 209.521 214.045C208.428 216.571 205.539 217.759 202.852 218.35C200.165 218.94 197.275 219.239 195.081 220.898C193.988 221.723 193.152 222.833 192.164 223.781C189.02 226.801 184.357 228.034 180.059 227.309C179.581 227.228 179.11 227.121 178.644 226.996C174.829 236.374 174.851 247.586 174.767 251.863C174.754 252.51 174.753 253.156 174.759 253.803C176.17 252.552 177.519 251.229 178.81 249.865Z" fill="#5E3B2B"/>
<path d="M228.414 261.305C229.732 261.349 231.083 261.44 232.282 261.986C233.482 262.532 234.517 263.624 234.632 264.938C234.765 266.441 233.656 267.833 232.305 268.505C230.954 269.177 229.4 269.277 227.893 269.349C222.973 269.585 218.049 269.653 213.121 269.554C211.386 269.519 207.653 269.256 207.613 266.746C207.579 264.647 210.848 263.972 212.419 263.429C217.534 261.657 223.026 261.129 228.414 261.305Z" fill="#452819"/>
<path d="M261.98 261.305C260.662 261.349 259.311 261.44 258.11 261.986C256.909 262.532 255.875 263.624 255.761 264.938C255.629 266.441 256.737 267.833 258.088 268.505C259.439 269.177 260.994 269.277 262.501 269.349C267.421 269.585 272.345 269.653 277.273 269.554C279.007 269.519 282.74 269.256 282.78 266.746C282.815 264.647 279.544 263.972 277.975 263.429C272.858 261.657 267.368 261.129 261.98 261.305Z" fill="#452819"/>
<path d="M221.128 288.906C224.043 288.906 226.406 286.543 226.406 283.628C226.406 280.714 224.043 278.351 221.128 278.351C218.213 278.351 215.85 280.714 215.85 283.628C215.85 286.543 218.213 288.906 221.128 288.906Z" fill="#452819"/>
<path d="M267.209 288.906C270.123 288.906 272.486 286.543 272.486 283.628C272.486 280.714 270.123 278.351 267.209 278.351C264.294 278.351 261.931 280.714 261.931 283.628C261.931 286.543 264.294 288.906 267.209 288.906Z" fill="#452819"/>
<path d="M246.431 328.916C242.68 328.981 238.97 329.785 235.451 331.103C237.91 332.636 241.029 333.636 244.994 333.636C249.567 333.636 253.015 332.311 255.622 330.365C252.668 329.341 249.557 328.85 246.431 328.916Z" fill="#F28487"/>
<path d="M236.276 318.417C238.513 319.411 240.872 320.156 243.301 320.468C248.016 321.075 252.894 319.999 257.037 317.668C258.413 316.889 259.711 315.982 260.914 314.957C260.513 314.787 260.082 314.7 259.647 314.699H230.499C230.589 314.787 230.678 314.873 230.769 314.958C232.363 316.442 234.285 317.535 236.276 318.417Z" fill="white"/>
<path d="M260.918 314.957C259.715 315.982 258.417 316.889 257.041 317.668C252.898 319.999 248.02 321.075 243.305 320.468C240.876 320.156 238.517 319.41 236.28 318.417C234.292 317.535 232.367 316.442 230.772 314.958C230.682 314.873 230.593 314.787 230.503 314.699H230.339C229.837 314.699 229.342 314.813 228.892 315.033C228.441 315.253 228.047 315.574 227.74 315.971C227.433 316.367 227.22 316.829 227.12 317.32C227.019 317.812 227.032 318.32 227.158 318.805C228.152 322.55 230.408 327.96 235.453 331.107C238.972 329.786 242.682 328.981 246.433 328.92C249.558 328.855 252.67 329.348 255.623 330.373C259.914 327.168 261.914 322.274 262.832 318.809C263.032 318.044 262.949 317.232 262.597 316.524C262.246 315.816 261.649 315.259 260.918 314.957Z" fill="#AB404A"/>
<path d="M244.322 358.645C244.099 358.645 243.874 358.635 243.651 358.625C234.008 358.22 224.736 354.594 216.786 348.774V385.778H259.034L270.297 369.687V349.873C262.704 355.048 254.012 358.246 244.99 358.621C244.767 358.633 244.545 358.641 244.322 358.645Z" fill="#F7A87E"/>
<path d="M216.786 353.898L242.613 383.901L270.297 353.898L273.948 358.984L264.291 406.911L242.432 385.778L218.577 406.888L211.687 358.763L216.786 353.898Z" fill="white"/>
<path d="M229.753 396.998L239.87 411.625L225.026 451.925L235.226 523.167L254.451 446.876L245.971 411.456L255.22 398.142L242.432 385.778L229.753 396.998Z" fill="#D75555"/>
<path d="M447.848 513.236L447.709 513.478H447.988L447.848 513.236Z" fill="#F68C24"/>
<path d="M552.937 474.46L589.972 451.724C598.965 446.202 610.377 449.985 614.984 460.014C619.343 469.503 615.948 481.04 607.33 486.039L569.8 507.8C561.286 512.735 550.704 509.276 546.128 500.059C541.594 490.942 544.626 479.563 552.937 474.46Z" fill="#F7A87E"/>
<path d="M540.245 427.829L590.304 407.854C602.459 403.004 616.196 409.328 620.414 421.716C624.401 433.436 618.337 446.203 606.732 450.514L556.207 469.273C544.744 473.529 531.998 467.719 527.692 456.276C523.432 444.957 529.013 432.31 540.245 427.829Z" fill="#F7A87E"/>
<path d="M535.53 383.405L583.808 364.141C595.53 359.464 608.779 365.564 612.847 377.511C616.695 388.814 610.846 401.127 599.651 405.283L550.923 423.375C539.868 427.48 527.576 421.876 523.422 410.84C519.312 399.925 524.695 387.729 535.53 383.405Z" fill="#F7A87E"/>
<path d="M289.164 318.493C295.289 318.836 301.585 317.143 306.447 313.402C311.309 309.661 314.614 303.824 314.879 297.696C315.026 294.316 314.09 290.621 311.373 288.607C309.298 287.068 306.543 286.772 303.97 286.995C300.397 287.306 296.655 288.722 294.76 291.767L289.164 318.493Z" fill="#F7A87E"/>
<path d="M302.564 296.894C302.868 297.078 303.151 297.295 303.405 297.543C304.519 298.612 305.168 300.076 305.213 301.619C305.258 303.162 304.695 304.661 303.646 305.793C303.594 305.849 303.533 305.894 303.464 305.925C303.395 305.957 303.321 305.975 303.245 305.978C303.17 305.981 303.095 305.968 303.024 305.942C302.953 305.916 302.888 305.876 302.832 305.825C302.777 305.773 302.732 305.712 302.7 305.643C302.669 305.574 302.651 305.5 302.648 305.424C302.645 305.349 302.657 305.273 302.683 305.203C302.71 305.132 302.749 305.067 302.801 305.011C303.644 304.1 304.096 302.895 304.059 301.655C304.023 300.415 303.502 299.238 302.608 298.378C302.284 298.065 301.789 297.695 301.216 297.6C299.063 298.925 297.397 300.911 296.467 303.262C296.424 303.372 296.348 303.466 296.25 303.531C296.152 303.597 296.036 303.631 295.918 303.628C295.85 303.627 295.782 303.614 295.719 303.589C295.577 303.533 295.462 303.424 295.401 303.284C295.339 303.145 295.336 302.986 295.391 302.844C296.488 300.024 298.558 297.69 301.227 296.264C303.895 294.838 306.987 294.415 309.94 295.071C310.089 295.104 310.219 295.196 310.301 295.324C310.383 295.453 310.41 295.61 310.377 295.759C310.344 295.908 310.253 296.038 310.124 296.12C309.995 296.201 309.839 296.229 309.69 296.196C307.3 295.678 304.808 295.922 302.564 296.894Z" fill="#D26F61"/>
<path d="M292.775 308.988C292.851 308.856 292.977 308.759 293.124 308.719C293.272 308.679 293.429 308.699 293.562 308.775C296.668 310.553 300.57 309.482 303.186 307.887C304.859 306.868 307.062 305.087 308.05 302.391C308.076 302.32 308.115 302.255 308.167 302.199C308.218 302.143 308.28 302.098 308.348 302.067C308.417 302.035 308.491 302.017 308.567 302.014C308.642 302.011 308.718 302.023 308.789 302.049C308.86 302.075 308.925 302.115 308.98 302.166C309.036 302.218 309.081 302.279 309.112 302.348C309.144 302.417 309.162 302.491 309.165 302.566C309.168 302.642 309.156 302.717 309.13 302.788C308.026 305.795 305.614 307.759 303.785 308.871C301.918 310.008 299.445 310.897 296.973 310.842C295.577 310.826 294.206 310.459 292.989 309.774C292.857 309.698 292.76 309.572 292.72 309.425C292.68 309.278 292.7 309.121 292.775 308.988Z" fill="#D26F61"/>
<path d="M199.14 318.493C193.015 318.836 186.714 317.143 181.857 313.402C177 309.661 173.69 303.824 173.425 297.696C173.278 294.316 174.215 290.621 176.931 288.607C179.006 287.068 181.761 286.772 184.334 286.995C187.907 287.306 191.649 288.722 193.544 291.767L199.14 318.493Z" fill="#F7A87E"/>
<path d="M185.74 296.894C185.436 297.078 185.153 297.295 184.899 297.543C183.785 298.612 183.136 300.076 183.091 301.619C183.046 303.162 183.609 304.661 184.658 305.793C184.71 305.849 184.771 305.894 184.84 305.925C184.909 305.957 184.983 305.975 185.059 305.978C185.134 305.98 185.209 305.968 185.28 305.942C185.351 305.916 185.416 305.876 185.472 305.825C185.527 305.773 185.572 305.712 185.604 305.643C185.635 305.574 185.653 305.5 185.656 305.424C185.659 305.349 185.647 305.273 185.621 305.202C185.594 305.132 185.555 305.067 185.503 305.011C184.66 304.1 184.208 302.895 184.245 301.655C184.281 300.415 184.802 299.238 185.696 298.378C186.02 298.065 186.515 297.695 187.088 297.6C189.241 298.925 190.907 300.911 191.837 303.261C191.88 303.371 191.956 303.466 192.054 303.531C192.152 303.597 192.268 303.631 192.386 303.628C192.454 303.627 192.522 303.614 192.585 303.589C192.655 303.561 192.72 303.52 192.775 303.468C192.829 303.416 192.873 303.353 192.903 303.284C192.934 303.215 192.95 303.141 192.952 303.065C192.954 302.99 192.94 302.914 192.913 302.844C191.816 300.024 189.746 297.69 187.078 296.264C184.409 294.838 181.318 294.415 178.365 295.071C178.291 295.088 178.221 295.118 178.159 295.162C178.097 295.205 178.044 295.26 178.004 295.324C177.963 295.388 177.935 295.459 177.922 295.534C177.909 295.608 177.911 295.684 177.927 295.758C177.944 295.832 177.974 295.902 178.018 295.964C178.061 296.026 178.116 296.078 178.18 296.119C178.244 296.16 178.315 296.187 178.39 296.2C178.464 296.214 178.54 296.212 178.614 296.196C181.004 295.678 183.496 295.922 185.74 296.894Z" fill="#D26F61"/>
<path d="M195.529 308.988C195.453 308.856 195.328 308.759 195.18 308.719C195.033 308.679 194.876 308.699 194.743 308.775C191.637 310.553 187.735 309.482 185.119 307.887C183.446 306.868 181.242 305.087 180.255 302.391C180.229 302.32 180.189 302.255 180.138 302.199C180.087 302.143 180.025 302.098 179.956 302.067C179.888 302.035 179.814 302.017 179.738 302.014C179.663 302.011 179.587 302.023 179.516 302.049C179.445 302.075 179.38 302.115 179.325 302.166C179.269 302.218 179.224 302.279 179.192 302.348C179.161 302.417 179.143 302.491 179.14 302.566C179.137 302.642 179.149 302.717 179.175 302.788C180.279 305.795 182.691 307.759 184.52 308.871C186.387 310.008 188.86 310.897 191.331 310.842C192.728 310.826 194.098 310.459 195.316 309.774C195.448 309.698 195.545 309.572 195.585 309.425C195.625 309.278 195.605 309.121 195.529 308.988Z" fill="#D26F61"/>
<path opacity="0.12" d="M271.337 310.255C275.949 310.255 279.688 306.516 279.688 301.904C279.688 297.291 275.949 293.552 271.337 293.552C266.725 293.552 262.986 297.291 262.986 301.904C262.986 306.516 266.725 310.255 271.337 310.255Z" fill="#ED7C6D"/>
<path opacity="0.12" d="M276.047 305.548C279.308 302.287 279.308 296.999 276.047 293.738C272.786 290.476 267.498 290.476 264.237 293.738C260.975 296.999 260.975 302.287 264.237 305.548C267.498 308.81 272.786 308.81 276.047 305.548Z" fill="#ED7C6D"/>
<path opacity="0.12" d="M274.828 310.255C279.44 310.255 283.179 306.516 283.179 301.904C283.179 297.291 279.44 293.552 274.828 293.552C270.216 293.552 266.477 297.291 266.477 301.904C266.477 306.516 270.216 310.255 274.828 310.255Z" fill="#ED7C6D"/>
<path opacity="0.12" d="M271.029 312.736C275.641 312.736 279.38 308.997 279.38 304.385C279.38 299.772 275.641 296.033 271.029 296.033C266.417 296.033 262.678 299.772 262.678 304.385C262.678 308.997 266.417 312.736 271.029 312.736Z" fill="#ED7C6D"/>
<path opacity="0.12" d="M271.819 308.158C275.274 308.158 278.074 305.358 278.074 301.904C278.074 298.449 275.274 295.649 271.819 295.649C268.365 295.649 265.564 298.449 265.564 301.904C265.564 305.358 268.365 308.158 271.819 308.158Z" fill="#ED7C6D"/>
<path opacity="0.12" d="M272.675 306.2C274.709 306.2 276.358 304.551 276.358 302.517C276.358 300.483 274.709 298.834 272.675 298.834C270.641 298.834 268.992 300.483 268.992 302.517C268.992 304.551 270.641 306.2 272.675 306.2Z" fill="#ED7C6D"/>
<path opacity="0.12" d="M273.72 302.047C274.187 300.068 272.961 298.084 270.982 297.617C269.002 297.149 267.018 298.375 266.551 300.355C266.084 302.335 267.31 304.319 269.289 304.786C271.269 305.253 273.253 304.027 273.72 302.047Z" fill="#ED7C6D"/>
<path opacity="0.12" d="M274.647 304.104C276.527 303.326 277.419 301.171 276.641 299.292C275.862 297.413 273.708 296.52 271.828 297.299C269.949 298.077 269.057 300.232 269.835 302.111C270.614 303.99 272.768 304.883 274.647 304.104Z" fill="#ED7C6D"/>
<path opacity="0.12" d="M272.747 305.306C274.626 304.527 275.519 302.373 274.74 300.493C273.962 298.614 271.807 297.722 269.928 298.5C268.049 299.279 267.156 301.433 267.935 303.312C268.713 305.192 270.868 306.084 272.747 305.306Z" fill="#ED7C6D"/>
<path opacity="0.12" d="M275.397 301.533C275.865 299.553 274.639 297.569 272.659 297.102C270.679 296.635 268.696 297.861 268.228 299.841C267.761 301.82 268.987 303.804 270.967 304.271C272.947 304.738 274.93 303.512 275.397 301.533Z" fill="#ED7C6D"/>
<path opacity="0.05" d="M272.389 303.311C273.842 303.311 275.02 302.133 275.02 300.68C275.02 299.227 273.842 298.048 272.389 298.048C270.936 298.048 269.758 299.227 269.758 300.68C269.758 302.133 270.936 303.311 272.389 303.311Z" fill="#FDECE9"/>
<path opacity="0.05" d="M271.813 301.216C272.682 301.216 273.386 300.512 273.386 299.643C273.386 298.774 272.682 298.07 271.813 298.07C270.945 298.07 270.241 298.774 270.241 299.643C270.241 300.512 270.945 301.216 271.813 301.216Z" fill="#FDECE9"/>
<path opacity="0.05" d="M273.023 300.25C272.896 300.42 272.721 300.548 272.521 300.619C272.321 300.689 272.104 300.698 271.899 300.646C271.693 300.593 271.508 300.481 271.366 300.323C271.225 300.165 271.133 299.968 271.103 299.758C271.073 299.548 271.106 299.334 271.198 299.143C271.29 298.952 271.436 298.792 271.618 298.684C271.801 298.576 272.011 298.524 272.223 298.536C272.435 298.547 272.639 298.621 272.808 298.748C272.921 298.833 273.016 298.939 273.088 299.06C273.16 299.181 273.207 299.315 273.227 299.455C273.247 299.594 273.239 299.736 273.204 299.873C273.169 300.009 273.108 300.138 273.023 300.25Z" fill="#FDECE9"/>
<path opacity="0.05" d="M272.672 300.109C272.545 300.279 272.37 300.408 272.17 300.479C271.97 300.549 271.753 300.559 271.547 300.507C271.341 300.454 271.156 300.342 271.014 300.184C270.872 300.026 270.78 299.829 270.75 299.619C270.72 299.409 270.752 299.194 270.844 299.003C270.936 298.811 271.082 298.651 271.265 298.543C271.448 298.434 271.659 298.383 271.871 298.394C272.083 298.406 272.287 298.48 272.457 298.607C272.684 298.778 272.835 299.032 272.875 299.314C272.916 299.595 272.843 299.881 272.672 300.109Z" fill="#FDECE9"/>
<path opacity="0.05" d="M270.303 300.3C270.872 300.146 271.208 299.561 271.054 298.992C270.9 298.423 270.314 298.087 269.745 298.241C269.177 298.395 268.841 298.981 268.995 299.55C269.149 300.118 269.734 300.454 270.303 300.3Z" fill="#FDECE9"/>
<path opacity="0.05" d="M272.806 300.109C272.679 300.279 272.504 300.407 272.304 300.477C272.104 300.548 271.888 300.557 271.682 300.505C271.477 300.452 271.291 300.34 271.15 300.182C271.008 300.024 270.917 299.827 270.887 299.617C270.857 299.407 270.889 299.193 270.981 299.002C271.073 298.811 271.219 298.651 271.402 298.543C271.584 298.435 271.795 298.383 272.006 298.395C272.218 298.406 272.422 298.48 272.592 298.607C272.819 298.778 272.969 299.032 273.01 299.314C273.05 299.595 272.977 299.882 272.806 300.109Z" fill="#FDECE9"/>
<path opacity="0.12" d="M214.702 310.255C219.315 310.255 223.054 306.516 223.054 301.904C223.054 297.291 219.315 293.552 214.702 293.552C210.09 293.552 206.351 297.291 206.351 301.904C206.351 306.516 210.09 310.255 214.702 310.255Z" fill="#ED7C6D"/>
<path opacity="0.12" d="M219.413 305.549C222.674 302.287 222.674 297 219.413 293.738C216.152 290.477 210.864 290.477 207.602 293.738C204.341 297 204.341 302.287 207.602 305.549C210.864 308.81 216.152 308.81 219.413 305.549Z" fill="#ED7C6D"/>
<path opacity="0.12" d="M218.195 310.255C222.807 310.255 226.546 306.516 226.546 301.904C226.546 297.291 222.807 293.552 218.195 293.552C213.582 293.552 209.843 297.291 209.843 301.904C209.843 306.516 213.582 310.255 218.195 310.255Z" fill="#ED7C6D"/>
<path opacity="0.12" d="M214.394 312.736C219.006 312.736 222.745 308.997 222.745 304.385C222.745 299.772 219.006 296.033 214.394 296.033C209.782 296.033 206.043 299.772 206.043 304.385C206.043 308.997 209.782 312.736 214.394 312.736Z" fill="#ED7C6D"/>
<path opacity="0.12" d="M215.184 308.158C218.639 308.158 221.439 305.358 221.439 301.904C221.439 298.449 218.639 295.649 215.184 295.649C211.73 295.649 208.93 298.449 208.93 301.904C208.93 305.358 211.73 308.158 215.184 308.158Z" fill="#ED7C6D"/>
<path opacity="0.12" d="M216.04 306.2C218.074 306.2 219.723 304.551 219.723 302.517C219.723 300.483 218.074 298.834 216.04 298.834C214.006 298.834 212.357 300.483 212.357 302.517C212.357 304.551 214.006 306.2 216.04 306.2Z" fill="#ED7C6D"/>
<path opacity="0.12" d="M217.087 302.048C217.554 300.068 216.328 298.084 214.349 297.617C212.369 297.15 210.385 298.376 209.918 300.356C209.451 302.335 210.677 304.319 212.657 304.786C214.636 305.254 216.62 304.028 217.087 302.048Z" fill="#ED7C6D"/>
<path opacity="0.12" d="M218.012 304.104C219.891 303.326 220.784 301.171 220.005 299.292C219.227 297.413 217.073 296.521 215.193 297.299C213.314 298.077 212.422 300.232 213.2 302.111C213.978 303.99 216.133 304.883 218.012 304.104Z" fill="#ED7C6D"/>
<path opacity="0.12" d="M216.112 305.306C217.991 304.527 218.883 302.373 218.105 300.494C217.327 298.614 215.172 297.722 213.293 298.5C211.414 299.279 210.521 301.433 211.3 303.313C212.078 305.192 214.232 306.084 216.112 305.306Z" fill="#ED7C6D"/>
<path opacity="0.12" d="M218.765 301.533C219.232 299.554 218.006 297.57 216.026 297.103C214.046 296.635 212.063 297.861 211.595 299.841C211.128 301.821 212.354 303.805 214.334 304.272C216.314 304.739 218.297 303.513 218.765 301.533Z" fill="#ED7C6D"/>
<path opacity="0.05" d="M215.754 303.311C217.207 303.311 218.385 302.133 218.385 300.68C218.385 299.227 217.207 298.048 215.754 298.048C214.301 298.048 213.123 299.227 213.123 300.68C213.123 302.133 214.301 303.311 215.754 303.311Z" fill="#FDECE9"/>
<path opacity="0.05" d="M215.178 301.216C216.047 301.216 216.751 300.512 216.751 299.643C216.751 298.774 216.047 298.07 215.178 298.07C214.31 298.07 213.606 298.774 213.606 299.643C213.606 300.512 214.31 301.216 215.178 301.216Z" fill="#FDECE9"/>
<path opacity="0.05" d="M216.388 300.25C216.261 300.42 216.086 300.548 215.886 300.619C215.686 300.689 215.469 300.698 215.264 300.646C215.058 300.593 214.873 300.481 214.732 300.323C214.59 300.165 214.498 299.968 214.468 299.758C214.438 299.548 214.471 299.334 214.563 299.143C214.655 298.952 214.801 298.792 214.983 298.684C215.166 298.576 215.376 298.524 215.588 298.536C215.8 298.547 216.004 298.621 216.173 298.748C216.286 298.833 216.381 298.939 216.453 299.06C216.525 299.181 216.572 299.315 216.592 299.455C216.612 299.594 216.604 299.736 216.569 299.873C216.534 300.009 216.473 300.138 216.388 300.25Z" fill="#FDECE9"/>
<path opacity="0.05" d="M216.037 300.109C215.91 300.279 215.735 300.407 215.535 300.477C215.335 300.548 215.119 300.557 214.913 300.505C214.708 300.452 214.522 300.34 214.381 300.182C214.239 300.024 214.148 299.827 214.118 299.617C214.088 299.407 214.121 299.193 214.212 299.002C214.304 298.811 214.45 298.651 214.633 298.543C214.815 298.435 215.026 298.383 215.237 298.395C215.449 298.406 215.653 298.48 215.823 298.607C216.05 298.778 216.201 299.032 216.241 299.314C216.281 299.595 216.208 299.882 216.037 300.109Z" fill="#FDECE9"/>
<path opacity="0.05" d="M215.929 300.641C216.501 300.485 216.837 299.895 216.681 299.323C216.524 298.752 215.934 298.416 215.363 298.572C214.791 298.729 214.455 299.319 214.612 299.89C214.768 300.461 215.358 300.798 215.929 300.641Z" fill="#FDECE9"/>
<path opacity="0.05" d="M216.173 300.109C216.045 300.279 215.871 300.408 215.67 300.479C215.47 300.549 215.253 300.559 215.047 300.507C214.842 300.454 214.656 300.342 214.514 300.184C214.372 300.026 214.28 299.829 214.25 299.619C214.22 299.409 214.253 299.194 214.344 299.003C214.436 298.811 214.583 298.651 214.765 298.543C214.948 298.434 215.159 298.383 215.371 298.394C215.583 298.406 215.787 298.48 215.957 298.607C216.184 298.778 216.335 299.032 216.376 299.314C216.416 299.595 216.343 299.881 216.173 300.109Z" fill="#FDECE9"/>
<path d="M236.773 295.614C236.773 295.638 236.773 295.661 236.773 295.685C236.797 297.849 237.673 299.918 239.213 301.44C240.752 302.962 242.829 303.816 244.994 303.816C247.159 303.816 249.237 302.962 250.776 301.44C252.316 299.918 253.192 297.849 253.216 295.685C253.216 295.661 253.216 295.638 253.216 295.614H236.773Z" fill="#F17D6F"/>
<path d="M386.346 395.342C385.56 391.995 385.862 387.658 384.826 384.846C398.297 359.69 397.215 336.064 392.845 321.846C388.475 307.627 369.484 299.586 362.525 320.47C359.068 330.848 344.526 373.324 339.247 384.165C336.1 399.712 334.864 415.965 335.361 432.095C339.672 429.979 343.877 427.636 347.954 425.163C362.323 416.453 374.434 407.199 386.346 395.342Z" fill="#F7A87E"/>
<path d="M347.537 610.608L291.09 556.297C244.041 602.676 168.356 603.397 120.447 557.337C72.5372 511.277 70.376 435.583 114.906 386.78L58.4589 332.47C-16.0663 412.448 -12.8757 537.69 66.1723 613.746C145.22 689.802 270.492 688.161 347.537 610.608Z" fill="#FF9149"/>
<path d="M393.739 268.836H395.469V280.568H393.739C393.564 280.568 393.392 280.534 393.231 280.467C393.07 280.401 392.923 280.303 392.8 280.18C392.677 280.056 392.579 279.91 392.513 279.749C392.446 279.588 392.412 279.416 392.412 279.241V270.163C392.412 269.811 392.551 269.473 392.8 269.224C393.049 268.976 393.387 268.836 393.739 268.836Z" fill="#333333"/>
<path d="M393.739 291.88H395.469V313.753H393.739C393.387 313.753 393.049 313.613 392.8 313.364C392.551 313.115 392.412 312.778 392.412 312.426V293.207C392.412 292.855 392.551 292.517 392.8 292.268C393.049 292.02 393.387 291.88 393.739 291.88Z" fill="#333333"/>
<path d="M547.085 333.482H545.354V299.559H547.085C547.437 299.559 547.774 299.699 548.023 299.948C548.272 300.197 548.412 300.534 548.412 300.886V332.155C548.412 332.507 548.272 332.844 548.023 333.093C547.774 333.342 547.437 333.482 547.085 333.482Z" fill="#333333"/>
<path d="M393.739 319.868H395.469V341.741H393.739C393.387 341.741 393.049 341.601 392.8 341.352C392.551 341.104 392.412 340.766 392.412 340.414V321.195C392.412 320.843 392.551 320.506 392.8 320.257C393.049 320.008 393.387 319.868 393.739 319.868Z" fill="#333333"/>
<path d="M523.911 227H416.904C404.221 227 393.94 237.281 393.94 249.963V514.361C393.94 527.043 404.221 537.324 416.904 537.324H523.911C536.593 537.324 546.874 527.043 546.874 514.361V249.963C546.874 237.281 536.593 227 523.911 227Z" fill="#444444"/>
<path d="M523.911 229.686H416.901C405.702 229.686 396.623 238.764 396.623 249.963V514.364C396.623 525.562 405.702 534.641 416.901 534.641H523.911C535.11 534.641 544.188 525.562 544.188 514.364V249.963C544.188 238.764 535.11 229.686 523.911 229.686Z" fill="#444444"/>
<path d="M523.911 229.856H416.901C405.796 229.856 396.794 238.858 396.794 249.963V514.363C396.794 525.468 405.796 534.471 416.901 534.471H523.911C535.016 534.471 544.018 525.468 544.018 514.363V249.963C544.018 238.858 535.016 229.856 523.911 229.856Z" fill="#434343"/>
<path d="M523.911 230.026H416.901C405.89 230.026 396.964 238.952 396.964 249.963V514.364C396.964 525.374 405.89 534.301 416.901 534.301H523.911C534.922 534.301 543.848 525.374 543.848 514.364V249.963C543.848 238.952 534.922 230.026 523.911 230.026Z" fill="#414141"/>
<path d="M523.911 230.196H416.901C405.984 230.196 397.134 239.046 397.134 249.963V514.364C397.134 525.28 405.984 534.13 416.901 534.13H523.911C534.828 534.13 543.678 525.28 543.678 514.364V249.963C543.678 239.046 534.828 230.196 523.911 230.196Z" fill="#404040"/>
<path d="M523.911 230.367H416.901C406.078 230.367 397.304 239.14 397.304 249.963V514.364C397.304 525.186 406.078 533.96 416.901 533.96H523.911C534.734 533.96 543.507 525.186 543.507 514.364V249.963C543.507 239.14 534.734 230.367 523.911 230.367Z" fill="#3E3E3E"/>
<path d="M523.914 230.537H416.904C406.175 230.537 397.477 239.234 397.477 249.963V514.364C397.477 525.092 406.175 533.79 416.904 533.79H523.914C534.643 533.79 543.34 525.092 543.34 514.364V249.963C543.34 239.234 534.643 230.537 523.914 230.537Z" fill="#3D3D3D"/>
<path d="M523.911 230.707H416.904C406.269 230.707 397.648 239.328 397.648 249.963V514.361C397.648 524.996 406.269 533.617 416.904 533.617H523.911C534.546 533.617 543.167 524.996 543.167 514.361V249.963C543.167 239.328 534.546 230.707 523.911 230.707Z" fill="#3B3B3B"/>
<path d="M523.911 230.877H416.904C406.363 230.877 397.818 239.422 397.818 249.963V514.361C397.818 524.902 406.363 533.447 416.904 533.447H523.911C534.452 533.447 542.997 524.902 542.997 514.361V249.963C542.997 239.422 534.452 230.877 523.911 230.877Z" fill="#3A3A3A"/>
<path d="M523.911 231.047H416.904C406.457 231.047 397.988 239.516 397.988 249.963V514.361C397.988 524.808 406.457 533.276 416.904 533.276H523.911C534.358 533.276 542.826 524.808 542.826 514.361V249.963C542.826 239.516 534.358 231.047 523.911 231.047Z" fill="#393939"/>
<path d="M523.911 231.22H416.904C406.551 231.22 398.158 239.613 398.158 249.966V514.363C398.158 524.716 406.551 533.109 416.904 533.109H523.911C534.264 533.109 542.656 524.716 542.656 514.363V249.966C542.656 239.613 534.264 231.22 523.911 231.22Z" fill="#373737"/>
<path d="M523.911 231.391H416.904C406.645 231.391 398.328 239.707 398.328 249.966V514.364C398.328 524.622 406.645 532.939 416.904 532.939H523.911C534.17 532.939 542.486 524.622 542.486 514.364V249.966C542.486 239.707 534.17 231.391 523.911 231.391Z" fill="#363636"/>
<path d="M523.911 231.561H416.904C406.739 231.561 398.499 239.801 398.499 249.966V514.363C398.499 524.528 406.739 532.769 416.904 532.769H523.911C534.076 532.769 542.316 524.528 542.316 514.363V249.966C542.316 239.801 534.076 231.561 523.911 231.561Z" fill="#343434"/>
<path d="M523.911 231.731H416.901C406.832 231.731 398.669 239.894 398.669 249.963V514.363C398.669 524.433 406.832 532.596 416.901 532.596H523.911C533.98 532.596 542.143 524.433 542.143 514.363V249.963C542.143 239.894 533.98 231.731 523.911 231.731Z" fill="#333333"/>
<path d="M523.911 231.901H416.901C406.926 231.901 398.839 239.988 398.839 249.963V514.363C398.839 524.339 406.926 532.425 416.901 532.425H523.911C533.886 532.425 541.973 524.339 541.973 514.363V249.963C541.973 239.988 533.886 231.901 523.911 231.901Z" fill="#313131"/>
<path d="M523.911 232.072H416.901C407.02 232.072 399.009 240.082 399.009 249.963V514.363C399.009 524.245 407.02 532.255 416.901 532.255H523.911C533.792 532.255 541.802 524.245 541.802 514.363V249.963C541.802 240.082 533.792 232.072 523.911 232.072Z" fill="#303030"/>
<path d="M523.911 232.242H416.901C407.113 232.242 399.179 240.176 399.179 249.963V514.363C399.179 524.151 407.113 532.085 416.901 532.085H523.911C533.698 532.085 541.632 524.151 541.632 514.363V249.963C541.632 240.176 533.698 232.242 523.911 232.242Z" fill="#2F2F2F"/>
<path d="M523.911 232.412H416.901C407.208 232.412 399.35 240.27 399.35 249.963V514.363C399.35 524.057 407.208 531.915 416.901 531.915H523.911C533.604 531.915 541.462 524.057 541.462 514.363V249.963C541.462 240.27 533.604 232.412 523.911 232.412Z" fill="#2D2D2D"/>
<path d="M523.911 232.582H416.901C407.301 232.582 399.52 240.364 399.52 249.963V514.364C399.52 523.963 407.301 531.745 416.901 531.745H523.911C533.51 531.745 541.292 523.963 541.292 514.364V249.963C541.292 240.364 533.51 232.582 523.911 232.582Z" fill="#2C2C2C"/>
<path d="M523.911 232.752H416.904C407.399 232.752 399.693 240.458 399.693 249.963V514.361C399.693 523.866 407.399 531.571 416.904 531.571H523.911C533.416 531.571 541.122 523.866 541.122 514.361V249.963C541.122 240.458 533.416 232.752 523.911 232.752Z" fill="#2A2A2A"/>
<path d="M523.911 232.923H416.904C407.493 232.923 399.863 240.552 399.863 249.963V514.361C399.863 523.772 407.493 531.401 416.904 531.401H523.911C533.322 531.401 540.951 523.772 540.951 514.361V249.963C540.951 240.552 533.322 232.923 523.911 232.923Z" fill="#292929"/>
<path d="M523.911 233.093H416.904C407.586 233.093 400.033 240.646 400.033 249.963V514.361C400.033 523.678 407.586 531.231 416.904 531.231H523.911C533.228 531.231 540.781 523.678 540.781 514.361V249.963C540.781 240.646 533.228 233.093 523.911 233.093Z" fill="#272727"/>
<path d="M523.911 233.266H416.904C407.681 233.266 400.204 240.743 400.204 249.966V514.364C400.204 523.587 407.681 531.064 416.904 531.064H523.911C533.134 531.064 540.611 523.587 540.611 514.364V249.966C540.611 240.743 533.134 233.266 523.911 233.266Z" fill="#262626"/>
<path d="M523.911 230.58C529.05 230.585 533.977 232.629 537.611 236.263C541.245 239.897 543.289 244.824 543.294 249.963V514.364C543.289 519.503 541.245 524.43 537.611 528.064C533.977 531.697 529.05 533.741 523.911 533.747H416.904C411.764 533.741 406.837 531.698 403.203 528.064C399.568 524.43 397.524 519.503 397.518 514.364V249.963C397.524 244.824 399.568 239.897 403.203 236.263C406.837 232.629 411.764 230.585 416.904 230.58H523.911ZM523.911 229.475H416.904C411.474 229.483 406.269 231.643 402.429 235.483C398.59 239.322 396.429 244.528 396.421 249.957V514.358C396.429 519.788 398.59 524.993 402.429 528.832C406.269 532.672 411.474 534.832 416.904 534.84H523.911C529.341 534.832 534.546 532.672 538.385 528.832C542.225 524.993 544.385 519.788 544.393 514.358V249.963C544.385 244.533 542.225 239.328 538.385 235.489C534.546 231.649 529.341 229.489 523.911 229.481V229.475Z" fill="#2D2C2C"/>
<mask id="mask0_1_318" style="mask-type:luminance" maskUnits="userSpaceOnUse" x="402" y="235" width="136" height="294">
<path d="M523.911 235.949H509.997C509.568 235.949 509.156 236.119 508.852 236.423C508.548 236.726 508.377 237.138 508.376 237.567V237.769C508.378 238.976 508.142 240.171 507.681 241.286C507.221 242.402 506.545 243.415 505.692 244.269C504.84 245.123 503.827 245.801 502.713 246.263C501.598 246.725 500.403 246.963 499.196 246.963H441.165C438.731 246.963 436.396 245.996 434.674 244.274C432.953 242.553 431.986 240.218 431.986 237.783V237.582C431.986 237.152 431.815 236.741 431.512 236.437C431.208 236.134 430.796 235.963 430.367 235.963H416.904C415.063 235.963 413.24 236.325 411.54 237.029C409.839 237.733 408.294 238.765 406.992 240.067C405.69 241.368 404.658 242.913 403.953 244.614C403.249 246.314 402.886 248.137 402.886 249.978V514.378C402.886 516.219 403.249 518.041 403.953 519.742C404.658 521.442 405.69 522.987 406.992 524.289C408.294 525.59 409.839 526.622 411.54 527.326C413.24 528.031 415.063 528.393 416.904 528.392H523.911C527.628 528.392 531.192 526.916 533.82 524.288C536.449 521.659 537.925 518.095 537.925 514.378V249.963C537.925 246.246 536.449 242.682 533.82 240.053C531.192 237.425 527.628 235.949 523.911 235.949Z" fill="white"/>
</mask>
<g mask="url(#mask0_1_318)">
<path d="M537.925 235.949H402.886V528.378H537.925V235.949Z" fill="#9EA6FF"/>
<path d="M402.598 528.666V296.894H400.665C401.819 295.097 402.973 293.299 404.127 291.499C406.471 287.903 408.875 284.308 411.339 280.715C416.272 273.538 421.442 266.39 426.851 259.273C432.259 252.155 437.771 245.263 443.386 238.597C444.088 237.764 444.79 236.934 445.492 236.107C445.84 235.692 446.191 235.279 446.545 234.87V235.666H538.214V493.281H539.944C538.46 494.487 536.975 495.677 535.49 496.853C529.548 501.549 523.613 505.972 517.688 510.123C511.763 514.273 505.872 518.137 500.016 521.714C497.088 523.503 494.172 525.217 491.266 526.858C489.812 527.677 488.363 528.478 486.918 529.261V528.666H402.598Z" fill="#9EA6FF"/>
<path d="M402.598 528.666V297.271H401.943C403.074 295.493 404.22 293.712 405.382 291.929C407.705 288.369 410.087 284.811 412.527 281.255C417.408 274.151 422.526 267.076 427.88 260.031C433.235 252.986 438.685 246.164 444.232 239.563C445.616 237.913 447.007 236.279 448.403 234.659V235.66H538.214V491.637H539.786C538.318 492.831 536.849 494.009 535.378 495.171C529.498 499.817 523.626 504.194 517.76 508.302C506.663 516.131 495.06 523.216 483.027 529.512V528.666H402.598Z" fill="#9FA7FF"/>
<path d="M402.598 528.666V300.292H401.556C402.106 299.411 402.662 298.53 403.224 297.649C404.343 295.886 405.477 294.123 406.625 292.362C408.933 288.84 411.29 285.321 413.696 281.803C418.529 274.772 423.594 267.771 428.89 260.802C434.187 253.832 439.58 247.08 445.071 240.547C446.444 238.914 447.82 237.295 449.199 235.689L450.238 234.486V235.66H538.225V489.99H539.639C538.185 491.169 536.73 492.334 535.274 493.486C529.454 498.084 523.643 502.412 517.841 506.468C506.859 514.214 495.376 521.225 483.468 527.455C482.06 528.186 480.656 528.897 479.256 529.59V528.652L402.598 528.666Z" fill="#A0A7FE"/>
<path d="M402.598 528.666V303.258H401.216C409.839 289.304 419.411 275.347 429.891 261.566C435.132 254.675 440.469 247.995 445.902 241.525C447.248 239.91 448.61 238.308 449.987 236.719C450.67 235.923 451.354 235.131 452.041 234.345V235.66H538.214V488.339H539.466C538.029 489.511 536.586 490.665 535.138 491.801C529.38 496.353 523.63 500.64 517.887 504.662C507.021 512.327 495.66 519.266 483.878 525.433C481.091 526.877 478.321 528.248 475.567 529.546V528.681L402.598 528.666Z" fill="#A1A8FE"/>
<path d="M402.598 528.667V303.578H402.526C411.059 289.774 420.527 275.964 430.898 262.325C436.091 255.509 441.37 248.9 446.736 242.497C448.082 240.899 449.428 239.313 450.774 237.74C451.452 236.956 452.127 236.174 452.794 235.392V235.654H538.185V486.692H539.278C537.853 487.846 536.429 488.988 535.006 490.117C529.311 494.621 523.622 498.861 517.939 502.839C507.188 510.422 495.948 517.286 484.29 523.384C481.532 524.815 478.792 526.172 476.069 527.455C474.707 528.099 473.35 528.722 471.998 529.324V528.667H402.598Z" fill="#A2A8FD"/>
<path d="M402.598 528.666V309.021H400.714C401.741 307.314 402.781 305.607 403.835 303.901C412.276 290.244 421.643 276.584 431.902 263.095C437.031 256.35 442.255 249.811 447.572 243.478C450.226 240.316 452.901 237.206 455.595 234.149V235.657H538.214V485.042H539.145C537.738 486.196 536.329 487.325 534.919 488.429C529.286 492.883 523.659 497.079 518.037 501.015C507.401 508.516 496.281 515.305 484.749 521.339C479.297 524.17 473.912 526.709 468.594 528.955V528.666H402.598Z" fill="#A3A9FD"/>
<path d="M402.598 526.699V309.275H402.058C403.074 307.585 404.104 305.896 405.148 304.21C413.497 290.703 422.763 277.19 432.909 263.848C437.98 257.178 443.146 250.711 448.406 244.447C451.035 241.318 453.681 238.241 456.345 235.216V235.646H538.214V483.383H538.987C537.592 484.514 536.199 485.631 534.807 486.733C529.229 491.137 523.663 495.287 518.106 499.184C507.586 506.603 496.587 513.32 485.182 519.291C479.787 522.089 474.459 524.6 469.197 526.823C466.57 527.933 463.964 528.969 461.379 529.933V528.658H402.598V526.699Z" fill="#A4AAFC"/>
<path d="M402.598 524.576V312.056H401.908C402.405 311.22 402.903 310.385 403.403 309.552C404.407 307.883 405.425 306.213 406.458 304.541C414.714 291.185 423.879 277.819 433.913 264.624C438.928 258.025 444.038 251.63 449.243 245.437C451.839 242.341 454.455 239.298 457.092 236.309C457.75 235.563 458.41 234.819 459.071 234.076V235.66H538.214V481.751H538.825C537.448 482.87 536.07 483.974 534.691 485.062C529.179 489.418 523.674 493.52 518.176 497.366C507.771 504.711 496.893 511.36 485.612 517.271C474.938 522.804 464.509 527.215 454.455 530.423V528.692H402.598V524.576Z" fill="#A6AAFC"/>
<path d="M402.598 522.464V314.757H401.813C403.736 311.456 405.721 308.155 407.767 304.853C415.934 291.64 424.996 278.425 434.919 265.377C439.881 258.853 444.934 252.529 450.076 246.403C452.648 243.344 455.235 240.335 457.839 237.377C458.491 236.638 459.144 235.903 459.798 235.17V235.649H538.214V480.089H538.666C537.301 481.197 535.938 482.289 534.579 483.366C529.126 487.676 523.682 491.735 518.245 495.543C507.955 502.798 497.198 509.367 486.044 515.206C475.492 520.687 465.175 525.04 455.246 528.211C452.765 529.005 450.309 529.723 447.878 530.366V528.655H402.586L402.598 522.464Z" fill="#A7ABFB"/>
<path d="M402.598 520.329V317.422H401.77C402.239 316.609 402.712 315.794 403.189 314.979C405.095 311.709 407.058 308.444 409.077 305.185C417.155 292.122 426.112 279.054 435.923 266.153C440.829 259.702 445.83 253.452 450.924 247.401C453.463 244.374 456.022 241.399 458.601 238.476C459.888 237.016 461.179 235.568 462.475 234.131V235.669H538.214V478.462H538.502C537.156 479.558 535.81 480.638 534.463 481.701C529.078 485.961 523.693 489.974 518.308 493.74C508.135 500.915 497.498 507.41 486.468 513.184C476.037 518.593 465.833 522.905 456.019 526.044C451.281 527.568 446.467 528.841 441.595 529.858V528.675H402.598V520.329Z" fill="#A8ABFB"/>
<path d="M402.598 518.206V320.018H401.781C402.695 318.409 403.624 316.797 404.568 315.183C406.453 311.958 408.393 308.731 410.39 305.502C418.369 292.589 427.228 279.671 436.93 266.914C441.779 260.537 446.719 254.356 451.752 248.371C454.253 245.38 456.781 242.44 459.337 239.549C460.61 238.103 461.887 236.67 463.168 235.251V235.66H538.214V476.806H538.346C537.013 477.889 535.681 478.956 534.348 480.008C529.021 484.22 523.699 488.187 518.383 491.911C508.325 499.004 497.809 505.425 486.904 511.132C466.277 521.829 446.563 528.19 428.988 529.595C420.198 530.291 411.945 529.742 404.381 527.864C403.434 527.632 402.499 527.378 401.574 527.103H402.598V518.206Z" fill="#A9ACFA"/>
<path d="M402.598 516.083V322.566H401.845C402.289 321.769 402.738 320.973 403.192 320.177C404.094 318.585 405.011 316.991 405.944 315.397C407.808 312.208 409.731 309.019 411.714 305.828C419.604 293.063 428.359 280.291 437.948 267.682C442.728 261.37 447.606 255.259 452.583 249.349C455.064 246.393 457.564 243.486 460.084 240.628C461.342 239.201 462.604 237.785 463.872 236.381C464.506 235.679 465.141 234.981 465.775 234.287V235.66H538.214V473.54H540.161L538.185 475.159C536.869 476.23 535.553 477.288 534.235 478.332C528.968 482.494 523.707 486.415 518.452 490.096C508.51 497.107 498.115 503.454 487.337 509.096C466.944 519.669 447.457 525.958 430.084 527.331C421.398 528.02 413.237 527.478 405.76 525.629C404.825 525.398 403.901 525.147 402.987 524.876C402.529 524.739 402.076 524.598 401.626 524.452H402.598V516.083Z" fill="#AAADFA"/>
<path d="M402.598 513.957V325.05H401.96C405.422 318.764 409.105 312.464 413.009 306.148C420.798 293.53 429.453 280.909 438.941 268.446C443.678 262.217 448.503 256.177 453.417 250.327C455.871 247.405 458.342 244.532 460.831 241.707C462.077 240.293 463.327 238.894 464.581 237.509C465.206 236.817 465.833 236.127 466.462 235.438V235.66H538.214V471.928H539.976C539.328 472.462 538.678 472.994 538.026 473.523C536.722 474.583 535.42 475.627 534.12 476.656C528.916 480.77 523.716 484.645 518.522 488.282C508.694 495.212 498.42 501.485 487.767 507.062C467.619 517.499 448.351 523.713 431.181 525.06C422.595 525.738 414.532 525.205 407.139 523.379C405.288 522.923 403.483 522.385 401.724 521.766H402.589L402.598 513.957Z" fill="#ABADF9"/>
<path d="M402.598 511.833V329.801H400.867C401.696 328.253 402.538 326.702 403.394 325.148C406.821 318.938 410.462 312.711 414.316 306.468C422.021 294 430.575 281.526 439.939 269.214C449.303 256.901 459.048 245.322 469.004 234.558V235.652H538.214V470.275H539.794C539.15 470.805 538.507 471.331 537.865 471.853C536.578 472.901 535.292 473.933 534.008 474.948C528.861 479.014 523.722 482.844 518.591 486.438C508.88 493.286 498.727 499.486 488.199 504.996C468.28 515.324 449.254 521.466 432.277 522.81C423.793 523.48 415.833 522.952 408.517 521.146C406.69 520.696 404.907 520.165 403.166 519.553C402.295 519.244 401.435 518.917 400.587 518.572H402.606L402.598 511.833Z" fill="#ACAEF9"/>
<path d="M402.598 509.71V329.844H402.341C403.16 328.315 403.994 326.782 404.842 325.246C408.227 319.109 411.824 312.954 415.631 306.783C423.245 294.462 431.697 282.138 440.952 269.97C450.206 257.801 459.83 246.386 469.664 235.744C470.28 235.077 470.895 234.415 471.511 233.759V235.66H538.214V468.653H539.61C538.975 469.178 538.34 469.699 537.703 470.214C536.434 471.247 535.163 472.266 533.892 473.272C528.809 477.288 523.732 481.072 518.66 484.624C509.065 491.392 499.033 497.518 488.629 502.963C468.949 513.169 450.143 519.236 433.373 520.56C424.99 521.224 417.117 520.701 409.899 518.919C408.093 518.471 406.33 517.945 404.609 517.341C403.749 517.041 402.9 516.718 402.061 516.374H402.598V509.71Z" fill="#ADAEF8"/>
<path d="M402.598 507.587V334.422H401.424C402.991 331.405 404.61 328.379 406.282 325.344C409.626 319.284 413.184 313.206 416.956 307.112C424.479 294.941 432.822 282.764 441.973 270.743C451.123 258.722 460.617 247.422 470.336 236.921C470.946 236.263 471.555 235.609 472.162 234.959V235.66H538.225V467.023H539.44C538.811 467.543 538.183 468.057 537.556 468.567C536.302 469.588 535.046 470.595 533.788 471.587C528.765 475.557 523.749 479.296 518.741 482.803C509.261 489.488 499.35 495.54 489.073 500.92C469.63 511.017 451.048 516.997 434.484 518.31C426.199 518.965 418.421 518.448 411.29 516.686C407.782 515.828 404.367 514.627 401.095 513.1H402.609L402.598 507.587Z" fill="#AEAFF8"/>
<path d="M402.598 505.464V338.876H400.642C401.39 337.39 402.151 335.901 402.924 334.411C404.462 331.428 406.062 328.439 407.721 325.445C411.023 319.454 414.533 313.45 418.251 307.432C425.682 295.408 433.93 283.381 442.962 271.507C451.995 259.633 461.382 248.469 470.983 238.098C472.183 236.8 473.386 235.515 474.592 234.244V235.66H538.214V465.396H539.243C538.624 465.908 538.004 466.416 537.383 466.92C536.144 467.927 534.905 468.922 533.664 469.903C528.702 473.824 523.747 477.517 518.799 480.983C509.433 487.583 499.643 493.558 489.492 498.869C470.285 508.827 451.931 514.736 435.569 516.045C427.387 516.692 419.702 516.184 412.657 514.441C409.193 513.595 405.82 512.408 402.589 510.899L402.598 505.464Z" fill="#AFB0F7"/>
<path d="M402.598 503.341V338.81H402.171C402.909 337.341 403.66 335.871 404.424 334.399C405.953 331.453 407.533 328.501 409.164 325.543C412.433 319.627 415.895 313.697 419.549 307.752C426.888 295.878 435.035 283.998 443.955 272.269C452.875 260.539 462.144 249.516 471.626 239.272C472.811 237.991 473.999 236.723 475.192 235.467V235.657H538.214V463.767H539.062C538.446 464.272 537.834 464.773 537.224 465.269C535.999 466.268 534.774 467.25 533.549 468.218C528.65 472.089 523.757 475.737 518.868 479.16C509.619 485.683 499.949 491.588 489.922 496.835C470.954 506.673 452.826 512.52 436.665 513.801C428.587 514.439 420.994 513.937 414.036 512.217C410.615 511.379 407.284 510.207 404.092 508.718C403.304 508.349 402.529 507.964 401.767 507.564H402.598V503.341Z" fill="#B0B0F7"/>
<path d="M402.598 501.214V343.085H401.556C412.807 319.949 427.355 296.201 444.973 273.036C453.78 261.453 462.937 250.569 472.301 240.452C473.472 239.185 474.646 237.934 475.823 236.702L477.589 234.85V235.669H538.214V462.137H538.874C538.272 462.637 537.667 463.132 537.06 463.622C535.85 464.607 534.64 465.577 533.431 466.533C528.598 470.356 523.766 473.959 518.937 477.34C509.804 483.78 500.255 489.61 490.354 494.793C471.623 504.506 453.717 510.281 437.761 511.545C429.782 512.177 422.287 511.681 415.415 509.981C412.04 509.153 408.754 507.993 405.607 506.52C404.057 505.792 402.546 504.984 401.08 504.099H402.609L402.598 501.214Z" fill="#B1B1F6"/>
<path d="M402.598 499.097V347.24H401.063C401.732 345.816 402.413 344.391 403.105 342.964C414.209 320.128 428.584 296.671 445.983 273.792C454.678 262.356 463.719 251.608 472.964 241.62C475.272 239.12 477.596 236.671 479.934 234.273V235.652H538.208V460.51H538.69C538.092 461 537.495 461.49 536.898 461.975C535.704 462.946 534.509 463.908 533.315 464.86C528.538 468.635 523.766 472.193 519.001 475.534C509.984 481.887 500.558 487.639 490.784 492.75C472.289 502.342 454.617 508.04 438.857 509.292C430.979 509.915 423.568 509.422 416.797 507.746C413.461 506.931 410.213 505.789 407.101 504.336C405.57 503.617 404.078 502.82 402.629 501.947C402.27 501.728 401.911 501.504 401.553 501.275H402.598V499.097Z" fill="#B2B1F6"/>
<path d="M402.598 496.968V351.267H400.691C401.96 348.469 403.28 345.661 404.649 342.843C415.611 320.298 429.802 297.142 446.972 274.565C455.557 263.277 464.483 252.666 473.608 242.806C475.891 240.338 478.185 237.92 480.491 235.551V235.66H538.214V458.88H538.502C537.925 459.364 537.325 459.849 536.734 460.322C535.557 461.284 534.378 462.229 533.197 463.158C528.481 466.885 523.769 470.396 519.061 473.69C510.16 479.971 500.853 485.657 491.202 490.711C472.944 500.179 455.497 505.81 439.939 507.039C432.15 507.653 424.857 507.169 418.161 505.516C414.868 504.71 411.662 503.582 408.59 502.146C407.079 501.439 405.606 500.652 404.179 499.789C403.463 499.357 402.76 498.906 402.07 498.436H402.583L402.598 496.968Z" fill="#B3B2F5"/>
<path d="M402.598 494.845V351.033H402.309C403.561 348.275 404.864 345.505 406.218 342.722C417.036 320.471 431.042 297.615 447.991 275.33C456.463 264.188 465.271 253.716 474.28 243.983C476.532 241.548 478.796 239.161 481.071 236.823C481.648 236.246 482.225 235.669 482.779 235.092V235.669H538.214V455.81H540.071C537.746 457.743 535.424 459.633 533.105 461.479C528.448 465.158 523.799 468.62 519.156 471.864C510.37 478.06 501.184 483.668 491.658 488.654C455.618 507.345 422.774 510.882 401.672 494.833L402.598 494.845Z" fill="#B5B3F5"/>
<path d="M403.287 492.722C402.638 492.225 402.001 491.715 401.38 491.19H402.609V354.879H402.113C402.704 353.517 403.305 352.163 403.916 350.817C405.155 348.094 406.44 345.359 407.773 342.612C418.447 320.656 432.271 298.099 448.994 276.108C457.36 265.114 466.05 254.778 474.941 245.174C477.162 242.774 479.396 240.419 481.642 238.109C482.763 236.956 483.888 235.812 485.017 234.679V235.675H538.214V454.192H539.867C537.57 456.115 535.274 457.982 532.978 459.794C528.385 463.423 523.797 466.843 519.214 470.053C510.543 476.168 501.477 481.703 492.077 486.623C456.509 505.069 424.101 508.559 403.287 492.722Z" fill="#B6B3F5"/>
<path d="M404.891 490.598C403.612 489.625 402.386 488.584 401.219 487.48H402.598V358.606H402.021C404.263 353.28 406.702 347.907 409.337 342.485C419.869 320.82 433.509 298.567 450.013 276.867C458.263 266.017 466.84 255.822 475.61 246.346C477.802 243.976 480.007 241.652 482.225 239.373C483.329 238.236 484.438 237.109 485.554 235.992C486.111 235.435 486.667 234.878 487.224 234.327V235.669H538.214V452.582H539.656C537.39 454.474 535.125 456.317 532.859 458.109C528.33 461.692 523.805 465.066 519.283 468.229C510.729 474.263 501.784 479.724 492.509 484.578C457.415 502.781 425.437 506.223 404.891 490.598Z" fill="#B7B4F4"/>
<path d="M406.507 488.472C405.244 487.514 404.035 486.488 402.883 485.4C402.306 484.857 401.747 484.298 401.202 483.727H402.598V362.186H402.044C402.575 360.88 403.116 359.57 403.668 358.257C405.878 353.004 408.282 347.704 410.88 342.356C421.266 320.982 434.726 299.028 451.002 277.623C459.143 266.92 467.602 256.852 476.256 247.514C480.583 242.841 484.952 238.347 489.362 234.033V235.66H538.214V450.972H539.451C537.218 452.84 534.984 454.657 532.747 456.425C528.275 459.959 523.81 463.289 519.35 466.412C510.91 472.363 502.086 477.75 492.936 482.538C458.321 500.49 426.776 503.889 406.507 488.472Z" fill="#B8B4F4"/>
<path d="M408.122 486.349C405.633 484.457 403.353 482.306 401.32 479.93H402.598V365.645H402.194C403.19 363.083 404.233 360.507 405.321 357.916C407.502 352.735 409.874 347.507 412.438 342.232C422.685 321.152 435.955 299.501 452.012 278.387C460.041 267.832 468.383 257.905 476.917 248.691C481.186 244.075 485.496 239.643 489.847 235.395V235.66H538.214V449.363H539.246C537.046 451.203 534.842 452.996 532.634 454.74C528.226 458.225 523.822 461.508 519.422 464.589C511.099 470.46 502.396 475.773 493.372 480.496C459.227 498.203 428.111 501.552 408.122 486.349Z" fill="#B9B5F3"/>
<path d="M409.735 484.226C407.282 482.359 405.035 480.237 403.031 477.896C402.526 477.319 402.038 476.714 401.565 476.099H402.598V372.741H401.098C404.822 362.302 409.127 352.08 413.993 342.122C424.09 321.337 437.184 299.983 453.016 279.163C460.935 268.755 469.171 258.97 477.577 249.88C481.785 245.333 486.035 240.963 490.325 236.768C491.399 235.722 492.472 234.685 493.545 233.658V235.678H538.214V447.747H539.042C536.868 449.561 534.695 451.328 532.522 453.049C528.172 456.484 523.828 459.722 519.491 462.763C511.288 468.551 502.711 473.79 493.816 478.447C460.133 495.924 429.45 499.218 409.735 484.226Z" fill="#BAB5F3"/>
<path d="M411.365 482.102C408.938 480.263 406.714 478.172 404.73 475.863C403.741 474.709 402.806 473.501 401.926 472.239H402.589V375.848H401.556C401.968 374.627 402.392 373.403 402.829 372.176C406.503 361.885 410.749 351.807 415.548 341.989C425.512 321.507 438.413 300.448 454.023 279.916C461.812 269.655 469.941 260.011 478.238 251.045C482.386 246.562 486.576 242.253 490.807 238.118C491.863 237.085 492.921 236.063 493.98 235.052V235.66H538.214V446.143H538.834C536.693 447.934 534.551 449.676 532.406 451.37C528.12 454.761 523.837 457.953 519.56 460.945C511.468 466.652 503.008 471.819 494.234 476.411C461.039 493.616 430.788 496.884 411.365 482.102Z" fill="#BBB6F2"/>
<path d="M412.966 479.979C408.166 476.296 404.177 471.663 401.248 466.369H402.598V378.837H402.133C402.903 376.452 403.714 374.048 404.568 371.625C408.189 361.482 412.374 351.55 417.103 341.874C426.926 321.68 439.636 300.909 455.03 280.684C462.721 270.567 470.717 261.067 478.896 252.222C482.986 247.799 487.117 243.551 491.286 239.48C492.327 238.46 493.37 237.453 494.416 236.456C494.938 235.957 495.46 235.464 495.983 234.971V235.66H538.214V444.522H538.629C536.514 446.287 534.398 448.005 532.282 449.674C528.051 453.015 523.831 456.161 519.621 459.113C511.644 464.74 503.304 469.832 494.656 474.357C461.942 491.337 432.136 494.548 412.966 479.979Z" fill="#BCB7F2"/>
<path d="M414.581 477.856C409.855 474.224 405.927 469.658 403.042 464.442C402.294 463.115 401.6 461.738 400.959 460.313H402.606V385.178H401.787C403.105 380.562 404.611 375.859 406.308 371.068C409.874 361.071 413.998 351.281 418.658 341.744C428.336 321.839 440.871 301.385 456.034 281.451C463.615 271.481 471.496 262.123 479.556 253.402C483.595 249.05 487.665 244.864 491.765 240.844C493.819 238.836 495.879 236.872 497.944 234.951V235.663H538.214V442.924H538.424C536.341 444.655 534.259 446.347 532.179 448.001C528.013 451.293 523.853 454.395 519.699 457.304C511.837 462.849 503.618 467.867 495.094 472.326C462.847 489.049 433.463 492.214 414.581 477.856Z" fill="#BDB7F1"/>
<path d="M416.197 475.73C411.535 472.153 407.662 467.653 404.819 462.512C403.314 459.821 402.045 457.004 401.028 454.094H402.598V391.204H401.781C402.337 388.966 402.94 386.708 403.59 384.431C404.89 379.873 406.375 375.238 408.044 370.526C411.559 360.676 415.622 351.031 420.213 341.634C429.75 322.018 442.1 301.87 457.04 282.224C464.509 272.401 472.275 263.167 480.217 254.588C484.186 250.299 488.196 246.174 492.247 242.215C494.268 240.236 496.297 238.301 498.334 236.41C498.841 235.937 499.352 235.467 499.86 235V235.672H538.228V441.314C536.18 443.027 534.129 444.695 532.075 446.316C527.972 449.559 523.874 452.614 519.78 455.481C512.037 460.944 503.942 465.888 495.547 470.283C463.753 486.761 434.798 489.88 416.197 475.73Z" fill="#BEB8F1"/>
<path d="M417.812 473.607C413.22 470.085 409.404 465.654 406.602 460.59C405.122 457.939 403.873 455.165 402.869 452.299C402.35 450.826 401.881 449.31 401.461 447.75H402.598V396.867H402.107C409.389 362.371 428.61 321.68 458.044 282.977C465.403 273.301 473.045 264.206 480.875 255.753C484.787 251.522 488.737 247.459 492.726 243.565C494.72 241.618 496.719 239.712 498.723 237.847C499.723 236.914 500.726 235.993 501.732 235.083V235.66H538.214V438.429H539.526L538.009 439.704C535.989 441.391 533.97 443.033 531.951 444.631C527.912 447.828 523.873 450.838 519.834 453.661C512.205 459.038 504.229 463.905 495.957 468.229C464.659 484.474 436.137 487.558 417.812 473.607Z" fill="#BFB8F0"/>
<path d="M419.442 471.483C410.419 464.62 404.759 454.221 402.252 441.291H402.612V420.119H400.83C401.196 411.974 402.248 403.875 403.974 395.907C411.146 361.932 430.076 321.859 459.074 283.742C473.568 264.682 489.206 247.915 505.073 233.915V235.646H538.248V436.837H539.33C538.834 437.258 538.337 437.676 537.839 438.092C535.837 439.757 533.835 441.375 531.835 442.947C527.854 446.093 523.878 449.057 519.907 451.838C512.393 457.142 504.537 461.943 496.389 466.21C465.565 482.186 437.475 485.209 419.442 471.483Z" fill="#C0B9F0"/>
<path d="M421.041 469.36C412.158 462.604 406.585 452.363 404.115 439.629C401.646 426.896 402.283 411.687 405.814 394.955C412.874 361.491 431.512 322.046 460.049 284.515C474.32 265.749 489.72 249.239 505.341 235.455V235.669H538.214V435.247H539.079C538.589 435.663 538.098 436.072 537.611 436.482C535.651 438.12 533.691 439.714 531.731 441.262C527.812 444.36 523.897 447.279 519.987 450.017C512.588 455.234 504.853 459.957 496.831 464.153C466.465 479.896 438.811 482.876 421.041 469.36Z" fill="#C1BAEF"/>
<path d="M422.656 467.237C405.165 453.935 400.717 426.916 407.655 393.985C414.593 361.055 432.952 322.217 461.05 285.271C475.099 266.808 490.253 250.546 505.632 236.979C506.594 236.13 507.556 235.293 508.517 234.466V235.66H538.214V433.658H538.837C538.355 434.064 537.873 434.471 537.394 434.872C535.471 436.486 533.543 438.054 531.61 439.577C527.75 442.627 523.896 445.501 520.048 448.197C512.767 453.334 505.153 457.983 497.258 462.113C467.374 477.608 440.15 480.539 422.656 467.237Z" fill="#C2BAEF"/>
<path d="M424.271 465.114C407.058 452.022 402.681 425.43 409.518 393.025C416.356 360.619 434.415 322.396 462.066 286.035C475.893 267.861 490.807 251.864 505.941 238.51C506.887 237.674 507.834 236.849 508.783 236.035C509.256 235.628 509.73 235.224 510.205 234.824V235.66H538.214V430.854H540.028C539.08 431.667 538.132 432.47 537.184 433.262C535.285 434.849 533.387 436.392 531.489 437.893C527.693 440.895 523.9 443.722 520.111 446.374C512.944 451.429 505.45 456.005 497.679 460.071C468.28 475.32 441.485 478.205 424.271 465.114Z" fill="#C3BBEE"/>
<path d="M425.887 462.99C408.95 450.11 404.643 423.947 411.365 392.07C418.086 360.193 435.857 322.577 463.064 286.805C476.666 268.919 491.335 253.186 506.232 240.045C508.094 238.405 509.958 236.804 511.823 235.242V235.666H538.205V429.284H539.769C538.836 430.086 537.903 430.877 536.97 431.655C535.11 433.215 533.245 434.733 531.374 436.208C527.637 439.162 523.906 441.944 520.181 444.554C513.128 449.527 505.755 454.028 498.109 458.029C469.185 473.033 442.824 475.871 425.887 462.99Z" fill="#C4BBEE"/>
<path d="M427.503 460.864C410.843 448.197 406.608 422.464 413.226 391.103C419.843 359.742 437.328 322.75 464.076 287.564C477.456 269.967 491.892 254.495 506.538 241.571C508.369 239.956 510.203 238.381 512.04 236.846C512.957 236.077 513.875 235.32 514.795 234.576V235.66H538.214V427.709H539.526C538.609 428.499 537.691 429.277 536.774 430.043C534.939 431.581 533.103 433.075 531.264 434.523C527.589 437.429 523.918 440.165 520.253 442.73C513.318 447.624 506.066 452.052 498.544 455.986C470.091 470.742 444.162 473.534 427.503 460.864Z" fill="#C5BCEE"/>
<path d="M429.118 458.741C412.735 446.284 408.569 420.982 415.078 390.143C421.586 359.304 438.771 322.926 465.083 288.329C478.241 271.02 492.434 255.811 506.835 243.103C510.436 239.928 514.044 236.91 517.662 234.05V235.66H538.214V426.14H539.275C538.371 426.909 537.469 427.673 536.569 428.433C534.763 429.943 532.956 431.411 531.149 432.838C527.537 435.694 523.928 438.387 520.322 440.916C513.501 445.727 506.37 450.081 498.974 453.949C470.994 468.454 445.498 471.201 429.118 458.741Z" fill="#C6BDED"/>
<path d="M430.733 456.618C414.627 444.372 410.54 419.496 416.932 389.182C423.325 358.868 440.213 323.122 466.087 289.081C479.023 272.061 492.976 257.115 507.132 244.623C510.671 241.498 514.219 238.532 517.777 235.724C518.666 235.022 519.554 234.329 520.443 233.647V235.649H538.213V424.567H539.021C538.137 425.337 537.25 426.089 536.361 426.823C534.588 428.306 532.813 429.749 531.036 431.151C527.482 433.96 523.934 436.606 520.391 439.087C513.686 443.815 506.676 448.095 499.407 451.898C471.9 466.167 446.848 468.867 430.733 456.618Z" fill="#C8BDED"/>
<path d="M432.346 454.495C400.691 430.438 416.252 356.713 467.094 289.858C479.804 273.146 493.516 258.442 507.432 246.167C510.908 243.09 514.395 240.174 517.893 237.42C518.764 236.731 519.636 236.052 520.509 235.38V235.669H538.214V422.998H538.77C537.899 423.744 537.028 424.483 536.157 425.214C534.41 426.671 532.665 428.09 530.921 429.469C527.43 432.231 523.943 434.827 520.46 437.258C513.872 441.906 506.982 446.113 499.837 449.85C472.812 463.879 448.172 466.53 432.346 454.495Z" fill="#C9BEEC"/>
<path d="M433.962 452.363C402.866 428.707 418.15 356.298 468.101 290.613C480.586 274.193 494.064 259.746 507.73 247.687C511.145 244.673 514.571 241.81 518.005 239.096C519.723 237.75 521.437 236.433 523.149 235.147V235.652H538.214V421.426H538.519C537.662 422.161 536.805 422.887 535.949 423.604C534.245 425.035 532.528 426.428 530.797 427.784C527.366 430.496 523.94 433.05 520.521 435.446C514.047 440.012 507.278 444.145 500.258 447.816C473.712 461.594 449.511 464.191 433.962 452.363Z" fill="#CABEEC"/>
<path d="M435.577 450.248C405.035 427.02 420.045 355.897 469.105 291.389C481.371 275.263 494.601 261.076 508.027 249.23C511.385 246.271 514.75 243.458 518.124 240.792C519.808 239.46 521.492 238.166 523.175 236.912C524.017 236.285 524.859 235.668 525.699 235.06V235.663H538.216V419.854H538.268C537.43 420.579 536.589 421.292 535.747 421.994C534.06 423.392 532.376 424.765 530.693 426.111C527.323 428.774 523.958 431.283 520.596 433.637C514.235 438.121 507.586 442.18 500.691 445.788C474.618 459.301 450.849 461.86 435.577 450.248Z" fill="#CBBFEB"/>
<path d="M437.193 448.125C407.205 425.317 421.943 355.487 470.111 292.154C482.153 276.319 495.143 262.391 508.324 250.759C514.634 245.17 521.251 239.937 528.145 235.086V235.663H538.214V417.214H539.252L538.009 418.284C537.184 418.994 536.358 419.694 535.531 420.384C533.881 421.763 532.228 423.11 530.572 424.423C527.266 427.041 523.962 429.503 520.662 431.811C514.419 436.215 507.892 440.201 501.123 443.743C475.52 457.013 452.185 459.526 437.193 448.125Z" fill="#CCBFEB"/>
<path d="M438.808 445.999C409.383 423.618 423.842 355.081 471.118 292.918C482.946 277.378 495.688 263.707 508.621 252.291C514.813 246.804 521.307 241.668 528.073 236.907C528.881 236.341 529.689 235.784 530.497 235.236V235.66H538.211V414.6H540.187C527.248 426.013 514.125 435.172 501.559 441.692C476.426 454.725 453.524 457.192 438.808 445.999Z" fill="#CDC0EA"/>
<path d="M440.424 443.876C411.547 421.916 425.737 354.671 472.122 293.697C483.716 278.448 496.228 265.036 508.921 253.835C514.997 248.453 521.369 243.415 528.007 238.744C529.594 237.633 531.178 236.558 532.758 235.522V235.675H538.214V413.092H539.893C527.199 424.291 514.321 433.285 501.992 439.672C477.332 452.438 454.859 454.855 440.424 443.876Z" fill="#CEC1EA"/>
<path d="M442.036 441.752C413.716 420.214 427.635 354.279 473.126 294.447C484.501 279.492 496.782 266.337 509.218 255.352C515.178 250.074 521.428 245.132 527.938 240.55C531.05 238.371 534.147 236.34 537.23 234.457V235.66H538.214V411.537H539.595C527.144 422.522 514.515 431.335 502.421 437.607C478.238 450.147 456.198 452.521 442.036 441.752Z" fill="#CFC1E9"/>
<path d="M443.652 439.629C415.888 418.512 429.539 353.855 474.133 295.212C485.283 280.551 497.31 267.653 509.515 256.884C515.358 251.709 521.485 246.864 527.869 242.373C530.921 240.237 533.958 238.245 536.979 236.399C537.735 235.937 538.488 235.486 539.238 235.046L538.214 235.66V410.005H539.295C527.093 420.774 514.711 429.414 502.854 435.564C479.158 447.86 457.536 450.188 443.652 439.629Z" fill="#D0C2E9"/>
<path d="M445.267 437.506C418.058 416.813 431.42 353.448 475.137 295.976C486.064 281.607 497.852 268.968 509.812 258.416C515.539 253.345 521.544 248.597 527.799 244.194C530.79 242.099 533.766 240.148 536.728 238.34C537.466 237.886 538.205 237.444 538.943 237.013H538.214V408.473H538.998C527.038 419.029 514.904 427.495 503.284 433.522C480.047 445.572 458.872 447.851 445.267 437.506Z" fill="#D1C2E8"/>
<path d="M446.883 435.383C420.227 415.111 433.324 353.038 476.144 296.741C486.846 282.666 498.394 270.284 510.113 259.948C515.721 254.978 521.603 250.327 527.73 246.014C530.659 243.954 533.575 242.043 536.477 240.282C537.2 239.837 537.923 239.404 538.646 238.981H538.214V406.944H538.701C526.983 417.28 515.098 425.577 503.717 431.479C480.953 443.284 460.211 445.517 446.883 435.383Z" fill="#D2C3E8"/>
<path d="M448.498 433.257C422.399 413.418 435.225 352.631 477.139 297.505C487.619 283.724 498.928 271.599 510.401 261.477C515.895 256.609 521.658 252.053 527.661 247.828C530.528 245.817 533.383 243.945 536.226 242.212C536.935 241.779 537.643 241.355 538.349 240.94H538.213V405.404H538.404C526.931 415.526 515.291 423.647 504.147 429.428C481.858 440.997 461.561 443.183 448.498 433.257Z" fill="#D3C3E8"/>
<path d="M450.114 431.133C424.569 411.707 437.132 352.222 478.154 298.27C488.413 284.783 499.479 272.926 510.707 263.008C516.082 258.247 521.719 253.79 527.592 249.657C530.4 247.692 533.193 245.86 535.972 244.162C537.363 243.314 538.746 242.501 540.123 241.724H538.214V401.999H540.21C539.51 402.634 538.808 403.261 538.104 403.88C526.876 413.787 515.484 421.737 504.579 427.395C482.764 438.706 462.885 440.847 450.114 431.133Z" fill="#D4C4E7"/>
<path d="M451.729 429.01C426.738 410.005 439.036 351.815 479.158 299.034C489.195 285.839 500.021 274.225 511.004 264.54C516.262 259.882 521.777 255.522 527.522 251.481C530.269 249.557 533.002 247.765 535.721 246.103C537.079 245.274 538.432 244.479 539.78 243.718H538.214V400.511H539.864C539.181 401.13 538.495 401.743 537.807 402.349C526.821 412.042 515.68 419.819 505.009 425.352C483.67 436.418 464.223 438.516 451.729 429.01Z" fill="#D5C5E7"/>
<path d="M453.342 426.887C428.91 408.306 440.917 351.405 480.171 299.799C489.979 286.898 500.567 275.549 511.31 266.072C516.452 261.517 521.845 257.253 527.465 253.301C530.157 251.42 532.829 249.668 535.482 248.045C536.811 247.233 538.134 246.455 539.451 245.711H538.225V399.019H539.532C538.863 399.625 538.19 400.224 537.513 400.817C526.772 410.293 515.876 417.898 505.442 423.318C484.573 434.131 465.559 436.179 453.342 426.887Z" fill="#D6C5E6"/>
<path d="M454.957 424.764C431.08 406.604 442.809 350.999 481.178 300.563C490.764 287.956 501.109 276.864 511.607 267.604C516.631 263.152 521.9 258.985 527.39 255.121C530.015 253.285 532.627 251.573 535.225 249.986C536.523 249.194 537.815 248.433 539.102 247.704H538.219V397.528H539.183C538.529 398.122 537.874 398.709 537.218 399.288C526.72 408.548 516.073 415.979 505.878 421.267C485.479 431.843 466.898 433.842 454.957 424.764Z" fill="#D7C6E6"/>
<path d="M456.573 422.649C433.249 404.91 444.713 350.598 482.176 301.336C491.543 289.021 501.646 278.188 511.89 269.142C516.798 264.795 521.944 260.726 527.306 256.953C529.868 255.155 532.419 253.482 534.96 251.934C536.227 251.164 537.49 250.422 538.747 249.706H538.205V396.039H538.825C538.187 396.616 537.547 397.193 536.907 397.77C526.654 406.817 516.251 414.075 506.293 419.239C486.385 429.552 468.233 431.508 456.573 422.649Z" fill="#D8C6E5"/>
<path d="M458.188 420.514C435.421 403.205 446.612 350.182 483.183 302.092C492.325 290.071 502.188 279.495 512.195 270.665C516.987 266.421 522.012 262.449 527.246 258.765C529.746 257.013 532.236 255.378 534.717 253.861C535.95 253.109 537.183 252.386 538.416 251.694H538.214V394.548H538.502C537.879 395.113 537.254 395.672 536.627 396.224C526.62 405.054 516.468 412.14 506.746 417.182C487.291 427.265 469.572 429.174 458.188 420.514Z" fill="#D9C7E5"/>
<path d="M459.804 418.391C437.591 401.5 448.507 349.772 484.187 302.857C493.106 291.13 502.73 280.811 512.495 272.197C517.168 268.056 522.07 264.18 527.176 260.588C529.617 258.878 532.046 257.285 534.463 255.808C535.671 255.069 536.874 254.363 538.072 253.688C538.672 253.349 539.269 253.018 539.864 252.695H538.214V391.383H539.973C538.756 392.514 537.538 393.617 536.318 394.692C526.553 403.321 516.661 410.221 507.164 415.148C488.196 424.977 470.911 426.838 459.804 418.391Z" fill="#DAC7E4"/>
<path d="M461.42 416.268C439.76 399.798 450.405 349.374 485.193 303.621C493.39 292.776 502.634 282.763 512.793 273.728C517.35 269.692 522.129 265.912 527.107 262.408C529.488 260.741 531.856 259.188 534.212 257.749C535.389 257.03 536.563 256.341 537.732 255.681C538.309 255.352 538.891 255.03 539.477 254.715H538.214V389.935H539.584C538.399 391.037 537.212 392.113 536.021 393.163C526.501 401.561 516.843 408.303 507.597 413.097C489.099 422.689 472.235 424.504 461.42 416.268Z" fill="#DBC8E4"/>
<path d="M463.035 414.145C441.932 398.096 452.303 348.947 486.197 304.388C494.185 293.819 503.193 284.059 513.09 275.252C517.534 271.322 522.193 267.642 527.046 264.229C529.366 262.605 531.674 261.093 533.97 259.691C535.124 258.991 536.266 258.318 537.397 257.671C537.974 257.351 538.534 257.037 539.102 256.731H538.237V388.487H539.217C538.064 389.56 536.91 390.608 535.756 391.631C526.478 399.816 517.068 406.381 508.061 411.055C490.005 420.402 473.585 422.167 463.035 414.145Z" fill="#DCC9E3"/>
<path d="M464.648 412.021C444.102 396.394 454.202 348.555 487.204 305.153C494.981 294.863 503.751 285.363 513.387 276.789C517.71 272.96 522.245 269.375 526.969 266.052C529.226 264.467 531.474 262.993 533.71 261.629C534.826 260.949 535.938 260.295 537.048 259.668C537.602 259.356 538.153 259.05 538.707 258.75H538.214V387.039H538.791C537.675 388.085 536.549 389.105 535.412 390.099C526.394 398.067 517.238 404.475 508.457 409.012C490.911 418.111 474.923 419.833 464.648 412.021Z" fill="#DDC9E3"/>
<path d="M466.263 409.898C446.271 394.695 456.097 348.14 488.208 305.917C504.256 284.803 522.852 268.772 539.924 259.919H538.214V385.591H538.415C537.323 386.606 536.227 387.598 535.127 388.568C526.34 396.322 517.425 402.545 508.875 406.97C491.817 415.824 476.273 417.5 466.263 409.898Z" fill="#DECAE3"/>
<path d="M467.879 407.775C448.444 392.993 457.995 347.733 489.226 306.682C504.833 286.156 522.895 270.57 539.492 261.964H538.214V382.642H539.619C539.088 383.148 538.557 383.648 538.026 384.142C536.965 385.129 535.899 386.091 534.83 387.027C526.285 394.568 517.619 400.615 509.319 404.913C492.717 413.536 477.598 415.163 467.879 407.775Z" fill="#DFCAE2"/>
<path d="M469.494 405.649C450.613 391.291 459.893 347.323 490.219 307.446C505.384 287.506 522.938 272.367 539.062 264.004H538.214V381.234H539.186C538.668 381.727 538.152 382.208 537.637 382.677C536.604 383.638 535.569 384.577 534.532 385.492C526.233 392.814 517.8 398.691 509.752 402.871C493.626 411.248 478.933 412.841 469.494 405.649Z" fill="#E0CBE2"/>
<path d="M471.11 403.526C452.782 389.589 461.792 346.917 491.226 308.211C505.938 288.859 522.982 274.17 538.632 266.046H538.214V379.83H538.75C538.251 380.306 537.749 380.779 537.247 381.243C536.245 382.176 535.24 383.087 534.233 383.975C526.178 391.083 518.005 396.787 510.182 400.843C494.532 408.958 480.272 410.495 471.11 403.526Z" fill="#E1CBE1"/>
<path d="M472.725 401.402C454.955 387.89 463.687 346.507 492.232 308.987C506.504 290.235 523.025 275.97 538.199 268.1C538.676 267.854 539.149 267.614 539.618 267.382H538.214V377.034H539.766C537.842 378.923 535.899 380.73 533.935 382.455C526.126 389.347 518.202 394.877 510.612 398.812C495.437 406.67 481.61 408.158 472.725 401.402Z" fill="#E2CCE1"/>
<path d="M474.338 399.282C457.124 386.188 465.6 346.1 493.236 309.74C507.063 291.565 523.068 277.756 537.769 270.131C538.229 269.893 538.687 269.661 539.142 269.436H538.214V375.661H539.287C537.415 377.492 535.533 379.242 533.638 380.911C526.071 387.59 518.392 392.935 511.044 396.758C496.343 404.382 482.946 405.825 474.338 399.282Z" fill="#E3CCE0"/>
<path d="M475.953 397.156C459.296 384.486 467.483 345.69 494.243 310.504C507.623 292.907 523.111 279.55 537.337 272.174C538.229 271.712 539.114 271.274 539.991 270.861H538.214V374.299H538.79C536.983 376.071 535.161 377.765 533.327 379.382C526.002 385.842 518.574 391.026 511.46 394.715C497.249 402.095 484.285 403.491 475.953 397.156Z" fill="#E4CDE0"/>
<path d="M477.569 395.033C461.466 382.784 469.379 345.284 495.247 311.269C508.18 294.248 523.155 281.347 536.907 274.216C537.766 273.768 538.621 273.345 539.471 272.947H538.214V372.938H538.326C536.574 374.649 534.813 376.284 533.044 377.842C525.965 384.088 518.781 389.093 511.907 392.664C498.152 399.807 485.62 401.154 477.569 395.033Z" fill="#E5CEDF"/>
<path d="M479.184 392.906C463.635 381.079 471.277 344.874 496.254 312.033C508.739 295.613 523.198 283.145 536.477 276.261C537.304 275.831 538.128 275.422 538.949 275.035H538.214V370.321H539.111C538.69 370.745 538.268 371.161 537.847 371.576C536.157 373.23 534.456 374.811 532.744 376.319C525.91 382.348 518.969 387.189 512.334 390.627C499.064 397.516 486.947 398.82 479.184 392.906Z" fill="#E6CEDF"/>
<path d="M480.8 390.783C465.799 379.382 473.175 344.467 497.243 312.798C509.284 296.966 523.227 284.942 536.03 278.301C536.832 277.885 537.627 277.491 538.415 277.118H538.199V367.771H539.786C538.978 368.602 538.166 369.416 537.351 370.214C535.722 371.807 534.087 373.331 532.447 374.787C525.855 380.603 519.177 385.267 512.769 388.588C499.964 395.243 488.297 396.487 480.8 390.783Z" fill="#E7CFDF"/>
<path d="M482.415 388.66C467.991 377.68 475.073 344.058 498.264 313.562C509.859 298.313 523.296 286.736 535.614 280.343C537.153 279.545 538.675 278.828 540.181 278.191H538.214V366.499H539.232C538.453 367.301 537.671 368.085 536.887 368.853C535.317 370.391 533.738 371.859 532.15 373.255C525.803 378.857 519.364 383.352 513.199 386.545C500.869 392.935 489.633 394.15 482.415 388.66Z" fill="#E8CFDE"/>
<path d="M484.031 386.537C470.146 375.978 476.969 343.651 499.268 314.327C510.418 299.666 523.328 288.533 535.182 282.386C536.664 281.617 538.128 280.927 539.572 280.317H538.214V365.241H538.661C537.914 366.01 537.163 366.764 536.408 367.503C534.896 368.976 533.378 370.387 531.853 371.738C525.748 377.121 519.557 381.442 513.629 384.514C501.775 390.653 490.986 391.816 484.031 386.537Z" fill="#E9D0DE"/>
<path d="M485.643 384.414C472.318 374.276 478.87 343.241 500.275 315.091C510.978 301.019 523.371 290.331 534.752 284.428C536.173 283.69 537.578 283.027 538.966 282.441H538.214V362.838H539.163C538.805 363.213 538.447 363.588 538.087 363.957C537.367 364.696 536.646 365.42 535.923 366.129C534.475 367.545 533.017 368.9 531.55 370.194C525.693 375.364 519.748 379.509 514.059 382.46C502.681 388.363 492.307 389.474 485.643 384.414Z" fill="#EAD0DD"/>
<path d="M487.259 382.29C474.488 372.577 480.765 342.834 501.279 315.858C511.538 302.369 523.414 292.128 534.319 286.471C535.685 285.763 537.031 285.128 538.358 284.567H538.211V360.518H539.572C536.937 363.371 534.161 366.089 531.253 368.662C525.639 373.616 519.944 377.591 514.489 380.418C503.584 386.075 493.646 387.145 487.259 382.29Z" fill="#EBD1DD"/>
<path d="M488.874 380.167C476.657 370.875 482.663 342.425 502.286 316.623C512.094 303.719 523.458 293.922 533.889 288.513C535.193 287.836 536.481 287.229 537.752 286.693C538.39 286.425 539.018 286.174 539.644 285.94H538.202V359.342H538.906C536.386 362.071 533.73 364.67 530.947 367.131C525.575 371.87 520.129 375.673 514.913 378.381C504.49 383.788 494.984 384.812 488.874 380.167Z" fill="#ECD1DC"/>
<path d="M490.49 378.041C478.829 369.173 484.559 342.018 503.29 317.387C512.657 305.072 523.498 295.719 533.459 290.559C534.702 289.912 535.931 289.335 537.146 288.828C537.752 288.571 538.355 288.334 538.952 288.112H538.214V358.164H538.257C535.851 360.769 533.316 363.251 530.661 365.602C525.535 370.122 520.333 373.751 515.354 376.333C505.41 381.5 496.32 382.475 490.49 378.041Z" fill="#EDD2DC"/>
<path d="M492.105 375.915C480.999 367.468 486.457 341.606 504.297 318.149C513.217 306.419 523.541 297.514 533.027 292.595C535.249 291.428 537.565 290.449 539.95 289.67H538.219V355.032H539.373C538.796 355.695 538.207 356.347 537.605 356.987C535.315 359.469 532.9 361.833 530.37 364.07C525.489 368.377 520.535 371.833 515.793 374.294C506.302 379.212 497.659 380.141 492.105 375.915Z" fill="#EED2DC"/>
<path d="M493.721 373.794C483.168 365.772 488.355 341.196 505.304 318.916C513.776 307.772 523.585 299.3 532.597 294.641C534.704 293.532 536.9 292.603 539.163 291.862H538.205V353.95H538.609C538.051 354.581 537.491 355.201 536.93 355.81C534.753 358.167 532.458 360.412 530.055 362.538C525.419 366.629 520.714 369.914 516.208 372.251C507.207 376.922 498.994 377.807 493.721 373.794Z" fill="#EFD3DB"/>
<path d="M495.336 371.671C485.34 364.07 490.253 340.804 506.299 319.681C514.327 309.125 523.608 301.108 532.155 296.683C534.154 295.632 536.237 294.752 538.384 294.052H538.205V351.045H539.451C538.413 352.285 537.355 353.481 536.278 354.633C534.217 356.866 532.044 358.993 529.767 361.006C525.373 364.883 520.916 367.993 516.647 370.209C508.11 374.634 500.333 375.471 495.336 371.671Z" fill="#F0D4DB"/>
<path d="M496.949 369.548C487.524 362.356 492.14 340.385 507.314 320.445C514.896 310.475 523.671 302.906 531.734 298.725C533.621 297.732 535.589 296.9 537.616 296.239C538.09 296.089 538.56 295.95 539.024 295.829H538.214V350.064H538.603C537.622 351.233 536.628 352.362 535.62 353.451C533.672 355.559 531.619 357.569 529.47 359.471C525.318 363.135 521.104 366.072 517.079 368.163C509.016 372.346 501.66 373.137 496.949 369.548Z" fill="#F1D4DA"/>
<path d="M498.565 367.425C489.679 360.666 494.047 339.976 508.318 321.21C515.455 311.825 523.714 304.703 531.304 300.768C533.085 299.833 534.942 299.051 536.855 298.428C537.707 298.152 538.574 297.921 539.451 297.736H538.205V347.413H539.134C538.682 347.99 538.224 348.549 537.761 349.092C536.838 350.192 535.901 351.254 534.951 352.279C533.053 354.328 531.114 356.22 529.164 357.945C525.258 361.39 521.294 364.156 517.501 366.124C509.922 370.059 503.007 370.803 498.565 367.425Z" fill="#F2D5DA"/>
<path d="M500.18 365.299C491.852 358.966 495.945 339.566 509.325 321.969C516.015 313.173 523.749 306.491 530.872 302.805C532.538 301.929 534.275 301.195 536.064 300.612C536.872 300.352 537.692 300.135 538.522 299.96H538.216V344.914H539.492C526.109 362.509 508.509 371.634 500.18 365.299Z" fill="#F3D5D9"/>
<path d="M501.796 363.175C494.006 357.264 497.84 339.159 510.329 322.739C516.574 314.529 523.801 308.294 530.442 304.853C533.759 303.122 536.933 302.109 539.76 301.884H538.214V344.15H538.482C525.996 360.57 509.57 369.089 501.796 363.175Z" fill="#F4D6D9"/>
<path d="M503.411 361.052C496.199 355.571 499.739 338.752 511.336 323.503C517.134 315.882 523.844 310.092 530.009 306.892C533.093 305.294 536.038 304.345 538.664 304.137H538.214V340.512H539.558C538.894 341.473 538.202 342.433 537.478 343.397C525.893 358.632 510.629 366.542 503.411 361.052Z" fill="#F5D6D9"/>
<path d="M505.026 358.929C498.363 353.86 501.637 338.343 512.334 324.276C517.688 317.24 523.873 311.895 529.573 308.944C532.418 307.469 535.138 306.592 537.562 306.399C538.147 306.356 538.736 306.356 539.321 306.399H538.208V337.299H540.126C539.027 339.078 537.804 340.861 536.465 342.621C525.768 356.696 511.69 363.998 505.026 358.929Z" fill="#F5D7D8"/>
<path d="M506.639 356.806C500.532 352.158 503.535 337.936 513.346 325.032C518.251 318.582 523.931 313.683 529.147 310.977C531.757 309.627 534.25 308.822 536.471 308.646C537.513 308.55 538.563 308.623 539.581 308.863H538.214V336.97H538.822C537.813 338.602 536.693 340.235 535.467 341.848C525.656 354.757 512.749 361.45 506.639 356.806Z" fill="#F6D7D8"/>
<path d="M508.255 354.682C502.701 350.459 505.43 337.526 514.35 325.797C518.81 319.935 523.974 315.481 528.717 313.02C531.088 311.791 533.353 311.061 535.375 310.899C536.322 310.814 537.276 310.881 538.202 311.098C538.63 311.203 539.047 311.35 539.445 311.537H538.214V332.224H539.945C538.406 335.353 536.564 338.323 534.446 341.092C525.541 352.819 513.808 358.894 508.255 354.682Z" fill="#F7D8D7"/>
<path d="M509.87 352.548C504.874 348.748 507.329 337.111 515.351 326.555C523.374 316 533.938 310.522 538.935 314.324H538.208V332.354H538.395C537.012 335.17 535.356 337.844 533.451 340.336C525.428 350.883 514.87 356.359 509.87 352.548Z" fill="#F8D8D7"/>
<path d="M511.486 350.433C507.043 347.055 509.227 336.71 516.361 327.329C523.495 317.947 532.885 313.078 537.328 316.456C539.549 318.143 540.112 321.576 539.229 325.756C538.346 329.936 536.018 334.869 532.45 339.566C525.316 348.945 515.928 353.811 511.486 350.433Z" fill="#F9D9D7"/>
<path d="M531.439 338.781C537.682 330.571 539.592 321.519 535.705 318.563C531.818 315.607 523.606 319.867 517.362 328.077C511.119 336.288 509.209 345.34 513.096 348.296C516.983 351.251 525.195 346.992 531.439 338.781Z" fill="#FAD9D6"/>
<path d="M532.302 337.752C537.695 330.679 539.353 322.876 536.004 320.322C532.656 317.769 525.57 321.433 520.177 328.506C514.784 335.579 513.126 343.382 516.475 345.935C519.823 348.488 526.909 344.824 532.302 337.752Z" fill="#FBDAD6"/>
<path d="M529.427 337.252C533.887 331.387 535.251 324.922 532.475 322.811C529.699 320.7 523.833 323.743 519.374 329.607C514.915 335.471 513.55 341.936 516.326 344.047C519.102 346.158 524.968 343.116 529.427 337.252Z" fill="#FCDAD5"/>
<path d="M528.424 336.488C531.991 331.797 533.082 326.625 530.86 324.935C528.638 323.245 523.945 325.679 520.377 330.37C516.81 335.061 515.72 340.234 517.941 341.923C520.163 343.613 524.856 341.18 528.424 336.488Z" fill="#FDDBD5"/>
<path d="M527.418 335.724C530.094 332.204 530.913 328.324 529.246 327.057C527.58 325.79 524.059 327.615 521.383 331.135C518.707 334.654 517.888 338.534 519.555 339.801C521.221 341.069 524.742 339.243 527.418 335.724Z" fill="#FDDBD5"/>
<path d="M521.176 337.691C520.065 336.848 520.599 334.261 522.396 331.921C524.193 329.582 526.527 328.358 527.638 329.204C528.748 330.049 528.215 332.634 526.417 334.973C524.62 337.313 522.286 338.536 521.176 337.691Z" fill="#FEDCD4"/>
<path d="M522.791 335.568C522.234 335.146 522.503 333.854 523.4 332.683C524.297 331.512 525.465 330.903 526.022 331.324C526.579 331.745 526.311 333.055 525.411 334.209C524.511 335.363 523.345 335.992 522.791 335.568Z" fill="#FFDCD4"/>
</g>
<path d="M478.224 240.279H462.588C462.205 240.279 461.838 240.127 461.568 239.856C461.297 239.586 461.145 239.219 461.145 238.836C461.145 238.454 461.297 238.087 461.568 237.817C461.838 237.546 462.205 237.394 462.588 237.394H478.224C478.606 237.394 478.973 237.546 479.244 237.817C479.514 238.087 479.666 238.454 479.666 238.836C479.666 239.219 479.514 239.586 479.244 239.856C478.973 240.127 478.606 240.279 478.224 240.279Z" fill="url(#paint3_linear_1_318)"/>
<path d="M488.58 240.629C489.572 239.638 489.572 238.03 488.58 237.039C487.589 236.047 485.981 236.047 484.99 237.039C483.999 238.03 483.999 239.638 484.99 240.629C485.981 241.62 487.589 241.62 488.58 240.629Z" fill="url(#paint4_linear_1_318)"/>
<path d="M488.638 238.834C488.638 239.2 488.529 239.558 488.326 239.862C488.122 240.167 487.833 240.404 487.495 240.545C487.156 240.685 486.784 240.721 486.424 240.65C486.065 240.579 485.735 240.402 485.476 240.143C485.217 239.884 485.041 239.554 484.969 239.195C484.898 238.836 484.935 238.463 485.075 238.125C485.215 237.786 485.452 237.497 485.757 237.294C486.061 237.09 486.42 236.981 486.786 236.981C487.029 236.981 487.27 237.029 487.495 237.122C487.72 237.215 487.924 237.351 488.096 237.523C488.268 237.695 488.405 237.899 488.498 238.124C488.591 238.349 488.638 238.59 488.638 238.834Z" fill="url(#paint5_linear_1_318)"/>
<path d="M488.315 238.834C488.315 239.136 488.225 239.432 488.057 239.683C487.889 239.934 487.65 240.13 487.371 240.246C487.092 240.362 486.784 240.392 486.488 240.333C486.191 240.274 485.919 240.129 485.705 239.915C485.491 239.701 485.345 239.428 485.286 239.132C485.227 238.835 485.258 238.528 485.373 238.248C485.489 237.969 485.685 237.73 485.936 237.562C486.188 237.394 486.483 237.305 486.786 237.305C487.191 237.305 487.58 237.466 487.867 237.752C488.154 238.039 488.315 238.428 488.315 238.834Z" fill="url(#paint6_radial_1_318)"/>
<path d="M487.871 238.309C487.871 238.77 487.383 239.145 486.786 239.145C486.189 239.145 485.701 238.77 485.701 238.309C485.701 237.847 486.186 237.475 486.786 237.475C487.386 237.475 487.871 237.833 487.871 238.309Z" fill="url(#paint7_linear_1_318)"/>
<path d="M546.874 256.656H544.399V259.339H546.874V256.656Z" fill="#353535"/>
<path d="M393.938 259.339H396.413V256.656H393.938V259.339Z" fill="#353535"/>
<path d="M546.874 503.747H544.399V506.43H546.874V503.747Z" fill="#353535"/>
<path d="M393.938 506.427H396.413V503.744H393.938V506.427Z" fill="#353535"/>
<path d="M478.224 240.054H462.588C462.224 240.055 461.872 239.918 461.605 239.671C461.337 239.424 461.173 239.084 461.145 238.721C461.145 238.759 461.145 238.796 461.145 238.834C461.145 239.216 461.297 239.583 461.568 239.853C461.838 240.124 462.205 240.276 462.588 240.276H478.224C478.606 240.276 478.973 240.124 479.244 239.853C479.514 239.583 479.666 239.216 479.666 238.834C479.666 238.796 479.666 238.759 479.666 238.721C479.638 239.084 479.474 239.424 479.207 239.671C478.939 239.918 478.588 240.055 478.224 240.054Z" fill="#4E4E4E"/>
<path d="M523.911 231.63H416.904C412.043 231.636 407.383 233.569 403.945 237.006C400.508 240.442 398.574 245.102 398.568 249.963V251.241C398.574 246.38 400.508 241.72 403.945 238.284C407.383 234.847 412.043 232.914 416.904 232.908H523.911C528.771 232.914 533.432 234.847 536.869 238.284C540.307 241.72 542.24 246.38 542.247 251.241V249.963C542.24 245.102 540.307 240.442 536.869 237.006C533.432 233.569 528.771 231.636 523.911 231.63Z" fill="url(#paint8_linear_1_318)"/>
<path d="M520.412 233H420.412C410.47 233 402.412 241.059 402.412 251V513C402.412 522.941 410.47 531 420.412 531H520.412C530.353 531 538.412 522.941 538.412 513V251C538.412 241.059 530.353 233 520.412 233Z" fill="url(#paint9_linear_1_318)"/>
<path d="M503.975 319.072L530.508 306.816C532.757 305.777 535.411 306.73 536.434 308.943L543.079 323.329L559.033 281.026L516.481 265.746L523.126 280.132C524.148 282.346 523.153 284.984 520.904 286.023C520.782 286.08 520.661 286.129 520.538 286.174L441.629 322.626C426.449 329.957 415.537 342.631 410.171 357.254C404.821 371.833 405.002 388.361 411.983 403.474C414.364 408.629 417.358 413.264 420.835 417.337C424.447 421.567 428.594 425.227 433.13 428.263C435.157 429.625 435.663 432.37 434.262 434.393C433.785 435.079 433.15 435.595 432.439 435.923L432.445 435.936L405.912 448.192C403.662 449.231 401.009 448.278 399.986 446.064L393.341 431.678L377.387 473.982L419.939 489.261L413.294 474.875C412.272 472.661 413.267 470.023 415.516 468.984C415.638 468.928 415.759 468.879 415.882 468.834L494.856 432.35C510.012 425.009 520.907 412.338 526.262 397.721C531.598 383.151 531.413 366.636 524.437 351.535C522.056 346.38 519.063 341.745 515.587 337.674C511.975 333.443 507.827 329.783 503.291 326.747C501.264 325.385 500.759 322.64 502.16 320.618C502.636 319.931 503.271 319.415 503.982 319.087L503.976 319.074L503.975 319.072ZM530.138 316.718L514.425 323.976C517.287 326.384 519.968 329.037 522.431 331.923C526.455 336.636 529.89 341.938 532.583 347.768C540.559 365.036 540.763 383.947 534.643 400.65C528.52 417.366 516.042 431.865 498.671 440.278L423.286 475.104L432.558 495.177C433.032 496.204 433.108 497.413 432.674 498.563C431.806 500.864 429.226 502.056 426.911 501.225L370.052 480.808C367.737 479.977 366.564 477.438 367.432 475.137L388.741 418.634C389.14 417.558 389.955 416.628 391.089 416.104C393.338 415.065 395.992 416.018 397.014 418.232L406.278 438.288L421.991 431.03C419.128 428.622 416.448 425.969 413.985 423.083C409.96 418.37 406.525 413.068 403.832 407.238C395.851 389.958 395.653 371.034 401.785 354.321C407.922 337.597 420.417 323.096 437.81 314.696L513.13 279.902L503.858 259.829C503.384 258.802 503.308 257.593 503.742 256.443C504.61 254.142 507.19 252.95 509.504 253.781L566.364 274.198C568.679 275.029 569.851 277.568 568.984 279.869L547.674 336.372C547.276 337.448 546.46 338.378 545.327 338.902C543.078 339.941 540.424 338.988 539.401 336.774L530.137 316.717L530.138 316.718Z" fill="#5484FF"/>
<path d="M455.314 407.19C459.023 408.47 460.953 412.499 459.625 416.188C458.298 419.878 454.216 421.832 450.507 420.552C450.022 420.386 449.539 420.211 449.062 420.031C437.345 415.586 428.567 407.043 423.773 396.666C418.98 386.288 418.167 374.066 422.379 362.263C422.551 361.784 422.73 361.302 422.919 360.825C427.714 348.661 437.031 339.383 448.214 334.217C459.399 329.051 472.502 327.973 484.872 332.209C485.358 332.374 485.841 332.55 486.317 332.73C498.034 337.174 506.813 345.718 511.606 356.095C516.4 366.472 517.213 378.695 513.001 390.497C512.83 390.978 512.649 391.458 512.461 391.935C511.031 395.588 506.898 397.429 503.227 396.048C499.558 394.666 497.741 390.586 499.171 386.933C499.311 386.576 499.445 386.218 499.573 385.863C502.477 377.726 501.908 369.284 498.592 362.106C495.276 354.927 489.216 349.022 481.14 345.958C480.787 345.823 480.427 345.694 480.065 345.57C473.761 343.412 467.149 343.236 460.953 344.707L474.195 373.376C475.833 376.923 474.248 381.144 470.655 382.804C467.062 384.463 462.821 382.934 461.182 379.386L447.94 350.718C442.803 354.481 438.65 359.63 436.206 365.829C436.066 366.186 435.931 366.544 435.804 366.899C432.9 375.036 433.469 383.478 436.785 390.656C440.101 397.835 446.159 403.741 454.237 406.804C454.59 406.939 454.949 407.067 455.312 407.192L455.314 407.19Z" fill="white"/>
<path d="M357.78 82.6729L420.25 137.727C468.065 86.2801 548.413 81.996 601.42 128.711C654.427 175.426 660.256 255.677 615.247 309.578L677.717 364.632C753.131 276.251 743.943 143.384 656.455 66.2629C568.969 -10.8383 436.001 -3.25369 357.78 82.6729Z" fill="url(#paint10_radial_1_318)" fill-opacity="0.2"/>
</g>
<defs>
<filter id="filter0_dd_1_318" x="0.653076" y="13.0017" width="732.054" height="676.998" filterUnits="userSpaceOnUse" color-interpolation-filters="sRGB">
<feFlood flood-opacity="0" result="BackgroundImageFix"/>
<feColorMatrix in="SourceAlpha" type="matrix" values="0 0 0 0 0 0 0 0 0 0 0 0 0 0 0 0 0 0 127 0" result="hardAlpha"/>
<feOffset dy="4"/>
<feGaussianBlur stdDeviation="2"/>
<feComposite in2="hardAlpha" operator="out"/>
<feColorMatrix type="matrix" values="0 0 0 0 0 0 0 0 0 0 0 0 0 0 0 0 0 0 0.25 0"/>
<feBlend mode="normal" in2="BackgroundImageFix" result="effect1_dropShadow_1_318"/>
<feColorMatrix in="SourceAlpha" type="matrix" values="0 0 0 0 0 0 0 0 0 0 0 0 0 0 0 0 0 0 127 0" result="hardAlpha"/>
<feOffset dy="4"/>
<feGaussianBlur stdDeviation="2"/>
<feComposite in2="hardAlpha" operator="out"/>
<feColorMatrix type="matrix" values="0 0 0 0 0 0 0 0 0 0 0 0 0 0 0 0 0 0 0.25 0"/>
<feBlend mode="normal" in2="effect1_dropShadow_1_318" result="effect2_dropShadow_1_318"/>
<feBlend mode="normal" in="SourceGraphic" in2="effect2_dropShadow_1_318" result="shape"/>
</filter>
<linearGradient id="paint0_linear_1_318" x1="536.261" y1="70.9994" x2="507.115" y2="95.1928" gradientUnits="userSpaceOnUse">
<stop offset="0.17" stop-color="#0A30A3"/>
<stop offset="1" stop-color="white"/>
</linearGradient>
<radialGradient id="paint1_radial_1_318" cx="0" cy="0" r="1" gradientUnits="userSpaceOnUse" gradientTransform="translate(211.25 484.631) rotate(45.0153) scale(192.769 192.769)">
<stop stop-color="#5BC7CE"/>
<stop offset="0.11" stop-color="#4198C0"/>
<stop offset="0.23" stop-color="#296BB3"/>
<stop offset="0.34" stop-color="#184AAA"/>
<stop offset="0.43" stop-color="#0D37A5"/>
<stop offset="0.49" stop-color="#0A30A3"/>
<stop offset="1" stop-color="#00152A"/>
</radialGradient>
<radialGradient id="paint2_radial_1_318" cx="0" cy="0" r="1" gradientUnits="userSpaceOnUse" gradientTransform="translate(399.435 734.769) scale(284.796)">
<stop stop-color="#E5C33F"/>
<stop offset="0.03" stop-color="#E6BC3D"/>
<stop offset="0.25" stop-color="#F39332"/>
<stop offset="0.42" stop-color="#FC7A2B"/>
<stop offset="0.53" stop-color="#FF7129"/>
<stop offset="0.99" stop-color="#C73A16"/>
</radialGradient>
<linearGradient id="paint3_linear_1_318" x1="470.406" y1="237.388" x2="470.406" y2="240.279" gradientUnits="userSpaceOnUse">
<stop/>
<stop offset="0.29" stop-color="#030303"/>
<stop offset="0.53" stop-color="#0E0E0D"/>
<stop offset="0.75" stop-color="#1F1F1E"/>
<stop offset="0.96" stop-color="#373736"/>
<stop offset="1" stop-color="#3C3C3B"/>
</linearGradient>
<linearGradient id="paint4_linear_1_318" x1="486.784" y1="236.295" x2="486.784" y2="241.372" gradientUnits="userSpaceOnUse">
<stop/>
<stop offset="0.29" stop-color="#030303"/>
<stop offset="0.53" stop-color="#0E0E0D"/>
<stop offset="0.75" stop-color="#1F1F1E"/>
<stop offset="0.96" stop-color="#373736"/>
<stop offset="1" stop-color="#3C3C3B"/>
</linearGradient>
<linearGradient id="paint5_linear_1_318" x1="486.786" y1="235.403" x2="486.786" y2="241.485" gradientUnits="userSpaceOnUse">
<stop/>
<stop offset="0.08"/>
<stop offset="1"/>
</linearGradient>
<radialGradient id="paint6_radial_1_318" cx="0" cy="0" r="1" gradientUnits="userSpaceOnUse" gradientTransform="translate(486.786 238.834) scale(1.3876)">
<stop stop-color="#009FE3"/>
<stop offset="1" stop-color="#112754"/>
</radialGradient>
<linearGradient id="paint7_linear_1_318" x1="486.786" y1="236.699" x2="486.786" y2="239.191" gradientUnits="userSpaceOnUse">
<stop stop-color="white"/>
<stop offset="1" stop-color="#112754"/>
</linearGradient>
<linearGradient id="paint8_linear_1_318" x1="470.406" y1="226.192" x2="470.406" y2="248.694" gradientUnits="userSpaceOnUse">
<stop stop-color="white"/>
<stop offset="1"/>
</linearGradient>
<linearGradient id="paint9_linear_1_318" x1="402.412" y1="233" x2="561.567" y2="245.927" gradientUnits="userSpaceOnUse">
<stop stop-color="#0A30A3"/>
<stop offset="1" stop-color="#001447"/>
</linearGradient>
<radialGradient id="paint10_radial_1_318" cx="0" cy="0" r="1" gradientUnits="userSpaceOnUse" gradientTransform="translate(693.791 351.872) rotate(131.39) scale(1433.13)">
<stop stop-color="#5BC7CE"/>
<stop offset="0.11" stop-color="#4198C0"/>
<stop offset="0.23" stop-color="#296BB3"/>
<stop offset="0.34" stop-color="#184AAA"/>
<stop offset="0.43" stop-color="#0D37A5"/>
<stop offset="0.49" stop-color="#0A30A3"/>
<stop offset="1" stop-color="#00152A"/>
</radialGradient>
</defs>
</svg>
