<svg width="671" height="583" viewBox="0 0 671 583" fill="none" xmlns="http://www.w3.org/2000/svg">
<mask id="mask0_3_566" style="mask-type:alpha" maskUnits="userSpaceOnUse" x="9" y="0" width="580" height="393">
<path d="M205.5 1.5H425C514.746 1.5 587.5 74.2537 587.5 164V347C587.5 371.577 567.577 391.5 543 391.5H205.5C97.8045 391.5 10.5 304.196 10.5 196.5C10.5 88.8045 97.8045 1.5 205.5 1.5Z" fill="#D9D9D9" stroke="white" stroke-width="3"/>
</mask>
<g mask="url(#mask0_3_566)">
<path d="M489.668 380.746C494.424 402.634 483.604 409.945 484.069 431.789C484.505 452.82 478.775 474.752 476.594 496.059C475.677 504.91 476.376 520.767 474.965 529.677C472.696 544.211 468.071 551.725 465.846 566.084C463.33 582.668 458.967 599.222 455.258 615.602C455.258 615.602 452.059 619.846 442.169 620.645C434.898 621.227 423.539 616.518 423.539 616.518C422.419 594.528 422.085 572.218 422.085 550.533C422.085 539.792 423.728 528.107 424.993 517.105C425.831 510.505 426.249 503.86 426.244 497.207C425.735 472.354 415.991 441.673 412.297 414.261C410.292 398.951 409.742 383.486 410.654 368.072C429.88 366.953 468.667 371.037 489.668 380.746Z" fill="#2A354F"/>
<path d="M351.84 369.584C351.84 369.584 345.47 394.713 349.033 428.316C350.182 439.057 351.083 448.882 351.942 457.791C352.8 466.701 354.109 470.872 354.705 477.965C355.403 486.162 355.257 496.728 355.999 502.585C356.886 509.62 356.465 521.712 360.173 533.703C365.205 549.981 363.358 559.355 364.085 569.529C365.54 589.877 369.117 621.765 369.117 621.765C369.117 621.765 372.302 626.023 383.152 626.285C391.034 626.459 400.793 622.477 400.793 622.477C400.793 622.477 407.439 570.314 408.443 555.242C408.966 547.379 409.243 533.848 409.403 522.715C409.534 512.541 409.563 504.3 409.563 504.3C409.563 504.3 415.947 431.877 415.976 412.169C416.006 392.461 413.3 365.849 413.3 365.849L351.84 369.584Z" fill="#2A354F"/>
<path d="M406.77 370.339C406.77 370.339 405.156 386.588 405.156 392.504C405.156 398.419 406.261 404.335 408.457 406.297C410.654 408.259 417.184 409.756 417.184 409.756" stroke="#455977" stroke-miterlimit="10"/>
<path d="M413.882 369.845C413.882 369.845 412.341 421.659 415.846 435.452" stroke="#455977" stroke-miterlimit="10"/>
<path d="M349.266 374.22C349.266 374.22 374.993 378.377 395.921 380.281C411.308 381.734 425.43 379.118 443.493 374.685C460.145 370.601 479.4 371.43 479.4 371.43C478.964 364.846 477.946 349.425 477.946 343.815C478.412 284.225 488.708 221.292 480.986 200.044C478.077 192.079 441.937 180.699 414.493 180.699C387.049 180.699 350.909 192.079 348.015 200.044C340.292 221.292 350.589 284.225 351.04 343.815C351.127 349.425 349.702 367.651 349.266 374.22Z" fill="#B6AE66"/>
<path d="M444.816 186.164C442.315 177.589 421.736 178.49 414.537 179.086C407.338 178.49 386.759 177.632 384.257 186.164C381.348 195.974 389.682 206.599 414.537 206.599C439.391 206.599 447.681 195.974 444.816 186.164Z" fill="#3B8172"/>
<path d="M435.319 180.132C436.904 187.69 430.564 253.747 414.537 253.747C398.51 253.747 392.183 187.69 393.769 180.132" stroke="#FFD400" stroke-linecap="round" stroke-linejoin="round"/>
<path d="M414.478 265.185L415.54 253.965L408.792 270.81L417.053 268.659L415.991 279.879L422.739 263.02L414.478 265.185Z" fill="#FFD400"/>
<path d="M435.363 183.548L430.098 161.601C425.034 163.1 419.811 163.998 414.537 164.275C409.263 163.996 404.04 163.099 398.975 161.601L393.71 183.548C393.71 183.548 386.439 200.087 414.537 200.087C442.635 200.087 435.363 183.548 435.363 183.548Z" fill="#A96845"/>
<path d="M446.198 137.881C446.198 158.68 434.359 175.539 414.537 175.539C394.714 175.539 382.875 158.68 382.875 137.881C382.875 117.083 391.136 100.238 414.537 100.238C437.937 100.238 446.198 117.083 446.198 137.881Z" fill="#A96845"/>
<path d="M409.156 137.649C407.178 136.304 404.828 135.612 402.436 135.672C400.925 135.577 399.408 135.724 397.943 136.108C397.214 136.307 396.511 136.59 395.848 136.951C395.18 137.397 394.539 137.883 393.929 138.405C393.856 138.457 393.805 138.535 393.787 138.623C393.768 138.711 393.783 138.803 393.828 138.881C393.873 138.959 393.946 139.017 394.032 139.044C394.117 139.072 394.21 139.067 394.292 139.03C394.942 138.789 395.622 138.642 396.314 138.593C396.954 138.492 397.593 138.419 398.248 138.361C399.605 138.211 400.97 138.148 402.335 138.172C403.467 138.213 404.594 138.335 405.709 138.535C406.502 138.622 407.272 138.859 407.978 139.233C408.894 139.785 410.043 138.405 409.156 137.692V137.649Z" fill="#4E3835"/>
<path d="M421.154 139.189C421.838 138.829 422.582 138.597 423.35 138.506C424.488 138.293 425.64 138.166 426.797 138.128C428.127 138.106 429.458 138.165 430.782 138.303C431.436 138.303 432.076 138.448 432.716 138.535C433.442 138.582 434.157 138.733 434.839 138.986C434.921 139.023 435.014 139.028 435.1 139.001C435.186 138.973 435.258 138.915 435.303 138.837C435.349 138.76 435.363 138.668 435.345 138.58C435.326 138.492 435.276 138.414 435.203 138.361C434.618 137.872 434.006 137.416 433.37 136.995C432.712 136.631 432.014 136.344 431.291 136.137C429.794 135.736 428.242 135.579 426.695 135.672C424.304 135.612 421.953 136.304 419.976 137.649C419.103 138.361 420.223 139.742 421.154 139.189Z" fill="#4E3835"/>
<path d="M374.615 137.038C372.841 143.811 377.829 152.445 384.461 153.738C391.093 155.032 389.929 145.018 387.224 139.727C384.519 134.437 376.345 130.193 374.615 137.038Z" fill="#A96845"/>
<path d="M449.95 133.565C443.304 134.858 438.315 143.477 440.104 150.264C441.893 157.052 449.979 152.851 452.699 147.561C455.418 142.271 456.596 132.271 449.95 133.565Z" fill="#A96845"/>
<path d="M414.653 141.108C415.145 142.751 415.424 144.451 415.482 146.166C415.511 147.066 415.447 147.967 415.293 148.855C415.293 149.087 415.177 149.349 415.118 149.596L414.813 150.352L414.406 151.384C414.178 151.971 414.036 152.587 413.984 153.215L413.897 154.348C413.86 154.501 413.86 154.661 413.897 154.814C414.103 155.375 414.448 155.875 414.9 156.267C415.438 156.819 416.078 157.357 416.762 157.982C415.859 158.207 414.915 158.207 414.013 157.982C412.944 157.75 411.998 157.134 411.352 156.252C410.968 155.688 410.746 155.03 410.712 154.348C410.682 153.903 410.682 153.457 410.712 153.011C410.75 151.999 411.008 151.007 411.468 150.105C411.671 149.7 411.905 149.311 412.166 148.942L412.399 148.578C412.399 148.433 412.53 148.302 412.588 148.142C412.864 147.43 413.097 146.702 413.286 145.962C413.693 144.305 414.1 142.75 414.653 141.108Z" fill="#8B3B31"/>
<path d="M405.418 146.82C405.418 147.527 405.208 148.218 404.815 148.806C404.422 149.394 403.863 149.852 403.209 150.123C402.556 150.394 401.836 150.464 401.142 150.326C400.448 150.189 399.811 149.848 399.31 149.348C398.81 148.848 398.469 148.211 398.331 147.517C398.193 146.824 398.264 146.105 398.535 145.452C398.806 144.798 399.264 144.24 399.852 143.847C400.441 143.454 401.133 143.244 401.84 143.244C402.789 143.244 403.699 143.621 404.37 144.292C405.041 144.962 405.418 145.872 405.418 146.82Z" fill="#331831"/>
<path d="M423.67 146.863C423.639 147.351 423.708 147.84 423.873 148.3C424.039 148.76 424.297 149.181 424.631 149.537C424.966 149.894 425.37 150.178 425.819 150.372C426.268 150.566 426.751 150.667 427.24 150.667C427.729 150.667 428.213 150.566 428.662 150.372C429.111 150.178 429.515 149.894 429.85 149.537C430.184 149.181 430.442 148.76 430.607 148.3C430.773 147.84 430.842 147.351 430.811 146.863C430.842 146.376 430.773 145.887 430.607 145.427C430.442 144.967 430.184 144.546 429.85 144.189C429.515 143.833 429.111 143.549 428.662 143.354C428.213 143.16 427.729 143.06 427.24 143.06C426.751 143.06 426.268 143.16 425.819 143.354C425.37 143.549 424.966 143.833 424.631 144.189C424.297 144.546 424.039 144.967 423.873 145.427C423.708 145.887 423.639 146.376 423.67 146.863Z" fill="#331831"/>
<path d="M449.237 120.717C449.674 117.664 444.438 111.56 444.438 111.56C444.438 111.56 443.565 103.276 440.075 100.674C436.146 97.4662 431.777 94.8379 427.102 92.8693C422.186 91.0816 416.267 94.657 412.559 92.8693C408.196 90.6892 402.087 90.2532 399.92 92.4333C397.753 94.6134 396.401 98.0435 394.685 98.9737C392.969 99.9038 389.013 101.139 386.395 102.883C383.777 104.627 383.21 108.944 382.468 112.476C381.727 116.008 378.193 115.804 378.193 120.702C378.193 122.795 379.85 128.609 380.723 131.661C381.596 134.713 380.898 141.617 382.774 142.561C386.031 144.189 388.242 132.533 389.885 128.609C391.529 124.684 399.92 132.097 405.142 128.173C410.363 124.248 416.049 129.045 421.285 126.865C426.52 124.684 426.084 117.272 429.575 116.4C433.065 115.528 431.32 116.836 435.247 119.016C439.173 121.196 435.683 128.173 438.301 132.097C440.918 136.021 440.802 145.861 443.958 142.561C445.761 140.657 446.547 134.306 447.012 129.481C447.405 125.818 448.786 123.769 449.237 120.717Z" fill="#4E3835"/>
<path d="M407.803 163.868C407.803 163.868 422.637 166.921 426.128 158.2" stroke="#8B3B31" stroke-width="1.15" stroke-miterlimit="10"/>
<path d="M397.739 172.095C402.567 175.002 406.465 177.385 414.537 177.385C422.608 177.385 426.52 175.06 431.334 172.095" stroke="#8B3B31" stroke-width="1.15" stroke-miterlimit="10"/>
<path d="M356.246 191.512C356.246 191.512 344.117 192.442 343.652 216.22C343.186 239.998 348.32 301.041 346.982 318.714C345.644 336.388 348.437 371.386 346.517 378.377C344.597 385.368 355.388 393.289 354.458 400.28C353.527 407.271 356.319 410.076 359.111 411.006C361.904 411.936 383.37 404.015 383.835 396.079C384.301 388.144 394.089 323.845 396.43 308.453C398.771 293.062 389.9 234.33 384.301 221.249C378.702 208.168 373.568 193.285 368.448 192.355C364.407 191.774 360.329 191.493 356.246 191.512Z" fill="#483966"/>
<path d="M388.896 181.716C388.896 181.716 387.02 175.656 380.49 179.856C373.96 184.056 375.836 184.042 364.173 186.382C352.509 188.722 352.974 192.907 352.974 192.907C352.974 192.907 362.311 193.373 369.306 203.619C376.792 214.542 381.878 226.925 384.228 239.954C386.987 256.62 388.856 273.421 389.827 290.286C390.293 303.367 384.228 358.814 381.436 368.595C378.643 378.377 381.901 399.829 381.901 399.829C381.901 399.829 390.293 386.749 392.62 371.866C394.947 356.983 403.353 333.176 402.887 313.598C402.422 294.021 389.798 229.693 386.555 218.517C383.312 207.34 388.896 181.716 388.896 181.716Z" fill="#664A86"/>
<path d="M472.841 191.512C472.841 191.512 484.956 192.442 485.421 216.22C485.887 239.998 480.782 301.041 482.236 318.715C483.691 336.388 480.782 371.386 482.702 378.377C484.622 385.368 470.151 388.551 471.067 395.614C471.983 402.678 465.933 403.55 463.141 404.48C460.349 405.41 445.834 404.015 445.369 396.079C444.903 388.144 435.057 323.889 432.789 308.541C430.52 293.193 439.319 234.417 444.918 221.336C450.517 208.255 455.651 193.373 460.785 192.442C464.776 191.839 468.805 191.529 472.841 191.512Z" fill="#483966"/>
<path d="M440.191 181.716C440.191 181.716 442.053 175.656 448.583 179.856C455.113 184.056 453.251 184.042 464.901 186.382C476.55 188.722 476.099 192.907 476.099 192.907C476.099 192.907 466.777 193.373 459.781 203.619C452.297 214.544 447.207 226.926 444.845 239.954C442.093 256.621 440.224 273.422 439.246 290.286C438.781 303.367 444.845 358.814 447.652 368.595C450.459 378.377 447.187 399.829 447.187 399.829C447.187 399.829 438.781 386.749 436.454 371.866C434.127 356.983 425.721 333.176 426.186 313.598C426.651 294.021 439.275 229.693 442.518 218.517C445.761 207.34 440.191 181.716 440.191 181.716Z" fill="#664A86"/>
<path d="M351.607 195.175C346.008 197.965 327.814 216.147 324.091 255.302C320.368 294.457 312.892 314.5 320.353 326.156C327.814 337.812 345.077 340.603 351.607 337.783C358.137 334.964 374.688 302.814 377.785 296.288C380.958 289.15 383.31 281.676 384.795 274.008C385.726 267.947 390.395 263.514 390.395 258.631C390.395 253.747 377.305 239.983 377.305 239.983C377.305 239.983 371.706 236.248 369.365 241.844C367.023 247.439 369.365 223.662 365.642 212.95C361.918 202.238 357.163 192.442 351.607 195.175Z" fill="#483966"/>
<path d="M365.598 212.95C365.598 212.95 368.39 236.713 367.459 241.378" stroke="#70528D" stroke-miterlimit="10"/>
<path d="M335.74 279.138C335.74 279.138 351.607 264.691 356.741 260.956C359.301 259.095 361.453 254.895 363.271 250.884C365.089 246.872 366.529 243.006 367.634 241.844C369.976 239.518 371.997 238.123 375.793 239.983" stroke="#70528D" stroke-miterlimit="10"/>
<path d="M364.667 254.43C364.667 254.43 369.03 268.179 385.653 268.179" stroke="#70528D" stroke-miterlimit="10"/>
<path d="M333.413 270.752C333.413 270.752 343.215 262.351 351.607 264.691" stroke="#70528D" stroke-miterlimit="10"/>
<path d="M352.073 337.87C352.073 337.87 367.46 325.284 373.99 305.706C380.52 286.129 386.119 270.752 386.119 270.752" stroke="#70528D" stroke-miterlimit="10"/>
<path d="M481.029 200.058C481.029 200.058 491.064 201.061 507.848 247.207C524.631 293.352 520.442 315.72 516.254 326.214C513.607 332.827 508.982 359.846 505.055 371.429C502.772 378.217 498.787 379.874 498.525 381.603C497.691 386.062 496.118 390.35 493.871 394.292C492.326 395.825 490.298 396.779 488.13 396.991C485.963 397.202 483.788 396.66 481.975 395.454C477.946 393.043 473.74 390.94 469.395 389.161C469.395 389.161 470.98 204.636 481.029 200.058Z" fill="#483966"/>
<path d="M485 229.722C485 229.722 482.673 249.765 483.138 260.491C483.604 271.217 483.138 301.041 484.593 313.162C486.047 325.284 484.593 350.951 484.593 363.029C484.593 375.107 477.597 377.025 477.132 382.141C476.666 387.257 475.677 392.402 475.677 392.402" stroke="#70528D" stroke-miterlimit="10"/>
<path d="M477.539 223.196C480.847 235.21 482.726 247.572 483.138 260.026" stroke="#70528D" stroke-miterlimit="10"/>
<path d="M491.995 278.673C491.995 278.673 483.604 294.515 483.604 304.834" stroke="#70528D" stroke-miterlimit="10"/>
<path d="M484.534 372.36C484.534 372.36 493.857 373.29 496.664 379.816" stroke="#70528D" stroke-miterlimit="10"/>
<path d="M428.775 196.526H401.375C400.202 196.526 399.251 197.476 399.251 198.648V246.567C399.251 247.739 400.202 248.689 401.375 248.689H428.775C429.947 248.689 430.898 247.739 430.898 246.567V198.648C430.898 197.476 429.947 196.526 428.775 196.526Z" fill="#292929"/>
<path d="M375.691 241.684C375.691 241.684 379.618 231.336 380.738 227.702C381.857 224.068 389.958 217.383 392.881 214.825C397.192 211.162 402.531 208.922 408.167 208.415C414.973 207.703 417.402 209.869 416.893 212.049C416.384 214.229 411.541 214.374 408.167 215.493C404.793 216.612 401.026 220.9 401.026 220.9C404.48 219.516 408.022 218.36 411.628 217.441C415.087 216.707 418.694 217.222 421.808 218.894C422.241 219.079 422.614 219.378 422.891 219.758C423.167 220.139 423.334 220.587 423.376 221.055C423.418 221.523 423.332 221.993 423.128 222.416C422.923 222.84 422.608 223.2 422.216 223.458C422.216 223.458 424.455 225.972 423.67 227.935C422.885 229.897 421.43 230.158 419.191 231.277C419.191 231.277 421.983 232.731 421.154 235.202C420.325 237.672 415.831 237.164 413.882 237.716C411.933 238.268 407.454 238.559 406.058 241.626C403.907 245.895 400.562 249.45 396.43 251.858C393.116 253.718 389.527 255.043 385.799 255.782C384.926 255.724 376.258 247.323 375.691 241.684Z" fill="#A96845"/>
<path d="M399.455 227.644C399.455 227.644 412.879 222.891 415.7 222.891C417.866 222.953 420.025 223.177 422.157 223.56" stroke="#8B3B31" stroke-width="1.15" stroke-miterlimit="10"/>
<path d="M402.058 234.998C402.058 234.998 410.072 230.638 412.879 230.638C415.044 230.697 417.202 230.916 419.336 231.292" stroke="#8B3B31" stroke-width="1.15" stroke-miterlimit="10"/>
<path d="M397.521 222.237L400.982 220.944" stroke="#8B3B31" stroke-width="1.15" stroke-miterlimit="10"/>
<path d="M477.539 384.016C477.539 384.016 493.391 385.876 492.926 393.332C492.46 400.788 489.668 404.96 486.396 405.454C483.124 405.948 474.267 402.184 471.009 399.393C467.751 396.603 475.197 385.876 477.539 384.016Z" fill="#A96845"/>
<path d="M237.775 499.126C237.775 499.126 231.318 466.788 227.828 450.35C219.916 413.012 214.55 366.837 220.92 361.692C236.51 348.916 274.599 353.349 280.213 361.488C285.245 368.755 290.83 462.98 285.813 498.109C287.151 527.09 271.269 610.225 271.269 610.225C265.754 613.379 259.487 614.986 253.133 614.875C246.84 614.684 240.602 613.638 234.59 611.765C234.59 611.765 230.111 533.412 231.478 523.819C232.845 514.227 237.775 499.126 237.775 499.126Z" fill="#4F4656"/>
<path d="M259.387 436.44C268.839 434.259 278.174 431.596 287.354 428.461C286.234 396.486 283.136 365.63 280.228 361.415C274.614 353.276 236.525 348.843 220.934 361.619C214.564 366.837 219.93 413.011 227.842 450.277C229.296 457.384 232.394 473.168 234.256 480.798C240.204 452.53 247.578 438.897 259.387 436.44Z" fill="#433A4C"/>
<path d="M212.135 510.565C213.822 509.024 220.716 480.552 227.857 455.204C231.318 442.937 237.848 417.328 237.848 417.328C237.848 417.328 243.564 407.707 247.039 400.585C252.857 388.638 256.333 370.979 256.333 370.979L174.162 354.992C174.162 354.992 164.418 372.898 164.156 393.609C163.735 430.627 167.589 503.297 167.589 503.297C167.589 503.297 207.918 514.445 212.135 510.565Z" fill="#4F4656"/>
<path d="M273.887 252.541C273.887 252.541 267.269 318.09 277.842 318.09C288.416 318.09 293.346 309.805 296.225 297.567C299.105 285.33 298.625 267.845 298.625 267.845L273.887 252.541Z" fill="#FFA98B"/>
<path d="M226.068 185.321C238.502 186.89 266.077 190.567 279.966 202.529C284.896 206.787 289.739 210.043 292.255 217.615C294.771 225.188 299.527 234.896 298.072 243.908C297.36 248.268 286.438 246.466 286.438 246.466C286.438 246.466 281.74 286.231 280.824 296.841C279.951 307.131 284.358 325.168 285.274 338.99C285.783 346.693 287.674 350.515 286.729 356.75C285.783 362.985 292.982 367.796 287.688 374.525C283.965 379.249 254.544 388.449 235.332 386.531C219.567 384.946 207.219 384.307 196.414 379.801C178.394 372.287 168.548 376.444 164.709 374.525C160.869 372.607 165.174 322.203 165.174 310.663C165.174 299.123 163.007 256.538 161.335 244.402C159.662 232.266 161.975 208.255 172.461 199.215C182.946 190.175 209.212 183.199 226.068 185.321Z" fill="#BD8D88"/>
<path d="M260.783 178.824L258.602 197.718C258.602 197.718 254.908 207.005 239.273 203.721C228.7 201.512 221.399 185.074 221.399 185.074L230.693 164.726L260.783 178.824Z" fill="#FFA98B"/>
<path d="M281.537 121.429C285.347 120.731 288.91 128.202 286.103 140.715C283.442 152.503 270.396 155.54 270.396 155.54C270.396 155.54 277.77 122.141 281.537 121.429Z" fill="#C74601"/>
<path d="M222.083 120.31C222.083 120.31 216.265 127.155 216.542 134.19C216.76 141.457 219.189 140.003 220.905 145.25C222.621 150.497 222.476 157.749 223.814 160.918C225.937 166.223 229.078 167.894 233.034 168.185C239.346 168.723 231.303 124.728 231.303 124.728L222.083 120.31Z" fill="#C74601"/>
<path d="M281.115 135.861C283.253 153.84 277.363 178.853 261.234 183.693C245.105 188.533 227.857 178.475 225.603 149.145C223.348 119.815 241.935 111.996 249.454 112.229C255.359 112.432 278.963 117.868 281.115 135.861Z" fill="#FFA98B"/>
<path d="M230.751 143.143C230.62 137.562 221.167 132.969 218.389 138.971C215.611 144.974 219.378 153.753 225.922 155.845C232.467 157.938 230.867 148.666 230.751 143.143Z" fill="#FFA98B"/>
<path d="M251.49 151.006C251.547 151.635 251.789 152.234 252.186 152.725C252.583 153.217 253.117 153.58 253.721 153.769C254.324 153.958 254.97 153.964 255.577 153.786C256.184 153.608 256.724 153.254 257.13 152.77C257.536 152.285 257.789 151.691 257.857 151.063C257.925 150.434 257.806 149.8 257.514 149.24C257.221 148.679 256.769 148.218 256.215 147.914C255.661 147.61 255.028 147.477 254.399 147.532C253.979 147.569 253.571 147.688 253.198 147.882C252.824 148.077 252.493 148.343 252.223 148.665C251.952 148.988 251.749 149.361 251.623 149.763C251.497 150.164 251.452 150.587 251.49 151.006Z" fill="#520E03"/>
<path d="M272.447 157.11C272.519 157.495 272.672 157.861 272.897 158.182C273.121 158.503 273.412 158.773 273.75 158.973C274.087 159.172 274.463 159.297 274.853 159.34C275.243 159.382 275.638 159.34 276.01 159.217C276.795 158.931 277.449 158.369 277.85 157.636C278.252 156.904 278.373 156.05 278.192 155.235C278.12 154.85 277.967 154.484 277.742 154.163C277.518 153.842 277.227 153.572 276.889 153.372C276.552 153.173 276.175 153.048 275.785 153.005C275.395 152.963 275.001 153.005 274.629 153.128C273.844 153.414 273.19 153.976 272.788 154.709C272.387 155.441 272.266 156.295 272.447 157.11Z" fill="#520E03"/>
<path d="M282.191 149.785C281.599 148.854 280.771 148.097 279.791 147.59C278.835 147.041 277.773 146.7 276.675 146.589C275.577 146.479 274.468 146.602 273.421 146.951C273.183 147.022 272.974 147.168 272.825 147.367C272.676 147.565 272.594 147.807 272.592 148.055C272.581 148.207 272.606 148.36 272.664 148.501C272.722 148.643 272.812 148.768 272.927 148.869C273.067 149.014 273.244 149.117 273.439 149.168C273.634 149.22 273.839 149.217 274.032 149.16C274.309 149.067 274.59 148.989 274.876 148.927L275.225 148.855H275.443H276.097H276.461C276.461 148.855 276.883 148.855 276.621 148.855C277.035 148.922 277.443 149.019 277.843 149.145L278.148 149.262C278.148 149.262 278.497 149.407 278.25 149.262L278.759 149.509C279.066 149.669 279.362 149.848 279.646 150.046L279.966 150.279L280.271 150.497L280.722 150.788C281.057 151.035 280.824 150.788 280.722 150.788C280.868 150.956 281.072 151.063 281.294 151.086C281.516 151.108 281.738 151.045 281.915 150.909C282.091 150.774 282.209 150.576 282.245 150.356C282.28 150.136 282.229 149.911 282.104 149.727L282.191 149.785Z" fill="#C74601"/>
<path d="M262.179 145.018C260.919 143.468 259.134 142.434 257.162 142.111C254.967 141.466 252.654 141.331 250.399 141.718C250.158 141.787 249.946 141.932 249.794 142.131C249.642 142.33 249.559 142.573 249.556 142.823C249.556 142.576 249.556 143.041 249.556 143.114C249.601 143.215 249.654 143.312 249.716 143.404C249.846 143.62 250.042 143.787 250.276 143.882C250.509 143.976 250.767 143.992 251.01 143.928C252.841 143.665 254.705 143.774 256.493 144.247C257.361 144.442 258.208 144.719 259.023 145.076C259.377 145.252 259.722 145.446 260.056 145.657C260.324 145.79 260.578 145.951 260.812 146.137C260.963 146.286 261.163 146.376 261.374 146.389C261.586 146.402 261.795 146.337 261.963 146.207C262.13 146.077 262.245 145.89 262.285 145.682C262.324 145.474 262.287 145.258 262.179 145.076V145.018Z" fill="#C74601"/>
<path d="M258.267 184.158C258.267 184.158 249.919 184.899 244.916 182.486C240.819 180.407 237.042 177.749 233.703 174.594" stroke="#C6715C" stroke-miterlimit="10"/>
<path d="M267.444 171.586C264.15 170.971 260.981 169.817 258.064 168.17C254.34 165.758 251.606 162.037 249.512 163.81C247.418 165.583 247.694 171.6 254.529 174.74C260.449 177.443 266.586 173.737 267.444 171.586Z" fill="white"/>
<path d="M279.297 110.964C273.583 105.07 266.276 100.964 258.267 99.1479C253.017 98.1887 245.178 104.06 245.178 104.06C242.476 103.244 239.609 103.141 236.856 103.763C234.103 104.384 231.559 105.709 229.471 107.607C221.836 114.176 218.549 128.507 218.549 128.507C221.269 130.645 223.588 133.248 225.399 136.195C228.453 141.122 227.813 148.578 230.314 151.703C232.816 154.828 234.27 143.419 234.27 143.419C234.27 143.419 245.731 131.225 249.541 123.333C254.95 124.828 260.259 126.663 265.437 128.827C271.094 131.472 279.035 128.827 283.18 128.361C287.325 127.896 281.537 113.173 279.297 110.964Z" fill="#C74601"/>
<path d="M271.662 149.131C272.345 151.398 272.752 153.665 273.203 155.846C273.319 156.383 273.45 156.907 273.567 157.401C273.683 157.895 273.872 158.331 274.076 158.854C274.502 159.973 274.852 161.119 275.123 162.284C275.464 163.666 275.413 165.115 274.977 166.47C274.689 167.261 274.185 167.956 273.523 168.476C272.939 168.894 272.291 169.213 271.603 169.42C270.352 169.764 269.038 169.814 267.764 169.566C266.559 169.375 265.406 168.94 264.375 168.287C266.53 168.227 268.656 167.769 270.643 166.935C271.018 166.732 271.369 166.488 271.691 166.208C271.913 166.004 272.074 165.743 272.156 165.453C272.352 164.606 272.352 163.726 272.156 162.88C271.967 161.877 271.662 160.845 271.356 159.741C271.172 159.142 271.036 158.53 270.949 157.909C270.865 157.303 270.831 156.69 270.847 156.078C270.814 153.737 271.088 151.401 271.662 149.131Z" fill="#D57961"/>
<path d="M261.481 99.0172C240.451 95.3546 222.883 102.636 218.752 124.946C230.695 129.178 242.868 132.73 255.213 135.585C273.509 139.625 286.292 141.835 288.561 137.881C288.561 137.896 288.808 103.784 261.481 99.0172ZM270.905 132.78C265.917 132.097 258.863 130.411 258.863 130.411C258.863 130.411 259.474 117.534 270.222 119.234C280.969 120.935 280.708 127.577 280.693 133.027C277.43 133.271 274.151 133.188 270.905 132.78Z" fill="#065C97"/>
<path d="M226.271 127.577C226.271 127.577 209.706 129.771 207.365 123.027C204.616 115.077 217.545 114.423 222.01 114.22C222.025 114.22 219 123.958 226.271 127.577Z" fill="#06455E"/>
<path d="M285.9 237.135C285.9 237.135 278.468 233.254 274.934 237.135C271.4 241.015 266.441 247.047 271.036 249.518C275.632 251.988 284.082 239.257 285.9 237.135Z" fill="#FFA98B"/>
<path d="M311.002 239.94C311.002 239.94 316.048 244.62 312.456 248.079C311.75 248.655 310.921 249.062 310.033 249.269C309.145 249.476 308.221 249.477 307.333 249.272C306.444 249.067 305.614 248.662 304.907 248.088C304.199 247.513 303.632 246.784 303.25 245.957C302.145 242.774 307.104 237.469 311.002 239.94Z" fill="#FFA98B"/>
<path d="M318.375 228.298L292.662 228.603C292.06 228.654 291.484 228.869 290.997 229.225C290.509 229.582 290.129 230.066 289.899 230.623L264.084 260.913C263.663 262.017 264.201 262.904 265.306 262.889L291.019 262.569C291.619 262.519 292.193 262.305 292.68 261.951C293.167 261.598 293.548 261.118 293.782 260.564L319.597 230.26C320.019 229.156 319.48 228.283 318.375 228.298Z" fill="#292929"/>
<path d="M301.476 250.811C298.653 251.685 295.702 252.073 292.75 251.959C289.696 251.567 283.238 249.678 281.726 252.337C280.213 254.997 284.387 258.412 284.387 258.412C284.387 258.412 276.403 257.279 275.661 260.694C275.539 261.121 275.513 261.57 275.587 262.008C275.66 262.446 275.831 262.862 276.086 263.226C276.341 263.589 276.674 263.891 277.061 264.11C277.448 264.328 277.879 264.457 278.322 264.488C278.322 264.488 275.283 266.77 276.868 269.807C278.453 272.845 289.405 272.845 293.215 272.089C297.025 271.333 300.05 270.185 300.487 269.051C300.627 267.899 300.497 266.73 300.109 265.636C300.811 265.713 301.516 265.52 302.08 265.096C302.645 264.672 303.027 264.049 303.148 263.354C303.613 261.868 303.613 260.276 303.148 258.79C303.889 258.353 304.516 257.748 304.978 257.023C305.441 256.298 305.726 255.475 305.81 254.619C305.945 252.172 305.69 249.719 305.053 247.352C305.053 247.352 302.988 250.404 301.476 250.811Z" fill="#FFA98B"/>
<path d="M284.445 258.413C284.445 258.413 295.164 261.319 302.232 258.602" stroke="#C6715C" stroke-miterlimit="10"/>
<path d="M278.628 265.244C282.68 265.985 286.775 266.471 290.888 266.697C293.928 266.884 296.977 266.525 299.89 265.636" stroke="#C6715C" stroke-miterlimit="10"/>
<path d="M283.602 273.077C283.602 273.077 295.862 273.79 297.665 271.275" stroke="#C6715C" stroke-miterlimit="10"/>
<path d="M290.016 259.953C288.43 258.747 286.103 258.921 282.744 258.936C279.811 258.905 276.888 258.584 274.018 257.977C274.018 257.977 285.042 255.433 287.194 255.433C289.347 255.433 293.68 251.465 290.437 248.588C287.194 245.71 274.585 248.588 274.585 248.588C274.585 248.588 274.585 245.928 268.462 245.347C262.339 244.765 256.536 245.027 252.61 247.701C248.683 250.375 242.895 257.599 237.121 259.808C234.983 260.636 231.304 263.703 226.664 264.43C222.025 265.156 210.448 268.034 210.448 268.034C210.448 268.034 207.54 258.674 206.085 253.268C204.775 248.86 203.212 244.531 201.402 240.303L183.267 245.463C176.84 247.41 170.819 250.502 165.494 254.59C165.494 254.59 168.854 286.275 176.533 299.719C184.212 313.163 196.487 313.163 206.085 310.532C215.684 307.901 238.604 289.181 245.731 282.801C252.107 283.148 258.497 282.431 264.637 280.679C266.935 279.981 268.913 280.141 270.455 278.659C271.524 277.484 272.496 276.225 273.363 274.894C275.051 274.4 276.564 273.438 277.726 272.118C278.715 270.72 279.467 269.168 279.951 267.526C279.951 267.526 284.809 266.508 286.176 265.956C291.615 263.79 291.615 261.174 290.016 259.953Z" fill="#FFA98B"/>
<path d="M258.354 252.991C263.886 250.584 269.733 248.979 275.719 248.224" stroke="#C6715C" stroke-miterlimit="10"/>
<path d="M263.779 266.523C269.266 267.023 274.777 267.222 280.286 267.118C280.286 267.118 290.088 266.159 290.088 262.264C290.088 258.369 286.205 258.006 284.082 258.354C281.241 258.516 278.393 258.472 275.559 258.224C270.338 259.314 263.924 260.069 263.924 260.069" stroke="#C6715C" stroke-miterlimit="10"/>
<path d="M261.568 273.964C265.259 274.566 269.003 274.776 272.738 274.589C274.629 274.311 276.381 273.436 277.739 272.092C279.097 270.748 279.99 269.005 280.286 267.118" stroke="#C6715C" stroke-miterlimit="10"/>
<path d="M283.253 256.509C283.253 256.509 290.815 255.433 291.542 251.829" stroke="#C6715C" stroke-miterlimit="10"/>
<path d="M196.399 273.79C200.844 271.487 205.418 269.444 210.099 267.671" stroke="#C6715C" stroke-miterlimit="10"/>
<path d="M214.055 370.674C214.055 370.674 236.161 373.58 256.347 371.153C276.534 368.726 283.733 362.026 283.733 362.026" stroke="#976457" stroke-miterlimit="10"/>
<path d="M168.897 363.465C168.897 363.465 187.15 363.465 199.642 368.261" stroke="#976457" stroke-miterlimit="10"/>
<path d="M241.935 365.384C241.935 365.384 278.919 365.863 283.253 337.057" stroke="#976457" stroke-miterlimit="10"/>
<path d="M198.639 342.812C198.639 342.812 230.838 353.378 254.864 350.079" stroke="#976457" stroke-miterlimit="10"/>
<path d="M215.495 186.76C215.495 186.76 221.443 204.302 235.681 209.811C250.573 215.624 258.747 207.892 260.667 203.081C262.586 198.271 260.667 192.53 260.667 192.53" stroke="#976457" stroke-miterlimit="10"/>
</g>
<path d="M377.939 424.469L319.099 360.988C264.264 409.18 180.724 405.194 130.78 351.354C80.8372 297.514 83.2354 213.872 135.443 162.847L76.6031 99.3658C-10.6655 182.888 -15.0583 321.256 67.3416 410.155C149.741 499.054 288.044 505.158 377.939 424.469Z" fill="#FF9149"/>
<path d="M648.345 285.973C660.771 307.499 655.825 333.624 637.301 344.305L258.547 562.982C240.019 573.682 214.925 564.905 202.499 543.378C190.073 521.851 195.019 495.726 213.543 485.045L592.297 266.368C610.825 255.669 635.919 264.446 648.327 285.966L648.345 285.973Z" fill="url(#paint0_linear_3_566)"/>
<path d="M301.54 491.146C300.164 488.901 297.229 488.196 294.984 489.572C292.739 490.948 292.034 493.883 293.41 496.128C294.786 498.373 297.721 499.078 299.966 497.702C302.212 496.326 302.916 493.391 301.54 491.146Z" fill="#001447"/>
<path d="M337.557 469.073C336.182 466.828 333.247 466.123 331.001 467.499C328.756 468.875 328.052 471.81 329.427 474.055C330.803 476.301 333.738 477.005 335.984 475.629C338.229 474.253 338.933 471.318 337.557 469.073Z" fill="#001447"/>
<path d="M373.556 446.996C372.18 444.75 369.245 444.046 367 445.422C364.754 446.798 364.05 449.733 365.426 451.978C366.802 454.223 369.737 454.928 371.982 453.552C374.227 452.176 374.932 449.241 373.556 446.996Z" fill="#001447"/>
<path d="M409.57 424.942C408.194 422.697 405.259 421.992 403.013 423.368C400.768 424.744 400.064 427.679 401.44 429.924C402.816 432.169 405.751 432.874 407.996 431.498C410.241 430.122 410.945 427.187 409.57 424.942Z" fill="#001447"/>
<path d="M437.457 407.851C438.833 410.097 441.768 410.801 444.013 409.425C446.258 408.049 446.963 405.114 445.587 402.869C444.211 400.624 441.276 399.919 439.031 401.295C436.786 402.671 436.081 405.606 437.457 407.851Z" fill="#001447"/>
<defs>
<linearGradient id="paint0_linear_3_566" x1="184.983" y1="499.933" x2="614.226" y2="259.508" gradientUnits="userSpaceOnUse">
<stop stop-color="#55F5FF"/>
<stop offset="0.5" stop-color="#598DF2"/>
<stop offset="1" stop-color="#3768E8"/>
</linearGradient>
</defs>
</svg>
