<svg width="161" height="80" viewBox="0 0 161 80" fill="none" xmlns="http://www.w3.org/2000/svg">
<path d="M136.62 23.214L23.214 136.62C23.3904 136.796 23.5472 136.992 23.7236 137.168C23.9 137.345 24.096 137.502 24.2724 137.678L137.678 24.2724C137.502 24.096 137.345 23.9 137.168 23.7236C136.992 23.5472 136.796 23.3904 136.62 23.214Z" fill="#FF9149"/>
<path d="M48.4195 153.966C48.9095 154.181 49.3995 154.397 49.9091 154.612L154.632 49.8896C154.436 49.3996 154.201 48.9096 153.985 48.4L48.4195 153.966Z" fill="#FF9149"/>
<path d="M28.7412 141.716C29.1332 142.049 29.5057 142.382 29.8977 142.696L142.715 29.8779C142.402 29.4859 142.068 29.1136 141.735 28.7216L28.7412 141.716Z" fill="#FF9149"/>
<path d="M34.7585 146.341C35.1701 146.635 35.5817 146.929 36.0129 147.223L147.223 36.0128C146.949 35.5816 146.635 35.17 146.341 34.7584L34.7389 146.361L34.7585 146.341Z" fill="#FF9149"/>
<path d="M56.142 156.866C56.6712 157.043 57.22 157.219 57.7492 157.376L157.376 57.7492C157.219 57.2004 157.043 56.6712 156.866 56.142L56.142 156.866Z" fill="#FF9149"/>
<path d="M41.3049 150.438C41.7557 150.692 42.2064 150.947 42.6768 151.202L151.222 42.6572C150.967 42.2064 150.712 41.7556 150.457 41.2852L41.3049 150.438Z" fill="#FF9149"/>
<path d="M76.526 0.321214C75.7616 0.360418 74.9972 0.419191 74.2328 0.477992L0.517162 74.1936C0.458362 74.958 0.399649 75.7224 0.360449 76.4868L76.5456 0.301599L76.526 0.321214Z" fill="#FF9149"/>
<path d="M160.512 75.8988C160.473 75.2324 160.414 74.566 160.375 73.9192L73.9388 160.355C74.6052 160.414 75.2521 160.453 75.9185 160.492L160.512 75.8988Z" fill="#FF9149"/>
<path d="M2.47712 61.5908C2.26152 62.4924 2.06554 63.4136 1.88914 64.3152L64.3348 1.86965C63.4332 2.04605 62.512 2.24202 61.6104 2.45762L2.47712 61.5908Z" fill="#FF9149"/>
<path d="M64.5896 159.062C65.1776 159.179 65.7853 159.277 66.3929 159.395L159.395 66.3928C159.297 65.7852 159.179 65.1972 159.062 64.5896L64.5896 159.062Z" fill="#FF9149"/>
<path d="M8.55323 44.8916C7.90643 46.1852 7.29884 47.518 6.73044 48.8312L48.8508 6.71078C47.518 7.27918 46.2048 7.88682 44.9112 8.53362L8.55323 44.8916Z" fill="#FF9149"/>
<path d="M0.380053 84.9737C0.419253 85.6401 0.477949 86.3064 0.517149 86.9532L86.9532 0.517288C86.2868 0.45849 85.6204 0.419263 84.9736 0.380066L0.380053 84.9737Z" fill="#FF9149"/>
<path d="M1.49718 94.4992C1.59517 95.1068 1.71286 95.6948 1.83046 96.3024L96.3025 1.83036C95.7145 1.71276 95.1068 1.6148 94.4992 1.4972L1.49718 94.4992Z" fill="#FF9149"/>
<path d="M96.5572 159.003C97.4588 158.826 98.38 158.63 99.2816 158.415L158.415 99.2816C158.631 98.38 158.826 97.4784 159.003 96.5572L96.5572 159.003Z" fill="#FF9149"/>
<path d="M18.1767 130.994C18.4903 131.386 18.8235 131.759 19.1567 132.151L132.151 19.1568C131.759 18.8236 131.386 18.4904 130.994 18.1768L18.1767 130.994Z" fill="#FF9149"/>
<path d="M84.3857 160.532C85.15 160.492 85.9144 160.434 86.6788 160.375L160.394 86.6592C160.453 85.8948 160.512 85.1304 160.551 84.3661L84.366 160.551L84.3857 160.532Z" fill="#FF9149"/>
<path d="M152.339 115.981C152.986 114.687 153.593 113.354 154.162 112.041L112.041 154.162C113.374 153.593 114.687 152.986 115.981 152.339L152.339 115.981Z" fill="#FF9149"/>
<path d="M13.6688 124.879C13.9432 125.31 14.2569 125.722 14.5509 126.134L126.153 14.5312C125.742 14.2372 125.33 13.9432 124.899 13.6492L13.6884 124.86L13.6688 124.879Z" fill="#FF9149"/>
<path d="M9.69004 118.215C9.92524 118.666 10.1995 119.117 10.4543 119.587L119.607 10.4348C119.156 10.18 118.705 9.92517 118.235 9.67037L9.69004 118.215Z" fill="#FF9149"/>
<path d="M3.51594 103.123C3.67274 103.672 3.84916 104.201 4.02556 104.73L104.75 4.00607C104.221 3.82967 103.672 3.65326 103.143 3.49645L3.51594 103.123Z" fill="#FF9149"/>
<path d="M6.27951 110.983C6.47551 111.473 6.71075 111.963 6.92635 112.472L112.492 6.90679C112.002 6.69119 111.512 6.47562 111.002 6.26002L6.27951 110.983Z" fill="#FF9149"/>
</svg>
