<svg width="845" height="845" viewBox="0 0 845 845" fill="none" xmlns="http://www.w3.org/2000/svg">
<path d="M537.229 532.113L522.34 536.502" stroke="#179F0C" stroke-opacity="0.6" stroke-width="8.4" stroke-linecap="round"/>
<path d="M614.653 509.286L564.03 524.211" stroke="#1E6AC6" stroke-opacity="0.6" stroke-width="8.4" stroke-linecap="round"/>
<path opacity="0.94" d="M576.567 154.491C428.78 69.1654 239.816 119.798 154.491 267.586C69.1653 415.374 119.798 604.337 267.586 689.663C415.374 774.988 604.337 724.355 689.662 576.567C774.988 428.78 724.355 239.816 576.567 154.491ZM328.786 583.66C239.549 532.139 208.972 418.024 260.493 328.786C312.014 239.549 426.129 208.972 515.367 260.493C604.604 312.014 635.181 426.129 583.66 515.367C532.139 604.604 418.024 635.181 328.786 583.66Z" fill="url(#paint0_radial_41_149)"/>
<path d="M404.731 639.419C402.869 637.557 399.85 637.557 397.988 639.419C396.126 641.281 396.126 644.3 397.988 646.162C399.85 648.024 402.869 648.024 404.731 646.162C406.593 644.3 406.593 641.281 404.731 639.419Z" fill="white"/>
<path d="M427.858 616.291C429.72 618.153 432.739 618.153 434.601 616.291C436.463 614.429 436.463 611.411 434.601 609.549C432.739 607.687 429.72 607.687 427.858 609.549C425.996 611.411 425.996 614.429 427.858 616.291Z" fill="white"/>
<defs>
<radialGradient id="paint0_radial_41_149" cx="0" cy="0" r="1" gradientUnits="userSpaceOnUse" gradientTransform="translate(586.972 220.05) rotate(30) scale(641.084)">
<stop stop-color="#0A30A3"/>
<stop offset="1" stop-color="#00152A"/>
</radialGradient>
</defs>
</svg>
