<svg width="845" height="845" viewBox="0 0 845 845" fill="none" xmlns="http://www.w3.org/2000/svg">
<path opacity="0.94" d="M576.567 154.491C428.78 69.1654 239.816 119.798 154.491 267.586C69.1653 415.374 119.798 604.337 267.586 689.663C415.374 774.988 604.337 724.355 689.662 576.567C774.988 428.78 724.355 239.816 576.567 154.491ZM328.786 583.66C239.549 532.139 208.972 418.024 260.493 328.786C312.014 239.549 426.129 208.972 515.367 260.493C604.604 312.014 635.181 426.129 583.66 515.367C532.139 604.604 418.024 635.181 328.786 583.66Z" fill="url(#paint0_radial_75_96)"/>
<path d="M315.139 729.011C313.277 727.149 310.258 727.149 308.396 729.011C306.534 730.873 306.534 733.891 308.396 735.753C310.258 737.615 313.277 737.615 315.139 735.753C317.001 733.891 317.001 730.873 315.139 729.011Z" fill="white"/>
<path d="M345.009 699.141C343.147 697.279 340.129 697.279 338.267 699.141C336.405 701.003 336.405 704.021 338.267 705.883C340.129 707.745 343.147 707.745 345.009 705.883C346.871 704.021 346.871 701.003 345.009 699.141Z" fill="white"/>
<path d="M374.86 669.27C372.998 667.408 369.979 667.408 368.117 669.27C366.255 671.132 366.255 674.15 368.117 676.012C369.979 677.874 372.998 677.874 374.86 676.012C376.722 674.15 376.722 671.132 374.86 669.27Z" fill="white"/>
<path d="M404.731 639.419C402.869 637.557 399.85 637.557 397.988 639.419C396.126 641.281 396.126 644.3 397.988 646.162C399.85 648.024 402.869 648.024 404.731 646.162C406.593 644.3 406.593 641.281 404.731 639.419Z" fill="white"/>
<path d="M427.859 616.291C429.721 618.153 432.739 618.153 434.601 616.291C436.463 614.429 436.463 611.411 434.601 609.549C432.739 607.687 429.721 607.687 427.859 609.549C425.997 611.411 425.997 614.429 427.859 616.291Z" fill="white"/>
<defs>
<radialGradient id="paint0_radial_75_96" cx="0" cy="0" r="1" gradientUnits="userSpaceOnUse" gradientTransform="translate(586.972 220.05) rotate(30) scale(641.084)">
<stop stop-color="#0A30A3"/>
<stop offset="1" stop-color="#00152A"/>
</radialGradient>
</defs>
</svg>
