<svg width="303" height="212" viewBox="0 0 303 212" fill="none" xmlns="http://www.w3.org/2000/svg">
<g opacity="0.6">
<path d="M185.103 32.8602L95.768 59.1984" stroke="#1E6AC6" stroke-opacity="0.6" stroke-width="8.4" stroke-linecap="round"/>
<path d="M71.9453 66.2222L68.9675 67.1001" stroke="#179F0C" stroke-opacity="0.6" stroke-width="8.4" stroke-linecap="round"/>
<path d="M100.229 184.113L85.3404 188.502" stroke="#179F0C" stroke-opacity="0.6" stroke-width="8.4" stroke-linecap="round"/>
<path d="M22.9248 119.514L13.9914 122.148" stroke="#179F0C" stroke-opacity="0.6" stroke-width="8.4" stroke-linecap="round"/>
<path d="M71.8281 153.646L67.5741 154.901" stroke="#179F0C" stroke-opacity="0.6" stroke-width="8.4" stroke-linecap="round"/>
<path d="M139.059 85.2748L55.6797 109.857" stroke="#1E6AC6" stroke-opacity="0.6" stroke-width="8.4" stroke-linecap="round"/>
<path d="M146.273 131.698L95.6505 146.623" stroke="#1E6AC6" stroke-opacity="0.6" stroke-width="8.4" stroke-linecap="round"/>
<path d="M177.653 161.286L127.03 176.211" stroke="#1E6AC6" stroke-opacity="0.6" stroke-width="8.4" stroke-linecap="round"/>
<path d="M180.413 148.493C186.262 151.634 188.532 158.963 185.483 164.863C182.436 170.763 175.223 173 169.374 169.86C168.608 169.452 167.848 169.028 167.1 168.598C148.713 157.995 136.136 141.223 130.583 122.391C125.031 103.558 126.498 82.6458 136.192 63.7636C136.587 62.9966 136.996 62.2285 137.418 61.4701C148.162 42.1285 165.732 28.8613 185.448 23.0485C205.166 17.235 227.121 18.8492 246.639 29.2688C247.405 29.6767 248.165 30.1005 248.913 30.5305C267.301 41.1333 279.878 57.9056 285.43 76.7378C290.982 95.57 289.516 116.483 279.821 135.365C279.427 136.134 279.018 136.9 278.595 137.658C275.386 143.47 268.115 145.502 262.352 142.2C256.592 138.897 254.521 131.509 257.731 125.698C258.045 125.13 258.35 124.559 258.642 123.992C265.326 110.974 266.327 96.5285 262.486 83.5022C258.645 70.4733 249.965 58.8821 237.292 51.5737C236.737 51.2534 236.171 50.9393 235.6 50.6351C225.653 45.3252 214.739 43.2914 204.136 44.1573L219.475 96.1832C221.373 102.621 217.775 109.353 211.44 111.22C205.106 113.088 198.432 109.385 196.534 102.947L181.195 50.9209C171.818 55.9457 163.753 63.5748 158.277 73.4319C157.963 73.9999 157.658 74.5708 157.366 75.138C150.682 88.1563 149.681 102.602 153.522 115.628C157.363 128.657 166.04 140.249 178.717 147.556C179.271 147.877 179.836 148.188 180.408 148.495L180.413 148.493Z" fill="#1E6AC6" fill-opacity="0.9"/>
</g>
</svg>
