<svg width="2277" height="1202" viewBox="0 0 2277 1202" fill="none" xmlns="http://www.w3.org/2000/svg">
<rect y="433" width="1920" height="688" fill="url(#paint0_linear_21_160)"/>
<g opacity="0.6">
<path d="M427.281 1022.47L337.946 1048.81" stroke="#1E6AC6" stroke-opacity="0.6" stroke-width="8.4" stroke-linecap="round"/>
<path d="M314.123 1055.83L311.145 1056.71" stroke="#179F0C" stroke-opacity="0.6" stroke-width="8.4" stroke-linecap="round"/>
<path d="M342.408 1173.72L327.519 1178.11" stroke="#179F0C" stroke-opacity="0.6" stroke-width="8.4" stroke-linecap="round"/>
<path d="M265.103 1109.12L256.169 1111.76" stroke="#179F0C" stroke-opacity="0.6" stroke-width="8.4" stroke-linecap="round"/>
<path d="M314.006 1143.26L309.752 1144.51" stroke="#179F0C" stroke-opacity="0.6" stroke-width="8.4" stroke-linecap="round"/>
<path d="M381.236 1074.88L297.857 1099.47" stroke="#1E6AC6" stroke-opacity="0.6" stroke-width="8.4" stroke-linecap="round"/>
<path d="M388.451 1121.31L337.828 1136.23" stroke="#1E6AC6" stroke-opacity="0.6" stroke-width="8.4" stroke-linecap="round"/>
<path d="M419.831 1150.9L369.208 1165.82" stroke="#1E6AC6" stroke-opacity="0.6" stroke-width="8.4" stroke-linecap="round"/>
<path d="M422.59 1138.1C428.439 1141.24 430.709 1148.57 427.66 1154.47C424.613 1160.37 417.4 1162.61 411.551 1159.47C410.785 1159.06 410.025 1158.64 409.277 1158.21C390.89 1147.61 378.313 1130.83 372.761 1112C367.208 1093.17 368.675 1072.26 378.369 1053.37C378.764 1052.61 379.173 1051.84 379.595 1051.08C390.339 1031.74 407.909 1018.47 427.625 1012.66C447.343 1006.84 469.298 1008.46 488.816 1018.88C489.582 1019.29 490.342 1019.71 491.09 1020.14C509.478 1030.74 522.055 1047.52 527.607 1066.35C533.159 1085.18 531.693 1106.09 521.998 1124.97C521.604 1125.74 521.195 1126.51 520.773 1127.27C517.563 1133.08 510.292 1135.11 504.529 1131.81C498.769 1128.51 496.698 1121.12 499.908 1115.31C500.222 1114.74 500.527 1114.17 500.82 1113.6C507.503 1100.58 508.504 1086.14 504.664 1073.11C500.822 1060.08 492.143 1048.49 479.469 1041.18C478.915 1040.86 478.349 1040.55 477.777 1040.25C467.83 1034.94 456.916 1032.9 446.313 1033.77L461.652 1085.79C463.55 1092.23 459.952 1098.96 453.618 1100.83C447.283 1102.7 440.609 1098.99 438.711 1092.56L423.372 1040.53C413.995 1045.56 405.931 1053.18 400.455 1063.04C400.141 1063.61 399.835 1064.18 399.543 1064.75C392.859 1077.77 391.858 1092.21 395.699 1105.24C399.54 1118.27 408.217 1129.86 420.894 1137.17C421.448 1137.49 422.013 1137.8 422.585 1138.1L422.59 1138.1Z" fill="#1E6AC6" fill-opacity="0.9"/>
</g>
<path opacity="0.94" d="M1867.71 661.292C2035.91 690.131 2195.62 577.168 2224.46 408.971C2253.3 240.775 2140.34 81.0566 1972.14 52.2171C1803.95 23.3775 1644.23 136.341 1615.39 304.537C1586.55 472.733 1699.51 632.452 1867.71 661.292ZM1951.46 172.858C2053.02 190.271 2121.24 286.725 2103.82 388.286C2086.41 489.847 1989.96 558.065 1888.4 540.651C1786.83 523.237 1718.62 426.783 1736.03 325.223C1753.44 223.662 1849.9 155.444 1951.46 172.858Z" fill="url(#paint1_radial_21_160)"/>
<path d="M1978.51 293.727C1981.33 296.549 1981.33 301.135 1978.51 303.977L1646.55 635.943C1643.72 638.765 1639.14 638.765 1636.29 635.943C1633.47 633.12 1633.47 628.534 1636.29 625.692L1968.26 293.727C1971.08 290.904 1975.67 290.904 1978.51 293.727Z" fill="url(#paint2_linear_21_160)" style="mix-blend-mode:overlay"/>
<path d="M1769.04 455.749C1770.9 457.611 1773.92 457.611 1775.78 455.749C1777.64 453.887 1777.64 450.868 1775.78 449.006C1773.92 447.144 1770.9 447.144 1769.04 449.006C1767.17 450.868 1767.17 453.887 1769.04 455.749Z" fill="white" fill-opacity="0.3"/>
<path d="M1739.17 485.619C1741.03 487.481 1744.05 487.481 1745.91 485.619C1747.77 483.757 1747.77 480.739 1745.91 478.877C1744.05 477.015 1741.03 477.015 1739.17 478.877C1737.3 480.739 1737.3 483.757 1739.17 485.619Z" fill="white" fill-opacity="0.3"/>
<path d="M1709.3 515.47C1711.16 517.332 1714.18 517.332 1716.04 515.47C1717.9 513.608 1717.9 510.59 1716.04 508.728C1714.18 506.866 1711.16 506.866 1709.3 508.728C1707.43 510.59 1707.43 513.608 1709.3 515.47Z" fill="white" fill-opacity="0.3"/>
<path d="M1679.44 545.34C1681.31 547.202 1684.32 547.202 1686.19 545.34C1688.05 543.478 1688.05 540.46 1686.19 538.598C1684.32 536.736 1681.31 536.736 1679.44 538.598C1677.58 540.46 1677.58 543.478 1679.44 545.34Z" fill="white" fill-opacity="0.3"/>
<path d="M1656.32 568.468C1654.45 566.606 1651.44 566.606 1649.57 568.468C1647.71 570.33 1647.71 573.349 1649.57 575.211C1651.44 577.073 1654.45 577.073 1656.32 575.211C1658.18 573.349 1658.18 570.33 1656.32 568.468Z" fill="white" fill-opacity="0.3"/>
<defs>
<linearGradient id="paint0_linear_21_160" x1="-15.5" y1="448.084" x2="1786.65" y2="1317.53" gradientUnits="userSpaceOnUse">
<stop stop-color="#0A30A3"/>
<stop offset="0.563541" stop-color="#001447"/>
</linearGradient>
<radialGradient id="paint1_radial_21_160" cx="0" cy="0" r="1" gradientUnits="userSpaceOnUse" gradientTransform="translate(1835.24 603.398) rotate(-170.27) scale(641.084)">
<stop stop-color="#0A30A3"/>
<stop offset="1" stop-color="#00152A"/>
</radialGradient>
<linearGradient id="paint2_linear_21_160" x1="1656.68" y1="637.61" x2="1874.68" y2="425.11" gradientUnits="userSpaceOnUse">
<stop stop-color="#0A30A3" stop-opacity="0.31"/>
<stop offset="1" stop-color="white" stop-opacity="0"/>
</linearGradient>
</defs>
</svg>
