<svg width="260" height="50" viewBox="0 0 260 50" fill="none" xmlns="http://www.w3.org/2000/svg">
<path d="M105.015 25.0003C105.015 38.807 93.5494 49.9999 79.4059 49.9999C65.2625 49.9999 53.797 38.807 53.797 25.0003C53.797 11.1945 65.2634 0.000728751 79.4059 0.000728751C93.5487 0.000728751 105.015 11.1939 105.015 25.0003ZM202.295 35.9276C203.258 34.5828 205.154 34.2541 206.532 35.1938C207.91 36.1332 208.246 37.9847 207.284 39.3296C206.824 39.9711 206.373 40.5497 205.933 41.0634C201.102 46.6918 193.969 49.9999 186.345 49.9999C172.149 49.9999 160.768 38.7477 160.775 24.9219C160.775 11.1879 172.29 0.00104601 186.345 0.00104601C196.802 0.00104601 206.038 6.17837 209.964 15.4448C211.233 18.441 211.905 21.6843 211.905 25.0003C211.905 26.6659 210.505 27.9832 208.826 27.9832H167.123C168.602 37.1824 176.726 44.0348 186.346 44.0348C192.153 44.0348 197.587 41.5167 201.254 37.242C201.655 36.7747 202.003 36.3362 202.295 35.9279V35.9276ZM167.123 22.0178H205.577C205.336 20.5343 204.916 19.0866 204.331 17.705C201.349 10.6647 194.276 5.96612 186.345 5.96612C176.726 5.96612 168.602 12.8183 167.122 22.0178H167.123ZM131.154 6.03814C129.473 6.17995 127.993 4.96422 127.848 3.32337C127.703 1.68283 128.948 0.238037 130.629 0.0962233C145.48 -1.17217 158.466 10.258 158.466 25C158.466 31.3972 155.966 37.7953 150.965 42.6766C149.772 43.8416 147.838 43.8416 146.645 42.6769L117.078 13.8138C114.599 17.1377 113.359 21.0688 113.359 25C113.359 36.2341 123.226 44.9295 134.56 43.9618C136.241 43.8203 137.722 45.0354 137.867 46.6763C138.012 48.3171 136.767 49.7623 135.086 49.9038C120.217 51.1731 107.248 39.7277 107.248 25C107.248 18.6025 109.749 12.2047 114.749 7.32335C115.942 6.15838 117.877 6.15838 119.07 7.32303L148.637 36.1862C151.116 32.8619 152.356 28.9311 152.356 25C152.356 13.7583 142.475 5.07146 131.154 6.03782L131.154 6.03814ZM219.842 15.4829C218.999 16.9052 217.134 17.3902 215.677 16.5663C214.221 15.743 213.723 13.9223 214.567 12.5004C215.689 10.6041 217.057 8.87093 218.643 7.32335C223.648 2.44171 230.202 0.000728751 236.752 0.000728751C243.302 0.000728751 249.855 2.44171 254.86 7.32335C256.446 8.87062 257.814 10.6047 258.936 12.5004C259.779 13.9223 259.282 15.743 257.826 16.5663C256.369 17.3902 254.504 16.9048 253.661 15.4829C252.812 14.0483 251.764 12.7123 250.563 11.5407C247.532 8.5835 243.747 6.80305 239.807 6.19867V47.017C239.807 48.6642 238.439 49.9996 236.752 49.9996C235.064 49.9996 233.696 48.6642 233.696 47.017V6.19867C229.756 6.80305 225.972 8.5835 222.94 11.5407C221.74 12.712 220.692 14.0483 219.843 15.4829H219.842ZM12.1677 42.6722C11.025 43.7877 8.96457 43.8651 7.84334 42.6563C2.84557 37.7763 0.34668 31.3861 0.34668 24.9994C0.34668 11.2012 11.8229 0.00548761 25.956 0.00548761C40.0893 0.00548761 51.5649 11.2009 51.5649 24.9994C51.5649 32.0758 48.9051 37.5466 44.0585 42.6668C42.8658 43.8314 40.9366 43.8368 39.7439 42.6722C38.5466 41.5034 38.5593 39.6224 39.7539 38.4565C43.5544 34.7423 45.4547 29.8724 45.4547 24.9994C45.4547 15.6047 38.4455 7.65203 29.0116 6.20375V24.9994C29.0116 26.6466 27.6437 27.9819 25.9563 27.9819C24.2689 27.9819 22.901 26.6466 22.901 24.9994V6.20375C13.4667 7.65235 6.45788 15.6044 6.45788 24.9994C6.45788 29.8724 8.35813 34.7423 12.1583 38.4565C13.3254 39.6801 13.406 41.4644 12.1684 42.6722H12.1677ZM79.4062 5.9658C68.6369 5.9658 59.9078 14.487 59.9078 25C59.9078 35.5133 68.6362 44.0345 79.4062 44.0345C90.1759 44.0345 98.9046 35.5133 98.9046 25C98.9046 14.4873 90.1753 5.9658 79.4062 5.9658Z" fill="white"/>
</svg>
