<svg width="260" height="124" viewBox="0 0 260 124" fill="none" xmlns="http://www.w3.org/2000/svg">
<path d="M105.018 99.0003C105.018 112.807 93.5523 124 79.4088 124C65.2654 124 53.7999 112.807 53.7999 99.0003C53.7999 85.1945 65.2664 74.0007 79.4088 74.0007C93.5516 74.0007 105.018 85.1939 105.018 99.0003ZM202.298 109.928C203.261 108.583 205.157 108.254 206.535 109.194C207.912 110.133 208.249 111.985 207.287 113.33C206.827 113.971 206.376 114.55 205.936 115.063C201.105 120.692 193.972 124 186.348 124C172.152 124 160.771 112.748 160.778 98.9219C160.778 85.1879 172.293 74.001 186.348 74.001C196.805 74.001 206.041 80.1784 209.967 89.4448C211.236 92.441 211.908 95.6843 211.908 99.0003C211.908 100.666 210.508 101.983 208.829 101.983H167.126C168.605 111.182 176.729 118.035 186.348 118.035C192.155 118.035 197.59 115.517 201.257 111.242C201.658 110.775 202.006 110.336 202.298 109.928V109.928ZM167.126 96.0178H205.58C205.339 94.5343 204.919 93.0866 204.334 91.705C201.352 84.6647 194.279 79.9661 186.348 79.9661C176.729 79.9661 168.605 86.8183 167.125 96.0178H167.126ZM131.157 80.0381C129.476 80.18 127.996 78.9642 127.851 77.3234C127.706 75.6828 128.951 74.238 130.632 74.0962C145.483 72.8278 158.469 84.258 158.469 99C158.469 105.397 155.969 111.795 150.968 116.677C149.775 117.842 147.841 117.842 146.648 116.677L117.081 87.8138C114.602 91.1377 113.362 95.0689 113.362 99C113.362 110.234 123.229 118.929 134.563 117.962C136.244 117.82 137.725 119.035 137.87 120.676C138.015 122.317 136.769 123.762 135.089 123.904C120.22 125.173 107.251 113.728 107.251 99C107.251 92.6025 109.752 86.2047 114.752 81.3234C115.945 80.1584 117.879 80.1584 119.073 81.323L148.64 110.186C151.119 106.862 152.359 102.931 152.359 99C152.359 87.7583 142.478 79.0715 131.157 80.0378L131.157 80.0381ZM219.845 89.4829C219.002 90.9052 217.137 91.3902 215.68 90.5663C214.224 89.743 213.726 87.9223 214.57 86.5004C215.692 84.6041 217.06 82.8709 218.646 81.3234C223.651 76.4417 230.205 74.0007 236.755 74.0007C243.305 74.0007 249.858 76.4417 254.863 81.3234C256.449 82.8706 257.817 84.6047 258.939 86.5004C259.782 87.9223 259.285 89.743 257.829 90.5663C256.372 91.3902 254.507 90.9048 253.664 89.4829C252.815 88.0483 251.767 86.7123 250.566 85.5407C247.535 82.5835 243.75 80.803 239.81 80.1987V121.017C239.81 122.664 238.442 124 236.755 124C235.067 124 233.699 122.664 233.699 121.017V80.1987C229.759 80.803 225.975 82.5835 222.943 85.5407C221.743 86.712 220.695 88.0483 219.846 89.4829H219.845ZM12.1706 116.672C11.028 117.788 8.9675 117.865 7.84627 116.656C2.8485 111.776 0.349609 105.386 0.349609 98.9994C0.349609 85.2012 11.8258 74.0055 25.9589 74.0055C40.0923 74.0055 51.5678 85.2009 51.5678 98.9994C51.5678 106.076 48.9081 111.547 44.0614 116.667C42.8687 117.831 40.9395 117.837 39.7468 116.672C38.5495 115.503 38.5622 113.622 39.7569 112.456C43.5574 108.742 45.4576 103.872 45.4576 98.9994C45.4576 89.6047 38.4484 81.652 29.0145 80.2037V98.9994C29.0145 100.647 27.6466 101.982 25.9592 101.982C24.2718 101.982 22.9039 100.647 22.9039 98.9994V80.2037C13.4697 81.6523 6.46081 89.6044 6.46081 98.9994C6.46081 103.872 8.36106 108.742 12.1612 112.456C13.3283 113.68 13.4089 115.464 12.1713 116.672H12.1706ZM79.4092 79.9658C68.6398 79.9658 59.9108 88.487 59.9108 99C59.9108 109.513 68.6392 118.034 79.4092 118.034C90.1789 118.034 98.9076 109.513 98.9076 99C98.9076 88.4873 90.1782 79.9658 79.4092 79.9658Z" fill="white"/>
<path d="M149.379 19.3564H159.092C159.915 19.3564 160.583 20.0136 160.583 20.824V26.0899L171.291 15.5509L160.583 5.01178V10.2777C160.583 11.0881 159.915 11.7454 159.092 11.7454C159.047 11.7454 159.004 11.7433 158.96 11.7397L130.075 11.7407C124.474 11.8371 119.416 14.1399 115.759 17.8036C112.114 21.4565 109.865 26.4678 109.865 32.0003C109.865 33.887 110.122 35.7026 110.604 37.4157C111.104 39.1952 111.845 40.8773 112.791 42.4254C113.212 43.1188 112.982 44.0173 112.278 44.4323C112.038 44.573 111.775 44.64 111.515 44.64V44.6447H101.802C100.979 44.6447 100.311 43.9874 100.311 43.177V37.9111L89.6029 48.4502L100.311 58.9892V53.7233C100.311 52.9129 100.979 52.2557 101.802 52.2557C101.847 52.2557 101.89 52.2577 101.934 52.2613L130.843 52.2598C136.438 52.1572 141.491 49.8529 145.143 46.1891C148.783 42.5373 151.029 37.5291 151.029 32.0013C151.029 30.1145 150.771 28.2989 150.29 26.5864C149.79 24.8068 149.049 23.1247 148.103 21.5767C147.682 20.8833 147.912 19.9848 148.616 19.5698C148.855 19.429 149.119 19.362 149.379 19.362V19.3574V19.3564ZM157.6 22.2922H151.848C152.376 23.4175 152.815 24.5914 153.156 25.8054C153.713 27.788 154.011 29.866 154.011 32.0003C154.011 38.3209 151.437 44.0544 147.263 48.2409C143.086 52.4304 137.302 55.0657 130.889 55.1832L103.293 55.1848V62.5323C103.293 62.9082 103.148 63.2834 102.857 63.5701C102.274 64.1433 101.33 64.1433 100.747 63.5701L86.4388 49.4874C85.8563 48.9141 85.8563 47.9847 86.4388 47.4114L100.741 33.3349C101.011 33.0658 101.387 32.8988 101.802 32.8988C102.625 32.8988 103.293 33.5561 103.293 34.3664V41.7078H109.045C108.517 40.5825 108.078 39.4086 107.737 38.1946C107.179 36.212 106.882 34.134 106.882 31.9997C106.882 25.6744 109.459 19.9378 113.638 15.7504C117.82 11.5603 123.61 8.92656 130.028 8.81624L157.599 8.81521V1.46766C157.599 1.09185 157.745 0.716558 158.036 0.429935C158.619 -0.143312 159.563 -0.143312 160.145 0.429935L174.454 14.5126C175.036 15.0859 175.036 16.0153 174.454 16.5886L160.152 30.6651C159.881 30.9342 159.506 31.1012 159.091 31.1012C158.268 31.1012 157.6 30.4439 157.6 29.6336V22.2917V22.2922Z" fill="#F6F6F6"/>
<path d="M122.42 39.1594C123.36 40.0622 123.381 41.5465 122.466 42.4746C121.552 43.4027 120.048 43.4234 119.108 42.5205C118.984 42.4029 118.863 42.2827 118.744 42.162C115.829 39.1883 114.371 35.3876 114.371 31.589C114.371 27.7904 115.829 23.9898 118.744 21.0161C118.863 20.8954 118.984 20.7752 119.108 20.6576C122.249 17.656 126.353 16.1553 130.447 16.1553C134.541 16.1553 138.644 17.656 141.786 20.6576C141.909 20.7752 142.03 20.8954 142.149 21.0161C145.064 23.9898 146.522 27.7904 146.522 31.589C146.522 35.3876 145.064 39.1883 142.149 42.162C142.03 42.2832 141.909 42.4029 141.786 42.5205C140.845 43.4234 139.342 43.4027 138.427 42.4746C137.513 41.5465 137.533 40.0622 138.474 39.1594C138.566 39.0712 138.656 38.9819 138.744 38.8927C140.754 36.8425 141.759 34.2165 141.759 31.589C141.759 28.961 140.753 26.3351 138.744 24.2854C138.656 24.1956 138.566 24.1064 138.474 24.0187C136.872 22.489 134.902 21.5145 132.828 21.0951V31.589C132.828 32.8876 131.761 33.94 130.446 33.94C129.131 33.94 128.065 32.8876 128.065 31.589V21.0951C125.99 21.5145 124.02 22.489 122.419 24.0187C122.327 24.1069 122.236 24.1961 122.149 24.2854C120.139 26.3356 119.134 28.9615 119.134 31.589C119.134 34.2171 120.139 36.843 122.149 38.8927C122.236 38.9825 122.327 39.0712 122.419 39.1594H122.42Z" fill="#F6F6F6"/>
</svg>
