<svg width="30" height="30" viewBox="0 0 30 30" fill="none" xmlns="http://www.w3.org/2000/svg">
<rect x="0.5" y="0.5" width="29" height="29" rx="3.5" fill="#001447"/>
<rect x="0.5" y="0.5" width="29" height="29" rx="3.5" stroke="#FF7233"/>
<path d="M15.7776 15.0054L20.8413 9.95881C21.0529 9.74527 21.0529 9.39933 20.8413 9.18579C20.6335 8.96843 20.2903 8.9619 20.0745 9.1712L15.0109 14.2178L10.0123 9.1712C9.90978 9.06192 9.76719 9 9.61802 9C9.46884 9 9.32625 9.06192 9.22377 9.1712C9.0362 9.37752 9.0362 9.69416 9.22377 9.90047L14.2224 14.9397L9.15867 19.979C8.94711 20.1925 8.94711 20.5385 9.15867 20.752C9.25938 20.856 9.3979 20.914 9.54206 20.9125C9.689 20.9245 9.83468 20.8773 9.94716 20.7812L15.0109 15.7346L20.0745 20.8395C20.1753 20.9435 20.3138 21.0015 20.4579 21C20.6019 21.0007 20.7401 20.9428 20.8413 20.8395C21.0529 20.626 21.0529 20.28 20.8413 20.0665L15.7776 15.0054Z" fill="#FF7233"/>
</svg>
