<svg width="24" height="24" viewBox="0 0 24 24" fill="none" xmlns="http://www.w3.org/2000/svg">
<g clip-path="url(#clip0_43_6718)">
<path d="M18.9676 14.8671C18.4762 14.3555 17.8836 14.082 17.2555 14.082C16.6324 14.082 16.0347 14.3505 15.5231 14.8621L13.9225 16.4576C13.7908 16.3867 13.6591 16.3209 13.5324 16.255C13.3501 16.1639 13.1779 16.0777 13.031 15.9866C11.5316 15.0343 10.169 13.7933 8.86216 12.1875C8.22899 11.3872 7.8035 10.7135 7.49451 10.0297C7.90987 9.64979 8.29484 9.25469 8.66968 8.87479C8.81151 8.73296 8.95334 8.58607 9.09517 8.44424C10.1589 7.38051 10.1589 6.00273 9.09517 4.939L7.71233 3.55616C7.5553 3.39913 7.39321 3.23704 7.24125 3.07495C6.93733 2.7609 6.61821 2.43671 6.28896 2.13279C5.79762 1.64652 5.21004 1.38818 4.59206 1.38818C3.97409 1.38818 3.37637 1.64652 2.86984 2.13279C2.86477 2.13786 2.86477 2.13786 2.85971 2.14292L1.13748 3.88034C0.489117 4.52871 0.119345 5.31891 0.0382993 6.23574C-0.0832695 7.71482 0.352352 9.0926 0.686666 9.99424C1.50725 12.2078 2.73307 14.2593 4.56167 16.4576C6.7803 19.1068 9.44975 21.1988 12.4991 22.6728C13.6641 23.225 15.2192 23.8784 16.9566 23.9898C17.063 23.9949 17.1744 24 17.2757 24C18.4458 24 19.4285 23.5795 20.1984 22.7438C20.2035 22.7336 20.2136 22.7286 20.2187 22.7184C20.4821 22.3993 20.786 22.1106 21.1051 21.8016C21.323 21.5939 21.5458 21.3761 21.7636 21.1482C22.2651 20.6264 22.5285 20.0186 22.5285 19.3956C22.5285 18.7674 22.26 18.1647 21.7484 17.6581L18.9676 14.8671ZM20.781 20.2009C20.7759 20.2009 20.7759 20.206 20.781 20.2009C20.5834 20.4137 20.3808 20.6062 20.163 20.8189C19.8337 21.133 19.4994 21.4622 19.1854 21.832C18.6738 22.3791 18.071 22.6374 17.2808 22.6374C17.2048 22.6374 17.1238 22.6374 17.0478 22.6323C15.5434 22.5361 14.1453 21.9485 13.0968 21.447C10.2298 20.0591 7.71233 18.0887 5.62033 15.5915C3.89304 13.5096 2.73814 11.5848 1.97327 9.51809C1.50219 8.25682 1.32997 7.27414 1.40595 6.34718C1.4566 5.75453 1.68454 5.26319 2.10497 4.84276L3.83226 3.11547C4.08046 2.88247 4.34386 2.75583 4.60219 2.75583C4.92131 2.75583 5.17964 2.94832 5.34174 3.11041C5.3468 3.11547 5.35187 3.12054 5.35693 3.1256C5.66592 3.41433 5.95971 3.71319 6.2687 4.0323C6.42572 4.1944 6.58781 4.35649 6.74991 4.52364L8.13275 5.90649C8.66968 6.44342 8.66968 6.93982 8.13275 7.47675C7.98586 7.62365 7.84403 7.77054 7.69713 7.91237C7.27164 8.34799 6.86641 8.75322 6.42572 9.14832C6.41559 9.15845 6.40546 9.16352 6.4004 9.17365C5.96478 9.60927 6.04582 10.0348 6.137 10.3235C6.14206 10.3387 6.14713 10.3539 6.15219 10.3691C6.51183 11.2403 7.01837 12.0609 7.78831 13.0385L7.79337 13.0436C9.19141 14.7658 10.6654 16.1081 12.2914 17.1364C12.4991 17.2681 12.7118 17.3745 12.9145 17.4758C13.0968 17.567 13.269 17.6531 13.4159 17.7442C13.4362 17.7544 13.4564 17.7696 13.4767 17.7797C13.6489 17.8658 13.811 17.9063 13.9782 17.9063C14.3986 17.9063 14.662 17.6429 14.7481 17.5568L16.4805 15.8245C16.6527 15.6522 16.9262 15.4446 17.2453 15.4446C17.5594 15.4446 17.8177 15.6421 17.9748 15.8143C17.9798 15.8194 17.9798 15.8194 17.9849 15.8245L20.7759 18.6155C21.2976 19.1322 21.2976 19.664 20.781 20.2009Z" fill="#FF7233"/>
<path d="M12.9702 5.70908C14.2973 5.93196 15.5029 6.56006 16.4653 7.52248C17.4277 8.4849 18.0508 9.69046 18.2787 11.0176C18.3344 11.3519 18.6232 11.5849 18.9524 11.5849C18.9929 11.5849 19.0284 11.5798 19.0689 11.5748C19.4438 11.514 19.692 11.1594 19.6312 10.7846C19.3576 9.17886 18.5978 7.71497 17.4379 6.555C16.2779 5.39503 14.814 4.63522 13.2083 4.36169C12.8335 4.30091 12.4839 4.54911 12.4181 4.91888C12.3522 5.28866 12.5954 5.6483 12.9702 5.70908Z" fill="#FF7233"/>
<path d="M23.9722 10.5869C23.5214 7.94279 22.2753 5.53674 20.3606 3.62203C18.4459 1.70732 16.0398 0.461243 13.3957 0.0104253C13.026 -0.0554245 12.6764 0.197844 12.6106 0.567615C12.5498 0.942452 12.798 1.29196 13.1728 1.35781C15.5333 1.75798 17.6861 2.87742 19.3982 4.58445C21.1103 6.29654 22.2247 8.44932 22.6248 10.8098C22.6805 11.1441 22.9693 11.3771 23.2985 11.3771C23.339 11.3771 23.3745 11.372 23.415 11.367C23.7848 11.3113 24.0381 10.9567 23.9722 10.5869Z" fill="#FF7233"/>
</g>
<defs>
<clipPath id="clip0_43_6718">
<rect width="24" height="24" fill="white"/>
</clipPath>
</defs>
</svg>
