<svg width="65" height="63" viewBox="0 0 65 63" fill="none" xmlns="http://www.w3.org/2000/svg">
<ellipse cx="32.1141" cy="31.2616" rx="32.1141" ry="31.2616" transform="matrix(1 0 -0.000872668 1 0.771484 0)" fill="#FF9149"/>
<path d="M28.2487 36.6173C30.0597 35.0527 31.484 33.7709 32.5216 32.7718C33.5781 31.7539 34.4556 30.6983 35.154 29.605C35.8524 28.5116 36.2021 27.4183 36.2031 26.325C36.204 25.194 35.9315 24.308 35.3854 23.6671C34.8581 23.0262 34.0196 22.7057 32.8697 22.7057C31.7575 22.7057 30.8901 23.0639 30.2674 23.7802C29.6636 24.4777 29.3423 25.4202 29.3036 26.6078H26.1933C26.2517 24.4588 26.8941 22.8188 28.1203 21.6878C29.3654 20.538 30.9399 19.963 32.8438 19.963C34.8985 19.963 36.5003 20.5285 37.6492 21.6596C38.8169 22.7906 39.4 24.2986 39.3983 26.1836C39.3971 27.5409 39.0473 28.851 38.3487 30.1139C37.669 31.358 36.848 32.4796 35.8858 33.4787C34.9424 34.4589 33.735 35.5994 32.2635 36.9L30.9902 38.0311H39.9535L39.9511 40.7172H26.2093L26.2113 38.3704L28.2487 36.6173Z" fill="#011855"/>
</svg>
