<svg width="66" height="63" viewBox="0 0 66 63" fill="none" xmlns="http://www.w3.org/2000/svg">
<ellipse cx="32.1141" cy="31.2616" rx="32.1141" ry="31.2616" transform="matrix(1 0 -0.000872668 1 1.04102 0)" fill="#FF9149"/>
<path d="M26.69 25.4767C26.8046 23.7237 27.475 22.357 28.7011 21.3768C29.9461 20.3966 31.53 19.9065 33.4527 19.9065C34.7722 19.9065 35.9125 20.1421 36.8734 20.6134C37.8344 21.0846 38.5596 21.7255 39.049 22.5361C39.5384 23.3467 39.7826 24.2609 39.7817 25.2788C39.7807 26.4475 39.4688 27.4466 38.846 28.276C38.2232 29.1054 37.4782 29.6615 36.6108 29.9443L36.6107 30.0574C37.7226 30.3967 38.5892 31.0187 39.2104 31.9236C39.8317 32.8095 40.1418 33.95 40.1405 35.3449C40.1396 36.4571 39.8842 37.4467 39.3745 38.3138C38.8648 39.1809 38.1102 39.869 37.1107 40.3779C36.1112 40.868 34.914 41.1131 33.519 41.1131C31.4832 41.1131 29.806 40.5947 28.4874 39.5579C27.1876 38.5023 26.4915 36.9943 26.3989 35.0339H29.5092C29.5837 36.0329 29.9695 36.8529 30.6664 37.4938C31.3633 38.1159 32.3055 38.4269 33.4931 38.4269C34.643 38.4269 35.5292 38.1159 36.1518 37.4938C36.7744 36.8529 37.0862 36.0329 37.0871 35.0339C37.0882 33.7143 36.6649 32.7812 35.8171 32.2346C34.9882 31.6691 33.7066 31.3863 31.9724 31.3863H31.2372L31.2395 28.7284H32.003C33.5299 28.7096 34.6894 28.4551 35.4815 27.965C36.2925 27.4749 36.6985 26.702 36.6994 25.6464C36.7002 24.7416 36.4086 24.0253 35.8247 23.4975C35.2408 22.9508 34.4117 22.6775 33.3372 22.6775C32.2816 22.6775 31.4613 22.9508 30.8765 23.4975C30.2917 24.0253 29.9424 24.685 29.8286 25.4767H26.69Z" fill="#011855"/>
</svg>
