<svg width="203" height="128" viewBox="0 0 203 128" fill="none" xmlns="http://www.w3.org/2000/svg">
<g opacity="0.6">
<path d="M129.777 16.5918L66.9844 27.9849" stroke="#1E6AC6" stroke-opacity="0.6" stroke-width="8.4" stroke-linecap="round"/>
<path d="M50.2393 31.0229L48.1462 31.4027" stroke="#179F0C" stroke-opacity="0.6" stroke-width="8.4" stroke-linecap="round"/>
<path d="M60.8643 113.414L50.3988 115.312" stroke="#179F0C" stroke-opacity="0.6" stroke-width="8.4" stroke-linecap="round"/>
<path d="M12.9346 63.7358L6.65528 64.8752" stroke="#179F0C" stroke-opacity="0.6" stroke-width="8.4" stroke-linecap="round"/>
<path d="M43.748 90.5752L40.7579 91.1177" stroke="#179F0C" stroke-opacity="0.6" stroke-width="8.4" stroke-linecap="round"/>
<path d="M94.5654 48.9248L35.9587 59.5584" stroke="#1E6AC6" stroke-opacity="0.6" stroke-width="8.4" stroke-linecap="round"/>
<path d="M96.0752 81.0806L60.4926 87.5367" stroke="#1E6AC6" stroke-opacity="0.6" stroke-width="8.4" stroke-linecap="round"/>
<path d="M115.284 103.54L79.7015 109.996" stroke="#1E6AC6" stroke-opacity="0.6" stroke-width="8.4" stroke-linecap="round"/>
<path d="M118.103 95.0262C121.857 97.5947 122.866 102.754 120.356 106.55C117.848 110.346 112.77 111.342 109.015 108.773C108.523 108.439 108.037 108.095 107.559 107.747C95.8092 99.1752 88.4706 86.8264 86.0688 73.5893C83.6671 60.3521 86.1996 46.2123 94.1889 34.0592C94.5142 33.5656 94.8488 33.0722 95.1921 32.5866C103.93 20.1973 116.873 12.447 130.731 9.93261C144.591 7.41786 159.43 10.1274 171.963 18.6572C172.455 18.9913 172.942 19.3357 173.42 19.6835C185.17 28.2553 192.508 40.6041 194.91 53.8412C197.312 67.0783 194.779 81.2181 186.79 93.3713C186.465 93.8666 186.13 94.3582 185.787 94.8439C183.174 98.5676 178.071 99.4192 174.388 96.7468C170.706 94.0742 169.836 88.8894 172.449 85.1657C172.705 84.8017 172.954 84.4352 173.195 84.0702C178.703 75.6912 180.444 65.9234 178.783 56.7672C177.121 47.6093 172.058 39.076 163.959 33.1677C163.605 32.9088 163.243 32.6533 162.876 32.4042C156.488 28.0573 149.202 25.8714 141.915 25.6839L148.55 62.2527C149.371 66.7777 146.426 71.1002 141.974 71.9081C137.522 72.7159 133.246 69.7034 132.425 65.1784L125.79 28.6096C119.033 31.3453 112.98 35.9515 108.526 42.2654C108.271 42.6293 108.021 42.9959 107.78 43.3609C102.272 51.7398 100.531 61.5077 102.192 70.6638C103.854 79.8218 108.915 88.3554 117.016 94.2634C117.37 94.5223 117.732 94.776 118.099 95.0269L118.103 95.0262Z" fill="#1E6AC6" fill-opacity="0.9"/>
</g>
</svg>
