<svg width="129" height="63" viewBox="0 0 129 63" fill="none" xmlns="http://www.w3.org/2000/svg">
<path d="M90.4004 4.20044L48.4004 4.20044" stroke="#1E6AC6" stroke-width="8.4" stroke-linecap="round"/>
<path d="M37.2002 4.20044L35.8002 4.20044" stroke="#179F0C" stroke-width="8.4" stroke-linecap="round"/>
<path d="M34.4004 58.8005L27.4004 58.8005" stroke="#179F0C" stroke-width="8.4" stroke-linecap="round"/>
<path d="M9.2002 21.0005L5.0002 21.0005" stroke="#179F0C" stroke-width="8.4" stroke-linecap="round"/>
<path d="M26 42.0005L24 42.0005" stroke="#179F0C" stroke-width="8.4" stroke-linecap="round"/>
<path d="M63.7998 21.0005L24.5998 21.0005" stroke="#1E6AC6" stroke-width="8.4" stroke-linecap="round"/>
<path d="M61 42.0005L37.2 42.0005" stroke="#1E6AC6" stroke-width="8.4" stroke-linecap="round"/>
<path d="M70.7998 58.8005L46.9998 58.8005" stroke="#1E6AC6" stroke-width="8.4" stroke-linecap="round"/>
<path d="M73.6252 53.619C75.7547 55.7233 75.802 59.1828 73.7306 61.3461C71.6604 63.5094 68.255 63.5575 66.1256 61.4531C65.8462 61.179 65.5716 60.8988 65.3029 60.6174C58.7016 53.6863 55.4004 44.8277 55.4004 35.9738C55.4004 27.12 58.7016 18.2613 65.3029 11.3302C65.5716 11.0489 65.8462 10.7687 66.1256 10.4945C73.2394 3.4985 82.5311 0.000488281 91.8004 0.000488281C101.071 0.000488281 110.361 3.4985 117.475 10.4945C117.755 10.7687 118.029 11.0489 118.298 11.3302C124.899 18.2613 128.2 27.12 128.2 35.9738C128.2 44.8277 124.899 53.6863 118.298 60.6174C118.029 60.9 117.755 61.179 117.475 61.4531C115.346 63.5575 111.942 63.5094 109.87 61.3461C107.8 59.1828 107.846 55.7233 109.976 53.619C110.184 53.4134 110.389 53.2053 110.587 52.9973C115.139 48.2187 117.414 42.098 117.414 35.9738C117.414 29.8484 115.137 23.7278 110.587 18.9503C110.389 18.7411 110.184 18.5331 109.976 18.3287C106.35 14.7633 101.889 12.4918 97.192 11.5142V35.9738C97.192 39.0005 94.7773 41.4535 91.7992 41.4535C88.8211 41.4535 86.4064 39.0005 86.4064 35.9738V11.5142C81.7097 12.4918 77.2484 14.7633 73.6229 18.3287C73.4146 18.5343 73.2098 18.7423 73.0109 18.9503C68.4597 23.729 66.1847 29.8496 66.1847 35.9738C66.1847 42.0992 68.4597 48.2199 73.0109 52.9973C73.2098 53.2065 73.4146 53.4134 73.6229 53.619H73.6252Z" fill="#1E6AC6"/>
</svg>
