<svg width="129" height="130" viewBox="0 0 129 130" fill="none" xmlns="http://www.w3.org/2000/svg">
<path d="M120.858 8.90941C122.72 10.7714 125.739 10.7714 127.601 8.90941C129.463 7.04741 129.463 4.02901 127.601 2.16701C125.739 0.305008 122.72 0.305008 120.858 2.16701C118.996 4.02901 118.996 7.04741 120.858 8.90941Z" fill="white" fill-opacity="0.3"/>
<path d="M90.9883 38.7798C92.8503 40.6418 95.8687 40.6418 97.7307 38.7798C99.5927 36.9178 99.5927 33.8994 97.7307 32.0374C95.8687 30.1754 92.8503 30.1754 90.9883 32.0374C89.1263 33.8994 89.1263 36.9178 90.9883 38.7798Z" fill="white" fill-opacity="0.3"/>
<path d="M61.1182 68.6306C62.9802 70.4926 65.9986 70.4926 67.8606 68.6306C69.7226 66.7686 69.7226 63.7502 67.8606 61.8882C65.9986 60.0262 62.9802 60.0262 61.1182 61.8882C59.2562 63.7502 59.2562 66.7686 61.1182 68.6306Z" fill="white" fill-opacity="0.3"/>
<path d="M31.2666 98.501C33.1286 100.363 36.147 100.363 38.009 98.501C39.871 96.639 39.871 93.6206 38.009 91.7586C36.147 89.8966 33.1286 89.8966 31.2666 91.7586C29.4046 93.6206 29.4046 96.639 31.2666 98.501Z" fill="white" fill-opacity="0.3"/>
<path d="M8.13891 121.629C6.27691 119.767 3.2585 119.767 1.3965 121.629C-0.4655 123.491 -0.4655 126.509 1.3965 128.371C3.2585 130.233 6.27691 130.233 8.13891 128.371C10.0009 126.509 10.0009 123.491 8.13891 121.629Z" fill="white" fill-opacity="0.3"/>
</svg>
