<svg width="324" height="311" viewBox="0 0 324 311" fill="none" xmlns="http://www.w3.org/2000/svg">
<path d="M87.7382 41.8359H89.4691V53.5685H87.7382C87.5639 53.5685 87.3913 53.5342 87.2303 53.4675C87.0693 53.4008 86.923 53.3031 86.7998 53.1799C86.6766 53.0566 86.5788 52.9103 86.5121 52.7493C86.4455 52.5883 86.4111 52.4158 86.4111 52.2415V43.163C86.4111 42.811 86.5509 42.4735 86.7998 42.2246C87.0487 41.9757 87.3862 41.8359 87.7382 41.8359Z" fill="#333333"/>
<path d="M87.7382 64.8799H89.4691V86.7526H87.7382C87.3862 86.7526 87.0487 86.6128 86.7998 86.364C86.5509 86.1151 86.4111 85.7776 86.4111 85.4256V66.2069C86.4111 65.8549 86.5509 65.5174 86.7998 65.2686C87.0487 65.0197 87.3862 64.8799 87.7382 64.8799Z" fill="#333333"/>
<path d="M241.084 106.482H239.353V72.5592H241.084C241.436 72.5592 241.774 72.6991 242.022 72.9479C242.271 73.1968 242.411 73.5343 242.411 73.8863V105.155C242.411 105.507 242.271 105.844 242.022 106.093C241.774 106.342 241.436 106.482 241.084 106.482Z" fill="#333333"/>
<path d="M87.7382 92.8682H89.4691V114.741H87.7382C87.3862 114.741 87.0487 114.601 86.7998 114.352C86.5509 114.103 86.4111 113.766 86.4111 113.414V94.1952C86.4111 93.8432 86.5509 93.5057 86.7998 93.2568C87.0487 93.008 87.3862 92.8682 87.7382 92.8682Z" fill="#333333"/>
<path d="M217.911 0H110.904C98.2214 0 87.9404 10.281 87.9404 22.9632V287.361C87.9404 300.043 98.2214 310.324 110.904 310.324H217.911C230.593 310.324 240.874 300.043 240.874 287.361V22.9632C240.874 10.281 230.593 0 217.911 0Z" fill="#444444"/>
<path d="M217.91 2.68604H110.901C99.7016 2.68604 90.623 11.7646 90.623 22.9635V287.364C90.623 298.563 99.7016 307.641 110.901 307.641H217.91C229.109 307.641 238.188 298.563 238.188 287.364V22.9635C238.188 11.7646 229.109 2.68604 217.91 2.68604Z" fill="#444444"/>
<path d="M217.91 2.85596H110.9C99.7953 2.85596 90.793 11.8583 90.793 22.9632V287.363C90.793 298.468 99.7953 307.471 110.9 307.471H217.91C229.015 307.471 238.017 298.468 238.017 287.363V22.9632C238.017 11.8583 229.015 2.85596 217.91 2.85596Z" fill="#434343"/>
<path d="M217.911 3.02637H110.901C99.89 3.02637 90.9639 11.9525 90.9639 22.9634V287.364C90.9639 298.375 99.89 307.301 110.901 307.301H217.911C228.922 307.301 237.848 298.375 237.848 287.364V22.9634C237.848 11.9525 228.922 3.02637 217.911 3.02637Z" fill="#414141"/>
<path d="M217.91 3.19629H110.901C99.9837 3.19629 91.1338 12.0462 91.1338 22.9631V287.363C91.1338 298.28 99.9837 307.13 110.901 307.13H217.91C228.827 307.13 237.677 298.28 237.677 287.363V22.9631C237.677 12.0462 228.827 3.19629 217.91 3.19629Z" fill="#404040"/>
<path d="M217.91 3.3667H110.9C100.077 3.3667 91.3037 12.1404 91.3037 22.9633V287.364C91.3037 298.187 100.077 306.96 110.9 306.96H217.91C228.733 306.96 237.507 298.187 237.507 287.364V22.9633C237.507 12.1404 228.733 3.3667 217.91 3.3667Z" fill="#3E3E3E"/>
<path d="M217.913 3.53662H110.903C100.174 3.53662 91.4766 12.2341 91.4766 22.9631V287.363C91.4766 298.092 100.174 306.79 110.903 306.79H217.913C228.642 306.79 237.339 298.092 237.339 287.363V22.9631C237.339 12.2341 228.642 3.53662 217.913 3.53662Z" fill="#3D3D3D"/>
<path d="M217.911 3.70703H110.904C100.269 3.70703 91.6475 12.3283 91.6475 22.9633V287.361C91.6475 297.996 100.269 306.617 110.904 306.617H217.911C228.546 306.617 237.167 297.996 237.167 287.361V22.9633C237.167 12.3283 228.546 3.70703 217.911 3.70703Z" fill="#3B3B3B"/>
<path d="M217.91 3.87744H110.903C100.362 3.87744 91.8174 12.4225 91.8174 22.9635V287.361C91.8174 297.902 100.362 306.447 110.903 306.447H217.91C228.451 306.447 236.996 297.902 236.996 287.361V22.9635C236.996 12.4225 228.451 3.87744 217.91 3.87744Z" fill="#3A3A3A"/>
<path d="M217.91 4.04736H110.903C100.456 4.04736 91.9873 12.5163 91.9873 22.9632V287.361C91.9873 297.807 100.456 306.276 110.903 306.276H217.91C228.357 306.276 236.826 297.807 236.826 287.361V22.9632C236.826 12.5163 228.357 4.04736 217.91 4.04736Z" fill="#393939"/>
<path d="M217.91 4.2207H110.903C100.55 4.2207 92.1572 12.6134 92.1572 22.9663V287.364C92.1572 297.717 100.55 306.109 110.903 306.109H217.91C228.263 306.109 236.655 297.717 236.655 287.364V22.9663C236.655 12.6134 228.263 4.2207 217.91 4.2207Z" fill="#373737"/>
<path d="M217.91 4.39062H110.904C100.645 4.39062 92.3281 12.7071 92.3281 22.966V287.363C92.3281 297.622 100.645 305.939 110.904 305.939H217.91C228.169 305.939 236.486 297.622 236.486 287.363V22.966C236.486 12.7071 228.169 4.39062 217.91 4.39062Z" fill="#363636"/>
<path d="M217.91 4.56104H110.903C100.738 4.56104 92.498 12.8013 92.498 22.9662V287.364C92.498 297.529 100.738 305.769 110.903 305.769H217.91C228.075 305.769 236.315 297.529 236.315 287.364V22.9662C236.315 12.8013 228.075 4.56104 217.91 4.56104Z" fill="#343434"/>
<path d="M217.91 4.73096H110.9C100.831 4.73096 92.668 12.8938 92.668 22.9631V287.363C92.668 297.433 100.831 305.595 110.9 305.595H217.91C227.979 305.595 236.142 297.433 236.142 287.363V22.9631C236.142 12.8938 227.979 4.73096 217.91 4.73096Z" fill="#333333"/>
<path d="M217.911 4.90137H110.901C100.925 4.90137 92.8389 12.988 92.8389 22.9633V287.364C92.8389 297.339 100.925 305.425 110.901 305.425H217.911C227.886 305.425 235.973 297.339 235.973 287.364V22.9633C235.973 12.988 227.886 4.90137 217.911 4.90137Z" fill="#313131"/>
<path d="M217.91 5.07178H110.9C101.019 5.07178 93.0088 13.0822 93.0088 22.9635V287.364C93.0088 297.245 101.019 305.255 110.9 305.255H217.91C227.792 305.255 235.802 297.245 235.802 287.364V22.9635C235.802 13.0822 227.792 5.07178 217.91 5.07178Z" fill="#303030"/>
<path d="M217.91 5.2417H110.9C101.113 5.2417 93.1787 13.1759 93.1787 22.9632V287.363C93.1787 297.151 101.113 305.085 110.9 305.085H217.91C227.697 305.085 235.632 297.151 235.632 287.363V22.9632C235.632 13.1759 227.697 5.2417 217.91 5.2417Z" fill="#2F2F2F"/>
<path d="M217.911 5.41211H110.901C101.208 5.41211 93.3496 13.2701 93.3496 22.9634V287.364C93.3496 297.057 101.208 304.915 110.901 304.915H217.911C227.604 304.915 235.462 297.057 235.462 287.364V22.9634C235.462 13.2701 227.604 5.41211 217.911 5.41211Z" fill="#2D2D2D"/>
<path d="M217.91 5.58203H110.901C101.301 5.58203 93.5195 13.3638 93.5195 22.9631V287.363C93.5195 296.963 101.301 304.744 110.901 304.744H217.91C227.51 304.744 235.292 296.963 235.292 287.363V22.9631C235.292 13.3638 227.51 5.58203 217.91 5.58203Z" fill="#2C2C2C"/>
<path d="M217.91 5.75244H110.903C101.398 5.75244 93.6924 13.458 93.6924 22.9633V287.361C93.6924 296.866 101.398 304.572 110.903 304.572H217.91C227.415 304.572 235.121 296.866 235.121 287.361V22.9633C235.121 13.458 227.415 5.75244 217.91 5.75244Z" fill="#2A2A2A"/>
<path d="M217.91 5.92236H110.903C101.492 5.92236 93.8623 13.5517 93.8623 22.963V287.36C93.8623 296.772 101.492 304.401 110.903 304.401H217.91C227.321 304.401 234.951 296.772 234.951 287.36V22.963C234.951 13.5517 227.321 5.92236 217.91 5.92236Z" fill="#292929"/>
<path d="M217.911 6.09277H110.904C101.586 6.09277 94.0332 13.6459 94.0332 22.9632V287.361C94.0332 296.678 101.586 304.231 110.904 304.231H217.911C227.228 304.231 234.781 296.678 234.781 287.361V22.9632C234.781 13.6459 227.228 6.09277 217.911 6.09277Z" fill="#272727"/>
<path d="M217.91 6.26562H110.903C101.68 6.26562 94.2031 13.7426 94.2031 22.9659V287.363C94.2031 296.587 101.68 304.064 110.903 304.064H217.91C227.134 304.064 234.611 296.587 234.611 287.363V22.9659C234.611 13.7426 227.134 6.26562 217.91 6.26562Z" fill="#262626"/>
<path d="M217.91 3.57999C223.049 3.58533 227.976 5.6292 231.61 9.26308C235.244 12.897 237.288 17.8241 237.293 22.9631V287.363C237.288 292.503 235.244 297.43 231.61 301.063C227.976 304.697 223.049 306.741 217.91 306.747H110.903C105.764 306.741 100.836 304.697 97.2021 301.064C93.5677 297.43 91.5232 292.503 91.5171 287.363V22.9631C91.5232 17.8238 93.5677 12.8967 97.2021 9.26291C100.836 5.6291 105.764 3.58533 110.903 3.57999H217.91ZM217.91 2.4751H110.903C105.473 2.48273 100.268 4.64313 96.4284 8.48265C92.5889 12.3222 90.4285 17.5275 90.4209 22.9574V287.358C90.4285 292.788 92.5889 297.993 96.4284 301.832C100.268 305.672 105.473 307.832 110.903 307.84H217.91C223.34 307.832 228.545 305.672 232.385 301.832C236.224 297.993 238.385 292.788 238.392 287.358V22.9631C238.385 17.5332 236.224 12.3279 232.385 8.48842C228.545 4.6489 223.34 2.4885 217.91 2.48086V2.4751Z" fill="#2D2C2C"/>
<mask id="mask0_43_2111" style="mask-type:luminance" maskUnits="userSpaceOnUse" x="96" y="8" width="136" height="294">
<path d="M217.91 8.94873H203.997C203.567 8.94873 203.155 9.11914 202.851 9.42257C202.547 9.72599 202.376 10.1376 202.375 10.5671V10.7691C202.377 11.9757 202.141 13.171 201.681 14.2863C201.22 15.4017 200.544 16.4154 199.692 17.2693C198.839 18.1232 197.827 18.8007 196.712 19.2629C195.597 19.7251 194.402 19.963 193.196 19.963H135.165C132.73 19.963 130.395 18.9959 128.674 17.2744C126.952 15.5529 125.985 13.218 125.985 10.7835V10.5815C125.985 10.1523 125.814 9.74068 125.511 9.43717C125.207 9.13366 124.796 8.96315 124.367 8.96315H110.903C109.062 8.96277 107.24 9.32499 105.539 10.0291C103.838 10.7332 102.293 11.7655 100.992 13.0669C99.6898 14.3683 98.6573 15.9134 97.9528 17.6139C97.2483 19.3144 96.8857 21.137 96.8857 22.9776V287.378C96.8857 289.219 97.2483 291.041 97.9528 292.742C98.6573 294.442 99.6898 295.987 100.992 297.289C102.293 298.59 103.838 299.622 105.539 300.326C107.24 301.031 109.062 301.393 110.903 301.392H217.91C221.627 301.392 225.192 299.916 227.82 297.288C230.448 294.659 231.925 291.095 231.925 287.378V22.9632C231.925 19.2463 230.448 15.6817 227.82 13.0535C225.192 10.4253 221.627 8.94873 217.91 8.94873Z" fill="white"/>
</mask>
<g mask="url(#mask0_43_2111)">
<path d="M231.925 8.94873H96.8857V301.378H231.925V8.94873Z" fill="#9EA6FF"/>
<path d="M96.5979 301.666V69.8934H94.665C95.819 68.0971 96.9729 66.2989 98.1268 64.4988C100.471 60.9024 102.875 57.3079 105.339 53.7153C110.272 46.5379 115.443 39.3902 120.851 32.2724C126.259 25.1546 131.771 18.2627 137.386 11.5968C138.088 10.7641 138.79 9.9342 139.492 9.10722C139.84 8.6918 140.191 8.27927 140.545 7.86963V8.66584H232.214V266.281H233.945C232.46 267.487 230.975 268.677 229.49 269.852C223.548 274.549 217.614 278.972 211.688 283.123C205.763 287.273 199.872 291.137 194.016 294.714C191.088 296.502 188.172 298.217 185.266 299.858C183.812 300.677 182.363 301.478 180.919 302.261V301.666H96.5979Z" fill="#9EA6FF"/>
<path d="M96.5972 301.666V70.2715H95.9424C97.0732 68.4925 98.2195 66.7116 99.3811 64.9288C101.704 61.3689 104.086 57.811 106.527 54.2549C111.408 47.1506 116.526 40.076 121.88 33.0312C127.234 25.9865 132.685 19.1639 138.231 12.5634C139.616 10.9133 141.006 9.27853 142.403 7.65918V8.66022H232.213V264.637H233.785C232.318 265.831 230.848 267.009 229.377 268.171C223.498 272.817 217.625 277.194 211.76 281.302C200.662 289.13 189.059 296.216 177.026 302.512V301.666H96.5972Z" fill="#9FA7FF"/>
<path d="M96.5971 301.666V73.2916H95.5557C96.1057 72.4108 96.6615 71.53 97.2231 70.6492C98.3424 68.8856 99.4761 67.1229 100.624 65.3613C102.932 61.8398 105.289 58.3204 107.695 54.8028C112.528 47.7715 117.593 40.771 122.889 33.8012C128.186 26.8315 133.58 20.08 139.07 13.5469C140.444 11.914 141.82 10.2947 143.199 8.68881L144.237 7.48584V8.65997H232.224V262.989H233.638C232.184 264.168 230.729 265.334 229.273 266.486C223.454 271.084 217.643 275.411 211.84 279.467C200.858 287.214 189.376 294.225 177.467 300.455C176.06 301.185 174.656 301.897 173.256 302.589V301.652L96.5971 301.666Z" fill="#A0A7FE"/>
<path d="M96.5976 301.666V76.2575H95.2158C103.839 62.3036 113.41 48.3468 123.891 34.566C129.132 27.6751 134.469 20.9948 139.902 14.5251C141.248 12.9096 142.61 11.3075 143.987 9.71894C144.669 8.92273 145.354 8.13132 146.041 7.34473V8.66021H232.213V261.339H233.465C232.029 262.511 230.586 263.665 229.138 264.801C223.38 269.353 217.63 273.64 211.887 277.662C201.021 285.327 189.659 292.266 177.878 298.433C175.091 299.877 172.321 301.248 169.566 302.546V301.681L96.5976 301.666Z" fill="#A1A8FE"/>
<path d="M96.5975 301.666V76.5774H96.5254C105.059 62.7735 114.527 48.9638 124.898 35.3244C130.09 28.5085 135.37 21.8993 140.735 15.4969C142.082 13.8987 143.428 12.313 144.774 10.7399C145.452 9.95518 146.127 9.17339 146.794 8.3916V8.65412H232.184V259.692H233.278C231.853 260.846 230.429 261.987 229.005 263.116C223.311 267.62 217.622 271.861 211.939 275.838C201.188 283.422 189.947 290.285 178.29 296.384C175.532 297.815 172.792 299.172 170.068 300.455C168.707 301.099 167.35 301.722 165.998 302.324V301.666H96.5975Z" fill="#A2A8FD"/>
<path d="M96.5977 301.666V82.0213H94.7139C95.7409 80.3134 96.7813 78.6066 97.8353 76.9007C106.276 63.2439 115.643 49.5843 125.902 36.0948C131.031 29.3501 136.254 22.8111 141.572 16.478C144.226 13.3162 146.9 10.2064 149.595 7.14844V8.6572H232.213V258.042H233.145C231.737 259.196 230.329 260.325 228.919 261.429C223.286 265.883 217.659 270.078 212.037 274.015C201.401 281.516 190.281 288.305 178.749 294.339C173.297 297.17 167.912 299.708 162.594 301.955V301.666H96.5977Z" fill="#A3A9FD"/>
<path d="M96.5971 299.699V82.2751H96.0576C97.0731 80.5846 98.103 78.896 99.1473 77.2094C107.496 63.7026 116.762 50.1901 126.908 36.8477C131.979 30.178 137.145 23.7112 142.405 17.4473C145.034 14.3182 147.681 11.241 150.344 8.21582V8.64566H232.213V256.383H232.986C231.592 257.514 230.198 258.63 228.806 259.732C223.229 264.137 217.662 268.287 212.106 272.183C201.585 279.603 190.587 286.32 179.181 292.291C173.786 295.089 168.458 297.6 163.196 299.823C160.569 300.933 157.963 301.969 155.378 302.933V301.658H96.5971V299.699Z" fill="#A4AAFC"/>
<path d="M96.5977 297.575V85.056H95.9082C96.4044 84.2194 96.9025 83.3847 97.4025 82.5519C98.4065 80.8826 99.4248 79.2123 100.458 77.541C108.714 64.1842 117.879 50.8188 127.912 37.6236C132.928 31.0251 138.038 24.6294 143.242 18.4366C145.839 15.3402 148.455 12.2977 151.092 9.30903C151.75 8.56282 152.409 7.81853 153.071 7.07617V8.65994H232.213V254.75H232.825C231.448 255.87 230.07 256.973 228.691 258.062C223.179 262.418 217.674 266.519 212.175 270.366C201.771 277.71 190.892 284.36 179.611 290.271C168.938 295.804 158.509 300.215 148.455 303.423V301.692H96.5977V297.575Z" fill="#A6AAFC"/>
<path d="M96.5972 295.464V87.7566H95.8125C97.7357 84.4563 99.7205 81.1551 101.767 77.853C109.934 64.6404 118.995 51.425 128.919 38.377C133.881 31.8534 138.933 25.5289 144.076 19.4034C146.647 16.3436 149.235 13.3347 151.839 10.3768C152.491 9.6383 153.144 8.90267 153.798 8.16992V8.6488H232.213V253.089H232.666C231.3 254.197 229.938 255.289 228.578 256.366C223.126 260.676 217.681 264.735 212.244 268.543C201.955 275.798 191.198 282.367 180.044 288.206C169.491 293.687 159.175 298.04 149.245 301.211C146.764 302.005 144.308 302.723 141.877 303.366V301.655H96.5856L96.5972 295.464Z" fill="#A7ABFB"/>
<path d="M96.5975 293.329V90.4221H95.7695C96.2388 89.6086 96.7119 88.7941 97.1889 87.9786C99.0948 84.7092 101.057 81.4445 103.077 78.1847C111.154 65.1222 120.112 52.0539 129.923 39.1529C134.829 32.7025 139.83 26.452 144.924 20.4016C147.463 17.3744 150.022 14.3992 152.601 11.4759C153.887 10.0162 155.179 8.56799 156.475 7.13135V8.66896H232.213V251.462H232.502C231.155 252.558 229.809 253.638 228.463 254.701C223.078 258.961 217.693 262.974 212.308 266.74C202.134 273.915 191.498 280.41 180.468 286.184C170.037 291.593 159.833 295.906 150.019 299.044C145.281 300.568 140.466 301.841 135.595 302.858V301.675H96.5975V293.329Z" fill="#A8ABFB"/>
<path d="M96.5974 291.206V93.0183H95.781C96.6945 91.4085 97.6234 89.7969 98.5677 88.1833C100.452 84.9581 102.393 81.7309 104.389 78.5018C112.369 65.5893 121.228 52.6711 130.93 39.9144C135.778 33.537 140.719 27.3557 145.752 21.3707C148.252 18.3801 150.78 15.4395 153.336 12.5489C154.609 11.1026 155.886 9.66982 157.167 8.25049V8.66014H232.213V249.806H232.346C231.013 250.889 229.68 251.956 228.347 253.008C223.02 257.22 217.699 261.187 212.383 264.911C202.324 272.004 191.808 278.425 180.904 284.132C160.277 294.829 140.562 301.19 122.988 302.595C114.198 303.29 105.944 302.742 98.3802 300.864C97.434 300.632 96.4983 300.378 95.5732 300.103H96.5974V291.206Z" fill="#A9ACFA"/>
<path d="M96.5972 289.083V95.5657H95.8442C96.2885 94.7695 96.7376 93.9733 97.1915 93.1771C98.0935 91.5847 99.0108 89.9913 99.9436 88.3969C101.807 85.2082 103.73 82.0186 105.713 78.828C113.603 66.0626 122.359 53.2915 131.948 40.6819C136.727 34.3699 141.605 28.2589 146.583 22.3488C149.064 19.3928 151.564 16.4859 154.083 13.628C155.341 12.2009 156.604 10.7854 157.871 9.3815C158.506 8.67952 159.14 7.98139 159.775 7.28711V8.66029H232.213V246.54H234.16L232.184 248.159C230.869 249.23 229.552 250.288 228.235 251.332C222.967 255.494 217.706 259.415 212.452 263.096C202.509 270.107 192.115 276.454 181.336 282.096C160.943 292.669 141.456 298.958 124.084 300.331C115.398 301.02 107.236 300.478 99.759 298.629C98.8243 298.398 97.9002 298.147 96.9866 297.876C96.5289 297.739 96.075 297.598 95.625 297.452H96.5972V289.083Z" fill="#AAADFA"/>
<path d="M96.5977 286.957V98.0494H95.9602C99.422 91.7643 103.105 85.4639 107.009 79.148C114.798 66.5298 123.453 53.9086 132.941 41.4462C137.678 35.2169 142.503 29.177 147.417 23.3266C149.871 20.4052 152.342 17.5319 154.831 14.7067C156.077 13.2932 157.327 11.894 158.581 10.5093C159.206 9.81693 159.833 9.1265 160.462 8.43799V8.66012H232.214V244.928H233.976C233.328 245.462 232.678 245.994 232.026 246.523C230.722 247.583 229.42 248.627 228.12 249.656C222.916 253.77 217.716 257.645 212.522 261.282C202.694 268.211 192.42 274.485 181.767 280.062C161.619 290.499 142.351 296.713 125.181 298.06C116.595 298.738 108.532 298.205 101.138 296.378C99.2883 295.923 97.4834 295.385 95.7236 294.766H96.5891L96.5977 286.957Z" fill="#ABADF9"/>
<path d="M96.5976 284.833V102.801H94.8667C95.6956 101.253 96.538 99.7014 97.3938 98.1475C100.821 91.9374 104.462 85.711 108.316 79.4682C116.021 67 124.575 54.526 133.939 42.2135C143.303 29.9011 153.048 18.3214 163.003 7.55811V8.65145H232.213V243.275H233.794C233.15 243.805 232.507 244.331 231.864 244.853C230.578 245.901 229.292 246.932 228.007 247.948C222.861 252.014 217.722 255.844 212.591 259.438C202.879 266.286 192.727 272.485 182.199 277.996C162.279 288.324 143.254 294.466 126.277 295.81C117.792 296.479 109.833 295.952 102.517 294.146C100.69 293.696 98.9065 293.165 97.1659 292.553C96.2947 292.244 95.4351 291.917 94.5869 291.572H96.6063L96.5976 284.833Z" fill="#ACAEF9"/>
<path d="M96.5971 282.71V102.844H96.3404C97.1597 101.315 97.9934 99.782 98.8415 98.2453C102.226 92.1084 105.823 85.954 109.631 79.7824C117.244 67.4613 125.696 55.1374 134.951 42.9692C144.205 30.8009 153.829 19.3857 163.664 8.74355C164.279 8.0762 164.894 7.41461 165.51 6.75879V8.65989H232.213V241.653H233.609C232.975 242.178 232.339 242.698 231.702 243.214C230.433 244.247 229.163 245.266 227.891 246.272C222.808 250.287 217.731 254.071 212.66 257.623C203.064 264.391 193.032 270.518 182.628 275.962C162.948 286.169 144.142 292.236 127.372 293.56C118.989 294.223 111.116 293.701 103.899 291.918C102.093 291.47 100.329 290.944 98.6078 290.34C97.7482 290.04 96.8991 289.718 96.0605 289.374H96.5971V282.71Z" fill="#ADAEF8"/>
<path d="M96.5977 280.587V107.422H95.4236C96.991 104.405 98.6104 101.378 100.282 98.3435C103.626 92.2835 107.184 86.2061 110.956 80.1114C118.479 67.9403 126.822 55.7635 135.973 43.7424C145.123 31.7213 154.617 20.4214 164.336 9.92067C164.946 9.26293 165.555 8.60903 166.162 7.95898V8.66H232.225V240.023H233.44C232.811 240.542 232.183 241.057 231.556 241.567C230.302 242.588 229.046 243.595 227.788 244.587C222.765 248.557 217.749 252.295 212.741 255.803C203.261 262.488 193.35 268.54 183.073 273.92C163.63 284.017 145.048 289.997 128.484 291.31C120.199 291.965 112.421 291.448 105.29 289.686C101.782 288.828 98.3672 287.626 95.0947 286.1H96.6093L96.5977 280.587Z" fill="#AEAFF8"/>
<path d="M96.5975 278.464V111.876H94.6416C95.3897 110.39 96.1504 108.901 96.9235 107.411C98.4621 104.428 100.061 101.439 101.721 98.4446C105.023 92.4538 108.533 86.4495 112.251 80.4317C119.682 68.4078 127.93 56.3809 136.962 44.507C145.994 32.633 155.382 21.4687 164.982 11.0978C166.182 9.79961 167.385 8.5149 168.591 7.24365V8.6601H232.213V238.396H233.243C232.624 238.908 232.004 239.416 231.382 239.919C230.144 240.927 228.904 241.922 227.664 242.902C222.702 246.824 217.747 250.517 212.798 253.983C203.433 260.582 193.643 266.557 183.491 271.869C164.284 281.827 145.931 287.735 129.568 289.045C121.387 289.691 113.702 289.184 106.657 287.441C103.192 286.595 99.8201 285.408 96.5889 283.899L96.5975 278.464Z" fill="#AFB0F7"/>
<path d="M96.5974 276.34V111.81H96.1705C96.909 110.341 97.66 108.87 98.4235 107.399C99.9525 104.453 101.532 101.501 103.163 98.5427C106.433 92.6269 109.895 86.6966 113.549 80.7519C120.888 68.878 129.034 56.9983 137.954 45.2686C146.874 33.5388 156.143 22.5159 165.626 12.2719C166.81 10.991 167.999 9.72266 169.191 8.4668V8.6572H232.213V236.766H233.061C232.446 237.272 231.833 237.773 231.224 238.269C229.999 239.267 228.774 240.25 227.548 241.218C222.65 245.089 217.756 248.736 212.868 252.16C203.619 258.683 193.949 264.588 183.921 269.835C164.953 279.672 146.825 285.52 130.664 286.801C122.587 287.438 114.994 286.936 108.036 285.217C104.614 284.379 101.284 283.207 98.0918 281.718C97.3033 281.348 96.5282 280.964 95.7666 280.564H96.5974V276.34Z" fill="#B0B0F7"/>
<path d="M96.5975 274.214V116.085H95.5561C106.807 92.9492 121.355 69.2013 138.973 46.0361C147.78 34.4535 156.937 23.569 166.301 13.4519C167.472 12.1845 168.646 10.9345 169.823 9.70167L171.589 7.84961V8.6689H232.213V235.137H232.874C232.272 235.637 231.667 236.132 231.059 236.622C229.85 237.607 228.64 238.577 227.43 239.533C222.597 243.356 217.766 246.959 212.937 250.34C203.803 256.78 194.255 262.61 184.354 267.793C165.623 277.506 147.717 283.281 131.761 284.545C123.781 285.177 116.286 284.681 109.415 282.981C106.039 282.153 102.754 280.993 99.6064 279.52C98.0566 278.792 96.5458 277.984 95.0801 277.099H96.609L96.5975 274.214Z" fill="#B1B1F6"/>
<path d="M96.5972 272.097V120.239H95.0625C95.7318 118.816 96.4126 117.391 97.105 115.964C108.209 93.1278 122.584 69.6713 139.982 46.7917C148.677 35.3563 157.718 24.6074 166.964 14.6201C169.272 12.1199 171.595 9.67071 173.934 7.27246V8.65141H232.207V233.509H232.689C232.092 234 231.495 234.49 230.898 234.975C229.703 235.946 228.509 236.908 227.315 237.86C222.537 241.635 217.766 245.193 213 248.534C203.984 254.887 194.558 260.639 184.784 265.75C166.289 275.342 148.616 281.04 132.857 282.292C124.978 282.915 117.567 282.422 110.796 280.746C107.46 279.931 104.212 278.789 101.1 277.336C99.5698 276.617 98.0774 275.82 96.629 274.947C96.2693 274.728 95.9106 274.504 95.5529 274.275H96.5972V272.097Z" fill="#B2B1F6"/>
<path d="M96.5973 269.968V124.267H94.6904C95.9598 121.468 97.2791 118.66 98.6484 115.843C109.611 93.2979 123.801 70.1414 140.972 47.5647C149.557 36.2764 158.483 25.666 167.607 15.8056C169.89 13.3381 172.185 10.9197 174.491 8.55029V8.65992H232.213V231.879H232.502C231.925 232.364 231.325 232.849 230.733 233.322C229.556 234.283 228.377 235.229 227.196 236.157C222.481 239.885 217.769 243.396 213.061 246.69C204.16 252.971 194.853 258.657 185.202 263.71C166.944 273.178 149.496 278.81 133.939 280.039C126.149 280.653 118.857 280.168 112.161 278.515C108.867 277.71 105.661 276.581 102.589 275.146C101.078 274.439 99.6057 273.652 98.1782 272.789C97.4627 272.356 96.7598 271.905 96.0694 271.436H96.5829L96.5973 269.968Z" fill="#B3B2F5"/>
<path d="M96.5979 267.845V124.033H96.3094C97.5614 121.275 98.8644 118.505 100.218 115.722C111.036 93.4712 125.042 70.6147 141.991 48.3294C150.463 37.1882 159.271 26.7162 168.28 16.9828C170.532 14.548 172.796 12.1613 175.071 9.82269C175.648 9.24573 176.225 8.66876 176.779 8.0918V8.66876H232.214V228.81H234.072C231.746 230.743 229.424 232.632 227.105 234.479C222.449 238.158 217.799 241.62 213.157 244.864C204.37 251.059 195.184 256.668 185.658 261.654C149.618 280.345 116.774 283.881 95.6719 267.833L96.5979 267.845Z" fill="#B5B3F5"/>
<path d="M97.2867 265.721C96.6377 265.225 96.0001 264.715 95.3799 264.189H96.6088V127.878H96.1126C96.7031 126.517 97.3041 125.163 97.9156 123.817C99.1542 121.093 100.44 118.359 101.773 115.612C112.447 93.6557 126.271 71.0993 142.994 49.1082C151.36 38.1141 160.049 27.7778 168.94 18.1742C171.161 15.774 173.395 13.419 175.642 11.1093C176.763 9.95533 177.888 8.81198 179.017 7.6792V8.67446H232.213V227.192H233.866C231.57 229.115 229.273 230.982 226.977 232.794C222.384 236.423 217.797 239.843 213.214 243.052C204.543 249.167 195.477 254.703 186.076 259.623C150.509 278.068 118.101 281.559 97.2867 265.721Z" fill="#B6B3F5"/>
<path d="M98.8911 263.598C97.6119 262.625 96.386 261.584 95.2188 260.479H96.5977V131.606H96.0207C98.2632 126.28 100.702 120.907 103.337 115.485C113.869 93.8201 127.509 71.5665 144.013 49.8668C152.263 39.017 160.84 28.822 169.61 19.3453C171.802 16.9759 174.007 14.6517 176.225 12.3727C177.329 11.2361 178.438 10.1091 179.554 8.9917C180.111 8.43492 180.667 7.87815 181.224 7.32715V8.6686H232.213V225.582H233.656C231.39 227.474 229.125 229.317 226.859 231.109C222.33 234.692 217.805 238.065 213.283 241.229C204.729 247.262 195.784 252.724 186.509 257.577C151.415 275.781 119.437 279.222 98.8911 263.598Z" fill="#B7B4F4"/>
<path d="M100.506 261.472C99.2441 260.514 98.0346 259.488 96.883 258.4C96.3061 257.857 95.7464 257.298 95.2012 256.727H96.5974V135.186H96.0435C96.5744 133.88 97.1157 132.57 97.6677 131.257C99.8775 126.004 102.282 120.704 104.88 115.356C115.265 93.9819 128.726 72.0284 145.002 50.623C153.143 39.9202 161.601 29.8522 170.256 20.514C174.583 15.8406 178.952 11.347 183.362 7.0332V8.66025H232.213V223.972H233.451C231.218 225.84 228.983 227.657 226.746 229.425C222.275 232.959 217.809 236.289 213.349 239.412C204.909 245.363 196.086 250.75 186.936 255.538C152.321 273.49 120.775 276.889 100.506 261.472Z" fill="#B8B4F4"/>
<path d="M102.122 259.349C99.6326 257.457 97.3522 255.305 95.3193 252.93H96.5973V138.645H96.1934C97.1897 136.083 98.232 133.507 99.3206 130.916C101.502 125.735 103.874 120.507 106.437 115.231C116.684 94.1518 129.955 72.5012 146.012 51.3871C154.04 40.8315 162.383 30.9049 170.916 21.6907C175.186 17.075 179.496 12.6429 183.846 8.39453V8.65994H232.213V222.362H233.246C231.046 224.203 228.842 225.995 226.634 227.74C222.226 231.224 217.822 234.507 213.421 237.588C205.098 243.459 196.396 248.773 187.371 253.495C153.226 271.202 122.111 274.552 102.122 259.349Z" fill="#B9B5F3"/>
<path d="M103.735 257.226C101.282 255.359 99.0349 253.238 97.0305 250.896C96.5256 250.319 96.0381 249.714 95.565 249.099H96.5978V145.742H95.0977C98.8216 135.302 103.127 125.08 107.993 115.122C118.09 94.3368 131.184 72.9833 147.016 52.1635C154.935 41.755 163.171 31.9697 171.577 22.8796C175.785 18.3331 180.035 13.9626 184.325 9.76805C185.399 8.72182 186.472 7.6852 187.545 6.6582V8.67758H232.214V220.747H233.041C230.868 222.561 228.695 224.328 226.522 226.049C222.171 229.484 217.828 232.722 213.491 235.763C205.288 241.551 196.711 246.791 187.816 251.447C154.133 268.924 123.45 272.218 103.735 257.226Z" fill="#BAB5F3"/>
<path d="M105.364 255.102C102.938 253.263 100.713 251.171 98.729 248.862C97.7404 247.708 96.8058 246.501 95.9249 245.239H96.5884V148.848H95.5557C95.9672 147.627 96.3913 146.403 96.8279 145.176C100.502 134.884 104.748 124.806 109.547 114.989C119.511 94.5067 132.412 73.4474 148.022 52.9161C155.811 42.6548 163.941 33.0108 172.237 24.0448C176.386 19.5617 180.575 15.2528 184.806 11.1178C185.862 10.0851 186.92 9.06288 187.98 8.05127V8.65997H232.213V219.143H232.833C230.693 220.933 228.55 222.676 226.406 224.37C222.119 227.761 217.837 230.952 213.56 233.945C205.467 239.652 197.007 244.819 188.234 249.41C155.038 266.616 124.788 269.884 105.364 255.102Z" fill="#BBB6F2"/>
<path d="M106.965 252.979C102.165 249.296 98.1763 244.662 95.2471 239.369H96.5972V151.837H96.1327C96.902 149.452 97.7136 147.048 98.5675 144.625C102.188 134.482 106.373 124.55 111.102 114.874C120.925 94.68 133.635 73.9092 149.029 53.6837C156.72 43.5666 164.717 34.0669 172.895 25.222C176.986 20.7986 181.116 16.5511 185.285 12.4797C186.326 11.4604 187.369 10.4526 188.415 9.45639C188.938 8.95732 189.46 8.46401 189.982 7.9707V8.66018H232.213V217.522H232.628C230.513 219.287 228.397 221.005 226.282 222.674C222.051 226.015 217.83 229.161 213.62 232.113C205.644 237.739 197.304 242.832 188.655 247.357C155.941 264.337 126.135 267.548 106.965 252.979Z" fill="#BCB7F2"/>
<path d="M108.581 250.856C103.854 247.224 99.9263 242.658 97.0418 237.441C96.2937 236.114 95.5994 234.738 94.959 233.313H96.6062V158.178H95.7869C97.1043 153.562 98.6112 148.859 100.307 144.068C103.874 134.071 107.997 124.281 112.657 114.744C122.336 94.8383 134.871 74.3849 150.033 54.4507C157.615 44.4808 165.496 35.1224 173.556 26.4016C177.595 22.0493 181.664 17.8634 185.765 13.8439C187.819 11.8361 189.878 9.87149 191.944 7.9502V8.66275H232.213V215.923H232.424C230.341 217.654 228.259 219.347 226.178 221.001C222.013 224.293 217.853 227.394 213.699 230.304C205.837 235.848 197.618 240.866 189.094 245.325C156.847 262.049 127.462 265.213 108.581 250.856Z" fill="#BDB7F1"/>
<path d="M110.197 248.73C105.535 245.153 101.662 240.653 98.819 235.511C97.3135 232.821 96.0452 230.004 95.0283 227.094H96.5977V164.204H95.7813C96.3371 161.966 96.94 159.708 97.59 157.431C98.8901 152.873 100.375 148.238 102.044 143.526C105.559 133.676 109.622 124.031 114.212 114.634C123.75 95.0175 136.1 74.8698 151.04 55.2241C158.509 45.4013 166.275 36.167 174.217 27.5875C178.186 23.2987 182.196 19.1744 186.247 15.2145C188.268 13.2355 190.297 11.3007 192.334 9.41019C192.841 8.93708 193.352 8.46685 193.86 7.99951V8.67168H232.228V214.314C230.18 216.027 228.129 217.695 226.075 219.316C221.972 222.559 217.874 225.614 213.779 228.481C206.037 233.944 197.942 238.888 189.547 243.283C157.753 259.761 128.798 262.88 110.197 248.73Z" fill="#BEB8F1"/>
<path d="M111.812 246.606C107.22 243.085 103.404 238.653 100.602 233.59C99.1214 230.939 97.8725 228.165 96.8687 225.299C96.3495 223.826 95.8802 222.309 95.4609 220.75H96.5976V169.867H96.1071C103.388 135.37 122.61 94.6798 152.044 55.9769C159.403 46.3012 167.045 37.2053 174.874 28.7528C178.786 24.5217 182.737 20.4589 186.725 16.5644C188.72 14.6181 190.719 12.7122 192.723 10.8467C193.723 9.91391 194.726 8.99269 195.732 8.08301V8.65997H232.213V211.429H233.526L232.008 212.704C229.989 214.391 227.97 216.033 225.95 217.631C221.912 220.828 217.873 223.837 213.834 226.661C206.205 232.038 198.228 236.905 189.956 241.229C158.659 257.474 130.137 260.557 111.812 246.606Z" fill="#BFB8F0"/>
<path d="M113.442 244.483C104.418 237.62 98.7582 227.22 96.2513 214.29H96.6119V193.119H94.8291C95.1954 184.974 96.2473 176.874 97.9736 168.906C105.145 134.932 124.075 94.8585 153.074 56.7413C167.567 37.6812 183.206 20.9146 199.072 6.91455V8.64545H232.248V209.836H233.33C232.834 210.257 232.336 210.676 231.838 211.091C229.836 212.757 227.835 214.375 225.835 215.946C221.854 219.093 217.878 222.056 213.906 224.837C206.393 230.141 198.536 234.943 190.389 239.21C159.565 255.186 131.475 258.209 113.442 244.483Z" fill="#C0B9F0"/>
<path d="M115.04 242.36C106.157 235.604 100.584 225.362 98.1146 212.629C95.6452 199.895 96.2827 184.686 99.8138 167.954C106.873 134.49 125.512 95.0461 154.049 57.5145C168.32 38.7487 183.719 22.2388 199.34 8.45508V8.66856H232.213V208.247H233.078C232.588 208.662 232.098 209.072 231.61 209.481C229.65 211.12 227.691 212.713 225.731 214.262C221.811 217.36 217.897 220.278 213.987 223.017C206.588 228.234 198.852 232.956 190.83 237.153C160.464 252.895 132.81 255.875 115.04 242.36Z" fill="#C1BAEF"/>
<path d="M116.656 240.237C99.165 226.935 94.7166 199.916 101.655 166.985C108.593 134.055 126.952 95.2165 155.05 58.2705C169.099 39.8076 184.253 23.5459 199.632 9.97851C200.594 9.13037 201.555 8.2928 202.517 7.46582V8.66014H232.213V206.657H232.836C232.355 207.064 231.873 207.471 231.394 207.872C229.471 209.486 227.543 211.054 225.61 212.577C221.75 215.627 217.896 218.501 214.047 221.197C206.766 226.334 199.153 230.983 191.257 235.113C161.373 250.608 134.149 253.539 116.656 240.237Z" fill="#C2BAEF"/>
<path d="M118.272 238.114C101.058 225.022 96.6815 198.43 103.519 166.025C110.356 133.62 128.415 95.3956 156.066 59.0352C169.893 40.8608 184.807 24.8644 199.941 11.5105C200.887 10.6739 201.834 9.84888 202.783 9.03536C203.256 8.62764 203.73 8.22376 204.205 7.82373V8.66033H232.214V203.854H234.028C233.08 204.667 232.132 205.47 231.184 206.262C229.285 207.849 227.387 209.392 225.489 210.893C221.693 213.895 217.9 216.722 214.111 219.374C206.944 224.43 199.45 229.005 191.679 233.071C162.28 248.32 135.485 251.205 118.272 238.114Z" fill="#C3BBEE"/>
<path d="M119.887 235.99C102.95 223.109 98.6429 196.947 105.365 165.07C112.086 133.192 129.857 95.577 157.064 59.8051C170.666 41.9192 185.335 26.1853 200.232 13.0449C202.094 11.4044 203.957 9.80335 205.823 8.2417V8.66577H232.205V202.284H233.768C232.835 203.086 231.903 203.876 230.97 204.655C229.11 206.215 227.245 207.732 225.373 209.207C221.637 212.162 217.906 214.943 214.18 217.553C207.128 222.527 199.755 227.028 192.108 231.028C163.185 246.032 136.824 248.871 119.887 235.99Z" fill="#C4BBEE"/>
<path d="M121.503 233.864C104.843 221.197 100.608 195.464 107.226 164.103C113.843 132.742 131.328 95.75 158.076 60.5637C171.456 42.9663 185.892 27.4949 200.538 14.5709C202.369 12.9554 204.203 11.3803 206.04 9.84555C206.957 9.07627 207.875 8.31948 208.795 7.5752V8.65989H232.214V200.709H233.526C232.609 201.499 231.691 202.277 230.774 203.042C228.939 204.581 227.103 206.074 225.264 207.523C221.589 210.429 217.918 213.164 214.253 215.73C207.318 220.624 200.066 225.052 192.544 228.986C164.091 243.742 138.162 246.534 121.503 233.864Z" fill="#C5BCEE"/>
<path d="M123.118 231.741C106.735 219.284 102.569 193.981 109.077 163.143C115.586 132.304 132.77 95.9261 159.083 61.3283C172.241 44.0194 186.434 28.8106 200.835 16.1029C204.435 12.9276 208.044 9.91012 211.662 7.05029V8.66003H232.213V199.139H233.275C232.371 199.909 231.469 200.673 230.569 201.433C228.763 202.943 226.956 204.411 225.148 205.838C221.537 208.694 217.928 211.387 214.322 213.916C207.501 218.727 200.37 223.081 192.974 226.949C164.994 241.454 139.498 244.201 123.118 231.741Z" fill="#C6BDED"/>
<path d="M124.733 229.618C108.627 217.372 104.539 192.496 110.932 162.182C117.325 131.868 134.213 96.1223 160.087 62.0813C173.022 45.0609 186.976 30.1146 201.132 17.6233C204.671 14.498 208.219 11.5315 211.777 8.72356C212.666 8.02158 213.554 7.32923 214.443 6.64648V8.64856H232.213V197.567H233.021C232.136 198.337 231.25 199.089 230.361 199.823C228.588 201.306 226.813 202.748 225.036 204.15C221.482 206.96 217.933 209.606 214.391 212.087C207.686 216.815 200.676 221.095 193.406 224.898C165.9 239.167 140.848 241.867 124.733 229.618Z" fill="#C8BDED"/>
<path d="M126.346 227.495C94.6909 203.438 110.252 129.713 161.094 62.8575C173.804 46.1457 187.516 31.4417 201.432 19.1667C204.908 16.0896 208.394 13.174 211.893 10.4199C212.764 9.73143 213.636 9.05157 214.509 8.38037V8.66885H232.214V195.998H232.77C231.899 196.744 231.028 197.483 230.157 198.214C228.41 199.671 226.665 201.09 224.921 202.469C221.43 205.23 217.943 207.827 214.46 210.258C207.871 214.906 200.982 219.113 193.837 222.85C166.812 236.879 142.172 239.53 126.346 227.495Z" fill="#C9BEEC"/>
<path d="M127.962 225.363C96.8661 201.707 112.15 129.298 162.101 63.6131C174.586 47.1926 188.064 32.7454 201.73 20.6868C205.145 17.6731 208.57 14.8095 212.005 12.0958C213.723 10.7496 215.437 9.43312 217.149 8.14648V8.65133H232.214V194.426H232.519C231.662 195.16 230.805 195.886 229.949 196.604C228.245 198.035 226.528 199.428 224.797 200.784C221.366 203.496 217.94 206.05 214.521 208.446C208.047 213.012 201.278 217.145 194.258 220.816C167.712 234.594 143.511 237.19 127.962 225.363Z" fill="#CABEEC"/>
<path d="M129.577 223.248C99.035 200.019 114.045 128.897 163.104 64.3892C175.37 48.263 188.6 34.0754 202.026 22.2303C205.384 19.2705 208.75 16.4578 212.123 13.7922C213.808 12.4594 215.492 11.1661 217.175 9.91212C218.017 9.28515 218.858 8.6678 219.699 8.06006V8.66299H232.216V192.853H232.268C231.429 193.579 230.589 194.292 229.747 194.994C228.06 196.392 226.375 197.764 224.692 199.111C221.323 201.774 217.957 204.283 214.595 206.637C208.235 211.121 201.585 215.18 194.69 218.788C168.617 232.301 144.849 234.859 129.577 223.248Z" fill="#CBBFEB"/>
<path d="M131.192 221.125C101.204 198.317 115.943 128.487 164.111 65.1536C176.152 49.3188 189.142 35.3908 202.323 23.7592C208.633 18.1695 215.251 12.9369 222.145 8.08594V8.6629H232.213V190.214H233.251L232.008 191.284C231.183 191.994 230.357 192.694 229.53 193.384C227.88 194.763 226.227 196.109 224.571 197.423C221.265 200.04 217.962 202.503 214.662 204.811C208.419 209.215 201.891 213.201 195.123 216.743C169.52 230.013 146.184 232.526 131.192 221.125Z" fill="#CCBFEB"/>
<path d="M132.808 218.998C103.383 196.618 117.842 128.08 165.118 65.918C176.946 50.3774 189.688 36.7062 202.621 25.2909C208.813 19.8038 215.307 14.6675 222.073 9.90615C222.881 9.34073 223.689 8.78396 224.497 8.23584V8.65991H232.211V187.6H234.187C221.248 199.012 208.125 208.172 195.559 214.691C170.426 227.725 147.524 230.192 132.808 218.998Z" fill="#CDC0EA"/>
<path d="M134.424 216.875C105.547 194.916 119.737 127.671 166.122 66.6969C177.716 51.4477 190.228 38.0362 202.921 26.8344C208.997 21.4529 215.369 16.4149 222.007 11.7438C223.594 10.6322 225.178 9.5581 226.758 8.52148V8.67438H232.214V186.091H233.893C221.199 197.29 208.322 206.285 195.992 212.672C171.332 225.438 148.859 227.855 134.424 216.875Z" fill="#CEC1EA"/>
<path d="M136.036 214.752C107.716 193.214 121.635 127.278 167.126 67.447C178.501 52.4921 190.781 39.3373 203.218 28.3518C209.178 23.0736 215.427 18.1319 221.938 13.5498C225.049 11.3708 228.147 9.33986 231.23 7.45703V8.66001H232.213V184.536H233.595C221.144 195.522 208.514 204.335 196.421 210.607C172.238 223.147 150.198 225.521 136.036 214.752Z" fill="#CFC1E9"/>
<path d="M137.651 212.629C109.888 191.512 123.539 126.854 168.133 68.2114C179.282 53.5507 191.309 40.6526 203.515 29.8836C209.358 24.7086 215.485 19.8641 221.868 15.3729C224.92 13.2362 227.957 11.2447 230.979 9.3984C231.734 8.93682 232.487 8.48583 233.237 8.04541L232.213 8.65988V183.004H233.295C221.092 193.774 208.711 202.414 196.854 208.564C173.158 220.859 151.536 223.187 137.651 212.629Z" fill="#D0C2E9"/>
<path d="M139.267 210.506C112.057 189.813 125.42 126.448 169.137 68.9762C180.064 54.6069 191.852 41.9684 203.812 31.4157C209.539 26.3446 215.544 21.5965 221.799 17.1935C224.79 15.0991 227.766 13.148 230.728 11.3402C231.466 10.8863 232.205 10.444 232.943 10.0132H232.213V181.473H232.998C221.037 192.029 208.904 200.495 197.284 206.522C174.046 218.572 152.872 220.851 139.267 210.506Z" fill="#D1C2E8"/>
<path d="M140.883 208.382C114.227 188.111 127.324 126.038 170.144 69.7405C180.846 55.6654 192.394 43.2837 204.112 32.9474C209.721 27.9782 215.602 23.3263 221.73 19.0137C224.659 16.9539 227.575 15.0432 230.477 13.2815C231.2 12.8373 231.923 12.4036 232.646 11.9805H232.214V179.944H232.701C220.983 190.28 209.097 198.577 197.717 204.479C174.953 216.284 154.211 218.517 140.883 208.382Z" fill="#D2C3E8"/>
<path d="M142.497 206.257C116.398 186.418 129.224 125.631 171.138 70.5052C181.619 56.7243 192.927 44.5994 204.4 34.4765C209.895 29.6091 215.657 25.0526 221.66 20.8284C224.528 18.8167 227.383 16.9445 230.225 15.2117C230.935 14.7789 231.642 14.3549 232.348 13.9395H232.213V178.404H232.403C220.93 188.526 209.29 196.647 198.146 202.428C175.858 213.997 155.56 216.183 142.497 206.257Z" fill="#D3C3E8"/>
<path d="M144.113 204.133C118.568 184.707 131.131 125.222 172.154 71.2696C182.412 57.7831 193.478 45.9264 204.706 36.0084C210.081 31.2472 215.719 26.7899 221.591 22.6574C224.399 20.6919 227.192 18.86 229.971 17.1618C231.362 16.3137 232.746 15.5011 234.123 14.7241H232.213V174.999H234.209C233.509 175.634 232.807 176.261 232.103 176.88C220.876 186.787 209.483 194.737 198.579 200.395C176.764 211.706 156.884 213.846 144.113 204.133Z" fill="#D4C4E7"/>
<path d="M145.729 202.01C120.738 183.005 133.036 124.815 173.158 72.0339C183.194 58.8387 194.021 47.2243 205.004 37.54C210.262 32.882 215.777 28.522 221.522 24.4804C224.268 22.5571 227.001 20.7647 229.721 19.103C231.079 18.2741 232.432 17.4789 233.78 16.7173H232.213V173.511H233.863C233.181 174.13 232.495 174.742 231.807 175.348C220.821 185.041 209.68 192.819 199.009 198.352C177.67 209.418 158.223 211.515 145.729 202.01Z" fill="#D5C5E7"/>
<path d="M147.342 199.887C122.91 181.306 134.917 124.405 174.171 72.7986C183.979 59.8976 194.566 48.5487 205.31 39.0721C210.452 34.5165 215.845 30.2528 221.465 26.3009C224.157 24.42 226.829 22.668 229.481 21.0448C230.81 20.2332 232.134 19.4552 233.451 18.7109H232.225V172.019H233.532C232.863 172.625 232.189 173.224 231.512 173.817C220.772 183.293 209.876 190.898 199.442 196.318C178.573 207.131 159.559 209.179 147.342 199.887Z" fill="#D6C5E6"/>
<path d="M148.957 197.763C125.08 179.603 136.809 123.998 175.178 73.5628C184.764 60.9561 195.109 49.8639 205.607 40.6036C210.631 36.1521 215.9 31.9848 221.39 28.121C224.015 26.2843 226.627 24.5727 229.225 22.986C230.523 22.1936 231.815 21.433 233.102 20.7041H232.219V170.528H233.183C232.529 171.122 231.874 171.709 231.218 172.287C220.72 181.548 210.072 188.979 199.877 194.267C179.479 204.843 160.898 206.842 148.957 197.763Z" fill="#D7C6E6"/>
<path d="M150.573 195.649C127.249 177.91 138.713 123.598 176.175 74.3363C185.542 62.021 195.645 51.1885 205.889 42.1416C210.797 37.7952 215.944 33.726 221.306 29.9532C223.867 28.155 226.419 26.4818 228.959 24.9336C230.226 24.1643 231.489 23.422 232.747 22.7065H232.205V169.039H232.825C232.186 169.616 231.547 170.193 230.906 170.77C220.654 179.817 210.251 187.075 200.293 192.239C180.384 202.552 162.233 204.508 150.573 195.649Z" fill="#D8C6E5"/>
<path d="M152.188 193.514C129.421 176.205 140.612 123.182 177.183 75.0918C186.325 63.0707 196.188 52.4949 206.195 43.6645C210.987 39.4212 216.011 35.4484 221.245 31.7646C223.746 30.0125 226.236 28.3778 228.717 26.8604C229.95 26.1084 231.183 25.3862 232.415 24.6938H232.214V167.548H232.502C231.879 168.113 231.254 168.672 230.627 169.224C220.619 178.054 210.468 185.139 200.746 190.182C181.291 200.264 163.572 202.174 152.188 193.514Z" fill="#D9C7E5"/>
<path d="M153.803 191.391C131.59 174.5 142.506 122.772 178.186 75.8562C187.106 64.1294 196.73 53.8104 206.495 45.1963C211.168 41.0556 216.069 37.18 221.176 33.5877C223.616 31.878 226.045 30.2846 228.463 28.8076C229.671 28.069 230.874 27.3623 232.072 26.6872C232.672 26.3487 233.269 26.0179 233.863 25.6948H232.213V164.383H233.973C232.755 165.514 231.537 166.617 230.318 167.692C220.553 176.32 210.661 183.221 201.164 188.148C182.196 197.977 164.91 199.837 153.803 191.391Z" fill="#DAC7E4"/>
<path d="M155.42 189.268C133.76 172.798 144.405 122.374 179.193 76.6208C187.39 65.7754 196.635 55.7629 206.793 46.7283C211.35 42.6915 216.129 38.9123 221.107 35.4082C223.488 33.7408 225.857 32.1878 228.212 30.7492C229.389 30.0299 230.563 29.3404 231.732 28.6808C232.309 28.3519 232.891 28.0298 233.477 27.7144H232.214V162.935H233.584C232.399 164.037 231.212 165.113 230.021 166.163C220.501 174.561 210.843 181.303 201.597 186.097C183.1 195.689 166.235 197.504 155.42 189.268Z" fill="#DBC8E4"/>
<path d="M157.035 187.144C135.932 171.096 146.303 121.947 180.197 77.3883C188.185 66.8185 197.192 57.0594 207.089 48.2516C211.534 44.3215 216.193 40.6415 221.046 37.2286C223.365 35.6054 225.673 34.0928 227.97 32.6908C229.124 31.9907 230.266 31.3176 231.397 30.6714C231.974 30.3512 232.533 30.0367 233.102 29.731H232.236V161.487H233.217C232.063 162.56 230.909 163.608 229.755 164.631C220.478 172.816 211.067 179.381 202.061 184.055C184.005 193.402 167.584 195.167 157.035 187.144Z" fill="#DCC9E3"/>
<path d="M158.648 185.021C138.102 169.394 148.202 121.555 181.204 78.153C188.981 67.8633 197.751 58.3631 207.387 49.7893C211.711 45.9599 216.245 42.3752 220.969 39.052C223.227 37.4673 225.474 35.9931 227.71 34.6295C228.826 33.9487 229.939 33.2948 231.048 32.6679C231.602 32.3563 232.153 32.0505 232.707 31.7505H232.214V160.039H232.791C231.675 161.085 230.549 162.105 229.413 163.1C220.395 171.067 211.238 177.475 202.457 182.013C184.911 191.111 168.923 192.834 158.648 185.021Z" fill="#DDC9E3"/>
<path d="M160.263 182.898C140.271 167.695 150.097 121.139 182.208 78.917C198.256 57.803 216.852 41.772 233.924 32.9185H232.213V158.59H232.415C231.323 159.606 230.227 160.598 229.126 161.567C220.339 169.322 211.425 175.544 202.875 179.97C185.817 188.823 170.273 190.499 160.263 182.898Z" fill="#DECAE3"/>
<path d="M161.878 180.775C142.443 165.993 151.995 120.733 183.226 79.6816C198.833 59.156 216.895 43.5693 233.491 34.9639H232.213V155.642H233.618C233.087 156.148 232.556 156.648 232.026 157.142C230.964 158.129 229.898 159.09 228.829 160.027C220.284 167.568 211.618 173.614 203.319 177.913C186.716 186.536 171.597 188.163 161.878 180.775Z" fill="#DFCAE2"/>
<path d="M163.494 178.648C144.613 164.291 153.893 120.323 184.219 80.446C199.384 60.5061 216.938 45.3665 233.062 37.0034H232.213V154.234H233.186C232.668 154.727 232.152 155.207 231.636 155.677C230.604 156.638 229.569 157.577 228.532 158.492C220.233 165.814 211.8 171.69 203.752 175.87C187.625 184.248 172.933 185.84 163.494 178.648Z" fill="#E0CBE2"/>
<path d="M165.109 176.525C146.782 162.589 155.791 119.916 185.225 81.2105C199.938 61.8591 216.981 47.1696 232.631 39.0459H232.213V152.829H232.75C232.251 153.305 231.749 153.778 231.247 154.243C230.245 155.176 229.24 156.086 228.232 156.975C220.178 164.083 212.005 169.786 204.181 173.842C188.531 181.957 174.271 183.495 165.109 176.525Z" fill="#E1CBE1"/>
<path d="M166.725 174.402C148.954 160.89 157.687 119.507 186.232 81.9868C200.503 63.2354 217.025 48.97 232.199 41.1002C232.676 40.854 233.149 40.6145 233.618 40.3818H232.213V150.034H233.765C231.842 151.923 229.899 153.73 227.935 155.455C220.126 162.347 212.201 167.877 204.611 171.812C189.437 179.67 175.61 181.159 166.725 174.402Z" fill="#E2CCE1"/>
<path d="M168.337 172.282C151.124 159.187 159.599 119.1 187.236 82.7395C201.063 64.5651 217.068 50.7554 231.769 43.1308C232.229 42.8923 232.686 42.6606 233.142 42.4355H232.213V148.661H233.286C231.415 150.492 229.532 152.242 227.638 153.911C220.071 160.589 212.392 165.935 205.044 169.757C190.343 177.382 176.946 178.824 168.337 172.282Z" fill="#E3CCE0"/>
<path d="M169.953 170.156C153.296 157.486 161.483 118.69 188.243 83.5042C201.622 65.9067 217.111 52.5499 231.336 45.1734C232.229 44.7119 233.113 44.2743 233.99 43.8608H232.213V147.299H232.79C230.982 149.071 229.161 150.765 227.326 152.382C220.002 158.841 212.573 164.025 205.459 167.715C191.249 175.095 178.284 176.491 169.953 170.156Z" fill="#E4CDE0"/>
<path d="M171.569 168.032C155.466 155.783 163.379 118.283 189.247 84.2683C202.18 67.2479 217.155 54.3469 230.907 47.2156C231.766 46.7675 232.621 46.3444 233.471 45.9463H232.214V145.937H232.326C230.574 147.649 228.813 149.284 227.044 150.842C219.965 157.087 212.781 162.092 205.907 165.664C192.152 172.807 179.62 174.154 171.569 168.032Z" fill="#E5CEDF"/>
<path d="M173.184 165.906C157.635 154.079 165.277 117.874 190.253 85.0331C202.739 68.6126 217.198 56.1444 230.477 49.2612C231.304 48.8304 232.128 48.4217 232.949 48.0352H232.213V143.321H233.111C232.689 143.745 232.268 144.161 231.847 144.576C230.156 146.23 228.455 147.811 226.744 149.319C219.91 155.348 212.969 160.189 206.334 163.627C193.063 170.516 180.947 171.82 173.184 165.906Z" fill="#E6CEDF"/>
<path d="M174.8 163.783C159.798 152.382 167.175 117.467 191.243 85.7977C203.284 69.9658 217.227 57.9418 230.03 51.3009C230.832 50.8855 231.627 50.4913 232.415 50.1182H232.199V140.771H233.786C232.978 141.602 232.166 142.416 231.351 143.214C229.722 144.807 228.087 146.331 226.447 147.787C219.855 153.603 213.176 158.267 206.769 161.588C193.963 168.243 182.297 169.487 174.8 163.783Z" fill="#E7CFDF"/>
<path d="M176.415 161.66C161.99 150.68 169.073 117.057 192.264 86.5618C203.858 71.3126 217.296 59.7358 229.614 53.343C231.152 52.5449 232.675 51.8275 234.18 51.1909H232.213V139.498H233.231C232.452 140.3 231.671 141.085 230.886 141.852C229.317 143.391 227.738 144.858 226.149 146.255C219.802 151.857 213.363 156.352 207.199 159.545C194.869 165.935 183.632 167.149 176.415 161.66Z" fill="#E8CFDE"/>
<path d="M178.03 159.537C164.145 148.978 170.968 116.651 193.268 87.3266C204.418 72.6659 217.327 61.5334 229.181 55.3858C230.664 54.6165 232.127 53.927 233.572 53.3174H232.213V138.241H232.66C231.914 139.01 231.163 139.764 230.407 140.503C228.895 141.976 227.377 143.387 225.852 144.738C219.748 150.121 213.557 154.442 207.629 157.514C195.775 163.653 184.985 164.816 178.03 159.537Z" fill="#E9D0DE"/>
<path d="M179.643 157.413C166.318 147.276 172.87 116.241 194.275 88.0909C204.978 74.0187 217.371 63.3304 228.752 57.4281C230.173 56.6896 231.578 56.027 232.966 55.4404H232.213V135.838H233.163C232.805 136.213 232.447 136.588 232.087 136.957C231.367 137.696 230.646 138.42 229.923 139.129C228.475 140.545 227.017 141.9 225.55 143.194C219.693 148.364 213.748 152.509 208.059 155.46C196.681 161.363 186.307 162.473 179.643 157.413Z" fill="#EAD0DD"/>
<path d="M181.258 155.29C168.487 145.577 174.765 115.834 195.279 88.8581C205.537 75.3687 217.414 65.1275 228.318 59.4704C229.684 58.7627 231.03 58.128 232.357 57.5664H232.21V133.518H233.572C230.937 136.371 228.16 139.089 225.252 141.662C219.638 146.615 213.943 150.591 208.488 153.418C197.584 159.075 187.645 160.145 181.258 155.29Z" fill="#EBD1DD"/>
<path d="M182.874 153.167C170.657 143.875 176.663 115.425 196.286 89.623C206.094 76.7191 217.458 66.9223 227.889 61.5132C229.193 60.8362 230.481 60.2295 231.752 59.6929C232.39 59.4246 233.019 59.1736 233.645 58.9399H232.202V132.342H232.906C230.386 135.071 227.73 137.67 224.947 140.131C219.575 144.87 214.129 148.673 208.913 151.381C198.49 156.788 188.985 157.812 182.874 153.167Z" fill="#ECD1DC"/>
<path d="M184.489 151.041C172.829 142.173 178.558 115.018 197.289 90.3875C206.656 78.0722 217.497 68.7196 227.459 63.5586C228.701 62.9124 229.93 62.3355 231.145 61.8277C231.751 61.571 232.354 61.3344 232.951 61.1123H232.213V131.165H232.256C229.85 133.769 227.315 136.251 224.66 138.602C219.534 143.122 214.333 146.751 209.353 149.333C199.409 154.5 190.319 155.475 184.489 151.041Z" fill="#EDD2DC"/>
<path d="M186.105 148.915C174.999 140.468 180.457 114.605 198.297 91.1489C207.217 79.4192 217.541 70.5138 227.027 65.5951C229.248 64.4277 231.564 63.4492 233.95 62.6699H232.219V128.031H233.373C232.796 128.695 232.207 129.347 231.605 129.987C229.315 132.469 226.9 134.833 224.37 137.07C219.489 141.377 214.535 144.833 209.793 147.293C200.302 152.212 191.659 153.141 186.105 148.915Z" fill="#EED2DC"/>
<path d="M187.721 146.794C177.168 138.772 182.355 114.196 199.303 91.9162C207.776 80.7721 217.584 72.2994 226.596 67.6404C228.703 66.532 230.9 65.6027 233.162 64.8623H232.205V126.95H232.608C232.051 127.58 231.491 128.201 230.929 128.81C228.752 131.167 226.458 133.412 224.055 135.538C219.419 139.628 214.714 142.914 210.208 145.251C201.207 149.921 192.994 150.807 187.721 146.794Z" fill="#EFD3DB"/>
<path d="M189.336 144.671C179.34 137.069 184.253 113.803 200.298 92.6806C208.327 82.125 217.607 74.108 226.155 69.6827C228.153 68.6316 230.237 67.7514 232.383 67.0518H232.204V124.044H233.451C232.412 125.285 231.354 126.481 230.277 127.633C228.216 129.866 226.043 131.993 223.766 134.006C219.373 137.883 214.916 140.993 210.646 143.208C202.11 147.634 194.332 148.47 189.336 144.671Z" fill="#F0D4DB"/>
<path d="M190.949 142.548C181.524 135.356 186.14 113.385 201.314 93.4453C208.895 83.4754 217.671 75.9056 225.734 71.7255C227.621 70.7324 229.589 69.9005 231.616 69.2387C232.089 69.0887 232.56 68.9503 233.024 68.8291H232.213V123.064H232.603C231.622 124.233 230.628 125.362 229.62 126.451C227.672 128.559 225.619 130.569 223.47 132.471C219.318 136.135 215.104 139.072 211.079 141.163C203.016 145.346 195.66 146.137 190.949 142.548Z" fill="#F1D4DA"/>
<path d="M192.565 140.425C183.679 133.665 188.047 112.975 202.318 94.2097C209.455 84.8253 217.715 77.7027 225.305 73.7678C227.086 72.8331 228.942 72.0504 230.855 71.4282C231.708 71.1517 232.574 70.9206 233.451 70.7358H232.205V120.413H233.134C232.682 120.99 232.224 121.549 231.761 122.092C230.838 123.192 229.901 124.254 228.951 125.279C227.053 127.328 225.114 129.22 223.164 130.945C219.258 134.39 215.294 137.156 211.501 139.124C203.922 143.058 197.007 143.803 192.565 140.425Z" fill="#F2D5DA"/>
<path d="M194.18 138.298C185.851 131.966 189.945 112.566 203.324 94.9683C210.014 86.1725 217.749 79.4912 224.871 75.8044C226.537 74.9285 228.274 74.195 230.064 73.6119C230.871 73.3522 231.692 73.1346 232.522 72.96H232.216V117.914H233.491C220.108 135.509 202.508 144.634 194.18 138.298Z" fill="#F3D5D9"/>
<path d="M195.795 136.175C188.006 130.264 191.84 112.159 204.328 95.7387C210.574 87.5285 217.801 81.2944 224.441 77.8528C227.759 76.1219 230.932 75.1093 233.759 74.8843H232.213V117.15H232.481C219.996 133.57 203.57 142.089 195.795 136.175Z" fill="#F4D6D9"/>
<path d="M197.411 134.052C190.199 128.571 193.738 111.752 205.335 96.5031C211.134 88.8813 217.844 83.0915 224.009 79.8922C227.093 78.294 230.038 77.3449 232.663 77.1372H232.213V113.512H233.558C232.894 114.473 232.202 115.433 231.478 116.397C219.892 131.632 204.629 139.542 197.411 134.052Z" fill="#F5D6D9"/>
<path d="M199.026 131.929C192.362 126.86 195.636 111.343 206.333 97.2763C211.687 90.2402 217.873 84.8947 223.573 81.9435C226.417 80.4693 229.138 79.5923 231.561 79.3991C232.147 79.3559 232.735 79.3559 233.321 79.3991H232.207V110.298H234.126C233.027 112.078 231.803 113.861 230.465 115.621C219.768 129.696 205.69 136.998 199.026 131.929Z" fill="#F5D7D8"/>
<path d="M200.639 129.806C194.532 125.158 197.535 110.936 207.346 98.0323C212.25 91.5818 217.93 86.6834 223.146 83.9774C225.757 82.6273 228.249 81.8225 230.471 81.6465C231.512 81.5504 232.563 81.6234 233.581 81.8629H232.213V109.97H232.822C231.812 111.603 230.693 113.235 229.467 114.848C219.656 127.758 206.749 134.45 200.639 129.806Z" fill="#F6D7D8"/>
<path d="M202.255 127.682C196.702 123.459 199.431 110.526 208.35 98.7966C212.81 92.9346 217.974 88.4804 222.717 86.0196C225.088 84.7907 227.353 84.0608 229.375 83.8993C230.322 83.8137 231.277 83.8809 232.202 84.0983C232.63 84.2027 233.047 84.3496 233.446 84.5368H232.214V105.224H233.945C232.406 108.352 230.564 111.323 228.446 114.092C219.541 125.819 207.808 131.894 202.255 127.682Z" fill="#F7D8D7"/>
<path d="M203.87 125.547C198.873 121.748 201.328 110.111 209.351 99.5551C217.374 88.9995 227.938 83.5212 232.935 87.3234H232.208V105.354H232.395C231.012 108.17 229.356 110.843 227.451 113.336C219.428 123.883 208.869 129.358 203.87 125.547Z" fill="#F8D8D7"/>
<path d="M205.485 123.433C201.042 120.055 203.226 109.71 210.36 100.328C217.495 90.947 226.885 86.0774 231.327 89.4556C233.549 91.1432 234.111 94.5761 233.228 98.7563C232.346 102.936 230.018 107.869 226.449 112.566C219.315 121.945 209.928 126.811 205.485 123.433Z" fill="#F9D9D7"/>
<path d="M225.439 111.781C231.682 103.57 233.592 94.5183 229.705 91.5625C225.818 88.6067 217.606 92.8664 211.362 101.077C205.119 109.287 203.209 118.34 207.096 121.295C210.983 124.251 219.195 119.991 225.439 111.781Z" fill="#FAD9D6"/>
<path d="M226.301 110.751C231.694 103.679 233.352 95.8753 230.004 93.3222C226.655 90.7691 219.569 94.4329 214.176 101.506C208.783 108.578 207.126 116.382 210.474 118.935C213.822 121.488 220.908 117.824 226.301 110.751Z" fill="#FBDAD6"/>
<path d="M223.427 110.252C227.887 104.387 229.251 97.922 226.475 95.811C223.699 93.7 217.833 96.7426 213.374 102.607C208.915 108.471 207.55 114.936 210.326 117.047C213.103 119.158 218.968 116.116 223.427 110.252Z" fill="#FCDAD5"/>
<path d="M222.423 109.488C225.991 104.797 227.081 99.6244 224.859 97.9348C222.637 96.2452 217.944 98.6785 214.377 103.37C210.81 108.061 209.719 113.233 211.941 114.923C214.163 116.613 218.856 114.179 222.423 109.488Z" fill="#FDDBD5"/>
<path d="M221.417 108.723C224.094 105.204 224.912 101.324 223.246 100.057C221.579 98.7895 218.059 100.615 215.383 104.135C212.707 107.654 211.888 111.534 213.554 112.801C215.221 114.069 218.741 112.243 221.417 108.723Z" fill="#FDDBD5"/>
<path d="M215.176 110.691C214.065 109.848 214.599 107.26 216.396 104.921C218.193 102.581 220.527 101.358 221.638 102.203C222.749 103.049 222.215 105.633 220.418 107.973C218.62 110.313 216.287 111.536 215.176 110.691Z" fill="#FEDCD4"/>
<path d="M216.791 108.568C216.234 108.146 216.502 106.854 217.399 105.683C218.297 104.511 219.465 103.903 220.022 104.324C220.579 104.745 220.31 106.055 219.41 107.209C218.51 108.363 217.345 108.992 216.791 108.568Z" fill="#FFDCD4"/>
</g>
<path d="M172.224 13.2789H156.588C156.205 13.2789 155.838 13.1269 155.568 12.8564C155.297 12.5859 155.146 12.219 155.146 11.8365C155.146 11.4539 155.297 11.087 155.568 10.8165C155.838 10.546 156.205 10.394 156.588 10.394H172.224C172.606 10.394 172.973 10.546 173.244 10.8165C173.514 11.087 173.666 11.4539 173.666 11.8365C173.666 12.219 173.514 12.5859 173.244 12.8564C172.973 13.1269 172.606 13.2789 172.224 13.2789Z" fill="url(#paint0_linear_43_2111)"/>
<path d="M182.58 13.6291C183.571 12.6377 183.571 11.0303 182.58 10.0389C181.588 9.04749 179.981 9.04749 178.989 10.0389C177.998 11.0303 177.998 12.6377 178.989 13.6291C179.981 14.6205 181.588 14.6205 182.58 13.6291Z" fill="url(#paint1_linear_43_2111)"/>
<path d="M182.638 11.8335C182.638 12.1998 182.529 12.5579 182.326 12.8625C182.122 13.167 181.833 13.4044 181.494 13.5446C181.156 13.6848 180.784 13.7214 180.424 13.65C180.065 13.5785 179.735 13.4021 179.476 13.1431C179.217 12.8841 179.041 12.5541 178.969 12.1948C178.898 11.8356 178.934 11.4632 179.075 11.1248C179.215 10.7863 179.452 10.4971 179.757 10.2936C180.061 10.0901 180.419 9.98145 180.786 9.98145C181.029 9.98107 181.27 10.0287 181.495 10.1217C181.72 10.2146 181.924 10.351 182.096 10.5231C182.268 10.6951 182.405 10.8994 182.497 11.1243C182.59 11.3492 182.638 11.5902 182.638 11.8335Z" fill="url(#paint2_linear_43_2111)"/>
<path d="M182.315 11.8336C182.315 12.136 182.225 12.4317 182.057 12.6831C181.889 12.9345 181.65 13.1305 181.371 13.2462C181.092 13.3619 180.784 13.3922 180.488 13.3332C180.191 13.2742 179.918 13.1286 179.705 12.9148C179.491 12.701 179.345 12.4285 179.286 12.1319C179.227 11.8353 179.258 11.5279 179.373 11.2485C179.489 10.9692 179.685 10.7304 179.936 10.5624C180.188 10.3944 180.483 10.3047 180.786 10.3047C181.191 10.3047 181.58 10.4658 181.867 10.7525C182.154 11.0392 182.315 11.4281 182.315 11.8336Z" fill="url(#paint3_radial_43_2111)"/>
<path d="M181.871 11.3083C181.871 11.7699 181.383 12.1449 180.786 12.1449C180.189 12.1449 179.701 11.7699 179.701 11.3083C179.701 10.8468 180.186 10.4746 180.786 10.4746C181.386 10.4746 181.871 10.8323 181.871 11.3083Z" fill="url(#paint4_linear_43_2111)"/>
<path d="M240.874 29.6562H238.398V32.3391H240.874V29.6562Z" fill="#353535"/>
<path d="M87.9369 32.3389H90.4121V29.656H87.9369V32.3389Z" fill="#353535"/>
<path d="M240.874 276.747H238.398V279.43H240.874V276.747Z" fill="#353535"/>
<path d="M87.9369 279.427H90.4121V276.744H87.9369V279.427Z" fill="#353535"/>
<path d="M172.224 13.054H156.588C156.224 13.055 155.872 12.9182 155.605 12.671C155.337 12.4238 155.173 12.0844 155.146 11.7212C155.146 11.7587 155.146 11.7962 155.146 11.8337C155.146 12.2163 155.297 12.5831 155.568 12.8536C155.838 13.1241 156.205 13.2761 156.588 13.2761H172.224C172.606 13.2761 172.973 13.1241 173.244 12.8536C173.514 12.5831 173.666 12.2163 173.666 11.8337C173.666 11.7962 173.666 11.7587 173.666 11.7212C173.638 12.0844 173.474 12.4238 173.207 12.671C172.939 12.9182 172.588 13.055 172.224 13.054Z" fill="#4E4E4E"/>
<path d="M217.91 4.63037H110.903C106.042 4.63571 101.382 6.56885 97.9448 10.0057C94.5074 13.4426 92.5735 18.1026 92.5674 22.9635V24.2414C92.5735 19.3806 94.5074 14.7206 97.9448 11.2837C101.382 7.84683 106.042 5.91369 110.903 5.90835H217.91C222.771 5.91369 227.431 7.84683 230.869 11.2837C234.306 14.7206 236.24 19.3806 236.246 24.2414V22.9635C236.24 18.1026 234.306 13.4426 230.869 10.0057C227.431 6.56885 222.771 4.63571 217.91 4.63037Z" fill="url(#paint5_linear_43_2111)"/>
<path d="M214.411 6H114.411C104.47 6 96.4111 14.0589 96.4111 24V286C96.4111 295.941 104.47 304 114.411 304H214.411C224.352 304 232.411 295.941 232.411 286V24C232.411 14.0589 224.352 6 214.411 6Z" fill="url(#paint6_linear_43_2111)"/>
<path d="M197.975 92.0715L224.508 79.8157C226.757 78.7767 229.411 79.7296 230.433 81.9434L237.078 96.3292L253.033 54.0256L210.48 38.7465L217.125 53.1323C218.148 55.3462 217.153 57.9845 214.904 59.0235C214.782 59.0796 214.661 59.1289 214.537 59.1739L135.629 95.6257C120.449 102.957 109.536 115.631 104.17 130.254C98.8209 144.833 99.0017 161.361 105.983 176.474C108.364 181.629 111.357 186.264 114.834 190.337C118.446 194.567 122.593 198.227 127.13 201.263C129.157 202.625 129.662 205.37 128.261 207.393C127.785 208.079 127.15 208.595 126.439 208.923L126.444 208.936L99.9114 221.192C97.662 222.231 95.0083 221.278 93.9857 219.064L87.3407 204.678L71.3865 246.982L113.939 262.261L107.294 247.875C106.271 245.661 107.266 243.023 109.516 241.984C109.637 241.928 109.759 241.879 109.882 241.834L188.855 205.35C204.012 198.009 214.907 185.338 220.261 170.721C225.598 156.151 225.412 139.636 218.437 124.535C216.056 119.38 213.062 114.745 209.586 110.674C205.974 106.443 201.827 102.783 197.291 99.7471C195.264 98.385 194.758 95.6402 196.159 93.6175C196.635 92.931 197.271 92.4155 197.982 92.087L197.976 92.0743L197.975 92.0715ZM224.137 89.7183L208.424 96.9761C211.287 99.3842 213.967 102.037 216.431 104.923C220.455 109.636 223.89 114.938 226.583 120.768C234.559 138.036 234.762 156.947 228.642 173.65C222.519 190.366 210.042 204.865 192.67 213.278L117.285 248.104L126.557 268.177C127.031 269.204 127.107 270.413 126.673 271.563C125.805 273.864 123.226 275.056 120.911 274.225L64.0513 253.808C61.7368 252.977 60.5639 250.438 61.4317 248.137L82.7409 191.634C83.1397 190.558 83.9549 189.628 85.0882 189.104C87.3375 188.065 89.9913 189.018 91.0139 191.232L100.278 211.288L115.99 204.03C113.128 201.622 110.448 198.969 107.984 196.083C103.96 191.37 100.525 186.068 97.8319 180.238C89.8502 162.958 89.6528 144.034 95.7844 127.321C101.921 110.597 114.416 96.0957 131.81 87.6958L207.129 52.9017L197.858 32.8291C197.384 31.8025 197.308 30.5935 197.742 29.443C198.609 27.142 201.189 25.9503 203.504 26.7814L260.364 47.1978C262.678 48.0289 263.851 50.568 262.983 52.869L241.674 109.372C241.275 110.448 240.46 111.378 239.327 111.902C237.077 112.941 234.424 111.988 233.401 109.774L224.136 89.7169L224.137 89.7183Z" fill="#5484FF"/>
<path d="M149.313 180.191C153.022 181.47 154.952 185.499 153.624 189.189C152.297 192.878 148.215 194.832 144.506 193.552C144.021 193.387 143.538 193.211 143.061 193.031C131.345 188.586 122.566 180.043 117.772 169.666C112.979 159.289 112.166 147.066 116.378 135.264C116.55 134.784 116.729 134.303 116.918 133.826C121.713 121.661 131.03 112.383 142.213 107.217C153.398 102.051 166.501 100.973 178.871 105.209C179.357 105.374 179.84 105.55 180.316 105.73C192.033 110.175 200.812 118.718 205.605 129.095C210.399 139.472 211.212 151.695 207 163.498C206.829 163.979 206.648 164.459 206.46 164.936C205.03 168.589 200.897 170.429 197.226 169.048C193.557 167.667 191.74 163.586 193.17 159.933C193.31 159.576 193.444 159.218 193.572 158.863C196.476 150.726 195.907 142.284 192.591 135.106C189.275 127.927 183.215 122.022 175.139 118.958C174.786 118.824 174.426 118.694 174.064 118.57C167.76 116.412 161.148 116.236 154.952 117.708L168.194 146.376C169.832 149.923 168.247 154.144 164.654 155.804C161.061 157.463 156.82 155.934 155.181 152.387L141.939 123.718C136.802 127.482 132.649 132.63 130.205 138.829C130.065 139.187 129.93 139.545 129.803 139.899C126.899 148.036 127.468 156.478 130.784 163.656C134.1 170.835 140.158 176.741 148.236 179.804C148.589 179.939 148.948 180.067 149.311 180.192L149.313 180.191Z" fill="white"/>
<defs>
<linearGradient id="paint0_linear_43_2111" x1="164.406" y1="10.3883" x2="164.406" y2="13.2789" gradientUnits="userSpaceOnUse">
<stop/>
<stop offset="0.29" stop-color="#030303"/>
<stop offset="0.53" stop-color="#0E0E0D"/>
<stop offset="0.75" stop-color="#1F1F1E"/>
<stop offset="0.96" stop-color="#373736"/>
<stop offset="1" stop-color="#3C3C3B"/>
</linearGradient>
<linearGradient id="paint1_linear_43_2111" x1="180.784" y1="9.29508" x2="180.784" y2="14.3724" gradientUnits="userSpaceOnUse">
<stop/>
<stop offset="0.29" stop-color="#030303"/>
<stop offset="0.53" stop-color="#0E0E0D"/>
<stop offset="0.75" stop-color="#1F1F1E"/>
<stop offset="0.96" stop-color="#373736"/>
<stop offset="1" stop-color="#3C3C3B"/>
</linearGradient>
<linearGradient id="paint2_linear_43_2111" x1="180.786" y1="8.40345" x2="180.786" y2="14.4847" gradientUnits="userSpaceOnUse">
<stop/>
<stop offset="0.08"/>
<stop offset="1"/>
</linearGradient>
<radialGradient id="paint3_radial_43_2111" cx="0" cy="0" r="1" gradientUnits="userSpaceOnUse" gradientTransform="translate(180.786 11.8336) scale(1.3876)">
<stop stop-color="#009FE3"/>
<stop offset="1" stop-color="#112754"/>
</radialGradient>
<linearGradient id="paint4_linear_43_2111" x1="180.786" y1="9.69859" x2="180.786" y2="12.1911" gradientUnits="userSpaceOnUse">
<stop stop-color="white"/>
<stop offset="1" stop-color="#112754"/>
</linearGradient>
<linearGradient id="paint5_linear_43_2111" x1="164.405" y1="-0.80753" x2="164.405" y2="21.6941" gradientUnits="userSpaceOnUse">
<stop stop-color="white"/>
<stop offset="1"/>
</linearGradient>
<linearGradient id="paint6_linear_43_2111" x1="96.4111" y1="6" x2="255.566" y2="18.9274" gradientUnits="userSpaceOnUse">
<stop stop-color="#0A30A3"/>
<stop offset="1" stop-color="#001447"/>
</linearGradient>
</defs>
</svg>
