<svg width="567" height="423" viewBox="0 0 567 423" fill="none" xmlns="http://www.w3.org/2000/svg">
<path d="M108.378 270.897C108.378 270.897 100.062 382.099 91.5456 423H287.791C278.627 384.877 269.15 281.798 269.15 281.798L296.885 322.872L321.859 259.865C321.859 259.865 297.818 218.761 271.879 197.273C253.865 182.348 216.403 176.859 195.2 174.899V173.73C195.2 173.73 192.29 173.862 187.456 174.274C182.614 173.942 179.702 173.857 179.702 173.857L179.716 175.026C158.548 177.336 121.607 183.95 103.416 198.659C36.0927 253.093 1.273 418.856 0.411133 423H42.3196C64.9608 337.129 108.378 270.897 108.378 270.897Z" fill="#2A485E"/>
<path d="M321.857 259.865C321.857 259.865 305.157 231.314 284.579 209.366C277.187 237.101 274.936 266.207 277.902 294.758L296.889 322.874L321.857 259.865Z" fill="#193345"/>
<path d="M493.056 324.528C488.104 322.003 483.785 318.524 479.882 314.557L337.845 267.305C337.845 267.305 337.845 225.6 329.825 203.85C343.297 178.693 342.215 155.068 337.845 140.85C333.475 126.631 314.484 118.59 307.525 139.474C304.068 149.852 289.526 192.328 284.247 203.169C270.91 269.05 291.89 347.573 333.646 376.013C375.401 404.452 444.743 407.227 495.167 393.177C530.666 383.282 540.671 344.816 543.485 322.914C538.502 324.984 533.394 326.71 528.12 327.862C516.417 330.415 503.721 329.97 493.056 324.528Z" fill="#F7A87E"/>
<path d="M544.58 307.421L508.771 324.169L479.878 314.558C483.781 318.524 488.1 322.003 493.052 324.528C503.721 329.97 516.418 330.415 528.12 327.858C533.394 326.706 538.502 324.981 543.485 322.91C544.667 313.702 544.58 307.421 544.58 307.421Z" fill="#E98870"/>
<path d="M525.641 125.329L490.016 163.182C481.367 172.372 482.184 186.94 491.805 195.101C500.91 202.826 514.51 201.897 522.481 193.007L557.182 154.307C565.053 145.527 564.348 132.039 555.603 124.125C546.955 116.301 533.634 116.836 525.641 125.329Z" fill="#F7A87E"/>
<path d="M217.204 177.645L156.687 177.763L163.559 225.759H209.56L217.204 177.645Z" fill="#ECEADD"/>
<path d="M209.56 225.759H163.559L180.225 342.167L209.56 225.759Z" fill="white"/>
<path d="M161.785 147.911V167.774C169.738 173.594 179.005 177.218 188.65 177.625C188.873 177.635 189.099 177.642 189.321 177.645C189.544 177.648 189.767 177.635 189.989 177.625C199.012 177.246 207.704 174.046 215.297 168.877V147.911H161.785Z" fill="#E98870"/>
<path d="M228.96 122.764C243.153 117.512 254.738 105.644 259.646 91.3296C264.555 77.0148 262.691 60.5349 254.71 47.6785C261.583 46.0233 264.873 37.1412 262.274 30.5673C259.674 23.9935 252.839 19.8879 245.906 18.4992C249.16 15.4354 248.467 9.72542 245.475 6.40717C242.483 3.08893 237.92 1.68827 233.513 0.939724C226.427 -0.264109 219.177 -0.153763 212.011 0.395965C198.424 1.44074 150.418 -0.00168067 137.035 32.4442C119.746 37.8589 119.9 63.8045 119.759 70.8644C119.381 89.752 127.18 109.398 142.645 120.245C167.076 137.383 200.972 133.126 228.96 122.764Z" fill="#4E2F20"/>
<path d="M238.116 128.809C230.551 149.9 211.176 166.331 189.99 167.22C189.767 167.23 189.544 167.236 189.321 167.24C189.099 167.24 188.873 167.23 188.649 167.22C167.462 166.331 148.091 149.9 140.523 128.809C135.914 115.959 135.243 101.903 135.739 88.1635C136.234 74.4243 137.845 60.7199 137.587 46.9747C154.595 43.4785 172.051 40.7736 189.321 41.7707C206.592 40.7766 224.044 43.4785 241.052 46.9747C240.795 60.7199 242.403 74.4253 242.901 88.1635C243.399 101.902 242.725 115.959 238.116 128.809Z" fill="#F7A87E"/>
<path d="M245.79 100.354C238.515 89.6846 233.961 76.5338 234.619 63.6356C203.689 65.7912 172.649 61.5035 143.462 51.0436C143.801 68.0672 139.161 84.7946 131.937 100.214C131.06 83.2429 130.833 66.77 132.633 49.8726C132.832 47.948 133.078 45.9628 134.045 44.2848C135.763 41.3026 139.313 39.9795 142.613 38.9735C173.613 29.5019 207.844 28.1449 238.05 39.9089C241.232 41.1495 244.464 42.5929 246.774 45.1169C248.802 47.3287 249.966 50.2126 250.632 53.1381C251.831 58.4068 251.536 63.8871 251.234 69.283C250.631 80.0062 249.467 90.2631 245.79 100.354Z" fill="#4E2F20"/>
<path d="M123.809 68.8651C128.106 64.3279 131.874 59.3182 135.042 53.932C137.687 49.4318 140.339 44.2894 145.247 42.5119C149.762 40.8777 155.187 42.5726 159.328 40.146C161.438 38.9104 162.907 36.7482 165.077 35.619C169.313 33.4131 174.335 35.8078 178.876 37.288C189.115 40.6282 200.876 38.9154 209.74 32.7938C214.243 29.6823 218.148 25.21 219.074 19.8151C219.892 15.0554 218.315 10.2172 216.374 5.79354C215.553 3.92069 214.654 2.08263 213.697 0.275391C213.136 0.313166 212.576 0.351943 212.016 0.395683C207.025 0.779398 197.388 0.830095 186.531 2.34508C186.672 2.49021 186.813 2.63436 186.951 2.78247C189.337 5.34621 191.278 8.9587 190.093 12.2571C189.175 14.8099 186.666 16.3914 184.274 17.6708C176.939 21.592 169.117 24.5264 161.013 26.3979C159.072 26.8452 156.907 27.3711 155.844 29.0551C155.092 30.248 155.078 31.754 154.52 33.0443C153.427 35.5703 150.538 36.7592 147.851 37.3497C145.164 37.9402 142.274 38.2384 140.08 39.8975C138.987 40.7226 138.151 41.833 137.164 42.7803C134.019 45.8004 129.356 47.034 125.058 46.3083C124.581 46.2278 124.109 46.1205 123.643 45.9962C119.828 55.3734 119.85 66.5856 119.766 70.8632C119.753 71.5093 119.752 72.1555 119.758 72.8026C121.169 71.552 122.518 70.2289 123.809 68.8651Z" fill="#5E3B2B"/>
<path d="M173.413 80.3054C174.731 80.3492 176.082 80.4406 177.282 80.9864C178.482 81.5321 179.516 82.6246 179.632 83.9378C179.764 85.4409 178.656 86.8336 177.305 87.5056C175.954 88.1776 174.399 88.277 172.892 88.3496C167.972 88.5848 163.048 88.6531 158.12 88.5543C156.385 88.5195 152.652 88.2561 152.613 85.7461C152.578 83.6475 155.847 82.9726 157.418 82.4288C162.534 80.6574 168.025 80.1295 173.413 80.3054Z" fill="#452819"/>
<path d="M206.98 80.3054C205.662 80.3492 204.311 80.4406 203.11 80.9864C201.909 81.5321 200.875 82.6246 200.761 83.9378C200.629 85.4409 201.737 86.8336 203.088 87.5056C204.439 88.1776 205.994 88.277 207.501 88.3496C212.421 88.5848 217.345 88.6531 222.273 88.5543C224.007 88.5195 227.74 88.2561 227.78 85.7461C227.815 83.6475 224.544 82.9726 222.974 82.4288C217.858 80.6574 212.368 80.1295 206.98 80.3054Z" fill="#452819"/>
<path d="M166.127 107.906C169.042 107.906 171.405 105.543 171.405 102.628C171.405 99.7134 169.042 97.3506 166.127 97.3506C163.212 97.3506 160.85 99.7134 160.85 102.628C160.85 105.543 163.212 107.906 166.127 107.906Z" fill="#452819"/>
<path d="M212.208 107.906C215.123 107.906 217.486 105.543 217.486 102.628C217.486 99.7134 215.123 97.3506 212.208 97.3506C209.294 97.3506 206.931 99.7134 206.931 102.628C206.931 105.543 209.294 107.906 212.208 107.906Z" fill="#452819"/>
<path d="M191.431 147.916C187.679 147.981 183.969 148.785 180.45 150.102C182.91 151.636 186.028 152.635 189.993 152.635C194.566 152.635 198.015 151.311 200.621 149.365C197.668 148.34 194.556 147.85 191.431 147.916Z" fill="#F28487"/>
<path d="M181.276 137.418C183.513 138.412 185.872 139.156 188.301 139.468C193.016 140.075 197.894 138.999 202.037 136.668C203.413 135.89 204.711 134.982 205.914 133.957C205.513 133.788 205.082 133.7 204.646 133.7H175.499C175.588 133.787 175.678 133.874 175.768 133.958C177.363 135.442 179.284 136.535 181.276 137.418Z" fill="white"/>
<path d="M205.917 133.957C204.714 134.982 203.416 135.89 202.04 136.668C197.897 138.999 193.019 140.075 188.304 139.468C185.876 139.156 183.517 138.411 181.279 137.418C179.291 136.535 177.366 135.442 175.772 133.958C175.681 133.874 175.592 133.787 175.502 133.7H175.338C174.837 133.699 174.342 133.813 173.891 134.033C173.44 134.254 173.046 134.574 172.739 134.971C172.432 135.367 172.22 135.829 172.119 136.32C172.018 136.812 172.031 137.32 172.157 137.805C173.151 141.55 175.407 146.96 180.452 150.107C183.971 148.786 187.681 147.982 191.432 147.92C194.558 147.856 197.669 148.348 200.622 149.373C204.913 146.168 206.913 141.275 207.831 137.809C208.032 137.044 207.948 136.233 207.597 135.524C207.245 134.816 206.648 134.259 205.917 133.957Z" fill="#AB404A"/>
<path d="M189.321 177.645C189.099 177.645 188.873 177.635 188.65 177.625C179.008 177.22 169.736 173.594 161.785 167.774V204.778H204.034L215.297 188.687V168.873C207.704 174.048 199.012 177.246 189.989 177.621C189.767 177.633 189.544 177.641 189.321 177.645Z" fill="#F7A87E"/>
<path d="M161.785 172.898L187.612 202.901L215.297 172.898L218.947 177.984L209.29 225.911L187.431 204.778L163.576 225.887L156.687 177.763L161.785 172.898Z" fill="white"/>
<path d="M174.752 215.998L184.87 230.625L170.025 270.925L180.226 342.167L199.45 265.876L190.971 230.456L200.22 217.141L187.432 204.778L174.752 215.998Z" fill="#D75555"/>
<path d="M392.848 332.236L392.709 332.478H392.988L392.848 332.236Z" fill="#F68C24"/>
<path d="M497.936 293.46L534.971 270.724C543.964 265.202 555.376 268.985 559.983 279.014C564.343 288.503 560.948 300.04 552.329 305.039L514.799 326.8C506.285 331.735 495.703 328.276 491.127 319.059C486.593 309.942 489.625 298.563 497.936 293.46Z" fill="#F7A87E"/>
<path d="M485.245 246.829L535.304 226.854C547.458 222.004 561.195 228.328 565.413 240.716C569.401 252.436 563.337 265.203 551.732 269.514L501.207 288.273C489.744 292.529 476.998 286.719 472.691 275.275C468.432 263.957 474.012 251.31 485.245 246.829Z" fill="#F7A87E"/>
<path d="M480.53 202.405L528.807 183.141C540.53 178.464 553.779 184.563 557.847 196.511C561.695 207.814 555.845 220.127 544.651 224.283L495.922 242.375C484.868 246.48 472.575 240.876 468.422 229.84C464.311 218.925 469.694 206.728 480.53 202.405Z" fill="#F7A87E"/>
<path d="M234.164 137.493C240.289 137.836 246.585 136.143 251.447 132.402C256.309 128.661 259.614 122.824 259.879 116.696C260.026 113.316 259.09 109.621 256.373 107.607C254.298 106.068 251.543 105.772 248.97 105.995C245.397 106.306 241.655 107.722 239.76 110.767L234.164 137.493Z" fill="#F7A87E"/>
<path d="M247.564 115.894C247.868 116.078 248.15 116.295 248.405 116.543C249.518 117.612 250.168 119.076 250.213 120.619C250.258 122.162 249.695 123.661 248.645 124.793C248.594 124.849 248.532 124.894 248.463 124.925C248.395 124.957 248.321 124.975 248.245 124.978C248.169 124.981 248.094 124.969 248.023 124.942C247.952 124.916 247.887 124.876 247.832 124.825C247.776 124.773 247.731 124.712 247.7 124.643C247.668 124.574 247.65 124.5 247.648 124.424C247.645 124.349 247.657 124.274 247.683 124.203C247.709 124.132 247.749 124.067 247.8 124.011C248.643 123.1 249.095 121.895 249.059 120.655C249.023 119.415 248.502 118.238 247.608 117.378C247.283 117.066 246.788 116.695 246.216 116.6C244.063 117.925 242.397 119.911 241.466 122.262C241.423 122.372 241.348 122.466 241.25 122.531C241.151 122.597 241.035 122.631 240.917 122.628C240.849 122.627 240.782 122.614 240.719 122.589C240.576 122.533 240.462 122.424 240.4 122.284C240.339 122.145 240.335 121.986 240.391 121.844C241.487 119.024 243.557 116.69 246.226 115.264C248.895 113.838 251.986 113.415 254.94 114.071C255.089 114.105 255.219 114.196 255.301 114.325C255.383 114.453 255.41 114.61 255.377 114.759C255.344 114.908 255.252 115.038 255.124 115.12C254.995 115.201 254.838 115.229 254.689 115.196C252.3 114.678 249.808 114.922 247.564 115.894Z" fill="#D26F61"/>
<path d="M237.775 127.988C237.851 127.856 237.977 127.759 238.124 127.719C238.272 127.679 238.429 127.699 238.561 127.775C241.668 129.553 245.57 128.482 248.185 126.887C249.858 125.868 252.062 124.087 253.049 121.391C253.075 121.32 253.115 121.255 253.166 121.199C253.218 121.143 253.279 121.098 253.348 121.067C253.417 121.035 253.491 121.017 253.566 121.014C253.642 121.011 253.717 121.023 253.788 121.049C253.859 121.075 253.924 121.115 253.98 121.166C254.036 121.218 254.08 121.279 254.112 121.348C254.144 121.417 254.162 121.491 254.165 121.566C254.168 121.642 254.156 121.717 254.13 121.788C253.025 124.795 250.614 126.759 248.785 127.871C246.918 129.008 244.444 129.897 241.973 129.842C240.576 129.826 239.206 129.459 237.989 128.774C237.856 128.698 237.76 128.572 237.719 128.425C237.679 128.278 237.699 128.121 237.775 127.988Z" fill="#D26F61"/>
<path d="M144.14 137.493C138.015 137.836 131.714 136.143 126.857 132.402C122 128.661 118.69 122.824 118.425 116.696C118.278 113.316 119.215 109.621 121.931 107.607C124.006 106.068 126.761 105.772 129.334 105.995C132.907 106.306 136.649 107.722 138.544 110.767L144.14 137.493Z" fill="#F7A87E"/>
<path d="M130.739 115.894C130.435 116.078 130.153 116.295 129.898 116.543C128.785 117.612 128.135 119.076 128.09 120.619C128.045 122.162 128.608 123.661 129.658 124.793C129.709 124.849 129.771 124.894 129.84 124.925C129.908 124.957 129.982 124.975 130.058 124.978C130.134 124.981 130.209 124.969 130.28 124.942C130.351 124.916 130.416 124.876 130.471 124.825C130.527 124.773 130.572 124.712 130.603 124.643C130.635 124.574 130.653 124.5 130.656 124.424C130.658 124.349 130.646 124.273 130.62 124.203C130.594 124.132 130.554 124.067 130.503 124.011C129.66 123.1 129.208 121.895 129.244 120.655C129.28 119.415 129.801 118.238 130.696 117.378C131.02 117.065 131.515 116.695 132.087 116.6C134.24 117.925 135.907 119.911 136.837 122.262C136.88 122.371 136.955 122.466 137.054 122.531C137.152 122.597 137.268 122.631 137.386 122.628C137.454 122.627 137.521 122.614 137.584 122.589C137.655 122.561 137.719 122.52 137.774 122.468C137.829 122.416 137.873 122.354 137.903 122.284C137.933 122.215 137.95 122.141 137.952 122.065C137.953 121.99 137.94 121.914 137.913 121.844C136.816 119.024 134.746 116.69 132.077 115.264C129.409 113.838 126.318 113.415 123.364 114.071C123.29 114.088 123.22 114.118 123.159 114.162C123.097 114.205 123.044 114.26 123.003 114.324C122.963 114.388 122.935 114.459 122.922 114.534C122.909 114.608 122.91 114.684 122.927 114.758C122.943 114.832 122.974 114.902 123.017 114.964C123.061 115.026 123.116 115.079 123.18 115.119C123.243 115.16 123.315 115.187 123.389 115.201C123.464 115.214 123.54 115.212 123.614 115.196C126.004 114.678 128.496 114.922 130.739 115.894Z" fill="#D26F61"/>
<path d="M140.529 127.988C140.453 127.856 140.327 127.759 140.18 127.719C140.032 127.679 139.875 127.699 139.742 127.775C136.636 129.553 132.734 128.482 130.119 126.887C128.446 125.868 126.242 124.087 125.255 121.391C125.229 121.32 125.189 121.255 125.137 121.199C125.086 121.143 125.024 121.098 124.956 121.067C124.887 121.035 124.813 121.017 124.737 121.014C124.662 121.011 124.587 121.023 124.516 121.049C124.445 121.075 124.379 121.115 124.324 121.166C124.268 121.218 124.223 121.279 124.192 121.348C124.16 121.417 124.142 121.491 124.139 121.566C124.136 121.642 124.148 121.717 124.174 121.788C125.279 124.795 127.69 126.759 129.519 127.871C131.386 129.008 133.859 129.897 136.331 129.842C137.728 129.826 139.098 129.459 140.315 128.774C140.447 128.698 140.544 128.572 140.584 128.425C140.625 128.278 140.605 128.121 140.529 127.988Z" fill="#D26F61"/>
<path opacity="0.12" d="M216.337 129.255C220.949 129.255 224.688 125.516 224.688 120.904C224.688 116.291 220.949 112.552 216.337 112.552C211.724 112.552 207.985 116.291 207.985 120.904C207.985 125.516 211.724 129.255 216.337 129.255Z" fill="#ED7C6D"/>
<path opacity="0.12" d="M221.047 124.548C224.308 121.287 224.308 115.999 221.047 112.738C217.785 109.476 212.498 109.476 209.236 112.738C205.975 115.999 205.975 121.287 209.236 124.548C212.498 127.81 217.785 127.81 221.047 124.548Z" fill="#ED7C6D"/>
<path opacity="0.12" d="M219.828 129.255C224.44 129.255 228.179 125.516 228.179 120.904C228.179 116.291 224.44 112.552 219.828 112.552C215.216 112.552 211.477 116.291 211.477 120.904C211.477 125.516 215.216 129.255 219.828 129.255Z" fill="#ED7C6D"/>
<path opacity="0.12" d="M216.028 131.736C220.64 131.736 224.379 127.997 224.379 123.384C224.379 118.772 220.64 115.033 216.028 115.033C211.416 115.033 207.677 118.772 207.677 123.384C207.677 127.997 211.416 131.736 216.028 131.736Z" fill="#ED7C6D"/>
<path opacity="0.12" d="M216.819 127.158C220.274 127.158 223.074 124.358 223.074 120.904C223.074 117.449 220.274 114.649 216.819 114.649C213.365 114.649 210.564 117.449 210.564 120.904C210.564 124.358 213.365 127.158 216.819 127.158Z" fill="#ED7C6D"/>
<path opacity="0.12" d="M217.674 125.2C219.708 125.2 221.357 123.551 221.357 121.517C221.357 119.483 219.708 117.834 217.674 117.834C215.64 117.834 213.991 119.483 213.991 121.517C213.991 123.551 215.64 125.2 217.674 125.2Z" fill="#ED7C6D"/>
<path opacity="0.12" d="M218.719 121.047C219.187 119.068 217.96 117.084 215.981 116.617C214.001 116.15 212.017 117.376 211.55 119.355C211.083 121.335 212.309 123.319 214.289 123.786C216.268 124.253 218.252 123.027 218.719 121.047Z" fill="#ED7C6D"/>
<path opacity="0.12" d="M219.647 123.104C221.527 122.326 222.419 120.171 221.641 118.292C220.862 116.413 218.708 115.52 216.829 116.299C214.949 117.077 214.057 119.231 214.835 121.111C215.614 122.99 217.768 123.882 219.647 123.104Z" fill="#ED7C6D"/>
<path opacity="0.12" d="M217.746 124.306C219.625 123.527 220.518 121.373 219.739 119.493C218.961 117.614 216.806 116.722 214.927 117.5C213.048 118.279 212.155 120.433 212.934 122.312C213.712 124.192 215.867 125.084 217.746 124.306Z" fill="#ED7C6D"/>
<path opacity="0.12" d="M220.397 120.533C220.864 118.553 219.638 116.569 217.659 116.102C215.679 115.635 213.695 116.861 213.228 118.841C212.761 120.82 213.987 122.804 215.966 123.271C217.946 123.739 219.93 122.512 220.397 120.533Z" fill="#ED7C6D"/>
<path opacity="0.05" d="M217.388 122.311C218.841 122.311 220.019 121.133 220.019 119.68C220.019 118.226 218.841 117.048 217.388 117.048C215.935 117.048 214.757 118.226 214.757 119.68C214.757 121.133 215.935 122.311 217.388 122.311Z" fill="#FDECE9"/>
<path opacity="0.05" d="M216.813 120.216C217.681 120.216 218.385 119.512 218.385 118.643C218.385 117.774 217.681 117.07 216.813 117.07C215.944 117.07 215.24 117.774 215.24 118.643C215.24 119.512 215.944 120.216 216.813 120.216Z" fill="#FDECE9"/>
<path opacity="0.05" d="M218.022 119.251C217.895 119.42 217.72 119.548 217.52 119.619C217.32 119.689 217.104 119.698 216.898 119.646C216.693 119.593 216.507 119.481 216.366 119.323C216.224 119.165 216.133 118.969 216.103 118.759C216.073 118.549 216.105 118.334 216.197 118.143C216.289 117.952 216.435 117.792 216.618 117.684C216.8 117.576 217.011 117.524 217.222 117.536C217.434 117.547 217.638 117.621 217.808 117.748C217.92 117.833 218.015 117.939 218.087 118.06C218.159 118.181 218.206 118.316 218.226 118.455C218.246 118.595 218.238 118.737 218.203 118.873C218.168 119.01 218.107 119.138 218.022 119.251Z" fill="#FDECE9"/>
<path opacity="0.05" d="M217.672 119.109C217.544 119.279 217.37 119.408 217.169 119.479C216.969 119.549 216.752 119.559 216.546 119.506C216.341 119.454 216.155 119.342 216.013 119.184C215.871 119.026 215.779 118.829 215.749 118.619C215.719 118.409 215.752 118.194 215.844 118.003C215.935 117.811 216.082 117.651 216.264 117.543C216.447 117.434 216.658 117.383 216.87 117.394C217.082 117.406 217.286 117.48 217.456 117.607C217.684 117.778 217.834 118.032 217.875 118.314C217.915 118.595 217.842 118.881 217.672 119.109Z" fill="#FDECE9"/>
<path opacity="0.05" d="M215.302 119.301C215.871 119.147 216.207 118.561 216.053 117.992C215.899 117.423 215.313 117.087 214.745 117.241C214.176 117.395 213.84 117.981 213.994 118.55C214.148 119.118 214.734 119.455 215.302 119.301Z" fill="#FDECE9"/>
<path opacity="0.05" d="M217.806 119.109C217.678 119.279 217.504 119.407 217.303 119.478C217.103 119.548 216.887 119.557 216.681 119.505C216.476 119.452 216.291 119.34 216.149 119.182C216.007 119.024 215.916 118.827 215.886 118.617C215.856 118.407 215.889 118.193 215.98 118.002C216.072 117.811 216.218 117.651 216.401 117.543C216.583 117.435 216.794 117.383 217.006 117.395C217.217 117.406 217.421 117.48 217.591 117.607C217.818 117.778 217.969 118.032 218.009 118.314C218.049 118.596 217.976 118.882 217.806 119.109Z" fill="#FDECE9"/>
<path opacity="0.12" d="M159.702 129.255C164.314 129.255 168.053 125.516 168.053 120.904C168.053 116.291 164.314 112.552 159.702 112.552C155.09 112.552 151.351 116.291 151.351 120.904C151.351 125.516 155.09 129.255 159.702 129.255Z" fill="#ED7C6D"/>
<path opacity="0.12" d="M164.413 124.549C167.674 121.287 167.674 116 164.413 112.738C161.152 109.477 155.864 109.477 152.603 112.738C149.341 116 149.341 121.287 152.603 124.549C155.864 127.81 161.152 127.81 164.413 124.549Z" fill="#ED7C6D"/>
<path opacity="0.12" d="M163.194 129.255C167.806 129.255 171.545 125.516 171.545 120.904C171.545 116.291 167.806 112.552 163.194 112.552C158.582 112.552 154.843 116.291 154.843 120.904C154.843 125.516 158.582 129.255 163.194 129.255Z" fill="#ED7C6D"/>
<path opacity="0.12" d="M159.393 131.736C164.006 131.736 167.745 127.997 167.745 123.384C167.745 118.772 164.006 115.033 159.393 115.033C154.781 115.033 151.042 118.772 151.042 123.384C151.042 127.997 154.781 131.736 159.393 131.736Z" fill="#ED7C6D"/>
<path opacity="0.12" d="M160.184 127.158C163.639 127.158 166.439 124.358 166.439 120.904C166.439 117.449 163.639 114.649 160.184 114.649C156.73 114.649 153.93 117.449 153.93 120.904C153.93 124.358 156.73 127.158 160.184 127.158Z" fill="#ED7C6D"/>
<path opacity="0.12" d="M161.04 125.2C163.074 125.2 164.723 123.551 164.723 121.517C164.723 119.483 163.074 117.834 161.04 117.834C159.005 117.834 157.356 119.483 157.356 121.517C157.356 123.551 159.005 125.2 161.04 125.2Z" fill="#ED7C6D"/>
<path opacity="0.12" d="M162.086 121.048C162.554 119.068 161.328 117.085 159.348 116.617C157.368 116.15 155.385 117.376 154.917 119.356C154.45 121.336 155.676 123.319 157.656 123.786C159.636 124.254 161.619 123.028 162.086 121.048Z" fill="#ED7C6D"/>
<path opacity="0.12" d="M163.012 123.104C164.891 122.326 165.783 120.172 165.005 118.292C164.227 116.413 162.072 115.521 160.193 116.299C158.313 117.077 157.421 119.232 158.199 121.111C158.978 122.99 161.132 123.883 163.012 123.104Z" fill="#ED7C6D"/>
<path opacity="0.12" d="M161.111 124.306C162.991 123.527 163.883 121.373 163.105 119.493C162.326 117.614 160.172 116.722 158.292 117.5C156.413 118.279 155.521 120.433 156.299 122.312C157.078 124.192 159.232 125.084 161.111 124.306Z" fill="#ED7C6D"/>
<path opacity="0.12" d="M163.764 120.533C164.231 118.554 163.005 116.57 161.026 116.103C159.046 115.635 157.062 116.861 156.595 118.841C156.128 120.821 157.354 122.805 159.334 123.272C161.313 123.739 163.297 122.513 163.764 120.533Z" fill="#ED7C6D"/>
<path opacity="0.05" d="M160.753 122.311C162.207 122.311 163.385 121.133 163.385 119.68C163.385 118.226 162.207 117.048 160.753 117.048C159.3 117.048 158.122 118.226 158.122 119.68C158.122 121.133 159.3 122.311 160.753 122.311Z" fill="#FDECE9"/>
<path opacity="0.05" d="M160.178 120.216C161.047 120.216 161.751 119.512 161.751 118.643C161.751 117.774 161.047 117.07 160.178 117.07C159.31 117.07 158.605 117.774 158.605 118.643C158.605 119.512 159.31 120.216 160.178 120.216Z" fill="#FDECE9"/>
<path opacity="0.05" d="M161.388 119.251C161.26 119.42 161.086 119.548 160.885 119.619C160.685 119.689 160.469 119.698 160.263 119.646C160.058 119.593 159.873 119.481 159.731 119.323C159.589 119.165 159.498 118.969 159.468 118.759C159.438 118.549 159.471 118.334 159.562 118.143C159.654 117.952 159.8 117.792 159.983 117.684C160.165 117.576 160.376 117.524 160.588 117.536C160.8 117.547 161.003 117.621 161.173 117.748C161.286 117.833 161.381 117.939 161.452 118.06C161.524 118.181 161.572 118.316 161.591 118.455C161.611 118.595 161.604 118.737 161.569 118.873C161.534 119.01 161.472 119.138 161.388 119.251Z" fill="#FDECE9"/>
<path opacity="0.05" d="M161.037 119.109C160.91 119.279 160.735 119.407 160.535 119.478C160.335 119.548 160.118 119.557 159.913 119.505C159.707 119.452 159.522 119.34 159.38 119.182C159.239 119.024 159.147 118.827 159.117 118.617C159.087 118.407 159.12 118.193 159.212 118.002C159.304 117.811 159.45 117.651 159.632 117.543C159.815 117.435 160.025 117.383 160.237 117.395C160.449 117.406 160.653 117.48 160.822 117.607C161.05 117.778 161.2 118.032 161.24 118.314C161.281 118.596 161.208 118.882 161.037 119.109Z" fill="#FDECE9"/>
<path opacity="0.05" d="M160.929 119.641C161.501 119.485 161.837 118.895 161.681 118.323C161.524 117.752 160.934 117.416 160.363 117.572C159.791 117.729 159.455 118.319 159.612 118.89C159.768 119.461 160.358 119.798 160.929 119.641Z" fill="#FDECE9"/>
<path opacity="0.05" d="M161.172 119.109C161.044 119.279 160.87 119.408 160.669 119.479C160.469 119.549 160.252 119.559 160.047 119.506C159.841 119.454 159.655 119.342 159.513 119.184C159.371 119.026 159.279 118.829 159.249 118.619C159.219 118.409 159.252 118.194 159.344 118.003C159.435 117.811 159.582 117.651 159.764 117.543C159.947 117.434 160.158 117.383 160.37 117.394C160.582 117.406 160.786 117.48 160.956 117.607C161.184 117.778 161.334 118.032 161.375 118.314C161.415 118.595 161.342 118.881 161.172 119.109Z" fill="#FDECE9"/>
<path d="M181.772 114.614C181.772 114.638 181.772 114.661 181.772 114.685C181.796 116.85 182.673 118.918 184.212 120.44C185.751 121.963 187.829 122.816 189.994 122.816C192.159 122.816 194.237 121.963 195.776 120.44C197.315 118.918 198.192 116.85 198.216 114.685C198.216 114.661 198.216 114.638 198.216 114.614H181.772Z" fill="#F17D6F"/>
<path d="M331.346 214.342C330.559 210.995 330.862 206.658 329.825 203.846C343.297 178.689 342.214 155.064 337.844 140.846C333.474 126.627 314.483 118.586 307.525 139.47C304.067 149.848 289.526 192.324 284.246 203.165C281.099 218.712 279.863 234.964 280.36 251.095C284.672 248.979 288.877 246.636 292.953 244.163C307.322 235.452 319.434 226.199 331.346 214.342Z" fill="#F7A87E"/>
</svg>
