<svg width="90" height="90" viewBox="0 0 90 90" fill="none" xmlns="http://www.w3.org/2000/svg">
<path d="M1.04102 84.0062C1.04102 81.5758 3.02062 79.5962 5.45102 79.5962C7.88142 79.5962 9.86102 81.5758 9.86102 84.0062C9.86102 86.4366 7.88142 88.4162 5.45102 88.4162C3.02062 88.4162 1.04102 86.4366 1.04102 84.0062Z" stroke="white" stroke-width="1.96" stroke-miterlimit="10"/>
<path d="M20.7002 64.347C20.7002 61.9166 22.6798 59.937 25.1102 59.937C27.5406 59.937 29.5202 61.9166 29.5202 64.347C29.5202 66.7774 27.5406 68.757 25.1102 68.757C22.6798 68.757 20.7002 66.7774 20.7002 64.347Z" stroke="white" stroke-width="1.96" stroke-miterlimit="10"/>
<path d="M44.7489 49.1179C47.1844 49.1179 49.1589 47.1434 49.1589 44.7079C49.1589 42.2723 47.1844 40.2979 44.7489 40.2979C42.3133 40.2979 40.3389 42.2723 40.3389 44.7079C40.3389 47.1434 42.3133 49.1179 44.7489 49.1179Z" stroke="white" stroke-width="1.96" stroke-miterlimit="10"/>
<path d="M64.3885 29.4592C66.8241 29.4592 68.7985 27.4847 68.7985 25.0492C68.7985 22.6136 66.8241 20.6392 64.3885 20.6392C61.9529 20.6392 59.9785 22.6136 59.9785 25.0492C59.9785 27.4847 61.9529 29.4592 64.3885 29.4592Z" stroke="white" stroke-width="1.96" stroke-miterlimit="10"/>
<path d="M84.0467 9.82C86.4823 9.82 88.4567 7.84558 88.4567 5.41C88.4567 2.97442 86.4823 1 84.0467 1C81.6111 1 79.6367 2.97442 79.6367 5.41C79.6367 7.84558 81.6111 9.82 84.0467 9.82Z" stroke="white" stroke-width="1.96" stroke-miterlimit="10"/>
</svg>
