<svg width="511" height="377" viewBox="0 0 511 377" fill="none" xmlns="http://www.w3.org/2000/svg">
<g opacity="0.6">
<path d="M373.042 122.662L226.14 69.5614" stroke="#1E6AC6" stroke-opacity="0.6" stroke-width="8.4" stroke-linecap="round"/>
<path d="M186.965 55.4004L182.068 53.6304" stroke="#179F0C" stroke-opacity="0.6" stroke-width="8.4" stroke-linecap="round"/>
<path d="M108.142 242.833L83.658 233.983" stroke="#179F0C" stroke-opacity="0.6" stroke-width="8.4" stroke-linecap="round"/>
<path d="M67.791 78.761L53.1009 73.4509" stroke="#179F0C" stroke-opacity="0.6" stroke-width="8.4" stroke-linecap="round"/>
<path d="M100.001 173.452L93.0057 170.924" stroke="#179F0C" stroke-opacity="0.6" stroke-width="8.4" stroke-linecap="round"/>
<path d="M258.762 147.792L121.654 98.2308" stroke="#1E6AC6" stroke-opacity="0.6" stroke-width="8.4" stroke-linecap="round"/>
<path d="M222.419 217.703L139.175 187.612" stroke="#1E6AC6" stroke-opacity="0.6" stroke-width="8.4" stroke-linecap="round"/>
<path d="M235.455 288.854L152.211 258.763" stroke="#1E6AC6" stroke-opacity="0.6" stroke-width="8.4" stroke-linecap="round"/>
<path d="M251.887 274.302C256.675 284.355 252.467 296.515 242.486 301.462C232.511 306.411 220.539 302.274 215.751 292.222C215.121 290.909 214.515 289.582 213.931 288.258C199.605 255.67 199.258 220.511 210.452 189.544C221.646 158.576 244.393 131.765 276.245 115.869C277.54 115.224 278.855 114.592 280.179 113.986C313.906 98.5103 350.828 98.0231 383.248 109.742C415.673 121.463 443.746 145.444 459.782 178.908C460.413 180.22 461.019 181.547 461.603 182.871C475.929 215.46 476.276 250.618 465.082 281.586C453.888 312.553 431.141 339.364 399.289 355.26C397.992 355.909 396.678 356.538 395.355 357.143C385.246 361.811 373.4 357.339 368.89 347.154C364.384 336.97 368.92 324.928 379.028 320.26C380.017 319.805 380.996 319.336 381.955 318.86C403.915 307.9 419.61 289.368 427.353 267.948C435.098 246.523 434.875 222.238 425.001 199.775C424.57 198.792 424.116 197.805 423.646 196.827C415.473 179.773 402.741 166.188 387.549 156.83L356.625 242.381C352.798 252.967 341.251 258.494 330.835 254.729C320.418 250.964 315.074 239.331 318.901 228.745L349.825 143.194C332.161 140.675 313.686 142.979 296.497 150.866C295.509 151.322 294.529 151.79 293.571 152.267C271.611 163.227 255.915 181.758 248.172 203.179C240.428 224.603 240.646 248.887 250.525 271.351C250.956 272.334 251.411 273.317 251.879 274.299L251.887 274.302Z" fill="#1E6AC6" fill-opacity="0.9"/>
</g>
</svg>
