<svg width="193" height="96" viewBox="0 0 193 96" fill="none" xmlns="http://www.w3.org/2000/svg">
<g opacity="0.6">
<path d="M134.764 6.38184L70.9456 6.38184" stroke="#1E6AC6" stroke-opacity="0.6" stroke-width="8.4" stroke-linecap="round"/>
<path d="M53.9268 6.38184L51.7995 6.38184" stroke="#179F0C" stroke-opacity="0.6" stroke-width="8.4" stroke-linecap="round"/>
<path d="M49.6729 89.3455L39.0365 89.3455" stroke="#179F0C" stroke-opacity="0.6" stroke-width="8.4" stroke-linecap="round"/>
<path d="M11.3818 31.9089L5.00003 31.9089" stroke="#179F0C" stroke-opacity="0.6" stroke-width="8.4" stroke-linecap="round"/>
<path d="M36.9092 63.8181L33.8702 63.8181" stroke="#179F0C" stroke-opacity="0.6" stroke-width="8.4" stroke-linecap="round"/>
<path d="M94.3447 31.9089L34.7812 31.9089" stroke="#1E6AC6" stroke-opacity="0.6" stroke-width="8.4" stroke-linecap="round"/>
<path d="M90.0908 63.8181L53.9272 63.8181" stroke="#1E6AC6" stroke-opacity="0.6" stroke-width="8.4" stroke-linecap="round"/>
<path d="M104.981 89.3455L68.8179 89.3455" stroke="#1E6AC6" stroke-opacity="0.6" stroke-width="8.4" stroke-linecap="round"/>
<path d="M109.274 81.4722C112.51 84.6697 112.582 89.9263 109.434 93.2134C106.289 96.5004 101.114 96.5735 97.8787 93.376C97.4542 92.9594 97.037 92.5337 96.6287 92.1061C86.5982 81.5745 81.582 68.1139 81.582 54.6607C81.582 41.2075 86.5982 27.7469 96.6287 17.2153C97.037 16.7878 97.4542 16.362 97.8787 15.9454C108.688 5.31515 122.807 0 136.891 0C150.977 0 165.094 5.31515 175.903 15.9454C176.328 16.362 176.745 16.7878 177.153 17.2153C187.184 27.7469 192.2 41.2075 192.2 54.6607C192.2 68.1139 187.184 81.5745 177.153 92.1061C176.745 92.5355 176.328 92.9594 175.903 93.376C172.668 96.5735 167.495 96.5004 164.348 93.2134C161.202 89.9263 161.272 84.6697 164.508 81.4722C164.824 81.1597 165.135 80.8436 165.438 80.5275C172.353 73.2665 175.81 63.9663 175.81 54.6607C175.81 45.3533 172.351 36.0531 165.438 28.7939C165.135 28.476 164.824 28.1599 164.508 27.8493C158.999 22.4318 152.22 18.9803 145.083 17.4949V54.6607C145.083 59.2596 141.414 62.987 136.889 62.987C132.364 62.987 128.695 59.2596 128.695 54.6607V17.4949C121.558 18.9803 114.78 22.4318 109.271 27.8493C108.954 28.1617 108.643 28.4778 108.341 28.7939C101.425 36.0549 97.9686 45.3551 97.9686 54.6607C97.9686 63.9682 101.425 73.2683 108.341 80.5275C108.643 80.8455 108.954 81.1597 109.271 81.4722H109.274Z" fill="#1E6AC6" fill-opacity="0.9"/>
</g>
</svg>
