<svg width="208" height="149" viewBox="0 0 208 149" fill="none" xmlns="http://www.w3.org/2000/svg">
<g opacity="0.6">
<path d="M150.861 46.3115L90.052 26.9457" stroke="#1E6AC6" stroke-opacity="0.6" stroke-width="8.4" stroke-linecap="round"/>
<path d="M73.8364 21.7812L71.8095 21.1357" stroke="#179F0C" stroke-opacity="0.6" stroke-width="8.4" stroke-linecap="round"/>
<path d="M44.6069 99.542L34.4721 96.3144" stroke="#179F0C" stroke-opacity="0.6" stroke-width="8.4" stroke-linecap="round"/>
<path d="M25.5513 33.1943L19.4704 31.2578" stroke="#179F0C" stroke-opacity="0.6" stroke-width="8.4" stroke-linecap="round"/>
<path d="M40.1909 71.3452L37.2953 70.423" stroke="#179F0C" stroke-opacity="0.6" stroke-width="8.4" stroke-linecap="round"/>
<path d="M104.602 58.3696L47.8471 40.2949" stroke="#1E6AC6" stroke-opacity="0.6" stroke-width="8.4" stroke-linecap="round"/>
<path d="M90.8647 87.4834L56.4064 76.5094" stroke="#1E6AC6" stroke-opacity="0.6" stroke-width="8.4" stroke-linecap="round"/>
<path d="M97.3071 116.325L62.8488 105.351" stroke="#1E6AC6" stroke-opacity="0.6" stroke-width="8.4" stroke-linecap="round"/>
<path d="M103.787 110.126C105.9 114.155 104.373 119.185 100.377 121.362C96.3819 123.54 91.4292 122.039 89.3165 118.011C89.0385 117.485 88.7701 116.952 88.5108 116.421C82.1491 103.342 81.4541 88.9944 85.5366 76.1755C89.619 63.3567 98.4833 52.053 111.237 45.0618C111.755 44.7783 112.282 44.4993 112.813 44.2311C126.338 37.3822 141.404 36.602 154.825 40.876C168.247 45.1505 180.085 54.4988 187.159 67.908C187.437 68.4337 187.705 68.966 187.964 69.4973C194.326 82.5761 195.021 96.9241 190.939 109.743C186.856 122.562 177.992 133.865 165.238 140.857C164.719 141.142 164.193 141.419 163.662 141.687C159.609 143.752 154.702 142.113 152.701 138.026C150.701 133.939 152.363 128.952 156.416 126.887C156.813 126.685 157.205 126.478 157.589 126.269C166.381 121.449 172.497 113.636 175.321 104.769C178.146 95.9007 177.672 85.9896 173.287 76.9747C173.096 76.5801 172.895 76.1845 172.688 75.7924C169.083 68.9587 163.671 63.613 157.322 60.0319L146.044 95.4453C144.648 99.8273 140.021 102.266 135.709 100.892C131.397 99.5192 129.032 94.8542 130.428 90.4721L141.706 55.0588C134.455 54.3086 126.949 55.5403 120.056 59.0306C119.659 59.2322 119.267 59.439 118.883 59.6485C110.09 64.4687 103.974 72.2813 101.15 81.1481C98.3261 90.0167 98.7978 99.9273 103.184 108.943C103.376 109.337 103.577 109.731 103.784 110.125L103.787 110.126Z" fill="#1E6AC6" fill-opacity="0.9"/>
</g>
</svg>
