<svg width="101" height="64" viewBox="0 0 101 64" fill="none" xmlns="http://www.w3.org/2000/svg">
<g opacity="0.6">
<path d="M65.2334 9.03174L34.285 14.647" stroke="#1E6AC6" stroke-opacity="0.6" stroke-width="8.4" stroke-linecap="round"/>
<path d="M26.0322 16.1445L25.0006 16.3317" stroke="#179F0C" stroke-opacity="0.6" stroke-width="8.4" stroke-linecap="round"/>
<path d="M31.2686 56.7515L26.1105 57.6873" stroke="#179F0C" stroke-opacity="0.6" stroke-width="8.4" stroke-linecap="round"/>
<path d="M7.64551 32.2671L4.55066 32.8286" stroke="#179F0C" stroke-opacity="0.6" stroke-width="8.4" stroke-linecap="round"/>
<path d="M22.833 45.4956L21.3593 45.763" stroke="#179F0C" stroke-opacity="0.6" stroke-width="8.4" stroke-linecap="round"/>
<path d="M47.8789 24.9673L18.9937 30.2082" stroke="#1E6AC6" stroke-opacity="0.6" stroke-width="8.4" stroke-linecap="round"/>
<path d="M48.623 40.8159L31.0856 43.9979" stroke="#1E6AC6" stroke-opacity="0.6" stroke-width="8.4" stroke-linecap="round"/>
<path d="M58.0898 51.8853L40.5524 55.0672" stroke="#1E6AC6" stroke-opacity="0.6" stroke-width="8.4" stroke-linecap="round"/>
<path d="M59.4798 47.6893C61.3302 48.9553 61.8276 51.4982 60.5905 53.3691C59.3542 55.2399 56.8513 55.7307 55.0009 54.4648C54.7584 54.3001 54.5186 54.1303 54.283 53.9589C48.492 49.7342 44.8751 43.6479 43.6914 37.1238C42.5076 30.5997 43.7558 23.6307 47.6934 17.6408C47.8538 17.3975 48.0187 17.1544 48.1879 16.915C52.4945 10.8088 58.8736 6.98891 65.7038 5.74964C72.5349 4.51021 79.8485 5.84566 86.0258 10.0497C86.2683 10.2144 86.5081 10.3841 86.7437 10.5555C92.5347 14.7803 96.1516 20.8665 97.3353 27.3907C98.5191 33.9148 97.2709 40.8838 93.3333 46.8737C93.173 47.1178 93.008 47.3601 92.8388 47.5995C91.5511 49.4348 89.0362 49.8545 87.2206 48.5374C85.4059 47.2201 84.9774 44.6647 86.2651 42.8294C86.3911 42.6501 86.5142 42.4694 86.6329 42.2895C89.3477 38.1598 90.2057 33.3456 89.387 28.8328C88.568 24.3192 86.0724 20.1134 82.081 17.2014C81.9065 17.0738 81.7278 16.9479 81.5469 16.8251C78.3987 14.6827 74.8077 13.6053 71.2161 13.5129L74.4862 31.5364C74.8909 33.7666 73.4396 35.897 71.2451 36.2952C69.0506 36.6934 66.9434 35.2086 66.5387 32.9784L63.2685 14.9549C59.9383 16.3032 56.9547 18.5734 54.7598 21.6854C54.6338 21.8647 54.5107 22.0454 54.392 22.2253C51.6773 26.355 50.8192 31.1692 51.638 35.682C52.457 40.1956 54.9516 44.4015 58.944 47.3134C59.1185 47.441 59.297 47.566 59.478 47.6897L59.4798 47.6893Z" fill="#1E6AC6" fill-opacity="0.9"/>
</g>
</svg>
