<svg width="63" height="63" viewBox="0 0 63 63" fill="none" xmlns="http://www.w3.org/2000/svg">
<path d="M52.4812 53.7774L10.6956 8.59518C10.6253 8.66018 10.5478 8.71737 10.4775 8.78237C10.4073 8.84737 10.3442 8.92019 10.2739 8.98519L52.0595 54.1674C52.1298 54.1024 52.2073 54.0452 52.2776 53.9802C52.3478 53.9152 52.4109 53.8424 52.4812 53.7774Z" fill="#FF9149"/>
<path d="M3.66705 18.0002C3.57704 18.1848 3.48702 18.3695 3.39672 18.5616L41.983 60.2845C42.1738 60.2167 42.3652 60.1339 42.5639 60.0588L3.66705 18.0002Z" fill="#FF9149"/>
<path d="M8.65886 10.6382C8.52523 10.7835 8.39189 10.9214 8.26578 11.067L49.8347 56.0149C49.9897 55.9005 50.1375 55.7783 50.2928 55.6564L8.65886 10.6382Z" fill="#FF9149"/>
<path d="M6.7951 12.8762C6.67621 13.0296 6.55732 13.183 6.43814 13.344L47.4149 57.6516C47.5843 57.5528 47.7468 57.4387 47.909 57.3322L6.7879 12.8684L6.7951 12.8762Z" fill="#FF9149"/>
<path d="M2.43912 20.9178C2.36355 21.1181 2.28769 21.3258 2.21964 21.5264L38.9283 61.219C39.1411 61.1671 39.3466 61.1074 39.5522 61.0476L2.43912 20.9178Z" fill="#FF9149"/>
<path d="M5.12635 15.325C5.0219 15.494 4.91746 15.663 4.81272 15.8396L44.8073 59.0852C44.9839 58.9942 45.1606 58.9033 45.3448 58.8126L5.12635 15.325Z" fill="#FF9149"/>
<path d="M62.1591 31.0781C62.1555 30.7844 62.1444 30.4905 62.1333 30.1965L34.9719 0.827252C34.6797 0.793258 34.3875 0.759299 34.095 0.732821L62.1663 31.0859L62.1591 31.0781Z" fill="#FF9149"/>
<path d="M31.9221 62.1496C32.1782 62.1446 32.4346 62.1321 32.6832 62.1267L0.834874 27.6895C0.802349 27.9442 0.777627 28.1916 0.752616 28.4465L31.9221 62.1496Z" fill="#FF9149"/>
<path d="M39.775 1.76751C39.4325 1.67133 39.0822 1.58239 38.7391 1.50125L61.7479 26.3804C61.6938 26.032 61.6324 25.6759 61.5632 25.3269L39.775 1.76751Z" fill="#FF9149"/>
<path d="M1.47091 24.124C1.41701 24.3477 1.37032 24.5793 1.31613 24.8105L35.5838 61.8637C35.8182 61.8352 36.0454 61.7989 36.2802 61.7629L1.47091 24.124Z" fill="#FF9149"/>
<path d="M46.0871 4.34739C45.6007 4.08001 45.0988 3.82708 44.6038 3.58947L60.1235 20.3708C59.9255 19.8512 59.7122 19.3386 59.4836 18.8329L46.0871 4.34739Z" fill="#FF9149"/>
<path d="M30.8405 0.613242C30.5844 0.618293 30.328 0.63082 30.0794 0.636164L61.9277 35.0734C61.9602 34.8187 61.9853 34.5638 62.01 34.3164L30.8405 0.613242Z" fill="#FF9149"/>
<path d="M27.1714 0.898939C26.9369 0.927416 26.7097 0.963735 26.4749 0.999728L61.2842 38.6386C61.3381 38.4149 61.3848 38.1833 61.439 37.9521L27.1714 0.898939Z" fill="#FF9149"/>
<path d="M1.01471 36.3825C1.06884 36.7308 1.1302 37.087 1.19936 37.4359L22.9877 60.9954C23.3301 61.0915 23.6729 61.1802 24.0235 61.2616L1.01471 36.3825Z" fill="#FF9149"/>
<path d="M12.928 6.74796C12.773 6.86234 12.6252 6.98452 12.4699 7.10641L54.1038 52.1246C54.2374 51.9793 54.3708 51.8415 54.4969 51.6959L12.928 6.74796Z" fill="#FF9149"/>
<path d="M0.610781 31.6926C0.614362 31.9863 0.625455 32.2802 0.636554 32.5742L27.7979 61.9434C28.0901 61.9774 28.3823 62.0114 28.6748 62.0379L0.603552 31.6847L0.610781 31.6926Z" fill="#FF9149"/>
<path d="M16.6756 58.4155C17.1619 58.6829 17.6638 58.9358 18.1589 59.1734L2.63912 42.3921C2.83711 42.9117 3.05041 43.4243 3.27905 43.93L16.6756 58.4155Z" fill="#FF9149"/>
<path d="M15.3403 5.11104C15.1708 5.2098 15.0083 5.32389 14.8461 5.43046L55.9672 49.8942C56.0861 49.7408 56.205 49.5874 56.3242 49.4265L15.3475 5.11886L15.3403 5.11104Z" fill="#FF9149"/>
<path d="M17.9551 3.68522C17.7787 3.76866 17.6017 3.86709 17.4175 3.95774L57.636 47.4454C57.7404 47.2764 57.8449 47.1074 57.9496 46.9308L17.9551 3.68522Z" fill="#FF9149"/>
<path d="M23.8343 1.54386C23.6216 1.59576 23.416 1.65548 23.2104 1.7152L60.3235 41.8451C60.399 41.6448 60.4749 41.437 60.543 41.2364L23.8343 1.54386Z" fill="#FF9149"/>
<path d="M20.7793 2.48581C20.5885 2.55363 20.3971 2.63648 20.1984 2.71152L59.0953 44.7702C59.1853 44.5855 59.2753 44.4009 59.3656 44.2087L20.7793 2.48581Z" fill="#FF9149"/>
</svg>
