<svg width="90" height="90" viewBox="0 0 90 90" fill="none" xmlns="http://www.w3.org/2000/svg">
<path d="M1 84.0059C1 81.5755 2.9796 79.5959 5.41 79.5959C7.8404 79.5959 9.82 81.5755 9.82 84.0059C9.82 86.4363 7.8404 88.4159 5.41 88.4159C2.9796 88.4159 1 86.4363 1 84.0059Z" stroke="white" stroke-width="1.96" stroke-miterlimit="10"/>
<path d="M20.6592 64.347C20.6592 61.9166 22.6388 59.937 25.0692 59.937C27.4996 59.937 29.4792 61.9166 29.4792 64.347C29.4792 66.7774 27.4996 68.757 25.0692 68.757C22.6388 68.757 20.6592 66.7774 20.6592 64.347Z" stroke="white" stroke-width="1.96" stroke-miterlimit="10"/>
<path d="M44.7079 49.1179C47.1434 49.1179 49.1179 47.1434 49.1179 44.7079C49.1179 42.2723 47.1434 40.2979 44.7079 40.2979C42.2723 40.2979 40.2979 42.2723 40.2979 44.7079C40.2979 47.1434 42.2723 49.1179 44.7079 49.1179Z" stroke="white" stroke-width="1.96" stroke-miterlimit="10"/>
<path d="M64.3475 29.4592C66.7831 29.4592 68.7575 27.4847 68.7575 25.0492C68.7575 22.6136 66.7831 20.6392 64.3475 20.6392C61.9119 20.6392 59.9375 22.6136 59.9375 25.0492C59.9375 27.4847 61.9119 29.4592 64.3475 29.4592Z" stroke="white" stroke-width="1.96" stroke-miterlimit="10"/>
<path d="M84.0057 9.82C86.4413 9.82 88.4157 7.84558 88.4157 5.41C88.4157 2.97442 86.4413 1 84.0057 1C81.5701 1 79.5957 2.97442 79.5957 5.41C79.5957 7.84558 81.5701 9.82 84.0057 9.82Z" stroke="white" stroke-width="1.96" stroke-miterlimit="10"/>
</svg>
