<svg width="202" height="128" viewBox="0 0 202 128" fill="none" xmlns="http://www.w3.org/2000/svg">
<g opacity="0.6">
<path d="M128.818 16.5918L66.0255 27.9849" stroke="#1E6AC6" stroke-opacity="0.6" stroke-width="8.4" stroke-linecap="round"/>
<path d="M49.2803 31.0229L47.1872 31.4027" stroke="#179F0C" stroke-opacity="0.6" stroke-width="8.4" stroke-linecap="round"/>
<path d="M59.9053 113.414L49.4398 115.312" stroke="#179F0C" stroke-opacity="0.6" stroke-width="8.4" stroke-linecap="round"/>
<path d="M11.9756 63.7358L5.6963 64.8752" stroke="#179F0C" stroke-opacity="0.6" stroke-width="8.4" stroke-linecap="round"/>
<path d="M42.7891 90.5752L39.7989 91.1177" stroke="#179F0C" stroke-opacity="0.6" stroke-width="8.4" stroke-linecap="round"/>
<path d="M93.6064 48.9248L34.9997 59.5584" stroke="#1E6AC6" stroke-opacity="0.6" stroke-width="8.4" stroke-linecap="round"/>
<path d="M95.1162 81.0806L59.5336 87.5367" stroke="#1E6AC6" stroke-opacity="0.6" stroke-width="8.4" stroke-linecap="round"/>
<path d="M114.325 103.54L78.7426 109.996" stroke="#1E6AC6" stroke-opacity="0.6" stroke-width="8.4" stroke-linecap="round"/>
<path d="M117.144 95.0262C120.898 97.5947 121.907 102.754 119.397 106.55C116.889 110.346 111.811 111.342 108.056 108.773C107.564 108.439 107.078 108.095 106.6 107.747C94.8502 99.1752 87.5116 86.8264 85.1099 73.5893C82.7081 60.3521 85.2406 46.2123 93.2299 34.0592C93.5553 33.5656 93.8898 33.0722 94.2331 32.5866C102.971 20.1973 115.914 12.447 129.772 9.93261C143.632 7.41786 158.471 10.1274 171.004 18.6572C171.496 18.9913 171.983 19.3357 172.461 19.6835C184.211 28.2553 191.549 40.6041 193.951 53.8412C196.353 67.0783 193.82 81.2181 185.831 93.3713C185.506 93.8666 185.171 94.3582 184.828 94.8439C182.215 98.5676 177.112 99.4192 173.429 96.7468C169.747 94.0742 168.877 88.8894 171.49 85.1657C171.746 84.8017 171.995 84.4352 172.236 84.0702C177.744 75.6912 179.485 65.9234 177.824 56.7672C176.162 47.6093 171.099 39.076 163 33.1677C162.646 32.9088 162.284 32.6533 161.917 32.4042C155.529 28.0573 148.243 25.8714 140.956 25.6839L147.591 62.2527C148.412 66.7777 145.468 71.1002 141.015 71.9081C136.563 72.7159 132.287 69.7034 131.466 65.1784L124.831 28.6096C118.074 31.3453 112.021 35.9515 107.567 42.2654C107.312 42.6293 107.062 42.9959 106.821 43.3609C101.313 51.7398 99.5719 61.5077 101.233 70.6638C102.895 79.8218 107.956 88.3554 116.057 94.2634C116.411 94.5223 116.773 94.776 117.14 95.0269L117.144 95.0262Z" fill="#1E6AC6" fill-opacity="0.9"/>
</g>
</svg>
