<svg width="305" height="228" viewBox="0 0 305 228" fill="none" xmlns="http://www.w3.org/2000/svg">
<g opacity="0.6">
<path d="M223.326 75.9205L136.253 42.8649" stroke="#1E6AC6" stroke-opacity="0.6" stroke-width="8.4" stroke-linecap="round"/>
<path d="M113.033 34.0497L110.131 32.9478" stroke="#179F0C" stroke-opacity="0.6" stroke-width="8.4" stroke-linecap="round"/>
<path d="M64.2568 145.041L49.7447 139.532" stroke="#179F0C" stroke-opacity="0.6" stroke-width="8.4" stroke-linecap="round"/>
<path d="M41.7637 46.8418L33.0564 43.5362" stroke="#179F0C" stroke-opacity="0.6" stroke-width="8.4" stroke-linecap="round"/>
<path d="M60.0645 103.601L55.9181 102.027" stroke="#179F0C" stroke-opacity="0.6" stroke-width="8.4" stroke-linecap="round"/>
<path d="M154.957 89.8138L73.689 58.9619" stroke="#1E6AC6" stroke-opacity="0.6" stroke-width="8.4" stroke-linecap="round"/>
<path d="M132.625 131.147L83.2837 112.416" stroke="#1E6AC6" stroke-opacity="0.6" stroke-width="8.4" stroke-linecap="round"/>
<path d="M139.72 173.689L90.3784 154.958" stroke="#1E6AC6" stroke-opacity="0.6" stroke-width="8.4" stroke-linecap="round"/>
<path d="M149.655 165.171C152.414 171.209 149.789 178.419 143.792 181.273C137.798 184.128 130.7 181.548 127.942 175.509C127.578 174.721 127.229 173.924 126.894 173.129C118.663 153.565 118.792 132.601 125.76 114.246C132.728 95.8901 146.544 80.1229 165.685 70.9491C166.463 70.5772 167.253 70.2125 168.048 69.8639C188.302 60.9589 210.319 61.02 229.535 68.3152C248.755 75.6114 265.262 90.1754 274.504 110.278C274.868 111.066 275.216 111.863 275.552 112.658C283.783 132.223 283.654 153.187 276.686 171.542C269.718 189.898 255.902 205.665 236.761 214.839C235.982 215.213 235.193 215.575 234.398 215.924C228.327 218.61 221.307 215.831 218.716 209.716C216.126 203.602 218.945 196.466 225.016 193.78C225.609 193.517 226.198 193.247 226.774 192.972C239.97 186.648 249.503 175.749 254.324 163.052C259.144 150.353 259.243 135.873 253.57 122.388C253.322 121.797 253.061 121.205 252.79 120.617C248.08 110.372 240.619 102.152 231.651 96.4285L212.401 147.137C210.019 153.412 203.082 156.597 196.908 154.253C190.734 151.909 187.658 144.923 190.04 138.649L209.291 87.9398C198.785 86.27 187.748 87.468 177.425 92.0061C176.832 92.2684 176.243 92.5385 175.667 92.8133C162.471 99.1383 152.938 110.037 148.118 122.733C143.297 135.432 143.196 149.912 148.871 163.398C149.119 163.988 149.381 164.578 149.651 165.169L149.655 165.171Z" fill="#1E6AC6" fill-opacity="0.9"/>
</g>
</svg>
